<?xml version="1.0" encoding="UTF-8" standalone="no"?>
<!-- Created with Inkscape (http://www.inkscape.org/) -->

<svg
   xmlns:dc="http://purl.org/dc/elements/1.1/"
   xmlns:cc="http://creativecommons.org/ns#"
   xmlns:rdf="http://www.w3.org/1999/02/22-rdf-syntax-ns#"
   xmlns:svg="http://www.w3.org/2000/svg"
   xmlns="http://www.w3.org/2000/svg"
   xmlns:sodipodi="http://sodipodi.sourceforge.net/DTD/sodipodi-0.dtd"
   xmlns:inkscape="http://www.inkscape.org/namespaces/inkscape"
   width="1488.189"
   height="1052.3622"
   id="svg2"
   version="1.1"
   inkscape:version="0.48.5 r10040"
   sodipodi:docname="nekoboard_1_2.svg"
   inkscape:export-filename="/home/yuriy/Creative/neko_board-1_1.png"
   inkscape:export-xdpi="179.99875"
   inkscape:export-ydpi="179.99875">
  <defs
     id="defs4" />
  <sodipodi:namedview
     id="base"
     pagecolor="#eeeae0"
     bordercolor="#666666"
     borderopacity="1.0"
     inkscape:pageopacity="0"
     inkscape:pageshadow="2"
     inkscape:zoom="2"
     inkscape:cx="1230.0335"
     inkscape:cy="589.57942"
     inkscape:document-units="mm"
     inkscape:current-layer="layer1"
     showgrid="false"
     inkscape:showpageshadow="false"
     inkscape:snap-bbox="true"
     inkscape:bbox-paths="true"
     inkscape:bbox-nodes="true"
     inkscape:snap-bbox-edge-midpoints="true"
     inkscape:snap-bbox-midpoints="true"
     inkscape:object-paths="true"
     inkscape:snap-intersection-paths="true"
     inkscape:object-nodes="true"
     inkscape:snap-smooth-nodes="true"
     inkscape:snap-midpoints="true"
     inkscape:snap-object-midpoints="true"
     inkscape:snap-center="true"
     inkscape:snap-page="true"
     inkscape:window-width="1914"
     inkscape:window-height="1074"
     inkscape:window-x="0"
     inkscape:window-y="0"
     inkscape:window-maximized="0"
     inkscape:snap-global="true">
    <inkscape:grid
       type="xygrid"
       id="grid2985"
       empspacing="4"
       visible="true"
       enabled="true"
       snapvisiblegridlinesonly="true"
       units="mm"
       spacingx="0.25mm"
       spacingy="0.25mm" />
  </sodipodi:namedview>
  <metadata
     id="metadata7">
    <rdf:RDF>
      <cc:Work
         rdf:about="">
        <dc:format>image/svg+xml</dc:format>
        <dc:type
           rdf:resource="http://purl.org/dc/dcmitype/StillImage" />
        <dc:title></dc:title>
      </cc:Work>
    </rdf:RDF>
  </metadata>
  <g
     inkscape:label="Layer 1"
     inkscape:groupmode="layer"
     id="layer1"
     transform="translate(0,6.988066e-5)">
    <path
       style="color:#000000;fill:#b2b2b2;fill-opacity:1;stroke:none;stroke-width:0;stroke-linecap:round;stroke-linejoin:round;stroke-miterlimit:4;stroke-opacity:0;stroke-dasharray:none;stroke-dashoffset:0;marker:none;visibility:visible;display:inline;overflow:visible;enable-background:accumulate;fill-rule:nonzero"
       d="m 1250.9282,154.58309 -67.3174,-0.006 -0.01,67.31747 67.346,0.0187 -0.023,-67.33019 z m -8.8361,8.85948 -0.017,49.59329 -49.606,0.0119 -0.012,-49.60603 49.6346,7.9e-4 z"
       id="rect2987-5-8-6-6"
       inkscape:connector-curvature="0" />
    <path
       style="color:#000000;fill:#b2b2b2;fill-opacity:1;stroke:none;stroke-width:0;stroke-linecap:round;stroke-linejoin:round;stroke-miterlimit:4;stroke-opacity:0;stroke-dasharray:none;stroke-dashoffset:0;marker:none;visibility:visible;display:inline;overflow:visible;enable-background:accumulate;fill-rule:nonzero"
       d="m 846.99502,188.26298 -0.009,100.9762 67.3302,-0.0226 0.009,-100.97619 -67.33019,0.0226 z m 8.85802,25.66548 49.5933,0.0166 0.0119,49.60603 -49.59333,-0.0166 -0.0119,-49.60612 z"
       id="rect2987-5-8-6-3-2"
       inkscape:connector-curvature="0" />
    <path
       style="color:#000000;fill:#b2b2b2;fill-opacity:1;stroke:none;stroke-width:0;stroke-linecap:round;stroke-linejoin:round;stroke-miterlimit:4;stroke-opacity:0;stroke-dasharray:none;stroke-dashoffset:0;marker:none;visibility:visible;display:inline;overflow:visible;enable-background:accumulate;fill-rule:nonzero"
       d="m 1183.6123,137.74775 -67.3302,0.0225 -0.01,67.31746 67.3302,-0.0225 0.01,-67.31746 z m -8.8774,8.8753 0.012,49.60598 -49.5933,-0.0166 -0.012,-49.60607 49.5934,0.0166 z"
       id="rect2987-5-8-6-8-84"
       inkscape:connector-curvature="0" />
    <path
       style="color:#000000;fill:#b2b2b2;fill-opacity:1;stroke:none;stroke-width:0;stroke-linecap:round;stroke-linejoin:round;stroke-miterlimit:4;stroke-opacity:0;stroke-dasharray:none;stroke-dashoffset:0;marker:none;visibility:visible;display:inline;overflow:visible;enable-background:accumulate;fill-rule:nonzero"
       d="m 1116.2836,120.94092 -67.3175,-0.006 -0.01,67.31746 67.3175,0.006 0.01,-67.31746 z m -8.8647,8.84674 0.012,49.60603 -49.606,0.0119 8e-4,-49.63457 49.5933,0.0166 z"
       id="rect2987-5-8-6-80-60"
       inkscape:connector-curvature="0" />
    <path
       style="color:#000000;fill:#b2b2b2;fill-opacity:1;stroke:none;stroke-width:0;stroke-linecap:round;stroke-linejoin:round;stroke-miterlimit:4;stroke-opacity:0;stroke-dasharray:none;stroke-dashoffset:0;marker:none;visibility:visible;display:inline;overflow:visible;enable-background:accumulate;fill-rule:nonzero"
       d="m 1048.9631,154.59365 -67.31743,-0.006 -0.006,67.31746 67.31743,0.006 0.01,-67.31746 z m -8.8647,8.84675 0.012,49.60602 -49.60604,0.0119 -0.0119,-49.60603 49.60594,-0.0119 z"
       id="rect2987-5-8-6-8-2-37"
       inkscape:connector-curvature="0" />
    <path
       style="color:#000000;fill:#b2b2b2;fill-opacity:1;stroke:none;stroke-width:0;stroke-linecap:round;stroke-linejoin:round;stroke-miterlimit:4;stroke-opacity:0;stroke-dasharray:none;stroke-dashoffset:0;marker:none;visibility:visible;display:inline;overflow:visible;enable-background:accumulate;fill-rule:nonzero"
       d="m 981.64567,154.58765 -67.31746,-0.006 -0.006,67.31746 67.31746,0.006 0.006,-67.31746 z m -8.86469,8.84675 0.0119,49.60602 -49.60603,0.0119 -0.0119,-49.60603 49.60602,-0.0119 z"
       id="rect2987-5-8-6-80-9-0"
       inkscape:connector-curvature="0" />
    <path
       style="color:#000000;fill:#b2b2b2;fill-opacity:1;stroke:none;stroke-width:0;stroke-linecap:round;stroke-linejoin:round;stroke-miterlimit:4;stroke-opacity:0;stroke-dasharray:none;stroke-dashoffset:0;marker:none;visibility:visible;display:inline;overflow:visible;enable-background:accumulate;fill-rule:nonzero"
       d="m 1250.9508,221.91328 -67.346,-0.0187 0.023,67.33019 67.3174,0.006 0.01,-67.31746 z m -8.8647,8.84675 -8e-4,49.63453 -49.6218,-0.0293 0.016,-49.59334 49.6061,-0.0119 z"
       id="rect2987-5-8-6-7-0"
       inkscape:connector-curvature="0" />
    <path
       style="color:#000000;fill:#b2b2b2;fill-opacity:1;stroke:none;stroke-width:0;stroke-linecap:round;stroke-linejoin:round;stroke-miterlimit:4;stroke-opacity:0;stroke-dasharray:none;stroke-dashoffset:0;marker:none;visibility:visible;display:inline;overflow:visible;enable-background:accumulate;fill-rule:nonzero"
       d="m 1250.9282,154.58309 -0.01,100.97619 67.3175,0.006 0.01,-100.97619 -67.3175,-0.006 z m 8.8452,25.69403 49.606,-0.0119 -7e-4,49.63453 -49.5934,-0.0166 -0.012,-49.60612 z"
       id="rect2987-5-8-6-3-5-1"
       inkscape:connector-curvature="0" />
    <path
       style="color:#000000;fill:#b2b2b2;fill-opacity:1;stroke:none;stroke-width:0;stroke-linecap:round;stroke-linejoin:round;stroke-miterlimit:4;stroke-opacity:0;stroke-dasharray:none;stroke-dashoffset:0;marker:none;visibility:visible;display:inline;overflow:visible;enable-background:accumulate;fill-rule:nonzero"
       d="m 1183.6063,205.06521 -67.3302,0.0225 0.023,67.33015 67.3302,-0.0226 -0.023,-67.33015 z m -8.8489,8.88799 -0.017,49.59329 -49.5933,-0.0166 0.017,-49.59334 49.5933,0.0166 z"
       id="rect2987-5-8-6-8-4-8"
       inkscape:connector-curvature="0" />
    <path
       style="color:#000000;fill:#b2b2b2;fill-opacity:1;stroke:none;stroke-width:0;stroke-linecap:round;stroke-linejoin:round;stroke-miterlimit:4;stroke-opacity:0;stroke-dasharray:none;stroke-dashoffset:0;marker:none;visibility:visible;display:inline;overflow:visible;enable-background:accumulate;fill-rule:nonzero"
       d="m 1116.2776,188.25838 -67.3175,-0.006 -0.01,67.31746 67.3175,0.006 0.01,-67.31746 z m -8.8362,8.85943 -0.016,49.59334 -49.6061,0.0119 8e-4,-49.63457 49.6218,0.0293 z"
       id="rect2987-5-8-6-80-4-7"
       inkscape:connector-curvature="0" />
    <path
       style="color:#000000;fill:#b2b2b2;fill-opacity:1;stroke:none;stroke-width:0;stroke-linecap:round;stroke-linejoin:round;stroke-miterlimit:4;stroke-opacity:0;stroke-dasharray:none;stroke-dashoffset:0;marker:none;visibility:visible;display:inline;overflow:visible;enable-background:accumulate;fill-rule:nonzero"
       d="m 1048.9571,221.91111 -67.31743,-0.006 -0.006,67.31746 67.34603,0.0187 -0.023,-67.33019 z m -8.8361,8.85946 -0.017,49.59331 -49.60603,0.012 -0.012,-49.60603 49.63463,7.7e-4 z"
       id="rect2987-5-8-6-8-2-7-0"
       inkscape:connector-curvature="0" />
    <path
       style="color:#000000;fill:#b2b2b2;fill-opacity:1;stroke:none;stroke-width:0;stroke-linecap:round;stroke-linejoin:round;stroke-miterlimit:4;stroke-opacity:0;stroke-dasharray:none;stroke-dashoffset:0;marker:none;visibility:visible;display:inline;overflow:visible;enable-background:accumulate;fill-rule:nonzero"
       d="m 981.63967,221.90511 -67.31746,-0.006 -0.006,67.31746 67.31746,0.006 0.006,-67.31746 z m -8.83614,8.85946 -0.0293,49.62186 -49.59331,-0.0166 -0.012,-49.60602 49.63457,7.6e-4 z"
       id="rect2987-5-8-6-80-9-7-0"
       inkscape:connector-curvature="0" />
    <path
       style="color:#000000;fill:#b2b2b2;fill-opacity:1;fill-rule:nonzero;stroke:none;stroke-width:0;marker:none;visibility:visible;display:inline;overflow:visible;enable-background:accumulate"
       d="m 1250.9275,289.25391 -67.3001,-0.006 -0.019,67.32283 67.3128,-0.0226 0.01,-67.29431 z m -8.8624,8.84371 -8e-4,49.61745 -49.5805,-0.0166 -0.012,-49.58899 49.5934,-0.0119 z"
       id="rect2987-5-8-6-0-4"
       inkscape:connector-curvature="0" />
    <path
       style="color:#000000;fill:#b2b2b2;fill-opacity:1;stroke:none;stroke-width:0;stroke-linecap:round;stroke-linejoin:round;stroke-miterlimit:4;stroke-opacity:0;stroke-dasharray:none;stroke-dashoffset:0;marker:none;visibility:visible;display:inline;overflow:visible;enable-background:accumulate;fill-rule:nonzero"
       d="m 1250.9192,255.55928 -0.01,100.97619 67.3175,0.006 0.01,-100.97619 -67.3175,-0.006 z m 8.8452,25.69404 49.606,-0.0119 0.012,49.60594 -49.6061,0.012 -0.012,-49.60611 z"
       id="rect2987-5-8-6-3-9-0"
       inkscape:connector-curvature="0" />
    <path
       style="color:#000000;fill:#b2b2b2;fill-opacity:1;stroke:none;stroke-width:0;stroke-linecap:round;stroke-linejoin:round;stroke-miterlimit:4;stroke-opacity:0;stroke-dasharray:none;stroke-dashoffset:0;marker:none;visibility:visible;display:inline;overflow:visible;enable-background:accumulate;fill-rule:nonzero"
       d="m 1183.6288,272.39536 -67.3302,0.0226 -0.01,67.31746 67.3174,0.006 0.019,-67.34601 z m -8.8774,8.8753 0.012,49.60602 -49.6346,-7.4e-4 0.029,-49.62189 49.5933,0.0166 z"
       id="rect2987-5-8-6-8-8-2"
       inkscape:connector-curvature="0" />
    <path
       style="color:#000000;fill:#b2b2b2;fill-opacity:1;stroke:none;stroke-width:0;stroke-linecap:round;stroke-linejoin:round;stroke-miterlimit:4;stroke-opacity:0;stroke-dasharray:none;stroke-dashoffset:0;marker:none;visibility:visible;display:inline;overflow:visible;enable-background:accumulate;fill-rule:nonzero"
       d="m 1116.2716,255.57584 -67.3175,-0.006 0.023,67.33015 67.3175,0.006 -0.023,-67.33015 z m -8.8362,8.85944 -0.017,49.59333 -49.6061,0.0119 0.017,-49.59329 49.6059,-0.012 z"
       id="rect2987-5-8-6-80-6-3"
       inkscape:connector-curvature="0" />
    <path
       style="color:#000000;fill:#b2b2b2;fill-opacity:1;stroke:none;stroke-width:0;stroke-linecap:round;stroke-linejoin:round;stroke-miterlimit:4;stroke-opacity:0;stroke-dasharray:none;stroke-dashoffset:0;marker:none;visibility:visible;display:inline;overflow:visible;enable-background:accumulate;fill-rule:nonzero"
       d="m 1048.9797,289.2413 -67.34602,-0.0187 0.0226,67.33018 67.31752,0.006 0.01,-67.31746 z m -8.8647,8.84675 0.012,49.60598 -49.63453,-7.4e-4 0.0166,-49.59332 49.60603,-0.0119 z"
       id="rect2987-5-8-6-8-2-3-2"
       inkscape:connector-curvature="0" />
    <path
       style="color:#000000;fill:#b2b2b2;fill-opacity:1;stroke:none;stroke-width:0;stroke-linecap:round;stroke-linejoin:round;stroke-miterlimit:4;stroke-opacity:0;stroke-dasharray:none;stroke-dashoffset:0;marker:none;visibility:visible;display:inline;overflow:visible;enable-background:accumulate;fill-rule:nonzero"
       d="m 981.63368,289.22257 -67.31746,-0.006 0.01,67.35872 67.33017,-0.0226 -0.0226,-67.33018 z m -8.83614,8.85946 -0.0293,49.62187 -49.59331,-0.0166 0.0166,-49.59331 49.60603,-0.012 z"
       id="rect2987-5-8-6-80-9-9-4"
       inkscape:connector-curvature="0" />
    <path
       style="color:#000000;fill:#b2b2b2;fill-opacity:1;stroke:none;stroke-width:0;stroke-linecap:round;stroke-linejoin:round;stroke-miterlimit:4;stroke-opacity:0;stroke-dasharray:none;stroke-dashoffset:0;marker:none;visibility:visible;display:inline;overflow:visible;enable-background:accumulate;fill-rule:nonzero"
       d="m 863.12524,325.67207 -64.03439,20.8171 31.20345,96.02461 64.02168,-20.78855 -31.19074,-96.05316 z m -0.50326,27.17606 15.33259,47.15701 -47.16972,15.36113 -15.31988,-47.18556 47.15701,-15.33258 z"
       id="rect2987-5-8-6-3-8-7"
       inkscape:connector-curvature="0" />
    <path
       style="color:#000000;fill:#b2b2b2;fill-opacity:1;stroke:none;stroke-width:0;stroke-linecap:round;stroke-linejoin:round;stroke-miterlimit:4;stroke-opacity:0;stroke-dasharray:none;stroke-dashoffset:0;marker:none;visibility:visible;display:inline;overflow:visible;enable-background:accumulate;fill-rule:nonzero"
       d="m 759.13457,369.54311 -50.02262,45.04863 67.57295,75.03391 50.02261,-45.04863 -67.57294,-75.03391 z m 10.61937,25.01303 33.18404,36.87245 -36.87246,33.18403 -33.18403,-36.87245 36.87245,-33.18403 z"
       id="rect2987-5-8-6-3-8-4-3"
       inkscape:connector-curvature="0" />
    <path
       style="color:#000000;fill:#b2b2b2;fill-opacity:1;stroke:none;stroke-width:0;stroke-linecap:round;stroke-linejoin:round;stroke-miterlimit:4;stroke-opacity:0;stroke-dasharray:none;stroke-dashoffset:0;marker:none;visibility:visible;display:inline;overflow:visible;enable-background:accumulate;fill-rule:nonzero"
       d="m 681.99364,451.91335 -27.37846,61.49303 92.26809,41.0804 27.37846,-61.49303 -92.26809,-41.0804 z m 19.86962,18.52721 45.33469,20.18431 -20.17159,45.30614 -45.3347,-20.1843 20.1716,-45.30615 z"
       id="rect2987-5-8-6-3-8-5-9"
       inkscape:connector-curvature="0" />
    <path
       style="color:#000000;fill:#b2b2b2;fill-opacity:1;stroke:none;stroke-width:0;stroke-linecap:round;stroke-linejoin:round;stroke-miterlimit:4;stroke-opacity:0;stroke-dasharray:none;stroke-dashoffset:0;marker:none;visibility:visible;display:inline;overflow:visible;enable-background:accumulate;fill-rule:nonzero"
       d="m 913.05321,502.72406 -87.55228,78.86365 45.04863,50.02261 87.53957,-78.8351 -45.03592,-50.05116 z m -19.42825,29.4228 33.1967,36.84389 -36.85657,33.22531 -33.18403,-36.87245 36.8439,-33.19675 z"
       id="rect2987-5-8-6-3-7-0"
       inkscape:connector-curvature="0" />
    <path
       style="color:#000000;fill:#b2b2b2;fill-opacity:1;fill-rule:nonzero;stroke:#000000;stroke-width:0;stroke-linecap:round;stroke-linejoin:round;stroke-miterlimit:4;stroke-opacity:0;stroke-dasharray:none;stroke-dashoffset:0;marker:none;visibility:visible;display:inline;overflow:visible;enable-background:accumulate"
       d="M 0 707.28125 L 0 1052.375 L 1488.1875 1052.375 L 1488.1875 707.28125 L 0 707.28125 z M 1083.4062 852.375 L 1085.3125 852.375 L 1103.9375 899.40625 L 1096.5312 899.40625 L 1091.4062 886.875 L 1078.0938 886.875 L 1073.625 899.46875 L 1066.4375 899.46875 L 1083.4062 852.375 z M 902.46875 852.6875 L 903.0625 852.8125 C 904.00114 853.06855 905.1743 853.18755 906.625 853.1875 L 910.65625 853.1875 L 892.3125 873.34375 L 911.625 899.46875 L 909.78125 899.46875 L 903.25 899.71875 L 902.71875 899.78125 L 887 876.875 L 884.4375 879.6875 L 884.4375 899.40625 L 877 899.40625 L 877 853.125 L 885 853.125 L 885.125 853.96875 C 885.16766 854.52346 884.96932 855.11004 884.5 855.75 C 884.49999 855.75004 884.48016 855.76988 884.4375 855.8125 C 884.43749 855.85521 884.43749 855.91471 884.4375 856 L 884.4375 872.96875 L 902.46875 852.6875 z M 932.03125 852.6875 C 934.84723 852.68755 937.51389 853.46405 940.03125 855 C 942.59122 856.49338 944.62022 858.69246 946.15625 861.59375 C 948.11888 865.26312 949.09371 870.18836 949.09375 876.375 C 949.09371 882.43368 948.15855 887.31926 946.28125 891.03125 C 944.74522 894.01792 942.71622 896.2765 940.15625 897.8125 C 937.59622 899.3485 934.88989 900.09375 932.03125 900.09375 C 930.45257 900.09375 928.8599 899.87558 927.28125 899.40625 C 925.70257 898.89425 924.14116 898.03842 922.5625 896.84375 C 920.98382 895.60642 919.56966 894.12434 918.375 892.375 C 917.223 890.58301 916.268 888.30459 915.5 885.53125 C 914.77466 882.75793 914.40625 879.66335 914.40625 876.25 C 914.40625 872.83669 914.77466 869.74211 915.5 866.96875 C 916.268 864.19545 917.24283 861.9567 918.4375 860.25 C 919.63216 858.50071 921.04632 857.02704 922.625 855.875 C 924.20366 854.68038 925.74524 853.84438 927.28125 853.375 C 928.8599 852.90571 930.45257 852.68755 932.03125 852.6875 z M 1047.1562 852.6875 C 1049.9722 852.68755 1052.6389 853.46405 1055.1562 855 C 1057.7162 856.49338 1059.7452 858.69246 1061.2812 861.59375 C 1063.2439 865.26312 1064.2187 870.18836 1064.2188 876.375 C 1064.2187 882.43368 1063.2835 887.31926 1061.4062 891.03125 C 1059.8702 894.01792 1057.8412 896.2765 1055.2812 897.8125 C 1052.7212 899.3485 1050.0149 900.09375 1047.1562 900.09375 C 1045.5776 900.09375 1043.9849 899.87558 1042.4062 899.40625 C 1040.8276 898.89425 1039.2662 898.03842 1037.6875 896.84375 C 1036.1088 895.60642 1034.6947 894.12434 1033.5 892.375 C 1032.348 890.58301 1031.393 888.30459 1030.625 885.53125 C 1029.8997 882.75793 1029.5312 879.66335 1029.5312 876.25 C 1029.5312 872.83669 1029.8997 869.74211 1030.625 866.96875 C 1031.393 864.19545 1032.3678 861.9567 1033.5625 860.25 C 1034.7572 858.50071 1036.1713 857.02704 1037.75 855.875 C 1039.3287 854.68038 1040.8702 853.84438 1042.4062 853.375 C 1043.9849 852.90571 1045.5776 852.68755 1047.1562 852.6875 z M 825.28125 853.125 L 832.5625 853.125 L 832.6875 853.96875 C 832.73013 854.43813 832.63096 854.92554 832.375 855.4375 C 832.24697 855.65088 832.18747 855.82938 832.1875 856 L 832.1875 899.46875 L 826.5625 899.46875 L 807.75 865.8125 L 807.75 899.40625 L 800.84375 899.40625 L 800.84375 853.1875 L 807.4375 853.1875 L 825.28125 884.75 L 825.28125 853.125 z M 839.84375 853.125 L 870.125 853.125 L 870.125 859.65625 L 846.6875 859.65625 L 846.6875 871.9375 L 866.03125 871.9375 L 866.03125 878.59375 L 846.6875 878.59375 L 846.6875 892.875 L 869.9375 892.875 L 869.9375 899.40625 L 839.84375 899.40625 L 839.84375 853.125 z M 1315.3125 853.125 L 1320.125 853.125 L 1320.125 899.46875 L 1313.0312 899.46875 L 1313.0312 861.53125 L 1304.125 864 L 1302.2812 859.71875 L 1315.3125 853.125 z M 1392.0625 853.125 L 1396.875 853.125 L 1396.875 899.46875 L 1389.7812 899.46875 L 1389.7812 861.53125 L 1380.875 864 L 1379.0312 859.71875 L 1392.0625 853.125 z M 992.5625 853.1875 L 1006.6562 853.1875 C 1010.5816 853.18755 1013.5968 853.6353 1015.6875 854.53125 C 1017.9915 855.46996 1019.7825 856.92379 1021.0625 858.84375 C 1022.3425 860.72112 1022.9687 862.75012 1022.9688 864.96875 C 1022.9687 866.93145 1022.4615 868.76211 1021.4375 870.46875 C 1020.4561 872.17544 1019.1129 873.55836 1017.4062 874.625 C 1019.6676 875.73436 1021.4586 877.34686 1022.7812 879.4375 C 1024.1039 881.52818 1024.7812 883.78677 1024.7812 886.21875 C 1024.7812 888.73609 1024.0444 891.05418 1022.5938 893.1875 C 1021.1431 895.32084 1019.1026 896.93334 1016.5 898 C 1015.3906 898.42667 1014.2175 898.77525 1012.9375 899.03125 C 1011.7001 899.24458 1010.6544 899.36358 1009.8438 899.40625 L 1006.5938 899.40625 L 992.5625 899.40625 L 992.5625 853.1875 z M 1108.2812 853.1875 L 1122.875 853.1875 C 1124.155 853.18755 1125.1695 853.20738 1125.9375 853.25 C 1126.7481 853.29271 1127.723 853.4628 1128.875 853.71875 C 1130.0696 853.9748 1131.1749 854.31196 1132.1562 854.78125 C 1134.4176 855.89063 1136.1491 857.48329 1137.3438 859.53125 C 1138.581 861.57929 1139.1875 863.83787 1139.1875 866.3125 C 1139.1875 869.21386 1138.3515 871.86069 1136.6875 874.25 C 1135.0661 876.59669 1132.8869 878.26869 1130.1562 879.25 L 1141.125 899.40625 L 1133.125 899.40625 L 1122.875 879.9375 L 1115.4375 879.9375 L 1115.4375 899.40625 L 1108.2812 899.40625 L 1108.2812 853.1875 z M 1146.4688 853.1875 L 1158.25 853.1875 C 1160.6393 853.18755 1162.6881 853.37746 1164.4375 853.71875 C 1166.1868 854.01746 1167.8786 854.66354 1169.5 855.6875 C 1172.572 857.60754 1174.8306 860.37337 1176.2812 864 C 1177.7745 867.58403 1178.5312 871.68469 1178.5312 876.25 C 1178.5312 881.28468 1177.6159 885.6516 1175.7812 889.40625 C 1173.9466 893.11826 1171.2799 895.87567 1167.7812 897.625 C 1166.2026 898.393 1164.6099 898.90025 1163.0312 899.15625 C 1161.4526 899.36958 1159.5624 899.46875 1157.3438 899.46875 L 1146.4688 899.46875 L 1146.4688 853.1875 z M 931.75 859.46875 C 930.59798 859.46879 929.48432 859.73804 928.375 860.25 C 927.26565 860.76204 926.14057 861.56679 925.03125 862.71875 C 923.96457 863.82812 923.08891 865.50012 922.40625 867.71875 C 921.76624 869.93745 921.46874 872.56444 921.46875 875.59375 C 921.46874 878.83644 921.76624 881.64193 922.40625 884.03125 C 923.08891 886.4206 923.98441 888.28251 925.09375 889.5625 C 926.20307 890.79984 927.34799 891.71517 928.5 892.3125 C 929.65198 892.86717 930.8564 893.12501 932.09375 893.125 C 933.58706 893.12501 935.02948 892.69709 936.4375 891.84375 C 937.88814 890.94776 939.09256 889.58468 940.03125 887.75 C 941.35389 885.10468 941.99997 881.52268 942 877 C 941.99997 872.26403 941.43322 868.5432 940.28125 865.8125 C 939.34256 863.63654 938.09847 862.02404 936.5625 861 C 935.02648 859.97604 933.41398 859.46879 931.75 859.46875 z M 1046.875 859.46875 C 1045.723 859.46879 1044.6093 859.73804 1043.5 860.25 C 1042.3907 860.76204 1041.2656 861.56679 1040.1562 862.71875 C 1039.0896 863.82812 1038.2139 865.50012 1037.5312 867.71875 C 1036.8912 869.93745 1036.5937 872.56444 1036.5938 875.59375 C 1036.5937 878.83644 1036.8912 881.64193 1037.5312 884.03125 C 1038.2139 886.4206 1039.1094 888.28251 1040.2188 889.5625 C 1041.3281 890.79984 1042.473 891.71517 1043.625 892.3125 C 1044.777 892.86717 1045.9814 893.12501 1047.2188 893.125 C 1048.7121 893.12501 1050.1545 892.69709 1051.5625 891.84375 C 1053.0131 890.94776 1054.2176 889.58468 1055.1562 887.75 C 1056.4789 885.10468 1057.125 881.52268 1057.125 877 C 1057.125 872.26403 1056.5582 868.5432 1055.4062 865.8125 C 1054.4676 863.63654 1053.2235 862.02404 1051.6875 861 C 1050.1515 859.97604 1048.539 859.46879 1046.875 859.46875 z M 999.625 859.53125 L 999.625 871.375 L 1005.875 871.375 C 1008.563 871.37503 1010.5836 871.10578 1011.9062 870.59375 C 1013.1436 870.08178 1014.0986 869.39603 1014.7812 868.5 C 1015.4639 867.56137 1015.8125 866.51562 1015.8125 865.40625 C 1015.8125 864.33962 1015.4441 863.34495 1014.7188 862.40625 C 1014.0361 861.46762 1013.0414 860.76204 1011.7188 860.25 C 1010.4814 859.78071 1008.5714 859.53129 1005.9688 859.53125 L 999.625 859.53125 z M 1153.3125 859.53125 L 1153.3125 893.4375 L 1157.0938 893.4375 C 1158.8431 893.43751 1160.3053 893.33834 1161.5 893.125 C 1162.7373 892.91167 1163.9814 892.42426 1165.2188 891.65625 C 1169.3147 889.01093 1171.3437 884.08568 1171.3438 876.875 C 1171.3437 869.57903 1169.5527 864.53478 1165.9688 861.71875 C 1164.8167 860.82279 1163.6436 860.22479 1162.4062 859.96875 C 1161.1689 859.67012 1159.6556 859.53129 1157.9062 859.53125 L 1153.3125 859.53125 z M 1115.4375 859.96875 L 1115.4375 873.46875 L 1123.4375 873.46875 C 1125.6135 873.46878 1127.2656 873.23078 1128.375 872.71875 C 1129.527 872.16411 1130.4026 871.36778 1131 870.34375 C 1131.64 869.31978 1131.9687 868.18628 1131.9688 866.90625 C 1131.9687 865.62628 1131.6201 864.42187 1130.9375 863.3125 C 1130.2975 862.2032 1129.3623 861.3672 1128.125 860.8125 C 1126.9303 860.25787 1125.179 859.96879 1122.875 859.96875 L 1115.4375 859.96875 z M 1084.4375 867.15625 L 1079.75 880.90625 L 1089.5 880.90625 L 1084.4375 867.15625 z M 1224.5 871.6875 L 1253.0938 871.6875 L 1253.0938 878.53125 L 1224.5 878.53125 L 1224.5 871.6875 z M 999.625 877.65625 L 999.625 892.9375 L 1007.5 892.9375 C 1009.932 892.93751 1011.7825 892.69951 1013.0625 892.1875 C 1014.4278 891.59017 1015.482 890.71451 1016.25 889.5625 C 1017.018 888.36784 1017.4062 887.04443 1017.4062 885.59375 C 1017.4062 884.1431 1016.9981 882.79985 1016.1875 881.5625 C 1015.3768 880.28252 1014.2433 879.27644 1012.75 878.59375 C 1011.2566 877.95377 1009.0774 877.65627 1006.2188 877.65625 L 999.625 877.65625 z M 1353 891.71875 C 1354.4933 891.71876 1355.7572 892.22601 1356.7812 893.25 C 1357.8479 894.27401 1358.375 895.51809 1358.375 896.96875 C 1358.375 898.37675 1357.8479 899.601 1356.7812 900.625 C 1355.7572 901.649 1354.4933 902.15625 1353 902.15625 C 1351.5493 902.15625 1350.2854 901.649 1349.2188 900.625 C 1348.1947 899.601 1347.6875 898.37675 1347.6875 896.96875 C 1347.6875 895.51809 1348.1947 894.27401 1349.2188 893.25 C 1350.2854 892.22601 1351.5493 891.71876 1353 891.71875 z M 953.1875 900.8125 L 987.09375 900.8125 L 987.09375 907.28125 L 953.1875 907.28125 L 953.1875 900.8125 z "
       transform="translate(0,-6.988066e-5)"
       id="rect4974" />
    <path
       style="color:#000000;fill:#b2b2b2;fill-opacity:1;fill-rule:nonzero;stroke:none;stroke-width:0;marker:none;visibility:visible;display:inline;overflow:visible;enable-background:accumulate"
       d="m 1055.8518,387.24417 0,67.32283 67.3228,0 0,-67.32283 -67.3228,0 z m 8.8763,8.8451 49.6014,0 0,49.60137 -49.6014,0 0,-49.60137 z"
       id="rect5641"
       inkscape:connector-curvature="0" />
    <path
       style="color:#000000;fill:#b2b2b2;fill-opacity:1;fill-rule:nonzero;stroke:none;stroke-width:0;marker:none;visibility:visible;display:inline;overflow:visible;enable-background:accumulate"
       d="m 1055.8518,454.567 0,67.32283 67.3228,0 0,-67.32283 -67.3228,0 z m 8.8763,8.8451 49.6014,0 0,49.60137 -49.6014,0 0,-49.60137 z"
       id="rect5641-9"
       inkscape:connector-curvature="0" />
    <path
       style="color:#000000;fill:#b2b2b2;fill-opacity:1;fill-rule:nonzero;stroke:none;stroke-width:0;marker:none;visibility:visible;display:inline;overflow:visible;enable-background:accumulate"
       d="m 1055.8518,521.88983 0,67.32283 67.3228,0 0,-67.32283 -67.3228,0 z m 8.8763,8.8451 49.6014,0 0,49.60137 -49.6014,0 0,-49.60137 z"
       id="rect5641-7"
       inkscape:connector-curvature="0" />
    <path
       style="color:#000000;fill:#b2b2b2;fill-opacity:1;fill-rule:nonzero;stroke:none;stroke-width:0;marker:none;visibility:visible;display:inline;overflow:visible;enable-background:accumulate"
       d="m 1123.1746,395.65951 0,67.32283 67.3228,0 0,-67.32283 -67.3228,0 z m 8.8763,8.8451 49.6014,0 0,49.60137 -49.6014,0 0,-49.60137 z"
       id="rect5641-70"
       inkscape:connector-curvature="0" />
    <path
       style="color:#000000;fill:#b2b2b2;fill-opacity:1;fill-rule:nonzero;stroke:none;stroke-width:0;marker:none;visibility:visible;display:inline;overflow:visible;enable-background:accumulate"
       d="m 1123.1746,462.98234 0,67.32283 67.3228,0 0,-67.32283 -67.3228,0 z m 8.8763,8.8451 49.6014,0 0,49.60137 -49.6014,0 0,-49.60137 z"
       id="rect5641-1"
       inkscape:connector-curvature="0" />
    <path
       style="color:#000000;fill:#b2b2b2;fill-opacity:1;fill-rule:nonzero;stroke:none;stroke-width:0;marker:none;visibility:visible;display:inline;overflow:visible;enable-background:accumulate"
       d="m 1123.1746,530.30517 0,67.32283 67.3228,0 0,-67.32283 -67.3228,0 z m 8.8763,8.8451 49.6014,0 0,49.60137 -49.6014,0 0,-49.60137 z"
       id="rect5641-2"
       inkscape:connector-curvature="0" />
    <path
       style="color:#000000;fill:#b2b2b2;fill-opacity:1;fill-rule:nonzero;stroke:none;stroke-width:0;marker:none;visibility:visible;display:inline;overflow:visible;enable-background:accumulate"
       d="m 1190.4974,370.41346 0,67.32283 67.3228,0 0,-67.32283 -67.3228,0 z m 8.8763,8.8451 49.6014,0 0,49.60136 -49.6014,0 0,-49.60136 z"
       id="rect5641-8"
       inkscape:connector-curvature="0" />
    <path
       style="color:#000000;fill:#b2b2b2;fill-opacity:1;fill-rule:nonzero;stroke:none;stroke-width:0;marker:none;visibility:visible;display:inline;overflow:visible;enable-background:accumulate"
       d="m 1190.4974,437.73629 0,67.32283 67.3228,0 0,-67.32283 -67.3228,0 z m 8.8763,8.8451 49.6014,0 0,49.60137 -49.6014,0 0,-49.60137 z"
       id="rect5641-3"
       inkscape:connector-curvature="0" />
    <path
       style="color:#000000;fill:#b2b2b2;fill-opacity:1;fill-rule:nonzero;stroke:none;stroke-width:0;marker:none;visibility:visible;display:inline;overflow:visible;enable-background:accumulate"
       d="m 1190.4974,505.05912 0,67.32283 67.3228,0 0,-67.32283 -67.3228,0 z m 8.8763,8.8451 49.6014,0 0,49.60137 -49.6014,0 0,-49.60137 z"
       id="rect5641-36"
       inkscape:connector-curvature="0" />
    <path
       style="color:#000000;fill:#b2b2b2;fill-opacity:1;fill-rule:nonzero;stroke:none;stroke-width:0;marker:none;visibility:visible;display:inline;overflow:visible;enable-background:accumulate"
       d="m 1257.8202,387.24415 0,67.32283 67.3228,0 0,-67.32283 -67.3228,0 z m 8.8763,8.8451 49.6014,0 0,49.60137 -49.6014,0 0,-49.60137 z"
       id="rect5641-93"
       inkscape:connector-curvature="0" />
    <path
       style="color:#000000;fill:#b2b2b2;fill-opacity:1;fill-rule:nonzero;stroke:none;stroke-width:0;marker:none;visibility:visible;display:inline;overflow:visible;enable-background:accumulate"
       d="m 1257.8202,454.56698 0,67.32283 67.3228,0 0,-67.32283 -67.3228,0 z m 8.8763,8.8451 49.6014,0 0,49.60137 -49.6014,0 0,-49.60137 z"
       id="rect5641-4"
       inkscape:connector-curvature="0" />
    <path
       style="color:#000000;fill:#b2b2b2;fill-opacity:1;fill-rule:nonzero;stroke:none;stroke-width:0;marker:none;visibility:visible;display:inline;overflow:visible;enable-background:accumulate"
       d="m 1257.8202,521.88981 0,67.32283 67.3228,0 0,-67.32283 -67.3228,0 z m 8.8763,8.8451 49.6014,0 0,49.60137 -49.6014,0 0,-49.60137 z"
       id="rect5641-15"
       inkscape:connector-curvature="0" />
    <path
       style="color:#000000;fill:#b2b2b2;fill-opacity:1;fill-rule:nonzero;stroke:none;stroke-width:0;marker:none;visibility:visible;display:inline;overflow:visible;enable-background:accumulate"
       d="m 1325.143,420.90557 0,67.32283 67.3228,0 0,-67.32283 -67.3228,0 z m 8.8763,8.8451 49.6014,0 0,49.60137 -49.6014,0 0,-49.60137 z"
       id="rect5641-76"
       inkscape:connector-curvature="0" />
    <path
       style="color:#000000;fill:#b2b2b2;fill-opacity:1;fill-rule:nonzero;stroke:none;stroke-width:0;marker:none;visibility:visible;display:inline;overflow:visible;enable-background:accumulate"
       d="m 1325.143,488.2284 0,67.32283 67.3228,0 0,-67.32283 -67.3228,0 z m 8.8763,8.8451 49.6014,0 0,49.60137 -49.6014,0 0,-49.60137 z"
       id="rect5641-47"
       inkscape:connector-curvature="0" />
    <path
       style="color:#000000;fill:#b2b2b2;fill-opacity:1;fill-rule:nonzero;stroke:none;stroke-width:0;marker:none;visibility:visible;display:inline;overflow:visible;enable-background:accumulate"
       d="m 1325.143,555.55123 0,67.32283 67.3228,0 0,-67.32283 -67.3228,0 z m 8.8763,8.8451 49.6014,0 0,49.60137 -49.6014,0 0,-49.60137 z"
       id="rect5641-75"
       inkscape:connector-curvature="0" />
    <rect
       style="color:#000000;fill:#b2b2b2;fill-opacity:1;fill-rule:nonzero;stroke:none;stroke-width:0;marker:none;visibility:visible;display:inline;overflow:visible;enable-background:accumulate"
       id="rect5791"
       width="16.830709"
       height="16.830709"
       x="1055.8518"
       y="429.32092" />
    <path
       style="color:#000000;fill:#b2b2b2;fill-opacity:1;fill-rule:nonzero;stroke:none;stroke-width:0;marker:none;visibility:visible;display:inline;overflow:visible;enable-background:accumulate"
       d="m 1392.4658,412.49021 0,100.98425 67.3228,0 0,-100.98425 -67.3228,0 z m 8.8451,25.69144 49.6014,0 0,49.60137 -49.6014,0 0,-49.60137 z"
       id="rect5835"
       inkscape:connector-curvature="0" />
    <path
       style="color:#000000;fill:#b2b2b2;fill-opacity:1;fill-rule:nonzero;stroke:none;stroke-width:0;marker:none;visibility:visible;display:inline;overflow:visible;enable-background:accumulate"
       d="m 1392.4658,513.47446 0,100.98425 67.3228,0 0,-100.98425 -67.3228,0 z m 8.8451,25.69144 49.6014,0 0,49.60137 -49.6014,0 0,-49.60137 z"
       id="rect5835-5"
       inkscape:connector-curvature="0" />
    <path
       style="color:#000000;fill:#b2b2b2;fill-opacity:1;fill-rule:nonzero;stroke:none;stroke-width:0;marker:none;visibility:visible;display:inline;overflow:visible;enable-background:accumulate"
       d="m 988.52897,437.73628 0,100.98425 67.32283,0 0,-100.98425 -67.32283,0 z m 8.8451,25.69144 49.60143,0 0,49.60137 -49.60143,0 0,-49.60137 z"
       id="rect5835-7"
       inkscape:connector-curvature="0" />
    <rect
       style="color:#000000;fill:#b2b2b2;fill-opacity:1;fill-rule:nonzero;stroke:none;stroke-width:0;marker:none;visibility:visible;display:inline;overflow:visible;enable-background:accumulate"
       id="rect5791-6"
       width="8.4153547"
       height="8.4153547"
       x="1257.8202"
       y="361.99811" />
  </g>
  <g
     inkscape:groupmode="layer"
     id="layer3"
     inkscape:label="Old-left"
     sodipodi:insensitive="true"
     style="display:none">
    <g
       transform="translate(-5.9604645e-8,1.0755758e-4)"
       id="g5007">
      <path
         inkscape:connector-curvature="0"
         id="rect2987-5-8-6"
         transform="translate(0,-6.988066e-5)"
         d="m 340.75,78.34375 -27.375,61.5 61.5,27.375 27.375,-61.5 -61.5,-27.375 z m 4.46875,11.6875 45.34375,20.1875 -20.1875,45.3125 -45.3125,-20.1875 20.15625,-45.3125 z"
         style="color:#000000;fill:#b2b2b2;fill-opacity:1;stroke:#000000;stroke-width:1.99999988;stroke-linecap:round;stroke-linejoin:round;stroke-miterlimit:4;stroke-opacity:0;stroke-dasharray:none;stroke-dashoffset:0;marker:none;visibility:visible;display:inline;overflow:visible;enable-background:accumulate" />
      <path
         inkscape:connector-curvature="0"
         id="rect2987-5-8-6-3"
         d="m 696.0625,273.37492 -61.5,-27.40625 -41.0625,92.28126 61.5,27.375 41.0625,-92.25001 z m -18.53125,19.84375 -20.1875,45.31251 -45.3125,-20.15625 20.1875,-45.31251 45.3125,20.15625 z"
         style="color:#000000;fill:#b2b2b2;fill-opacity:1;stroke:#000000;stroke-width:1.99999988;stroke-linecap:round;stroke-linejoin:round;stroke-miterlimit:4;stroke-opacity:0;stroke-dasharray:none;stroke-dashoffset:0;marker:none;visibility:visible;display:inline;overflow:visible;enable-background:accumulate" />
      <path
         inkscape:connector-curvature="0"
         id="rect2987-5-8-6-8"
         transform="translate(0,-6.988066e-5)"
         d="m 409.09375,90.34375 -27.375,61.5 61.5,27.40625 27.375,-61.5 -61.5,-27.40625 z m 4.5,11.71875 45.3125,20.15625 -20.1875,45.3125 -45.3125,-20.15625 20.1875,-45.3125 z"
         style="color:#000000;fill:#b2b2b2;fill-opacity:1;stroke:#000000;stroke-width:1.99999988;stroke-linecap:round;stroke-linejoin:round;stroke-miterlimit:4;stroke-opacity:0;stroke-dasharray:none;stroke-dashoffset:0;marker:none;visibility:visible;display:inline;overflow:visible;enable-background:accumulate" />
      <path
         inkscape:connector-curvature="0"
         id="rect2987-5-8-6-80"
         transform="translate(0,-6.988066e-5)"
         d="m 477.4375,102.375 -27.375,61.5 61.5,27.375 27.375,-61.5 -61.5,-27.375 z m 4.5,11.6875 45.3125,20.15625 -20.1875,45.34375 -45.3125,-20.1875 20.1875,-45.3125 z"
         style="color:#000000;fill:#b2b2b2;fill-opacity:1;stroke:#000000;stroke-width:1.99999988;stroke-linecap:round;stroke-linejoin:round;stroke-miterlimit:4;stroke-opacity:0;stroke-dasharray:none;stroke-dashoffset:0;marker:none;visibility:visible;display:inline;overflow:visible;enable-background:accumulate" />
      <path
         inkscape:connector-curvature="0"
         id="rect2987-5-8-6-8-2"
         transform="translate(0,-6.988066e-5)"
         d="m 525.25,160.5 -27.375,61.5 61.5,27.375 27.375,-61.5 -61.5,-27.375 z m 4.5,11.6875 45.3125,20.1875 L 554.875,237.6875 509.5625,217.5 529.75,172.1875 z"
         style="color:#000000;fill:#b2b2b2;fill-opacity:1;stroke:#000000;stroke-width:1.99999988;stroke-linecap:round;stroke-linejoin:round;stroke-miterlimit:4;stroke-opacity:0;stroke-dasharray:none;stroke-dashoffset:0;marker:none;visibility:visible;display:inline;overflow:visible;enable-background:accumulate" />
      <path
         inkscape:connector-curvature="0"
         transform="translate(0,-6.988066e-5)"
         id="rect2987-5-8-6-80-9"
         d="m 586.75,187.875 -27.375,61.5 61.5,27.375 27.375,-61.5 -61.5,-27.375 z m 4.5,11.6875 45.3125,20.1875 -20.1875,45.3125 -45.3125,-20.1875 20.1875,-45.3125 z"
         style="color:#000000;fill:#b2b2b2;fill-opacity:1;stroke:#000000;stroke-width:1.99999988;stroke-linecap:round;stroke-linejoin:round;stroke-miterlimit:4;stroke-opacity:0;stroke-dasharray:none;stroke-dashoffset:0;marker:none;visibility:visible;display:inline;overflow:visible;enable-background:accumulate" />
      <path
         inkscape:connector-curvature="0"
         id="rect2987-5-8-6-7"
         transform="translate(0,-6.988066e-5)"
         d="m 313.375,139.84375 -27.40625,61.5 61.5,27.375 27.40625,-61.5 -61.5,-27.375 z m 4.46875,11.6875 45.3125,20.1875 L 343,217.03125 297.6875,196.875 317.84375,151.53125 z"
         style="color:#000000;fill:#b2b2b2;fill-opacity:1;stroke:#000000;stroke-width:1.99999988;stroke-linecap:round;stroke-linejoin:round;stroke-miterlimit:4;stroke-opacity:0;stroke-dasharray:none;stroke-dashoffset:0;marker:none;visibility:visible;display:inline;overflow:visible;enable-background:accumulate" />
      <path
         inkscape:connector-curvature="0"
         id="rect2987-5-8-6-3-5"
         d="m 340.75,78.34368 -61.5,-27.375005 -41.0625,92.250005 61.5,27.40625 41.0625,-92.28125 z m -18.53125,19.875 -20.1875,45.3125 -45.3125,-20.15625 20.1875,-45.34375 45.3125,20.1875 z"
         style="color:#000000;fill:#b2b2b2;fill-opacity:1;stroke:#000000;stroke-width:1.99999988;stroke-linecap:round;stroke-linejoin:round;stroke-miterlimit:4;stroke-opacity:0;stroke-dasharray:none;stroke-dashoffset:0;marker:none;visibility:visible;display:inline;overflow:visible;enable-background:accumulate" />
      <path
         inkscape:connector-curvature="0"
         id="rect2987-5-8-6-8-4"
         transform="translate(0,-6.988066e-5)"
         d="m 381.71875,151.84375 -27.40625,61.5 61.5,27.40625 27.40625,-61.5 -61.5,-27.40625 z m 4.46875,11.71875 45.3125,20.15625 -20.15625,45.3125 -45.3125,-20.15625 20.15625,-45.3125 z"
         style="color:#000000;fill:#b2b2b2;fill-opacity:1;stroke:#000000;stroke-width:1.99999988;stroke-linecap:round;stroke-linejoin:round;stroke-miterlimit:4;stroke-opacity:0;stroke-dasharray:none;stroke-dashoffset:0;marker:none;visibility:visible;display:inline;overflow:visible;enable-background:accumulate" />
      <path
         inkscape:connector-curvature="0"
         id="rect2987-5-8-6-80-4"
         transform="translate(0,-6.988066e-5)"
         d="m 450.0625,163.875 -27.375,61.5 61.5,27.375 27.375,-61.5 -61.5,-27.375 z m 4.46875,11.6875 45.34375,20.15625 -20.1875,45.34375 -45.3125,-20.1875 20.15625,-45.3125 z"
         style="color:#000000;fill:#b2b2b2;fill-opacity:1;stroke:#000000;stroke-width:1.99999988;stroke-linecap:round;stroke-linejoin:round;stroke-miterlimit:4;stroke-opacity:0;stroke-dasharray:none;stroke-dashoffset:0;marker:none;visibility:visible;display:inline;overflow:visible;enable-background:accumulate" />
      <path
         inkscape:connector-curvature="0"
         id="rect2987-5-8-6-8-2-7"
         transform="translate(0,-6.988066e-5)"
         d="m 497.875,222 -27.375,61.5 61.5,27.375 27.375,-61.5 -61.5,-27.375 z m 4.46875,11.6875 L 547.6875,253.875 527.5,299.1875 482.1875,279 502.34375,233.6875 z"
         style="color:#000000;fill:#b2b2b2;fill-opacity:1;stroke:#000000;stroke-width:1.99999988;stroke-linecap:round;stroke-linejoin:round;stroke-miterlimit:4;stroke-opacity:0;stroke-dasharray:none;stroke-dashoffset:0;marker:none;visibility:visible;display:inline;overflow:visible;enable-background:accumulate" />
      <path
         inkscape:connector-curvature="0"
         id="rect2987-5-8-6-80-9-7"
         transform="translate(0,-6.988066e-5)"
         d="m 559.375,249.375 -27.375,61.5 61.5,27.375 27.375,-61.5 -61.5,-27.375 z m 4.5,11.6875 L 609.1875,281.25 589,326.5625 543.6875,306.40625 563.875,261.0625 z"
         style="color:#000000;fill:#b2b2b2;fill-opacity:1;stroke:#000000;stroke-width:1.99999988;stroke-linecap:round;stroke-linejoin:round;stroke-miterlimit:4;stroke-opacity:0;stroke-dasharray:none;stroke-dashoffset:0;marker:none;visibility:visible;display:inline;overflow:visible;enable-background:accumulate" />
      <path
         inkscape:connector-curvature="0"
         id="rect2987-5-8-6-0"
         transform="translate(0,-6.988066e-5)"
         d="m 285.96875,201.34375 -27.375,61.5 61.5,27.40625 27.375,-61.53125 -61.5,-27.375 z m 4.5,11.6875 45.3125,20.1875 -20.1875,45.3125 -45.3125,-20.15625 20.1875,-45.34375 z"
         style="color:#000000;fill:#b2b2b2;fill-opacity:1;stroke:#000000;stroke-width:1.99999988;stroke-linecap:round;stroke-linejoin:round;stroke-miterlimit:4;stroke-opacity:0;stroke-dasharray:none;stroke-dashoffset:0;marker:none;visibility:visible;display:inline;overflow:visible;enable-background:accumulate" />
      <path
         inkscape:connector-curvature="0"
         id="rect2987-5-8-6-3-9"
         d="m 299.6875,170.59368 -61.5,-27.375 -41.0625,92.25 61.5,27.375 41.0625,-92.25 z m -18.53125,19.875 -20.1875,45.3125 -45.3125,-20.1875 20.1875,-45.3125 45.3125,20.1875 z"
         style="color:#000000;fill:#b2b2b2;fill-opacity:1;stroke:#000000;stroke-width:1.99999988;stroke-linecap:round;stroke-linejoin:round;stroke-miterlimit:4;stroke-opacity:0;stroke-dasharray:none;stroke-dashoffset:0;marker:none;visibility:visible;display:inline;overflow:visible;enable-background:accumulate" />
      <path
         inkscape:connector-curvature="0"
         id="rect2987-5-8-6-8-8"
         transform="translate(0,-6.988066e-5)"
         d="m 354.3125,213.34375 -27.375,61.53125 61.5,27.375 27.40625,-61.5 -61.53125,-27.40625 z m 4.5,11.71875 45.3125,20.15625 -20.15625,45.34375 -45.34375,-20.1875 20.1875,-45.3125 z"
         style="color:#000000;fill:#b2b2b2;fill-opacity:1;stroke:#000000;stroke-width:1.99999988;stroke-linecap:round;stroke-linejoin:round;stroke-miterlimit:4;stroke-opacity:0;stroke-dasharray:none;stroke-dashoffset:0;marker:none;visibility:visible;display:inline;overflow:visible;enable-background:accumulate" />
      <path
         inkscape:connector-curvature="0"
         id="rect2987-5-8-6-80-6"
         transform="translate(0,-6.988066e-5)"
         d="m 422.6875,225.375 -27.40625,61.5 61.5,27.375 27.40625,-61.5 -61.5,-27.375 z m 4.46875,11.6875 45.3125,20.1875 L 452.3125,302.5625 407,282.375 427.15625,237.0625 z"
         style="color:#000000;fill:#b2b2b2;fill-opacity:1;stroke:#000000;stroke-width:1.99999988;stroke-linecap:round;stroke-linejoin:round;stroke-miterlimit:4;stroke-opacity:0;stroke-dasharray:none;stroke-dashoffset:0;marker:none;visibility:visible;display:inline;overflow:visible;enable-background:accumulate" />
      <path
         inkscape:connector-curvature="0"
         id="rect2987-5-8-6-8-2-3"
         transform="translate(0,-6.988066e-5)"
         d="m 470.5,283.5 -27.40625,61.5 61.5,27.375 L 532,310.875 470.5,283.5 z m 4.46875,11.6875 45.3125,20.1875 L 500.125,360.6875 454.8125,340.5 474.96875,295.1875 z"
         style="color:#000000;fill:#b2b2b2;fill-opacity:1;stroke:#000000;stroke-width:1.99999988;stroke-linecap:round;stroke-linejoin:round;stroke-miterlimit:4;stroke-opacity:0;stroke-dasharray:none;stroke-dashoffset:0;marker:none;visibility:visible;display:inline;overflow:visible;enable-background:accumulate" />
      <path
         inkscape:connector-curvature="0"
         id="rect2987-5-8-6-80-9-9"
         transform="translate(0,-6.988066e-5)"
         d="m 532,310.875 -27.40625,61.5 61.5,27.40625 L 593.5,338.25 532,310.875 z m 4.46875,11.6875 45.3125,20.1875 -20.15625,45.3125 -45.3125,-20.15625 20.15625,-45.34375 z"
         style="color:#000000;fill:#b2b2b2;fill-opacity:1;stroke:#000000;stroke-width:1.99999988;stroke-linecap:round;stroke-linejoin:round;stroke-miterlimit:4;stroke-opacity:0;stroke-dasharray:none;stroke-dashoffset:0;marker:none;visibility:visible;display:inline;overflow:visible;enable-background:accumulate" />
      <path
         inkscape:connector-curvature="0"
         id="rect2987-5-8-6-3-8"
         transform="translate(0,-6.988066e-5)"
         d="m 625.4375,392.375 -67.5625,75.0625 50.03125,45.03125 67.5625,-75.03125 -50.03125,-45.0625 z m -10.59375,25.03125 36.84375,33.1875 -33.1875,36.875 -36.84375,-33.21875 33.1875,-36.84375 z"
         style="color:#000000;fill:#b2b2b2;fill-opacity:1;stroke:#000000;stroke-width:1.99999988;stroke-linecap:round;stroke-linejoin:round;stroke-miterlimit:4;stroke-opacity:0;stroke-dasharray:none;stroke-dashoffset:0;marker:none;visibility:visible;display:inline;overflow:visible;enable-background:accumulate" />
      <path
         inkscape:connector-curvature="0"
         id="rect2987-5-8-6-3-8-4"
         transform="translate(0,-6.988066e-5)"
         d="m 702.59375,474.75 -92.25,41.0625 27.375,61.5 92.25,-41.0625 -27.375,-61.5 z m -19.875,18.53125 20.1875,45.3125 -45.3125,20.1875 -20.1875,-45.3125 45.3125,-20.1875 z"
         style="color:#000000;fill:#b2b2b2;fill-opacity:1;stroke:#000000;stroke-width:1.99999988;stroke-linecap:round;stroke-linejoin:round;stroke-miterlimit:4;stroke-opacity:0;stroke-dasharray:none;stroke-dashoffset:0;marker:none;visibility:visible;display:inline;overflow:visible;enable-background:accumulate" />
      <path
         inkscape:connector-curvature="0"
         id="rect2987-5-8-6-3-8-5"
         transform="translate(0,-6.988066e-5)"
         d="m 638.5625,581.375 0,67.3125 101,0 0,-67.3125 -101,0 z m 25.6875,8.84375 49.625,0 0,49.59375 -49.625,0 0,-49.59375 z"
         style="color:#000000;fill:#b2b2b2;fill-opacity:1;stroke:#000000;stroke-width:1.99999988;stroke-linecap:round;stroke-linejoin:round;stroke-miterlimit:4;stroke-opacity:0;stroke-dasharray:none;stroke-dashoffset:0;marker:none;visibility:visible;display:inline;overflow:visible;enable-background:accumulate" />
      <path
         inkscape:connector-curvature="0"
         id="rect2987-5-8-6-3-7"
         transform="translate(0,-6.988066e-5)"
         d="m 507.8125,533.8125 -61.5,27.40625 47.90625,107.625 61.5,-27.375 L 507.8125,533.8125 z m 5.78125,34.78125 20.1875,45.3125 -45.34375,20.1875 -20.15625,-45.34375 45.3125,-20.15625 z"
         style="color:#000000;fill:#b2b2b2;fill-opacity:1;stroke:#000000;stroke-width:1.99999976;stroke-linecap:round;stroke-linejoin:round;stroke-miterlimit:4;stroke-opacity:0;stroke-dasharray:none;stroke-dashoffset:0;marker:none;visibility:visible;display:inline;overflow:visible;enable-background:accumulate" />
    </g>
  </g>
</svg>
