<?xml version="1.0" encoding="UTF-8" standalone="no"?>
<svg
   xmlns:dc="http://purl.org/dc/elements/1.1/"
   xmlns:cc="http://creativecommons.org/ns#"
   xmlns:rdf="http://www.w3.org/1999/02/22-rdf-syntax-ns#"
   xmlns:svg="http://www.w3.org/2000/svg"
   xmlns="http://www.w3.org/2000/svg"
   height="16"
   width="16"
   xml:space="preserve"
   style="opacity:1"
   viewBox="0 0 16 16"
   y="0px"
   x="0px"
   id="_x31_0"
   version="1.1"><metadata
     id="metadata3365"><rdf:RDF><cc:Work
         rdf:about=""><dc:format>image/svg+xml</dc:format><dc:type
           rdf:resource="http://purl.org/dc/dcmitype/StillImage" /><dc:title></dc:title></cc:Work></rdf:RDF></metadata><defs
     id="defs3363" /><style
     id="style3337"
     type="text/css">
	.st0{fill:#374149;}
</style><g
     transform="translate(0,-496)"
     id="layer1" /><g
     transform="translate(0,-496)"
     id="layer2"><path
       class="st0"
       d="m 3.3924517,504.30392 c 0.5373718,-0.24864 0.8444092,-1.36757 0.3855325,-2.36 -0.3722072,-0.80461 -1.043894,-1.3109 -1.643524,-1.31135 -6.465e-4,0 -0.00128,-3.5e-4 -0.00221,-3.5e-4 -6.463e-4,0 -0.00151,3.5e-4 -0.00239,3.5e-4 -0.1382341,3.6e-4 -0.2737808,0.0192 -0.3995858,0.0774 -0.6720224,0.31097 -0.84463292,1.36756 -0.3855325,2.36001 0.4588206,0.99255 1.5101051,1.48283 2.0477006,1.23397 z"
       id="path3341-9"
       style="opacity:1;fill:#245343;fill-opacity:0.94117647" /><path
       class="st0"
       d="m 14.389257,501.37705 c -0.635578,-0.37994 -1.605288,0.0733 -2.166232,1.01192 -0.560773,0.93892 -0.372876,2.08359 0.135381,2.3876 0.508482,0.30401 1.605283,-0.0731 2.166227,-1.01192 0.560718,-0.93875 0.499916,-2.00773 -0.135376,-2.3876 z"
       id="path3343-3"
       style="opacity:1;fill:#245343;fill-opacity:0.94117647" /><path
       class="st0"
       d="m 9.7118021,502.29099 c 0.1990365,0.0478 0.4327879,10e-4 0.6672639,-0.10739 0.0065,-0.003 0.01287,-0.006 0.01943,-0.009 0.07698,-0.0372 0.152678,-0.0814 0.228544,-0.13337 0.01071,-0.007 0.02078,-0.0146 0.03125,-0.022 0.07413,-0.0531 0.145679,-0.11159 0.215833,-0.1776 0.0079,-0.008 0.01558,-0.0157 0.02339,-0.0233 0.306643,-0.29809 0.564468,-0.71183 0.667488,-1.21355 0.124462,-0.60493 0.143441,-1.16399 -0.03801,-1.59806 -0.0059,-0.0146 -0.01355,-0.028 -0.01994,-0.0422 -0.03607,-0.0787 -0.07805,-0.15329 -0.129223,-0.22222 -0.01296,-0.0173 -0.02821,-0.0326 -0.042,-0.049 -0.05207,-0.0629 -0.108952,-0.12266 -0.176253,-0.17562 -0.01006,-0.008 -0.0221,-0.014 -0.03258,-0.0217 -0.154865,-0.11461 -0.34007,-0.20951 -0.579978,-0.26729 -1.141597,-0.27423 -1.6225851,0.5647 -1.8533115,1.68642 -0.2307264,1.12171 0.3836298,2.22343 1.0180814,2.37589 z"
       id="path3345-7"
       style="opacity:1;fill:#245343;fill-opacity:0.94117647" /><path
       class="st0"
       d="m 4.6198179,500.2387 c 0.079167,0.80919 0.5603264,1.44824 1.0637697,1.72487 0.00177,6.4e-4 0.00323,0.002 0.00501,0.003 0.08443,0.0461 0.1681876,0.0803 0.2521698,0.10431 4.492e-4,1.8e-4 6.337e-4,1.8e-4 9.506e-4,3.6e-4 0.083758,0.024 0.1648845,0.0353 0.2444991,0.0357 0.00177,0 0.00349,4.6e-4 0.00501,4.6e-4 0.00196,0 0.00368,-1.8e-4 0.0057,-4.6e-4 0.029284,-1.6e-4 0.060356,0.007 0.088797,0.004 0.6469406,-0.0849 1.3736629,-1.11606 1.2621353,-2.25597 -0.078271,-0.80107 -0.301159,-1.46722 -0.8267169,-1.7448 -0.014893,-0.008 -0.028213,-0.0179 -0.043334,-0.025 -0.065169,-0.0304 -0.1377859,-0.0514 -0.2123618,-0.0698 -0.021223,-0.005 -0.04199,-0.0109 -0.063882,-0.0149 -0.07872,-0.0153 -0.1631491,-0.0229 -0.252561,-0.0244 -0.00551,0 -0.010076,-10e-4 -0.015564,-10e-4 -0.013771,0 -0.029506,0.003 -0.043562,0.003 -0.069088,10e-4 -0.1325229,-0.004 -0.2079384,0.005 -0.2447235,0.0322 -0.4387213,0.10694 -0.6049493,0.20469 -0.011147,0.007 -0.023853,0.0113 -0.034601,0.0181 -0.072616,0.0458 -0.1353784,0.0991 -0.1937741,0.15599 -0.015343,0.015 -0.032136,0.0284 -0.046807,0.0444 -0.058169,0.0631 -0.1078318,0.13314 -0.1519509,0.20753 -0.0079,0.0133 -0.016851,0.0259 -0.024297,0.0397 -0.2259114,0.41258 -0.2659427,0.97072 -0.2057559,1.58552 z"
       id="path3347-3"
       style="opacity:1;fill:#245343;fill-opacity:0.94117647" /><path
       class="st0"
       d="m 11.12617,505.61332 c -0.36762,-0.11814 -0.644925,-0.41443 -0.770729,-0.77948 -0.317957,-0.9229 -1.259897,-1.62101 -2.4068079,-1.68137 -1.1473032,-0.0603 -2.1572689,0.53474 -2.5704035,1.41896 -0.1633725,0.34993 -0.47041,0.61542 -0.8483841,0.69413 -1.1059846,0.23051 -1.9484341,1.08214 -2.0041977,2.14087 -0.068194,1.2912 1.060074,2.40025 2.5196776,2.47724 0.052967,0.003 0.1030181,-0.005 0.1553103,-0.005 0.00152,0 0.00304,0 0.00437,0 0.00196,0 0.00368,-3.6e-4 0.0057,-3.6e-4 0.623089,-10e-4 1.200492,-0.18701 1.6503547,-0.51375 0.4597164,-0.33397 1.0937226,-0.30049 1.5160374,0.0801 0.4498633,0.40524 1.0635484,0.67057 1.7509112,0.7069 1.459604,0.077 2.698108,-0.90739 2.766134,-2.19864 0.05577,-1.05879 -0.6924,-1.99434 -1.767983,-2.33967 z"
       id="path3349-4"
       style="opacity:1;fill:#245343;fill-opacity:0.94117647" /></g></svg>
