<?xml version="1.0" encoding="UTF-8" standalone="no"?>
<svg
   xmlns:dc="http://purl.org/dc/elements/1.1/"
   xmlns:cc="http://creativecommons.org/ns#"
   xmlns:rdf="http://www.w3.org/1999/02/22-rdf-syntax-ns#"
   xmlns:svg="http://www.w3.org/2000/svg"
   xmlns="http://www.w3.org/2000/svg"
   xmlns:xlink="http://www.w3.org/1999/xlink"
   height="32"
   width="32"
   xml:space="preserve"
   style="opacity:1"
   viewBox="0 0 32 32"
   y="0px"
   x="0px"
   id="_x31_0"
   version="1.1"><metadata
     id="metadata3365"><rdf:RDF><cc:Work
         rdf:about=""><dc:format>image/svg+xml</dc:format><dc:type
           rdf:resource="http://purl.org/dc/dcmitype/StillImage" /><dc:title></dc:title></cc:Work></rdf:RDF></metadata><defs
     id="defs3363" /><style
     id="style3337"
     type="text/css">
	.st0{fill:#374149;}
</style><g
     transform="translate(0,-480)"
     id="layer1"><path
       transform="matrix(0.11214654,0,0,0.11214654,-13.159553,470.77114)"
       d="m 226.95703,90.746094 c -0.47521,1.71e-4 -0.87437,0.02703 -1.16211,0.05469 -0.28774,0.02766 -0.77085,0.04412 -0.16992,0.02734 l 0.0332,0 c -1.38569,0.02568 -3.48992,-0.166077 -6.21093,0.189453 a 3.4757895,3.4757895 0 0 0 -0.004,0 c -7.34557,0.96462 -13.39436,3.280582 -18.45703,6.257813 0.69822,-0.410343 0.35101,-0.178868 0.28125,-0.148438 -0.0698,0.03043 -0.18616,0.08277 -0.32227,0.148438 -0.27221,0.131337 -0.63249,0.322096 -1.04492,0.582031 -2.1714,1.368226 -3.94355,2.925888 -5.57617,4.472658 l 0.26953,-0.13281 a 3.4757895,3.4757895 0 0 0 -0.39453,0.23437 c -0.13753,0.1311 -0.33814,0.24787 -0.47266,0.37891 a 3.4757895,3.4757895 0 0 0 -0.0176,0.0156 c 0.004,-0.004 -0.71274,0.58844 -1.47265,1.41797 -1.89351,2.05918 -3.46104,4.27942 -4.80664,6.54883 a 3.4757895,3.4757895 0 0 0 0,0.002 c 0.0471,-0.0794 -0.36801,0.53028 -0.76953,1.27735 -6.07182,11.11286 -7.39616,24.80538 -6.57032,39.40234 -8.34056,-6.78179 -17.70521,-10.94126 -27.17187,-11.35352 -0.047,-0.0124 -0.10153,-0.0273 -0.10156,-0.0273 -8.4e-4,-1.8e-4 -0.4622,-0.0705 -0.51758,-0.0742 -0.44307,-0.0294 -0.29311,-0.009 -0.4375,-0.01 -0.14439,-0.001 -0.3308,-0.002 -0.55274,-0.002 -0.28668,0 -0.48774,6.9e-4 -0.6289,0.002 -0.0706,6.3e-4 -0.12054,1.4e-4 -0.18946,0.002 -0.0344,9e-4 -0.0459,-7.4e-4 -0.18945,0.01 -0.0359,0.003 -0.0794,0.004 -0.17383,0.0156 -0.0472,0.006 -0.20678,0.0332 -0.20703,0.0332 -1.4e-4,3e-5 -0.162,0.0433 -0.31836,0.0859 -3.77118,0.1454 -7.71274,0.70367 -11.57226,2.48828 -11.16861,5.16791 -17.81744,16.38034 -19.91602,29.22656 -2.09559,12.82795 0.0665,27.65045 6.67383,41.9336 6.70304,14.49894 17.63698,25.27757 29.08789,31.66797 -8.7084,10.08831 -14.54857,22.67704 -15.30078,36.94922 -1.97155,37.32995 29.8606,66.94581 67.1875,68.92578 1.87218,0.10059 3.17072,0.0908 4.02148,0.041 0.21269,-0.0125 0.39481,-0.0256 0.59961,-0.0508 0.0753,-0.009 0.17183,-0.0255 0.27149,-0.043 0.32002,-2.1e-4 0.72565,4e-4 0.93359,0 0.19097,-3.7e-4 0.33417,-0.001 0.43555,-0.002 0.0507,-2.4e-4 0.0894,3.5e-4 0.125,0 0.0178,-1.8e-4 0.0342,-0.001 0.0605,-0.002 0.0132,-2.5e-4 0.0261,-7.7e-4 0.0606,-0.002 0.0172,-5.9e-4 0.0392,-0.001 0.0859,-0.004 0.0468,-0.003 0.43343,-0.0527 0.43359,-0.0527 8e-5,-10e-6 -0.63476,0.0586 -0.63476,0.0586 0,0 0.0131,-0.15823 0.0137,-0.16602 14.43912,-0.42421 28.23877,-4.71683 39.76562,-12.69727 11.99781,10.36768 27.59478,16.80646 44.63086,17.70704 a 3.4757895,3.4757895 0 0 0 0.002,0 c 37.33729,1.96783 72.11899,-24.14039 74.08593,-61.47657 0.75033,-14.24643 -3.71845,-27.35975 -11.29296,-38.29687 12.03608,-5.15876 24.0148,-14.71177 32.19335,-28.40039 a 3.4757895,3.4757895 0 0 0 0,-0.002 c 8.06989,-13.51051 11.77561,-28.02269 11.03907,-41 -0.73759,-12.99594 -6.17126,-24.84427 -16.73047,-31.1582 -5.28177,-3.15733 -11.23428,-4.54498 -17.27735,-4.43164 -6.04271,0.11333 -12.18965,1.69842 -18.08593,4.45313 -2.53814,1.1858 -5.03966,2.5953 -7.48438,4.20117 2.33005,-14.37513 2.43524,-28.07524 -2.43164,-39.72656 -0.28035,-0.68199 -0.51864,-1.1268 -0.53906,-1.1543 l 0.0586,0.17383 a 3.4757895,3.4757895 0 0 0 -0.11328,-0.29493 c 4.2e-4,9.6e-4 -0.006,-0.0128 -0.006,-0.0117 a 3.4757895,3.4757895 0 0 0 -0.0312,-0.0664 c -1.10057,-2.39932 -2.42187,-4.76534 -4.08398,-7.00391 a 3.4757895,3.4757895 0 0 0 -0.2793,-0.32812 c -0.47551,-0.58712 -0.96176,-1.13959 -1.03906,-1.22852 -1.57559,-1.90595 -3.39908,-3.83727 -5.63086,-5.59375 a 3.4757895,3.4757895 0 0 0 -0.0117,-0.01 c -0.37727,-0.29553 -0.71031,-0.5181 -0.96094,-0.67383 -0.12531,-0.0779 -0.23116,-0.14122 -0.29101,-0.17578 -0.0598,-0.0346 -0.22348,-0.17189 0.20898,0.14258 a 3.4757895,3.4757895 0 0 0 -0.56055,-0.33008 c -4.61654,-3.31779 -10.16464,-6.138307 -17.09179,-7.806643 a 3.4757895,3.4757895 0 0 0 -0.004,0 3.4757895,3.4757895 0 0 0 -0.35742,-0.06641 c -4.08278,-0.954816 -7.98216,-1.448976 -11.67578,-1.462891 a 3.4757895,3.4757895 0 0 0 -0.70703,0.07031 c -11.07942,0.148504 -20.32278,4.53029 -27.02344,11.779298 -2.64536,2.86185 -4.83119,6.19383 -6.81836,9.72266 -3.93501,-8.96948 -9.67432,-16.448541 -18.12891,-20.914067 a 3.4757895,3.4757895 0 0 0 -0.0703,-0.03711 c 0.0304,0.01552 -0.0313,-0.01887 -0.006,-0.0059 a 3.4757895,3.4757895 0 0 0 -0.006,-0.002 c 0.43565,0.22212 0.14211,0.06756 -0.12695,-0.09961 -0.29249,-0.181728 -0.70758,-0.419003 -1.22266,-0.658203 -2.31986,-1.081356 -4.63986,-1.726599 -6.78125,-2.253907 a 3.4757895,3.4757895 0 0 0 -0.0488,-0.0098 l -0.01,-0.002 a 3.4757895,3.4757895 0 0 0 -0.15625,-0.0332 l 0.0449,0.0078 c -0.38414,-0.0946 -1.01418,-0.271414 -1.85937,-0.427734 -2.22616,-0.431914 -4.53591,-0.593216 -6.87696,-0.667969 -0.17486,-0.04393 -0.27155,-0.0588 -0.34765,-0.07031 -0.63645,-0.09624 -0.68851,-0.05836 -1.06641,-0.05859 a 3.4757895,3.4757895 0 0 0 -0.002,0 l -0.002,0 a 3.4757895,3.4757895 0 0 0 -0.002,0 z m 17.10742,3.515625 a 3.4757895,3.4757895 0 0 0 -0.36328,-0.144531 l 0.36328,0.144531 z m 84.85352,10.527341 0.27539,0.2461 a 3.4757895,3.4757895 0 0 0 -0.27539,-0.2461 z m -109.4707,-13.771482 0.44921,-0.0293 a 3.4757895,3.4757895 0 0 0 -0.44921,0.0293 z M 250.6875,337.38281 c 0.0423,0.041 0.12826,0.12305 0.12891,0.12305 a 3.4757895,3.4757895 0 0 0 0.002,0.002 3.4757895,3.4757895 0 0 0 0.0918,0.0762 c 0.17637,0.15834 0.37081,0.29656 0.54882,0.45313 l -0.0586,0.0586 -0.71289,-0.71289 z m 1.03125,0.86719 c 0.0585,0.051 0.12096,0.0976 0.17969,0.14844 l -0.19532,0 -0.12695,-0.12696 a 3.4757895,3.4757895 0 0 0 0.14258,-0.0215 z m 0.48242,0.0156 a 3.4757895,3.4757895 0 0 0 0.93945,0.13282 l -1.1582,0 c 0.0703,-0.0487 0.14864,-0.0838 0.21875,-0.13282 z"
       id="path4404"
       style="color:#000000;font-style:normal;font-variant:normal;font-weight:normal;font-stretch:normal;font-size:medium;line-height:normal;font-family:sans-serif;text-indent:0;text-align:start;text-decoration:none;text-decoration-line:none;text-decoration-style:solid;text-decoration-color:#000000;letter-spacing:normal;word-spacing:normal;text-transform:none;direction:ltr;block-progression:tb;writing-mode:lr-tb;baseline-shift:baseline;text-anchor:start;white-space:normal;clip-rule:nonzero;display:inline;overflow:visible;visibility:visible;opacity:1;isolation:auto;mix-blend-mode:normal;color-interpolation:sRGB;color-interpolation-filters:linearRGB;solid-color:#000000;solid-opacity:1;fill:#374149;fill-opacity:1;fill-rule:nonzero;stroke:none;stroke-width:5;stroke-linecap:butt;stroke-linejoin:miter;stroke-miterlimit:4;stroke-dasharray:none;stroke-dashoffset:0;stroke-opacity:1;color-rendering:auto;image-rendering:auto;shape-rendering:auto;text-rendering:auto;enable-background:accumulate"
       xlink:href="#path3341" /></g><g
     style="display:inline"
     transform="translate(0,-480)"
     id="layer2"><path
       class="st0"
       d="m 6.7463311,496.36812 c 1.0763828,-0.49804 1.6913944,-2.7393 0.772241,-4.7272 -0.7455498,-1.61166 -2.0909722,-2.6258 -3.2920614,-2.6267 -0.00129,0 -0.00256,-7e-4 -0.00442,-7e-4 -0.00129,0 -0.00302,7e-4 -0.00478,7e-4 -0.2768897,7.2e-4 -0.5483967,0.0384 -0.8003903,0.155 -1.3460948,0.6229 -1.6918424,2.7393 -0.772241,4.72722 0.9190406,1.98812 3.0248167,2.97018 4.1016475,2.4717 z"
       id="path3341-9"
       style="opacity:1;fill:#f9e9ec;fill-opacity:1" /><path
       class="st0"
       d="m 28.773488,490.50546 c -1.273096,-0.76104 -3.215474,0.1468 -4.339072,2.02692 -1.123258,1.8807 -0.74689,4.17354 0.271174,4.78248 1.018516,0.60896 3.215464,-0.1464 4.339062,-2.02692 1.123147,-1.88036 1.001357,-4.02158 -0.271164,-4.78248 z"
       id="path3343-3"
       style="opacity:1;fill:#f9e9ec;fill-opacity:1" /><path
       class="st0"
       d="m 19.404309,492.33612 c 0.39868,0.0958 0.866895,0.002 1.336563,-0.2151 0.013,-0.006 0.02578,-0.012 0.03892,-0.018 0.1542,-0.0746 0.305822,-0.163 0.457784,-0.26716 0.02146,-0.014 0.04162,-0.0292 0.0626,-0.044 0.14848,-0.1064 0.291802,-0.22352 0.432324,-0.35574 0.0158,-0.016 0.0312,-0.0314 0.04686,-0.0466 0.614222,-0.59708 1.130658,-1.42582 1.337012,-2.4308 0.249304,-1.2117 0.28732,-2.33152 -0.07614,-3.201 -0.0118,-0.0292 -0.02714,-0.056 -0.03994,-0.0846 -0.07226,-0.1576 -0.15634,-0.30706 -0.258842,-0.44512 -0.02596,-0.0346 -0.0565,-0.0652 -0.08412,-0.0982 -0.1043,-0.126 -0.218236,-0.2457 -0.353042,-0.35178 -0.02016,-0.016 -0.04426,-0.028 -0.06526,-0.0434 -0.310202,-0.22956 -0.681178,-0.41966 -1.161726,-0.53538 -2.286676,-0.5493 -3.250119,1.13112 -3.712276,3.37798 -0.462157,2.24684 0.76843,4.45364 2.039268,4.75902 z"
       id="path3345-7"
       style="opacity:1;fill:#f9e9ec;fill-opacity:1" /><path
       class="st0"
       d="m 9.2048077,488.22528 c 0.158576,1.62086 1.1223613,2.9009 2.1307833,3.455 0.0035,0.001 0.0065,0.004 0.01004,0.006 0.169118,0.0924 0.336889,0.1608 0.505109,0.20894 9e-4,3.6e-4 0.0013,3.6e-4 0.0019,7.2e-4 0.167772,0.048 0.330272,0.0706 0.489744,0.0714 0.0035,0 0.007,9.2e-4 0.01004,9.2e-4 0.0039,0 0.0074,-3.6e-4 0.01142,-9.2e-4 0.05866,-3.2e-4 0.120896,0.014 0.177864,0.008 1.295855,-0.17 2.751517,-2.23552 2.528121,-4.51882 -0.15678,-1.60458 -0.603236,-2.93892 -1.655955,-3.49492 -0.02983,-0.016 -0.05651,-0.0358 -0.0868,-0.05 -0.130536,-0.0608 -0.275993,-0.103 -0.425372,-0.1398 -0.04251,-0.01 -0.08411,-0.0218 -0.12796,-0.0298 -0.15768,-0.0306 -0.326796,-0.0458 -0.505892,-0.0488 -0.01104,0 -0.02018,-0.002 -0.03118,-0.002 -0.02758,0 -0.0591,0.006 -0.08726,0.006 -0.138386,0.002 -0.26545,-0.008 -0.416511,0.01 -0.490194,0.0646 -0.878781,0.2142 -1.211744,0.41 -0.02233,0.014 -0.04778,0.0226 -0.06931,0.0362 -0.145454,0.0918 -0.27117,0.1984 -0.38814,0.31246 -0.03073,0.03 -0.06437,0.0568 -0.093756,0.089 -0.1165158,0.1264 -0.2159924,0.26668 -0.3043651,0.41568 -0.01582,0.0266 -0.033754,0.0518 -0.048668,0.0796 -0.452512,0.82642 -0.5326966,1.9444 -0.4121394,3.17588 z"
       id="path3347-3"
       style="opacity:1;fill:#f9e9ec;fill-opacity:1" /><path
       class="st0"
       d="m 22.23736,498.99092 c -0.736362,-0.23664 -1.291818,-0.83012 -1.54381,-1.56134 -0.636884,-1.84862 -2.523637,-3.24696 -4.820958,-3.36786 -2.298106,-0.1208 -4.321119,1.0711 -5.148648,2.84224 -0.327244,0.70092 -0.9422544,1.23272 -1.6993555,1.39038 -2.2153432,0.46172 -3.902812,2.16758 -4.0145094,4.28828 -0.136596,2.58631 2.1233818,4.80781 5.0470409,4.96201 0.106096,0.006 0.20635,-0.01 0.311094,-0.01 0.003,0 0.0061,0 0.0088,0 0.0039,0 0.0074,-7.2e-4 0.01142,-7.2e-4 1.248079,-0.002 2.404646,-0.3746 3.305744,-1.02908 0.920835,-0.66896 2.190782,-0.6019 3.0367,0.1604 0.901099,0.81172 2.130341,1.3432 3.507162,1.41596 2.92366,0.1542 5.404448,-1.81754 5.540706,-4.40397 0.1117,-2.12082 -1.386912,-3.99476 -3.541358,-4.68648 z"
       id="path3349-4"
       style="opacity:1;fill:#f9e9ec;fill-opacity:1" /></g></svg>
