<?xml version="1.0" encoding="UTF-8" standalone="no"?>
<svg
   xmlns:dc="http://purl.org/dc/elements/1.1/"
   xmlns:cc="http://creativecommons.org/ns#"
   xmlns:rdf="http://www.w3.org/1999/02/22-rdf-syntax-ns#"
   xmlns:svg="http://www.w3.org/2000/svg"
   xmlns="http://www.w3.org/2000/svg"
   xmlns:xlink="http://www.w3.org/1999/xlink"
   height="16"
   width="16"
   xml:space="preserve"
   style="opacity:1"
   viewBox="0 0 16 16"
   y="0px"
   x="0px"
   id="_x31_0"
   version="1.1"><metadata
     id="metadata3365"><rdf:RDF><cc:Work
         rdf:about=""><dc:format>image/svg+xml</dc:format><dc:type
           rdf:resource="http://purl.org/dc/dcmitype/StillImage" /><dc:title></dc:title></cc:Work></rdf:RDF></metadata><defs
     id="defs3363" /><style
     id="style3337"
     type="text/css">
	.st0{fill:#374149;}
</style><g
     transform="translate(0,-496)"
     id="layer1"><path
       transform="matrix(0.05607327,0,0,0.05607327,-6.579777,491.3593)"
       d="m 226.95703,90.746094 c -0.47521,1.71e-4 -0.87437,0.02703 -1.16211,0.05469 -0.28774,0.02766 -0.77085,0.04412 -0.16992,0.02734 l 0.0332,0 c -1.38569,0.02568 -3.48992,-0.166077 -6.21093,0.189453 a 3.4757895,3.4757895 0 0 0 -0.004,0 c -7.34557,0.96462 -13.39436,3.280582 -18.45703,6.257813 0.69822,-0.410343 0.35101,-0.178868 0.28125,-0.148438 -0.0698,0.03043 -0.18616,0.08277 -0.32227,0.148438 -0.27221,0.131337 -0.63249,0.322096 -1.04492,0.582031 -2.1714,1.368226 -3.94355,2.925888 -5.57617,4.472658 l 0.26953,-0.13281 a 3.4757895,3.4757895 0 0 0 -0.39453,0.23437 c -0.13753,0.1311 -0.33814,0.24787 -0.47266,0.37891 a 3.4757895,3.4757895 0 0 0 -0.0176,0.0156 c 0.004,-0.004 -0.71274,0.58844 -1.47265,1.41797 -1.89351,2.05918 -3.46104,4.27942 -4.80664,6.54883 a 3.4757895,3.4757895 0 0 0 0,0.002 c 0.0471,-0.0794 -0.36801,0.53028 -0.76953,1.27735 -6.07182,11.11286 -7.39616,24.80538 -6.57032,39.40234 -8.34056,-6.78179 -17.70521,-10.94126 -27.17187,-11.35352 -0.047,-0.0124 -0.10153,-0.0273 -0.10156,-0.0273 -8.4e-4,-1.8e-4 -0.4622,-0.0705 -0.51758,-0.0742 -0.44307,-0.0294 -0.29311,-0.009 -0.4375,-0.01 -0.14439,-0.001 -0.3308,-0.002 -0.55274,-0.002 -0.28668,0 -0.48774,6.9e-4 -0.6289,0.002 -0.0706,6.3e-4 -0.12054,1.4e-4 -0.18946,0.002 -0.0344,9e-4 -0.0459,-7.4e-4 -0.18945,0.01 -0.0359,0.003 -0.0794,0.004 -0.17383,0.0156 -0.0472,0.006 -0.20678,0.0332 -0.20703,0.0332 -1.4e-4,3e-5 -0.162,0.0433 -0.31836,0.0859 -3.77118,0.1454 -7.71274,0.70367 -11.57226,2.48828 -11.16861,5.16791 -17.81744,16.38034 -19.91602,29.22656 -2.09559,12.82795 0.0665,27.65045 6.67383,41.9336 6.70304,14.49894 17.63698,25.27757 29.08789,31.66797 -8.7084,10.08831 -14.54857,22.67704 -15.30078,36.94922 -1.97155,37.32995 29.8606,66.94581 67.1875,68.92578 1.87218,0.10059 3.17072,0.0908 4.02148,0.041 0.21269,-0.0125 0.39481,-0.0256 0.59961,-0.0508 0.0753,-0.009 0.17183,-0.0255 0.27149,-0.043 0.32002,-2.1e-4 0.72565,4e-4 0.93359,0 0.19097,-3.7e-4 0.33417,-0.001 0.43555,-0.002 0.0507,-2.4e-4 0.0894,3.5e-4 0.125,0 0.0178,-1.8e-4 0.0342,-0.001 0.0605,-0.002 0.0132,-2.5e-4 0.0261,-7.7e-4 0.0606,-0.002 0.0172,-5.9e-4 0.0392,-0.001 0.0859,-0.004 0.0468,-0.003 0.43343,-0.0527 0.43359,-0.0527 8e-5,-10e-6 -0.63476,0.0586 -0.63476,0.0586 0,0 0.0131,-0.15823 0.0137,-0.16602 14.43912,-0.42421 28.23877,-4.71683 39.76562,-12.69727 11.99781,10.36768 27.59478,16.80646 44.63086,17.70704 a 3.4757895,3.4757895 0 0 0 0.002,0 c 37.33729,1.96783 72.11899,-24.14039 74.08593,-61.47657 0.75033,-14.24643 -3.71845,-27.35975 -11.29296,-38.29687 12.03608,-5.15876 24.0148,-14.71177 32.19335,-28.40039 a 3.4757895,3.4757895 0 0 0 0,-0.002 c 8.06989,-13.51051 11.77561,-28.02269 11.03907,-41 -0.73759,-12.99594 -6.17126,-24.84427 -16.73047,-31.1582 -5.28177,-3.15733 -11.23428,-4.54498 -17.27735,-4.43164 -6.04271,0.11333 -12.18965,1.69842 -18.08593,4.45313 -2.53814,1.1858 -5.03966,2.5953 -7.48438,4.20117 2.33005,-14.37513 2.43524,-28.07524 -2.43164,-39.72656 -0.28035,-0.68199 -0.51864,-1.1268 -0.53906,-1.1543 l 0.0586,0.17383 a 3.4757895,3.4757895 0 0 0 -0.11328,-0.29493 c 4.2e-4,9.6e-4 -0.006,-0.0128 -0.006,-0.0117 a 3.4757895,3.4757895 0 0 0 -0.0312,-0.0664 c -1.10057,-2.39932 -2.42187,-4.76534 -4.08398,-7.00391 a 3.4757895,3.4757895 0 0 0 -0.2793,-0.32812 c -0.47551,-0.58712 -0.96176,-1.13959 -1.03906,-1.22852 -1.57559,-1.90595 -3.39908,-3.83727 -5.63086,-5.59375 a 3.4757895,3.4757895 0 0 0 -0.0117,-0.01 c -0.37727,-0.29553 -0.71031,-0.5181 -0.96094,-0.67383 -0.12531,-0.0779 -0.23116,-0.14122 -0.29101,-0.17578 -0.0598,-0.0346 -0.22348,-0.17189 0.20898,0.14258 a 3.4757895,3.4757895 0 0 0 -0.56055,-0.33008 c -4.61654,-3.31779 -10.16464,-6.138307 -17.09179,-7.806643 a 3.4757895,3.4757895 0 0 0 -0.004,0 3.4757895,3.4757895 0 0 0 -0.35742,-0.06641 c -4.08278,-0.954816 -7.98216,-1.448976 -11.67578,-1.462891 a 3.4757895,3.4757895 0 0 0 -0.70703,0.07031 c -11.07942,0.148504 -20.32278,4.53029 -27.02344,11.779298 -2.64536,2.86185 -4.83119,6.19383 -6.81836,9.72266 -3.93501,-8.96948 -9.67432,-16.448541 -18.12891,-20.914067 a 3.4757895,3.4757895 0 0 0 -0.0703,-0.03711 c 0.0304,0.01552 -0.0313,-0.01887 -0.006,-0.0059 a 3.4757895,3.4757895 0 0 0 -0.006,-0.002 c 0.43565,0.22212 0.14211,0.06756 -0.12695,-0.09961 -0.29249,-0.181728 -0.70758,-0.419003 -1.22266,-0.658203 -2.31986,-1.081356 -4.63986,-1.726599 -6.78125,-2.253907 a 3.4757895,3.4757895 0 0 0 -0.0488,-0.0098 l -0.01,-0.002 a 3.4757895,3.4757895 0 0 0 -0.15625,-0.0332 l 0.0449,0.0078 c -0.38414,-0.0946 -1.01418,-0.271414 -1.85937,-0.427734 -2.22616,-0.431914 -4.53591,-0.593216 -6.87696,-0.667969 -0.17486,-0.04393 -0.27155,-0.0588 -0.34765,-0.07031 -0.63645,-0.09624 -0.68851,-0.05836 -1.06641,-0.05859 a 3.4757895,3.4757895 0 0 0 -0.002,0 l -0.002,0 a 3.4757895,3.4757895 0 0 0 -0.002,0 z m 17.10742,3.515625 a 3.4757895,3.4757895 0 0 0 -0.36328,-0.144531 l 0.36328,0.144531 z m 84.85352,10.527341 0.27539,0.2461 a 3.4757895,3.4757895 0 0 0 -0.27539,-0.2461 z m -109.4707,-13.771482 0.44921,-0.0293 a 3.4757895,3.4757895 0 0 0 -0.44921,0.0293 z M 250.6875,337.38281 c 0.0423,0.041 0.12826,0.12305 0.12891,0.12305 a 3.4757895,3.4757895 0 0 0 0.002,0.002 3.4757895,3.4757895 0 0 0 0.0918,0.0762 c 0.17637,0.15834 0.37081,0.29656 0.54882,0.45313 l -0.0586,0.0586 -0.71289,-0.71289 z m 1.03125,0.86719 c 0.0585,0.051 0.12096,0.0976 0.17969,0.14844 l -0.19532,0 -0.12695,-0.12696 a 3.4757895,3.4757895 0 0 0 0.14258,-0.0215 z m 0.48242,0.0156 a 3.4757895,3.4757895 0 0 0 0.93945,0.13282 l -1.1582,0 c 0.0703,-0.0487 0.14864,-0.0838 0.21875,-0.13282 z"
       id="path4404"
       style="color:#000000;font-style:normal;font-variant:normal;font-weight:normal;font-stretch:normal;font-size:medium;line-height:normal;font-family:sans-serif;text-indent:0;text-align:start;text-decoration:none;text-decoration-line:none;text-decoration-style:solid;text-decoration-color:#000000;letter-spacing:normal;word-spacing:normal;text-transform:none;direction:ltr;block-progression:tb;writing-mode:lr-tb;baseline-shift:baseline;text-anchor:start;white-space:normal;clip-rule:nonzero;display:inline;overflow:visible;visibility:visible;opacity:1;isolation:auto;mix-blend-mode:normal;color-interpolation:sRGB;color-interpolation-filters:linearRGB;solid-color:#000000;solid-opacity:1;fill:#374149;fill-opacity:1;fill-rule:nonzero;stroke:none;stroke-width:5;stroke-linecap:butt;stroke-linejoin:miter;stroke-miterlimit:4;stroke-dasharray:none;stroke-dashoffset:0;stroke-opacity:1;color-rendering:auto;image-rendering:auto;shape-rendering:auto;text-rendering:auto;enable-background:accumulate"
       xlink:href="#path3341" /></g><g
     style="display:inline"
     transform="translate(0,-496)"
     id="layer2"><path
       class="st0"
       d="m 3.3731659,504.15779 c 0.5381914,-0.24902 0.8456972,-1.36965 0.3861205,-2.3636 -0.3727749,-0.80583 -1.0454862,-1.3129 -1.6460308,-1.31335 -6.475e-4,0 -0.00128,-3.5e-4 -0.00221,-3.5e-4 -6.473e-4,0 -0.00151,3.5e-4 -0.00239,3.5e-4 -0.1384449,3.6e-4 -0.2741984,0.0192 -0.4001952,0.0775 -0.6730475,0.31145 -0.84592129,1.36965 -0.3861206,2.36361 0.4595204,0.99406 1.5124085,1.48509 2.050824,1.23585 z"
       id="path3341-9"
       style="opacity:1;fill:#f9e9ec;fill-opacity:1" /><path
       class="st0"
       d="m 14.386745,501.22646 c -0.636548,-0.38052 -1.607737,0.0734 -2.169536,1.01346 -0.561629,0.94035 -0.373445,2.08677 0.135587,2.39124 0.509258,0.30448 1.607732,-0.0732 2.169531,-1.01346 0.561574,-0.94018 0.500679,-2.01079 -0.135582,-2.39124 z"
       id="path3343-3"
       style="opacity:1;fill:#f9e9ec;fill-opacity:1" /><path
       class="st0"
       d="m 9.7021553,502.14179 c 0.1993401,0.0479 0.4334477,10e-4 0.6682817,-0.10755 0.0065,-0.003 0.01289,-0.006 0.01946,-0.009 0.0771,-0.0373 0.152911,-0.0815 0.228892,-0.13358 0.01073,-0.007 0.02081,-0.0146 0.0313,-0.022 0.07424,-0.0532 0.145901,-0.11176 0.216162,-0.17787 0.0079,-0.008 0.0156,-0.0157 0.02343,-0.0233 0.307111,-0.29854 0.565329,-0.71291 0.668506,-1.2154 0.124652,-0.60585 0.14366,-1.16576 -0.03807,-1.6005 -0.0059,-0.0146 -0.01357,-0.028 -0.01997,-0.0423 -0.03613,-0.0788 -0.07817,-0.15353 -0.129421,-0.22256 -0.01298,-0.0173 -0.02825,-0.0326 -0.04206,-0.0491 -0.05215,-0.063 -0.109118,-0.12285 -0.176521,-0.17589 -0.01008,-0.008 -0.02213,-0.014 -0.03263,-0.0217 -0.155101,-0.11478 -0.340589,-0.20983 -0.580863,-0.26769 -1.1433382,-0.27465 -1.6250599,0.56556 -1.8561383,1.68899 -0.2310783,1.12342 0.384215,2.22682 1.0196343,2.37951 z"
       id="path3345-7"
       style="opacity:1;fill:#f9e9ec;fill-opacity:1" /><path
       class="st0"
       d="m 4.6024042,500.08637 c 0.079288,0.81043 0.5611811,1.45045 1.0653923,1.7275 0.00177,6.4e-4 0.00323,0.002 0.00502,0.003 0.084559,0.0462 0.1684442,0.0804 0.2525545,0.10447 4.498e-4,1.8e-4 6.346e-4,1.8e-4 9.52e-4,3.6e-4 0.083886,0.024 0.165136,0.0353 0.244872,0.0357 0.00177,0 0.0035,4.6e-4 0.00502,4.6e-4 0.00196,0 0.00369,-1.8e-4 0.00571,-4.6e-4 0.029329,-1.6e-4 0.060448,0.007 0.088932,0.004 0.6479274,-0.085 1.3757582,-1.11776 1.2640605,-2.25941 -0.07839,-0.80229 -0.3016184,-1.46946 -0.8279779,-1.74746 -0.014916,-0.008 -0.028256,-0.0179 -0.0434,-0.025 -0.065268,-0.0304 -0.1379961,-0.0515 -0.2126857,-0.0699 -0.021255,-0.005 -0.042054,-0.0109 -0.06398,-0.0149 -0.07884,-0.0153 -0.1633979,-0.0229 -0.2529462,-0.0244 -0.00552,0 -0.010091,-0.001 -0.015588,-0.001 -0.013792,0 -0.029551,0.003 -0.043628,0.003 -0.069193,10e-4 -0.132725,-0.004 -0.2082556,0.005 -0.2450967,0.0323 -0.4393905,0.1071 -0.605872,0.205 -0.011164,0.007 -0.023889,0.0113 -0.034654,0.0181 -0.072727,0.0459 -0.1355849,0.0992 -0.1940696,0.15623 -0.015366,0.015 -0.032185,0.0284 -0.046878,0.0445 -0.058258,0.0632 -0.1079963,0.13334 -0.1521827,0.20784 -0.00791,0.0133 -0.016877,0.0259 -0.024334,0.0398 -0.226256,0.41321 -0.2663483,0.9722 -0.2060697,1.58794 z"
       id="path3347-3"
       style="opacity:1;fill:#f9e9ec;fill-opacity:1" /><path
       class="st0"
       d="m 11.118681,505.46919 c -0.368181,-0.11832 -0.645909,-0.41506 -0.771905,-0.78067 -0.318442,-0.92431 -1.2618188,-1.62348 -2.4104791,-1.68393 -1.1490532,-0.0604 -2.1605594,0.53555 -2.5743242,1.42112 -0.1636217,0.35046 -0.4711275,0.61636 -0.8496781,0.69519 -1.1076716,0.23086 -1.9514061,1.08379 -2.0072548,2.14414 -0.068298,1.29316 1.061691,2.40391 2.5235209,2.48101 0.053048,0.003 0.1031753,-0.005 0.1555472,-0.005 0.00152,0 0.00304,0 0.00438,0 0.00196,0 0.00369,-3.6e-4 0.00571,-3.6e-4 0.6240394,-10e-4 1.2023231,-0.1873 1.652872,-0.51454 0.4604176,-0.33448 1.0953909,-0.30095 1.5183498,0.0802 0.4505495,0.40586 1.0651707,0.6716 1.7535813,0.70798 1.46183,0.0771 2.702224,-0.90877 2.770353,-2.20199 0.05585,-1.06041 -0.693456,-1.99738 -1.770679,-2.34324 z"
       id="path3349-4"
       style="opacity:1;fill:#f9e9ec;fill-opacity:1" /></g></svg>
