<?xml version="1.0" encoding="UTF-8" standalone="no"?>
<!-- Created with Inkscape (http://www.inkscape.org/) -->

<svg
   xmlns:dc="http://purl.org/dc/elements/1.1/"
   xmlns:cc="http://creativecommons.org/ns#"
   xmlns:rdf="http://www.w3.org/1999/02/22-rdf-syntax-ns#"
   xmlns:svg="http://www.w3.org/2000/svg"
   xmlns="http://www.w3.org/2000/svg"
   xmlns:sodipodi="http://sodipodi.sourceforge.net/DTD/sodipodi-0.dtd"
   xmlns:inkscape="http://www.inkscape.org/namespaces/inkscape"
   width="2104.7244"
   height="1052.36"
   id="svg2"
   version="1.1"
   inkscape:version="0.48.3.1 r9886"
   sodipodi:docname="cherry_mx_layout_6.svg">
  <defs
     id="defs4">
    <symbol
       id="*Paper_Space0" />
    <symbol
       id="*Paper_Space" />
    <symbol
       id="*Model_Space" />
    <pattern
       id="Hatch"
       x="0"
       y="0"
       patternUnits="userSpaceOnUse"
       width="8"
       height="8">
      <path
         id="path3033"
         d="M8 4 l-4,4"
         stroke-width="0.25"
         stroke="#000000"
         linecap="square" />
      <path
         id="path3035"
         d="M6 2 l-4,4"
         stroke-width="0.25"
         stroke="#000000"
         linecap="square" />
      <path
         id="path3037"
         d="M4 0 l-4,4"
         stroke-width="0.25"
         stroke="#000000"
         linecap="square" />
    </pattern>
    <marker
       orient="auto"
       id="DistanceX"
       style="overflow:visible"
       refX="0"
       refY="0">
      <path
         id="path3030"
         d="M 3,-3 -3,3 M 0,-5 0,5"
         style="stroke:#000000;stroke-width:0.5"
         inkscape:connector-curvature="0" />
    </marker>
  </defs>
  <sodipodi:namedview
     id="base"
     pagecolor="#ffffff"
     bordercolor="#666666"
     borderopacity="1.0"
     inkscape:pageopacity="0.0"
     inkscape:pageshadow="2"
     inkscape:zoom="1.5722588"
     inkscape:cx="1304.1921"
     inkscape:cy="543.12853"
     inkscape:document-units="px"
     inkscape:current-layer="layer1"
     showgrid="false"
     units="mm"
     inkscape:window-width="1920"
     inkscape:window-height="1176"
     inkscape:window-x="0"
     inkscape:window-y="24"
     inkscape:window-maximized="1"
     inkscape:snap-bbox="true"
     inkscape:bbox-paths="true"
     inkscape:bbox-nodes="true"
     inkscape:snap-bbox-edge-midpoints="true"
     inkscape:snap-bbox-midpoints="true"
     inkscape:object-paths="true"
     inkscape:snap-intersection-paths="true"
     inkscape:object-nodes="true"
     inkscape:snap-smooth-nodes="true"
     inkscape:snap-midpoints="true"
     inkscape:snap-object-midpoints="true"
     inkscape:snap-center="true"
     inkscape:snap-page="true"
     inkscape:snap-global="true"
     objecttolerance="20"
     guidetolerance="20"
     inkscape:snap-grids="false"
     gridtolerance="10">
    <inkscape:grid
       type="xygrid"
       id="grid5555"
       empspacing="5"
       visible="true"
       enabled="true"
       snapvisiblegridlinesonly="true"
       units="mm"
       spacingx="0.015mm"
       spacingy="0.015mm"
       dotted="false" />
  </sodipodi:namedview>
  <metadata
     id="metadata7">
    <rdf:RDF>
      <cc:Work
         rdf:about="">
        <dc:format>image/svg+xml</dc:format>
        <dc:type
           rdf:resource="http://purl.org/dc/dcmitype/StillImage" />
        <dc:title></dc:title>
      </cc:Work>
    </rdf:RDF>
  </metadata>
  <g
     inkscape:label="Layer 1"
     inkscape:groupmode="layer"
     id="layer1"
     transform="translate(0,-0.00205801)">
    <g
       inkscape:label="BROWN"
       id="g4724"
       transform="translate(1112.0664,-210.64844)"
       style="stroke:#00d9e5;stroke-opacity:1" />
    <g
       inkscape:label="GRAY"
       id="g4726"
       transform="translate(1112.0664,-210.64844)"
       style="stroke:#00d9e5;stroke-opacity:1" />
    <g
       inkscape:label="DARKGRAY"
       id="g4728"
       transform="translate(1112.0664,-210.64844)"
       style="stroke:#00d9e5;stroke-opacity:1" />
    <g
       inkscape:label="LIGHTBLUE"
       id="g4730"
       transform="translate(1112.0664,-210.64844)"
       style="stroke:#00d9e5;stroke-opacity:1" />
    <g
       inkscape:label="LIGHTGREEN"
       id="g4732"
       transform="translate(1112.0664,-210.64844)"
       style="stroke:#00d9e5;stroke-opacity:1" />
    <g
       inkscape:label="LIGHTCYAN"
       id="g4734"
       transform="translate(1112.0664,-210.64844)"
       style="stroke:#00d9e5;stroke-opacity:1" />
    <g
       inkscape:label="LIGHTRED"
       id="g4736"
       transform="translate(1112.0664,-210.64844)"
       style="stroke:#00d9e5;stroke-opacity:1" />
    <g
       inkscape:label="LIGHTMAGENTA"
       id="g4738"
       transform="translate(1112.0664,-210.64844)"
       style="stroke:#00d9e5;stroke-opacity:1" />
    <g
       inkscape:label="YELLOW"
       id="g4740"
       transform="translate(1112.0664,-210.64844)"
       style="stroke:#00d9e5;stroke-opacity:1" />
    <g
       inkscape:label="WHITE"
       id="g4742"
       transform="translate(1112.0664,-210.64844)"
       style="stroke:#00d9e5;stroke-opacity:1" />
    <g
       inkscape:label="DARKDARKGRAY"
       id="g4744"
       transform="translate(1112.0664,-210.64844)"
       style="stroke:#00d9e5;stroke-opacity:1" />
    <g
       inkscape:label="DARKBLUE"
       id="g4746"
       transform="translate(1112.0664,-210.64844)"
       style="stroke:#00d9e5;stroke-opacity:1" />
    <g
       inkscape:label="DARKGREEN"
       id="g4748"
       transform="translate(1112.0664,-210.64844)"
       style="stroke:#00d9e5;stroke-opacity:1" />
    <g
       inkscape:label="DARKCYAN"
       id="g4750"
       transform="translate(1112.0664,-210.64844)"
       style="stroke:#00d9e5;stroke-opacity:1" />
    <g
       inkscape:label="DARKRED"
       id="g4752"
       transform="translate(1112.0664,-210.64844)"
       style="stroke:#00d9e5;stroke-opacity:1" />
    <g
       inkscape:label="DARKMAGENTA"
       id="g4754"
       transform="translate(1112.0664,-210.64844)"
       style="stroke:#00d9e5;stroke-opacity:1" />
    <g
       inkscape:label="DARKBROWN"
       id="g4756"
       transform="translate(1112.0664,-210.64844)"
       style="stroke:#00d9e5;stroke-opacity:1" />
    <g
       inkscape:label="LIGHTYELLOW"
       id="g4758"
       transform="translate(1112.0664,-210.64844)"
       style="stroke:#00d9e5;stroke-opacity:1" />
    <g
       inkscape:label="BLACK"
       id="g4760"
       transform="translate(1112.0664,-210.64844)"
       style="stroke:#00d9e5;stroke-opacity:1" />
    <g
       inkscape:label="BLUE"
       id="g4762"
       transform="translate(1112.0664,-210.64844)"
       style="stroke:#00d9e5;stroke-opacity:1" />
    <g
       inkscape:label="GREEN"
       id="g4764"
       transform="translate(1112.0664,-210.64844)"
       style="stroke:#00d9e5;stroke-opacity:1" />
    <g
       inkscape:label="CYAN"
       id="g4766"
       transform="translate(1112.0664,-210.64844)"
       style="stroke:#00d9e5;stroke-opacity:1" />
    <g
       inkscape:label="RED"
       id="g4768"
       transform="translate(1112.0664,-210.64844)"
       style="stroke:#00d9e5;stroke-opacity:1" />
    <g
       inkscape:label="MAGENTA"
       id="g4770"
       transform="translate(1112.0664,-210.64844)"
       style="stroke:#00d9e5;stroke-opacity:1" />
    <path
       style="color:#000000;fill:#414141;fill-opacity:1;fill-rule:nonzero;stroke:none;stroke-width:0;stroke-linecap:butt;stroke-linejoin:miter;stroke-miterlimit:4;stroke-opacity:1;stroke-dasharray:none;stroke-dashoffset:0;marker:none;visibility:visible;display:inline;overflow:visible;enable-background:accumulate"
       d="m 526.3199,342.94134 0,67.5 0,67.5 -6,0 -55.5,0 -6,0 0,-67.5 0,-67.5 67.5,0 z m -11.8125,19.34375 -49.5,0.125 0.0312,11.6875 49.5,-0.0937 -0.0312,-11.71875 z m -0.65625,20.53125 -12.40625,0 0,2.875 -17.75,0 0,-2.875 -12.375,0 0,2.875 -3.5,0 0,3.5 -2.875,0 0,12.375 2.875,0 0,17.75 -2.875,0 0,12.40625 2.875,0 0,3.46875 3.5,0 0,2.875 12.375,0 0,-2.875 17.75,0 0,2.875 12.40625,0 0,-2.875 3.46875,0 0,-3.46875 2.875,0 0,-12.40625 -2.875,0 0,-17.75 2.875,0 0,-12.375 -2.875,0 0,-3.5 -3.46875,0 0,-2.875 z m 0.84375,64.09375 -49.5,0.0937 0.0312,11.6875 49.5,-0.0937 -0.0312,-11.6875 z"
       id="rect5621-2-2-5-0-57-9-4-2-8-9-8-6"
       inkscape:connector-curvature="0" />
    <path
       inkscape:connector-curvature="0"
       style="color:#000000;fill:#414141;fill-opacity:1;fill-rule:nonzero;stroke:none;stroke-width:0;stroke-linecap:butt;stroke-linejoin:miter;stroke-miterlimit:4;stroke-opacity:1;stroke-dasharray:none;stroke-dashoffset:0;marker:none;visibility:visible;display:inline;overflow:visible;enable-background:accumulate"
       d="m 931.3199,275.44134 0,67.5 -67.5,0 0,-67.5 67.5,0 z m -12.46875,6.125 -12.40625,0 0,2.875 -17.75,0 0,-2.875 -12.375,0 0,2.875 -3.5,0 0,3.5 -2.875,0 0,12.375 2.875,0 0,17.75 -2.875,0 0,12.40625 2.875,0 0,3.46875 3.5,0 0,2.875 12.375,0 0,-2.875 17.75,0 0,2.875 12.40625,0 0,-2.875 3.46875,0 0,-3.46875 2.875,0 0,-12.40625 -2.875,0 0,-17.75 2.875,0 0,-12.375 -2.875,0 0,-3.5 -3.46875,0 0,-2.875 z"
       id="rect5621-2-2-5-0-57-9-4-2-8-9-79-0" />
    <path
       inkscape:connector-curvature="0"
       style="color:#000000;fill:#414141;fill-opacity:1;fill-rule:nonzero;stroke:none;stroke-width:0;stroke-linecap:butt;stroke-linejoin:miter;stroke-miterlimit:4;stroke-opacity:1;stroke-dasharray:none;stroke-dashoffset:0;marker:none;visibility:visible;display:inline;overflow:visible;enable-background:accumulate"
       d="m 931.3199,342.94134 0,67.5 -67.5,0 0,-67.5 67.5,0 z m -12.46875,6.125 -12.40625,0 0,2.875 -17.75,0 0,-2.875 -12.375,0 0,2.875 -3.5,0 0,3.5 -2.875,0 0,12.375 2.875,0 0,17.75 -2.875,0 0,12.40625 2.875,0 0,3.46875 3.5,0 0,2.875 12.375,0 0,-2.875 17.75,0 0,2.875 12.40625,0 0,-2.875 3.46875,0 0,-3.46875 2.875,0 0,-12.40625 -2.875,0 0,-17.75 2.875,0 0,-12.375 -2.875,0 0,-3.5 -3.46875,0 0,-2.875 z"
       id="rect5621-2-2-5-0-57-9-4-2-8-9-4-1" />
    <path
       inkscape:connector-curvature="0"
       style="color:#000000;fill:#414141;fill-opacity:1;fill-rule:nonzero;stroke:none;stroke-width:0;stroke-linecap:butt;stroke-linejoin:miter;stroke-miterlimit:4;stroke-opacity:1;stroke-dasharray:none;stroke-dashoffset:0;marker:none;visibility:visible;display:inline;overflow:visible;enable-background:accumulate"
       d="m 931.3199,410.44134 0,67.5 -67.5,0 0,-67.5 67.5,0 z m -12.46875,6.125 -12.40625,0 0,2.875 -17.75,0 0,-2.875 -12.375,0 0,2.875 -3.5,0 0,3.5 -2.875,0 0,12.375 2.875,0 0,17.75 -2.875,0 0,12.40625 2.875,0 0,3.46875 3.5,0 0,2.875 12.375,0 0,-2.875 17.75,0 0,2.875 12.40625,0 0,-2.875 3.46875,0 0,-3.46875 2.875,0 0,-12.40625 -2.875,0 0,-17.75 2.875,0 0,-12.375 -2.875,0 0,-3.5 -3.46875,0 0,-2.875 z"
       id="rect5621-2-2-5-0-57-9-4-2-8-9-5-35" />
    <path
       inkscape:connector-curvature="0"
       style="color:#000000;fill:#414141;fill-opacity:1;fill-rule:nonzero;stroke:none;stroke-width:0;stroke-linecap:butt;stroke-linejoin:miter;stroke-miterlimit:4;stroke-opacity:1;stroke-dasharray:none;stroke-dashoffset:0;marker:none;visibility:visible;display:inline;overflow:visible;enable-background:accumulate"
       d="m 863.8199,275.44134 0,67.5 -67.5,0 0,-67.5 67.5,0 z m -12.46875,6.125 -12.40625,0 0,2.875 -17.75,0 0,-2.875 -12.375,0 0,2.875 -3.5,0 0,3.5 -2.875,0 0,12.375 2.875,0 0,17.75 -2.875,0 0,12.40625 2.875,0 0,3.46875 3.5,0 0,2.875 12.375,0 0,-2.875 17.75,0 0,2.875 12.40625,0 0,-2.875 3.46875,0 0,-3.46875 2.875,0 0,-12.40625 -2.875,0 0,-17.75 2.875,0 0,-12.375 -2.875,0 0,-3.5 -3.46875,0 0,-2.875 z"
       id="rect5621-2-2-5-0-57-9-4-2-8-9-79-7-2" />
    <path
       inkscape:connector-curvature="0"
       style="color:#000000;fill:#414141;fill-opacity:1;fill-rule:nonzero;stroke:none;stroke-width:0;stroke-linecap:butt;stroke-linejoin:miter;stroke-miterlimit:4;stroke-opacity:1;stroke-dasharray:none;stroke-dashoffset:0;marker:none;visibility:visible;display:inline;overflow:visible;enable-background:accumulate"
       d="m 863.8199,342.94134 0,67.5 -67.5,0 0,-67.5 67.5,0 z m -12.46875,6.125 -12.40625,0 0,2.875 -17.75,0 0,-2.875 -12.375,0 0,2.875 -3.5,0 0,3.5 -2.875,0 0,12.375 2.875,0 0,17.75 -2.875,0 0,12.40625 2.875,0 0,3.46875 3.5,0 0,2.875 12.375,0 0,-2.875 17.75,0 0,2.875 12.40625,0 0,-2.875 3.46875,0 0,-3.46875 2.875,0 0,-12.40625 -2.875,0 0,-17.75 2.875,0 0,-12.375 -2.875,0 0,-3.5 -3.46875,0 0,-2.875 z"
       id="rect5621-2-2-5-0-57-9-4-2-8-9-4-2-9" />
    <path
       inkscape:connector-curvature="0"
       style="color:#000000;fill:#414141;fill-opacity:1;fill-rule:nonzero;stroke:none;stroke-width:0;stroke-linecap:butt;stroke-linejoin:miter;stroke-miterlimit:4;stroke-opacity:1;stroke-dasharray:none;stroke-dashoffset:0;marker:none;visibility:visible;display:inline;overflow:visible;enable-background:accumulate"
       d="m 863.8199,410.44134 0,67.5 -67.5,0 0,-67.5 67.5,0 z m -12.46875,6.125 -12.40625,0 0,2.875 -17.75,0 0,-2.875 -12.375,0 0,2.875 -3.5,0 0,3.5 -2.875,0 0,12.375 2.875,0 0,17.75 -2.875,0 0,12.40625 2.875,0 0,3.46875 3.5,0 0,2.875 12.375,0 0,-2.875 17.75,0 0,2.875 12.40625,0 0,-2.875 3.46875,0 0,-3.46875 2.875,0 0,-12.40625 -2.875,0 0,-17.75 2.875,0 0,-12.375 -2.875,0 0,-3.5 -3.46875,0 0,-2.875 z"
       id="rect5621-2-2-5-0-57-9-4-2-8-9-5-2-61" />
    <path
       inkscape:connector-curvature="0"
       style="color:#000000;fill:#414141;fill-opacity:1;fill-rule:nonzero;stroke:none;stroke-width:0;stroke-linecap:butt;stroke-linejoin:miter;stroke-miterlimit:4;stroke-opacity:1;stroke-dasharray:none;stroke-dashoffset:0;marker:none;visibility:visible;display:inline;overflow:visible;enable-background:accumulate"
       d="m 796.3199,275.44134 0,67.5 -67.5,0 0,-67.5 67.5,0 z m -12.46875,6.125 -12.40625,0 0,2.875 -17.75,0 0,-2.875 -12.375,0 0,2.875 -3.5,0 0,3.5 -2.875,0 0,12.375 2.875,0 0,17.75 -2.875,0 0,12.40625 2.875,0 0,3.46875 3.5,0 0,2.875 12.375,0 0,-2.875 17.75,0 0,2.875 12.40625,0 0,-2.875 3.46875,0 0,-3.46875 2.875,0 0,-12.40625 -2.875,0 0,-17.75 2.875,0 0,-12.375 -2.875,0 0,-3.5 -3.46875,0 0,-2.875 z"
       id="rect5621-2-2-5-0-57-9-4-2-8-9-79-74-8" />
    <path
       inkscape:connector-curvature="0"
       style="color:#000000;fill:#414141;fill-opacity:1;fill-rule:nonzero;stroke:none;stroke-width:0;stroke-linecap:butt;stroke-linejoin:miter;stroke-miterlimit:4;stroke-opacity:1;stroke-dasharray:none;stroke-dashoffset:0;marker:none;visibility:visible;display:inline;overflow:visible;enable-background:accumulate"
       d="m 796.3199,342.94134 0,67.5 -67.5,0 0,-67.5 67.5,0 z m -12.46875,6.125 -12.40625,0 0,2.875 -17.75,0 0,-2.875 -12.375,0 0,2.875 -3.5,0 0,3.5 -2.875,0 0,12.375 2.875,0 0,17.75 -2.875,0 0,12.40625 2.875,0 0,3.46875 3.5,0 0,2.875 12.375,0 0,-2.875 17.75,0 0,2.875 12.40625,0 0,-2.875 3.46875,0 0,-3.46875 2.875,0 0,-12.40625 -2.875,0 0,-17.75 2.875,0 0,-12.375 -2.875,0 0,-3.5 -3.46875,0 0,-2.875 z"
       id="rect5621-2-2-5-0-57-9-4-2-8-9-4-9-5" />
    <path
       inkscape:connector-curvature="0"
       style="color:#000000;fill:#414141;fill-opacity:1;fill-rule:nonzero;stroke:none;stroke-width:0;stroke-linecap:butt;stroke-linejoin:miter;stroke-miterlimit:4;stroke-opacity:1;stroke-dasharray:none;stroke-dashoffset:0;marker:none;visibility:visible;display:inline;overflow:visible;enable-background:accumulate"
       d="m 796.3199,410.44134 0,67.5 -67.5,0 0,-67.5 67.5,0 z m -12.46875,6.125 -12.40625,0 0,2.875 -17.75,0 0,-2.875 -12.375,0 0,2.875 -3.5,0 0,3.5 -2.875,0 0,12.375 2.875,0 0,17.75 -2.875,0 0,12.40625 2.875,0 0,3.46875 3.5,0 0,2.875 12.375,0 0,-2.875 17.75,0 0,2.875 12.40625,0 0,-2.875 3.46875,0 0,-3.46875 2.875,0 0,-12.40625 -2.875,0 0,-17.75 2.875,0 0,-12.375 -2.875,0 0,-3.5 -3.46875,0 0,-2.875 z"
       id="rect5621-2-2-5-0-57-9-4-2-8-9-5-3-7" />
    <path
       inkscape:connector-curvature="0"
       style="color:#000000;fill:#414141;fill-opacity:1;fill-rule:nonzero;stroke:none;stroke-width:0;stroke-linecap:butt;stroke-linejoin:miter;stroke-miterlimit:4;stroke-opacity:1;stroke-dasharray:none;stroke-dashoffset:0;marker:none;visibility:visible;display:inline;overflow:visible;enable-background:accumulate"
       d="m 728.8199,275.44134 0,67.5 -67.5,0 0,-67.5 67.5,0 z m -12.46875,6.125 -12.40625,0 0,2.875 -17.75,0 0,-2.875 -12.375,0 0,2.875 -3.5,0 0,3.5 -2.875,0 0,12.375 2.875,0 0,17.75 -2.875,0 0,12.40625 2.875,0 0,3.46875 3.5,0 0,2.875 12.375,0 0,-2.875 17.75,0 0,2.875 12.40625,0 0,-2.875 3.46875,0 0,-3.46875 2.875,0 0,-12.40625 -2.875,0 0,-17.75 2.875,0 0,-12.375 -2.875,0 0,-3.5 -3.46875,0 0,-2.875 z"
       id="rect5621-2-2-5-0-57-9-4-2-8-9-79-2-2" />
    <path
       inkscape:connector-curvature="0"
       style="color:#000000;fill:#414141;fill-opacity:1;fill-rule:nonzero;stroke:none;stroke-width:0;stroke-linecap:butt;stroke-linejoin:miter;stroke-miterlimit:4;stroke-opacity:1;stroke-dasharray:none;stroke-dashoffset:0;marker:none;visibility:visible;display:inline;overflow:visible;enable-background:accumulate"
       d="m 728.8199,342.94134 0,67.5 -67.5,0 0,-67.5 67.5,0 z m -12.46875,6.125 -12.40625,0 0,2.875 -17.75,0 0,-2.875 -12.375,0 0,2.875 -3.5,0 0,3.5 -2.875,0 0,12.375 2.875,0 0,17.75 -2.875,0 0,12.40625 2.875,0 0,3.46875 3.5,0 0,2.875 12.375,0 0,-2.875 17.75,0 0,2.875 12.40625,0 0,-2.875 3.46875,0 0,-3.46875 2.875,0 0,-12.40625 -2.875,0 0,-17.75 2.875,0 0,-12.375 -2.875,0 0,-3.5 -3.46875,0 0,-2.875 z"
       id="rect5621-2-2-5-0-57-9-4-2-8-9-4-0-1" />
    <path
       inkscape:connector-curvature="0"
       style="color:#000000;fill:#414141;fill-opacity:1;fill-rule:nonzero;stroke:none;stroke-width:0;stroke-linecap:butt;stroke-linejoin:miter;stroke-miterlimit:4;stroke-opacity:1;stroke-dasharray:none;stroke-dashoffset:0;marker:none;visibility:visible;display:inline;overflow:visible;enable-background:accumulate"
       d="m 728.8199,410.44134 0,67.5 -67.5,0 0,-67.5 67.5,0 z m -12.46875,6.125 -12.40625,0 0,2.875 -17.75,0 0,-2.875 -12.375,0 0,2.875 -3.5,0 0,3.5 -2.875,0 0,12.375 2.875,0 0,17.75 -2.875,0 0,12.40625 2.875,0 0,3.46875 3.5,0 0,2.875 12.375,0 0,-2.875 17.75,0 0,2.875 12.40625,0 0,-2.875 3.46875,0 0,-3.46875 2.875,0 0,-12.40625 -2.875,0 0,-17.75 2.875,0 0,-12.375 -2.875,0 0,-3.5 -3.46875,0 0,-2.875 z"
       id="rect5621-2-2-5-0-57-9-4-2-8-9-5-5-6" />
    <path
       inkscape:connector-curvature="0"
       style="color:#000000;fill:#414141;fill-opacity:1;fill-rule:nonzero;stroke:none;stroke-width:0;stroke-linecap:butt;stroke-linejoin:miter;stroke-miterlimit:4;stroke-opacity:1;stroke-dasharray:none;stroke-dashoffset:0;marker:none;visibility:visible;display:inline;overflow:visible;enable-background:accumulate"
       d="m 661.3199,275.44134 0,67.5 -67.5,0 0,-67.5 67.5,0 z m -12.46875,6.125 -12.40625,0 0,2.875 -17.75,0 0,-2.875 -12.375,0 0,2.875 -3.5,0 0,3.5 -2.875,0 0,12.375 2.875,0 0,17.75 -2.875,0 0,12.40625 2.875,0 0,3.46875 3.5,0 0,2.875 12.375,0 0,-2.875 17.75,0 0,2.875 12.40625,0 0,-2.875 3.46875,0 0,-3.46875 2.875,0 0,-12.40625 -2.875,0 0,-17.75 2.875,0 0,-12.375 -2.875,0 0,-3.5 -3.46875,0 0,-2.875 z"
       id="rect5621-2-2-5-0-57-9-4-2-8-9-79-7-7-5" />
    <path
       inkscape:connector-curvature="0"
       style="color:#000000;fill:#414141;fill-opacity:1;fill-rule:nonzero;stroke:none;stroke-width:0;stroke-linecap:butt;stroke-linejoin:miter;stroke-miterlimit:4;stroke-opacity:1;stroke-dasharray:none;stroke-dashoffset:0;marker:none;visibility:visible;display:inline;overflow:visible;enable-background:accumulate"
       d="m 661.3199,342.94134 0,67.5 -67.5,0 0,-67.5 67.5,0 z m -12.46875,6.125 -12.40625,0 0,2.875 -17.75,0 0,-2.875 -12.375,0 0,2.875 -3.5,0 0,3.5 -2.875,0 0,12.375 2.875,0 0,17.75 -2.875,0 0,12.40625 2.875,0 0,3.46875 3.5,0 0,2.875 12.375,0 0,-2.875 17.75,0 0,2.875 12.40625,0 0,-2.875 3.46875,0 0,-3.46875 2.875,0 0,-12.40625 -2.875,0 0,-17.75 2.875,0 0,-12.375 -2.875,0 0,-3.5 -3.46875,0 0,-2.875 z"
       id="rect5621-2-2-5-0-57-9-4-2-8-9-4-2-1-8" />
    <path
       inkscape:connector-curvature="0"
       style="color:#000000;fill:#414141;fill-opacity:1;fill-rule:nonzero;stroke:none;stroke-width:0;stroke-linecap:butt;stroke-linejoin:miter;stroke-miterlimit:4;stroke-opacity:1;stroke-dasharray:none;stroke-dashoffset:0;marker:none;visibility:visible;display:inline;overflow:visible;enable-background:accumulate"
       d="m 661.3199,410.44134 0,67.5 -67.5,0 0,-67.5 67.5,0 z m -12.46875,6.125 -12.40625,0 0,2.875 -17.75,0 0,-2.875 -12.375,0 0,2.875 -3.5,0 0,3.5 -2.875,0 0,12.375 2.875,0 0,17.75 -2.875,0 0,12.40625 2.875,0 0,3.46875 3.5,0 0,2.875 12.375,0 0,-2.875 17.75,0 0,2.875 12.40625,0 0,-2.875 3.46875,0 0,-3.46875 2.875,0 0,-12.40625 -2.875,0 0,-17.75 2.875,0 0,-12.375 -2.875,0 0,-3.5 -3.46875,0 0,-2.875 z"
       id="rect5621-2-2-5-0-57-9-4-2-8-9-5-2-6-2" />
    <path
       inkscape:connector-curvature="0"
       style="color:#000000;fill:#414141;fill-opacity:1;fill-rule:nonzero;stroke:none;stroke-width:0;stroke-linecap:butt;stroke-linejoin:miter;stroke-miterlimit:4;stroke-opacity:1;stroke-dasharray:none;stroke-dashoffset:0;marker:none;visibility:visible;display:inline;overflow:visible;enable-background:accumulate"
       d="m 593.8199,275.44134 0,67.5 -67.5,0 0,-67.5 67.5,0 z m -12.46875,6.125 -12.40625,0 0,2.875 -17.75,0 0,-2.875 -12.375,0 0,2.875 -3.5,0 0,3.5 -2.875,0 0,12.375 2.875,0 0,17.75 -2.875,0 0,12.40625 2.875,0 0,3.46875 3.5,0 0,2.875 12.375,0 0,-2.875 17.75,0 0,2.875 12.40625,0 0,-2.875 3.46875,0 0,-3.46875 2.875,0 0,-12.40625 -2.875,0 0,-17.75 2.875,0 0,-12.375 -2.875,0 0,-3.5 -3.46875,0 0,-2.875 z"
       id="rect5621-2-2-5-0-57-9-4-2-8-9-79-74-4-6" />
    <path
       inkscape:connector-curvature="0"
       style="color:#000000;fill:#414141;fill-opacity:1;fill-rule:nonzero;stroke:none;stroke-width:0;stroke-linecap:butt;stroke-linejoin:miter;stroke-miterlimit:4;stroke-opacity:1;stroke-dasharray:none;stroke-dashoffset:0;marker:none;visibility:visible;display:inline;overflow:visible;enable-background:accumulate"
       d="m 593.8199,342.94134 0,67.5 -67.5,0 0,-67.5 67.5,0 z m -12.46875,6.125 -12.40625,0 0,2.875 -17.75,0 0,-2.875 -12.375,0 0,2.875 -3.5,0 0,3.5 -2.875,0 0,12.375 2.875,0 0,17.75 -2.875,0 0,12.40625 2.875,0 0,3.46875 3.5,0 0,2.875 12.375,0 0,-2.875 17.75,0 0,2.875 12.40625,0 0,-2.875 3.46875,0 0,-3.46875 2.875,0 0,-12.40625 -2.875,0 0,-17.75 2.875,0 0,-12.375 -2.875,0 0,-3.5 -3.46875,0 0,-2.875 z"
       id="rect5621-2-2-5-0-57-9-4-2-8-9-4-9-7-3" />
    <path
       inkscape:connector-curvature="0"
       style="color:#000000;fill:#414141;fill-opacity:1;fill-rule:nonzero;stroke:none;stroke-width:0;stroke-linecap:butt;stroke-linejoin:miter;stroke-miterlimit:4;stroke-opacity:1;stroke-dasharray:none;stroke-dashoffset:0;marker:none;visibility:visible;display:inline;overflow:visible;enable-background:accumulate"
       d="m 593.8199,410.44134 0,67.5 -67.5,0 0,-67.5 67.5,0 z m -12.46875,6.125 -12.40625,0 0,2.875 -17.75,0 0,-2.875 -12.375,0 0,2.875 -3.5,0 0,3.5 -2.875,0 0,12.375 2.875,0 0,17.75 -2.875,0 0,12.40625 2.875,0 0,3.46875 3.5,0 0,2.875 12.375,0 0,-2.875 17.75,0 0,2.875 12.40625,0 0,-2.875 3.46875,0 0,-3.46875 2.875,0 0,-12.40625 -2.875,0 0,-17.75 2.875,0 0,-12.375 -2.875,0 0,-3.5 -3.46875,0 0,-2.875 z"
       id="rect5621-2-2-5-0-57-9-4-2-8-9-5-3-3-6" />
    <path
       inkscape:connector-curvature="0"
       style="color:#000000;fill:#414141;fill-opacity:1;fill-rule:nonzero;stroke:none;stroke-width:0;stroke-linecap:butt;stroke-linejoin:miter;stroke-miterlimit:4;stroke-opacity:1;stroke-dasharray:none;stroke-dashoffset:0;marker:none;visibility:visible;display:inline;overflow:visible;enable-background:accumulate"
       d="m 526.3199,275.44134 0,67.5 -67.5,0 0,-67.5 67.5,0 z m -12.46875,6.125 -12.40625,0 0,2.875 -17.75,0 0,-2.875 -12.375,0 0,2.875 -3.5,0 0,3.5 -2.875,0 0,12.375 2.875,0 0,17.75 -2.875,0 0,12.40625 2.875,0 0,3.46875 3.5,0 0,2.875 12.375,0 0,-2.875 17.75,0 0,2.875 12.40625,0 0,-2.875 3.46875,0 0,-3.46875 2.875,0 0,-12.40625 -2.875,0 0,-17.75 2.875,0 0,-12.375 -2.875,0 0,-3.5 -3.46875,0 0,-2.875 z"
       id="rect5621-2-2-5-0-57-9-4-2-8-9-1-2" />
    <path
       inkscape:connector-curvature="0"
       style="color:#000000;fill:#414141;fill-opacity:1;fill-rule:nonzero;stroke:none;stroke-width:0;stroke-linecap:butt;stroke-linejoin:miter;stroke-miterlimit:4;stroke-opacity:1;stroke-dasharray:none;stroke-dashoffset:0;marker:none;visibility:visible;display:inline;overflow:visible;enable-background:accumulate"
       d="m 661.3199,477.94134 0,67.5 -67.5,0 0,-67.5 67.5,0 z m -12.46875,6.125 -12.40625,0 0,2.875 -17.75,0 0,-2.875 -12.375,0 0,2.875 -3.5,0 0,3.5 -2.875,0 0,12.375 2.875,0 0,17.75 -2.875,0 0,12.40625 2.875,0 0,3.46875 3.5,0 0,2.875 12.375,0 0,-2.875 17.75,0 0,2.875 12.40625,0 0,-2.875 3.46875,0 0,-3.46875 2.875,0 0,-12.40625 -2.875,0 0,-17.75 2.875,0 0,-12.375 -2.875,0 0,-3.5 -3.46875,0 0,-2.875 z"
       id="rect5621-2-2-5-0-57-9-4-2-8-9-18-8" />
    <path
       style="color:#000000;fill:#414141;fill-opacity:1;fill-rule:nonzero;stroke:none;stroke-width:0;stroke-linecap:butt;stroke-linejoin:miter;stroke-miterlimit:4;stroke-opacity:1;stroke-dasharray:none;stroke-dashoffset:0;marker:none;visibility:visible;display:inline;overflow:visible;enable-background:accumulate"
       d="m 931.31994,477.94134 0,67.5 0,67.50001 -6,0 -55.5,0 -6,0 0,-67.50001 0,-67.5 67.5,0 z m -11.8125,19.34375 -49.5,0.125 0.0312,11.6875 49.5,-0.0937 -0.0312,-11.71875 z m -0.65625,20.53125 -12.40625,0 0,2.875 -17.75,0 0,-2.875 -12.375,0 0,2.875 -3.5,0 0,3.5 -2.875,0 0,12.375 2.875,0 0,17.75 -2.875,0 0,12.40625 2.875,0 0,3.46875 3.5,0 0,2.875 12.375,0 0,-2.875 17.75,0 0,2.875 12.40625,0 0,-2.875 3.46875,0 0,-3.46875 2.875,0 0,-12.40625 -2.875,0 0,-17.75 2.875,0 0,-12.375 -2.875,0 0,-3.5 -3.46875,0 0,-2.875 z m 0.84375,64.09376 -49.5,0.0937 0.0312,11.6875 49.5,-0.0937 -0.0312,-11.6875 z"
       id="rect5621-2-2-5-0-57-9-4-2-8-9-8-5-0"
       inkscape:connector-curvature="0" />
    <path
       style="color:#000000;fill:#414141;fill-opacity:1;fill-rule:nonzero;stroke:none;stroke-width:0;stroke-linecap:butt;stroke-linejoin:miter;stroke-miterlimit:4;stroke-opacity:1;stroke-dasharray:none;stroke-dashoffset:0;marker:none;visibility:visible;display:inline;overflow:visible;enable-background:accumulate"
       d="m 998.81994,477.94134 0,67.5 0,67.5 -6,0 -55.5,0 -6,0 0,-67.5 0,-67.5 67.5,0 z m -11.8125,19.34375 -49.5,0.125 0.0312,11.6875 49.5,-0.0937 -0.0312,-11.71875 z m -0.65625,20.53125 -12.40625,0 0,2.875 -17.75,0 0,-2.875 -12.375,0 0,2.875 -3.5,0 0,3.5 -2.875,0 0,12.375 2.875,0 0,17.75 -2.875,0 0,12.40625 2.875,0 0,3.46875 3.5,0 0,2.875 12.375,0 0,-2.875 17.75,0 0,2.875 12.40625,0 0,-2.875 3.46875,0 0,-3.46875 2.875,0 0,-12.40625 -2.875,0 0,-17.75 2.875,0 0,-12.375 -2.875,0 0,-3.5 -3.46875,0 0,-2.875 z m 0.84375,64.09375 -49.5,0.0937 0.0312,11.6875 49.5,-0.0937 -0.0312,-11.6875 z"
       id="rect5621-2-2-5-0-57-9-4-2-8-9-8-8-1"
       inkscape:connector-curvature="0" />
    <path
       style="color:#000000;fill:#414141;fill-opacity:1;fill-rule:nonzero;stroke:none;stroke-width:0;stroke-linecap:butt;stroke-linejoin:miter;stroke-miterlimit:4;stroke-opacity:1;stroke-dasharray:none;stroke-dashoffset:0;marker:none;visibility:visible;display:inline;overflow:visible;enable-background:accumulate"
       d="m 458.8199,477.94134 67.5,0 67.5,0 0,6 0,55.5 0,6 -67.5,0 -67.5,0 0,-67.5 z m 19.34375,11.8125 0.125,49.5 11.6875,-0.0312 -0.0937,-49.5 -11.71875,0.0312 z m 20.53125,0.65625 0,12.40625 2.875,0 0,17.75 -2.875,0 0,12.375 2.875,0 0,3.5 3.5,0 0,2.875 12.375,0 0,-2.875 17.75,0 0,2.875 12.40625,0 0,-2.875 3.46875,0 0,-3.5 2.875,0 0,-12.375 -2.875,0 0,-17.75 2.875,0 0,-12.40625 -2.875,0 0,-3.46875 -3.46875,0 0,-2.875 -12.40625,0 0,2.875 -17.75,0 0,-2.875 -12.375,0 0,2.875 -3.5,0 0,3.46875 -2.875,0 z m 64.09375,-0.84375 0.0937,49.5 11.6875,-0.0312 -0.0937,-49.5 -11.6875,0.0312 z"
       id="rect5621-2-2-5-0-57-9-4-2-8-9-8-1-7"
       inkscape:connector-curvature="0" />
    <path
       style="color:#000000;fill:#414141;fill-opacity:1;fill-rule:nonzero;stroke:none;stroke-width:0;stroke-linecap:butt;stroke-linejoin:miter;stroke-miterlimit:4;stroke-opacity:1;stroke-dasharray:none;stroke-dashoffset:0;marker:none;visibility:visible;display:inline;overflow:visible;enable-background:accumulate"
       d="m 863.8199,477.94134 0,67.5 -67.5,0 -33.75,0 0,-67.5 33.75,0 67.5,0 z m -29.34375,6.125 -12.40625,0 0,2.875 -17.75,0 0,-2.875 -12.375,0 0,2.875 -3.5,0 0,3.5 -2.875,0 0,12.375 2.875,0 0,17.75 -2.875,0 0,12.40625 2.875,0 0,3.46875 3.5,0 0,2.875 12.375,0 0,-2.875 17.75,0 0,2.875 12.40625,0 0,-2.875 3.46875,0 0,-3.46875 2.875,0 0,-12.40625 -2.875,0 0,-17.75 2.875,0 0,-12.375 -2.875,0 0,-3.5 -3.46875,0 0,-2.875 z"
       id="rect7292-1-2-2"
       inkscape:connector-curvature="0" />
    <path
       style="color:#000000;fill:#414141;fill-opacity:1;fill-rule:nonzero;stroke:none;stroke-width:0;stroke-linecap:butt;stroke-linejoin:miter;stroke-miterlimit:4;stroke-opacity:1;stroke-dasharray:none;stroke-dashoffset:0;marker:none;visibility:visible;display:inline;overflow:visible;enable-background:accumulate"
       d="m 762.5699,477.94134 0,67.5 -67.5,0 -33.75,0 0,-67.5 33.75,0 67.5,0 z m -29.34375,6.125 -12.40625,0 0,2.875 -17.75,0 0,-2.875 -12.375,0 0,2.875 -3.5,0 0,3.5 -2.875,0 0,12.375 2.875,0 0,17.75 -2.875,0 0,12.40625 2.875,0 0,3.46875 3.5,0 0,2.875 12.375,0 0,-2.875 17.75,0 0,2.875 12.40625,0 0,-2.875 3.46875,0 0,-3.46875 2.875,0 0,-12.40625 -2.875,0 0,-17.75 2.875,0 0,-12.375 -2.875,0 0,-3.5 -3.46875,0 0,-2.875 z"
       id="rect7292-1-2-6-0"
       inkscape:connector-curvature="0" />
    <path
       style="color:#000000;fill:#414141;fill-opacity:1;fill-rule:nonzero;stroke:none;stroke-width:0;stroke-linecap:butt;stroke-linejoin:miter;stroke-miterlimit:4;stroke-opacity:1;stroke-dasharray:none;stroke-dashoffset:0;marker:none;visibility:visible;display:inline;overflow:visible;enable-background:accumulate"
       d="m 931.3199,376.69134 67.5,0 0,67.5 0,33.75 -67.5,0 0,-33.75 0,-67.5 z m 6.125,29.34375 0,12.40625 2.875,0 0,17.75 -2.875,0 0,12.375 2.875,0 0,3.5 3.5,0 0,2.875 12.375,0 0,-2.875 17.75,0 0,2.875 12.40625,0 0,-2.875 3.46875,0 0,-3.5 2.875,0 0,-12.375 -2.875,0 0,-17.75 2.875,0 0,-12.40625 -2.875,0 0,-3.46875 -3.46875,0 0,-2.875 -12.40625,0 0,2.875 -17.75,0 0,-2.875 -12.375,0 0,2.875 -3.5,0 0,3.46875 -2.875,0 z"
       id="rect7292-1-2-0-8"
       inkscape:connector-curvature="0" />
    <path
       style="color:#000000;fill:#414141;fill-opacity:1;fill-rule:nonzero;stroke:none;stroke-width:0;stroke-linecap:butt;stroke-linejoin:miter;stroke-miterlimit:4;stroke-opacity:1;stroke-dasharray:none;stroke-dashoffset:0;marker:none;visibility:visible;display:inline;overflow:visible;enable-background:accumulate"
       d="m 931.3199,275.44134 67.5,0 0,67.5 0,33.75 -67.5,0 0,-33.75 0,-67.5 z m 6.125,29.34375 0,12.40625 2.875,0 0,17.75 -2.875,0 0,12.375 2.875,0 0,3.5 3.5,0 0,2.875 12.375,0 0,-2.875 17.75,0 0,2.875 12.40625,0 0,-2.875 3.46875,0 0,-3.5 2.875,0 0,-12.375 -2.875,0 0,-17.75 2.875,0 0,-12.40625 -2.875,0 0,-3.46875 -3.46875,0 0,-2.875 -12.40625,0 0,2.875 -17.75,0 0,-2.875 -12.375,0 0,2.875 -3.5,0 0,3.46875 -2.875,0 z"
       id="rect7292-1-2-0-2-5"
       inkscape:connector-curvature="0" />
    <path
       style="color:#000000;fill:#414141;fill-opacity:1;fill-rule:nonzero;stroke:none;stroke-width:0;stroke-linecap:butt;stroke-linejoin:miter;stroke-miterlimit:4;stroke-opacity:1;stroke-dasharray:none;stroke-dashoffset:0;marker:none;visibility:visible;display:inline;overflow:visible;enable-background:accumulate"
       d="m 863.8199,612.94134 67.5,0 67.5,0 0,6 0,55.5 0,6 -67.5,0 -67.5,0 0,-67.5 z m 19.34375,11.8125 0.125,49.5 11.6875,-0.0312 -0.0937,-49.5 -11.71875,0.0312 z m 20.53125,0.65625 0,12.40625 2.875,0 0,17.75 -2.875,0 0,12.375 2.875,0 0,3.5 3.5,0 0,2.875 12.375,0 0,-2.875 17.75,0 0,2.875 12.40625,0 0,-2.875 3.46875,0 0,-3.5 2.875,0 0,-12.375 -2.875,0 0,-17.75 2.875,0 0,-12.40625 -2.875,0 0,-3.46875 -3.46875,0 0,-2.875 -12.40625,0 0,2.875 -17.75,0 0,-2.875 -12.375,0 0,2.875 -3.5,0 0,3.46875 -2.875,0 z m 64.09375,-0.84375 0.0937,49.5 11.6875,-0.0312 -0.0937,-49.5 -11.6875,0.0312 z"
       id="rect5621-2-2-5-0-57-9-4-2-8-9-8-1-36-9"
       inkscape:connector-curvature="0" />
    <path
       style="color:#000000;fill:#414141;fill-opacity:1;fill-rule:nonzero;stroke:none;stroke-width:0;stroke-linecap:butt;stroke-linejoin:miter;stroke-miterlimit:4;stroke-opacity:1;stroke-dasharray:none;stroke-dashoffset:0;marker:none;visibility:visible;display:inline;overflow:visible;enable-background:accumulate"
       d="m 1606.3199,342.94134 0,67.5 0,67.5 6,0 55.5,0 6,0 0,-67.5 0,-67.5 -67.5,0 z m 11.8125,19.34375 49.5,0.125 -0.031,11.6875 -49.5,-0.0937 0.031,-11.71875 z m 0.6563,20.53125 12.4062,0 0,2.875 17.75,0 0,-2.875 12.375,0 0,2.875 3.5,0 0,3.5 2.875,0 0,12.375 -2.875,0 0,17.75 2.875,0 0,12.40625 -2.875,0 0,3.46875 -3.5,0 0,2.875 -12.375,0 0,-2.875 -17.75,0 0,2.875 -12.4062,0 0,-2.875 -3.4688,0 0,-3.46875 -2.875,0 0,-12.40625 2.875,0 0,-17.75 -2.875,0 0,-12.375 2.875,0 0,-3.5 3.4688,0 0,-2.875 z m -0.8438,64.09375 49.5,0.0937 -0.031,11.6875 -49.5,-0.0937 0.031,-11.6875 z"
       id="rect5621-2-2-5-0-57-9-4-2-8-9-8-16"
       inkscape:connector-curvature="0" />
    <path
       inkscape:connector-curvature="0"
       style="color:#000000;fill:#414141;fill-opacity:1;fill-rule:nonzero;stroke:none;stroke-width:0;marker:none;visibility:visible;display:inline;overflow:visible;enable-background:accumulate"
       d="m 1201.3199,283.87883 0,67.5 67.5,0 0,-67.5 -67.5,0 z m 12.4688,6.125 12.4062,0 0,2.875 17.75,0 0,-2.875 12.375,0 0,2.875 3.5,0 0,3.5 2.875,0 0,12.375 -2.875,0 0,17.75 2.875,0 0,12.40625 -2.875,0 0,3.46875 -3.5,0 0,2.875 -12.375,0 0,-2.875 -17.75,0 0,2.875 -12.4062,0 0,-2.875 -3.4688,0 0,-3.46875 -2.875,0 0,-12.40625 2.875,0 0,-17.75 -2.875,0 0,-12.375 2.875,0 0,-3.5 3.4688,0 0,-2.875 z"
       id="rect5621-2-2-5-0-57-9-4-2-8-9-79-04" />
    <path
       inkscape:connector-curvature="0"
       style="color:#000000;fill:#414141;fill-opacity:1;fill-rule:nonzero;stroke:none;stroke-width:0;marker:none;visibility:visible;display:inline;overflow:visible;enable-background:accumulate"
       d="m 1201.3199,351.37883 0,67.5 67.5,0 0,-67.5 -67.5,0 z m 12.4688,6.125 12.4062,0 0,2.875 17.75,0 0,-2.875 12.375,0 0,2.875 3.5,0 0,3.5 2.875,0 0,12.375 -2.875,0 0,17.75 2.875,0 0,12.40625 -2.875,0 0,3.46875 -3.5,0 0,2.875 -12.375,0 0,-2.875 -17.75,0 0,2.875 -12.4062,0 0,-2.875 -3.4688,0 0,-3.46875 -2.875,0 0,-12.40625 2.875,0 0,-17.75 -2.875,0 0,-12.375 2.875,0 0,-3.5 3.4688,0 0,-2.875 z"
       id="rect5621-2-2-5-0-57-9-4-2-8-9-4-8" />
    <path
       inkscape:connector-curvature="0"
       style="color:#000000;fill:#414141;fill-opacity:1;fill-rule:nonzero;stroke:none;stroke-width:0;marker:none;visibility:visible;display:inline;overflow:visible;enable-background:accumulate"
       d="m 1201.3199,418.87883 0,67.5 67.5,0 0,-67.5 -67.5,0 z m 12.4688,6.125 12.4062,0 0,2.875 17.75,0 0,-2.875 12.375,0 0,2.875 3.5,0 0,3.5 2.875,0 0,12.375 -2.875,0 0,17.75 2.875,0 0,12.40625 -2.875,0 0,3.46875 -3.5,0 0,2.875 -12.375,0 0,-2.875 -17.75,0 0,2.875 -12.4062,0 0,-2.875 -3.4688,0 0,-3.46875 -2.875,0 0,-12.40625 2.875,0 0,-17.75 -2.875,0 0,-12.375 2.875,0 0,-3.5 3.4688,0 0,-2.875 z"
       id="rect5621-2-2-5-0-57-9-4-2-8-9-5-32" />
    <path
       inkscape:connector-curvature="0"
       style="color:#000000;fill:#414141;fill-opacity:1;fill-rule:nonzero;stroke:none;stroke-width:0;stroke-linecap:butt;stroke-linejoin:miter;stroke-miterlimit:4;stroke-opacity:1;stroke-dasharray:none;stroke-dashoffset:0;marker:none;visibility:visible;display:inline;overflow:visible;enable-background:accumulate"
       d="m 1268.8199,275.44134 0,67.5 67.5,0 0,-67.5 -67.5,0 z m 12.4688,6.125 12.4062,0 0,2.875 17.75,0 0,-2.875 12.375,0 0,2.875 3.5,0 0,3.5 2.875,0 0,12.375 -2.875,0 0,17.75 2.875,0 0,12.40625 -2.875,0 0,3.46875 -3.5,0 0,2.875 -12.375,0 0,-2.875 -17.75,0 0,2.875 -12.4062,0 0,-2.875 -3.4688,0 0,-3.46875 -2.875,0 0,-12.40625 2.875,0 0,-17.75 -2.875,0 0,-12.375 2.875,0 0,-3.5 3.4688,0 0,-2.875 z"
       id="rect5621-2-2-5-0-57-9-4-2-8-9-79-7-9" />
    <path
       inkscape:connector-curvature="0"
       style="color:#000000;fill:#414141;fill-opacity:1;fill-rule:nonzero;stroke:none;stroke-width:0;stroke-linecap:butt;stroke-linejoin:miter;stroke-miterlimit:4;stroke-opacity:1;stroke-dasharray:none;stroke-dashoffset:0;marker:none;visibility:visible;display:inline;overflow:visible;enable-background:accumulate"
       d="m 1268.8199,342.94134 0,67.5 67.5,0 0,-67.5 -67.5,0 z m 12.4688,6.125 12.4062,0 0,2.875 17.75,0 0,-2.875 12.375,0 0,2.875 3.5,0 0,3.5 2.875,0 0,12.375 -2.875,0 0,17.75 2.875,0 0,12.40625 -2.875,0 0,3.46875 -3.5,0 0,2.875 -12.375,0 0,-2.875 -17.75,0 0,2.875 -12.4062,0 0,-2.875 -3.4688,0 0,-3.46875 -2.875,0 0,-12.40625 2.875,0 0,-17.75 -2.875,0 0,-12.375 2.875,0 0,-3.5 3.4688,0 0,-2.875 z"
       id="rect5621-2-2-5-0-57-9-4-2-8-9-4-2-0" />
    <path
       inkscape:connector-curvature="0"
       style="color:#000000;fill:#414141;fill-opacity:1;fill-rule:nonzero;stroke:none;stroke-width:0;stroke-linecap:butt;stroke-linejoin:miter;stroke-miterlimit:4;stroke-opacity:1;stroke-dasharray:none;stroke-dashoffset:0;marker:none;visibility:visible;display:inline;overflow:visible;enable-background:accumulate"
       d="m 1268.8199,410.44134 0,67.5 67.5,0 0,-67.5 -67.5,0 z m 12.4688,6.125 12.4062,0 0,2.875 17.75,0 0,-2.875 12.375,0 0,2.875 3.5,0 0,3.5 2.875,0 0,12.375 -2.875,0 0,17.75 2.875,0 0,12.40625 -2.875,0 0,3.46875 -3.5,0 0,2.875 -12.375,0 0,-2.875 -17.75,0 0,2.875 -12.4062,0 0,-2.875 -3.4688,0 0,-3.46875 -2.875,0 0,-12.40625 2.875,0 0,-17.75 -2.875,0 0,-12.375 2.875,0 0,-3.5 3.4688,0 0,-2.875 z"
       id="rect5621-2-2-5-0-57-9-4-2-8-9-5-2-9" />
    <path
       inkscape:connector-curvature="0"
       style="color:#000000;fill:#414141;fill-opacity:1;fill-rule:nonzero;stroke:none;stroke-width:0;marker:none;visibility:visible;display:inline;overflow:visible;enable-background:accumulate"
       d="m 1336.3199,258.56635 0,67.5 67.5,0 0,-67.5 -67.5,0 z m 12.4688,6.125 12.4062,0 0,2.875 17.75,0 0,-2.875 12.375,0 0,2.875 3.5,0 0,3.5 2.875,0 0,12.375 -2.875,0 0,17.75 2.875,0 0,12.40625 -2.875,0 0,3.46875 -3.5,0 0,2.875 -12.375,0 0,-2.875 -17.75,0 0,2.875 -12.4062,0 0,-2.875 -3.4688,0 0,-3.46875 -2.875,0 0,-12.40625 2.875,0 0,-17.75 -2.875,0 0,-12.375 2.875,0 0,-3.5 3.4688,0 0,-2.875 z"
       id="rect5621-2-2-5-0-57-9-4-2-8-9-79-74-2" />
    <path
       inkscape:connector-curvature="0"
       style="color:#000000;fill:#414141;fill-opacity:1;fill-rule:nonzero;stroke:none;stroke-width:0;marker:none;visibility:visible;display:inline;overflow:visible;enable-background:accumulate"
       d="m 1336.3199,326.06635 0,67.5 67.5,0 0,-67.5 -67.5,0 z m 12.4688,6.125 12.4062,0 0,2.875 17.75,0 0,-2.875 12.375,0 0,2.875 3.5,0 0,3.5 2.875,0 0,12.375 -2.875,0 0,17.75 2.875,0 0,12.40625 -2.875,0 0,3.46875 -3.5,0 0,2.875 -12.375,0 0,-2.875 -17.75,0 0,2.875 -12.4062,0 0,-2.875 -3.4688,0 0,-3.46875 -2.875,0 0,-12.40625 2.875,0 0,-17.75 -2.875,0 0,-12.375 2.875,0 0,-3.5 3.4688,0 0,-2.875 z"
       id="rect5621-2-2-5-0-57-9-4-2-8-9-4-9-6" />
    <path
       inkscape:connector-curvature="0"
       style="color:#000000;fill:#414141;fill-opacity:1;fill-rule:nonzero;stroke:none;stroke-width:0;marker:none;visibility:visible;display:inline;overflow:visible;enable-background:accumulate"
       d="m 1336.3199,393.56635 0,67.5 67.5,0 0,-67.5 -67.5,0 z m 12.4688,6.125 12.4062,0 0,2.875 17.75,0 0,-2.875 12.375,0 0,2.875 3.5,0 0,3.5 2.875,0 0,12.375 -2.875,0 0,17.75 2.875,0 0,12.40625 -2.875,0 0,3.46875 -3.5,0 0,2.875 -12.375,0 0,-2.875 -17.75,0 0,2.875 -12.4062,0 0,-2.875 -3.4688,0 0,-3.46875 -2.875,0 0,-12.40625 2.875,0 0,-17.75 -2.875,0 0,-12.375 2.875,0 0,-3.5 3.4688,0 0,-2.875 z"
       id="rect5621-2-2-5-0-57-9-4-2-8-9-5-3-0" />
    <path
       inkscape:connector-curvature="0"
       style="color:#000000;fill:#414141;fill-opacity:1;fill-rule:nonzero;stroke:none;stroke-width:0;marker:none;visibility:visible;display:inline;overflow:visible;enable-background:accumulate"
       d="m 1403.8199,267.00384 0,67.5 67.5,0 0,-67.5 -67.5,0 z m 12.4688,6.125 12.4062,0 0,2.875 17.75,0 0,-2.875 12.375,0 0,2.875 3.5,0 0,3.5 2.875,0 0,12.375 -2.875,0 0,17.75 2.875,0 0,12.40625 -2.875,0 0,3.46875 -3.5,0 0,2.875 -12.375,0 0,-2.875 -17.75,0 0,2.875 -12.4062,0 0,-2.875 -3.4688,0 0,-3.46875 -2.875,0 0,-12.40625 2.875,0 0,-17.75 -2.875,0 0,-12.375 2.875,0 0,-3.5 3.4688,0 0,-2.875 z"
       id="rect5621-2-2-5-0-57-9-4-2-8-9-79-2-4" />
    <path
       inkscape:connector-curvature="0"
       style="color:#000000;fill:#414141;fill-opacity:1;fill-rule:nonzero;stroke:none;stroke-width:0;marker:none;visibility:visible;display:inline;overflow:visible;enable-background:accumulate"
       d="m 1403.8199,334.50384 0,67.5 67.5,0 0,-67.5 -67.5,0 z m 12.4688,6.125 12.4062,0 0,2.875 17.75,0 0,-2.875 12.375,0 0,2.875 3.5,0 0,3.5 2.875,0 0,12.375 -2.875,0 0,17.75 2.875,0 0,12.40625 -2.875,0 0,3.46875 -3.5,0 0,2.875 -12.375,0 0,-2.875 -17.75,0 0,2.875 -12.4062,0 0,-2.875 -3.4688,0 0,-3.46875 -2.875,0 0,-12.40625 2.875,0 0,-17.75 -2.875,0 0,-12.375 2.875,0 0,-3.5 3.4688,0 0,-2.875 z"
       id="rect5621-2-2-5-0-57-9-4-2-8-9-4-0-2" />
    <path
       inkscape:connector-curvature="0"
       style="color:#000000;fill:#414141;fill-opacity:1;fill-rule:nonzero;stroke:none;stroke-width:0;marker:none;visibility:visible;display:inline;overflow:visible;enable-background:accumulate"
       d="m 1403.8199,402.00384 0,67.5 67.5,0 0,-67.5 -67.5,0 z m 12.4688,6.125 12.4062,0 0,2.875 17.75,0 0,-2.875 12.375,0 0,2.875 3.5,0 0,3.5 2.875,0 0,12.375 -2.875,0 0,17.75 2.875,0 0,12.40625 -2.875,0 0,3.46875 -3.5,0 0,2.875 -12.375,0 0,-2.875 -17.75,0 0,2.875 -12.4062,0 0,-2.875 -3.4688,0 0,-3.46875 -2.875,0 0,-12.40625 2.875,0 0,-17.75 -2.875,0 0,-12.375 2.875,0 0,-3.5 3.4688,0 0,-2.875 z"
       id="rect5621-2-2-5-0-57-9-4-2-8-9-5-5-3" />
    <path
       inkscape:connector-curvature="0"
       style="color:#000000;fill:#414141;fill-opacity:1;fill-rule:nonzero;stroke:none;stroke-width:0;marker:none;visibility:visible;display:inline;overflow:visible;enable-background:accumulate"
       d="m 1471.3199,283.87884 0,67.5 67.5,0 0,-67.5 -67.5,0 z m 12.4688,6.125 12.4062,0 0,2.875 17.75,0 0,-2.875 12.375,0 0,2.875 3.5,0 0,3.5 2.875,0 0,12.375 -2.875,0 0,17.75 2.875,0 0,12.40625 -2.875,0 0,3.46875 -3.5,0 0,2.875 -12.375,0 0,-2.875 -17.75,0 0,2.875 -12.4062,0 0,-2.875 -3.4688,0 0,-3.46875 -2.875,0 0,-12.40625 2.875,0 0,-17.75 -2.875,0 0,-12.375 2.875,0 0,-3.5 3.4688,0 0,-2.875 z"
       id="rect5621-2-2-5-0-57-9-4-2-8-9-79-7-7-55" />
    <path
       inkscape:connector-curvature="0"
       style="color:#000000;fill:#414141;fill-opacity:1;fill-rule:nonzero;stroke:none;stroke-width:0;marker:none;visibility:visible;display:inline;overflow:visible;enable-background:accumulate"
       d="m 1471.3199,351.37884 0,67.5 67.5,0 0,-67.5 -67.5,0 z m 12.4688,6.125 12.4062,0 0,2.875 17.75,0 0,-2.875 12.375,0 0,2.875 3.5,0 0,3.5 2.875,0 0,12.375 -2.875,0 0,17.75 2.875,0 0,12.40625 -2.875,0 0,3.46875 -3.5,0 0,2.875 -12.375,0 0,-2.875 -17.75,0 0,2.875 -12.4062,0 0,-2.875 -3.4688,0 0,-3.46875 -2.875,0 0,-12.40625 2.875,0 0,-17.75 -2.875,0 0,-12.375 2.875,0 0,-3.5 3.4688,0 0,-2.875 z"
       id="rect5621-2-2-5-0-57-9-4-2-8-9-4-2-1-4" />
    <path
       inkscape:connector-curvature="0"
       style="color:#000000;fill:#414141;fill-opacity:1;fill-rule:nonzero;stroke:none;stroke-width:0;marker:none;visibility:visible;display:inline;overflow:visible;enable-background:accumulate"
       d="m 1471.3199,418.87884 0,67.5 67.5,0 0,-67.5 -67.5,0 z m 12.4688,6.125 12.4062,0 0,2.875 17.75,0 0,-2.875 12.375,0 0,2.875 3.5,0 0,3.5 2.875,0 0,12.375 -2.875,0 0,17.75 2.875,0 0,12.40625 -2.875,0 0,3.46875 -3.5,0 0,2.875 -12.375,0 0,-2.875 -17.75,0 0,2.875 -12.4062,0 0,-2.875 -3.4688,0 0,-3.46875 -2.875,0 0,-12.40625 2.875,0 0,-17.75 -2.875,0 0,-12.375 2.875,0 0,-3.5 3.4688,0 0,-2.875 z"
       id="rect5621-2-2-5-0-57-9-4-2-8-9-5-2-6-5" />
    <path
       inkscape:connector-curvature="0"
       style="color:#000000;fill:#414141;fill-opacity:1;fill-rule:nonzero;stroke:none;stroke-width:0;stroke-linecap:butt;stroke-linejoin:miter;stroke-miterlimit:4;stroke-opacity:1;stroke-dasharray:none;stroke-dashoffset:0;marker:none;visibility:visible;display:inline;overflow:visible;enable-background:accumulate"
       d="m 1538.8199,275.44134 0,67.5 67.5,0 0,-67.5 -67.5,0 z m 12.4688,6.125 12.4062,0 0,2.875 17.75,0 0,-2.875 12.375,0 0,2.875 3.5,0 0,3.5 2.875,0 0,12.375 -2.875,0 0,17.75 2.875,0 0,12.40625 -2.875,0 0,3.46875 -3.5,0 0,2.875 -12.375,0 0,-2.875 -17.75,0 0,2.875 -12.4062,0 0,-2.875 -3.4688,0 0,-3.46875 -2.875,0 0,-12.40625 2.875,0 0,-17.75 -2.875,0 0,-12.375 2.875,0 0,-3.5 3.4688,0 0,-2.875 z"
       id="rect5621-2-2-5-0-57-9-4-2-8-9-79-74-4-9" />
    <path
       inkscape:connector-curvature="0"
       style="color:#000000;fill:#414141;fill-opacity:1;fill-rule:nonzero;stroke:none;stroke-width:0;stroke-linecap:butt;stroke-linejoin:miter;stroke-miterlimit:4;stroke-opacity:1;stroke-dasharray:none;stroke-dashoffset:0;marker:none;visibility:visible;display:inline;overflow:visible;enable-background:accumulate"
       d="m 1538.8199,342.94134 0,67.5 67.5,0 0,-67.5 -67.5,0 z m 12.4688,6.125 12.4062,0 0,2.875 17.75,0 0,-2.875 12.375,0 0,2.875 3.5,0 0,3.5 2.875,0 0,12.375 -2.875,0 0,17.75 2.875,0 0,12.40625 -2.875,0 0,3.46875 -3.5,0 0,2.875 -12.375,0 0,-2.875 -17.75,0 0,2.875 -12.4062,0 0,-2.875 -3.4688,0 0,-3.46875 -2.875,0 0,-12.40625 2.875,0 0,-17.75 -2.875,0 0,-12.375 2.875,0 0,-3.5 3.4688,0 0,-2.875 z"
       id="rect5621-2-2-5-0-57-9-4-2-8-9-4-9-7-6" />
    <path
       inkscape:connector-curvature="0"
       style="color:#000000;fill:#414141;fill-opacity:1;fill-rule:nonzero;stroke:none;stroke-width:0;stroke-linecap:butt;stroke-linejoin:miter;stroke-miterlimit:4;stroke-opacity:1;stroke-dasharray:none;stroke-dashoffset:0;marker:none;visibility:visible;display:inline;overflow:visible;enable-background:accumulate"
       d="m 1538.8199,410.44134 0,67.5 67.5,0 0,-67.5 -67.5,0 z m 12.4688,6.125 12.4062,0 0,2.875 17.75,0 0,-2.875 12.375,0 0,2.875 3.5,0 0,3.5 2.875,0 0,12.375 -2.875,0 0,17.75 2.875,0 0,12.40625 -2.875,0 0,3.46875 -3.5,0 0,2.875 -12.375,0 0,-2.875 -17.75,0 0,2.875 -12.4062,0 0,-2.875 -3.4688,0 0,-3.46875 -2.875,0 0,-12.40625 2.875,0 0,-17.75 -2.875,0 0,-12.375 2.875,0 0,-3.5 3.4688,0 0,-2.875 z"
       id="rect5621-2-2-5-0-57-9-4-2-8-9-5-3-3-4" />
    <path
       inkscape:connector-curvature="0"
       style="color:#000000;fill:#414141;fill-opacity:1;fill-rule:nonzero;stroke:none;stroke-width:0;stroke-linecap:butt;stroke-linejoin:miter;stroke-miterlimit:4;stroke-opacity:1;stroke-dasharray:none;stroke-dashoffset:0;marker:none;visibility:visible;display:inline;overflow:visible;enable-background:accumulate"
       d="m 1606.3199,275.44134 0,67.5 67.5,0 0,-67.5 -67.5,0 z m 12.4688,6.125 12.4062,0 0,2.875 17.75,0 0,-2.875 12.375,0 0,2.875 3.5,0 0,3.5 2.875,0 0,12.375 -2.875,0 0,17.75 2.875,0 0,12.40625 -2.875,0 0,3.46875 -3.5,0 0,2.875 -12.375,0 0,-2.875 -17.75,0 0,2.875 -12.4062,0 0,-2.875 -3.4688,0 0,-3.46875 -2.875,0 0,-12.40625 2.875,0 0,-17.75 -2.875,0 0,-12.375 2.875,0 0,-3.5 3.4688,0 0,-2.875 z"
       id="rect5621-2-2-5-0-57-9-4-2-8-9-1-7" />
    <path
       inkscape:connector-curvature="0"
       style="color:#000000;fill:#414141;fill-opacity:1;fill-rule:nonzero;stroke:none;stroke-width:0;marker:none;visibility:visible;display:inline;overflow:visible;enable-background:accumulate"
       d="m 1471.3199,486.37884 0,67.5 67.5,0 0,-67.5 -67.5,0 z m 12.4688,6.125 12.4062,0 0,2.875 17.75,0 0,-2.875 12.375,0 0,2.875 3.5,0 0,3.5 2.875,0 0,12.375 -2.875,0 0,17.75 2.875,0 0,12.40625 -2.875,0 0,3.46875 -3.5,0 0,2.875 -12.375,0 0,-2.875 -17.75,0 0,2.875 -12.4062,0 0,-2.875 -3.4688,0 0,-3.46875 -2.875,0 0,-12.40625 2.875,0 0,-17.75 -2.875,0 0,-12.375 2.875,0 0,-3.5 3.4688,0 0,-2.875 z"
       id="rect5621-2-2-5-0-57-9-4-2-8-9-18-7" />
    <path
       style="color:#000000;fill:#414141;fill-opacity:1;fill-rule:nonzero;stroke:none;stroke-width:0;marker:none;visibility:visible;display:inline;overflow:visible;enable-background:accumulate"
       d="m 1201.3199,486.37883 0,67.5 0,67.50001 6,0 55.5,0 6,0 0,-67.50001 0,-67.5 -67.5,0 z m 11.8125,19.34375 49.5,0.125 -0.031,11.6875 -49.5,-0.0937 0.031,-11.71875 z m 0.6562,20.53125 12.4063,0 0,2.875 17.75,0 0,-2.875 12.375,0 0,2.875 3.5,0 0,3.5 2.875,0 0,12.375 -2.875,0 0,17.75 2.875,0 0,12.40625 -2.875,0 0,3.46875 -3.5,0 0,2.875 -12.375,0 0,-2.875 -17.75,0 0,2.875 -12.4063,0 0,-2.875 -3.4687,0 0,-3.46875 -2.875,0 0,-12.40625 2.875,0 0,-17.75 -2.875,0 0,-12.375 2.875,0 0,-3.5 3.4687,0 0,-2.875 z m -0.8437,64.09376 49.5,0.0937 -0.031,11.6875 -49.5,-0.0937 0.031,-11.6875 z"
       id="rect5621-2-2-5-0-57-9-4-2-8-9-8-5-3"
       inkscape:connector-curvature="0" />
    <path
       style="color:#000000;fill:#414141;fill-opacity:1;fill-rule:nonzero;stroke:none;stroke-width:0;marker:none;visibility:visible;display:inline;overflow:visible;enable-background:accumulate"
       d="m 1133.8199,486.37883 0,67.5 0,67.5 6,0 55.5,0 6,0 0,-67.5 0,-67.5 -67.5,0 z m 11.8125,19.34375 49.5,0.125 -0.031,11.6875 -49.5,-0.0937 0.031,-11.71875 z m 0.6562,20.53125 12.4063,0 0,2.875 17.75,0 0,-2.875 12.375,0 0,2.875 3.5,0 0,3.5 2.875,0 0,12.375 -2.875,0 0,17.75 2.875,0 0,12.40625 -2.875,0 0,3.46875 -3.5,0 0,2.875 -12.375,0 0,-2.875 -17.75,0 0,2.875 -12.4063,0 0,-2.875 -3.4687,0 0,-3.46875 -2.875,0 0,-12.40625 2.875,0 0,-17.75 -2.875,0 0,-12.375 2.875,0 0,-3.5 3.4687,0 0,-2.875 z m -0.8437,64.09375 49.5,0.0937 -0.031,11.6875 -49.5,-0.0937 0.031,-11.6875 z"
       id="rect5621-2-2-5-0-57-9-4-2-8-9-8-8-9"
       inkscape:connector-curvature="0" />
    <path
       style="color:#000000;fill:#414141;fill-opacity:1;fill-rule:nonzero;stroke:none;stroke-width:0;stroke-linecap:butt;stroke-linejoin:miter;stroke-miterlimit:4;stroke-opacity:1;stroke-dasharray:none;stroke-dashoffset:0;marker:none;visibility:visible;display:inline;overflow:visible;enable-background:accumulate"
       d="m 1673.8199,477.94134 -67.5,0 -67.5,0 0,6 0,55.5 0,6 67.5,0 67.5,0 0,-67.5 z m -19.3437,11.8125 -0.125,49.5 -11.6875,-0.0312 0.094,-49.5 11.7188,0.0312 z m -20.5313,0.65625 0,12.40625 -2.875,0 0,17.75 2.875,0 0,12.375 -2.875,0 0,3.5 -3.5,0 0,2.875 -12.375,0 0,-2.875 -17.75,0 0,2.875 -12.4062,0 0,-2.875 -3.4688,0 0,-3.5 -2.875,0 0,-12.375 2.875,0 0,-17.75 -2.875,0 0,-12.40625 2.875,0 0,-3.46875 3.4688,0 0,-2.875 12.4062,0 0,2.875 17.75,0 0,-2.875 12.375,0 0,2.875 3.5,0 0,3.46875 2.875,0 z m -64.0937,-0.84375 -0.094,49.5 -11.6875,-0.0312 0.094,-49.5 11.6875,0.0312 z"
       id="rect5621-2-2-5-0-57-9-4-2-8-9-8-1-6"
       inkscape:connector-curvature="0" />
    <path
       style="color:#000000;fill:#414141;fill-opacity:1;fill-rule:nonzero;stroke:none;stroke-width:0;stroke-linecap:butt;stroke-linejoin:miter;stroke-miterlimit:4;stroke-opacity:1;stroke-dasharray:none;stroke-dashoffset:0;marker:none;visibility:visible;display:inline;overflow:visible;enable-background:accumulate"
       d="m 1268.8199,477.94134 0,67.5 67.5,0 33.75,0 0,-67.5 -33.75,0 -67.5,0 z m 29.3438,6.125 12.4062,0 0,2.875 17.75,0 0,-2.875 12.375,0 0,2.875 3.5,0 0,3.5 2.875,0 0,12.375 -2.875,0 0,17.75 2.875,0 0,12.40625 -2.875,0 0,3.46875 -3.5,0 0,2.875 -12.375,0 0,-2.875 -17.75,0 0,2.875 -12.4062,0 0,-2.875 -3.4688,0 0,-3.46875 -2.875,0 0,-12.40625 2.875,0 0,-17.75 -2.875,0 0,-12.375 2.875,0 0,-3.5 3.4688,0 0,-2.875 z"
       id="rect7292-1-2-3"
       inkscape:connector-curvature="0" />
    <path
       style="color:#000000;fill:#414141;fill-opacity:1;fill-rule:nonzero;stroke:none;stroke-width:0;stroke-linecap:butt;stroke-linejoin:miter;stroke-miterlimit:4;stroke-opacity:1;stroke-dasharray:none;stroke-dashoffset:0;marker:none;visibility:visible;display:inline;overflow:visible;enable-background:accumulate"
       d="m 1370.0699,477.94134 0,67.5 67.5,0 33.75,0 0,-67.5 -33.75,0 -67.5,0 z m 29.3438,6.125 12.4062,0 0,2.875 17.75,0 0,-2.875 12.375,0 0,2.875 3.5,0 0,3.5 2.875,0 0,12.375 -2.875,0 0,17.75 2.875,0 0,12.40625 -2.875,0 0,3.46875 -3.5,0 0,2.875 -12.375,0 0,-2.875 -17.75,0 0,2.875 -12.4062,0 0,-2.875 -3.4688,0 0,-3.46875 -2.875,0 0,-12.40625 2.875,0 0,-17.75 -2.875,0 0,-12.375 2.875,0 0,-3.5 3.4688,0 0,-2.875 z"
       id="rect7292-1-2-6-8"
       inkscape:connector-curvature="0" />
    <path
       style="color:#000000;fill:#414141;fill-opacity:1;fill-rule:nonzero;stroke:none;stroke-width:0;marker:none;visibility:visible;display:inline;overflow:visible;enable-background:accumulate"
       d="m 1201.3199,385.12883 -67.5,0 0,67.5 0,33.75 67.5,0 0,-33.75 0,-67.5 z m -6.125,29.34375 0,12.40625 -2.875,0 0,17.75 2.875,0 0,12.375 -2.875,0 0,3.5 -3.5,0 0,2.875 -12.375,0 0,-2.875 -17.75,0 0,2.875 -12.4062,0 0,-2.875 -3.4688,0 0,-3.5 -2.875,0 0,-12.375 2.875,0 0,-17.75 -2.875,0 0,-12.40625 2.875,0 0,-3.46875 3.4688,0 0,-2.875 12.4062,0 0,2.875 17.75,0 0,-2.875 12.375,0 0,2.875 3.5,0 0,3.46875 2.875,0 z"
       id="rect7292-1-2-0-0"
       inkscape:connector-curvature="0" />
    <path
       style="color:#000000;fill:#414141;fill-opacity:1;fill-rule:nonzero;stroke:none;stroke-width:0;marker:none;visibility:visible;display:inline;overflow:visible;enable-background:accumulate"
       d="m 1201.3199,283.87883 -67.5,0 0,67.5 0,33.75 67.5,0 0,-33.75 0,-67.5 z m -6.125,29.34375 0,12.40625 -2.875,0 0,17.75 2.875,0 0,12.375 -2.875,0 0,3.5 -3.5,0 0,2.875 -12.375,0 0,-2.875 -17.75,0 0,2.875 -12.4062,0 0,-2.875 -3.4688,0 0,-3.5 -2.875,0 0,-12.375 2.875,0 0,-17.75 -2.875,0 0,-12.40625 2.875,0 0,-3.46875 3.4688,0 0,-2.875 12.4062,0 0,2.875 17.75,0 0,-2.875 12.375,0 0,2.875 3.5,0 0,3.46875 2.875,0 z"
       id="rect7292-1-2-0-2-9"
       inkscape:connector-curvature="0" />
    <path
       style="color:#000000;fill:#414141;fill-opacity:1;fill-rule:nonzero;stroke:none;stroke-width:0;marker:none;visibility:visible;display:inline;overflow:visible;enable-background:accumulate"
       d="m 1268.8199,621.37883 -67.5,0 -67.5,0 0,6 0,55.5 0,6 67.5,0 67.5,0 0,-67.5 z m -19.3437,11.8125 -0.125,49.5 -11.6875,-0.0312 0.094,-49.5 11.7188,0.0312 z m -20.5313,0.65625 0,12.40625 -2.875,0 0,17.75 2.875,0 0,12.375 -2.875,0 0,3.5 -3.5,0 0,2.875 -12.375,0 0,-2.875 -17.75,0 0,2.875 -12.4062,0 0,-2.875 -3.4688,0 0,-3.5 -2.875,0 0,-12.375 2.875,0 0,-17.75 -2.875,0 0,-12.40625 2.875,0 0,-3.46875 3.4688,0 0,-2.875 12.4062,0 0,2.875 17.75,0 0,-2.875 12.375,0 0,2.875 3.5,0 0,3.46875 2.875,0 z m -64.0938,-0.84375 -0.094,49.5 -11.6875,-0.0312 0.094,-49.5 11.6875,0.0312 z"
       id="rect5621-2-2-5-0-57-9-4-2-8-9-8-1-36-4"
       inkscape:connector-curvature="0" />
    <rect
       style="color:#000000;fill:#414141;fill-opacity:1;fill-rule:nonzero;stroke:none;stroke-width:0;stroke-linecap:butt;stroke-linejoin:miter;stroke-miterlimit:4;stroke-opacity:1;stroke-dasharray:none;stroke-dashoffset:0;marker:none;visibility:visible;display:inline;overflow:visible;enable-background:accumulate"
       id="rect3218"
       width="135"
       height="6.125536"
       x="863.81989"
       y="680.44135" />
    <rect
       style="color:#000000;fill:#414141;fill-opacity:1;fill-rule:nonzero;stroke:none;stroke-width:0;stroke-linecap:butt;stroke-linejoin:miter;stroke-miterlimit:4;stroke-opacity:1;stroke-dasharray:none;stroke-dashoffset:0;marker:none;visibility:visible;display:inline;overflow:visible;enable-background:accumulate"
       id="rect3218-7"
       width="405"
       height="6.125536"
       x="458.81989"
       y="545.44135" />
    <rect
       style="color:#000000;fill:#414141;fill-opacity:1;fill-rule:nonzero;stroke:none;stroke-width:0;stroke-linecap:butt;stroke-linejoin:miter;stroke-miterlimit:4;stroke-opacity:1;stroke-dasharray:none;stroke-dashoffset:0;marker:none;visibility:visible;display:inline;overflow:visible;enable-background:accumulate"
       id="rect3218-6"
       width="540"
       height="6.125536"
       x="458.81985"
       y="269.3158" />
    <rect
       style="color:#000000;fill:#414141;fill-opacity:1;fill-rule:nonzero;stroke:none;stroke-width:0;stroke-linecap:butt;stroke-linejoin:miter;stroke-miterlimit:4;stroke-opacity:1;stroke-dasharray:none;stroke-dashoffset:0;marker:none;visibility:visible;display:inline;overflow:visible;enable-background:accumulate"
       id="rect3218-5"
       width="135"
       height="6.125536"
       x="-686.56689"
       y="857.69434"
       transform="matrix(0,-1,1,0,0,0)" />
    <rect
       style="color:#000000;fill:#414141;fill-opacity:1;fill-rule:nonzero;stroke:none;stroke-width:0;stroke-linecap:butt;stroke-linejoin:miter;stroke-miterlimit:4;stroke-opacity:1;stroke-dasharray:none;stroke-dashoffset:0;marker:none;visibility:visible;display:inline;overflow:visible;enable-background:accumulate"
       id="rect3218-5-7"
       width="417.2511"
       height="6.125536"
       x="-686.56689"
       y="998.81989"
       transform="matrix(0,-1,1,0,0,0)" />
    <rect
       style="color:#000000;fill:#414141;fill-opacity:1;fill-rule:nonzero;stroke:none;stroke-width:0;stroke-linecap:butt;stroke-linejoin:miter;stroke-miterlimit:4;stroke-opacity:1;stroke-dasharray:none;stroke-dashoffset:0;marker:none;visibility:visible;display:inline;overflow:visible;enable-background:accumulate"
       id="rect3218-5-2"
       width="282.2511"
       height="6.125536"
       x="-551.56689"
       y="452.69434"
       transform="matrix(0,-1,1,0,0,0)" />
    <rect
       style="color:#000000;fill:#414141;fill-opacity:1;fill-rule:nonzero;stroke:none;stroke-width:0;marker:none;visibility:visible;display:inline;overflow:visible;enable-background:accumulate"
       id="rect3218-0"
       width="135"
       height="6.125536"
       x="-1268.8199"
       y="688.87885"
       transform="scale(-1,1)" />
    <rect
       style="color:#000000;fill:#414141;fill-opacity:1;fill-rule:nonzero;stroke:none;stroke-width:0;marker:none;visibility:visible;display:inline;overflow:visible;enable-background:accumulate"
       id="rect3218-7-5"
       width="405"
       height="6.125536"
       x="-1707.8199"
       y="589.44135"
       transform="scale(-1,1)" />
    <rect
       style="color:#000000;fill:#414141;fill-opacity:1;fill-rule:nonzero;stroke:none;stroke-width:0;marker:none;visibility:visible;display:inline;overflow:visible;enable-background:accumulate"
       id="rect3218-6-2"
       width="540"
       height="6.125536"
       x="-2266.8198"
       y="257.31577"
       transform="scale(-1,1)" />
    <rect
       style="color:#000000;fill:#414141;fill-opacity:1;fill-rule:nonzero;stroke:none;stroke-width:0;marker:none;visibility:visible;display:inline;overflow:visible;enable-background:accumulate"
       id="rect3218-5-8"
       width="143.43752"
       height="6.125536"
       x="-695.00439"
       y="-1274.9456"
       transform="matrix(0,-1,-1,0,0,0)" />
    <rect
       style="color:#000000;fill:#414141;fill-opacity:1;fill-rule:nonzero;stroke:none;stroke-width:0;marker:none;visibility:visible;display:inline;overflow:visible;enable-background:accumulate"
       id="rect3218-5-7-1"
       width="417.2511"
       height="6.125536"
       x="-695.00439"
       y="-1133.8199"
       transform="matrix(0,-1,-1,0,0,0)" />
    <rect
       style="color:#000000;fill:#414141;fill-opacity:1;fill-rule:nonzero;stroke:none;stroke-width:0;stroke-linecap:butt;stroke-linejoin:miter;stroke-miterlimit:4;stroke-opacity:1;stroke-dasharray:none;stroke-dashoffset:0;marker:none;visibility:visible;display:inline;overflow:visible;enable-background:accumulate"
       id="rect3218-5-2-4"
       width="282.2511"
       height="6.125536"
       x="-551.56689"
       y="-1679.9456"
       transform="matrix(0,-1,-1,0,0,0)" />
    <path
       style="color:#000000;fill:#414141;fill-opacity:1;fill-rule:nonzero;stroke:none;stroke-width:0;marker:none;visibility:visible;display:inline;overflow:visible;enable-background:accumulate"
       d="m 1303.4688,610.90831 0,67.5 67.5,0 0,-67.5 -67.5,0 z"
       id="rect5621-2-2-5-0-57-9-4-2-8-9-5-2-9-9"
       inkscape:connector-curvature="0" />
    <path
       inkscape:connector-curvature="0"
       style="color:#000000;fill:#414141;fill-opacity:1;fill-rule:nonzero;stroke:none;stroke-width:0;marker:none;visibility:visible;display:inline;overflow:visible;enable-background:accumulate"
       d="m 1370.9688,644.65831 0,33.74999 67.5,0 0,-33.74999 -67.5,0 z"
       id="rect5621-2-2-5-0-57-9-4-2-8-9-5-2-9-9-3" />
    <path
       inkscape:connector-curvature="0"
       style="color:#000000;fill:#414141;fill-opacity:1;fill-rule:nonzero;stroke:none;stroke-width:0;marker:none;visibility:visible;display:inline;overflow:visible;enable-background:accumulate"
       d="m 1438.4688,661.5333 0,16.87499 67.5,0 0,-16.87499 -67.5,0 z"
       id="rect5621-2-2-5-0-57-9-4-2-8-9-5-2-9-9-3-7" />
    <path
       inkscape:connector-curvature="0"
       style="color:#000000;fill:#414141;fill-opacity:1;fill-rule:nonzero;stroke:none;stroke-width:0;marker:none;visibility:visible;display:inline;overflow:visible;enable-background:accumulate"
       d="m 1505.9688,669.9708 0,8.43749 67.5,0 0,-8.43749 -67.5,0 z"
       id="rect5621-2-2-5-0-57-9-4-2-8-9-5-2-9-9-3-7-7" />
    <path
       inkscape:connector-curvature="0"
       style="color:#000000;fill:#ff0000;fill-opacity:1;fill-rule:nonzero;stroke:none;stroke-width:0;marker:none;visibility:visible;display:inline;overflow:visible;enable-background:accumulate"
       d="m 1791.3199,324.56635 0,8.43749 67.5,0 0,-8.43749 -67.5,0 z"
       id="rect5621-2-2-5-0-57-9-4-2-8-9-5-2-9-9-3-7-7-3" />
    <path
       inkscape:connector-curvature="0"
       style="color:#000000;fill:#414141;fill-opacity:1;fill-rule:nonzero;stroke:none;stroke-width:0;marker:none;visibility:visible;display:inline;overflow:visible;enable-background:accumulate"
       d="m 1336.3199,461.06635 0,16.87499 67.5,0 0,-16.87499 -67.5,0 z"
       id="rect5621-2-2-5-0-57-9-4-2-8-9-5-2-9-9-3-7-74" />
    <path
       inkscape:connector-curvature="0"
       style="color:#000000;fill:#414141;fill-opacity:1;fill-rule:nonzero;stroke:none;stroke-width:0;marker:none;visibility:visible;display:inline;overflow:visible;enable-background:accumulate"
       d="m 1403.8199,469.50384 0,8.43749 67.5,0 0,-8.43749 -67.5,0 z"
       id="rect5621-2-2-5-0-57-9-4-2-8-9-5-2-9-9-3-7-7-4" />
  </g>
</svg>
