  0
SECTION
  2
HEADER
  9
$ACADVER
  1
AC1014
  9
$HANDSEED
  5
FFFF
  9
$MEASUREMENT
 70
     1
  0
ENDSEC
  0
SECTION
  2
TABLES
  0
TABLE
  2
VPORT
  5
8
330
0
100
AcDbSymbolTable
 70
     4
  0
VPORT
  5
2E
330
8
100
AcDbSymbolTableRecord
100
AcDbViewportTableRecord
  2
*ACTIVE
 70
     0
 10
0.0
 20
0.0
 11
1.0
 21
1.0
 12
210.0
 22
148.5
 13
0.0
 23
0.0
 14
10.0
 24
10.0
 15
10.0
 25
10.0
 16
0.0
 26
0.0
 36
1.0
 17
0.0
 27
0.0
 37
0.0
 40
341.0
 41
1.24
 42
50.0
 43
0.0
 44
0.0
 50
0.0
 51
0.0
 71
     0
 72
   100
 73
     1
 74
     3
 75
     0
 76
     0
 77
     0
 78
     0
  0
ENDTAB
  0
TABLE
  2
LTYPE
  5
5
330
0
100
AcDbSymbolTable
 70
     1
  0
LTYPE
  5
14
330
5
100
AcDbSymbolTableRecord
100
AcDbLinetypeTableRecord
  2
BYBLOCK
 70
     0
  3

 72
    65
 73
     0
 40
0.0
  0
LTYPE
  5
15
330
5
100
AcDbSymbolTableRecord
100
AcDbLinetypeTableRecord
  2
BYLAYER
 70
     0
  3

 72
    65
 73
     0
 40
0.0
  0
LTYPE
  5
16
330
5
100
AcDbSymbolTableRecord
100
AcDbLinetypeTableRecord
  2
CONTINUOUS
 70
     0
  3
Solid line
 72
    65
 73
     0
 40
0.0
  0
ENDTAB
  0
TABLE
  2
LAYER
  5
2
100
AcDbSymbolTable
 70
2
  0
LAYER
  5
50
100
AcDbSymbolTableRecord
100
AcDbLayerTableRecord
  2
0
 70
0
  6
CONTINUOUS
  0
LAYER
  5
51
100
AcDbSymbolTableRecord
100
AcDbLayerTableRecord
  2
Layer_1
 70
0
  6
CONTINUOUS
  0
ENDTAB
  0
TABLE
  2
STYLE
  5
3
330
0
100
AcDbSymbolTable
 70
     1
  0
STYLE
  5
11
330
3
100
AcDbSymbolTableRecord
100
AcDbTextStyleTableRecord
  2
STANDARD
 70
     0
 40
0.0
 41
1.0
 50
0.0
 71
     0
 42
2.5
  3
txt
  4

  0
ENDTAB
  0
TABLE
  2
VIEW
  5
6
330
0
100
AcDbSymbolTable
 70
     0
  0
ENDTAB
  0
TABLE
  2
UCS
  5
7
330
0
100
AcDbSymbolTable
 70
     0
  0
ENDTAB
  0
TABLE
  2
APPID
  5
9
330
0
100
AcDbSymbolTable
 70
     2
  0
APPID
  5
12
330
9
100
AcDbSymbolTableRecord
100
AcDbRegAppTableRecord
  2
ACAD
 70
     0
  0
ENDTAB
  0
TABLE
  2
DIMSTYLE
  5
A
330
0
100
AcDbSymbolTable
 70
     1
  0
DIMSTYLE
105
27
330
A
100
AcDbSymbolTableRecord
100
AcDbDimStyleTableRecord
  2
ISO-25
 70
     0
  3

  4

  5

  6

  7

 40
1.0
 41
2.5
 42
0.625
 43
3.75
 44
1.25
 45
0.0
 46
0.0
 47
0.0
 48
0.0
140
2.5
141
2.5
142
0.0
143
0.03937007874016
144
1.0
145
0.0
146
1.0
147
0.625
 71
     0
 72
     0
 73
     0
 74
     0
 75
     0
 76
     0
 77
     1
 78
     8
170
     0
171
     3
172
     1
173
     0
174
     0
175
     0
176
     0
177
     0
178
     0
270
     2
271
     2
272
     2
273
     2
274
     3
340
11
275
     0
280
     0
281
     0
282
     0
283
     0
284
     8
285
     0
286
     0
287
     3
288
     0
  0
ENDTAB
  0
TABLE
  2
BLOCK_RECORD
  5
1
330
0
100
AcDbSymbolTable
 70
     1
  0
BLOCK_RECORD
  5
1F
330
1
100
AcDbSymbolTableRecord
100
AcDbBlockTableRecord
  2
*MODEL_SPACE
  0
BLOCK_RECORD
  5
1B
330
1
100
AcDbSymbolTableRecord
100
AcDbBlockTableRecord
  2
*PAPER_SPACE
  0
ENDTAB
  0
ENDSEC
  0
SECTION
  2
BLOCKS
  0
BLOCK
  5
20
330
1F
100
AcDbEntity
  8
0
100
AcDbBlockBegin
  2
*MODEL_SPACE
 70
     0
 10
0.0
 20
0.0
 30
0.0
  3
*MODEL_SPACE
  1

  0
ENDBLK
  5
21
330
1F
100
AcDbEntity
  8
0
100
AcDbBlockEnd
  0
BLOCK
  5
1C
330
1B
100
AcDbEntity
 67
     1
  8
0
100
AcDbBlockBegin
  2
*PAPER_SPACE
  1

  0
ENDBLK
  5
1D
330
1B
100
AcDbEntity
 67
     1
  8
0
100
AcDbBlockEnd
  0
ENDSEC
  0
SECTION
  2
ENTITIES
  0
LWPOLYLINE
  5
100
100
AcDbEntity
  8
Layer_1
 62
7
100
AcDbPolyline
 90
6
 70
0
 10
360.458512
 20
180.869104
 30
0.0
 10
360.458512
 20
161.819090
 30
0.0
 10
379.508512
 20
161.819090
 30
0.0
 10
379.508512
 20
180.869104
 30
0.0
 10
360.458512
 20
180.869104
 30
0.0
 10
360.458512
 20
180.869104
 30
0.0
  0
LWPOLYLINE
  5
101
100
AcDbEntity
  8
Layer_1
 62
7
100
AcDbPolyline
 90
38
 70
0
 10
363.977484
 20
179.140479
 30
0.0
 10
367.478790
 20
179.140479
 30
0.0
 10
367.478790
 20
178.329090
 30
0.0
 10
372.488234
 20
178.329090
 30
0.0
 10
372.488234
 20
179.140479
 30
0.0
 10
375.980734
 20
179.140479
 30
0.0
 10
375.980734
 20
178.329090
 30
0.0
 10
376.968512
 20
178.329090
 30
0.0
 10
376.968512
 20
177.341312
 30
0.0
 10
377.779901
 20
177.341312
 30
0.0
 10
377.779901
 20
173.848812
 30
0.0
 10
376.968512
 20
173.848812
 30
0.0
 10
376.968512
 20
168.839368
 30
0.0
 10
377.779901
 20
168.839368
 30
0.0
 10
377.779901
 20
165.338062
 30
0.0
 10
376.968512
 20
165.338062
 30
0.0
 10
376.968512
 20
164.359090
 30
0.0
 10
375.980734
 20
164.359090
 30
0.0
 10
375.980734
 20
163.547701
 30
0.0
 10
372.488234
 20
163.547701
 30
0.0
 10
372.488234
 20
164.359090
 30
0.0
 10
367.478790
 20
164.359090
 30
0.0
 10
367.478790
 20
163.547701
 30
0.0
 10
363.977484
 20
163.547701
 30
0.0
 10
363.977484
 20
164.359090
 30
0.0
 10
362.998512
 20
164.359090
 30
0.0
 10
362.998512
 20
165.338062
 30
0.0
 10
362.187123
 20
165.338062
 30
0.0
 10
362.187123
 20
168.839368
 30
0.0
 10
362.998512
 20
168.839368
 30
0.0
 10
362.998512
 20
173.848812
 30
0.0
 10
362.187123
 20
173.848812
 30
0.0
 10
362.187123
 20
177.341312
 30
0.0
 10
362.998512
 20
177.341312
 30
0.0
 10
362.998512
 20
178.329090
 30
0.0
 10
363.977484
 20
178.329090
 30
0.0
 10
363.977484
 20
179.140479
 30
0.0
 10
363.977484
 20
179.140479
 30
0.0
  0
LWPOLYLINE
  5
102
100
AcDbEntity
  8
Layer_1
 62
7
100
AcDbPolyline
 90
6
 70
0
 10
360.458512
 20
218.969104
 30
0.0
 10
360.458512
 20
199.919104
 30
0.0
 10
379.508512
 20
199.919104
 30
0.0
 10
379.508512
 20
218.969104
 30
0.0
 10
360.458512
 20
218.969104
 30
0.0
 10
360.458512
 20
218.969104
 30
0.0
  0
LWPOLYLINE
  5
103
100
AcDbEntity
  8
Layer_1
 62
7
100
AcDbPolyline
 90
38
 70
0
 10
363.977484
 20
217.240493
 30
0.0
 10
367.478790
 20
217.240493
 30
0.0
 10
367.478790
 20
216.429104
 30
0.0
 10
372.488234
 20
216.429104
 30
0.0
 10
372.488234
 20
217.240493
 30
0.0
 10
375.980734
 20
217.240493
 30
0.0
 10
375.980734
 20
216.429104
 30
0.0
 10
376.968512
 20
216.429104
 30
0.0
 10
376.968512
 20
215.441326
 30
0.0
 10
377.779901
 20
215.441326
 30
0.0
 10
377.779901
 20
211.948826
 30
0.0
 10
376.968512
 20
211.948826
 30
0.0
 10
376.968512
 20
206.939382
 30
0.0
 10
377.779901
 20
206.939382
 30
0.0
 10
377.779901
 20
203.438062
 30
0.0
 10
376.968512
 20
203.438062
 30
0.0
 10
376.968512
 20
202.459104
 30
0.0
 10
375.980734
 20
202.459104
 30
0.0
 10
375.980734
 20
201.647715
 30
0.0
 10
372.488234
 20
201.647715
 30
0.0
 10
372.488234
 20
202.459104
 30
0.0
 10
367.478790
 20
202.459104
 30
0.0
 10
367.478790
 20
201.647715
 30
0.0
 10
363.977484
 20
201.647715
 30
0.0
 10
363.977484
 20
202.459104
 30
0.0
 10
362.998512
 20
202.459104
 30
0.0
 10
362.998512
 20
203.438062
 30
0.0
 10
362.187123
 20
203.438062
 30
0.0
 10
362.187123
 20
206.939382
 30
0.0
 10
362.998512
 20
206.939382
 30
0.0
 10
362.998512
 20
211.948826
 30
0.0
 10
362.187123
 20
211.948826
 30
0.0
 10
362.187123
 20
215.441326
 30
0.0
 10
362.998512
 20
215.441326
 30
0.0
 10
362.998512
 20
216.429104
 30
0.0
 10
363.977484
 20
216.429104
 30
0.0
 10
363.977484
 20
217.240493
 30
0.0
 10
363.977484
 20
217.240493
 30
0.0
  0
LWPOLYLINE
  5
104
100
AcDbEntity
  8
Layer_1
 62
7
100
AcDbPolyline
 90
6
 70
0
 10
360.458512
 20
199.919104
 30
0.0
 10
360.458512
 20
180.869107
 30
0.0
 10
379.508512
 20
180.869107
 30
0.0
 10
379.508512
 20
199.919107
 30
0.0
 10
360.458512
 20
199.919107
 30
0.0
 10
360.458512
 20
199.919104
 30
0.0
  0
LWPOLYLINE
  5
105
100
AcDbEntity
  8
Layer_1
 62
7
100
AcDbPolyline
 90
38
 70
0
 10
363.977484
 20
198.190493
 30
0.0
 10
367.478790
 20
198.190493
 30
0.0
 10
367.478790
 20
197.379104
 30
0.0
 10
372.488234
 20
197.379104
 30
0.0
 10
372.488234
 20
198.190493
 30
0.0
 10
375.980734
 20
198.190493
 30
0.0
 10
375.980734
 20
197.379104
 30
0.0
 10
376.968512
 20
197.379104
 30
0.0
 10
376.968512
 20
196.391326
 30
0.0
 10
377.779901
 20
196.391326
 30
0.0
 10
377.779901
 20
192.898826
 30
0.0
 10
376.968512
 20
192.898826
 30
0.0
 10
376.968512
 20
187.889385
 30
0.0
 10
377.779901
 20
187.889385
 30
0.0
 10
377.779901
 20
184.388065
 30
0.0
 10
376.968512
 20
184.388065
 30
0.0
 10
376.968512
 20
183.409107
 30
0.0
 10
375.980734
 20
183.409107
 30
0.0
 10
375.980734
 20
182.597718
 30
0.0
 10
372.488234
 20
182.597718
 30
0.0
 10
372.488234
 20
183.409107
 30
0.0
 10
367.478790
 20
183.409107
 30
0.0
 10
367.478790
 20
182.597718
 30
0.0
 10
363.977484
 20
182.597718
 30
0.0
 10
363.977484
 20
183.409107
 30
0.0
 10
362.998512
 20
183.409107
 30
0.0
 10
362.998512
 20
184.388065
 30
0.0
 10
362.187123
 20
184.388065
 30
0.0
 10
362.187123
 20
187.889385
 30
0.0
 10
362.998512
 20
187.889385
 30
0.0
 10
362.998512
 20
192.898829
 30
0.0
 10
362.187123
 20
192.898829
 30
0.0
 10
362.187123
 20
196.391329
 30
0.0
 10
362.998512
 20
196.391329
 30
0.0
 10
362.998512
 20
197.379107
 30
0.0
 10
363.977484
 20
197.379107
 30
0.0
 10
363.977484
 20
198.190496
 30
0.0
 10
363.977484
 20
198.190493
 30
0.0
  0
LWPOLYLINE
  5
106
100
AcDbEntity
  8
Layer_1
 62
7
100
AcDbPolyline
 90
6
 70
0
 10
379.508512
 20
221.350351
 30
0.0
 10
379.508512
 20
202.300351
 30
0.0
 10
398.558512
 20
202.300351
 30
0.0
 10
398.558512
 20
221.350351
 30
0.0
 10
379.508512
 20
221.350351
 30
0.0
 10
379.508512
 20
221.350351
 30
0.0
  0
LWPOLYLINE
  5
107
100
AcDbEntity
  8
Layer_1
 62
7
100
AcDbPolyline
 90
38
 70
0
 10
383.027484
 20
219.621740
 30
0.0
 10
386.528790
 20
219.621740
 30
0.0
 10
386.528790
 20
218.810351
 30
0.0
 10
391.538234
 20
218.810351
 30
0.0
 10
391.538234
 20
219.621740
 30
0.0
 10
395.030734
 20
219.621740
 30
0.0
 10
395.030734
 20
218.810351
 30
0.0
 10
396.018512
 20
218.810351
 30
0.0
 10
396.018512
 20
217.822573
 30
0.0
 10
396.829901
 20
217.822573
 30
0.0
 10
396.829901
 20
214.330073
 30
0.0
 10
396.018512
 20
214.330073
 30
0.0
 10
396.018512
 20
209.320629
 30
0.0
 10
396.829901
 20
209.320629
 30
0.0
 10
396.829901
 20
205.819310
 30
0.0
 10
396.018512
 20
205.819310
 30
0.0
 10
396.018512
 20
204.840351
 30
0.0
 10
395.030734
 20
204.840351
 30
0.0
 10
395.030734
 20
204.028962
 30
0.0
 10
391.538234
 20
204.028962
 30
0.0
 10
391.538234
 20
204.840351
 30
0.0
 10
386.528790
 20
204.840351
 30
0.0
 10
386.528790
 20
204.028962
 30
0.0
 10
383.027484
 20
204.028962
 30
0.0
 10
383.027484
 20
204.840351
 30
0.0
 10
382.048512
 20
204.840351
 30
0.0
 10
382.048512
 20
205.819310
 30
0.0
 10
381.237123
 20
205.819310
 30
0.0
 10
381.237123
 20
209.320629
 30
0.0
 10
382.048512
 20
209.320629
 30
0.0
 10
382.048512
 20
214.330073
 30
0.0
 10
381.237123
 20
214.330073
 30
0.0
 10
381.237123
 20
217.822573
 30
0.0
 10
382.048512
 20
217.822573
 30
0.0
 10
382.048512
 20
218.810351
 30
0.0
 10
383.027484
 20
218.810351
 30
0.0
 10
383.027484
 20
219.621740
 30
0.0
 10
383.027484
 20
219.621740
 30
0.0
  0
LWPOLYLINE
  5
108
100
AcDbEntity
  8
Layer_1
 62
7
100
AcDbPolyline
 90
6
 70
0
 10
379.508512
 20
202.300351
 30
0.0
 10
379.508512
 20
183.250351
 30
0.0
 10
398.558512
 20
183.250351
 30
0.0
 10
398.558512
 20
202.300351
 30
0.0
 10
379.508512
 20
202.300351
 30
0.0
 10
379.508512
 20
202.300351
 30
0.0
  0
LWPOLYLINE
  5
109
100
AcDbEntity
  8
Layer_1
 62
7
100
AcDbPolyline
 90
38
 70
0
 10
383.027484
 20
200.571740
 30
0.0
 10
386.528790
 20
200.571740
 30
0.0
 10
386.528790
 20
199.760351
 30
0.0
 10
391.538234
 20
199.760351
 30
0.0
 10
391.538234
 20
200.571740
 30
0.0
 10
395.030734
 20
200.571740
 30
0.0
 10
395.030734
 20
199.760351
 30
0.0
 10
396.018512
 20
199.760351
 30
0.0
 10
396.018512
 20
198.772573
 30
0.0
 10
396.829901
 20
198.772573
 30
0.0
 10
396.829901
 20
195.280073
 30
0.0
 10
396.018512
 20
195.280073
 30
0.0
 10
396.018512
 20
190.270629
 30
0.0
 10
396.829901
 20
190.270629
 30
0.0
 10
396.829901
 20
186.769310
 30
0.0
 10
396.018512
 20
186.769310
 30
0.0
 10
396.018512
 20
185.790351
 30
0.0
 10
395.030734
 20
185.790351
 30
0.0
 10
395.030734
 20
184.978962
 30
0.0
 10
391.538234
 20
184.978962
 30
0.0
 10
391.538234
 20
185.790351
 30
0.0
 10
386.528790
 20
185.790351
 30
0.0
 10
386.528790
 20
184.978962
 30
0.0
 10
383.027484
 20
184.978962
 30
0.0
 10
383.027484
 20
185.790351
 30
0.0
 10
382.048512
 20
185.790351
 30
0.0
 10
382.048512
 20
186.769310
 30
0.0
 10
381.237123
 20
186.769310
 30
0.0
 10
381.237123
 20
190.270629
 30
0.0
 10
382.048512
 20
190.270629
 30
0.0
 10
382.048512
 20
195.280073
 30
0.0
 10
381.237123
 20
195.280073
 30
0.0
 10
381.237123
 20
198.772573
 30
0.0
 10
382.048512
 20
198.772573
 30
0.0
 10
382.048512
 20
199.760351
 30
0.0
 10
383.027484
 20
199.760351
 30
0.0
 10
383.027484
 20
200.571740
 30
0.0
 10
383.027484
 20
200.571740
 30
0.0
  0
LWPOLYLINE
  5
10a
100
AcDbEntity
  8
Layer_1
 62
7
100
AcDbPolyline
 90
6
 70
0
 10
379.508512
 20
183.250351
 30
0.0
 10
379.508512
 20
164.200340
 30
0.0
 10
398.558512
 20
164.200340
 30
0.0
 10
398.558512
 20
183.250351
 30
0.0
 10
379.508512
 20
183.250351
 30
0.0
 10
379.508512
 20
183.250351
 30
0.0
  0
LWPOLYLINE
  5
10b
100
AcDbEntity
  8
Layer_1
 62
7
100
AcDbPolyline
 90
38
 70
0
 10
383.027484
 20
181.521740
 30
0.0
 10
386.528790
 20
181.521740
 30
0.0
 10
386.528790
 20
180.710351
 30
0.0
 10
391.538234
 20
180.710351
 30
0.0
 10
391.538234
 20
181.521740
 30
0.0
 10
395.030734
 20
181.521740
 30
0.0
 10
395.030734
 20
180.710351
 30
0.0
 10
396.018512
 20
180.710351
 30
0.0
 10
396.018512
 20
179.722562
 30
0.0
 10
396.829901
 20
179.722562
 30
0.0
 10
396.829901
 20
176.230062
 30
0.0
 10
396.018512
 20
176.230062
 30
0.0
 10
396.018512
 20
171.220618
 30
0.0
 10
396.829901
 20
171.220618
 30
0.0
 10
396.829901
 20
167.719312
 30
0.0
 10
396.018512
 20
167.719312
 30
0.0
 10
396.018512
 20
166.740340
 30
0.0
 10
395.030734
 20
166.740340
 30
0.0
 10
395.030734
 20
165.928951
 30
0.0
 10
391.538234
 20
165.928951
 30
0.0
 10
391.538234
 20
166.740340
 30
0.0
 10
386.528790
 20
166.740340
 30
0.0
 10
386.528790
 20
165.928951
 30
0.0
 10
383.027484
 20
165.928951
 30
0.0
 10
383.027484
 20
166.740340
 30
0.0
 10
382.048512
 20
166.740340
 30
0.0
 10
382.048512
 20
167.719312
 30
0.0
 10
381.237123
 20
167.719312
 30
0.0
 10
381.237123
 20
171.220618
 30
0.0
 10
382.048512
 20
171.220618
 30
0.0
 10
382.048512
 20
176.230062
 30
0.0
 10
381.237123
 20
176.230062
 30
0.0
 10
381.237123
 20
179.722562
 30
0.0
 10
382.048512
 20
179.722562
 30
0.0
 10
382.048512
 20
180.710351
 30
0.0
 10
383.027484
 20
180.710351
 30
0.0
 10
383.027484
 20
181.521740
 30
0.0
 10
383.027484
 20
181.521740
 30
0.0
  0
LWPOLYLINE
  5
10c
100
AcDbEntity
  8
Layer_1
 62
7
100
AcDbPolyline
 90
6
 70
0
 10
398.558512
 20
226.112848
 30
0.0
 10
398.558512
 20
207.062848
 30
0.0
 10
417.608512
 20
207.062848
 30
0.0
 10
417.608512
 20
226.112848
 30
0.0
 10
398.558512
 20
226.112848
 30
0.0
 10
398.558512
 20
226.112848
 30
0.0
  0
LWPOLYLINE
  5
10d
100
AcDbEntity
  8
Layer_1
 62
7
100
AcDbPolyline
 90
38
 70
0
 10
402.077484
 20
224.384237
 30
0.0
 10
405.578790
 20
224.384237
 30
0.0
 10
405.578790
 20
223.572848
 30
0.0
 10
410.588234
 20
223.572848
 30
0.0
 10
410.588234
 20
224.384237
 30
0.0
 10
414.080734
 20
224.384237
 30
0.0
 10
414.080734
 20
223.572848
 30
0.0
 10
415.068512
 20
223.572848
 30
0.0
 10
415.068512
 20
222.585071
 30
0.0
 10
415.879901
 20
222.585071
 30
0.0
 10
415.879901
 20
219.092571
 30
0.0
 10
415.068512
 20
219.092571
 30
0.0
 10
415.068512
 20
214.083126
 30
0.0
 10
415.879901
 20
214.083126
 30
0.0
 10
415.879901
 20
210.581807
 30
0.0
 10
415.068512
 20
210.581807
 30
0.0
 10
415.068512
 20
209.602848
 30
0.0
 10
414.080734
 20
209.602848
 30
0.0
 10
414.080734
 20
208.791459
 30
0.0
 10
410.588234
 20
208.791459
 30
0.0
 10
410.588234
 20
209.602848
 30
0.0
 10
405.578790
 20
209.602848
 30
0.0
 10
405.578790
 20
208.791459
 30
0.0
 10
402.077484
 20
208.791459
 30
0.0
 10
402.077484
 20
209.602848
 30
0.0
 10
401.098512
 20
209.602848
 30
0.0
 10
401.098512
 20
210.581807
 30
0.0
 10
400.287123
 20
210.581807
 30
0.0
 10
400.287123
 20
214.083126
 30
0.0
 10
401.098512
 20
214.083126
 30
0.0
 10
401.098512
 20
219.092571
 30
0.0
 10
400.287123
 20
219.092571
 30
0.0
 10
400.287123
 20
222.585071
 30
0.0
 10
401.098512
 20
222.585071
 30
0.0
 10
401.098512
 20
223.572848
 30
0.0
 10
402.077484
 20
223.572848
 30
0.0
 10
402.077484
 20
224.384237
 30
0.0
 10
402.077484
 20
224.384237
 30
0.0
  0
LWPOLYLINE
  5
10e
100
AcDbEntity
  8
Layer_1
 62
7
100
AcDbPolyline
 90
6
 70
0
 10
398.558512
 20
207.062848
 30
0.0
 10
398.558512
 20
188.012848
 30
0.0
 10
417.608512
 20
188.012848
 30
0.0
 10
417.608512
 20
207.062848
 30
0.0
 10
398.558512
 20
207.062848
 30
0.0
 10
398.558512
 20
207.062848
 30
0.0
  0
LWPOLYLINE
  5
10f
100
AcDbEntity
  8
Layer_1
 62
7
100
AcDbPolyline
 90
38
 70
0
 10
402.077484
 20
205.334237
 30
0.0
 10
405.578790
 20
205.334237
 30
0.0
 10
405.578790
 20
204.522848
 30
0.0
 10
410.588234
 20
204.522848
 30
0.0
 10
410.588234
 20
205.334237
 30
0.0
 10
414.080734
 20
205.334237
 30
0.0
 10
414.080734
 20
204.522848
 30
0.0
 10
415.068512
 20
204.522848
 30
0.0
 10
415.068512
 20
203.535071
 30
0.0
 10
415.879901
 20
203.535071
 30
0.0
 10
415.879901
 20
200.042571
 30
0.0
 10
415.068512
 20
200.042571
 30
0.0
 10
415.068512
 20
195.033126
 30
0.0
 10
415.879901
 20
195.033126
 30
0.0
 10
415.879901
 20
191.531807
 30
0.0
 10
415.068512
 20
191.531807
 30
0.0
 10
415.068512
 20
190.552848
 30
0.0
 10
414.080734
 20
190.552848
 30
0.0
 10
414.080734
 20
189.741459
 30
0.0
 10
410.588234
 20
189.741459
 30
0.0
 10
410.588234
 20
190.552848
 30
0.0
 10
405.578790
 20
190.552848
 30
0.0
 10
405.578790
 20
189.741459
 30
0.0
 10
402.077484
 20
189.741459
 30
0.0
 10
402.077484
 20
190.552848
 30
0.0
 10
401.098512
 20
190.552848
 30
0.0
 10
401.098512
 20
191.531807
 30
0.0
 10
400.287123
 20
191.531807
 30
0.0
 10
400.287123
 20
195.033126
 30
0.0
 10
401.098512
 20
195.033126
 30
0.0
 10
401.098512
 20
200.042571
 30
0.0
 10
400.287123
 20
200.042571
 30
0.0
 10
400.287123
 20
203.535071
 30
0.0
 10
401.098512
 20
203.535071
 30
0.0
 10
401.098512
 20
204.522848
 30
0.0
 10
402.077484
 20
204.522848
 30
0.0
 10
402.077484
 20
205.334237
 30
0.0
 10
402.077484
 20
205.334237
 30
0.0
  0
LWPOLYLINE
  5
110
100
AcDbEntity
  8
Layer_1
 62
7
100
AcDbPolyline
 90
6
 70
0
 10
398.558512
 20
188.012848
 30
0.0
 10
398.558512
 20
168.962840
 30
0.0
 10
417.608512
 20
168.962840
 30
0.0
 10
417.608512
 20
188.012848
 30
0.0
 10
398.558512
 20
188.012848
 30
0.0
 10
398.558512
 20
188.012848
 30
0.0
  0
LWPOLYLINE
  5
111
100
AcDbEntity
  8
Layer_1
 62
7
100
AcDbPolyline
 90
38
 70
0
 10
402.077484
 20
186.284237
 30
0.0
 10
405.578790
 20
186.284237
 30
0.0
 10
405.578790
 20
185.472848
 30
0.0
 10
410.588234
 20
185.472848
 30
0.0
 10
410.588234
 20
186.284237
 30
0.0
 10
414.080734
 20
186.284237
 30
0.0
 10
414.080734
 20
185.472848
 30
0.0
 10
415.068512
 20
185.472848
 30
0.0
 10
415.068512
 20
184.485071
 30
0.0
 10
415.879901
 20
184.485071
 30
0.0
 10
415.879901
 20
180.992571
 30
0.0
 10
415.068512
 20
180.992571
 30
0.0
 10
415.068512
 20
175.983118
 30
0.0
 10
415.879901
 20
175.983118
 30
0.0
 10
415.879901
 20
172.481812
 30
0.0
 10
415.068512
 20
172.481812
 30
0.0
 10
415.068512
 20
171.502840
 30
0.0
 10
414.080734
 20
171.502840
 30
0.0
 10
414.080734
 20
170.691451
 30
0.0
 10
410.588234
 20
170.691451
 30
0.0
 10
410.588234
 20
171.502840
 30
0.0
 10
405.578790
 20
171.502840
 30
0.0
 10
405.578790
 20
170.691451
 30
0.0
 10
402.077484
 20
170.691451
 30
0.0
 10
402.077484
 20
171.502840
 30
0.0
 10
401.098512
 20
171.502840
 30
0.0
 10
401.098512
 20
172.481812
 30
0.0
 10
400.287123
 20
172.481812
 30
0.0
 10
400.287123
 20
175.983118
 30
0.0
 10
401.098512
 20
175.983118
 30
0.0
 10
401.098512
 20
180.992571
 30
0.0
 10
400.287123
 20
180.992571
 30
0.0
 10
400.287123
 20
184.485071
 30
0.0
 10
401.098512
 20
184.485071
 30
0.0
 10
401.098512
 20
185.472848
 30
0.0
 10
402.077484
 20
185.472848
 30
0.0
 10
402.077484
 20
186.284237
 30
0.0
 10
402.077484
 20
186.284237
 30
0.0
  0
LWPOLYLINE
  5
112
100
AcDbEntity
  8
Layer_1
 62
7
100
AcDbPolyline
 90
6
 70
0
 10
417.608512
 20
223.731601
 30
0.0
 10
417.608512
 20
204.681601
 30
0.0
 10
436.658512
 20
204.681601
 30
0.0
 10
436.658512
 20
223.731601
 30
0.0
 10
417.608512
 20
223.731601
 30
0.0
 10
417.608512
 20
223.731601
 30
0.0
  0
LWPOLYLINE
  5
113
100
AcDbEntity
  8
Layer_1
 62
7
100
AcDbPolyline
 90
38
 70
0
 10
421.127484
 20
222.002990
 30
0.0
 10
424.628790
 20
222.002990
 30
0.0
 10
424.628790
 20
221.191601
 30
0.0
 10
429.638234
 20
221.191601
 30
0.0
 10
429.638234
 20
222.002990
 30
0.0
 10
433.130734
 20
222.002990
 30
0.0
 10
433.130734
 20
221.191601
 30
0.0
 10
434.118512
 20
221.191601
 30
0.0
 10
434.118512
 20
220.203823
 30
0.0
 10
434.929901
 20
220.203823
 30
0.0
 10
434.929901
 20
216.711323
 30
0.0
 10
434.118512
 20
216.711323
 30
0.0
 10
434.118512
 20
211.701879
 30
0.0
 10
434.929901
 20
211.701879
 30
0.0
 10
434.929901
 20
208.200560
 30
0.0
 10
434.118512
 20
208.200560
 30
0.0
 10
434.118512
 20
207.221601
 30
0.0
 10
433.130734
 20
207.221601
 30
0.0
 10
433.130734
 20
206.410212
 30
0.0
 10
429.638234
 20
206.410212
 30
0.0
 10
429.638234
 20
207.221601
 30
0.0
 10
424.628790
 20
207.221601
 30
0.0
 10
424.628790
 20
206.410212
 30
0.0
 10
421.127484
 20
206.410212
 30
0.0
 10
421.127484
 20
207.221601
 30
0.0
 10
420.148512
 20
207.221601
 30
0.0
 10
420.148512
 20
208.200560
 30
0.0
 10
419.337123
 20
208.200560
 30
0.0
 10
419.337123
 20
211.701879
 30
0.0
 10
420.148512
 20
211.701879
 30
0.0
 10
420.148512
 20
216.711323
 30
0.0
 10
419.337123
 20
216.711323
 30
0.0
 10
419.337123
 20
220.203823
 30
0.0
 10
420.148512
 20
220.203823
 30
0.0
 10
420.148512
 20
221.191601
 30
0.0
 10
421.127484
 20
221.191601
 30
0.0
 10
421.127484
 20
222.002990
 30
0.0
 10
421.127484
 20
222.002990
 30
0.0
  0
LWPOLYLINE
  5
114
100
AcDbEntity
  8
Layer_1
 62
7
100
AcDbPolyline
 90
6
 70
0
 10
417.608512
 20
204.681601
 30
0.0
 10
417.608512
 20
185.631601
 30
0.0
 10
436.658512
 20
185.631601
 30
0.0
 10
436.658512
 20
204.681601
 30
0.0
 10
417.608512
 20
204.681601
 30
0.0
 10
417.608512
 20
204.681601
 30
0.0
  0
LWPOLYLINE
  5
115
100
AcDbEntity
  8
Layer_1
 62
7
100
AcDbPolyline
 90
38
 70
0
 10
421.127484
 20
202.952990
 30
0.0
 10
424.628790
 20
202.952990
 30
0.0
 10
424.628790
 20
202.141601
 30
0.0
 10
429.638234
 20
202.141601
 30
0.0
 10
429.638234
 20
202.952990
 30
0.0
 10
433.130734
 20
202.952990
 30
0.0
 10
433.130734
 20
202.141601
 30
0.0
 10
434.118512
 20
202.141601
 30
0.0
 10
434.118512
 20
201.153823
 30
0.0
 10
434.929901
 20
201.153823
 30
0.0
 10
434.929901
 20
197.661323
 30
0.0
 10
434.118512
 20
197.661323
 30
0.0
 10
434.118512
 20
192.651879
 30
0.0
 10
434.929901
 20
192.651879
 30
0.0
 10
434.929901
 20
189.150560
 30
0.0
 10
434.118512
 20
189.150560
 30
0.0
 10
434.118512
 20
188.171601
 30
0.0
 10
433.130734
 20
188.171601
 30
0.0
 10
433.130734
 20
187.360212
 30
0.0
 10
429.638234
 20
187.360212
 30
0.0
 10
429.638234
 20
188.171601
 30
0.0
 10
424.628790
 20
188.171601
 30
0.0
 10
424.628790
 20
187.360212
 30
0.0
 10
421.127484
 20
187.360212
 30
0.0
 10
421.127484
 20
188.171601
 30
0.0
 10
420.148512
 20
188.171601
 30
0.0
 10
420.148512
 20
189.150560
 30
0.0
 10
419.337123
 20
189.150560
 30
0.0
 10
419.337123
 20
192.651879
 30
0.0
 10
420.148512
 20
192.651879
 30
0.0
 10
420.148512
 20
197.661323
 30
0.0
 10
419.337123
 20
197.661323
 30
0.0
 10
419.337123
 20
201.153823
 30
0.0
 10
420.148512
 20
201.153823
 30
0.0
 10
420.148512
 20
202.141601
 30
0.0
 10
421.127484
 20
202.141601
 30
0.0
 10
421.127484
 20
202.952990
 30
0.0
 10
421.127484
 20
202.952990
 30
0.0
  0
LWPOLYLINE
  5
116
100
AcDbEntity
  8
Layer_1
 62
7
100
AcDbPolyline
 90
6
 70
0
 10
417.608512
 20
185.631601
 30
0.0
 10
417.608512
 20
166.581590
 30
0.0
 10
436.658512
 20
166.581590
 30
0.0
 10
436.658512
 20
185.631601
 30
0.0
 10
417.608512
 20
185.631601
 30
0.0
 10
417.608512
 20
185.631601
 30
0.0
  0
LWPOLYLINE
  5
117
100
AcDbEntity
  8
Layer_1
 62
7
100
AcDbPolyline
 90
38
 70
0
 10
421.127484
 20
183.902990
 30
0.0
 10
424.628790
 20
183.902990
 30
0.0
 10
424.628790
 20
183.091601
 30
0.0
 10
429.638234
 20
183.091601
 30
0.0
 10
429.638234
 20
183.902990
 30
0.0
 10
433.130734
 20
183.902990
 30
0.0
 10
433.130734
 20
183.091601
 30
0.0
 10
434.118512
 20
183.091601
 30
0.0
 10
434.118512
 20
182.103823
 30
0.0
 10
434.929901
 20
182.103823
 30
0.0
 10
434.929901
 20
178.611312
 30
0.0
 10
434.118512
 20
178.611312
 30
0.0
 10
434.118512
 20
173.601868
 30
0.0
 10
434.929901
 20
173.601868
 30
0.0
 10
434.929901
 20
170.100562
 30
0.0
 10
434.118512
 20
170.100562
 30
0.0
 10
434.118512
 20
169.121590
 30
0.0
 10
433.130734
 20
169.121590
 30
0.0
 10
433.130734
 20
168.310201
 30
0.0
 10
429.638234
 20
168.310201
 30
0.0
 10
429.638234
 20
169.121590
 30
0.0
 10
424.628790
 20
169.121590
 30
0.0
 10
424.628790
 20
168.310201
 30
0.0
 10
421.127484
 20
168.310201
 30
0.0
 10
421.127484
 20
169.121590
 30
0.0
 10
420.148512
 20
169.121590
 30
0.0
 10
420.148512
 20
170.100562
 30
0.0
 10
419.337123
 20
170.100562
 30
0.0
 10
419.337123
 20
173.601868
 30
0.0
 10
420.148512
 20
173.601868
 30
0.0
 10
420.148512
 20
178.611312
 30
0.0
 10
419.337123
 20
178.611312
 30
0.0
 10
419.337123
 20
182.103823
 30
0.0
 10
420.148512
 20
182.103823
 30
0.0
 10
420.148512
 20
183.091601
 30
0.0
 10
421.127484
 20
183.091601
 30
0.0
 10
421.127484
 20
183.902990
 30
0.0
 10
421.127484
 20
183.902990
 30
0.0
  0
LWPOLYLINE
  5
118
100
AcDbEntity
  8
Layer_1
 62
7
100
AcDbPolyline
 90
6
 70
0
 10
436.658512
 20
218.969101
 30
0.0
 10
436.658512
 20
199.919101
 30
0.0
 10
455.708512
 20
199.919101
 30
0.0
 10
455.708512
 20
218.969101
 30
0.0
 10
436.658512
 20
218.969101
 30
0.0
 10
436.658512
 20
218.969101
 30
0.0
  0
LWPOLYLINE
  5
119
100
AcDbEntity
  8
Layer_1
 62
7
100
AcDbPolyline
 90
38
 70
0
 10
440.177484
 20
217.240490
 30
0.0
 10
443.678790
 20
217.240490
 30
0.0
 10
443.678790
 20
216.429101
 30
0.0
 10
448.688234
 20
216.429101
 30
0.0
 10
448.688234
 20
217.240490
 30
0.0
 10
452.180734
 20
217.240490
 30
0.0
 10
452.180734
 20
216.429101
 30
0.0
 10
453.168512
 20
216.429101
 30
0.0
 10
453.168512
 20
215.441323
 30
0.0
 10
453.979901
 20
215.441323
 30
0.0
 10
453.979901
 20
211.948823
 30
0.0
 10
453.168512
 20
211.948823
 30
0.0
 10
453.168512
 20
206.939379
 30
0.0
 10
453.979901
 20
206.939379
 30
0.0
 10
453.979901
 20
203.438060
 30
0.0
 10
453.168512
 20
203.438060
 30
0.0
 10
453.168512
 20
202.459101
 30
0.0
 10
452.180734
 20
202.459101
 30
0.0
 10
452.180734
 20
201.647712
 30
0.0
 10
448.688234
 20
201.647712
 30
0.0
 10
448.688234
 20
202.459101
 30
0.0
 10
443.678790
 20
202.459101
 30
0.0
 10
443.678790
 20
201.647712
 30
0.0
 10
440.177484
 20
201.647712
 30
0.0
 10
440.177484
 20
202.459101
 30
0.0
 10
439.198512
 20
202.459101
 30
0.0
 10
439.198512
 20
203.438060
 30
0.0
 10
438.387123
 20
203.438060
 30
0.0
 10
438.387123
 20
206.939379
 30
0.0
 10
439.198512
 20
206.939379
 30
0.0
 10
439.198512
 20
211.948823
 30
0.0
 10
438.387123
 20
211.948823
 30
0.0
 10
438.387123
 20
215.441323
 30
0.0
 10
439.198512
 20
215.441323
 30
0.0
 10
439.198512
 20
216.429101
 30
0.0
 10
440.177484
 20
216.429101
 30
0.0
 10
440.177484
 20
217.240490
 30
0.0
 10
440.177484
 20
217.240490
 30
0.0
  0
LWPOLYLINE
  5
11a
100
AcDbEntity
  8
Layer_1
 62
7
100
AcDbPolyline
 90
6
 70
0
 10
436.658512
 20
199.919101
 30
0.0
 10
436.658512
 20
180.869101
 30
0.0
 10
455.708512
 20
180.869101
 30
0.0
 10
455.708512
 20
199.919101
 30
0.0
 10
436.658512
 20
199.919101
 30
0.0
 10
436.658512
 20
199.919101
 30
0.0
  0
LWPOLYLINE
  5
11b
100
AcDbEntity
  8
Layer_1
 62
7
100
AcDbPolyline
 90
38
 70
0
 10
440.177484
 20
198.190490
 30
0.0
 10
443.678790
 20
198.190490
 30
0.0
 10
443.678790
 20
197.379101
 30
0.0
 10
448.688234
 20
197.379101
 30
0.0
 10
448.688234
 20
198.190490
 30
0.0
 10
452.180734
 20
198.190490
 30
0.0
 10
452.180734
 20
197.379101
 30
0.0
 10
453.168512
 20
197.379101
 30
0.0
 10
453.168512
 20
196.391323
 30
0.0
 10
453.979901
 20
196.391323
 30
0.0
 10
453.979901
 20
192.898823
 30
0.0
 10
453.168512
 20
192.898823
 30
0.0
 10
453.168512
 20
187.889379
 30
0.0
 10
453.979901
 20
187.889379
 30
0.0
 10
453.979901
 20
184.388060
 30
0.0
 10
453.168512
 20
184.388060
 30
0.0
 10
453.168512
 20
183.409101
 30
0.0
 10
452.180734
 20
183.409101
 30
0.0
 10
452.180734
 20
182.597712
 30
0.0
 10
448.688234
 20
182.597712
 30
0.0
 10
448.688234
 20
183.409101
 30
0.0
 10
443.678790
 20
183.409101
 30
0.0
 10
443.678790
 20
182.597712
 30
0.0
 10
440.177484
 20
182.597712
 30
0.0
 10
440.177484
 20
183.409101
 30
0.0
 10
439.198512
 20
183.409101
 30
0.0
 10
439.198512
 20
184.388060
 30
0.0
 10
438.387123
 20
184.388060
 30
0.0
 10
438.387123
 20
187.889379
 30
0.0
 10
439.198512
 20
187.889379
 30
0.0
 10
439.198512
 20
192.898823
 30
0.0
 10
438.387123
 20
192.898823
 30
0.0
 10
438.387123
 20
196.391323
 30
0.0
 10
439.198512
 20
196.391323
 30
0.0
 10
439.198512
 20
197.379101
 30
0.0
 10
440.177484
 20
197.379101
 30
0.0
 10
440.177484
 20
198.190490
 30
0.0
 10
440.177484
 20
198.190490
 30
0.0
  0
LWPOLYLINE
  5
11c
100
AcDbEntity
  8
Layer_1
 62
7
100
AcDbPolyline
 90
6
 70
0
 10
436.658512
 20
180.869101
 30
0.0
 10
436.658512
 20
161.819090
 30
0.0
 10
455.708512
 20
161.819090
 30
0.0
 10
455.708512
 20
180.869101
 30
0.0
 10
436.658512
 20
180.869101
 30
0.0
 10
436.658512
 20
180.869101
 30
0.0
  0
LWPOLYLINE
  5
11d
100
AcDbEntity
  8
Layer_1
 62
7
100
AcDbPolyline
 90
38
 70
0
 10
440.177484
 20
179.140479
 30
0.0
 10
443.678790
 20
179.140479
 30
0.0
 10
443.678790
 20
178.329090
 30
0.0
 10
448.688234
 20
178.329090
 30
0.0
 10
448.688234
 20
179.140479
 30
0.0
 10
452.180734
 20
179.140479
 30
0.0
 10
452.180734
 20
178.329090
 30
0.0
 10
453.168512
 20
178.329090
 30
0.0
 10
453.168512
 20
177.341312
 30
0.0
 10
453.979901
 20
177.341312
 30
0.0
 10
453.979901
 20
173.848812
 30
0.0
 10
453.168512
 20
173.848812
 30
0.0
 10
453.168512
 20
168.839368
 30
0.0
 10
453.979901
 20
168.839368
 30
0.0
 10
453.979901
 20
165.338062
 30
0.0
 10
453.168512
 20
165.338062
 30
0.0
 10
453.168512
 20
164.359090
 30
0.0
 10
452.180734
 20
164.359090
 30
0.0
 10
452.180734
 20
163.547701
 30
0.0
 10
448.688234
 20
163.547701
 30
0.0
 10
448.688234
 20
164.359090
 30
0.0
 10
443.678790
 20
164.359090
 30
0.0
 10
443.678790
 20
163.547701
 30
0.0
 10
440.177484
 20
163.547701
 30
0.0
 10
440.177484
 20
164.359090
 30
0.0
 10
439.198512
 20
164.359090
 30
0.0
 10
439.198512
 20
165.338062
 30
0.0
 10
438.387123
 20
165.338062
 30
0.0
 10
438.387123
 20
168.839368
 30
0.0
 10
439.198512
 20
168.839368
 30
0.0
 10
439.198512
 20
173.848812
 30
0.0
 10
438.387123
 20
173.848812
 30
0.0
 10
438.387123
 20
177.341312
 30
0.0
 10
439.198512
 20
177.341312
 30
0.0
 10
439.198512
 20
178.329090
 30
0.0
 10
440.177484
 20
178.329090
 30
0.0
 10
440.177484
 20
179.140479
 30
0.0
 10
440.177484
 20
179.140479
 30
0.0
  0
LWPOLYLINE
  5
11e
100
AcDbEntity
  8
Layer_1
 62
7
100
AcDbPolyline
 90
6
 70
0
 10
455.708512
 20
218.969101
 30
0.0
 10
455.708512
 20
199.919101
 30
0.0
 10
474.758512
 20
199.919101
 30
0.0
 10
474.758512
 20
218.969101
 30
0.0
 10
455.708512
 20
218.969101
 30
0.0
 10
455.708512
 20
218.969101
 30
0.0
  0
LWPOLYLINE
  5
11f
100
AcDbEntity
  8
Layer_1
 62
7
100
AcDbPolyline
 90
38
 70
0
 10
459.227484
 20
217.240490
 30
0.0
 10
462.728790
 20
217.240490
 30
0.0
 10
462.728790
 20
216.429101
 30
0.0
 10
467.738234
 20
216.429101
 30
0.0
 10
467.738234
 20
217.240490
 30
0.0
 10
471.230734
 20
217.240490
 30
0.0
 10
471.230734
 20
216.429101
 30
0.0
 10
472.218512
 20
216.429101
 30
0.0
 10
472.218512
 20
215.441323
 30
0.0
 10
473.029901
 20
215.441323
 30
0.0
 10
473.029901
 20
211.948823
 30
0.0
 10
472.218512
 20
211.948823
 30
0.0
 10
472.218512
 20
206.939379
 30
0.0
 10
473.029901
 20
206.939379
 30
0.0
 10
473.029901
 20
203.438060
 30
0.0
 10
472.218512
 20
203.438060
 30
0.0
 10
472.218512
 20
202.459101
 30
0.0
 10
471.230734
 20
202.459101
 30
0.0
 10
471.230734
 20
201.647712
 30
0.0
 10
467.738234
 20
201.647712
 30
0.0
 10
467.738234
 20
202.459101
 30
0.0
 10
462.728790
 20
202.459101
 30
0.0
 10
462.728790
 20
201.647712
 30
0.0
 10
459.227484
 20
201.647712
 30
0.0
 10
459.227484
 20
202.459101
 30
0.0
 10
458.248512
 20
202.459101
 30
0.0
 10
458.248512
 20
203.438060
 30
0.0
 10
457.437123
 20
203.438060
 30
0.0
 10
457.437123
 20
206.939379
 30
0.0
 10
458.248512
 20
206.939379
 30
0.0
 10
458.248512
 20
211.948823
 30
0.0
 10
457.437123
 20
211.948823
 30
0.0
 10
457.437123
 20
215.441323
 30
0.0
 10
458.248512
 20
215.441323
 30
0.0
 10
458.248512
 20
216.429101
 30
0.0
 10
459.227484
 20
216.429101
 30
0.0
 10
459.227484
 20
217.240490
 30
0.0
 10
459.227484
 20
217.240490
 30
0.0
  0
LWPOLYLINE
  5
120
100
AcDbEntity
  8
Layer_1
 62
7
100
AcDbPolyline
 90
6
 70
0
 10
455.708512
 20
199.919101
 30
0.0
 10
455.708512
 20
180.869101
 30
0.0
 10
474.758512
 20
180.869101
 30
0.0
 10
474.758512
 20
199.919101
 30
0.0
 10
455.708512
 20
199.919101
 30
0.0
 10
455.708512
 20
199.919101
 30
0.0
  0
LWPOLYLINE
  5
121
100
AcDbEntity
  8
Layer_1
 62
7
100
AcDbPolyline
 90
38
 70
0
 10
459.227484
 20
198.190490
 30
0.0
 10
462.728790
 20
198.190490
 30
0.0
 10
462.728790
 20
197.379101
 30
0.0
 10
467.738234
 20
197.379101
 30
0.0
 10
467.738234
 20
198.190490
 30
0.0
 10
471.230734
 20
198.190490
 30
0.0
 10
471.230734
 20
197.379101
 30
0.0
 10
472.218512
 20
197.379101
 30
0.0
 10
472.218512
 20
196.391323
 30
0.0
 10
473.029901
 20
196.391323
 30
0.0
 10
473.029901
 20
192.898823
 30
0.0
 10
472.218512
 20
192.898823
 30
0.0
 10
472.218512
 20
187.889379
 30
0.0
 10
473.029901
 20
187.889379
 30
0.0
 10
473.029901
 20
184.388060
 30
0.0
 10
472.218512
 20
184.388060
 30
0.0
 10
472.218512
 20
183.409101
 30
0.0
 10
471.230734
 20
183.409101
 30
0.0
 10
471.230734
 20
182.597712
 30
0.0
 10
467.738234
 20
182.597712
 30
0.0
 10
467.738234
 20
183.409101
 30
0.0
 10
462.728790
 20
183.409101
 30
0.0
 10
462.728790
 20
182.597712
 30
0.0
 10
459.227484
 20
182.597712
 30
0.0
 10
459.227484
 20
183.409101
 30
0.0
 10
458.248512
 20
183.409101
 30
0.0
 10
458.248512
 20
184.388060
 30
0.0
 10
457.437123
 20
184.388060
 30
0.0
 10
457.437123
 20
187.889379
 30
0.0
 10
458.248512
 20
187.889379
 30
0.0
 10
458.248512
 20
192.898823
 30
0.0
 10
457.437123
 20
192.898823
 30
0.0
 10
457.437123
 20
196.391323
 30
0.0
 10
458.248512
 20
196.391323
 30
0.0
 10
458.248512
 20
197.379101
 30
0.0
 10
459.227484
 20
197.379101
 30
0.0
 10
459.227484
 20
198.190490
 30
0.0
 10
459.227484
 20
198.190490
 30
0.0
  0
LWPOLYLINE
  5
122
100
AcDbEntity
  8
Layer_1
 62
7
100
AcDbPolyline
 90
6
 70
0
 10
455.708512
 20
180.869101
 30
0.0
 10
455.708512
 20
161.819090
 30
0.0
 10
474.758512
 20
161.819090
 30
0.0
 10
474.758512
 20
180.869101
 30
0.0
 10
455.708512
 20
180.869101
 30
0.0
 10
455.708512
 20
180.869101
 30
0.0
  0
LWPOLYLINE
  5
123
100
AcDbEntity
  8
Layer_1
 62
7
100
AcDbPolyline
 90
38
 70
0
 10
459.227484
 20
179.140479
 30
0.0
 10
462.728790
 20
179.140479
 30
0.0
 10
462.728790
 20
178.329090
 30
0.0
 10
467.738234
 20
178.329090
 30
0.0
 10
467.738234
 20
179.140479
 30
0.0
 10
471.230734
 20
179.140479
 30
0.0
 10
471.230734
 20
178.329090
 30
0.0
 10
472.218512
 20
178.329090
 30
0.0
 10
472.218512
 20
177.341312
 30
0.0
 10
473.029901
 20
177.341312
 30
0.0
 10
473.029901
 20
173.848812
 30
0.0
 10
472.218512
 20
173.848812
 30
0.0
 10
472.218512
 20
168.839368
 30
0.0
 10
473.029901
 20
168.839368
 30
0.0
 10
473.029901
 20
165.338062
 30
0.0
 10
472.218512
 20
165.338062
 30
0.0
 10
472.218512
 20
164.359090
 30
0.0
 10
471.230734
 20
164.359090
 30
0.0
 10
471.230734
 20
163.547701
 30
0.0
 10
467.738234
 20
163.547701
 30
0.0
 10
467.738234
 20
164.359090
 30
0.0
 10
462.728790
 20
164.359090
 30
0.0
 10
462.728790
 20
163.547701
 30
0.0
 10
459.227484
 20
163.547701
 30
0.0
 10
459.227484
 20
164.359090
 30
0.0
 10
458.248512
 20
164.359090
 30
0.0
 10
458.248512
 20
165.338062
 30
0.0
 10
457.437123
 20
165.338062
 30
0.0
 10
457.437123
 20
168.839368
 30
0.0
 10
458.248512
 20
168.839368
 30
0.0
 10
458.248512
 20
173.848812
 30
0.0
 10
457.437123
 20
173.848812
 30
0.0
 10
457.437123
 20
177.341312
 30
0.0
 10
458.248512
 20
177.341312
 30
0.0
 10
458.248512
 20
178.329090
 30
0.0
 10
459.227484
 20
178.329090
 30
0.0
 10
459.227484
 20
179.140479
 30
0.0
 10
459.227484
 20
179.140479
 30
0.0
  0
LWPOLYLINE
  5
124
100
AcDbEntity
  8
Layer_1
 62
7
100
AcDbPolyline
 90
6
 70
0
 10
474.758512
 20
218.969101
 30
0.0
 10
474.758512
 20
199.919101
 30
0.0
 10
493.808512
 20
199.919101
 30
0.0
 10
493.808512
 20
218.969101
 30
0.0
 10
474.758512
 20
218.969101
 30
0.0
 10
474.758512
 20
218.969101
 30
0.0
  0
LWPOLYLINE
  5
125
100
AcDbEntity
  8
Layer_1
 62
7
100
AcDbPolyline
 90
38
 70
0
 10
478.277484
 20
217.240490
 30
0.0
 10
481.778790
 20
217.240490
 30
0.0
 10
481.778790
 20
216.429101
 30
0.0
 10
486.788234
 20
216.429101
 30
0.0
 10
486.788234
 20
217.240490
 30
0.0
 10
490.280734
 20
217.240490
 30
0.0
 10
490.280734
 20
216.429101
 30
0.0
 10
491.268512
 20
216.429101
 30
0.0
 10
491.268512
 20
215.441323
 30
0.0
 10
492.079901
 20
215.441323
 30
0.0
 10
492.079901
 20
211.948823
 30
0.0
 10
491.268512
 20
211.948823
 30
0.0
 10
491.268512
 20
206.939379
 30
0.0
 10
492.079901
 20
206.939379
 30
0.0
 10
492.079901
 20
203.438060
 30
0.0
 10
491.268512
 20
203.438060
 30
0.0
 10
491.268512
 20
202.459101
 30
0.0
 10
490.280734
 20
202.459101
 30
0.0
 10
490.280734
 20
201.647712
 30
0.0
 10
486.788234
 20
201.647712
 30
0.0
 10
486.788234
 20
202.459101
 30
0.0
 10
481.778790
 20
202.459101
 30
0.0
 10
481.778790
 20
201.647712
 30
0.0
 10
478.277484
 20
201.647712
 30
0.0
 10
478.277484
 20
202.459101
 30
0.0
 10
477.298512
 20
202.459101
 30
0.0
 10
477.298512
 20
203.438060
 30
0.0
 10
476.487123
 20
203.438060
 30
0.0
 10
476.487123
 20
206.939379
 30
0.0
 10
477.298512
 20
206.939379
 30
0.0
 10
477.298512
 20
211.948823
 30
0.0
 10
476.487123
 20
211.948823
 30
0.0
 10
476.487123
 20
215.441323
 30
0.0
 10
477.298512
 20
215.441323
 30
0.0
 10
477.298512
 20
216.429101
 30
0.0
 10
478.277484
 20
216.429101
 30
0.0
 10
478.277484
 20
217.240490
 30
0.0
 10
478.277484
 20
217.240490
 30
0.0
  0
LWPOLYLINE
  5
126
100
AcDbEntity
  8
Layer_1
 62
7
100
AcDbPolyline
 90
8
 70
0
 10
360.458512
 20
218.969104
 30
0.0
 10
341.408512
 20
218.969104
 30
0.0
 10
341.408512
 20
199.919104
 30
0.0
 10
341.408512
 20
190.394107
 30
0.0
 10
360.458512
 20
190.394107
 30
0.0
 10
360.458512
 20
199.919107
 30
0.0
 10
360.458512
 20
218.969107
 30
0.0
 10
360.458512
 20
218.969104
 30
0.0
  0
LWPOLYLINE
  5
127
100
AcDbEntity
  8
Layer_1
 62
7
100
AcDbPolyline
 90
38
 70
0
 10
358.729901
 20
210.687646
 30
0.0
 10
358.729901
 20
207.186326
 30
0.0
 10
357.918512
 20
207.186326
 30
0.0
 10
357.918512
 20
202.176882
 30
0.0
 10
358.729901
 20
202.176882
 30
0.0
 10
358.729901
 20
198.684382
 30
0.0
 10
357.918512
 20
198.684382
 30
0.0
 10
357.918512
 20
197.696604
 30
0.0
 10
356.930734
 20
197.696604
 30
0.0
 10
356.930734
 20
196.885215
 30
0.0
 10
353.438234
 20
196.885215
 30
0.0
 10
353.438234
 20
197.696604
 30
0.0
 10
348.428790
 20
197.696604
 30
0.0
 10
348.428790
 20
196.885215
 30
0.0
 10
344.927484
 20
196.885215
 30
0.0
 10
344.927484
 20
197.696604
 30
0.0
 10
343.948512
 20
197.696604
 30
0.0
 10
343.948512
 20
198.684382
 30
0.0
 10
343.137123
 20
198.684382
 30
0.0
 10
343.137123
 20
202.176882
 30
0.0
 10
343.948512
 20
202.176882
 30
0.0
 10
343.948512
 20
207.186326
 30
0.0
 10
343.137123
 20
207.186326
 30
0.0
 10
343.137123
 20
210.687646
 30
0.0
 10
343.948512
 20
210.687646
 30
0.0
 10
343.948512
 20
211.666604
 30
0.0
 10
344.927484
 20
211.666604
 30
0.0
 10
344.927484
 20
212.477993
 30
0.0
 10
348.428790
 20
212.477993
 30
0.0
 10
348.428790
 20
211.666604
 30
0.0
 10
353.438234
 20
211.666604
 30
0.0
 10
353.438234
 20
212.477993
 30
0.0
 10
356.930734
 20
212.477993
 30
0.0
 10
356.930734
 20
211.666604
 30
0.0
 10
357.918512
 20
211.666604
 30
0.0
 10
357.918512
 20
210.687646
 30
0.0
 10
358.729901
 20
210.687646
 30
0.0
 10
358.729901
 20
210.687646
 30
0.0
  0
LWPOLYLINE
  5
128
100
AcDbEntity
  8
Layer_1
 62
7
100
AcDbPolyline
 90
5
 70
0
 10
493.808597
 20
220.697882
 30
0.0
 10
436.658580
 20
220.697882
 30
0.0
 10
436.658580
 20
218.969119
 30
0.0
 10
493.808597
 20
218.969119
 30
0.0
 10
493.808597
 20
220.697882
 30
0.0
  0
LWPOLYLINE
  5
129
100
AcDbEntity
  8
Layer_1
 62
7
100
AcDbPolyline
 90
5
 70
0
 10
341.408597
 20
160.090312
 30
0.0
 10
341.408597
 20
220.697876
 30
0.0
 10
339.679834
 20
220.697876
 30
0.0
 10
339.679834
 20
160.090312
 30
0.0
 10
341.408597
 20
160.090312
 30
0.0
  0
LWPOLYLINE
  5
12a
100
AcDbEntity
  8
Layer_1
 62
7
100
AcDbPolyline
 90
5
 70
0
 10
495.537321
 20
141.040332
 30
0.0
 10
495.537321
 20
220.697865
 30
0.0
 10
493.808558
 20
220.697865
 30
0.0
 10
493.808558
 20
141.040332
 30
0.0
 10
495.537321
 20
141.040332
 30
0.0
  0
LWPOLYLINE
  5
12b
100
AcDbEntity
  8
Layer_1
 62
7
100
AcDbPolyline
 90
6
 70
0
 10
398.558512
 20
168.962840
 30
0.0
 10
398.558512
 20
164.200340
 30
0.0
 10
417.608512
 20
164.200340
 30
0.0
 10
417.608512
 20
168.962840
 30
0.0
 10
398.558512
 20
168.962840
 30
0.0
 10
398.558512
 20
168.962840
 30
0.0
  0
LWPOLYLINE
  5
12c
100
AcDbEntity
  8
Layer_1
 62
7
100
AcDbPolyline
 90
6
 70
0
 10
417.608512
 20
166.581590
 30
0.0
 10
417.608512
 20
164.200340
 30
0.0
 10
436.658512
 20
164.200340
 30
0.0
 10
436.658512
 20
166.581590
 30
0.0
 10
417.608512
 20
166.581590
 30
0.0
 10
417.608512
 20
166.581590
 30
0.0
  0
LWPOLYLINE
  5
12d
100
AcDbEntity
  8
Layer_1
 62
7
100
AcDbPolyline
 90
8
 70
0
 10
493.808512
 20
171.344090
 30
0.0
 10
474.758512
 20
171.344090
 30
0.0
 10
474.758512
 20
152.294090
 30
0.0
 10
474.758512
 20
142.769090
 30
0.0
 10
493.808512
 20
142.769090
 30
0.0
 10
493.808512
 20
152.294090
 30
0.0
 10
493.808512
 20
171.344090
 30
0.0
 10
493.808512
 20
171.344090
 30
0.0
  0
LWPOLYLINE
  5
12e
100
AcDbEntity
  8
Layer_1
 62
7
100
AcDbPolyline
 90
38
 70
0
 10
492.079901
 20
163.062646
 30
0.0
 10
492.079901
 20
159.561312
 30
0.0
 10
491.268512
 20
159.561312
 30
0.0
 10
491.268512
 20
154.551868
 30
0.0
 10
492.079901
 20
154.551868
 30
0.0
 10
492.079901
 20
151.059368
 30
0.0
 10
491.268512
 20
151.059368
 30
0.0
 10
491.268512
 20
150.071590
 30
0.0
 10
490.280734
 20
150.071590
 30
0.0
 10
490.280734
 20
149.260201
 30
0.0
 10
486.788234
 20
149.260201
 30
0.0
 10
486.788234
 20
150.071590
 30
0.0
 10
481.778790
 20
150.071590
 30
0.0
 10
481.778790
 20
149.260201
 30
0.0
 10
478.277484
 20
149.260201
 30
0.0
 10
478.277484
 20
150.071590
 30
0.0
 10
477.298512
 20
150.071590
 30
0.0
 10
477.298512
 20
151.059368
 30
0.0
 10
476.487123
 20
151.059368
 30
0.0
 10
476.487123
 20
154.551868
 30
0.0
 10
477.298512
 20
154.551868
 30
0.0
 10
477.298512
 20
159.561312
 30
0.0
 10
476.487123
 20
159.561312
 30
0.0
 10
476.487123
 20
163.062646
 30
0.0
 10
477.298512
 20
163.062646
 30
0.0
 10
477.298512
 20
164.041590
 30
0.0
 10
478.277484
 20
164.041590
 30
0.0
 10
478.277484
 20
164.852979
 30
0.0
 10
481.778790
 20
164.852979
 30
0.0
 10
481.778790
 20
164.041590
 30
0.0
 10
486.788234
 20
164.041590
 30
0.0
 10
486.788234
 20
164.852979
 30
0.0
 10
490.280734
 20
164.852979
 30
0.0
 10
490.280734
 20
164.041590
 30
0.0
 10
491.268512
 20
164.041590
 30
0.0
 10
491.268512
 20
163.062646
 30
0.0
 10
492.079901
 20
163.062646
 30
0.0
 10
492.079901
 20
163.062646
 30
0.0
  0
LWPOLYLINE
  5
12f
100
AcDbEntity
  8
Layer_1
 62
7
100
AcDbPolyline
 90
8
 70
0
 10
493.808512
 20
199.919101
 30
0.0
 10
474.758512
 20
199.919101
 30
0.0
 10
474.758512
 20
180.869101
 30
0.0
 10
474.758512
 20
171.344090
 30
0.0
 10
493.808512
 20
171.344090
 30
0.0
 10
493.808512
 20
180.869101
 30
0.0
 10
493.808512
 20
199.919101
 30
0.0
 10
493.808512
 20
199.919101
 30
0.0
  0
LWPOLYLINE
  5
130
100
AcDbEntity
  8
Layer_1
 62
7
100
AcDbPolyline
 90
38
 70
0
 10
492.079901
 20
191.637643
 30
0.0
 10
492.079901
 20
188.136323
 30
0.0
 10
491.268512
 20
188.136323
 30
0.0
 10
491.268512
 20
183.126879
 30
0.0
 10
492.079901
 20
183.126879
 30
0.0
 10
492.079901
 20
179.634368
 30
0.0
 10
491.268512
 20
179.634368
 30
0.0
 10
491.268512
 20
178.646590
 30
0.0
 10
490.280734
 20
178.646590
 30
0.0
 10
490.280734
 20
177.835201
 30
0.0
 10
486.788234
 20
177.835201
 30
0.0
 10
486.788234
 20
178.646590
 30
0.0
 10
481.778790
 20
178.646590
 30
0.0
 10
481.778790
 20
177.835201
 30
0.0
 10
478.277484
 20
177.835201
 30
0.0
 10
478.277484
 20
178.646590
 30
0.0
 10
477.298512
 20
178.646590
 30
0.0
 10
477.298512
 20
179.634368
 30
0.0
 10
476.487123
 20
179.634368
 30
0.0
 10
476.487123
 20
183.126879
 30
0.0
 10
477.298512
 20
183.126879
 30
0.0
 10
477.298512
 20
188.136323
 30
0.0
 10
476.487123
 20
188.136323
 30
0.0
 10
476.487123
 20
191.637643
 30
0.0
 10
477.298512
 20
191.637643
 30
0.0
 10
477.298512
 20
192.616601
 30
0.0
 10
478.277484
 20
192.616601
 30
0.0
 10
478.277484
 20
193.427990
 30
0.0
 10
481.778790
 20
193.427990
 30
0.0
 10
481.778790
 20
192.616601
 30
0.0
 10
486.788234
 20
192.616601
 30
0.0
 10
486.788234
 20
193.427990
 30
0.0
 10
490.280734
 20
193.427990
 30
0.0
 10
490.280734
 20
192.616601
 30
0.0
 10
491.268512
 20
192.616601
 30
0.0
 10
491.268512
 20
191.637643
 30
0.0
 10
492.079901
 20
191.637643
 30
0.0
 10
492.079901
 20
191.637643
 30
0.0
  0
LWPOLYLINE
  5
131
100
AcDbEntity
  8
Layer_1
 62
7
100
AcDbPolyline
 90
5
 70
0
 10
493.808597
 20
142.769115
 30
0.0
 10
436.658501
 20
142.769115
 30
0.0
 10
436.658501
 20
141.040353
 30
0.0
 10
493.808597
 20
141.040353
 30
0.0
 10
493.808597
 20
142.769115
 30
0.0
  0
LWPOLYLINE
  5
132
100
AcDbEntity
  8
Layer_1
 62
7
100
AcDbPolyline
 90
5
 70
0
 10
408.083512
 20
136.277795
 30
0.0
 10
408.083512
 20
141.040286
 30
0.0
 10
406.354750
 20
141.040286
 30
0.0
 10
406.354750
 20
136.277795
 30
0.0
 10
408.083512
 20
136.277795
 30
0.0
  0
LWPOLYLINE
  5
133
100
AcDbEntity
  8
Layer_1
 62
7
100
AcDbPolyline
 90
5
 70
0
 10
379.508597
 20
220.697882
 30
0.0
 10
379.508597
 20
223.079132
 30
0.0
 10
377.779834
 20
223.079132
 30
0.0
 10
377.779834
 20
220.697882
 30
0.0
 10
379.508597
 20
220.697882
 30
0.0
  0
LWPOLYLINE
  5
134
100
AcDbEntity
  8
Layer_1
 62
7
100
AcDbPolyline
 90
5
 70
0
 10
398.558597
 20
223.079140
 30
0.0
 10
398.558597
 20
227.841643
 30
0.0
 10
396.829834
 20
227.841643
 30
0.0
 10
396.829834
 20
223.079140
 30
0.0
 10
398.558597
 20
223.079140
 30
0.0
  0
LWPOLYLINE
  5
135
100
AcDbEntity
  8
Layer_1
 62
7
100
AcDbPolyline
 90
5
 70
0
 10
419.337321
 20
225.460393
 30
0.0
 10
419.337321
 20
227.841642
 30
0.0
 10
417.608558
 20
227.841642
 30
0.0
 10
417.608558
 20
225.460393
 30
0.0
 10
419.337321
 20
225.460393
 30
0.0
  0
LWPOLYLINE
  5
136
100
AcDbEntity
  8
Layer_1
 62
7
100
AcDbPolyline
 90
5
 70
0
 10
438.387321
 20
220.697882
 30
0.0
 10
438.387321
 20
225.460382
 30
0.0
 10
436.658558
 20
225.460382
 30
0.0
 10
436.658558
 20
220.697882
 30
0.0
 10
438.387321
 20
220.697882
 30
0.0
  0
LWPOLYLINE
  5
137
100
AcDbEntity
  8
Layer_1
 62
7
100
AcDbPolyline
 90
5
 70
0
 10
379.508597
 20
220.697882
 30
0.0
 10
341.408614
 20
220.697882
 30
0.0
 10
341.408614
 20
218.969119
 30
0.0
 10
379.508597
 20
218.969119
 30
0.0
 10
379.508597
 20
220.697882
 30
0.0
  0
LWPOLYLINE
  5
138
100
AcDbEntity
  8
Layer_1
 62
7
100
AcDbPolyline
 90
5
 70
0
 10
398.558597
 20
223.079140
 30
0.0
 10
379.508586
 20
223.079140
 30
0.0
 10
379.508586
 20
221.350378
 30
0.0
 10
398.558597
 20
221.350378
 30
0.0
 10
398.558597
 20
223.079140
 30
0.0
  0
LWPOLYLINE
  5
139
100
AcDbEntity
  8
Layer_1
 62
7
100
AcDbPolyline
 90
5
 70
0
 10
417.608597
 20
227.841643
 30
0.0
 10
398.558599
 20
227.841643
 30
0.0
 10
398.558599
 20
226.112881
 30
0.0
 10
417.608597
 20
226.112881
 30
0.0
 10
417.608597
 20
227.841643
 30
0.0
  0
LWPOLYLINE
  5
13a
100
AcDbEntity
  8
Layer_1
 62
7
100
AcDbPolyline
 90
5
 70
0
 10
436.658597
 20
225.460393
 30
0.0
 10
417.608612
 20
225.460393
 30
0.0
 10
417.608612
 20
223.731631
 30
0.0
 10
436.658597
 20
223.731631
 30
0.0
 10
436.658597
 20
225.460393
 30
0.0
  0
LWPOLYLINE
  5
13b
100
AcDbEntity
  8
Layer_1
 62
7
100
AcDbPolyline
 90
6
 70
0
 10
379.508512
 20
164.200340
 30
0.0
 10
379.508512
 20
161.819090
 30
0.0
 10
436.658512
 20
161.819090
 30
0.0
 10
436.658512
 20
164.200340
 30
0.0
 10
379.508512
 20
164.200340
 30
0.0
 10
379.508512
 20
164.200340
 30
0.0
  0
LWPOLYLINE
  5
13c
100
AcDbEntity
  8
Layer_1
 62
7
100
AcDbPolyline
 90
10
 70
0
 10
474.758512
 20
161.819090
 30
0.0
 10
455.708512
 20
161.819090
 30
0.0
 10
436.658512
 20
161.819090
 30
0.0
 10
436.658512
 20
160.125757
 30
0.0
 10
436.658512
 20
144.462423
 30
0.0
 10
436.658512
 20
142.769090
 30
0.0
 10
455.708512
 20
142.769090
 30
0.0
 10
474.758512
 20
142.769090
 30
0.0
 10
474.758512
 20
161.819090
 30
0.0
 10
474.758512
 20
161.819090
 30
0.0
  0
LWPOLYLINE
  5
13d
100
AcDbEntity
  8
Layer_1
 62
7
100
AcDbPolyline
 90
6
 70
0
 10
469.299290
 20
158.485340
 30
0.0
 10
469.264012
 20
144.515340
 30
0.0
 10
465.965540
 20
144.524089
 30
0.0
 10
465.992069
 20
158.494089
 30
0.0
 10
469.299375
 20
158.485340
 30
0.0
 10
469.299290
 20
158.485340
 30
0.0
  0
LWPOLYLINE
  5
13e
100
AcDbEntity
  8
Layer_1
 62
7
100
AcDbPolyline
 90
38
 70
0
 10
463.504901
 20
158.300146
 30
0.0
 10
463.504901
 20
154.798812
 30
0.0
 10
462.693512
 20
154.798812
 30
0.0
 10
462.693512
 20
149.789368
 30
0.0
 10
463.504901
 20
149.789368
 30
0.0
 10
463.504901
 20
146.296868
 30
0.0
 10
462.693512
 20
146.296868
 30
0.0
 10
462.693512
 20
145.309090
 30
0.0
 10
461.705734
 20
145.309090
 30
0.0
 10
461.705734
 20
144.497701
 30
0.0
 10
458.213234
 20
144.497701
 30
0.0
 10
458.213234
 20
145.309090
 30
0.0
 10
453.203790
 20
145.309090
 30
0.0
 10
453.203790
 20
144.497701
 30
0.0
 10
449.702484
 20
144.497701
 30
0.0
 10
449.702484
 20
145.309090
 30
0.0
 10
448.723512
 20
145.309090
 30
0.0
 10
448.723512
 20
146.296868
 30
0.0
 10
447.912123
 20
146.296868
 30
0.0
 10
447.912123
 20
149.789368
 30
0.0
 10
448.723512
 20
149.789368
 30
0.0
 10
448.723512
 20
154.798812
 30
0.0
 10
447.912123
 20
154.798812
 30
0.0
 10
447.912123
 20
158.300146
 30
0.0
 10
448.723512
 20
158.300146
 30
0.0
 10
448.723512
 20
159.279090
 30
0.0
 10
449.702484
 20
159.279090
 30
0.0
 10
449.702484
 20
160.090479
 30
0.0
 10
453.203790
 20
160.090479
 30
0.0
 10
453.203790
 20
159.279090
 30
0.0
 10
458.213234
 20
159.279090
 30
0.0
 10
458.213234
 20
160.090479
 30
0.0
 10
461.705734
 20
160.090479
 30
0.0
 10
461.705734
 20
159.279090
 30
0.0
 10
462.693512
 20
159.279090
 30
0.0
 10
462.693512
 20
158.300146
 30
0.0
 10
463.504901
 20
158.300146
 30
0.0
 10
463.504901
 20
158.300146
 30
0.0
  0
LWPOLYLINE
  5
13f
100
AcDbEntity
  8
Layer_1
 62
7
100
AcDbPolyline
 90
6
 70
0
 10
445.416234
 20
158.538257
 30
0.0
 10
445.389706
 20
144.568257
 30
0.0
 10
442.091233
 20
144.577005
 30
0.0
 10
442.117762
 20
158.547005
 30
0.0
 10
445.416234
 20
158.538257
 30
0.0
 10
445.416234
 20
158.538257
 30
0.0
  0
LWPOLYLINE
  5
140
100
AcDbEntity
  8
Layer_1
 62
7
100
AcDbPolyline
 90
8
 70
0
 10
408.083512
 20
157.056590
 30
0.0
 10
408.083512
 20
138.006590
 30
0.0
 10
427.133512
 20
138.006590
 30
0.0
 10
436.658512
 20
138.006590
 30
0.0
 10
436.658512
 20
157.056590
 30
0.0
 10
427.133512
 20
157.056590
 30
0.0
 10
408.083512
 20
157.056590
 30
0.0
 10
408.083512
 20
157.056590
 30
0.0
  0
LWPOLYLINE
  5
141
100
AcDbEntity
  8
Layer_1
 62
7
100
AcDbPolyline
 90
38
 70
0
 10
416.364984
 20
155.327979
 30
0.0
 10
419.866290
 20
155.327979
 30
0.0
 10
419.866290
 20
154.516590
 30
0.0
 10
424.875734
 20
154.516590
 30
0.0
 10
424.875734
 20
155.327979
 30
0.0
 10
428.368234
 20
155.327979
 30
0.0
 10
428.368234
 20
154.516590
 30
0.0
 10
429.356012
 20
154.516590
 30
0.0
 10
429.356012
 20
153.528812
 30
0.0
 10
430.167401
 20
153.528812
 30
0.0
 10
430.167401
 20
150.036312
 30
0.0
 10
429.356012
 20
150.036312
 30
0.0
 10
429.356012
 20
145.026868
 30
0.0
 10
430.167401
 20
145.026868
 30
0.0
 10
430.167401
 20
141.525548
 30
0.0
 10
429.356012
 20
141.525548
 30
0.0
 10
429.356012
 20
140.546590
 30
0.0
 10
428.368234
 20
140.546590
 30
0.0
 10
428.368234
 20
139.735201
 30
0.0
 10
424.875734
 20
139.735201
 30
0.0
 10
424.875734
 20
140.546590
 30
0.0
 10
419.866290
 20
140.546590
 30
0.0
 10
419.866290
 20
139.735201
 30
0.0
 10
416.364984
 20
139.735201
 30
0.0
 10
416.364984
 20
140.546590
 30
0.0
 10
415.386012
 20
140.546590
 30
0.0
 10
415.386012
 20
141.525548
 30
0.0
 10
414.574623
 20
141.525548
 30
0.0
 10
414.574623
 20
145.026868
 30
0.0
 10
415.386012
 20
145.026868
 30
0.0
 10
415.386012
 20
150.036312
 30
0.0
 10
414.574623
 20
150.036312
 30
0.0
 10
414.574623
 20
153.528812
 30
0.0
 10
415.386012
 20
153.528812
 30
0.0
 10
415.386012
 20
154.516590
 30
0.0
 10
416.364984
 20
154.516590
 30
0.0
 10
416.364984
 20
155.327979
 30
0.0
 10
416.364984
 20
155.327979
 30
0.0
  0
LWPOLYLINE
  5
142
100
AcDbEntity
  8
Layer_1
 62
7
100
AcDbPolyline
 90
6
 70
0
 10
408.083512
 20
161.819090
 30
0.0
 10
408.083512
 20
157.056590
 30
0.0
 10
436.658512
 20
157.056590
 30
0.0
 10
436.658512
 20
161.819090
 30
0.0
 10
408.083512
 20
161.819090
 30
0.0
 10
408.083512
 20
161.819090
 30
0.0
  0
LWPOLYLINE
  5
143
100
AcDbEntity
  8
Layer_1
 62
7
100
AcDbPolyline
 90
5
 70
0
 10
436.658512
 20
138.006562
 30
0.0
 10
408.083512
 20
138.006562
 30
0.0
 10
408.083512
 20
136.277799
 30
0.0
 10
436.658512
 20
136.277799
 30
0.0
 10
436.658512
 20
138.006562
 30
0.0
  0
LWPOLYLINE
  5
144
100
AcDbEntity
  8
Layer_1
 62
7
100
AcDbPolyline
 90
5
 70
0
 10
438.387264
 20
136.277866
 30
0.0
 10
438.387264
 20
141.040357
 30
0.0
 10
436.658502
 20
141.040357
 30
0.0
 10
436.658502
 20
136.277866
 30
0.0
 10
438.387264
 20
136.277866
 30
0.0
  0
LWPOLYLINE
  5
145
100
AcDbEntity
  8
Layer_1
 62
7
100
AcDbPolyline
 90
8
 70
0
 10
360.458512
 20
190.394104
 30
0.0
 10
341.408512
 20
190.394104
 30
0.0
 10
341.408512
 20
171.344090
 30
0.0
 10
341.408512
 20
161.819090
 30
0.0
 10
360.458512
 20
161.819090
 30
0.0
 10
360.458512
 20
171.344090
 30
0.0
 10
360.458512
 20
190.394104
 30
0.0
 10
360.458512
 20
190.394104
 30
0.0
  0
LWPOLYLINE
  5
146
100
AcDbEntity
  8
Layer_1
 62
7
100
AcDbPolyline
 90
38
 70
0
 10
358.729901
 20
182.112646
 30
0.0
 10
358.729901
 20
178.611312
 30
0.0
 10
357.918512
 20
178.611312
 30
0.0
 10
357.918512
 20
173.601868
 30
0.0
 10
358.729901
 20
173.601868
 30
0.0
 10
358.729901
 20
170.109368
 30
0.0
 10
357.918512
 20
170.109368
 30
0.0
 10
357.918512
 20
169.121590
 30
0.0
 10
356.930734
 20
169.121590
 30
0.0
 10
356.930734
 20
168.310201
 30
0.0
 10
353.438234
 20
168.310201
 30
0.0
 10
353.438234
 20
169.121590
 30
0.0
 10
348.428790
 20
169.121590
 30
0.0
 10
348.428790
 20
168.310201
 30
0.0
 10
344.927484
 20
168.310201
 30
0.0
 10
344.927484
 20
169.121590
 30
0.0
 10
343.948512
 20
169.121590
 30
0.0
 10
343.948512
 20
170.109368
 30
0.0
 10
343.137123
 20
170.109368
 30
0.0
 10
343.137123
 20
173.601868
 30
0.0
 10
343.948512
 20
173.601868
 30
0.0
 10
343.948512
 20
178.611312
 30
0.0
 10
343.137123
 20
178.611312
 30
0.0
 10
343.137123
 20
182.112646
 30
0.0
 10
343.948512
 20
182.112646
 30
0.0
 10
343.948512
 20
183.091604
 30
0.0
 10
344.927484
 20
183.091604
 30
0.0
 10
344.927484
 20
183.902993
 30
0.0
 10
348.428790
 20
183.902993
 30
0.0
 10
348.428790
 20
183.091604
 30
0.0
 10
353.438234
 20
183.091604
 30
0.0
 10
353.438234
 20
183.902993
 30
0.0
 10
356.930734
 20
183.902993
 30
0.0
 10
356.930734
 20
183.091604
 30
0.0
 10
357.918512
 20
183.091604
 30
0.0
 10
357.918512
 20
182.112646
 30
0.0
 10
358.729901
 20
182.112646
 30
0.0
 10
358.729901
 20
182.112646
 30
0.0
  0
LWPOLYLINE
  5
147
100
AcDbEntity
  8
Layer_1
 62
7
100
AcDbPolyline
 90
5
 70
0
 10
339.677756
 20
160.088684
 30
0.0
 10
339.677756
 20
154.038545
 30
0.0
 10
352.651173
 20
160.088684
 30
0.0
 10
339.677756
 20
160.088684
 30
0.0
 10
339.677756
 20
160.088684
 30
0.0
  0
LWPOLYLINE
  5
148
100
AcDbEntity
  8
Layer_1
 62
7
100
AcDbPolyline
 90
5
 70
0
 10
368.254760
 20
149.198307
 30
0.0
 10
368.254760
 20
160.090321
 30
0.0
 10
363.174760
 20
160.090321
 30
0.0
 10
368.254760
 20
149.198307
 30
0.0
 10
368.254760
 20
149.198307
 30
0.0
  0
LWPOLYLINE
  5
149
100
AcDbEntity
  8
Layer_1
 62
7
100
AcDbPolyline
 90
10
 70
0
 10
408.083512
 20
161.819090
 30
0.0
 10
389.033512
 20
161.819090
 30
0.0
 10
369.983512
 20
161.819090
 30
0.0
 10
369.983512
 20
160.125757
 30
0.0
 10
369.983512
 20
144.462423
 30
0.0
 10
369.983512
 20
142.769090
 30
0.0
 10
389.033512
 20
142.769090
 30
0.0
 10
408.083512
 20
142.769090
 30
0.0
 10
408.083512
 20
161.819090
 30
0.0
 10
408.083512
 20
161.819090
 30
0.0
  0
LWPOLYLINE
  5
14a
100
AcDbEntity
  8
Layer_1
 62
7
100
AcDbPolyline
 90
6
 70
0
 10
402.624290
 20
158.485340
 30
0.0
 10
402.589012
 20
144.515340
 30
0.0
 10
399.290540
 20
144.524089
 30
0.0
 10
399.317069
 20
158.494089
 30
0.0
 10
402.624375
 20
158.485340
 30
0.0
 10
402.624290
 20
158.485340
 30
0.0
  0
LWPOLYLINE
  5
14b
100
AcDbEntity
  8
Layer_1
 62
7
100
AcDbPolyline
 90
38
 70
0
 10
396.829901
 20
158.300146
 30
0.0
 10
396.829901
 20
154.798812
 30
0.0
 10
396.018512
 20
154.798812
 30
0.0
 10
396.018512
 20
149.789368
 30
0.0
 10
396.829901
 20
149.789368
 30
0.0
 10
396.829901
 20
146.296868
 30
0.0
 10
396.018512
 20
146.296868
 30
0.0
 10
396.018512
 20
145.309090
 30
0.0
 10
395.030734
 20
145.309090
 30
0.0
 10
395.030734
 20
144.497701
 30
0.0
 10
391.538234
 20
144.497701
 30
0.0
 10
391.538234
 20
145.309090
 30
0.0
 10
386.528790
 20
145.309090
 30
0.0
 10
386.528790
 20
144.497701
 30
0.0
 10
383.027484
 20
144.497701
 30
0.0
 10
383.027484
 20
145.309090
 30
0.0
 10
382.048512
 20
145.309090
 30
0.0
 10
382.048512
 20
146.296868
 30
0.0
 10
381.237123
 20
146.296868
 30
0.0
 10
381.237123
 20
149.789368
 30
0.0
 10
382.048512
 20
149.789368
 30
0.0
 10
382.048512
 20
154.798812
 30
0.0
 10
381.237123
 20
154.798812
 30
0.0
 10
381.237123
 20
158.300146
 30
0.0
 10
382.048512
 20
158.300146
 30
0.0
 10
382.048512
 20
159.279090
 30
0.0
 10
383.027484
 20
159.279090
 30
0.0
 10
383.027484
 20
160.090479
 30
0.0
 10
386.528790
 20
160.090479
 30
0.0
 10
386.528790
 20
159.279090
 30
0.0
 10
391.538234
 20
159.279090
 30
0.0
 10
391.538234
 20
160.090479
 30
0.0
 10
395.030734
 20
160.090479
 30
0.0
 10
395.030734
 20
159.279090
 30
0.0
 10
396.018512
 20
159.279090
 30
0.0
 10
396.018512
 20
158.300146
 30
0.0
 10
396.829901
 20
158.300146
 30
0.0
 10
396.829901
 20
158.300146
 30
0.0
  0
LWPOLYLINE
  5
14c
100
AcDbEntity
  8
Layer_1
 62
7
100
AcDbPolyline
 90
6
 70
0
 10
378.741234
 20
158.538257
 30
0.0
 10
378.714706
 20
144.568257
 30
0.0
 10
375.416233
 20
144.577005
 30
0.0
 10
375.442762
 20
158.547005
 30
0.0
 10
378.741234
 20
158.538257
 30
0.0
 10
378.741234
 20
158.538257
 30
0.0
  0
LWPOLYLINE
  5
14d
100
AcDbEntity
  8
Layer_1
 62
7
100
AcDbPolyline
 90
10
 70
0
 10
343.193793
 20
153.768204
 30
0.0
 10
351.244634
 20
136.503048
 30
0.0
 10
359.295559
 20
119.237870
 30
0.0
 10
360.830227
 20
119.953500
 30
0.0
 10
375.026033
 20
126.573116
 30
0.0
 10
376.560701
 20
127.288747
 30
0.0
 10
368.509832
 20
144.553917
 30
0.0
 10
360.458992
 20
161.819090
 30
0.0
 10
343.193793
 20
153.768201
 30
0.0
 10
343.193793
 20
153.768204
 30
0.0
  0
LWPOLYLINE
  5
14e
100
AcDbEntity
  8
Layer_1
 62
7
100
AcDbPolyline
 90
6
 70
0
 10
348.522346
 20
150.229366
 30
0.0
 10
361.198358
 20
156.101372
 30
0.0
 10
362.584464
 20
153.108242
 30
0.0
 10
349.912122
 20
147.228311
 30
0.0
 10
348.522346
 20
150.229417
 30
0.0
 10
348.522346
 20
150.229366
 30
0.0
  0
LWPOLYLINE
  5
14f
100
AcDbEntity
  8
Layer_1
 62
7
100
AcDbPolyline
 90
38
 70
0
 10
351.138970
 20
145.056131
 30
0.0
 10
354.312276
 20
146.535851
 30
0.0
 10
354.655205
 20
145.800492
 30
0.0
 10
359.195314
 20
147.917582
 30
0.0
 10
358.852442
 20
148.652969
 30
0.0
 10
362.017677
 20
150.128937
 30
0.0
 10
362.360605
 20
149.393571
 30
0.0
 10
363.255814
 20
149.811023
 30
0.0
 10
363.673277
 20
148.915802
 30
0.0
 10
364.408635
 20
149.258702
 30
0.0
 10
365.884629
 20
146.093411
 30
0.0
 10
365.149271
 20
145.750511
 30
0.0
 10
367.266361
 20
141.210402
 30
0.0
 10
368.001691
 20
141.553330
 30
0.0
 10
369.481439
 20
138.380080
 30
0.0
 10
368.746080
 20
138.037152
 30
0.0
 10
369.159790
 20
137.149902
 30
0.0
 10
368.264553
 20
136.732467
 30
0.0
 10
368.607481
 20
135.997080
 30
0.0
 10
365.442190
 20
134.521086
 30
0.0
 10
365.099290
 20
135.256473
 30
0.0
 10
360.559181
 20
133.139383
 30
0.0
 10
360.902081
 20
132.404024
 30
0.0
 10
357.728774
 20
130.924277
 30
0.0
 10
357.385874
 20
131.659635
 30
0.0
 10
356.498680
 20
131.245926
 30
0.0
 10
356.084942
 20
132.133176
 30
0.0
 10
355.349584
 20
131.790276
 30
0.0
 10
353.869865
 20
134.963526
 30
0.0
 10
354.605223
 20
135.306454
 30
0.0
 10
352.488161
 20
139.846535
 30
0.0
 10
351.752775
 20
139.503635
 30
0.0
 10
350.276781
 20
142.668898
 30
0.0
 10
351.012167
 20
143.011826
 30
0.0
 10
350.594704
 20
143.907035
 30
0.0
 10
351.481870
 20
144.320745
 30
0.0
 10
351.138970
 20
145.056131
 30
0.0
 10
351.138970
 20
145.056131
 30
0.0
  0
LWPOLYLINE
  5
150
100
AcDbEntity
  8
Layer_1
 62
7
100
AcDbPolyline
 90
6
 70
0
 10
358.567792
 20
128.561597
 30
0.0
 10
371.240135
 20
134.441528
 30
0.0
 10
372.626241
 20
131.448392
 30
0.0
 10
359.953870
 20
125.568461
 30
0.0
 10
358.567792
 20
128.561569
 30
0.0
 10
358.567792
 20
128.561597
 30
0.0
  0
LWPOLYLINE
  5
151
100
AcDbEntity
  8
Layer_1
 62
7
100
AcDbPolyline
 90
10
 70
0
 10
325.928623
 20
145.717322
 30
0.0
 10
333.979464
 20
128.452180
 30
0.0
 10
342.030389
 20
111.186973
 30
0.0
 10
343.565057
 20
111.902632
 30
0.0
 10
357.760863
 20
118.522239
 30
0.0
 10
359.295559
 20
119.237870
 30
0.0
 10
351.244634
 20
136.503048
 30
0.0
 10
343.193793
 20
153.768204
 30
0.0
 10
325.928623
 20
145.717322
 30
0.0
 10
325.928623
 20
145.717322
 30
0.0
  0
LWPOLYLINE
  5
152
100
AcDbEntity
  8
Layer_1
 62
7
100
AcDbPolyline
 90
6
 70
0
 10
331.257204
 20
142.178481
 30
0.0
 10
343.933187
 20
148.050481
 30
0.0
 10
345.319294
 20
145.057373
 30
0.0
 10
332.646951
 20
139.177442
 30
0.0
 10
331.257176
 20
142.178537
 30
0.0
 10
331.257204
 20
142.178481
 30
0.0
  0
LWPOLYLINE
  5
153
100
AcDbEntity
  8
Layer_1
 62
7
100
AcDbPolyline
 90
38
 70
0
 10
333.873800
 20
137.005263
 30
0.0
 10
337.047106
 20
138.484982
 30
0.0
 10
337.390034
 20
137.749624
 30
0.0
 10
341.930115
 20
139.866714
 30
0.0
 10
341.587215
 20
140.602072
 30
0.0
 10
344.752507
 20
142.078066
 30
0.0
 10
345.095407
 20
141.342680
 30
0.0
 10
345.990644
 20
141.760143
 30
0.0
 10
346.408079
 20
140.864906
 30
0.0
 10
347.143465
 20
141.207834
 30
0.0
 10
348.619431
 20
138.042542
 30
0.0
 10
347.884044
 20
137.699642
 30
0.0
 10
350.001134
 20
133.159533
 30
0.0
 10
350.736493
 20
133.502462
 30
0.0
 10
352.216212
 20
130.329183
 30
0.0
 10
351.480854
 20
129.986283
 30
0.0
 10
351.894592
 20
129.099033
 30
0.0
 10
350.999383
 20
128.681570
 30
0.0
 10
351.342283
 20
127.946212
 30
0.0
 10
348.177019
 20
126.470218
 30
0.0
 10
347.834091
 20
127.205576
 30
0.0
 10
343.293982
 20
125.088514
 30
0.0
 10
343.636910
 20
124.353119
 30
0.0
 10
340.463604
 20
122.873428
 30
0.0
 10
340.120676
 20
123.608758
 30
0.0
 10
339.233482
 20
123.195048
 30
0.0
 10
338.819744
 20
124.082299
 30
0.0
 10
338.084414
 20
123.739399
 30
0.0
 10
336.604666
 20
126.912657
 30
0.0
 10
337.340053
 20
127.255557
 30
0.0
 10
335.222991
 20
131.795666
 30
0.0
 10
334.487605
 20
131.452766
 30
0.0
 10
333.011639
 20
134.618030
 30
0.0
 10
333.746969
 20
134.960930
 30
0.0
 10
333.329506
 20
135.856167
 30
0.0
 10
334.216700
 20
136.269876
 30
0.0
 10
333.873800
 20
137.005263
 30
0.0
 10
333.873800
 20
137.005263
 30
0.0
  0
LWPOLYLINE
  5
154
100
AcDbEntity
  8
Layer_1
 62
7
100
AcDbPolyline
 90
6
 70
0
 10
341.302622
 20
120.510720
 30
0.0
 10
353.974993
 20
126.390659
 30
0.0
 10
355.361042
 20
123.397543
 30
0.0
 10
342.688757
 20
117.517612
 30
0.0
 10
341.302650
 20
120.510720
 30
0.0
 10
341.302622
 20
120.510720
 30
0.0
  0
LWPOLYLINE
  5
155
100
AcDbEntity
  8
Layer_1
 62
7
100
AcDbPolyline
 90
10
 70
0
 10
376.560701
 20
127.288747
 30
0.0
 10
359.295559
 20
119.237870
 30
0.0
 10
342.030389
 20
111.186973
 30
0.0
 10
342.746020
 20
109.652305
 30
0.0
 10
349.365626
 20
95.456527
 30
0.0
 10
350.081257
 20
93.921831
 30
0.0
 10
367.346428
 20
101.972728
 30
0.0
 10
384.611626
 20
110.023596
 30
0.0
 10
376.560701
 20
127.288747
 30
0.0
 10
376.560701
 20
127.288747
 30
0.0
  0
LWPOLYLINE
  5
156
100
AcDbEntity
  8
Layer_1
 62
7
100
AcDbPolyline
 90
6
 70
0
 10
373.021916
 20
121.960185
 30
0.0
 10
378.893888
 20
109.284146
 30
0.0
 10
375.900752
 20
107.898068
 30
0.0
 10
370.020794
 20
120.570382
 30
0.0
 10
373.021945
 20
121.960185
 30
0.0
 10
373.021916
 20
121.960185
 30
0.0
  0
LWPOLYLINE
  5
157
100
AcDbEntity
  8
Layer_1
 62
7
100
AcDbPolyline
 90
38
 70
0
 10
367.848614
 20
119.343534
 30
0.0
 10
369.328361
 20
116.170227
 30
0.0
 10
368.593003
 20
115.827327
 30
0.0
 10
370.710093
 20
111.287246
 30
0.0
 10
371.445423
 20
111.630146
 30
0.0
 10
372.921417
 20
108.464855
 30
0.0
 10
372.186059
 20
108.121955
 30
0.0
 10
372.603522
 20
107.226718
 30
0.0
 10
371.708285
 20
106.809283
 30
0.0
 10
372.051213
 20
106.073896
 30
0.0
 10
368.885922
 20
104.597902
 30
0.0
 10
368.542993
 20
105.333289
 30
0.0
 10
364.002913
 20
103.216199
 30
0.0
 10
364.345813
 20
102.480812
 30
0.0
 10
361.172534
 20
101.001121
 30
0.0
 10
360.829634
 20
101.736451
 30
0.0
 10
359.942384
 20
101.322742
 30
0.0
 10
359.524921
 20
102.217979
 30
0.0
 10
358.789563
 20
101.875079
 30
0.0
 10
357.313597
 20
105.040342
 30
0.0
 10
358.048927
 20
105.383270
 30
0.0
 10
355.931865
 20
109.923351
 30
0.0
 10
355.196479
 20
109.580451
 30
0.0
 10
353.716759
 20
112.753729
 30
0.0
 10
354.452118
 20
113.096629
 30
0.0
 10
354.038408
 20
113.983880
 30
0.0
 10
354.925658
 20
114.397589
 30
0.0
 10
354.582758
 20
115.133004
 30
0.0
 10
357.756008
 20
116.612695
 30
0.0
 10
358.098908
 20
115.877308
 30
0.0
 10
362.639017
 20
117.994370
 30
0.0
 10
362.296117
 20
118.729757
 30
0.0
 10
365.461381
 20
120.205751
 30
0.0
 10
365.804337
 20
119.470392
 30
0.0
 10
366.699518
 20
119.887856
 30
0.0
 10
367.113227
 20
119.000605
 30
0.0
 10
367.848586
 20
119.343534
 30
0.0
 10
367.848614
 20
119.343534
 30
0.0
  0
LWPOLYLINE
  5
158
100
AcDbEntity
  8
Layer_1
 62
7
100
AcDbPolyline
 90
6
 70
0
 10
351.354023
 20
111.914711
 30
0.0
 10
357.233982
 20
99.242397
 30
0.0
 10
354.240874
 20
97.856319
 30
0.0
 10
348.360972
 20
110.528633
 30
0.0
 10
351.354080
 20
111.914711
 30
0.0
 10
351.354023
 20
111.914711
 30
0.0
  0
LWPOLYLINE
  5
159
100
AcDbEntity
  8
Layer_1
 62
7
100
AcDbPolyline
 90
5
 70
0
 10
384.611599
 20
110.023596
 30
0.0
 10
350.081272
 20
93.921841
 30
0.0
 10
350.811879
 20
92.355050
 30
0.0
 10
385.342205
 20
108.456805
 30
0.0
 10
384.611599
 20
110.023596
 30
0.0
  0
LWPOLYLINE
  5
15a
100
AcDbEntity
  8
Layer_1
 62
7
100
AcDbPolyline
 90
5
 70
0
 10
350.811874
 20
92.355059
 30
0.0
 10
325.196384
 20
147.287655
 30
0.0
 10
323.629593
 20
146.557048
 30
0.0
 10
349.245083
 20
91.624452
 30
0.0
 10
350.811874
 20
92.355059
 30
0.0
  0
LWPOLYLINE
  5
15b
100
AcDbEntity
  8
Layer_1
 62
7
100
AcDbPolyline
 90
10
 70
0
 10
360.456367
 20
161.817298
 30
0.0
 10
385.344868
 20
108.459656
 30
0.0
 10
386.905895
 20
109.191670
 30
0.0
 10
371.251367
 20
142.767298
 30
0.0
 10
369.981367
 20
142.767298
 30
0.0
 10
369.981367
 20
144.460631
 30
0.0
 10
369.981367
 20
145.492506
 30
0.0
 10
362.370201
 20
161.817298
 30
0.0
 10
360.456367
 20
161.817298
 30
0.0
 10
360.456367
 20
161.817298
 30
0.0
  0
LWPOLYLINE
  5
15c
100
AcDbEntity
  8
Layer_1
 62
7
100
AcDbPolyline
 90
6
 70
0
 10
371.251367
 20
142.767295
 30
0.0
 10
372.053951
 20
141.038684
 30
0.0
 10
408.081367
 20
141.038684
 30
0.0
 10
408.081367
 20
142.767295
 30
0.0
 10
371.251367
 20
142.767295
 30
0.0
 10
371.251367
 20
142.767295
 30
0.0
  0
LWPOLYLINE
  5
15d
100
AcDbEntity
  8
Layer_1
 62
7
100
AcDbPolyline
 90
6
 70
0
 10
368.252756
 20
160.088684
 30
0.0
 10
368.252756
 20
149.196670
 30
0.0
 10
369.981367
 20
145.492503
 30
0.0
 10
369.981367
 20
160.088684
 30
0.0
 10
368.252756
 20
160.088684
 30
0.0
 10
368.252756
 20
160.088684
 30
0.0
  0
LWPOLYLINE
  5
15e
100
AcDbEntity
  8
Layer_1
 62
7
100
AcDbPolyline
 90
6
 70
0
 10
362.370201
 20
161.817295
 30
0.0
 10
363.172756
 20
160.088684
 30
0.0
 10
369.981367
 20
160.088684
 30
0.0
 10
369.981367
 20
161.817295
 30
0.0
 10
362.370201
 20
161.817295
 30
0.0
 10
362.370201
 20
161.817295
 30
0.0
  0
LWPOLYLINE
  5
15f
100
AcDbEntity
  8
Layer_1
 62
7
100
AcDbPolyline
 90
6
 70
0
 10
341.406367
 20
161.817295
 30
0.0
 10
341.406367
 20
160.088684
 30
0.0
 10
352.651173
 20
160.088684
 30
0.0
 10
356.355340
 20
161.817295
 30
0.0
 10
341.406367
 20
161.817295
 30
0.0
 10
341.406367
 20
161.817295
 30
0.0
  0
LWPOLYLINE
  5
160
100
AcDbEntity
  8
Layer_1
 62
7
100
AcDbPolyline
 90
6
 70
0
 10
242.758347
 20
182.059723
 30
0.0
 10
242.758347
 20
163.009709
 30
0.0
 10
223.708347
 20
163.009709
 30
0.0
 10
223.708347
 20
182.059723
 30
0.0
 10
242.758347
 20
182.059723
 30
0.0
 10
242.758347
 20
182.059723
 30
0.0
  0
LWPOLYLINE
  5
161
100
AcDbEntity
  8
Layer_1
 62
7
100
AcDbPolyline
 90
38
 70
0
 10
239.239374
 20
180.331098
 30
0.0
 10
235.738069
 20
180.331098
 30
0.0
 10
235.738069
 20
179.519709
 30
0.0
 10
230.728624
 20
179.519709
 30
0.0
 10
230.728624
 20
180.331098
 30
0.0
 10
227.236124
 20
180.331098
 30
0.0
 10
227.236124
 20
179.519709
 30
0.0
 10
226.248347
 20
179.519709
 30
0.0
 10
226.248347
 20
178.531931
 30
0.0
 10
225.436958
 20
178.531931
 30
0.0
 10
225.436958
 20
175.039431
 30
0.0
 10
226.248347
 20
175.039431
 30
0.0
 10
226.248347
 20
170.029987
 30
0.0
 10
225.436958
 20
170.029987
 30
0.0
 10
225.436958
 20
166.528682
 30
0.0
 10
226.248347
 20
166.528682
 30
0.0
 10
226.248347
 20
165.549709
 30
0.0
 10
227.236124
 20
165.549709
 30
0.0
 10
227.236124
 20
164.738320
 30
0.0
 10
230.728624
 20
164.738320
 30
0.0
 10
230.728624
 20
165.549709
 30
0.0
 10
235.738069
 20
165.549709
 30
0.0
 10
235.738069
 20
164.738320
 30
0.0
 10
239.239374
 20
164.738320
 30
0.0
 10
239.239374
 20
165.549709
 30
0.0
 10
240.218347
 20
165.549709
 30
0.0
 10
240.218347
 20
166.528682
 30
0.0
 10
241.029736
 20
166.528682
 30
0.0
 10
241.029736
 20
170.029987
 30
0.0
 10
240.218347
 20
170.029987
 30
0.0
 10
240.218347
 20
175.039431
 30
0.0
 10
241.029736
 20
175.039431
 30
0.0
 10
241.029736
 20
178.531931
 30
0.0
 10
240.218347
 20
178.531931
 30
0.0
 10
240.218347
 20
179.519709
 30
0.0
 10
239.239374
 20
179.519709
 30
0.0
 10
239.239374
 20
180.331098
 30
0.0
 10
239.239374
 20
180.331098
 30
0.0
  0
LWPOLYLINE
  5
162
100
AcDbEntity
  8
Layer_1
 62
7
100
AcDbPolyline
 90
6
 70
0
 10
242.758347
 20
220.159723
 30
0.0
 10
242.758347
 20
201.109723
 30
0.0
 10
223.708347
 20
201.109723
 30
0.0
 10
223.708347
 20
220.159723
 30
0.0
 10
242.758347
 20
220.159723
 30
0.0
 10
242.758347
 20
220.159723
 30
0.0
  0
LWPOLYLINE
  5
163
100
AcDbEntity
  8
Layer_1
 62
7
100
AcDbPolyline
 90
38
 70
0
 10
239.239374
 20
218.431112
 30
0.0
 10
235.738069
 20
218.431112
 30
0.0
 10
235.738069
 20
217.619723
 30
0.0
 10
230.728624
 20
217.619723
 30
0.0
 10
230.728624
 20
218.431112
 30
0.0
 10
227.236124
 20
218.431112
 30
0.0
 10
227.236124
 20
217.619723
 30
0.0
 10
226.248347
 20
217.619723
 30
0.0
 10
226.248347
 20
216.631946
 30
0.0
 10
225.436958
 20
216.631946
 30
0.0
 10
225.436958
 20
213.139446
 30
0.0
 10
226.248347
 20
213.139446
 30
0.0
 10
226.248347
 20
208.130001
 30
0.0
 10
225.436958
 20
208.130001
 30
0.0
 10
225.436958
 20
204.628682
 30
0.0
 10
226.248347
 20
204.628682
 30
0.0
 10
226.248347
 20
203.649723
 30
0.0
 10
227.236124
 20
203.649723
 30
0.0
 10
227.236124
 20
202.838334
 30
0.0
 10
230.728624
 20
202.838334
 30
0.0
 10
230.728624
 20
203.649723
 30
0.0
 10
235.738069
 20
203.649723
 30
0.0
 10
235.738069
 20
202.838334
 30
0.0
 10
239.239374
 20
202.838334
 30
0.0
 10
239.239374
 20
203.649723
 30
0.0
 10
240.218347
 20
203.649723
 30
0.0
 10
240.218347
 20
204.628682
 30
0.0
 10
241.029736
 20
204.628682
 30
0.0
 10
241.029736
 20
208.130001
 30
0.0
 10
240.218347
 20
208.130001
 30
0.0
 10
240.218347
 20
213.139446
 30
0.0
 10
241.029736
 20
213.139446
 30
0.0
 10
241.029736
 20
216.631946
 30
0.0
 10
240.218347
 20
216.631946
 30
0.0
 10
240.218347
 20
217.619723
 30
0.0
 10
239.239374
 20
217.619723
 30
0.0
 10
239.239374
 20
218.431112
 30
0.0
 10
239.239374
 20
218.431112
 30
0.0
  0
LWPOLYLINE
  5
164
100
AcDbEntity
  8
Layer_1
 62
7
100
AcDbPolyline
 90
6
 70
0
 10
242.758347
 20
201.109723
 30
0.0
 10
242.758347
 20
182.059726
 30
0.0
 10
223.708347
 20
182.059726
 30
0.0
 10
223.708347
 20
201.109726
 30
0.0
 10
242.758347
 20
201.109726
 30
0.0
 10
242.758347
 20
201.109723
 30
0.0
  0
LWPOLYLINE
  5
165
100
AcDbEntity
  8
Layer_1
 62
7
100
AcDbPolyline
 90
38
 70
0
 10
239.239374
 20
199.381112
 30
0.0
 10
235.738069
 20
199.381112
 30
0.0
 10
235.738069
 20
198.569723
 30
0.0
 10
230.728624
 20
198.569723
 30
0.0
 10
230.728624
 20
199.381112
 30
0.0
 10
227.236124
 20
199.381112
 30
0.0
 10
227.236124
 20
198.569723
 30
0.0
 10
226.248347
 20
198.569723
 30
0.0
 10
226.248347
 20
197.581946
 30
0.0
 10
225.436958
 20
197.581946
 30
0.0
 10
225.436958
 20
194.089446
 30
0.0
 10
226.248347
 20
194.089446
 30
0.0
 10
226.248347
 20
189.080004
 30
0.0
 10
225.436958
 20
189.080004
 30
0.0
 10
225.436958
 20
185.578685
 30
0.0
 10
226.248347
 20
185.578685
 30
0.0
 10
226.248347
 20
184.599726
 30
0.0
 10
227.236124
 20
184.599726
 30
0.0
 10
227.236124
 20
183.788337
 30
0.0
 10
230.728624
 20
183.788337
 30
0.0
 10
230.728624
 20
184.599726
 30
0.0
 10
235.738069
 20
184.599726
 30
0.0
 10
235.738069
 20
183.788337
 30
0.0
 10
239.239374
 20
183.788337
 30
0.0
 10
239.239374
 20
184.599726
 30
0.0
 10
240.218347
 20
184.599726
 30
0.0
 10
240.218347
 20
185.578685
 30
0.0
 10
241.029736
 20
185.578685
 30
0.0
 10
241.029736
 20
189.080004
 30
0.0
 10
240.218347
 20
189.080004
 30
0.0
 10
240.218347
 20
194.089448
 30
0.0
 10
241.029736
 20
194.089448
 30
0.0
 10
241.029736
 20
197.581948
 30
0.0
 10
240.218347
 20
197.581948
 30
0.0
 10
240.218347
 20
198.569726
 30
0.0
 10
239.239374
 20
198.569726
 30
0.0
 10
239.239374
 20
199.381115
 30
0.0
 10
239.239374
 20
199.381112
 30
0.0
  0
LWPOLYLINE
  5
166
100
AcDbEntity
  8
Layer_1
 62
7
100
AcDbPolyline
 90
6
 70
0
 10
223.708347
 20
222.540971
 30
0.0
 10
223.708347
 20
203.490971
 30
0.0
 10
204.658347
 20
203.490971
 30
0.0
 10
204.658347
 20
222.540971
 30
0.0
 10
223.708347
 20
222.540971
 30
0.0
 10
223.708347
 20
222.540971
 30
0.0
  0
LWPOLYLINE
  5
167
100
AcDbEntity
  8
Layer_1
 62
7
100
AcDbPolyline
 90
38
 70
0
 10
220.189374
 20
220.812359
 30
0.0
 10
216.688069
 20
220.812359
 30
0.0
 10
216.688069
 20
220.000971
 30
0.0
 10
211.678624
 20
220.000971
 30
0.0
 10
211.678624
 20
220.812359
 30
0.0
 10
208.186124
 20
220.812359
 30
0.0
 10
208.186124
 20
220.000971
 30
0.0
 10
207.198347
 20
220.000971
 30
0.0
 10
207.198347
 20
219.013193
 30
0.0
 10
206.386958
 20
219.013193
 30
0.0
 10
206.386958
 20
215.520693
 30
0.0
 10
207.198347
 20
215.520693
 30
0.0
 10
207.198347
 20
210.511248
 30
0.0
 10
206.386958
 20
210.511248
 30
0.0
 10
206.386958
 20
207.009929
 30
0.0
 10
207.198347
 20
207.009929
 30
0.0
 10
207.198347
 20
206.030971
 30
0.0
 10
208.186124
 20
206.030971
 30
0.0
 10
208.186124
 20
205.219582
 30
0.0
 10
211.678624
 20
205.219582
 30
0.0
 10
211.678624
 20
206.030971
 30
0.0
 10
216.688069
 20
206.030971
 30
0.0
 10
216.688069
 20
205.219582
 30
0.0
 10
220.189374
 20
205.219582
 30
0.0
 10
220.189374
 20
206.030971
 30
0.0
 10
221.168347
 20
206.030971
 30
0.0
 10
221.168347
 20
207.009929
 30
0.0
 10
221.979736
 20
207.009929
 30
0.0
 10
221.979736
 20
210.511248
 30
0.0
 10
221.168347
 20
210.511248
 30
0.0
 10
221.168347
 20
215.520693
 30
0.0
 10
221.979736
 20
215.520693
 30
0.0
 10
221.979736
 20
219.013193
 30
0.0
 10
221.168347
 20
219.013193
 30
0.0
 10
221.168347
 20
220.000971
 30
0.0
 10
220.189374
 20
220.000971
 30
0.0
 10
220.189374
 20
220.812359
 30
0.0
 10
220.189374
 20
220.812359
 30
0.0
  0
LWPOLYLINE
  5
168
100
AcDbEntity
  8
Layer_1
 62
7
100
AcDbPolyline
 90
6
 70
0
 10
223.708347
 20
203.490971
 30
0.0
 10
223.708347
 20
184.440971
 30
0.0
 10
204.658347
 20
184.440971
 30
0.0
 10
204.658347
 20
203.490971
 30
0.0
 10
223.708347
 20
203.490971
 30
0.0
 10
223.708347
 20
203.490971
 30
0.0
  0
LWPOLYLINE
  5
169
100
AcDbEntity
  8
Layer_1
 62
7
100
AcDbPolyline
 90
38
 70
0
 10
220.189374
 20
201.762359
 30
0.0
 10
216.688069
 20
201.762359
 30
0.0
 10
216.688069
 20
200.950971
 30
0.0
 10
211.678624
 20
200.950971
 30
0.0
 10
211.678624
 20
201.762359
 30
0.0
 10
208.186124
 20
201.762359
 30
0.0
 10
208.186124
 20
200.950971
 30
0.0
 10
207.198347
 20
200.950971
 30
0.0
 10
207.198347
 20
199.963193
 30
0.0
 10
206.386958
 20
199.963193
 30
0.0
 10
206.386958
 20
196.470693
 30
0.0
 10
207.198347
 20
196.470693
 30
0.0
 10
207.198347
 20
191.461248
 30
0.0
 10
206.386958
 20
191.461248
 30
0.0
 10
206.386958
 20
187.959929
 30
0.0
 10
207.198347
 20
187.959929
 30
0.0
 10
207.198347
 20
186.980971
 30
0.0
 10
208.186124
 20
186.980971
 30
0.0
 10
208.186124
 20
186.169582
 30
0.0
 10
211.678624
 20
186.169582
 30
0.0
 10
211.678624
 20
186.980971
 30
0.0
 10
216.688069
 20
186.980971
 30
0.0
 10
216.688069
 20
186.169582
 30
0.0
 10
220.189374
 20
186.169582
 30
0.0
 10
220.189374
 20
186.980971
 30
0.0
 10
221.168347
 20
186.980971
 30
0.0
 10
221.168347
 20
187.959929
 30
0.0
 10
221.979736
 20
187.959929
 30
0.0
 10
221.979736
 20
191.461248
 30
0.0
 10
221.168347
 20
191.461248
 30
0.0
 10
221.168347
 20
196.470693
 30
0.0
 10
221.979736
 20
196.470693
 30
0.0
 10
221.979736
 20
199.963193
 30
0.0
 10
221.168347
 20
199.963193
 30
0.0
 10
221.168347
 20
200.950971
 30
0.0
 10
220.189374
 20
200.950971
 30
0.0
 10
220.189374
 20
201.762359
 30
0.0
 10
220.189374
 20
201.762359
 30
0.0
  0
LWPOLYLINE
  5
16a
100
AcDbEntity
  8
Layer_1
 62
7
100
AcDbPolyline
 90
6
 70
0
 10
223.708347
 20
184.440971
 30
0.0
 10
223.708347
 20
165.390959
 30
0.0
 10
204.658347
 20
165.390959
 30
0.0
 10
204.658347
 20
184.440971
 30
0.0
 10
223.708347
 20
184.440971
 30
0.0
 10
223.708347
 20
184.440971
 30
0.0
  0
LWPOLYLINE
  5
16b
100
AcDbEntity
  8
Layer_1
 62
7
100
AcDbPolyline
 90
38
 70
0
 10
220.189374
 20
182.712359
 30
0.0
 10
216.688069
 20
182.712359
 30
0.0
 10
216.688069
 20
181.900971
 30
0.0
 10
211.678624
 20
181.900971
 30
0.0
 10
211.678624
 20
182.712359
 30
0.0
 10
208.186124
 20
182.712359
 30
0.0
 10
208.186124
 20
181.900971
 30
0.0
 10
207.198347
 20
181.900971
 30
0.0
 10
207.198347
 20
180.913181
 30
0.0
 10
206.386958
 20
180.913181
 30
0.0
 10
206.386958
 20
177.420681
 30
0.0
 10
207.198347
 20
177.420681
 30
0.0
 10
207.198347
 20
172.411237
 30
0.0
 10
206.386958
 20
172.411237
 30
0.0
 10
206.386958
 20
168.909932
 30
0.0
 10
207.198347
 20
168.909932
 30
0.0
 10
207.198347
 20
167.930959
 30
0.0
 10
208.186124
 20
167.930959
 30
0.0
 10
208.186124
 20
167.119570
 30
0.0
 10
211.678624
 20
167.119570
 30
0.0
 10
211.678624
 20
167.930959
 30
0.0
 10
216.688069
 20
167.930959
 30
0.0
 10
216.688069
 20
167.119570
 30
0.0
 10
220.189374
 20
167.119570
 30
0.0
 10
220.189374
 20
167.930959
 30
0.0
 10
221.168347
 20
167.930959
 30
0.0
 10
221.168347
 20
168.909932
 30
0.0
 10
221.979736
 20
168.909932
 30
0.0
 10
221.979736
 20
172.411237
 30
0.0
 10
221.168347
 20
172.411237
 30
0.0
 10
221.168347
 20
177.420681
 30
0.0
 10
221.979736
 20
177.420681
 30
0.0
 10
221.979736
 20
180.913181
 30
0.0
 10
221.168347
 20
180.913181
 30
0.0
 10
221.168347
 20
181.900971
 30
0.0
 10
220.189374
 20
181.900971
 30
0.0
 10
220.189374
 20
182.712359
 30
0.0
 10
220.189374
 20
182.712359
 30
0.0
  0
LWPOLYLINE
  5
16c
100
AcDbEntity
  8
Layer_1
 62
7
100
AcDbPolyline
 90
6
 70
0
 10
204.658347
 20
227.303468
 30
0.0
 10
204.658347
 20
208.253468
 30
0.0
 10
185.608347
 20
208.253468
 30
0.0
 10
185.608347
 20
227.303468
 30
0.0
 10
204.658347
 20
227.303468
 30
0.0
 10
204.658347
 20
227.303468
 30
0.0
  0
LWPOLYLINE
  5
16d
100
AcDbEntity
  8
Layer_1
 62
7
100
AcDbPolyline
 90
38
 70
0
 10
201.139374
 20
225.574857
 30
0.0
 10
197.638069
 20
225.574857
 30
0.0
 10
197.638069
 20
224.763468
 30
0.0
 10
192.628624
 20
224.763468
 30
0.0
 10
192.628624
 20
225.574857
 30
0.0
 10
189.136124
 20
225.574857
 30
0.0
 10
189.136124
 20
224.763468
 30
0.0
 10
188.148347
 20
224.763468
 30
0.0
 10
188.148347
 20
223.775690
 30
0.0
 10
187.336958
 20
223.775690
 30
0.0
 10
187.336958
 20
220.283190
 30
0.0
 10
188.148347
 20
220.283190
 30
0.0
 10
188.148347
 20
215.273746
 30
0.0
 10
187.336958
 20
215.273746
 30
0.0
 10
187.336958
 20
211.772426
 30
0.0
 10
188.148347
 20
211.772426
 30
0.0
 10
188.148347
 20
210.793468
 30
0.0
 10
189.136124
 20
210.793468
 30
0.0
 10
189.136124
 20
209.982079
 30
0.0
 10
192.628624
 20
209.982079
 30
0.0
 10
192.628624
 20
210.793468
 30
0.0
 10
197.638069
 20
210.793468
 30
0.0
 10
197.638069
 20
209.982079
 30
0.0
 10
201.139374
 20
209.982079
 30
0.0
 10
201.139374
 20
210.793468
 30
0.0
 10
202.118347
 20
210.793468
 30
0.0
 10
202.118347
 20
211.772426
 30
0.0
 10
202.929736
 20
211.772426
 30
0.0
 10
202.929736
 20
215.273746
 30
0.0
 10
202.118347
 20
215.273746
 30
0.0
 10
202.118347
 20
220.283190
 30
0.0
 10
202.929736
 20
220.283190
 30
0.0
 10
202.929736
 20
223.775690
 30
0.0
 10
202.118347
 20
223.775690
 30
0.0
 10
202.118347
 20
224.763468
 30
0.0
 10
201.139374
 20
224.763468
 30
0.0
 10
201.139374
 20
225.574857
 30
0.0
 10
201.139374
 20
225.574857
 30
0.0
  0
LWPOLYLINE
  5
16e
100
AcDbEntity
  8
Layer_1
 62
7
100
AcDbPolyline
 90
6
 70
0
 10
204.658347
 20
208.253468
 30
0.0
 10
204.658347
 20
189.203468
 30
0.0
 10
185.608347
 20
189.203468
 30
0.0
 10
185.608347
 20
208.253468
 30
0.0
 10
204.658347
 20
208.253468
 30
0.0
 10
204.658347
 20
208.253468
 30
0.0
  0
LWPOLYLINE
  5
16f
100
AcDbEntity
  8
Layer_1
 62
7
100
AcDbPolyline
 90
38
 70
0
 10
201.139374
 20
206.524857
 30
0.0
 10
197.638069
 20
206.524857
 30
0.0
 10
197.638069
 20
205.713468
 30
0.0
 10
192.628624
 20
205.713468
 30
0.0
 10
192.628624
 20
206.524857
 30
0.0
 10
189.136124
 20
206.524857
 30
0.0
 10
189.136124
 20
205.713468
 30
0.0
 10
188.148347
 20
205.713468
 30
0.0
 10
188.148347
 20
204.725690
 30
0.0
 10
187.336958
 20
204.725690
 30
0.0
 10
187.336958
 20
201.233190
 30
0.0
 10
188.148347
 20
201.233190
 30
0.0
 10
188.148347
 20
196.223746
 30
0.0
 10
187.336958
 20
196.223746
 30
0.0
 10
187.336958
 20
192.722426
 30
0.0
 10
188.148347
 20
192.722426
 30
0.0
 10
188.148347
 20
191.743468
 30
0.0
 10
189.136124
 20
191.743468
 30
0.0
 10
189.136124
 20
190.932079
 30
0.0
 10
192.628624
 20
190.932079
 30
0.0
 10
192.628624
 20
191.743468
 30
0.0
 10
197.638069
 20
191.743468
 30
0.0
 10
197.638069
 20
190.932079
 30
0.0
 10
201.139374
 20
190.932079
 30
0.0
 10
201.139374
 20
191.743468
 30
0.0
 10
202.118347
 20
191.743468
 30
0.0
 10
202.118347
 20
192.722426
 30
0.0
 10
202.929736
 20
192.722426
 30
0.0
 10
202.929736
 20
196.223746
 30
0.0
 10
202.118347
 20
196.223746
 30
0.0
 10
202.118347
 20
201.233190
 30
0.0
 10
202.929736
 20
201.233190
 30
0.0
 10
202.929736
 20
204.725690
 30
0.0
 10
202.118347
 20
204.725690
 30
0.0
 10
202.118347
 20
205.713468
 30
0.0
 10
201.139374
 20
205.713468
 30
0.0
 10
201.139374
 20
206.524857
 30
0.0
 10
201.139374
 20
206.524857
 30
0.0
  0
LWPOLYLINE
  5
170
100
AcDbEntity
  8
Layer_1
 62
7
100
AcDbPolyline
 90
6
 70
0
 10
204.658347
 20
189.203468
 30
0.0
 10
204.658347
 20
170.153459
 30
0.0
 10
185.608347
 20
170.153459
 30
0.0
 10
185.608347
 20
189.203468
 30
0.0
 10
204.658347
 20
189.203468
 30
0.0
 10
204.658347
 20
189.203468
 30
0.0
  0
LWPOLYLINE
  5
171
100
AcDbEntity
  8
Layer_1
 62
7
100
AcDbPolyline
 90
38
 70
0
 10
201.139374
 20
187.474857
 30
0.0
 10
197.638069
 20
187.474857
 30
0.0
 10
197.638069
 20
186.663468
 30
0.0
 10
192.628624
 20
186.663468
 30
0.0
 10
192.628624
 20
187.474857
 30
0.0
 10
189.136124
 20
187.474857
 30
0.0
 10
189.136124
 20
186.663468
 30
0.0
 10
188.148347
 20
186.663468
 30
0.0
 10
188.148347
 20
185.675690
 30
0.0
 10
187.336958
 20
185.675690
 30
0.0
 10
187.336958
 20
182.183190
 30
0.0
 10
188.148347
 20
182.183190
 30
0.0
 10
188.148347
 20
177.173737
 30
0.0
 10
187.336958
 20
177.173737
 30
0.0
 10
187.336958
 20
173.672432
 30
0.0
 10
188.148347
 20
173.672432
 30
0.0
 10
188.148347
 20
172.693459
 30
0.0
 10
189.136124
 20
172.693459
 30
0.0
 10
189.136124
 20
171.882070
 30
0.0
 10
192.628624
 20
171.882070
 30
0.0
 10
192.628624
 20
172.693459
 30
0.0
 10
197.638069
 20
172.693459
 30
0.0
 10
197.638069
 20
171.882070
 30
0.0
 10
201.139374
 20
171.882070
 30
0.0
 10
201.139374
 20
172.693459
 30
0.0
 10
202.118347
 20
172.693459
 30
0.0
 10
202.118347
 20
173.672432
 30
0.0
 10
202.929736
 20
173.672432
 30
0.0
 10
202.929736
 20
177.173737
 30
0.0
 10
202.118347
 20
177.173737
 30
0.0
 10
202.118347
 20
182.183190
 30
0.0
 10
202.929736
 20
182.183190
 30
0.0
 10
202.929736
 20
185.675690
 30
0.0
 10
202.118347
 20
185.675690
 30
0.0
 10
202.118347
 20
186.663468
 30
0.0
 10
201.139374
 20
186.663468
 30
0.0
 10
201.139374
 20
187.474857
 30
0.0
 10
201.139374
 20
187.474857
 30
0.0
  0
LWPOLYLINE
  5
172
100
AcDbEntity
  8
Layer_1
 62
7
100
AcDbPolyline
 90
6
 70
0
 10
185.608347
 20
224.922221
 30
0.0
 10
185.608347
 20
205.872221
 30
0.0
 10
166.558347
 20
205.872221
 30
0.0
 10
166.558347
 20
224.922221
 30
0.0
 10
185.608347
 20
224.922221
 30
0.0
 10
185.608347
 20
224.922221
 30
0.0
  0
LWPOLYLINE
  5
173
100
AcDbEntity
  8
Layer_1
 62
7
100
AcDbPolyline
 90
38
 70
0
 10
182.089374
 20
223.193609
 30
0.0
 10
178.588069
 20
223.193609
 30
0.0
 10
178.588069
 20
222.382221
 30
0.0
 10
173.578624
 20
222.382221
 30
0.0
 10
173.578624
 20
223.193609
 30
0.0
 10
170.086124
 20
223.193609
 30
0.0
 10
170.086124
 20
222.382221
 30
0.0
 10
169.098347
 20
222.382221
 30
0.0
 10
169.098347
 20
221.394443
 30
0.0
 10
168.286958
 20
221.394443
 30
0.0
 10
168.286958
 20
217.901943
 30
0.0
 10
169.098347
 20
217.901943
 30
0.0
 10
169.098347
 20
212.892498
 30
0.0
 10
168.286958
 20
212.892498
 30
0.0
 10
168.286958
 20
209.391179
 30
0.0
 10
169.098347
 20
209.391179
 30
0.0
 10
169.098347
 20
208.412221
 30
0.0
 10
170.086124
 20
208.412221
 30
0.0
 10
170.086124
 20
207.600832
 30
0.0
 10
173.578624
 20
207.600832
 30
0.0
 10
173.578624
 20
208.412221
 30
0.0
 10
178.588069
 20
208.412221
 30
0.0
 10
178.588069
 20
207.600832
 30
0.0
 10
182.089374
 20
207.600832
 30
0.0
 10
182.089374
 20
208.412221
 30
0.0
 10
183.068347
 20
208.412221
 30
0.0
 10
183.068347
 20
209.391179
 30
0.0
 10
183.879736
 20
209.391179
 30
0.0
 10
183.879736
 20
212.892498
 30
0.0
 10
183.068347
 20
212.892498
 30
0.0
 10
183.068347
 20
217.901943
 30
0.0
 10
183.879736
 20
217.901943
 30
0.0
 10
183.879736
 20
221.394443
 30
0.0
 10
183.068347
 20
221.394443
 30
0.0
 10
183.068347
 20
222.382221
 30
0.0
 10
182.089374
 20
222.382221
 30
0.0
 10
182.089374
 20
223.193609
 30
0.0
 10
182.089374
 20
223.193609
 30
0.0
  0
LWPOLYLINE
  5
174
100
AcDbEntity
  8
Layer_1
 62
7
100
AcDbPolyline
 90
6
 70
0
 10
185.608347
 20
205.872221
 30
0.0
 10
185.608347
 20
186.822221
 30
0.0
 10
166.558347
 20
186.822221
 30
0.0
 10
166.558347
 20
205.872221
 30
0.0
 10
185.608347
 20
205.872221
 30
0.0
 10
185.608347
 20
205.872221
 30
0.0
  0
LWPOLYLINE
  5
175
100
AcDbEntity
  8
Layer_1
 62
7
100
AcDbPolyline
 90
38
 70
0
 10
182.089374
 20
204.143609
 30
0.0
 10
178.588069
 20
204.143609
 30
0.0
 10
178.588069
 20
203.332221
 30
0.0
 10
173.578624
 20
203.332221
 30
0.0
 10
173.578624
 20
204.143609
 30
0.0
 10
170.086124
 20
204.143609
 30
0.0
 10
170.086124
 20
203.332221
 30
0.0
 10
169.098347
 20
203.332221
 30
0.0
 10
169.098347
 20
202.344443
 30
0.0
 10
168.286958
 20
202.344443
 30
0.0
 10
168.286958
 20
198.851943
 30
0.0
 10
169.098347
 20
198.851943
 30
0.0
 10
169.098347
 20
193.842498
 30
0.0
 10
168.286958
 20
193.842498
 30
0.0
 10
168.286958
 20
190.341179
 30
0.0
 10
169.098347
 20
190.341179
 30
0.0
 10
169.098347
 20
189.362221
 30
0.0
 10
170.086124
 20
189.362221
 30
0.0
 10
170.086124
 20
188.550832
 30
0.0
 10
173.578624
 20
188.550832
 30
0.0
 10
173.578624
 20
189.362221
 30
0.0
 10
178.588069
 20
189.362221
 30
0.0
 10
178.588069
 20
188.550832
 30
0.0
 10
182.089374
 20
188.550832
 30
0.0
 10
182.089374
 20
189.362221
 30
0.0
 10
183.068347
 20
189.362221
 30
0.0
 10
183.068347
 20
190.341179
 30
0.0
 10
183.879736
 20
190.341179
 30
0.0
 10
183.879736
 20
193.842498
 30
0.0
 10
183.068347
 20
193.842498
 30
0.0
 10
183.068347
 20
198.851943
 30
0.0
 10
183.879736
 20
198.851943
 30
0.0
 10
183.879736
 20
202.344443
 30
0.0
 10
183.068347
 20
202.344443
 30
0.0
 10
183.068347
 20
203.332221
 30
0.0
 10
182.089374
 20
203.332221
 30
0.0
 10
182.089374
 20
204.143609
 30
0.0
 10
182.089374
 20
204.143609
 30
0.0
  0
LWPOLYLINE
  5
176
100
AcDbEntity
  8
Layer_1
 62
7
100
AcDbPolyline
 90
6
 70
0
 10
185.608347
 20
186.822221
 30
0.0
 10
185.608347
 20
167.772209
 30
0.0
 10
166.558347
 20
167.772209
 30
0.0
 10
166.558347
 20
186.822221
 30
0.0
 10
185.608347
 20
186.822221
 30
0.0
 10
185.608347
 20
186.822221
 30
0.0
  0
LWPOLYLINE
  5
177
100
AcDbEntity
  8
Layer_1
 62
7
100
AcDbPolyline
 90
38
 70
0
 10
182.089374
 20
185.093609
 30
0.0
 10
178.588069
 20
185.093609
 30
0.0
 10
178.588069
 20
184.282221
 30
0.0
 10
173.578624
 20
184.282221
 30
0.0
 10
173.578624
 20
185.093609
 30
0.0
 10
170.086124
 20
185.093609
 30
0.0
 10
170.086124
 20
184.282221
 30
0.0
 10
169.098347
 20
184.282221
 30
0.0
 10
169.098347
 20
183.294443
 30
0.0
 10
168.286958
 20
183.294443
 30
0.0
 10
168.286958
 20
179.801931
 30
0.0
 10
169.098347
 20
179.801931
 30
0.0
 10
169.098347
 20
174.792487
 30
0.0
 10
168.286958
 20
174.792487
 30
0.0
 10
168.286958
 20
171.291182
 30
0.0
 10
169.098347
 20
171.291182
 30
0.0
 10
169.098347
 20
170.312209
 30
0.0
 10
170.086124
 20
170.312209
 30
0.0
 10
170.086124
 20
169.500820
 30
0.0
 10
173.578624
 20
169.500820
 30
0.0
 10
173.578624
 20
170.312209
 30
0.0
 10
178.588069
 20
170.312209
 30
0.0
 10
178.588069
 20
169.500820
 30
0.0
 10
182.089374
 20
169.500820
 30
0.0
 10
182.089374
 20
170.312209
 30
0.0
 10
183.068347
 20
170.312209
 30
0.0
 10
183.068347
 20
171.291182
 30
0.0
 10
183.879736
 20
171.291182
 30
0.0
 10
183.879736
 20
174.792487
 30
0.0
 10
183.068347
 20
174.792487
 30
0.0
 10
183.068347
 20
179.801931
 30
0.0
 10
183.879736
 20
179.801931
 30
0.0
 10
183.879736
 20
183.294443
 30
0.0
 10
183.068347
 20
183.294443
 30
0.0
 10
183.068347
 20
184.282221
 30
0.0
 10
182.089374
 20
184.282221
 30
0.0
 10
182.089374
 20
185.093609
 30
0.0
 10
182.089374
 20
185.093609
 30
0.0
  0
LWPOLYLINE
  5
178
100
AcDbEntity
  8
Layer_1
 62
7
100
AcDbPolyline
 90
6
 70
0
 10
166.558347
 20
220.159721
 30
0.0
 10
166.558347
 20
201.109721
 30
0.0
 10
147.508347
 20
201.109721
 30
0.0
 10
147.508347
 20
220.159721
 30
0.0
 10
166.558347
 20
220.159721
 30
0.0
 10
166.558347
 20
220.159721
 30
0.0
  0
LWPOLYLINE
  5
179
100
AcDbEntity
  8
Layer_1
 62
7
100
AcDbPolyline
 90
38
 70
0
 10
163.039374
 20
218.431109
 30
0.0
 10
159.538069
 20
218.431109
 30
0.0
 10
159.538069
 20
217.619721
 30
0.0
 10
154.528624
 20
217.619721
 30
0.0
 10
154.528624
 20
218.431109
 30
0.0
 10
151.036124
 20
218.431109
 30
0.0
 10
151.036124
 20
217.619721
 30
0.0
 10
150.048347
 20
217.619721
 30
0.0
 10
150.048347
 20
216.631943
 30
0.0
 10
149.236958
 20
216.631943
 30
0.0
 10
149.236958
 20
213.139443
 30
0.0
 10
150.048347
 20
213.139443
 30
0.0
 10
150.048347
 20
208.129998
 30
0.0
 10
149.236958
 20
208.129998
 30
0.0
 10
149.236958
 20
204.628679
 30
0.0
 10
150.048347
 20
204.628679
 30
0.0
 10
150.048347
 20
203.649721
 30
0.0
 10
151.036124
 20
203.649721
 30
0.0
 10
151.036124
 20
202.838332
 30
0.0
 10
154.528624
 20
202.838332
 30
0.0
 10
154.528624
 20
203.649721
 30
0.0
 10
159.538069
 20
203.649721
 30
0.0
 10
159.538069
 20
202.838332
 30
0.0
 10
163.039374
 20
202.838332
 30
0.0
 10
163.039374
 20
203.649721
 30
0.0
 10
164.018347
 20
203.649721
 30
0.0
 10
164.018347
 20
204.628679
 30
0.0
 10
164.829736
 20
204.628679
 30
0.0
 10
164.829736
 20
208.129998
 30
0.0
 10
164.018347
 20
208.129998
 30
0.0
 10
164.018347
 20
213.139443
 30
0.0
 10
164.829736
 20
213.139443
 30
0.0
 10
164.829736
 20
216.631943
 30
0.0
 10
164.018347
 20
216.631943
 30
0.0
 10
164.018347
 20
217.619721
 30
0.0
 10
163.039374
 20
217.619721
 30
0.0
 10
163.039374
 20
218.431109
 30
0.0
 10
163.039374
 20
218.431109
 30
0.0
  0
LWPOLYLINE
  5
17a
100
AcDbEntity
  8
Layer_1
 62
7
100
AcDbPolyline
 90
6
 70
0
 10
166.558347
 20
201.109721
 30
0.0
 10
166.558347
 20
182.059721
 30
0.0
 10
147.508347
 20
182.059721
 30
0.0
 10
147.508347
 20
201.109721
 30
0.0
 10
166.558347
 20
201.109721
 30
0.0
 10
166.558347
 20
201.109721
 30
0.0
  0
LWPOLYLINE
  5
17b
100
AcDbEntity
  8
Layer_1
 62
7
100
AcDbPolyline
 90
38
 70
0
 10
163.039374
 20
199.381109
 30
0.0
 10
159.538069
 20
199.381109
 30
0.0
 10
159.538069
 20
198.569721
 30
0.0
 10
154.528624
 20
198.569721
 30
0.0
 10
154.528624
 20
199.381109
 30
0.0
 10
151.036124
 20
199.381109
 30
0.0
 10
151.036124
 20
198.569721
 30
0.0
 10
150.048347
 20
198.569721
 30
0.0
 10
150.048347
 20
197.581943
 30
0.0
 10
149.236958
 20
197.581943
 30
0.0
 10
149.236958
 20
194.089443
 30
0.0
 10
150.048347
 20
194.089443
 30
0.0
 10
150.048347
 20
189.079998
 30
0.0
 10
149.236958
 20
189.079998
 30
0.0
 10
149.236958
 20
185.578679
 30
0.0
 10
150.048347
 20
185.578679
 30
0.0
 10
150.048347
 20
184.599721
 30
0.0
 10
151.036124
 20
184.599721
 30
0.0
 10
151.036124
 20
183.788332
 30
0.0
 10
154.528624
 20
183.788332
 30
0.0
 10
154.528624
 20
184.599721
 30
0.0
 10
159.538069
 20
184.599721
 30
0.0
 10
159.538069
 20
183.788332
 30
0.0
 10
163.039374
 20
183.788332
 30
0.0
 10
163.039374
 20
184.599721
 30
0.0
 10
164.018347
 20
184.599721
 30
0.0
 10
164.018347
 20
185.578679
 30
0.0
 10
164.829736
 20
185.578679
 30
0.0
 10
164.829736
 20
189.079998
 30
0.0
 10
164.018347
 20
189.079998
 30
0.0
 10
164.018347
 20
194.089443
 30
0.0
 10
164.829736
 20
194.089443
 30
0.0
 10
164.829736
 20
197.581943
 30
0.0
 10
164.018347
 20
197.581943
 30
0.0
 10
164.018347
 20
198.569721
 30
0.0
 10
163.039374
 20
198.569721
 30
0.0
 10
163.039374
 20
199.381109
 30
0.0
 10
163.039374
 20
199.381109
 30
0.0
  0
LWPOLYLINE
  5
17c
100
AcDbEntity
  8
Layer_1
 62
7
100
AcDbPolyline
 90
6
 70
0
 10
166.558347
 20
182.059721
 30
0.0
 10
166.558347
 20
163.009709
 30
0.0
 10
147.508347
 20
163.009709
 30
0.0
 10
147.508347
 20
182.059721
 30
0.0
 10
166.558347
 20
182.059721
 30
0.0
 10
166.558347
 20
182.059721
 30
0.0
  0
LWPOLYLINE
  5
17d
100
AcDbEntity
  8
Layer_1
 62
7
100
AcDbPolyline
 90
38
 70
0
 10
163.039374
 20
180.331098
 30
0.0
 10
159.538069
 20
180.331098
 30
0.0
 10
159.538069
 20
179.519709
 30
0.0
 10
154.528624
 20
179.519709
 30
0.0
 10
154.528624
 20
180.331098
 30
0.0
 10
151.036124
 20
180.331098
 30
0.0
 10
151.036124
 20
179.519709
 30
0.0
 10
150.048347
 20
179.519709
 30
0.0
 10
150.048347
 20
178.531931
 30
0.0
 10
149.236958
 20
178.531931
 30
0.0
 10
149.236958
 20
175.039431
 30
0.0
 10
150.048347
 20
175.039431
 30
0.0
 10
150.048347
 20
170.029987
 30
0.0
 10
149.236958
 20
170.029987
 30
0.0
 10
149.236958
 20
166.528682
 30
0.0
 10
150.048347
 20
166.528682
 30
0.0
 10
150.048347
 20
165.549709
 30
0.0
 10
151.036124
 20
165.549709
 30
0.0
 10
151.036124
 20
164.738320
 30
0.0
 10
154.528624
 20
164.738320
 30
0.0
 10
154.528624
 20
165.549709
 30
0.0
 10
159.538069
 20
165.549709
 30
0.0
 10
159.538069
 20
164.738320
 30
0.0
 10
163.039374
 20
164.738320
 30
0.0
 10
163.039374
 20
165.549709
 30
0.0
 10
164.018347
 20
165.549709
 30
0.0
 10
164.018347
 20
166.528682
 30
0.0
 10
164.829736
 20
166.528682
 30
0.0
 10
164.829736
 20
170.029987
 30
0.0
 10
164.018347
 20
170.029987
 30
0.0
 10
164.018347
 20
175.039431
 30
0.0
 10
164.829736
 20
175.039431
 30
0.0
 10
164.829736
 20
178.531931
 30
0.0
 10
164.018347
 20
178.531931
 30
0.0
 10
164.018347
 20
179.519709
 30
0.0
 10
163.039374
 20
179.519709
 30
0.0
 10
163.039374
 20
180.331098
 30
0.0
 10
163.039374
 20
180.331098
 30
0.0
  0
LWPOLYLINE
  5
17e
100
AcDbEntity
  8
Layer_1
 62
7
100
AcDbPolyline
 90
6
 70
0
 10
147.508347
 20
220.159721
 30
0.0
 10
147.508347
 20
201.109721
 30
0.0
 10
128.458347
 20
201.109721
 30
0.0
 10
128.458347
 20
220.159721
 30
0.0
 10
147.508347
 20
220.159721
 30
0.0
 10
147.508347
 20
220.159721
 30
0.0
  0
LWPOLYLINE
  5
17f
100
AcDbEntity
  8
Layer_1
 62
7
100
AcDbPolyline
 90
38
 70
0
 10
143.989374
 20
218.431109
 30
0.0
 10
140.488069
 20
218.431109
 30
0.0
 10
140.488069
 20
217.619721
 30
0.0
 10
135.478624
 20
217.619721
 30
0.0
 10
135.478624
 20
218.431109
 30
0.0
 10
131.986124
 20
218.431109
 30
0.0
 10
131.986124
 20
217.619721
 30
0.0
 10
130.998347
 20
217.619721
 30
0.0
 10
130.998347
 20
216.631943
 30
0.0
 10
130.186958
 20
216.631943
 30
0.0
 10
130.186958
 20
213.139443
 30
0.0
 10
130.998347
 20
213.139443
 30
0.0
 10
130.998347
 20
208.129998
 30
0.0
 10
130.186958
 20
208.129998
 30
0.0
 10
130.186958
 20
204.628679
 30
0.0
 10
130.998347
 20
204.628679
 30
0.0
 10
130.998347
 20
203.649721
 30
0.0
 10
131.986124
 20
203.649721
 30
0.0
 10
131.986124
 20
202.838332
 30
0.0
 10
135.478624
 20
202.838332
 30
0.0
 10
135.478624
 20
203.649721
 30
0.0
 10
140.488069
 20
203.649721
 30
0.0
 10
140.488069
 20
202.838332
 30
0.0
 10
143.989374
 20
202.838332
 30
0.0
 10
143.989374
 20
203.649721
 30
0.0
 10
144.968347
 20
203.649721
 30
0.0
 10
144.968347
 20
204.628679
 30
0.0
 10
145.779736
 20
204.628679
 30
0.0
 10
145.779736
 20
208.129998
 30
0.0
 10
144.968347
 20
208.129998
 30
0.0
 10
144.968347
 20
213.139443
 30
0.0
 10
145.779736
 20
213.139443
 30
0.0
 10
145.779736
 20
216.631943
 30
0.0
 10
144.968347
 20
216.631943
 30
0.0
 10
144.968347
 20
217.619721
 30
0.0
 10
143.989374
 20
217.619721
 30
0.0
 10
143.989374
 20
218.431109
 30
0.0
 10
143.989374
 20
218.431109
 30
0.0
  0
LWPOLYLINE
  5
180
100
AcDbEntity
  8
Layer_1
 62
7
100
AcDbPolyline
 90
6
 70
0
 10
147.508347
 20
201.109721
 30
0.0
 10
147.508347
 20
182.059721
 30
0.0
 10
128.458347
 20
182.059721
 30
0.0
 10
128.458347
 20
201.109721
 30
0.0
 10
147.508347
 20
201.109721
 30
0.0
 10
147.508347
 20
201.109721
 30
0.0
  0
LWPOLYLINE
  5
181
100
AcDbEntity
  8
Layer_1
 62
7
100
AcDbPolyline
 90
38
 70
0
 10
143.989374
 20
199.381109
 30
0.0
 10
140.488069
 20
199.381109
 30
0.0
 10
140.488069
 20
198.569721
 30
0.0
 10
135.478624
 20
198.569721
 30
0.0
 10
135.478624
 20
199.381109
 30
0.0
 10
131.986124
 20
199.381109
 30
0.0
 10
131.986124
 20
198.569721
 30
0.0
 10
130.998347
 20
198.569721
 30
0.0
 10
130.998347
 20
197.581943
 30
0.0
 10
130.186958
 20
197.581943
 30
0.0
 10
130.186958
 20
194.089443
 30
0.0
 10
130.998347
 20
194.089443
 30
0.0
 10
130.998347
 20
189.079998
 30
0.0
 10
130.186958
 20
189.079998
 30
0.0
 10
130.186958
 20
185.578679
 30
0.0
 10
130.998347
 20
185.578679
 30
0.0
 10
130.998347
 20
184.599721
 30
0.0
 10
131.986124
 20
184.599721
 30
0.0
 10
131.986124
 20
183.788332
 30
0.0
 10
135.478624
 20
183.788332
 30
0.0
 10
135.478624
 20
184.599721
 30
0.0
 10
140.488069
 20
184.599721
 30
0.0
 10
140.488069
 20
183.788332
 30
0.0
 10
143.989374
 20
183.788332
 30
0.0
 10
143.989374
 20
184.599721
 30
0.0
 10
144.968347
 20
184.599721
 30
0.0
 10
144.968347
 20
185.578679
 30
0.0
 10
145.779736
 20
185.578679
 30
0.0
 10
145.779736
 20
189.079998
 30
0.0
 10
144.968347
 20
189.079998
 30
0.0
 10
144.968347
 20
194.089443
 30
0.0
 10
145.779736
 20
194.089443
 30
0.0
 10
145.779736
 20
197.581943
 30
0.0
 10
144.968347
 20
197.581943
 30
0.0
 10
144.968347
 20
198.569721
 30
0.0
 10
143.989374
 20
198.569721
 30
0.0
 10
143.989374
 20
199.381109
 30
0.0
 10
143.989374
 20
199.381109
 30
0.0
  0
LWPOLYLINE
  5
182
100
AcDbEntity
  8
Layer_1
 62
7
100
AcDbPolyline
 90
6
 70
0
 10
147.508347
 20
182.059721
 30
0.0
 10
147.508347
 20
163.009709
 30
0.0
 10
128.458347
 20
163.009709
 30
0.0
 10
128.458347
 20
182.059721
 30
0.0
 10
147.508347
 20
182.059721
 30
0.0
 10
147.508347
 20
182.059721
 30
0.0
  0
LWPOLYLINE
  5
183
100
AcDbEntity
  8
Layer_1
 62
7
100
AcDbPolyline
 90
38
 70
0
 10
143.989374
 20
180.331098
 30
0.0
 10
140.488069
 20
180.331098
 30
0.0
 10
140.488069
 20
179.519709
 30
0.0
 10
135.478624
 20
179.519709
 30
0.0
 10
135.478624
 20
180.331098
 30
0.0
 10
131.986124
 20
180.331098
 30
0.0
 10
131.986124
 20
179.519709
 30
0.0
 10
130.998347
 20
179.519709
 30
0.0
 10
130.998347
 20
178.531931
 30
0.0
 10
130.186958
 20
178.531931
 30
0.0
 10
130.186958
 20
175.039431
 30
0.0
 10
130.998347
 20
175.039431
 30
0.0
 10
130.998347
 20
170.029987
 30
0.0
 10
130.186958
 20
170.029987
 30
0.0
 10
130.186958
 20
166.528682
 30
0.0
 10
130.998347
 20
166.528682
 30
0.0
 10
130.998347
 20
165.549709
 30
0.0
 10
131.986124
 20
165.549709
 30
0.0
 10
131.986124
 20
164.738320
 30
0.0
 10
135.478624
 20
164.738320
 30
0.0
 10
135.478624
 20
165.549709
 30
0.0
 10
140.488069
 20
165.549709
 30
0.0
 10
140.488069
 20
164.738320
 30
0.0
 10
143.989374
 20
164.738320
 30
0.0
 10
143.989374
 20
165.549709
 30
0.0
 10
144.968347
 20
165.549709
 30
0.0
 10
144.968347
 20
166.528682
 30
0.0
 10
145.779736
 20
166.528682
 30
0.0
 10
145.779736
 20
170.029987
 30
0.0
 10
144.968347
 20
170.029987
 30
0.0
 10
144.968347
 20
175.039431
 30
0.0
 10
145.779736
 20
175.039431
 30
0.0
 10
145.779736
 20
178.531931
 30
0.0
 10
144.968347
 20
178.531931
 30
0.0
 10
144.968347
 20
179.519709
 30
0.0
 10
143.989374
 20
179.519709
 30
0.0
 10
143.989374
 20
180.331098
 30
0.0
 10
143.989374
 20
180.331098
 30
0.0
  0
LWPOLYLINE
  5
184
100
AcDbEntity
  8
Layer_1
 62
7
100
AcDbPolyline
 90
6
 70
0
 10
128.458347
 20
220.159721
 30
0.0
 10
128.458347
 20
201.109721
 30
0.0
 10
109.408341
 20
201.109721
 30
0.0
 10
109.408341
 20
220.159721
 30
0.0
 10
128.458347
 20
220.159721
 30
0.0
 10
128.458347
 20
220.159721
 30
0.0
  0
LWPOLYLINE
  5
185
100
AcDbEntity
  8
Layer_1
 62
7
100
AcDbPolyline
 90
38
 70
0
 10
124.939374
 20
218.431109
 30
0.0
 10
121.438069
 20
218.431109
 30
0.0
 10
121.438069
 20
217.619721
 30
0.0
 10
116.428624
 20
217.619721
 30
0.0
 10
116.428624
 20
218.431109
 30
0.0
 10
112.936119
 20
218.431109
 30
0.0
 10
112.936119
 20
217.619721
 30
0.0
 10
111.948341
 20
217.619721
 30
0.0
 10
111.948341
 20
216.631943
 30
0.0
 10
111.136952
 20
216.631943
 30
0.0
 10
111.136952
 20
213.139443
 30
0.0
 10
111.948341
 20
213.139443
 30
0.0
 10
111.948341
 20
208.129998
 30
0.0
 10
111.136952
 20
208.129998
 30
0.0
 10
111.136952
 20
204.628679
 30
0.0
 10
111.948341
 20
204.628679
 30
0.0
 10
111.948341
 20
203.649721
 30
0.0
 10
112.936119
 20
203.649721
 30
0.0
 10
112.936119
 20
202.838332
 30
0.0
 10
116.428624
 20
202.838332
 30
0.0
 10
116.428624
 20
203.649721
 30
0.0
 10
121.438069
 20
203.649721
 30
0.0
 10
121.438069
 20
202.838332
 30
0.0
 10
124.939374
 20
202.838332
 30
0.0
 10
124.939374
 20
203.649721
 30
0.0
 10
125.918347
 20
203.649721
 30
0.0
 10
125.918347
 20
204.628679
 30
0.0
 10
126.729736
 20
204.628679
 30
0.0
 10
126.729736
 20
208.129998
 30
0.0
 10
125.918347
 20
208.129998
 30
0.0
 10
125.918347
 20
213.139443
 30
0.0
 10
126.729736
 20
213.139443
 30
0.0
 10
126.729736
 20
216.631943
 30
0.0
 10
125.918347
 20
216.631943
 30
0.0
 10
125.918347
 20
217.619721
 30
0.0
 10
124.939374
 20
217.619721
 30
0.0
 10
124.939374
 20
218.431109
 30
0.0
 10
124.939374
 20
218.431109
 30
0.0
  0
LWPOLYLINE
  5
186
100
AcDbEntity
  8
Layer_1
 62
7
100
AcDbPolyline
 90
8
 70
0
 10
242.758347
 20
220.159723
 30
0.0
 10
261.808347
 20
220.159723
 30
0.0
 10
261.808347
 20
201.109723
 30
0.0
 10
261.808347
 20
191.584726
 30
0.0
 10
242.758347
 20
191.584726
 30
0.0
 10
242.758347
 20
201.109726
 30
0.0
 10
242.758347
 20
220.159726
 30
0.0
 10
242.758347
 20
220.159723
 30
0.0
  0
LWPOLYLINE
  5
187
100
AcDbEntity
  8
Layer_1
 62
7
100
AcDbPolyline
 90
38
 70
0
 10
244.486958
 20
211.878265
 30
0.0
 10
244.486958
 20
208.376946
 30
0.0
 10
245.298347
 20
208.376946
 30
0.0
 10
245.298347
 20
203.367501
 30
0.0
 10
244.486958
 20
203.367501
 30
0.0
 10
244.486958
 20
199.875001
 30
0.0
 10
245.298347
 20
199.875001
 30
0.0
 10
245.298347
 20
198.887223
 30
0.0
 10
246.286124
 20
198.887223
 30
0.0
 10
246.286124
 20
198.075834
 30
0.0
 10
249.778624
 20
198.075834
 30
0.0
 10
249.778624
 20
198.887223
 30
0.0
 10
254.788069
 20
198.887223
 30
0.0
 10
254.788069
 20
198.075834
 30
0.0
 10
258.289374
 20
198.075834
 30
0.0
 10
258.289374
 20
198.887223
 30
0.0
 10
259.268347
 20
198.887223
 30
0.0
 10
259.268347
 20
199.875001
 30
0.0
 10
260.079736
 20
199.875001
 30
0.0
 10
260.079736
 20
203.367501
 30
0.0
 10
259.268347
 20
203.367501
 30
0.0
 10
259.268347
 20
208.376946
 30
0.0
 10
260.079736
 20
208.376946
 30
0.0
 10
260.079736
 20
211.878265
 30
0.0
 10
259.268347
 20
211.878265
 30
0.0
 10
259.268347
 20
212.857223
 30
0.0
 10
258.289374
 20
212.857223
 30
0.0
 10
258.289374
 20
213.668612
 30
0.0
 10
254.788069
 20
213.668612
 30
0.0
 10
254.788069
 20
212.857223
 30
0.0
 10
249.778624
 20
212.857223
 30
0.0
 10
249.778624
 20
213.668612
 30
0.0
 10
246.286124
 20
213.668612
 30
0.0
 10
246.286124
 20
212.857223
 30
0.0
 10
245.298347
 20
212.857223
 30
0.0
 10
245.298347
 20
211.878265
 30
0.0
 10
244.486958
 20
211.878265
 30
0.0
 10
244.486958
 20
211.878265
 30
0.0
  0
LWPOLYLINE
  5
188
100
AcDbEntity
  8
Layer_1
 62
7
100
AcDbPolyline
 90
5
 70
0
 10
109.408282
 20
221.888498
 30
0.0
 10
166.558299
 20
221.888498
 30
0.0
 10
166.558299
 20
220.159736
 30
0.0
 10
109.408282
 20
220.159736
 30
0.0
 10
109.408282
 20
221.888498
 30
0.0
  0
LWPOLYLINE
  5
189
100
AcDbEntity
  8
Layer_1
 62
7
100
AcDbPolyline
 90
5
 70
0
 10
261.808273
 20
161.280929
 30
0.0
 10
261.808273
 20
221.888493
 30
0.0
 10
263.537036
 20
221.888493
 30
0.0
 10
263.537036
 20
161.280929
 30
0.0
 10
261.808273
 20
161.280929
 30
0.0
  0
LWPOLYLINE
  5
18a
100
AcDbEntity
  8
Layer_1
 62
7
100
AcDbPolyline
 90
5
 70
0
 10
107.679535
 20
142.230957
 30
0.0
 10
107.679535
 20
221.888490
 30
0.0
 10
109.408298
 20
221.888490
 30
0.0
 10
109.408298
 20
142.230957
 30
0.0
 10
107.679535
 20
142.230957
 30
0.0
  0
LWPOLYLINE
  5
18b
100
AcDbEntity
  8
Layer_1
 62
7
100
AcDbPolyline
 90
6
 70
0
 10
204.658347
 20
170.153459
 30
0.0
 10
204.658347
 20
165.390959
 30
0.0
 10
185.608347
 20
165.390959
 30
0.0
 10
185.608347
 20
170.153459
 30
0.0
 10
204.658347
 20
170.153459
 30
0.0
 10
204.658347
 20
170.153459
 30
0.0
  0
LWPOLYLINE
  5
18c
100
AcDbEntity
  8
Layer_1
 62
7
100
AcDbPolyline
 90
6
 70
0
 10
185.608347
 20
167.772209
 30
0.0
 10
185.608347
 20
165.390959
 30
0.0
 10
166.558347
 20
165.390959
 30
0.0
 10
166.558347
 20
167.772209
 30
0.0
 10
185.608347
 20
167.772209
 30
0.0
 10
185.608347
 20
167.772209
 30
0.0
  0
LWPOLYLINE
  5
18d
100
AcDbEntity
  8
Layer_1
 62
7
100
AcDbPolyline
 90
8
 70
0
 10
109.408341
 20
172.534709
 30
0.0
 10
128.458347
 20
172.534709
 30
0.0
 10
128.458347
 20
153.484709
 30
0.0
 10
128.458347
 20
143.959709
 30
0.0
 10
109.408341
 20
143.959709
 30
0.0
 10
109.408341
 20
153.484709
 30
0.0
 10
109.408341
 20
172.534709
 30
0.0
 10
109.408341
 20
172.534709
 30
0.0
  0
LWPOLYLINE
  5
18e
100
AcDbEntity
  8
Layer_1
 62
7
100
AcDbPolyline
 90
38
 70
0
 10
111.136952
 20
164.253265
 30
0.0
 10
111.136952
 20
160.751931
 30
0.0
 10
111.948341
 20
160.751931
 30
0.0
 10
111.948341
 20
155.742487
 30
0.0
 10
111.136952
 20
155.742487
 30
0.0
 10
111.136952
 20
152.249987
 30
0.0
 10
111.948341
 20
152.249987
 30
0.0
 10
111.948341
 20
151.262209
 30
0.0
 10
112.936119
 20
151.262209
 30
0.0
 10
112.936119
 20
150.450820
 30
0.0
 10
116.428624
 20
150.450820
 30
0.0
 10
116.428624
 20
151.262209
 30
0.0
 10
121.438069
 20
151.262209
 30
0.0
 10
121.438069
 20
150.450820
 30
0.0
 10
124.939374
 20
150.450820
 30
0.0
 10
124.939374
 20
151.262209
 30
0.0
 10
125.918347
 20
151.262209
 30
0.0
 10
125.918347
 20
152.249987
 30
0.0
 10
126.729736
 20
152.249987
 30
0.0
 10
126.729736
 20
155.742487
 30
0.0
 10
125.918347
 20
155.742487
 30
0.0
 10
125.918347
 20
160.751931
 30
0.0
 10
126.729736
 20
160.751931
 30
0.0
 10
126.729736
 20
164.253265
 30
0.0
 10
125.918347
 20
164.253265
 30
0.0
 10
125.918347
 20
165.232209
 30
0.0
 10
124.939374
 20
165.232209
 30
0.0
 10
124.939374
 20
166.043598
 30
0.0
 10
121.438069
 20
166.043598
 30
0.0
 10
121.438069
 20
165.232209
 30
0.0
 10
116.428624
 20
165.232209
 30
0.0
 10
116.428624
 20
166.043598
 30
0.0
 10
112.936119
 20
166.043598
 30
0.0
 10
112.936119
 20
165.232209
 30
0.0
 10
111.948341
 20
165.232209
 30
0.0
 10
111.948341
 20
164.253265
 30
0.0
 10
111.136952
 20
164.253265
 30
0.0
 10
111.136952
 20
164.253265
 30
0.0
  0
LWPOLYLINE
  5
18f
100
AcDbEntity
  8
Layer_1
 62
7
100
AcDbPolyline
 90
8
 70
0
 10
109.408341
 20
201.109721
 30
0.0
 10
128.458347
 20
201.109721
 30
0.0
 10
128.458347
 20
182.059721
 30
0.0
 10
128.458347
 20
172.534709
 30
0.0
 10
109.408341
 20
172.534709
 30
0.0
 10
109.408341
 20
182.059721
 30
0.0
 10
109.408341
 20
201.109721
 30
0.0
 10
109.408341
 20
201.109721
 30
0.0
  0
LWPOLYLINE
  5
190
100
AcDbEntity
  8
Layer_1
 62
7
100
AcDbPolyline
 90
38
 70
0
 10
111.136952
 20
192.828262
 30
0.0
 10
111.136952
 20
189.326943
 30
0.0
 10
111.948341
 20
189.326943
 30
0.0
 10
111.948341
 20
184.317498
 30
0.0
 10
111.136952
 20
184.317498
 30
0.0
 10
111.136952
 20
180.824987
 30
0.0
 10
111.948341
 20
180.824987
 30
0.0
 10
111.948341
 20
179.837209
 30
0.0
 10
112.936119
 20
179.837209
 30
0.0
 10
112.936119
 20
179.025820
 30
0.0
 10
116.428624
 20
179.025820
 30
0.0
 10
116.428624
 20
179.837209
 30
0.0
 10
121.438069
 20
179.837209
 30
0.0
 10
121.438069
 20
179.025820
 30
0.0
 10
124.939374
 20
179.025820
 30
0.0
 10
124.939374
 20
179.837209
 30
0.0
 10
125.918347
 20
179.837209
 30
0.0
 10
125.918347
 20
180.824987
 30
0.0
 10
126.729736
 20
180.824987
 30
0.0
 10
126.729736
 20
184.317498
 30
0.0
 10
125.918347
 20
184.317498
 30
0.0
 10
125.918347
 20
189.326943
 30
0.0
 10
126.729736
 20
189.326943
 30
0.0
 10
126.729736
 20
192.828262
 30
0.0
 10
125.918347
 20
192.828262
 30
0.0
 10
125.918347
 20
193.807221
 30
0.0
 10
124.939374
 20
193.807221
 30
0.0
 10
124.939374
 20
194.618609
 30
0.0
 10
121.438069
 20
194.618609
 30
0.0
 10
121.438069
 20
193.807221
 30
0.0
 10
116.428624
 20
193.807221
 30
0.0
 10
116.428624
 20
194.618609
 30
0.0
 10
112.936119
 20
194.618609
 30
0.0
 10
112.936119
 20
193.807221
 30
0.0
 10
111.948341
 20
193.807221
 30
0.0
 10
111.948341
 20
192.828262
 30
0.0
 10
111.136952
 20
192.828262
 30
0.0
 10
111.136952
 20
192.828262
 30
0.0
  0
LWPOLYLINE
  5
191
100
AcDbEntity
  8
Layer_1
 62
7
100
AcDbPolyline
 90
5
 70
0
 10
109.408282
 20
143.959740
 30
0.0
 10
166.558378
 20
143.959740
 30
0.0
 10
166.558378
 20
142.230978
 30
0.0
 10
109.408282
 20
142.230978
 30
0.0
 10
109.408282
 20
143.959740
 30
0.0
  0
LWPOLYLINE
  5
192
100
AcDbEntity
  8
Layer_1
 62
7
100
AcDbPolyline
 90
5
 70
0
 10
195.133344
 20
137.468420
 30
0.0
 10
195.133344
 20
142.230911
 30
0.0
 10
196.862106
 20
142.230911
 30
0.0
 10
196.862106
 20
137.468420
 30
0.0
 10
195.133344
 20
137.468420
 30
0.0
  0
LWPOLYLINE
  5
193
100
AcDbEntity
  8
Layer_1
 62
7
100
AcDbPolyline
 90
5
 70
0
 10
223.708273
 20
221.888498
 30
0.0
 10
223.708273
 20
224.269748
 30
0.0
 10
225.437036
 20
224.269748
 30
0.0
 10
225.437036
 20
221.888498
 30
0.0
 10
223.708273
 20
221.888498
 30
0.0
  0
LWPOLYLINE
  5
194
100
AcDbEntity
  8
Layer_1
 62
7
100
AcDbPolyline
 90
5
 70
0
 10
204.658273
 20
224.269757
 30
0.0
 10
204.658273
 20
229.032260
 30
0.0
 10
206.387036
 20
229.032260
 30
0.0
 10
206.387036
 20
224.269757
 30
0.0
 10
204.658273
 20
224.269757
 30
0.0
  0
LWPOLYLINE
  5
195
100
AcDbEntity
  8
Layer_1
 62
7
100
AcDbPolyline
 90
5
 70
0
 10
183.879527
 20
226.651009
 30
0.0
 10
183.879527
 20
229.032258
 30
0.0
 10
185.608289
 20
229.032258
 30
0.0
 10
185.608289
 20
226.651009
 30
0.0
 10
183.879527
 20
226.651009
 30
0.0
  0
LWPOLYLINE
  5
196
100
AcDbEntity
  8
Layer_1
 62
7
100
AcDbPolyline
 90
5
 70
0
 10
164.829527
 20
221.888498
 30
0.0
 10
164.829527
 20
226.650998
 30
0.0
 10
166.558289
 20
226.650998
 30
0.0
 10
166.558289
 20
221.888498
 30
0.0
 10
164.829527
 20
221.888498
 30
0.0
  0
LWPOLYLINE
  5
197
100
AcDbEntity
  8
Layer_1
 62
7
100
AcDbPolyline
 90
5
 70
0
 10
223.708273
 20
221.888498
 30
0.0
 10
261.808256
 20
221.888498
 30
0.0
 10
261.808256
 20
220.159736
 30
0.0
 10
223.708273
 20
220.159736
 30
0.0
 10
223.708273
 20
221.888498
 30
0.0
  0
LWPOLYLINE
  5
198
100
AcDbEntity
  8
Layer_1
 62
7
100
AcDbPolyline
 90
5
 70
0
 10
204.658273
 20
224.269757
 30
0.0
 10
223.708284
 20
224.269757
 30
0.0
 10
223.708284
 20
222.540994
 30
0.0
 10
204.658273
 20
222.540994
 30
0.0
 10
204.658273
 20
224.269757
 30
0.0
  0
LWPOLYLINE
  5
199
100
AcDbEntity
  8
Layer_1
 62
7
100
AcDbPolyline
 90
5
 70
0
 10
185.608273
 20
229.032259
 30
0.0
 10
204.658271
 20
229.032259
 30
0.0
 10
204.658271
 20
227.303497
 30
0.0
 10
185.608273
 20
227.303497
 30
0.0
 10
185.608273
 20
229.032259
 30
0.0
  0
LWPOLYLINE
  5
19a
100
AcDbEntity
  8
Layer_1
 62
7
100
AcDbPolyline
 90
5
 70
0
 10
166.558273
 20
226.651009
 30
0.0
 10
185.608258
 20
226.651009
 30
0.0
 10
185.608258
 20
224.922247
 30
0.0
 10
166.558273
 20
224.922247
 30
0.0
 10
166.558273
 20
226.651009
 30
0.0
  0
LWPOLYLINE
  5
19b
100
AcDbEntity
  8
Layer_1
 62
7
100
AcDbPolyline
 90
6
 70
0
 10
223.708347
 20
165.390959
 30
0.0
 10
223.708347
 20
163.009709
 30
0.0
 10
166.558347
 20
163.009709
 30
0.0
 10
166.558347
 20
165.390959
 30
0.0
 10
223.708347
 20
165.390959
 30
0.0
 10
223.708347
 20
165.390959
 30
0.0
  0
LWPOLYLINE
  5
19c
100
AcDbEntity
  8
Layer_1
 62
7
100
AcDbPolyline
 90
10
 70
0
 10
128.458347
 20
163.009709
 30
0.0
 10
147.508347
 20
163.009709
 30
0.0
 10
166.558347
 20
163.009709
 30
0.0
 10
166.558347
 20
161.316376
 30
0.0
 10
166.558347
 20
145.653043
 30
0.0
 10
166.558347
 20
143.959709
 30
0.0
 10
147.508347
 20
143.959709
 30
0.0
 10
128.458347
 20
143.959709
 30
0.0
 10
128.458347
 20
163.009709
 30
0.0
 10
128.458347
 20
163.009709
 30
0.0
  0
LWPOLYLINE
  5
19d
100
AcDbEntity
  8
Layer_1
 62
7
100
AcDbPolyline
 90
6
 70
0
 10
133.917569
 20
159.675959
 30
0.0
 10
133.952846
 20
145.705959
 30
0.0
 10
137.251319
 20
145.714708
 30
0.0
 10
137.224790
 20
159.684708
 30
0.0
 10
133.917484
 20
159.675959
 30
0.0
 10
133.917569
 20
159.675959
 30
0.0
  0
LWPOLYLINE
  5
19e
100
AcDbEntity
  8
Layer_1
 62
7
100
AcDbPolyline
 90
38
 70
0
 10
139.711958
 20
159.490765
 30
0.0
 10
139.711958
 20
155.989431
 30
0.0
 10
140.523347
 20
155.989431
 30
0.0
 10
140.523347
 20
150.979987
 30
0.0
 10
139.711958
 20
150.979987
 30
0.0
 10
139.711958
 20
147.487487
 30
0.0
 10
140.523347
 20
147.487487
 30
0.0
 10
140.523347
 20
146.499709
 30
0.0
 10
141.511124
 20
146.499709
 30
0.0
 10
141.511124
 20
145.688320
 30
0.0
 10
145.003624
 20
145.688320
 30
0.0
 10
145.003624
 20
146.499709
 30
0.0
 10
150.013069
 20
146.499709
 30
0.0
 10
150.013069
 20
145.688320
 30
0.0
 10
153.514374
 20
145.688320
 30
0.0
 10
153.514374
 20
146.499709
 30
0.0
 10
154.493347
 20
146.499709
 30
0.0
 10
154.493347
 20
147.487487
 30
0.0
 10
155.304736
 20
147.487487
 30
0.0
 10
155.304736
 20
150.979987
 30
0.0
 10
154.493347
 20
150.979987
 30
0.0
 10
154.493347
 20
155.989431
 30
0.0
 10
155.304736
 20
155.989431
 30
0.0
 10
155.304736
 20
159.490765
 30
0.0
 10
154.493347
 20
159.490765
 30
0.0
 10
154.493347
 20
160.469709
 30
0.0
 10
153.514374
 20
160.469709
 30
0.0
 10
153.514374
 20
161.281098
 30
0.0
 10
150.013069
 20
161.281098
 30
0.0
 10
150.013069
 20
160.469709
 30
0.0
 10
145.003624
 20
160.469709
 30
0.0
 10
145.003624
 20
161.281098
 30
0.0
 10
141.511124
 20
161.281098
 30
0.0
 10
141.511124
 20
160.469709
 30
0.0
 10
140.523347
 20
160.469709
 30
0.0
 10
140.523347
 20
159.490765
 30
0.0
 10
139.711958
 20
159.490765
 30
0.0
 10
139.711958
 20
159.490765
 30
0.0
  0
LWPOLYLINE
  5
19f
100
AcDbEntity
  8
Layer_1
 62
7
100
AcDbPolyline
 90
6
 70
0
 10
157.800624
 20
159.728876
 30
0.0
 10
157.827153
 20
145.758876
 30
0.0
 10
161.125625
 20
145.767625
 30
0.0
 10
161.099096
 20
159.737625
 30
0.0
 10
157.800624
 20
159.728876
 30
0.0
 10
157.800624
 20
159.728876
 30
0.0
  0
LWPOLYLINE
  5
1a0
100
AcDbEntity
  8
Layer_1
 62
7
100
AcDbPolyline
 90
8
 70
0
 10
195.133347
 20
158.247209
 30
0.0
 10
195.133347
 20
139.197209
 30
0.0
 10
176.083347
 20
139.197209
 30
0.0
 10
166.558347
 20
139.197209
 30
0.0
 10
166.558347
 20
158.247209
 30
0.0
 10
176.083347
 20
158.247209
 30
0.0
 10
195.133347
 20
158.247209
 30
0.0
 10
195.133347
 20
158.247209
 30
0.0
  0
LWPOLYLINE
  5
1a1
100
AcDbEntity
  8
Layer_1
 62
7
100
AcDbPolyline
 90
38
 70
0
 10
186.851874
 20
156.518598
 30
0.0
 10
183.350569
 20
156.518598
 30
0.0
 10
183.350569
 20
155.707209
 30
0.0
 10
178.341124
 20
155.707209
 30
0.0
 10
178.341124
 20
156.518598
 30
0.0
 10
174.848624
 20
156.518598
 30
0.0
 10
174.848624
 20
155.707209
 30
0.0
 10
173.860847
 20
155.707209
 30
0.0
 10
173.860847
 20
154.719431
 30
0.0
 10
173.049458
 20
154.719431
 30
0.0
 10
173.049458
 20
151.226931
 30
0.0
 10
173.860847
 20
151.226931
 30
0.0
 10
173.860847
 20
146.217487
 30
0.0
 10
173.049458
 20
146.217487
 30
0.0
 10
173.049458
 20
142.716168
 30
0.0
 10
173.860847
 20
142.716168
 30
0.0
 10
173.860847
 20
141.737209
 30
0.0
 10
174.848624
 20
141.737209
 30
0.0
 10
174.848624
 20
140.925820
 30
0.0
 10
178.341124
 20
140.925820
 30
0.0
 10
178.341124
 20
141.737209
 30
0.0
 10
183.350569
 20
141.737209
 30
0.0
 10
183.350569
 20
140.925820
 30
0.0
 10
186.851874
 20
140.925820
 30
0.0
 10
186.851874
 20
141.737209
 30
0.0
 10
187.830847
 20
141.737209
 30
0.0
 10
187.830847
 20
142.716168
 30
0.0
 10
188.642236
 20
142.716168
 30
0.0
 10
188.642236
 20
146.217487
 30
0.0
 10
187.830847
 20
146.217487
 30
0.0
 10
187.830847
 20
151.226931
 30
0.0
 10
188.642236
 20
151.226931
 30
0.0
 10
188.642236
 20
154.719431
 30
0.0
 10
187.830847
 20
154.719431
 30
0.0
 10
187.830847
 20
155.707209
 30
0.0
 10
186.851874
 20
155.707209
 30
0.0
 10
186.851874
 20
156.518598
 30
0.0
 10
186.851874
 20
156.518598
 30
0.0
  0
LWPOLYLINE
  5
1a2
100
AcDbEntity
  8
Layer_1
 62
7
100
AcDbPolyline
 90
6
 70
0
 10
195.133347
 20
163.009709
 30
0.0
 10
195.133347
 20
158.247209
 30
0.0
 10
166.558347
 20
158.247209
 30
0.0
 10
166.558347
 20
163.009709
 30
0.0
 10
195.133347
 20
163.009709
 30
0.0
 10
195.133347
 20
163.009709
 30
0.0
  0
LWPOLYLINE
  5
1a3
100
AcDbEntity
  8
Layer_1
 62
7
100
AcDbPolyline
 90
5
 70
0
 10
166.558344
 20
139.197187
 30
0.0
 10
195.133344
 20
139.197187
 30
0.0
 10
195.133344
 20
137.468424
 30
0.0
 10
166.558344
 20
137.468424
 30
0.0
 10
166.558344
 20
139.197187
 30
0.0
  0
LWPOLYLINE
  5
1a4
100
AcDbEntity
  8
Layer_1
 62
7
100
AcDbPolyline
 90
5
 70
0
 10
164.829594
 20
137.468491
 30
0.0
 10
164.829594
 20
142.230982
 30
0.0
 10
166.558357
 20
142.230982
 30
0.0
 10
166.558357
 20
137.468491
 30
0.0
 10
164.829594
 20
137.468491
 30
0.0
  0
LWPOLYLINE
  5
1a5
100
AcDbEntity
  8
Layer_1
 62
7
100
AcDbPolyline
 90
8
 70
0
 10
242.758347
 20
191.584723
 30
0.0
 10
261.808347
 20
191.584723
 30
0.0
 10
261.808347
 20
172.534709
 30
0.0
 10
261.808347
 20
163.009709
 30
0.0
 10
242.758347
 20
163.009709
 30
0.0
 10
242.758347
 20
172.534709
 30
0.0
 10
242.758347
 20
191.584723
 30
0.0
 10
242.758347
 20
191.584723
 30
0.0
  0
LWPOLYLINE
  5
1a6
100
AcDbEntity
  8
Layer_1
 62
7
100
AcDbPolyline
 90
38
 70
0
 10
244.486958
 20
183.303265
 30
0.0
 10
244.486958
 20
179.801931
 30
0.0
 10
245.298347
 20
179.801931
 30
0.0
 10
245.298347
 20
174.792487
 30
0.0
 10
244.486958
 20
174.792487
 30
0.0
 10
244.486958
 20
171.299987
 30
0.0
 10
245.298347
 20
171.299987
 30
0.0
 10
245.298347
 20
170.312209
 30
0.0
 10
246.286124
 20
170.312209
 30
0.0
 10
246.286124
 20
169.500820
 30
0.0
 10
249.778624
 20
169.500820
 30
0.0
 10
249.778624
 20
170.312209
 30
0.0
 10
254.788069
 20
170.312209
 30
0.0
 10
254.788069
 20
169.500820
 30
0.0
 10
258.289374
 20
169.500820
 30
0.0
 10
258.289374
 20
170.312209
 30
0.0
 10
259.268347
 20
170.312209
 30
0.0
 10
259.268347
 20
171.299987
 30
0.0
 10
260.079736
 20
171.299987
 30
0.0
 10
260.079736
 20
174.792487
 30
0.0
 10
259.268347
 20
174.792487
 30
0.0
 10
259.268347
 20
179.801931
 30
0.0
 10
260.079736
 20
179.801931
 30
0.0
 10
260.079736
 20
183.303265
 30
0.0
 10
259.268347
 20
183.303265
 30
0.0
 10
259.268347
 20
184.282223
 30
0.0
 10
258.289374
 20
184.282223
 30
0.0
 10
258.289374
 20
185.093612
 30
0.0
 10
254.788069
 20
185.093612
 30
0.0
 10
254.788069
 20
184.282223
 30
0.0
 10
249.778624
 20
184.282223
 30
0.0
 10
249.778624
 20
185.093612
 30
0.0
 10
246.286124
 20
185.093612
 30
0.0
 10
246.286124
 20
184.282223
 30
0.0
 10
245.298347
 20
184.282223
 30
0.0
 10
245.298347
 20
183.303265
 30
0.0
 10
244.486958
 20
183.303265
 30
0.0
 10
244.486958
 20
183.303265
 30
0.0
  0
LWPOLYLINE
  5
1a7
100
AcDbEntity
  8
Layer_1
 62
7
100
AcDbPolyline
 90
5
 70
0
 10
263.539103
 20
161.279303
 30
0.0
 10
263.539103
 20
155.229164
 30
0.0
 10
250.565686
 20
161.279303
 30
0.0
 10
263.539103
 20
161.279303
 30
0.0
 10
263.539103
 20
161.279303
 30
0.0
  0
LWPOLYLINE
  5
1a8
100
AcDbEntity
  8
Layer_1
 62
7
100
AcDbPolyline
 90
5
 70
0
 10
234.962099
 20
150.388926
 30
0.0
 10
234.962099
 20
161.280940
 30
0.0
 10
240.042099
 20
161.280940
 30
0.0
 10
234.962099
 20
150.388926
 30
0.0
 10
234.962099
 20
150.388926
 30
0.0
  0
LWPOLYLINE
  5
1a9
100
AcDbEntity
  8
Layer_1
 62
7
100
AcDbPolyline
 90
10
 70
0
 10
195.133347
 20
163.009709
 30
0.0
 10
214.183347
 20
163.009709
 30
0.0
 10
233.233347
 20
163.009709
 30
0.0
 10
233.233347
 20
161.316376
 30
0.0
 10
233.233347
 20
145.653043
 30
0.0
 10
233.233347
 20
143.959709
 30
0.0
 10
214.183347
 20
143.959709
 30
0.0
 10
195.133347
 20
143.959709
 30
0.0
 10
195.133347
 20
163.009709
 30
0.0
 10
195.133347
 20
163.009709
 30
0.0
  0
LWPOLYLINE
  5
1aa
100
AcDbEntity
  8
Layer_1
 62
7
100
AcDbPolyline
 90
6
 70
0
 10
200.592569
 20
159.675959
 30
0.0
 10
200.627846
 20
145.705959
 30
0.0
 10
203.926319
 20
145.714708
 30
0.0
 10
203.899790
 20
159.684708
 30
0.0
 10
200.592484
 20
159.675959
 30
0.0
 10
200.592569
 20
159.675959
 30
0.0
  0
LWPOLYLINE
  5
1ab
100
AcDbEntity
  8
Layer_1
 62
7
100
AcDbPolyline
 90
38
 70
0
 10
206.386958
 20
159.490765
 30
0.0
 10
206.386958
 20
155.989431
 30
0.0
 10
207.198347
 20
155.989431
 30
0.0
 10
207.198347
 20
150.979987
 30
0.0
 10
206.386958
 20
150.979987
 30
0.0
 10
206.386958
 20
147.487487
 30
0.0
 10
207.198347
 20
147.487487
 30
0.0
 10
207.198347
 20
146.499709
 30
0.0
 10
208.186124
 20
146.499709
 30
0.0
 10
208.186124
 20
145.688320
 30
0.0
 10
211.678624
 20
145.688320
 30
0.0
 10
211.678624
 20
146.499709
 30
0.0
 10
216.688069
 20
146.499709
 30
0.0
 10
216.688069
 20
145.688320
 30
0.0
 10
220.189374
 20
145.688320
 30
0.0
 10
220.189374
 20
146.499709
 30
0.0
 10
221.168347
 20
146.499709
 30
0.0
 10
221.168347
 20
147.487487
 30
0.0
 10
221.979736
 20
147.487487
 30
0.0
 10
221.979736
 20
150.979987
 30
0.0
 10
221.168347
 20
150.979987
 30
0.0
 10
221.168347
 20
155.989431
 30
0.0
 10
221.979736
 20
155.989431
 30
0.0
 10
221.979736
 20
159.490765
 30
0.0
 10
221.168347
 20
159.490765
 30
0.0
 10
221.168347
 20
160.469709
 30
0.0
 10
220.189374
 20
160.469709
 30
0.0
 10
220.189374
 20
161.281098
 30
0.0
 10
216.688069
 20
161.281098
 30
0.0
 10
216.688069
 20
160.469709
 30
0.0
 10
211.678624
 20
160.469709
 30
0.0
 10
211.678624
 20
161.281098
 30
0.0
 10
208.186124
 20
161.281098
 30
0.0
 10
208.186124
 20
160.469709
 30
0.0
 10
207.198347
 20
160.469709
 30
0.0
 10
207.198347
 20
159.490765
 30
0.0
 10
206.386958
 20
159.490765
 30
0.0
 10
206.386958
 20
159.490765
 30
0.0
  0
LWPOLYLINE
  5
1ac
100
AcDbEntity
  8
Layer_1
 62
7
100
AcDbPolyline
 90
6
 70
0
 10
224.475624
 20
159.728876
 30
0.0
 10
224.502153
 20
145.758876
 30
0.0
 10
227.800625
 20
145.767625
 30
0.0
 10
227.774096
 20
159.737625
 30
0.0
 10
224.475624
 20
159.728876
 30
0.0
 10
224.475624
 20
159.728876
 30
0.0
  0
LWPOLYLINE
  5
1ad
100
AcDbEntity
  8
Layer_1
 62
7
100
AcDbPolyline
 90
10
 70
0
 10
260.023065
 20
154.958824
 30
0.0
 10
251.972225
 20
137.693668
 30
0.0
 10
243.921300
 20
120.428489
 30
0.0
 10
242.386632
 20
121.144120
 30
0.0
 10
228.190826
 20
127.763735
 30
0.0
 10
226.656158
 20
128.479366
 30
0.0
 10
234.707026
 20
145.744536
 30
0.0
 10
242.757867
 20
163.009709
 30
0.0
 10
260.023065
 20
154.958821
 30
0.0
 10
260.023065
 20
154.958824
 30
0.0
  0
LWPOLYLINE
  5
1ae
100
AcDbEntity
  8
Layer_1
 62
7
100
AcDbPolyline
 90
6
 70
0
 10
254.694512
 20
151.419986
 30
0.0
 10
242.018501
 20
157.291991
 30
0.0
 10
240.632395
 20
154.298861
 30
0.0
 10
253.304737
 20
148.418930
 30
0.0
 10
254.694512
 20
151.420036
 30
0.0
 10
254.694512
 20
151.419986
 30
0.0
  0
LWPOLYLINE
  5
1af
100
AcDbEntity
  8
Layer_1
 62
7
100
AcDbPolyline
 90
38
 70
0
 10
252.077889
 20
146.246751
 30
0.0
 10
248.904582
 20
147.726470
 30
0.0
 10
248.561654
 20
146.991112
 30
0.0
 10
244.021545
 20
149.108202
 30
0.0
 10
244.364417
 20
149.843588
 30
0.0
 10
241.199182
 20
151.319557
 30
0.0
 10
240.856254
 20
150.584190
 30
0.0
 10
239.961045
 20
151.001642
 30
0.0
 10
239.543582
 20
150.106422
 30
0.0
 10
238.808223
 20
150.449322
 30
0.0
 10
237.332229
 20
147.284030
 30
0.0
 10
238.067588
 20
146.941130
 30
0.0
 10
235.950498
 20
142.401021
 30
0.0
 10
235.215168
 20
142.743950
 30
0.0
 10
233.735420
 20
139.570699
 30
0.0
 10
234.470778
 20
139.227771
 30
0.0
 10
234.057069
 20
138.340521
 30
0.0
 10
234.952306
 20
137.923086
 30
0.0
 10
234.609378
 20
137.187700
 30
0.0
 10
237.774669
 20
135.711706
 30
0.0
 10
238.117569
 20
136.447092
 30
0.0
 10
242.657678
 20
134.330002
 30
0.0
 10
242.314778
 20
133.594644
 30
0.0
 10
245.488085
 20
132.114896
 30
0.0
 10
245.830985
 20
132.850254
 30
0.0
 10
246.718178
 20
132.436545
 30
0.0
 10
247.131916
 20
133.323795
 30
0.0
 10
247.867274
 20
132.980895
 30
0.0
 10
249.346994
 20
136.154145
 30
0.0
 10
248.611636
 20
136.497074
 30
0.0
 10
250.728697
 20
141.037154
 30
0.0
 10
251.464084
 20
140.694254
 30
0.0
 10
252.940078
 20
143.859518
 30
0.0
 10
252.204691
 20
144.202446
 30
0.0
 10
252.622154
 20
145.097655
 30
0.0
 10
251.734989
 20
145.511364
 30
0.0
 10
252.077889
 20
146.246751
 30
0.0
 10
252.077889
 20
146.246751
 30
0.0
  0
LWPOLYLINE
  5
1b0
100
AcDbEntity
  8
Layer_1
 62
7
100
AcDbPolyline
 90
6
 70
0
 10
244.649066
 20
129.752216
 30
0.0
 10
231.976724
 20
135.632147
 30
0.0
 10
230.590618
 20
132.639011
 30
0.0
 10
243.262988
 20
126.759080
 30
0.0
 10
244.649066
 20
129.752188
 30
0.0
 10
244.649066
 20
129.752216
 30
0.0
  0
LWPOLYLINE
  5
1b1
100
AcDbEntity
  8
Layer_1
 62
7
100
AcDbPolyline
 90
10
 70
0
 10
277.288238
 20
146.907941
 30
0.0
 10
269.237398
 20
129.642799
 30
0.0
 10
261.186470
 20
112.377592
 30
0.0
 10
259.651802
 20
113.093251
 30
0.0
 10
245.455996
 20
119.712858
 30
0.0
 10
243.921300
 20
120.428489
 30
0.0
 10
251.972225
 20
137.693668
 30
0.0
 10
260.023065
 20
154.958824
 30
0.0
 10
277.288238
 20
146.907941
 30
0.0
 10
277.288238
 20
146.907941
 30
0.0
  0
LWPOLYLINE
  5
1b2
100
AcDbEntity
  8
Layer_1
 62
7
100
AcDbPolyline
 90
6
 70
0
 10
271.959657
 20
143.369100
 30
0.0
 10
259.283671
 20
149.241100
 30
0.0
 10
257.897565
 20
146.247992
 30
0.0
 10
270.569910
 20
140.368062
 30
0.0
 10
271.959685
 20
143.369156
 30
0.0
 10
271.959657
 20
143.369100
 30
0.0
  0
LWPOLYLINE
  5
1b3
100
AcDbEntity
  8
Layer_1
 62
7
100
AcDbPolyline
 90
38
 70
0
 10
269.343062
 20
138.195882
 30
0.0
 10
266.169752
 20
139.675601
 30
0.0
 10
265.826824
 20
138.940243
 30
0.0
 10
261.286744
 20
141.057333
 30
0.0
 10
261.629644
 20
141.792691
 30
0.0
 10
258.464352
 20
143.268685
 30
0.0
 10
258.121452
 20
142.533299
 30
0.0
 10
257.226215
 20
142.950762
 30
0.0
 10
256.808780
 20
142.055525
 30
0.0
 10
256.073394
 20
142.398453
 30
0.0
 10
254.597428
 20
139.233162
 30
0.0
 10
255.332814
 20
138.890262
 30
0.0
 10
253.215724
 20
134.350153
 30
0.0
 10
252.480366
 20
134.693081
 30
0.0
 10
251.000647
 20
131.519802
 30
0.0
 10
251.736005
 20
131.176902
 30
0.0
 10
251.322267
 20
130.289652
 30
0.0
 10
252.217476
 20
129.872189
 30
0.0
 10
251.874576
 20
129.136831
 30
0.0
 10
255.039839
 20
127.660837
 30
0.0
 10
255.382768
 20
128.396195
 30
0.0
 10
259.922876
 20
126.279133
 30
0.0
 10
259.579948
 20
125.543738
 30
0.0
 10
262.753255
 20
124.064047
 30
0.0
 10
263.096183
 20
124.799377
 30
0.0
 10
263.983377
 20
124.385668
 30
0.0
 10
264.397115
 20
125.272918
 30
0.0
 10
265.132445
 20
124.930018
 30
0.0
 10
266.612192
 20
128.103277
 30
0.0
 10
265.876806
 20
128.446177
 30
0.0
 10
267.993868
 20
132.986286
 30
0.0
 10
268.729257
 20
132.643386
 30
0.0
 10
270.205223
 20
135.808649
 30
0.0
 10
269.469893
 20
136.151549
 30
0.0
 10
269.887356
 20
137.046786
 30
0.0
 10
269.000162
 20
137.460496
 30
0.0
 10
269.343062
 20
138.195882
 30
0.0
 10
269.343062
 20
138.195882
 30
0.0
  0
LWPOLYLINE
  5
1b4
100
AcDbEntity
  8
Layer_1
 62
7
100
AcDbPolyline
 90
6
 70
0
 10
261.914236
 20
121.701339
 30
0.0
 10
249.241866
 20
127.581278
 30
0.0
 10
247.855816
 20
124.588162
 30
0.0
 10
260.528102
 20
118.708232
 30
0.0
 10
261.914208
 20
121.701339
 30
0.0
 10
261.914236
 20
121.701339
 30
0.0
  0
LWPOLYLINE
  5
1b5
100
AcDbEntity
  8
Layer_1
 62
7
100
AcDbPolyline
 90
10
 70
0
 10
226.656158
 20
128.479366
 30
0.0
 10
243.921300
 20
120.428489
 30
0.0
 10
261.186470
 20
112.377592
 30
0.0
 10
260.470839
 20
110.842924
 30
0.0
 10
253.851232
 20
96.647146
 30
0.0
 10
253.135601
 20
95.112450
 30
0.0
 10
235.870431
 20
103.163347
 30
0.0
 10
218.605233
 20
111.214216
 30
0.0
 10
226.656158
 20
128.479366
 30
0.0
 10
226.656158
 20
128.479366
 30
0.0
  0
LWPOLYLINE
  5
1b6
100
AcDbEntity
  8
Layer_1
 62
7
100
AcDbPolyline
 90
6
 70
0
 10
230.194942
 20
123.150804
 30
0.0
 10
224.322970
 20
110.474765
 30
0.0
 10
227.316106
 20
109.088687
 30
0.0
 10
233.196065
 20
121.761001
 30
0.0
 10
230.194914
 20
123.150804
 30
0.0
 10
230.194942
 20
123.150804
 30
0.0
  0
LWPOLYLINE
  5
1b7
100
AcDbEntity
  8
Layer_1
 62
7
100
AcDbPolyline
 90
38
 70
0
 10
235.368245
 20
120.534153
 30
0.0
 10
233.888497
 20
117.360846
 30
0.0
 10
234.623856
 20
117.017946
 30
0.0
 10
232.506766
 20
112.477866
 30
0.0
 10
231.771436
 20
112.820766
 30
0.0
 10
230.295442
 20
109.655474
 30
0.0
 10
231.030800
 20
109.312574
 30
0.0
 10
230.613337
 20
108.417337
 30
0.0
 10
231.508574
 20
107.999902
 30
0.0
 10
231.165646
 20
107.264516
 30
0.0
 10
234.330937
 20
105.788522
 30
0.0
 10
234.673865
 20
106.523908
 30
0.0
 10
239.213946
 20
104.406818
 30
0.0
 10
238.871046
 20
103.671432
 30
0.0
 10
242.044324
 20
102.191740
 30
0.0
 10
242.387224
 20
102.927070
 30
0.0
 10
243.274475
 20
102.513361
 30
0.0
 10
243.691938
 20
103.408598
 30
0.0
 10
244.427296
 20
103.065698
 30
0.0
 10
245.903262
 20
106.230961
 30
0.0
 10
245.167932
 20
106.573890
 30
0.0
 10
247.284994
 20
111.113970
 30
0.0
 10
248.020380
 20
110.771070
 30
0.0
 10
249.500099
 20
113.944349
 30
0.0
 10
248.764741
 20
114.287249
 30
0.0
 10
249.178451
 20
115.174499
 30
0.0
 10
248.291200
 20
115.588208
 30
0.0
 10
248.634100
 20
116.323623
 30
0.0
 10
245.460850
 20
117.803314
 30
0.0
 10
245.117950
 20
117.067928
 30
0.0
 10
240.577841
 20
119.184990
 30
0.0
 10
240.920741
 20
119.920376
 30
0.0
 10
237.755478
 20
121.396370
 30
0.0
 10
237.412522
 20
120.661012
 30
0.0
 10
236.517341
 20
121.078475
 30
0.0
 10
236.103631
 20
120.191225
 30
0.0
 10
235.368273
 20
120.534153
 30
0.0
 10
235.368245
 20
120.534153
 30
0.0
  0
LWPOLYLINE
  5
1b8
100
AcDbEntity
  8
Layer_1
 62
7
100
AcDbPolyline
 90
6
 70
0
 10
251.862836
 20
113.105330
 30
0.0
 10
245.982877
 20
100.433016
 30
0.0
 10
248.975984
 20
99.046938
 30
0.0
 10
254.855887
 20
111.719252
 30
0.0
 10
251.862779
 20
113.105330
 30
0.0
 10
251.862836
 20
113.105330
 30
0.0
  0
LWPOLYLINE
  5
1b9
100
AcDbEntity
  8
Layer_1
 62
7
100
AcDbPolyline
 90
5
 70
0
 10
218.605249
 20
111.214228
 30
0.0
 10
253.135576
 20
95.112472
 30
0.0
 10
252.404969
 20
93.545681
 30
0.0
 10
217.874642
 20
109.647437
 30
0.0
 10
218.605249
 20
111.214228
 30
0.0
  0
LWPOLYLINE
  5
1ba
100
AcDbEntity
  8
Layer_1
 62
7
100
AcDbPolyline
 90
10
 70
0
 10
242.760492
 20
163.007917
 30
0.0
 10
217.871991
 20
109.650275
 30
0.0
 10
216.310964
 20
110.382289
 30
0.0
 10
231.965492
 20
143.957917
 30
0.0
 10
233.235492
 20
143.957917
 30
0.0
 10
233.235492
 20
145.651250
 30
0.0
 10
233.235492
 20
146.683125
 30
0.0
 10
240.846658
 20
163.007917
 30
0.0
 10
242.760492
 20
163.007917
 30
0.0
 10
242.760492
 20
163.007917
 30
0.0
  0
LWPOLYLINE
  5
1bb
100
AcDbEntity
  8
Layer_1
 62
7
100
AcDbPolyline
 90
6
 70
0
 10
231.965492
 20
143.957914
 30
0.0
 10
231.162908
 20
142.229303
 30
0.0
 10
195.135492
 20
142.229303
 30
0.0
 10
195.135492
 20
143.957914
 30
0.0
 10
231.965492
 20
143.957914
 30
0.0
 10
231.965492
 20
143.957914
 30
0.0
  0
LWPOLYLINE
  5
1bc
100
AcDbEntity
  8
Layer_1
 62
7
100
AcDbPolyline
 90
6
 70
0
 10
234.964103
 20
161.279303
 30
0.0
 10
234.964103
 20
150.387289
 30
0.0
 10
233.235492
 20
146.683123
 30
0.0
 10
233.235492
 20
161.279303
 30
0.0
 10
234.964103
 20
161.279303
 30
0.0
 10
234.964103
 20
161.279303
 30
0.0
  0
LWPOLYLINE
  5
1bd
100
AcDbEntity
  8
Layer_1
 62
7
100
AcDbPolyline
 90
6
 70
0
 10
240.846658
 20
163.007914
 30
0.0
 10
240.044103
 20
161.279303
 30
0.0
 10
233.235492
 20
161.279303
 30
0.0
 10
233.235492
 20
163.007914
 30
0.0
 10
240.846658
 20
163.007914
 30
0.0
 10
240.846658
 20
163.007914
 30
0.0
  0
LWPOLYLINE
  5
1be
100
AcDbEntity
  8
Layer_1
 62
7
100
AcDbPolyline
 90
6
 70
0
 10
261.810492
 20
163.007914
 30
0.0
 10
261.810492
 20
161.279303
 30
0.0
 10
250.565686
 20
161.279303
 30
0.0
 10
246.861519
 20
163.007914
 30
0.0
 10
261.810492
 20
163.007914
 30
0.0
 10
261.810492
 20
163.007914
 30
0.0
  0
LWPOLYLINE
  5
1bf
100
AcDbEntity
  8
Layer_1
 62
7
100
AcDbPolyline
 90
6
 70
0
 10
356.358472
 20
161.814933
 30
0.0
 10
325.199361
 20
147.280488
 30
0.0
 10
325.922584
 20
145.719447
 30
0.0
 10
360.441861
 20
161.814933
 30
0.0
 10
356.358472
 20
161.814933
 30
0.0
 10
356.358472
 20
161.814933
 30
0.0
  0
LWPOLYLINE
  5
1c0
100
AcDbEntity
  8
Layer_1
 62
7
100
AcDbPolyline
 90
5
 70
0
 10
252.404952
 20
93.545685
 30
0.0
 10
278.020442
 20
148.478281
 30
0.0
 10
279.587233
 20
147.747674
 30
0.0
 10
253.971743
 20
92.815078
 30
0.0
 10
252.404952
 20
93.545685
 30
0.0
  0
LWPOLYLINE
  5
1c1
100
AcDbEntity
  8
Layer_1
 62
7
100
AcDbPolyline
 90
6
 70
0
 10
246.858336
 20
163.005578
 30
0.0
 10
278.017461
 20
148.471133
 30
0.0
 10
277.294238
 20
146.910091
 30
0.0
 10
242.774947
 20
163.005578
 30
0.0
 10
246.858336
 20
163.005578
 30
0.0
 10
246.858336
 20
163.005578
 30
0.0
  0
ENDSEC
  0
SECTION
  2
OBJECTS
  0
DICTIONARY
  5
C
330
0
100
AcDbDictionary
  3
ACAD_GROUP
350
D
  3
ACAD_MLINESTYLE
350
17
  0
DICTIONARY
  5
D
330
C
100
AcDbDictionary
  0
DICTIONARY
  5
1A
330
C
100
AcDbDictionary
  0
DICTIONARY
  5
17
330
C
100
AcDbDictionary
  3
STANDARD
350
18
  0
DICTIONARY
  5
19
330
C
100
AcDbDictionary
  0
ENDSEC
  0
EOF
