<?xml version="1.0" encoding="UTF-8" standalone="no"?>
<!-- Created with Inkscape (http://www.inkscape.org/) -->
<svg id="svg2" xmlns:rdf="http://www.w3.org/1999/02/22-rdf-syntax-ns#" xmlns="http://www.w3.org/2000/svg" height="1052.4" width="2104.7" version="1.1" xmlns:cc="http://creativecommons.org/ns#" xmlns:dc="http://purl.org/dc/elements/1.1/">
 <defs id="defs4"></defs>
 <metadata id="metadata7">
  <rdf:RDF>
   <cc:Work rdf:about="">
    <dc:format>image/svg+xml</dc:format>
    <dc:type rdf:resource="http://purl.org/dc/dcmitype/StillImage"/>
    <dc:title/>
   </cc:Work>
  </rdf:RDF>
 </metadata>
 <g id="layer1" fill-rule="nonzero" transform="translate(0,-0.00205801)" fill="#414141">
  <path id="rect5621-2-2-5-0-57-9-4-2-8-9-5-32-6-6" style="enable-background:accumulate;color:#000000;" d="m1277.2,411.49,0,67.5,67.5,0,0-67.5-67.5,0zm12.469,6.125,12.406,0,0,2.875,17.75,0,0-2.875,12.375,0,0,2.875,3.5,0,0,3.5,2.875,0,0,12.375-2.875,0,0,17.75,2.875,0,0,12.406-2.875,0,0,3.4688-3.5,0,0,2.875-12.375,0,0-2.875-17.75,0,0,2.875-12.406,0,0-2.875-3.4688,0,0-3.4688-2.875,0,0-12.406,2.875,0,0-17.75-2.875,0,0-12.375,2.875,0,0-3.5,3.4688,0,0-2.875z"/>
  <path id="rect5621-2-2-5-0-57-9-4-2-8-9-79-04-4-3" style="enable-background:accumulate;color:#000000;" d="m1277.2,276.49,0,67.5,67.5,0,0-67.5-67.5,0zm12.469,6.125,12.406,0,0,2.875,17.75,0,0-2.875,12.375,0,0,2.875,3.5,0,0,3.5,2.875,0,0,12.375-2.875,0,0,17.75,2.875,0,0,12.406-2.875,0,0,3.4688-3.5,0,0,2.875-12.375,0,0-2.875-17.75,0,0,2.875-12.406,0,0-2.875-3.4688,0,0-3.4688-2.875,0,0-12.406,2.875,0,0-17.75-2.875,0,0-12.375,2.875,0,0-3.5,3.4688,0,0-2.875z"/>
  <path id="rect5621-2-2-5-0-57-9-4-2-8-9-4-8-0-4" style="enable-background:accumulate;color:#000000;" d="m1277.2,343.99,0,67.5,67.5,0,0-67.5-67.5,0zm12.469,6.125,12.406,0,0,2.875,17.75,0,0-2.875,12.375,0,0,2.875,3.5,0,0,3.5,2.875,0,0,12.375-2.875,0,0,17.75,2.875,0,0,12.406-2.875,0,0,3.4688-3.5,0,0,2.875-12.375,0,0-2.875-17.75,0,0,2.875-12.406,0,0-2.875-3.4688,0,0-3.4688-2.875,0,0-12.406,2.875,0,0-17.75-2.875,0,0-12.375,2.875,0,0-3.5,3.4688,0,0-2.875z"/>
  <path id="rect5621-2-2-5-0-57-9-4-2-8-9-79-7-9-4-9" style="enable-background:accumulate;color:#000000;" d="m1344.7,268.05,0,67.5,67.5,0,0-67.5-67.5,0zm12.469,6.125,12.406,0,0,2.875,17.75,0,0-2.875,12.375,0,0,2.875,3.5,0,0,3.5,2.875,0,0,12.375-2.875,0,0,17.75,2.875,0,0,12.406-2.875,0,0,3.4688-3.5,0,0,2.875-12.375,0,0-2.875-17.75,0,0,2.875-12.406,0,0-2.875-3.4688,0,0-3.4688-2.875,0,0-12.406,2.875,0,0-17.75-2.875,0,0-12.375,2.875,0,0-3.5,3.4688,0,0-2.875z"/>
  <path id="rect5621-2-2-5-0-57-9-4-2-8-9-4-2-0-5-2" style="enable-background:accumulate;color:#000000;" d="m1344.7,335.55,0,67.5,67.5,0,0-67.5-67.5,0zm12.469,6.125,12.406,0,0,2.875,17.75,0,0-2.875,12.375,0,0,2.875,3.5,0,0,3.5,2.875,0,0,12.375-2.875,0,0,17.75,2.875,0,0,12.406-2.875,0,0,3.4688-3.5,0,0,2.875-12.375,0,0-2.875-17.75,0,0,2.875-12.406,0,0-2.875-3.4688,0,0-3.4688-2.875,0,0-12.406,2.875,0,0-17.75-2.875,0,0-12.375,2.875,0,0-3.5,3.4688,0,0-2.875z"/>
  <path id="rect5621-2-2-5-0-57-9-4-2-8-9-5-2-9-2-9" style="enable-background:accumulate;color:#000000;" d="m1344.7,403.05,0,67.5,67.5,0,0-67.5-67.5,0zm12.469,6.125,12.406,0,0,2.875,17.75,0,0-2.875,12.375,0,0,2.875,3.5,0,0,3.5,2.875,0,0,12.375-2.875,0,0,17.75,2.875,0,0,12.406-2.875,0,0,3.4688-3.5,0,0,2.875-12.375,0,0-2.875-17.75,0,0,2.875-12.406,0,0-2.875-3.4688,0,0-3.4688-2.875,0,0-12.406,2.875,0,0-17.75-2.875,0,0-12.375,2.875,0,0-3.5,3.4688,0,0-2.875z"/>
  <path id="rect5621-2-2-5-0-57-9-4-2-8-9-79-74-2-69-5" style="enable-background:accumulate;color:#000000;" d="m1412.2,251.17,0,67.5,67.5,0,0-67.5-67.5,0zm12.469,6.125,12.406,0,0,2.875,17.75,0,0-2.875,12.375,0,0,2.875,3.5,0,0,3.5,2.875,0,0,12.375-2.875,0,0,17.75,2.875,0,0,12.406-2.875,0,0,3.4688-3.5,0,0,2.875-12.375,0,0-2.875-17.75,0,0,2.875-12.406,0,0-2.875-3.4688,0,0-3.4688-2.875,0,0-12.406,2.875,0,0-17.75-2.875,0,0-12.375,2.875,0,0-3.5,3.4688,0,0-2.875z"/>
  <path id="rect5621-2-2-5-0-57-9-4-2-8-9-4-9-6-9-3" style="enable-background:accumulate;color:#000000;" d="m1412.2,318.67,0,67.5,67.5,0,0-67.5-67.5,0zm12.469,6.125,12.406,0,0,2.875,17.75,0,0-2.875,12.375,0,0,2.875,3.5,0,0,3.5,2.875,0,0,12.375-2.875,0,0,17.75,2.875,0,0,12.406-2.875,0,0,3.4688-3.5,0,0,2.875-12.375,0,0-2.875-17.75,0,0,2.875-12.406,0,0-2.875-3.4688,0,0-3.4688-2.875,0,0-12.406,2.875,0,0-17.75-2.875,0,0-12.375,2.875,0,0-3.5,3.4688,0,0-2.875z"/>
  <path id="rect5621-2-2-5-0-57-9-4-2-8-9-5-3-0-53-6" style="enable-background:accumulate;color:#000000;" d="m1412.2,386.17,0,67.5,67.5,0,0-67.5-67.5,0zm12.469,6.125,12.406,0,0,2.875,17.75,0,0-2.875,12.375,0,0,2.875,3.5,0,0,3.5,2.875,0,0,12.375-2.875,0,0,17.75,2.875,0,0,12.406-2.875,0,0,3.4688-3.5,0,0,2.875-12.375,0,0-2.875-17.75,0,0,2.875-12.406,0,0-2.875-3.4688,0,0-3.4688-2.875,0,0-12.406,2.875,0,0-17.75-2.875,0,0-12.375,2.875,0,0-3.5,3.4688,0,0-2.875z"/>
  <path id="rect5621-2-2-5-0-57-9-4-2-8-9-79-2-4-3-4" style="enable-background:accumulate;color:#000000;" d="m1479.7,259.61,0,67.5,67.5,0,0-67.5-67.5,0zm12.469,6.125,12.406,0,0,2.875,17.75,0,0-2.875,12.375,0,0,2.875,3.5,0,0,3.5,2.875,0,0,12.375-2.875,0,0,17.75,2.875,0,0,12.406-2.875,0,0,3.4688-3.5,0,0,2.875-12.375,0,0-2.875-17.75,0,0,2.875-12.406,0,0-2.875-3.4688,0,0-3.4688-2.875,0,0-12.406,2.875,0,0-17.75-2.875,0,0-12.375,2.875,0,0-3.5,3.4688,0,0-2.875z"/>
  <path id="rect5621-2-2-5-0-57-9-4-2-8-9-4-0-2-39-3" style="enable-background:accumulate;color:#000000;" d="m1479.7,327.11,0,67.5,67.5,0,0-67.5-67.5,0zm12.469,6.125,12.406,0,0,2.875,17.75,0,0-2.875,12.375,0,0,2.875,3.5,0,0,3.5,2.875,0,0,12.375-2.875,0,0,17.75,2.875,0,0,12.406-2.875,0,0,3.4688-3.5,0,0,2.875-12.375,0,0-2.875-17.75,0,0,2.875-12.406,0,0-2.875-3.4688,0,0-3.4688-2.875,0,0-12.406,2.875,0,0-17.75-2.875,0,0-12.375,2.875,0,0-3.5,3.4688,0,0-2.875z"/>
  <path id="rect5621-2-2-5-0-57-9-4-2-8-9-5-5-3-4-8" style="enable-background:accumulate;color:#000000;" d="m1479.7,394.61,0,67.5,67.5,0,0-67.5-67.5,0zm12.469,6.125,12.406,0,0,2.875,17.75,0,0-2.875,12.375,0,0,2.875,3.5,0,0,3.5,2.875,0,0,12.375-2.875,0,0,17.75,2.875,0,0,12.406-2.875,0,0,3.4688-3.5,0,0,2.875-12.375,0,0-2.875-17.75,0,0,2.875-12.406,0,0-2.875-3.4688,0,0-3.4688-2.875,0,0-12.406,2.875,0,0-17.75-2.875,0,0-12.375,2.875,0,0-3.5,3.4688,0,0-2.875z"/>
  <path id="rect5621-2-2-5-0-57-9-4-2-8-9-79-7-7-55-2-2" style="enable-background:accumulate;color:#000000;" d="m1547.2,276.49,0,67.5,67.5,0,0-67.5-67.5,0zm12.469,6.125,12.406,0,0,2.875,17.75,0,0-2.875,12.375,0,0,2.875,3.5,0,0,3.5,2.875,0,0,12.375-2.875,0,0,17.75,2.875,0,0,12.406-2.875,0,0,3.4688-3.5,0,0,2.875-12.375,0,0-2.875-17.75,0,0,2.875-12.406,0,0-2.875-3.4688,0,0-3.4688-2.875,0,0-12.406,2.875,0,0-17.75-2.875,0,0-12.375,2.875,0,0-3.5,3.4688,0,0-2.875z"/>
  <path id="rect5621-2-2-5-0-57-9-4-2-8-9-4-2-1-4-8-9" style="enable-background:accumulate;color:#000000;" d="m1547.2,343.99,0,67.5,67.5,0,0-67.5-67.5,0zm12.469,6.125,12.406,0,0,2.875,17.75,0,0-2.875,12.375,0,0,2.875,3.5,0,0,3.5,2.875,0,0,12.375-2.875,0,0,17.75,2.875,0,0,12.406-2.875,0,0,3.4688-3.5,0,0,2.875-12.375,0,0-2.875-17.75,0,0,2.875-12.406,0,0-2.875-3.4688,0,0-3.4688-2.875,0,0-12.406,2.875,0,0-17.75-2.875,0,0-12.375,2.875,0,0-3.5,3.4688,0,0-2.875z"/>
  <path id="rect5621-2-2-5-0-57-9-4-2-8-9-5-2-6-5-6-2" style="enable-background:accumulate;color:#000000;" d="m1547.2,411.49,0,67.5,67.5,0,0-67.5-67.5,0zm12.469,6.125,12.406,0,0,2.875,17.75,0,0-2.875,12.375,0,0,2.875,3.5,0,0,3.5,2.875,0,0,12.375-2.875,0,0,17.75,2.875,0,0,12.406-2.875,0,0,3.4688-3.5,0,0,2.875-12.375,0,0-2.875-17.75,0,0,2.875-12.406,0,0-2.875-3.4688,0,0-3.4688-2.875,0,0-12.406,2.875,0,0-17.75-2.875,0,0-12.375,2.875,0,0-3.5,3.4688,0,0-2.875z"/>
  <path id="rect5621-2-2-5-0-57-9-4-2-8-9-79-74-4-9-5-2" style="enable-background:accumulate;color:#000000;" d="m1614.7,276.49,0,67.5,67.5,0,0-67.5-67.5,0zm12.469,6.125,12.406,0,0,2.875,17.75,0,0-2.875,12.375,0,0,2.875,3.5,0,0,3.5,2.875,0,0,12.375-2.875,0,0,17.75,2.875,0,0,12.406-2.875,0,0,3.4688-3.5,0,0,2.875-12.375,0,0-2.875-17.75,0,0,2.875-12.406,0,0-2.875-3.4688,0,0-3.4688-2.875,0,0-12.406,2.875,0,0-17.75-2.875,0,0-12.375,2.875,0,0-3.5,3.4688,0,0-2.875z"/>
  <path id="rect5621-2-2-5-0-57-9-4-2-8-9-4-9-7-6-9-2" style="enable-background:accumulate;color:#000000;" d="m1614.7,343.99,0,67.5,67.5,0,0-67.5-67.5,0zm12.469,6.125,12.406,0,0,2.875,17.75,0,0-2.875,12.375,0,0,2.875,3.5,0,0,3.5,2.875,0,0,12.375-2.875,0,0,17.75,2.875,0,0,12.406-2.875,0,0,3.4688-3.5,0,0,2.875-12.375,0,0-2.875-17.75,0,0,2.875-12.406,0,0-2.875-3.4688,0,0-3.4688-2.875,0,0-12.406,2.875,0,0-17.75-2.875,0,0-12.375,2.875,0,0-3.5,3.4688,0,0-2.875z"/>
  <path id="rect5621-2-2-5-0-57-9-4-2-8-9-5-3-3-4-3-5" style="enable-background:accumulate;color:#000000;" d="m1614.7,411.49,0,67.5,67.5,0,0-67.5-67.5,0zm12.469,6.125,12.406,0,0,2.875,17.75,0,0-2.875,12.375,0,0,2.875,3.5,0,0,3.5,2.875,0,0,12.375-2.875,0,0,17.75,2.875,0,0,12.406-2.875,0,0,3.4688-3.5,0,0,2.875-12.375,0,0-2.875-17.75,0,0,2.875-12.406,0,0-2.875-3.4688,0,0-3.4688-2.875,0,0-12.406,2.875,0,0-17.75-2.875,0,0-12.375,2.875,0,0-3.5,3.4688,0,0-2.875z"/>
  <path id="rect5621-2-2-5-0-57-9-4-2-8-9-1-7-4-3" style="enable-background:accumulate;color:#000000;" d="m1682.2,276.49,0,67.5,67.5,0,0-67.5-67.5,0zm12.469,6.125,12.406,0,0,2.875,17.75,0,0-2.875,12.375,0,0,2.875,3.5,0,0,3.5,2.875,0,0,12.375-2.875,0,0,17.75,2.875,0,0,12.406-2.875,0,0,3.4688-3.5,0,0,2.875-12.375,0,0-2.875-17.75,0,0,2.875-12.406,0,0-2.875-3.4688,0,0-3.4688-2.875,0,0-12.406,2.875,0,0-17.75-2.875,0,0-12.375,2.875,0,0-3.5,3.4688,0,0-2.875z"/>
  <path id="rect7292-1-2-0-2-9-5-6" style="enable-background:accumulate;color:#000000;" d="m1277.2,276.49-67.5,0,0,67.5,0,33.75,67.5,0,0-33.75,0-67.5zm-6.125,29.344,0,12.406-2.875,0,0,17.75,2.875,0,0,12.375-2.875,0,0,3.5-3.5,0,0,2.875-12.375,0,0-2.875-17.75,0,0,2.875-12.406,0,0-2.875-3.4688,0,0-3.5-2.875,0,0-12.375,2.875,0,0-17.75-2.875,0,0-12.406,2.875,0,0-3.4688,3.4688,0,0-2.875,12.406,0,0,2.875,17.75,0,0-2.875,12.375,0,0,2.875,3.5,0,0,3.4688,2.875,0z"/>
  <rect id="rect3218-6-2-74-1" style="enable-background:accumulate;color:#000000;" transform="scale(-1,1)" height="6.1255" width="202.5" y="270.36" x="-1749.7"/>
  <rect id="rect3218-5-7-1-1-4" style="enable-background:accumulate;color:#000000;" transform="matrix(0,-1,-1,0,0,0)" height="6.1255" width="214.75" y="-1209.7" x="-485.11"/>
  <rect id="rect3218-5-2-4-2-1" style="enable-background:accumulate;color:#000000;" transform="matrix(0,-1,-1,0,0,0)" height="6.1255" width="282.25" y="-1755.8" x="-552.61"/>
  <path id="rect5621-2-2-5-0-57-9-4-2-8-9-5-2-9-9-3-7-74-5-5" style="enable-background:accumulate;color:#000000;" d="m1412.2,453.67,0,16.875,67.5,0,0-16.875-67.5,0z"/>
  <path id="rect5621-2-2-5-0-57-9-4-2-8-9-5-2-9-9-3-7-7-4-1-1" style="enable-background:accumulate;color:#000000;" d="m1479.7,462.11,0,8.4375,67.5,0,0-8.4375-67.5,0z"/>
  <path id="rect7292-1-2-0-0-1-0-4" style="enable-background:accumulate;color:#000000;" d="m1749.7,445.24-67.5,0,0,67.5,0,33.75,67.5,0,0-33.75,0-67.5zm-6.125,29.344,0,12.406-2.875,0,0,17.75,2.875,0,0,12.375-2.875,0,0,3.5-3.5,0,0,2.875-12.375,0,0-2.875-17.75,0,0,2.875-12.406,0,0-2.875-3.4688,0,0-3.5-2.875,0,0-12.375,2.875,0,0-17.75-2.875,0,0-12.406,2.875,0,0-3.4687,3.4688,0,0-2.875,12.406,0,0,2.875,17.75,0,0-2.875,12.375,0,0,2.875,3.5,0,0,3.4687,2.875,0z"/>
  <path id="rect7292-1-2-0-2-9-7-8-5" style="enable-background:accumulate;color:#000000;" d="m1749.7,343.99-67.5,0,0,67.5,0,33.75,67.5,0,0-33.75,0-67.5zm-6.125,29.344,0,12.406-2.875,0,0,17.75,2.875,0,0,12.375-2.875,0,0,3.5-3.5,0,0,2.875-12.375,0,0-2.875-17.75,0,0,2.875-12.406,0,0-2.875-3.4688,0,0-3.5-2.875,0,0-12.375,2.875,0,0-17.75-2.875,0,0-12.406,2.875,0,0-3.4688,3.4688,0,0-2.875,12.406,0,0,2.875,17.75,0,0-2.875,12.375,0,0,2.875,3.5,0,0,3.4688,2.875,0z"/>
  <rect id="rect3218-7-5-0-6-1" style="enable-background:accumulate;color:#000000;" transform="scale(-1,1)" height="6.1255" width="202.5" y="546.49" x="-1749.7"/>
  <rect id="rect3218-5-8-8-3-8" style="enable-background:accumulate;color:#000000;" transform="matrix(0,-1,-1,0,0,0)" height="6.1255" width="16.875" y="-1446" x="-569.49"/>
  <rect id="rect3218-5-8-8-0-9-8" style="enable-background:accumulate;color:#000000;" transform="matrix(0,-1,-1,0,0,0)" height="6.1255" width="8.4375" y="-1344.7" x="-270.36"/>
  <rect id="rect3218-5-8-8-4-0-3" style="enable-background:accumulate;color:#000000;" transform="matrix(0,-1,-1,0,0,0)" height="6.1255" width="16.875" y="-1412.2" x="-261.92"/>
  <rect id="rect3218-5-8-8-2-68-4" style="enable-background:accumulate;color:#000000;" transform="matrix(0,-1,-1,0,0,0)" height="6.1255" width="8.4375" y="-1485.8" x="-253.49"/>
  <rect id="rect3218-5-8-8-6-8-4" style="enable-background:accumulate;color:#000000;" transform="matrix(0,-1,-1,0,0,0)" height="6.1255" width="16.875" y="-1553.3" x="-270.36"/>
  <rect id="rect3218-6-2-9-3-8" style="enable-background:accumulate;color:#000000;" transform="scale(-1,1)" height="6.1255" width="135" y="270.36" x="-1344.7"/>
  <rect id="rect3218-6-2-0-9-6" style="enable-background:accumulate;color:#000000;" transform="scale(-1,1)" height="6.1255" width="67.5" y="261.92" x="-1412.2"/>
  <rect id="rect3218-6-2-6-47-8" style="enable-background:accumulate;color:#000000;" transform="scale(-1,1)" height="6.1255" width="67.5" y="245.05" x="-1479.7"/>
  <rect id="rect3218-6-2-7-7-9" style="enable-background:accumulate;color:#000000;" transform="scale(-1,1)" height="6.1255" width="67.5" y="253.49" x="-1547.2"/>
  <path id="rect5621-2-2-5-0-57-9-4-2-8-9-5-2-9-9-3-7-7-4-0-06-1" style="enable-background:accumulate;color:#000000;" d="m1344.7,470.55,0,8.4375,202.5,0,0-8.4375-202.5,0z"/>
  <path id="rect5621-2-2-5-0-57-9-4-2-8-9-8-1-6-7-3-1" style="enable-background:accumulate;color:#000000;" d="m1682.2,478.99-67.5,0-67.5,0,0,6,0,55.5,0,6,67.5,0,67.5,0,0-67.5zm-19.344,11.812-0.125,49.5-11.688-0.031,0.094-49.5,11.719,0.031zm-20.531,0.6562,0,12.406-2.875,0,0,17.75,2.875,0,0,12.375-2.875,0,0,3.5-3.5,0,0,2.875-12.375,0,0-2.875-17.75,0,0,2.875-12.406,0,0-2.875-3.4688,0,0-3.5-2.875,0,0-12.375,2.875,0,0-17.75-2.875,0,0-12.406,2.875,0,0-3.4687,3.4688,0,0-2.875,12.406,0,0,2.875,17.75,0,0-2.875,12.375,0,0,2.875,3.5,0,0,3.4687,2.875,0zm-64.094-0.8437-0.094,49.5-11.688-0.031,0.094-49.5,11.688,0.031z"/>
  <path id="rect7292-1-2-6-8-7-5" style="enable-background:accumulate;color:#000000;" d="m1446,495.86,0,67.5,67.5,0,33.75,0,0-67.5-33.75,0-67.5,0zm29.344,6.125,12.406,0,0,2.875,17.75,0,0-2.875,12.375,0,0,2.875,3.5,0,0,3.5,2.875,0,0,12.375-2.875,0,0,17.75,2.875,0,0,12.406-2.875,0,0,3.4688-3.5,0,0,2.875-12.375,0,0-2.875-17.75,0,0,2.875-12.406,0,0-2.875-3.4688,0,0-3.4688-2.875,0,0-12.406,2.875,0,0-17.75-2.875,0,0-12.375,2.875,0,0-3.5,3.4688,0,0-2.875z"/>
  <path id="rect5621-2-2-5-0-57-9-4-2-8-9-5-2-9-9-3-7-74-5-1-5" style="enable-background:accumulate;color:#000000;" d="m1446,478.99,0,16.875,101.25,0,0-16.875-101.25,0z"/>
  <rect id="rect3218-7-5-0-6-3-4" style="enable-background:accumulate;color:#000000;" transform="scale(-1,1)" height="6.1255" width="101.25" y="563.36" x="-1547.2"/>
  <rect id="rect3218-5-8-8-3-3-5" style="enable-background:accumulate;color:#000000;" transform="matrix(0,-1,-1,0,0,0)" height="6.1255" width="16.875" y="-1553.3" x="-569.49"/>
  <path id="rect7292-1-2-0-0-4-0" style="enable-background:accumulate;color:#000000;" d="m1277.2,377.74-67.5,0,0,67.5,0,33.75,67.5,0,0-33.75,0-67.5zm-6.125,29.344,0,12.406-2.875,0,0,17.75,2.875,0,0,12.375-2.875,0,0,3.5-3.5,0,0,2.875-12.375,0,0-2.875-17.75,0,0,2.875-12.406,0,0-2.875-3.4688,0,0-3.5-2.875,0,0-12.375,2.875,0,0-17.75-2.875,0,0-12.406,2.875,0,0-3.4688,3.4688,0,0-2.875,12.406,0,0,2.875,17.75,0,0-2.875,12.375,0,0,2.875,3.5,0,0,3.4688,2.875,0z"/>
  <path id="path9348-5" style="enable-background:accumulate;color:#000000;" d="m1203.6,485.12,0,21.438,45.969-21.438-45.969,0z"/>
  <path id="path9377-7" style="enable-background:accumulate;color:#000000;" d="m1304.8,523.71,0-38.594-18,0,18,38.594z"/>
  <path id="rect5621-2-2-5-0-57-9-4-2-8-9-8-1-6-7-3-8-4" style="enable-background:accumulate;color:#000000;" d="m1446,478.99-67.5,0-67.5,0,0,6,0,55.5,0,6,67.5,0,67.5,0,0-67.5zm-19.344,11.812-0.125,49.5-11.688-0.031,0.094-49.5,11.719,0.031zm-20.531,0.6562,0,12.406-2.875,0,0,17.75,2.875,0,0,12.375-2.875,0,0,3.5-3.5,0,0,2.875-12.375,0,0-2.875-17.75,0,0,2.875-12.406,0,0-2.875-3.4688,0,0-3.5-2.875,0,0-12.375,2.875,0,0-17.75-2.875,0,0-12.406,2.875,0,0-3.4687,3.4688,0,0-2.875,12.406,0,0,2.875,17.75,0,0-2.875,12.375,0,0,2.875,3.5,0,0,3.4687,2.875,0zm-64.094-0.8437-0.094,49.5-11.688-0.031,0.094-49.5,11.688,0.031z"/>
  <path id="rect5621-2-2-5-0-57-9-4-2-8-9-8-5-3-8-9-7" style="enable-background:accumulate;color:#000000;" d="m1216,507.51,28.527,61.176,28.527,61.176,5.4378-2.5357,50.3-23.455,5.4378-2.5357-28.527-61.176-28.527-61.176-61.176,28.527zm18.881,12.539,44.915-20.806,4.9114,10.606-44.902,20.834-4.9244-10.634zm9.2715,18.33,11.244-5.2431,1.2151,2.6056,16.087-7.5015-1.2149-2.6057,11.215-5.2298,1.2151,2.6056,3.172-1.4792,1.4792,3.172,2.6056-1.215,5.2299,11.216-2.6056,1.215,7.5015,16.087,2.6055-1.2151,5.2432,11.244-2.6056,1.2151,1.4659,3.1438-3.1721,1.4791,1.2151,2.6057-11.216,5.2299-1.215-2.6057-16.087,7.5015,1.215,2.6056-11.244,5.2432-1.215-2.6056-3.1436,1.4659-1.466-3.1438-2.6056,1.215-5.2431-11.244,2.6056-1.2151-7.5014-16.087-2.6057,1.215-5.2299-11.216,2.6057-1.2151-1.4792-3.172,3.1435-1.4659-1.215-2.6057zm26.323,58.445,44.902-20.834,4.9114,10.606-44.902,20.834-4.9113-10.606z"/>
  <path id="rect5621-2-2-5-0-57-9-4-2-8-9-8-8-9-6-1-4" style="enable-background:accumulate;color:#000000;" d="m1154.9,536.04,28.527,61.176,28.527,61.176,5.4378-2.5358,50.3-23.455,5.4379-2.5357-28.527-61.176-28.527-61.176-61.176,28.527zm18.881,12.539,44.915-20.806,4.9114,10.606-44.902,20.834-4.9244-10.634zm9.2714,18.33,11.244-5.2431,1.2151,2.6056,16.087-7.5015-1.215-2.6056,11.216-5.2299,1.215,2.6057,3.1721-1.4792,1.4791,3.1721,2.6057-1.2151,5.2298,11.216-2.6057,1.215,7.5015,16.087,2.6056-1.2151,5.2431,11.244-2.6056,1.215,1.466,3.1438-3.172,1.4792,1.215,2.6056-11.216,5.2299-1.2151-2.6056-16.087,7.5014,1.2151,2.6057-11.244,5.243-1.2151-2.6055-3.1436,1.4659-1.466-3.1438-2.6055,1.215-5.2432-11.244,2.6057-1.215-7.5014-16.087-2.6057,1.215-5.2298-11.216,2.6055-1.215-1.4792-3.1721,3.1436-1.4659-1.215-2.6057zm26.323,58.445,44.902-20.834,4.9112,10.606-44.902,20.834-4.9114-10.606z"/>
  <path id="rect5621-2-2-5-0-57-9-4-2-8-9-8-1-36-4-9-1-8" style="enable-background:accumulate;color:#000000;" d="m1334.3,601.34-61.176,28.527-61.176,28.527,2.5357,5.4378,23.455,50.3,2.5357,5.4379,61.176-28.527,61.176-28.527-28.527-61.176zm-12.539,18.881,20.806,44.915-10.606,4.9113-20.834-44.902,10.634-4.9245zm-18.331,9.2716,5.2432,11.244-2.6056,1.215,7.5015,16.087,2.6055-1.215,5.2299,11.216-2.6056,1.215,1.4792,3.1721-3.1721,1.4791,1.2151,2.6057-11.216,5.2299-1.2151-2.6057-16.087,7.5015,1.215,2.6057-11.244,5.243-1.215-2.6055-3.1438,1.4659-1.4792-3.1721-2.6056,1.215-5.2298-11.216,2.6055-1.2151-7.5014-16.087-2.6057,1.215-5.2431-11.244,2.6056-1.215-1.4659-3.1438,3.1438-1.4659-1.215-2.6058,11.244-5.243,1.215,2.6057,16.087-7.5014-1.215-2.6057,11.216-5.2299,1.2152,2.6056,3.1719-1.4792,1.4659,3.1438,2.6056-1.2151zm-58.445,26.323,20.834,44.902-10.606,4.9113-20.834-44.902,10.606-4.9113z"/>
  <rect id="rect3218-0-1-4-6" style="enable-background:accumulate;color:#000000;" transform="matrix(-0.90630779,0.42261826,0.42261826,0.90630779,0,0)" height="6.1255" width="135" y="1176.4" x="-955.12"/>
  <rect id="rect3218-5-7-1-1-3-14-9" style="enable-background:accumulate;color:#000000;" transform="matrix(-0.42261826,-0.90630779,-0.90630779,0.42261826,0,0)" height="6.1255" width="214.76" y="-820.12" x="-1182.5"/>
  <path id="rect3218-5-7-1-1-3-6-3" style="enable-background:accumulate;color:#000000;" d="m1277.2,478.99,88.188,189.06,5.5312-2.5938-55.469-118.97-4.5,0,0-6,0-3.6562-26.969-57.844-6.7813,0z"/>
  <path id="rect3218-7-5-09-8" style="enable-background:accumulate;color:#000000;" d="m1315.5,546.49,2.8438,6.125,127.66,0,0-6.125-130.5,0z"/>
  <path id="path9449-6" style="enable-background:accumulate;color:#000000;" d="m1304.8,485.12,0,38.594,6.125,13.125,0-51.719-6.125,0z"/>
  <path id="rect3218-7-5-0-6-3-3-3" style="enable-background:accumulate;color:#000000;" d="m1284,478.99,2.8437,6.125,24.125,0,0-6.125-26.969,0z"/>
  <path id="path9498-9" style="enable-background:accumulate;color:#000000;" d="m1209.7,478.99,0,6.125,39.844,0,13.125-6.125-52.969,0z"/>
  <path id="rect5621-2-2-5-0-57-9-4-2-8-9-5-32-6-6-5" style="enable-background:accumulate;color:#000000;" d="m860.17,407.27,0,67.5-67.5,0,0-67.5,67.5,0zm-12.469,6.125-12.406,0,0,2.875-17.75,0,0-2.875-12.375,0,0,2.875-3.5,0,0,3.5-2.875,0,0,12.375,2.875,0,0,17.75-2.875,0,0,12.406,2.875,0,0,3.4688,3.5,0,0,2.875,12.375,0,0-2.875,17.75,0,0,2.875,12.406,0,0-2.875,3.4688,0,0-3.4688,2.875,0,0-12.406-2.875,0,0-17.75,2.875,0,0-12.375-2.875,0,0-3.5-3.4688,0,0-2.875z"/>
  <path id="rect5621-2-2-5-0-57-9-4-2-8-9-79-04-4-3-1" style="enable-background:accumulate;color:#000000;" d="m860.17,272.27,0,67.5-67.5,0,0-67.5,67.5,0zm-12.469,6.125-12.406,0,0,2.875-17.75,0,0-2.875-12.375,0,0,2.875-3.5,0,0,3.5-2.875,0,0,12.375,2.875,0,0,17.75-2.875,0,0,12.406,2.875,0,0,3.4688,3.5,0,0,2.875,12.375,0,0-2.875,17.75,0,0,2.875,12.406,0,0-2.875,3.4688,0,0-3.4688,2.875,0,0-12.406-2.875,0,0-17.75,2.875,0,0-12.375-2.875,0,0-3.5-3.4688,0,0-2.875z"/>
  <path id="rect5621-2-2-5-0-57-9-4-2-8-9-4-8-0-4-9" style="enable-background:accumulate;color:#000000;" d="m860.17,339.77,0,67.5-67.5,0,0-67.5,67.5,0zm-12.469,6.125-12.406,0,0,2.875-17.75,0,0-2.875-12.375,0,0,2.875-3.5,0,0,3.5-2.875,0,0,12.375,2.875,0,0,17.75-2.875,0,0,12.406,2.875,0,0,3.4688,3.5,0,0,2.875,12.375,0,0-2.875,17.75,0,0,2.875,12.406,0,0-2.875,3.4688,0,0-3.4688,2.875,0,0-12.406-2.875,0,0-17.75,2.875,0,0-12.375-2.875,0,0-3.5-3.4688,0,0-2.875z"/>
  <path id="rect5621-2-2-5-0-57-9-4-2-8-9-79-7-9-4-9-3" style="enable-background:accumulate;color:#000000;" d="m792.67,263.83,0,67.5-67.5,0,0-67.5,67.5,0zm-12.469,6.125-12.406,0,0,2.875-17.75,0,0-2.875-12.375,0,0,2.875-3.5,0,0,3.5-2.875,0,0,12.375,2.875,0,0,17.75-2.875,0,0,12.406,2.875,0,0,3.4688,3.5,0,0,2.875,12.375,0,0-2.875,17.75,0,0,2.875,12.406,0,0-2.875,3.4688,0,0-3.4688,2.875,0,0-12.406-2.875,0,0-17.75,2.875,0,0-12.375-2.875,0,0-3.5-3.4688,0,0-2.875z"/>
  <path id="rect5621-2-2-5-0-57-9-4-2-8-9-4-2-0-5-2-1" style="enable-background:accumulate;color:#000000;" d="m792.67,331.33,0,67.5-67.5,0,0-67.5,67.5,0zm-12.469,6.125-12.406,0,0,2.875-17.75,0,0-2.875-12.375,0,0,2.875-3.5,0,0,3.5-2.875,0,0,12.375,2.875,0,0,17.75-2.875,0,0,12.406,2.875,0,0,3.4688,3.5,0,0,2.875,12.375,0,0-2.875,17.75,0,0,2.875,12.406,0,0-2.875,3.4688,0,0-3.4688,2.875,0,0-12.406-2.875,0,0-17.75,2.875,0,0-12.375-2.875,0,0-3.5-3.4688,0,0-2.875z"/>
  <path id="rect5621-2-2-5-0-57-9-4-2-8-9-5-2-9-2-9-7" style="enable-background:accumulate;color:#000000;" d="m792.67,398.83,0,67.5-67.5,0,0-67.5,67.5,0zm-12.469,6.125-12.406,0,0,2.875-17.75,0,0-2.875-12.375,0,0,2.875-3.5,0,0,3.5-2.875,0,0,12.375,2.875,0,0,17.75-2.875,0,0,12.406,2.875,0,0,3.4688,3.5,0,0,2.875,12.375,0,0-2.875,17.75,0,0,2.875,12.406,0,0-2.875,3.4688,0,0-3.4688,2.875,0,0-12.406-2.875,0,0-17.75,2.875,0,0-12.375-2.875,0,0-3.5-3.4688,0,0-2.875z"/>
  <path id="rect5621-2-2-5-0-57-9-4-2-8-9-79-74-2-69-5-8" style="enable-background:accumulate;color:#000000;" d="m725.17,246.96,0,67.5-67.5,0,0-67.5,67.5,0zm-12.469,6.125-12.406,0,0,2.875-17.75,0,0-2.875-12.375,0,0,2.875-3.5,0,0,3.5-2.875,0,0,12.375,2.875,0,0,17.75-2.875,0,0,12.406,2.875,0,0,3.4688,3.5,0,0,2.875,12.375,0,0-2.875,17.75,0,0,2.875,12.406,0,0-2.875,3.4688,0,0-3.4688,2.875,0,0-12.406-2.875,0,0-17.75,2.875,0,0-12.375-2.875,0,0-3.5-3.4688,0,0-2.875z"/>
  <path id="rect5621-2-2-5-0-57-9-4-2-8-9-4-9-6-9-3-7" style="enable-background:accumulate;color:#000000;" d="m725.17,314.46,0,67.5-67.5,0,0-67.5,67.5,0zm-12.469,6.125-12.406,0,0,2.875-17.75,0,0-2.875-12.375,0,0,2.875-3.5,0,0,3.5-2.875,0,0,12.375,2.875,0,0,17.75-2.875,0,0,12.406,2.875,0,0,3.4688,3.5,0,0,2.875,12.375,0,0-2.875,17.75,0,0,2.875,12.406,0,0-2.875,3.4688,0,0-3.4688,2.875,0,0-12.406-2.875,0,0-17.75,2.875,0,0-12.375-2.875,0,0-3.5-3.4688,0,0-2.875z"/>
  <path id="rect5621-2-2-5-0-57-9-4-2-8-9-5-3-0-53-6-5" style="enable-background:accumulate;color:#000000;" d="m725.17,381.96,0,67.5-67.5,0,0-67.5,67.5,0zm-12.469,6.125-12.406,0,0,2.875-17.75,0,0-2.875-12.375,0,0,2.875-3.5,0,0,3.5-2.875,0,0,12.375,2.875,0,0,17.75-2.875,0,0,12.406,2.875,0,0,3.4688,3.5,0,0,2.875,12.375,0,0-2.875,17.75,0,0,2.875,12.406,0,0-2.875,3.4688,0,0-3.4688,2.875,0,0-12.406-2.875,0,0-17.75,2.875,0,0-12.375-2.875,0,0-3.5-3.4688,0,0-2.875z"/>
  <path id="rect5621-2-2-5-0-57-9-4-2-8-9-79-2-4-3-4-9" style="enable-background:accumulate;color:#000000;" d="m657.67,255.39,0,67.5-67.5,0,0-67.5,67.5,0zm-12.469,6.125-12.406,0,0,2.875-17.75,0,0-2.875-12.375,0,0,2.875-3.5,0,0,3.5-2.875,0,0,12.375,2.875,0,0,17.75-2.875,0,0,12.406,2.875,0,0,3.4688,3.5,0,0,2.875,12.375,0,0-2.875,17.75,0,0,2.875,12.406,0,0-2.875,3.4688,0,0-3.4688,2.875,0,0-12.406-2.875,0,0-17.75,2.875,0,0-12.375-2.875,0,0-3.5-3.4688,0,0-2.875z"/>
  <path id="rect5621-2-2-5-0-57-9-4-2-8-9-4-0-2-39-3-4" style="enable-background:accumulate;color:#000000;" d="m657.67,322.89,0,67.5-67.5,0,0-67.5,67.5,0zm-12.469,6.125-12.406,0,0,2.875-17.75,0,0-2.875-12.375,0,0,2.875-3.5,0,0,3.5-2.875,0,0,12.375,2.875,0,0,17.75-2.875,0,0,12.406,2.875,0,0,3.4688,3.5,0,0,2.875,12.375,0,0-2.875,17.75,0,0,2.875,12.406,0,0-2.875,3.4688,0,0-3.4688,2.875,0,0-12.406-2.875,0,0-17.75,2.875,0,0-12.375-2.875,0,0-3.5-3.4688,0,0-2.875z"/>
  <path id="rect5621-2-2-5-0-57-9-4-2-8-9-5-5-3-4-8-0" style="enable-background:accumulate;color:#000000;" d="m657.67,390.39,0,67.5-67.5,0,0-67.5,67.5,0zm-12.469,6.125-12.406,0,0,2.875-17.75,0,0-2.875-12.375,0,0,2.875-3.5,0,0,3.5-2.875,0,0,12.375,2.875,0,0,17.75-2.875,0,0,12.406,2.875,0,0,3.4688,3.5,0,0,2.875,12.375,0,0-2.875,17.75,0,0,2.875,12.406,0,0-2.875,3.4688,0,0-3.4688,2.875,0,0-12.406-2.875,0,0-17.75,2.875,0,0-12.375-2.875,0,0-3.5-3.4688,0,0-2.875z"/>
  <path id="rect5621-2-2-5-0-57-9-4-2-8-9-79-7-7-55-2-2-0" style="enable-background:accumulate;color:#000000;" d="m590.17,272.27,0,67.5-67.5,0,0-67.5,67.5,0zm-12.469,6.125-12.406,0,0,2.875-17.75,0,0-2.875-12.375,0,0,2.875-3.5,0,0,3.5-2.875,0,0,12.375,2.875,0,0,17.75-2.875,0,0,12.406,2.875,0,0,3.4688,3.5,0,0,2.875,12.375,0,0-2.875,17.75,0,0,2.875,12.406,0,0-2.875,3.4688,0,0-3.4688,2.875,0,0-12.406-2.875,0,0-17.75,2.875,0,0-12.375-2.875,0,0-3.5-3.4688,0,0-2.875z"/>
  <path id="rect5621-2-2-5-0-57-9-4-2-8-9-4-2-1-4-8-9-1" style="enable-background:accumulate;color:#000000;" d="m590.17,339.77,0,67.5-67.5,0,0-67.5,67.5,0zm-12.469,6.125-12.406,0,0,2.875-17.75,0,0-2.875-12.375,0,0,2.875-3.5,0,0,3.5-2.875,0,0,12.375,2.875,0,0,17.75-2.875,0,0,12.406,2.875,0,0,3.4688,3.5,0,0,2.875,12.375,0,0-2.875,17.75,0,0,2.875,12.406,0,0-2.875,3.4688,0,0-3.4688,2.875,0,0-12.406-2.875,0,0-17.75,2.875,0,0-12.375-2.875,0,0-3.5-3.4688,0,0-2.875z"/>
  <path id="rect5621-2-2-5-0-57-9-4-2-8-9-5-2-6-5-6-2-6" style="enable-background:accumulate;color:#000000;" d="m590.17,407.27,0,67.5-67.5,0,0-67.5,67.5,0zm-12.469,6.125-12.406,0,0,2.875-17.75,0,0-2.875-12.375,0,0,2.875-3.5,0,0,3.5-2.875,0,0,12.375,2.875,0,0,17.75-2.875,0,0,12.406,2.875,0,0,3.4688,3.5,0,0,2.875,12.375,0,0-2.875,17.75,0,0,2.875,12.406,0,0-2.875,3.4688,0,0-3.4688,2.875,0,0-12.406-2.875,0,0-17.75,2.875,0,0-12.375-2.875,0,0-3.5-3.4688,0,0-2.875z"/>
  <path id="rect5621-2-2-5-0-57-9-4-2-8-9-79-74-4-9-5-2-1" style="enable-background:accumulate;color:#000000;" d="m522.67,272.27,0,67.5-67.5,0,0-67.5,67.5,0zm-12.469,6.125-12.406,0,0,2.875-17.75,0,0-2.875-12.375,0,0,2.875-3.5,0,0,3.5-2.875,0,0,12.375,2.875,0,0,17.75-2.875,0,0,12.406,2.875,0,0,3.4688,3.5,0,0,2.875,12.375,0,0-2.875,17.75,0,0,2.875,12.406,0,0-2.875,3.4688,0,0-3.4688,2.875,0,0-12.406-2.875,0,0-17.75,2.875,0,0-12.375-2.875,0,0-3.5-3.4688,0,0-2.875z"/>
  <path id="rect5621-2-2-5-0-57-9-4-2-8-9-4-9-7-6-9-2-3" style="enable-background:accumulate;color:#000000;" d="m522.67,339.77,0,67.5-67.5,0,0-67.5,67.5,0zm-12.469,6.125-12.406,0,0,2.875-17.75,0,0-2.875-12.375,0,0,2.875-3.5,0,0,3.5-2.875,0,0,12.375,2.875,0,0,17.75-2.875,0,0,12.406,2.875,0,0,3.4688,3.5,0,0,2.875,12.375,0,0-2.875,17.75,0,0,2.875,12.406,0,0-2.875,3.4688,0,0-3.4688,2.875,0,0-12.406-2.875,0,0-17.75,2.875,0,0-12.375-2.875,0,0-3.5-3.4688,0,0-2.875z"/>
  <path id="rect5621-2-2-5-0-57-9-4-2-8-9-5-3-3-4-3-5-0" style="enable-background:accumulate;color:#000000;" d="m522.67,407.27,0,67.5-67.5,0,0-67.5,67.5,0zm-12.469,6.125-12.406,0,0,2.875-17.75,0,0-2.875-12.375,0,0,2.875-3.5,0,0,3.5-2.875,0,0,12.375,2.875,0,0,17.75-2.875,0,0,12.406,2.875,0,0,3.4688,3.5,0,0,2.875,12.375,0,0-2.875,17.75,0,0,2.875,12.406,0,0-2.875,3.4688,0,0-3.4688,2.875,0,0-12.406-2.875,0,0-17.75,2.875,0,0-12.375-2.875,0,0-3.5-3.4688,0,0-2.875z"/>
  <path id="rect5621-2-2-5-0-57-9-4-2-8-9-1-7-4-3-7" style="enable-background:accumulate;color:#000000;" d="m455.17,272.27,0,67.5-67.5,0,0-67.5,67.5,0zm-12.469,6.125-12.406,0,0,2.875-17.75,0,0-2.875-12.375,0,0,2.875-3.5,0,0,3.5-2.875,0,0,12.375,2.875,0,0,17.75-2.875,0,0,12.406,2.875,0,0,3.4688,3.5,0,0,2.875,12.375,0,0-2.875,17.75,0,0,2.875,12.406,0,0-2.875,3.4688,0,0-3.4688,2.875,0,0-12.406-2.875,0,0-17.75,2.875,0,0-12.375-2.875,0,0-3.5-3.4688,0,0-2.875z"/>
  <path id="rect7292-1-2-0-2-9-5-6-6" style="enable-background:accumulate;color:#000000;" d="m860.17,272.27,67.5,0,0,67.5,0,33.75-67.5,0,0-33.75,0-67.5zm6.125,29.344,0,12.406,2.875,0,0,17.75-2.875,0,0,12.375,2.875,0,0,3.5,3.5,0,0,2.875,12.375,0,0-2.875,17.75,0,0,2.875,12.406,0,0-2.875,3.4688,0,0-3.5,2.875,0,0-12.375-2.875,0,0-17.75,2.875,0,0-12.406-2.875,0,0-3.4688-3.4688,0,0-2.875-12.406,0,0,2.875-17.75,0,0-2.875-12.375,0,0,2.875-3.5,0,0,3.4688-2.875,0z"/>
  <rect id="rect3218-6-2-74-1-6" style="enable-background:accumulate;color:#000000;" height="6.1255" width="202.5" y="266.14" x="387.67"/>
  <rect id="rect3218-5-7-1-1-4-1" style="enable-background:accumulate;color:#000000;" transform="matrix(0,-1,1,0,0,0)" height="6.1255" width="214.75" y="927.67" x="-480.89"/>
  <rect id="rect3218-5-2-4-2-1-8" style="enable-background:accumulate;color:#000000;" transform="matrix(0,-1,1,0,0,0)" height="6.1255" width="282.25" y="381.54" x="-548.39"/>
  <path id="rect5621-2-2-5-0-57-9-4-2-8-9-5-2-9-9-3-7-74-5-5-1" style="enable-background:accumulate;color:#000000;" d="m725.17,449.46,0,16.875-67.5,0,0-16.875,67.5,0z"/>
  <path id="rect5621-2-2-5-0-57-9-4-2-8-9-5-2-9-9-3-7-7-4-1-1-2" style="enable-background:accumulate;color:#000000;" d="m657.67,457.89,0,8.4375-67.5,0,0-8.4375,67.5,0z"/>
  <path id="rect7292-1-2-0-0-1-0-4-6" style="enable-background:accumulate;color:#000000;" d="m387.67,441.02,67.5,0,0,67.5,0,33.75-67.5,0,0-33.75,0-67.5zm6.125,29.344,0,12.406,2.875,0,0,17.75-2.875,0,0,12.375,2.875,0,0,3.5,3.5,0,0,2.875,12.375,0,0-2.875,17.75,0,0,2.875,12.406,0,0-2.875,3.4688,0,0-3.5,2.875,0,0-12.375-2.875,0,0-17.75,2.875,0,0-12.406-2.875,0,0-3.4687-3.4688,0,0-2.875-12.406,0,0,2.875-17.75,0,0-2.875-12.375,0,0,2.875-3.5,0,0,3.4687-2.875,0z"/>
  <path id="rect7292-1-2-0-2-9-7-8-5-1" style="enable-background:accumulate;color:#000000;" d="m387.67,339.77,67.5,0,0,67.5,0,33.75-67.5,0,0-33.75,0-67.5zm6.125,29.344,0,12.406,2.875,0,0,17.75-2.875,0,0,12.375,2.875,0,0,3.5,3.5,0,0,2.875,12.375,0,0-2.875,17.75,0,0,2.875,12.406,0,0-2.875,3.4688,0,0-3.5,2.875,0,0-12.375-2.875,0,0-17.75,2.875,0,0-12.406-2.875,0,0-3.4688-3.4688,0,0-2.875-12.406,0,0,2.875-17.75,0,0-2.875-12.375,0,0,2.875-3.5,0,0,3.4688-2.875,0z"/>
  <rect id="rect3218-7-5-0-6-1-1" style="enable-background:accumulate;color:#000000;" height="6.1255" width="202.5" y="542.27" x="387.67"/>
  <rect id="rect3218-5-8-8-3-8-4" style="enable-background:accumulate;color:#000000;" transform="matrix(0,-1,1,0,0,0)" height="6.1255" width="16.875" y="691.42" x="-565.27"/>
  <rect id="rect3218-5-8-8-0-9-8-0" style="enable-background:accumulate;color:#000000;" transform="matrix(0,-1,1,0,0,0)" height="6.1255" width="8.4375" y="792.67" x="-266.14"/>
  <rect id="rect3218-5-8-8-4-0-3-2" style="enable-background:accumulate;color:#000000;" transform="matrix(0,-1,1,0,0,0)" height="6.1255" width="16.875" y="725.17" x="-257.71"/>
  <rect id="rect3218-5-8-8-2-68-4-9" style="enable-background:accumulate;color:#000000;" transform="matrix(0,-1,1,0,0,0)" height="6.1255" width="8.4375" y="651.54" x="-249.27"/>
  <rect id="rect3218-5-8-8-6-8-4-4" style="enable-background:accumulate;color:#000000;" transform="matrix(0,-1,1,0,0,0)" height="6.1255" width="16.875" y="584.04" x="-266.14"/>
  <rect id="rect3218-6-2-9-3-8-1" style="enable-background:accumulate;color:#000000;" height="6.1255" width="135" y="266.14" x="792.67"/>
  <rect id="rect3218-6-2-0-9-6-5" style="enable-background:accumulate;color:#000000;" height="6.1255" width="67.5" y="257.71" x="725.17"/>
  <rect id="rect3218-6-2-6-47-8-5" style="enable-background:accumulate;color:#000000;" height="6.1255" width="67.5" y="240.83" x="657.67"/>
  <rect id="rect3218-6-2-7-7-9-0" style="enable-background:accumulate;color:#000000;" height="6.1255" width="67.5" y="249.27" x="590.17"/>
  <path id="rect5621-2-2-5-0-57-9-4-2-8-9-5-2-9-9-3-7-7-4-0-06-1-3" style="enable-background:accumulate;color:#000000;" d="m792.67,466.33,0,8.4375-202.5,0,0-8.4375,202.5,0z"/>
  <path id="rect5621-2-2-5-0-57-9-4-2-8-9-8-1-6-7-3-1-5" style="enable-background:accumulate;color:#000000;" d="m455.17,474.77,67.5,0,67.5,0,0,6,0,55.5,0,6-67.5,0-67.5,0,0-67.5zm19.344,11.812,0.125,49.5,11.688-0.031-0.094-49.5-11.719,0.031zm20.531,0.6562,0,12.406,2.875,0,0,17.75-2.875,0,0,12.375,2.875,0,0,3.5,3.5,0,0,2.875,12.375,0,0-2.875,17.75,0,0,2.875,12.406,0,0-2.875,3.4688,0,0-3.5,2.875,0,0-12.375-2.875,0,0-17.75,2.875,0,0-12.406-2.875,0,0-3.4687-3.4688,0,0-2.875-12.406,0,0,2.875-17.75,0,0-2.875-12.375,0,0,2.875-3.5,0,0,3.4687-2.875,0zm64.094-0.8437,0.094,49.5,11.688-0.031-0.094-49.5-11.688,0.031z"/>
  <path id="rect7292-1-2-6-8-7-5-7" style="enable-background:accumulate;color:#000000;" d="m691.42,491.64,0,67.5-67.5,0-33.75,0,0-67.5,33.75,0,67.5,0zm-29.344,6.125-12.406,0,0,2.875-17.75,0,0-2.875-12.375,0,0,2.875-3.5,0,0,3.5-2.875,0,0,12.375,2.875,0,0,17.75-2.875,0,0,12.406,2.875,0,0,3.4688,3.5,0,0,2.875,12.375,0,0-2.875,17.75,0,0,2.875,12.406,0,0-2.875,3.4688,0,0-3.4688,2.875,0,0-12.406-2.875,0,0-17.75,2.875,0,0-12.375-2.875,0,0-3.5-3.4688,0,0-2.875z"/>
  <path id="rect5621-2-2-5-0-57-9-4-2-8-9-5-2-9-9-3-7-74-5-1-5-3" style="enable-background:accumulate;color:#000000;" d="m691.42,474.77,0,16.875-101.25,0,0-16.875,101.25,0z"/>
  <rect id="rect3218-7-5-0-6-3-4-9" style="enable-background:accumulate;color:#000000;" height="6.1255" width="101.25" y="559.14" x="590.17"/>
  <rect id="rect3218-5-8-8-3-3-5-8" style="enable-background:accumulate;color:#000000;" transform="matrix(0,-1,1,0,0,0)" height="6.1255" width="16.875" y="584.04" x="-565.27"/>
  <path id="rect7292-1-2-0-0-4-0-5" style="enable-background:accumulate;color:#000000;" d="m860.17,373.52,67.5,0,0,67.5,0,33.75-67.5,0,0-33.75,0-67.5zm6.125,29.344,0,12.406,2.875,0,0,17.75-2.875,0,0,12.375,2.875,0,0,3.5,3.5,0,0,2.875,12.375,0,0-2.875,17.75,0,0,2.875,12.406,0,0-2.875,3.4688,0,0-3.5,2.875,0,0-12.375-2.875,0,0-17.75,2.875,0,0-12.406-2.875,0,0-3.4688-3.4688,0,0-2.875-12.406,0,0,2.875-17.75,0,0-2.875-12.375,0,0,2.875-3.5,0,0,3.4688-2.875,0z"/>
  <path id="path9348-5-0" style="enable-background:accumulate;color:#000000;" d="m933.8,480.9,0,21.438-45.969-21.438,45.969,0z"/>
  <path id="path9377-7-6" style="enable-background:accumulate;color:#000000;" d="m832.54,519.49,0-38.594,18,0-18,38.594z"/>
  <path id="rect5621-2-2-5-0-57-9-4-2-8-9-8-1-6-7-3-8-4-7" style="enable-background:accumulate;color:#000000;" d="m691.42,474.77,67.5,0,67.5,0,0,6,0,55.5,0,6-67.5,0-67.5,0,0-67.5zm19.344,11.812,0.125,49.5,11.688-0.031-0.094-49.5-11.719,0.031zm20.531,0.6562,0,12.406,2.875,0,0,17.75-2.875,0,0,12.375,2.875,0,0,3.5,3.5,0,0,2.875,12.375,0,0-2.875,17.75,0,0,2.875,12.406,0,0-2.875,3.4688,0,0-3.5,2.875,0,0-12.375-2.875,0,0-17.75,2.875,0,0-12.406-2.875,0,0-3.4687-3.4688,0,0-2.875-12.406,0,0,2.875-17.75,0,0-2.875-12.375,0,0,2.875-3.5,0,0,3.4687-2.875,0zm64.094-0.8437,0.094,49.5,11.688-0.031-0.094-49.5-11.688,0.031z"/>
  <path id="rect5621-2-2-5-0-57-9-4-2-8-9-8-5-3-8-9-7-5" style="enable-background:accumulate;color:#000000;" d="m921.34,503.3-28.527,61.176-28.527,61.176-5.4378-2.5357-50.3-23.455-5.4378-2.5357,28.527-61.176,28.527-61.176,61.176,28.527zm-18.881,12.539-44.915-20.806-4.9114,10.606,44.902,20.834,4.9244-10.634zm-9.2715,18.33-11.244-5.2431-1.2151,2.6056-16.087-7.5015,1.2149-2.6057-11.215-5.2298-1.2151,2.6056-3.172-1.4792-1.4792,3.172-2.6056-1.215-5.2299,11.216,2.6056,1.215-7.5015,16.087-2.6055-1.2151-5.2432,11.244,2.6056,1.2151-1.4659,3.1438,3.1721,1.4791-1.2151,2.6057,11.216,5.2299,1.215-2.6057,16.087,7.5015-1.215,2.6056,11.244,5.2432,1.215-2.6056,3.1436,1.4659,1.466-3.1438,2.6056,1.215,5.2431-11.244-2.6056-1.2151,7.5014-16.087,2.6057,1.215,5.2299-11.216-2.6057-1.2151,1.4792-3.172-3.1435-1.4659,1.215-2.6057zm-26.323,58.445-44.902-20.834-4.9114,10.606,44.902,20.834,4.9113-10.606z"/>
  <path id="rect5621-2-2-5-0-57-9-4-2-8-9-8-8-9-6-1-4-6" style="enable-background:accumulate;color:#000000;" d="m982.52,531.82-28.527,61.176-28.527,61.176-5.4378-2.5358-50.3-23.455-5.4379-2.5357,28.527-61.176,28.527-61.176,61.176,28.527zm-18.881,12.539-44.915-20.806-4.9114,10.606,44.902,20.834,4.9244-10.634zm-9.2714,18.33-11.244-5.2431-1.2151,2.6056-16.087-7.5015,1.215-2.6056-11.216-5.2299-1.215,2.6057-3.1721-1.4792-1.4791,3.1721-2.6057-1.2151-5.2298,11.216,2.6057,1.215-7.5015,16.087-2.6056-1.2151-5.2431,11.244,2.6056,1.215-1.466,3.1438,3.172,1.4792-1.215,2.6056,11.216,5.2299,1.2151-2.6056,16.087,7.5014-1.2151,2.6057,11.244,5.243,1.2151-2.6055,3.1436,1.4659,1.466-3.1438,2.6055,1.215,5.2432-11.244-2.6057-1.215,7.5014-16.087,2.6057,1.215,5.2298-11.216-2.6055-1.215,1.4792-3.1721-3.1436-1.4659,1.215-2.6057zm-26.323,58.445-44.902-20.834-4.9112,10.606,44.902,20.834,4.9114-10.606z"/>
  <path id="rect5621-2-2-5-0-57-9-4-2-8-9-8-1-36-4-9-1-8-6" style="enable-background:accumulate;color:#000000;" d="m803.11,597.12,61.176,28.527,61.176,28.527-2.5357,5.4378-23.455,50.3-2.5357,5.4379-61.176-28.527-61.176-28.527,28.527-61.176zm12.539,18.881-20.806,44.915,10.606,4.9113,20.834-44.902-10.634-4.9245zm18.331,9.2716-5.2432,11.244,2.6056,1.215-7.5015,16.087-2.6055-1.215-5.2299,11.216,2.6056,1.215-1.4792,3.1721,3.1721,1.4791-1.2151,2.6057,11.216,5.2299,1.2151-2.6057,16.087,7.5015-1.215,2.6057,11.244,5.243,1.215-2.6055,3.1438,1.4659,1.4792-3.1721,2.6056,1.215,5.2298-11.216-2.6055-1.2151,7.5014-16.087,2.6057,1.215,5.2431-11.244-2.6056-1.215,1.4659-3.1438-3.1438-1.4659,1.215-2.6058-11.244-5.243-1.215,2.6057-16.087-7.5014,1.215-2.6057-11.216-5.2299-1.2152,2.6056-3.1719-1.4792-1.4659,3.1438-2.6056-1.2151zm58.445,26.323-20.834,44.902,10.606,4.9113,20.834-44.902-10.606-4.9113z"/>
  <rect id="rect3218-0-1-4-6-1" style="enable-background:accumulate;color:#000000;" transform="matrix(0.90630779,0.42261826,-0.42261826,0.90630779,0,0)" height="6.1255" width="135" y="269.26" x="980.22"/>
  <path id="rect3218-5-7-1-1-3-6-3-0" style="enable-background:accumulate;color:#000000;" d="m860.17,474.77-88.188,189.06-5.5312-2.5938,55.469-118.97,4.5,0,0-6,0-3.6562,26.969-57.844,6.7813,0z"/>
  <path id="rect3218-7-5-09-8-9" style="enable-background:accumulate;color:#000000;" d="m821.92,542.27-2.8438,6.125-127.66,0,0-6.125,130.5,0z"/>
  <path id="path9449-6-3" style="enable-background:accumulate;color:#000000;" d="m832.55,480.9,0,38.594-6.125,13.125,0-51.719,6.125,0z"/>
  <path id="rect3218-7-5-0-6-3-3-3-4" style="enable-background:accumulate;color:#000000;" d="m853.39,474.77-2.8437,6.125-24.125,0,0-6.125,26.969,0z"/>
  <path id="path9498-9-0" style="enable-background:accumulate;color:#000000;" d="m927.67,474.77,0,6.125-39.844,0-13.125-6.125,52.969,0z"/>
  <path id="path5806" style="enable-background:accumulate;color:#000000;" d="m1262.7,479-110.41,51.5,2.5626,5.5312,122.31-57.031-14.469,0z"/>
  <rect id="rect3218-5-7-1-1-3-14-9-5" style="enable-background:accumulate;color:#000000;" transform="matrix(0.42261826,-0.90630779,0.90630779,0.42261826,0,0)" height="6.1255" width="214.76" y="1115.2" x="-275.39"/>
  <path id="path5806-2" style="enable-background:accumulate;color:#000000;" d="m874.69,474.78,110.41,51.5-2.5626,5.5312-122.31-57.031,14.469,0z"/>
 </g>
</svg>
