  0
SECTION
  2
HEADER
  9
$ACADVER
  1
AC1014
  9
$HANDSEED
  5
FFFF
  9
$MEASUREMENT
 70
     1
  0
ENDSEC
  0
SECTION
  2
TABLES
  0
TABLE
  2
VPORT
  5
8
330
0
100
AcDbSymbolTable
 70
     4
  0
VPORT
  5
2E
330
8
100
AcDbSymbolTableRecord
100
AcDbViewportTableRecord
  2
*ACTIVE
 70
     0
 10
0.0
 20
0.0
 11
1.0
 21
1.0
 12
210.0
 22
148.5
 13
0.0
 23
0.0
 14
10.0
 24
10.0
 15
10.0
 25
10.0
 16
0.0
 26
0.0
 36
1.0
 17
0.0
 27
0.0
 37
0.0
 40
341.0
 41
1.24
 42
50.0
 43
0.0
 44
0.0
 50
0.0
 51
0.0
 71
     0
 72
   100
 73
     1
 74
     3
 75
     0
 76
     0
 77
     0
 78
     0
  0
ENDTAB
  0
TABLE
  2
LTYPE
  5
5
330
0
100
AcDbSymbolTable
 70
     1
  0
LTYPE
  5
14
330
5
100
AcDbSymbolTableRecord
100
AcDbLinetypeTableRecord
  2
BYBLOCK
 70
     0
  3

 72
    65
 73
     0
 40
0.0
  0
LTYPE
  5
15
330
5
100
AcDbSymbolTableRecord
100
AcDbLinetypeTableRecord
  2
BYLAYER
 70
     0
  3

 72
    65
 73
     0
 40
0.0
  0
LTYPE
  5
16
330
5
100
AcDbSymbolTableRecord
100
AcDbLinetypeTableRecord
  2
CONTINUOUS
 70
     0
  3
Solid line
 72
    65
 73
     0
 40
0.0
  0
ENDTAB
  0
TABLE
  2
LAYER
  5
2
100
AcDbSymbolTable
 70
2
  0
LAYER
  5
50
100
AcDbSymbolTableRecord
100
AcDbLayerTableRecord
  2
0
 70
0
  6
CONTINUOUS
  0
LAYER
  5
51
100
AcDbSymbolTableRecord
100
AcDbLayerTableRecord
  2
Layer_1
 70
0
  6
CONTINUOUS
  0
ENDTAB
  0
TABLE
  2
STYLE
  5
3
330
0
100
AcDbSymbolTable
 70
     1
  0
STYLE
  5
11
330
3
100
AcDbSymbolTableRecord
100
AcDbTextStyleTableRecord
  2
STANDARD
 70
     0
 40
0.0
 41
1.0
 50
0.0
 71
     0
 42
2.5
  3
txt
  4

  0
ENDTAB
  0
TABLE
  2
VIEW
  5
6
330
0
100
AcDbSymbolTable
 70
     0
  0
ENDTAB
  0
TABLE
  2
UCS
  5
7
330
0
100
AcDbSymbolTable
 70
     0
  0
ENDTAB
  0
TABLE
  2
APPID
  5
9
330
0
100
AcDbSymbolTable
 70
     2
  0
APPID
  5
12
330
9
100
AcDbSymbolTableRecord
100
AcDbRegAppTableRecord
  2
ACAD
 70
     0
  0
ENDTAB
  0
TABLE
  2
DIMSTYLE
  5
A
330
0
100
AcDbSymbolTable
 70
     1
  0
DIMSTYLE
105
27
330
A
100
AcDbSymbolTableRecord
100
AcDbDimStyleTableRecord
  2
ISO-25
 70
     0
  3

  4

  5

  6

  7

 40
1.0
 41
2.5
 42
0.625
 43
3.75
 44
1.25
 45
0.0
 46
0.0
 47
0.0
 48
0.0
140
2.5
141
2.5
142
0.0
143
0.03937007874016
144
1.0
145
0.0
146
1.0
147
0.625
 71
     0
 72
     0
 73
     0
 74
     0
 75
     0
 76
     0
 77
     1
 78
     8
170
     0
171
     3
172
     1
173
     0
174
     0
175
     0
176
     0
177
     0
178
     0
270
     2
271
     2
272
     2
273
     2
274
     3
340
11
275
     0
280
     0
281
     0
282
     0
283
     0
284
     8
285
     0
286
     0
287
     3
288
     0
  0
ENDTAB
  0
TABLE
  2
BLOCK_RECORD
  5
1
330
0
100
AcDbSymbolTable
 70
     1
  0
BLOCK_RECORD
  5
1F
330
1
100
AcDbSymbolTableRecord
100
AcDbBlockTableRecord
  2
*MODEL_SPACE
  0
BLOCK_RECORD
  5
1B
330
1
100
AcDbSymbolTableRecord
100
AcDbBlockTableRecord
  2
*PAPER_SPACE
  0
ENDTAB
  0
ENDSEC
  0
SECTION
  2
BLOCKS
  0
BLOCK
  5
20
330
1F
100
AcDbEntity
  8
0
100
AcDbBlockBegin
  2
*MODEL_SPACE
 70
     0
 10
0.0
 20
0.0
 30
0.0
  3
*MODEL_SPACE
  1

  0
ENDBLK
  5
21
330
1F
100
AcDbEntity
  8
0
100
AcDbBlockEnd
  0
BLOCK
  5
1C
330
1B
100
AcDbEntity
 67
     1
  8
0
100
AcDbBlockBegin
  2
*PAPER_SPACE
  1

  0
ENDBLK
  5
1D
330
1B
100
AcDbEntity
 67
     1
  8
0
100
AcDbBlockEnd
  0
ENDSEC
  0
SECTION
  2
ENTITIES
  0
LWPOLYLINE
  5
100
100
AcDbEntity
  8
Layer_1
 62
7
100
AcDbPolyline
 90
6
 70
0
 10
360.458513
 20
180.869103
 30
0.0
 10
360.458513
 20
161.819089
 30
0.0
 10
379.508513
 20
161.819089
 30
0.0
 10
379.508513
 20
180.869103
 30
0.0
 10
360.458513
 20
180.869103
 30
0.0
 10
360.458513
 20
180.869103
 30
0.0
  0
LWPOLYLINE
  5
101
100
AcDbEntity
  8
Layer_1
 62
7
100
AcDbPolyline
 90
38
 70
0
 10
363.977485
 20
179.140478
 30
0.0
 10
367.478791
 20
179.140478
 30
0.0
 10
367.478791
 20
178.329089
 30
0.0
 10
372.488235
 20
178.329089
 30
0.0
 10
372.488235
 20
179.140478
 30
0.0
 10
375.980735
 20
179.140478
 30
0.0
 10
375.980735
 20
178.329089
 30
0.0
 10
376.968513
 20
178.329089
 30
0.0
 10
376.968513
 20
177.341311
 30
0.0
 10
377.779902
 20
177.341311
 30
0.0
 10
377.779902
 20
173.848811
 30
0.0
 10
376.968513
 20
173.848811
 30
0.0
 10
376.968513
 20
168.839366
 30
0.0
 10
377.779902
 20
168.839366
 30
0.0
 10
377.779902
 20
165.338061
 30
0.0
 10
376.968513
 20
165.338061
 30
0.0
 10
376.968513
 20
164.359089
 30
0.0
 10
375.980735
 20
164.359089
 30
0.0
 10
375.980735
 20
163.547700
 30
0.0
 10
372.488235
 20
163.547700
 30
0.0
 10
372.488235
 20
164.359089
 30
0.0
 10
367.478791
 20
164.359089
 30
0.0
 10
367.478791
 20
163.547700
 30
0.0
 10
363.977485
 20
163.547700
 30
0.0
 10
363.977485
 20
164.359089
 30
0.0
 10
362.998513
 20
164.359089
 30
0.0
 10
362.998513
 20
165.338061
 30
0.0
 10
362.187124
 20
165.338061
 30
0.0
 10
362.187124
 20
168.839366
 30
0.0
 10
362.998513
 20
168.839366
 30
0.0
 10
362.998513
 20
173.848811
 30
0.0
 10
362.187124
 20
173.848811
 30
0.0
 10
362.187124
 20
177.341311
 30
0.0
 10
362.998513
 20
177.341311
 30
0.0
 10
362.998513
 20
178.329089
 30
0.0
 10
363.977485
 20
178.329089
 30
0.0
 10
363.977485
 20
179.140478
 30
0.0
 10
363.977485
 20
179.140478
 30
0.0
  0
LWPOLYLINE
  5
102
100
AcDbEntity
  8
Layer_1
 62
7
100
AcDbPolyline
 90
6
 70
0
 10
360.458513
 20
218.969103
 30
0.0
 10
360.458513
 20
199.919103
 30
0.0
 10
379.508513
 20
199.919103
 30
0.0
 10
379.508513
 20
218.969103
 30
0.0
 10
360.458513
 20
218.969103
 30
0.0
 10
360.458513
 20
218.969103
 30
0.0
  0
LWPOLYLINE
  5
103
100
AcDbEntity
  8
Layer_1
 62
7
100
AcDbPolyline
 90
38
 70
0
 10
363.977485
 20
217.240492
 30
0.0
 10
367.478791
 20
217.240492
 30
0.0
 10
367.478791
 20
216.429103
 30
0.0
 10
372.488235
 20
216.429103
 30
0.0
 10
372.488235
 20
217.240492
 30
0.0
 10
375.980735
 20
217.240492
 30
0.0
 10
375.980735
 20
216.429103
 30
0.0
 10
376.968513
 20
216.429103
 30
0.0
 10
376.968513
 20
215.441325
 30
0.0
 10
377.779902
 20
215.441325
 30
0.0
 10
377.779902
 20
211.948825
 30
0.0
 10
376.968513
 20
211.948825
 30
0.0
 10
376.968513
 20
206.939381
 30
0.0
 10
377.779902
 20
206.939381
 30
0.0
 10
377.779902
 20
203.438061
 30
0.0
 10
376.968513
 20
203.438061
 30
0.0
 10
376.968513
 20
202.459103
 30
0.0
 10
375.980735
 20
202.459103
 30
0.0
 10
375.980735
 20
201.647714
 30
0.0
 10
372.488235
 20
201.647714
 30
0.0
 10
372.488235
 20
202.459103
 30
0.0
 10
367.478791
 20
202.459103
 30
0.0
 10
367.478791
 20
201.647714
 30
0.0
 10
363.977485
 20
201.647714
 30
0.0
 10
363.977485
 20
202.459103
 30
0.0
 10
362.998513
 20
202.459103
 30
0.0
 10
362.998513
 20
203.438061
 30
0.0
 10
362.187124
 20
203.438061
 30
0.0
 10
362.187124
 20
206.939381
 30
0.0
 10
362.998513
 20
206.939381
 30
0.0
 10
362.998513
 20
211.948825
 30
0.0
 10
362.187124
 20
211.948825
 30
0.0
 10
362.187124
 20
215.441325
 30
0.0
 10
362.998513
 20
215.441325
 30
0.0
 10
362.998513
 20
216.429103
 30
0.0
 10
363.977485
 20
216.429103
 30
0.0
 10
363.977485
 20
217.240492
 30
0.0
 10
363.977485
 20
217.240492
 30
0.0
  0
LWPOLYLINE
  5
104
100
AcDbEntity
  8
Layer_1
 62
7
100
AcDbPolyline
 90
6
 70
0
 10
360.458513
 20
199.919103
 30
0.0
 10
360.458513
 20
180.869106
 30
0.0
 10
379.508513
 20
180.869106
 30
0.0
 10
379.508513
 20
199.919106
 30
0.0
 10
360.458513
 20
199.919106
 30
0.0
 10
360.458513
 20
199.919103
 30
0.0
  0
LWPOLYLINE
  5
105
100
AcDbEntity
  8
Layer_1
 62
7
100
AcDbPolyline
 90
38
 70
0
 10
363.977485
 20
198.190492
 30
0.0
 10
367.478791
 20
198.190492
 30
0.0
 10
367.478791
 20
197.379103
 30
0.0
 10
372.488235
 20
197.379103
 30
0.0
 10
372.488235
 20
198.190492
 30
0.0
 10
375.980735
 20
198.190492
 30
0.0
 10
375.980735
 20
197.379103
 30
0.0
 10
376.968513
 20
197.379103
 30
0.0
 10
376.968513
 20
196.391325
 30
0.0
 10
377.779902
 20
196.391325
 30
0.0
 10
377.779902
 20
192.898825
 30
0.0
 10
376.968513
 20
192.898825
 30
0.0
 10
376.968513
 20
187.889383
 30
0.0
 10
377.779902
 20
187.889383
 30
0.0
 10
377.779902
 20
184.388064
 30
0.0
 10
376.968513
 20
184.388064
 30
0.0
 10
376.968513
 20
183.409106
 30
0.0
 10
375.980735
 20
183.409106
 30
0.0
 10
375.980735
 20
182.597717
 30
0.0
 10
372.488235
 20
182.597717
 30
0.0
 10
372.488235
 20
183.409106
 30
0.0
 10
367.478791
 20
183.409106
 30
0.0
 10
367.478791
 20
182.597717
 30
0.0
 10
363.977485
 20
182.597717
 30
0.0
 10
363.977485
 20
183.409106
 30
0.0
 10
362.998513
 20
183.409106
 30
0.0
 10
362.998513
 20
184.388064
 30
0.0
 10
362.187124
 20
184.388064
 30
0.0
 10
362.187124
 20
187.889383
 30
0.0
 10
362.998513
 20
187.889383
 30
0.0
 10
362.998513
 20
192.898828
 30
0.0
 10
362.187124
 20
192.898828
 30
0.0
 10
362.187124
 20
196.391328
 30
0.0
 10
362.998513
 20
196.391328
 30
0.0
 10
362.998513
 20
197.379106
 30
0.0
 10
363.977485
 20
197.379106
 30
0.0
 10
363.977485
 20
198.190495
 30
0.0
 10
363.977485
 20
198.190492
 30
0.0
  0
LWPOLYLINE
  5
106
100
AcDbEntity
  8
Layer_1
 62
7
100
AcDbPolyline
 90
6
 70
0
 10
379.508513
 20
221.350350
 30
0.0
 10
379.508513
 20
202.300350
 30
0.0
 10
398.558513
 20
202.300350
 30
0.0
 10
398.558513
 20
221.350350
 30
0.0
 10
379.508513
 20
221.350350
 30
0.0
 10
379.508513
 20
221.350350
 30
0.0
  0
LWPOLYLINE
  5
107
100
AcDbEntity
  8
Layer_1
 62
7
100
AcDbPolyline
 90
38
 70
0
 10
383.027485
 20
219.621739
 30
0.0
 10
386.528791
 20
219.621739
 30
0.0
 10
386.528791
 20
218.810350
 30
0.0
 10
391.538235
 20
218.810350
 30
0.0
 10
391.538235
 20
219.621739
 30
0.0
 10
395.030735
 20
219.621739
 30
0.0
 10
395.030735
 20
218.810350
 30
0.0
 10
396.018513
 20
218.810350
 30
0.0
 10
396.018513
 20
217.822572
 30
0.0
 10
396.829902
 20
217.822572
 30
0.0
 10
396.829902
 20
214.330072
 30
0.0
 10
396.018513
 20
214.330072
 30
0.0
 10
396.018513
 20
209.320628
 30
0.0
 10
396.829902
 20
209.320628
 30
0.0
 10
396.829902
 20
205.819308
 30
0.0
 10
396.018513
 20
205.819308
 30
0.0
 10
396.018513
 20
204.840350
 30
0.0
 10
395.030735
 20
204.840350
 30
0.0
 10
395.030735
 20
204.028961
 30
0.0
 10
391.538235
 20
204.028961
 30
0.0
 10
391.538235
 20
204.840350
 30
0.0
 10
386.528791
 20
204.840350
 30
0.0
 10
386.528791
 20
204.028961
 30
0.0
 10
383.027485
 20
204.028961
 30
0.0
 10
383.027485
 20
204.840350
 30
0.0
 10
382.048513
 20
204.840350
 30
0.0
 10
382.048513
 20
205.819308
 30
0.0
 10
381.237124
 20
205.819308
 30
0.0
 10
381.237124
 20
209.320628
 30
0.0
 10
382.048513
 20
209.320628
 30
0.0
 10
382.048513
 20
214.330072
 30
0.0
 10
381.237124
 20
214.330072
 30
0.0
 10
381.237124
 20
217.822572
 30
0.0
 10
382.048513
 20
217.822572
 30
0.0
 10
382.048513
 20
218.810350
 30
0.0
 10
383.027485
 20
218.810350
 30
0.0
 10
383.027485
 20
219.621739
 30
0.0
 10
383.027485
 20
219.621739
 30
0.0
  0
LWPOLYLINE
  5
108
100
AcDbEntity
  8
Layer_1
 62
7
100
AcDbPolyline
 90
6
 70
0
 10
379.508513
 20
202.300350
 30
0.0
 10
379.508513
 20
183.250350
 30
0.0
 10
398.558513
 20
183.250350
 30
0.0
 10
398.558513
 20
202.300350
 30
0.0
 10
379.508513
 20
202.300350
 30
0.0
 10
379.508513
 20
202.300350
 30
0.0
  0
LWPOLYLINE
  5
109
100
AcDbEntity
  8
Layer_1
 62
7
100
AcDbPolyline
 90
38
 70
0
 10
383.027485
 20
200.571739
 30
0.0
 10
386.528791
 20
200.571739
 30
0.0
 10
386.528791
 20
199.760350
 30
0.0
 10
391.538235
 20
199.760350
 30
0.0
 10
391.538235
 20
200.571739
 30
0.0
 10
395.030735
 20
200.571739
 30
0.0
 10
395.030735
 20
199.760350
 30
0.0
 10
396.018513
 20
199.760350
 30
0.0
 10
396.018513
 20
198.772572
 30
0.0
 10
396.829902
 20
198.772572
 30
0.0
 10
396.829902
 20
195.280072
 30
0.0
 10
396.018513
 20
195.280072
 30
0.0
 10
396.018513
 20
190.270628
 30
0.0
 10
396.829902
 20
190.270628
 30
0.0
 10
396.829902
 20
186.769308
 30
0.0
 10
396.018513
 20
186.769308
 30
0.0
 10
396.018513
 20
185.790350
 30
0.0
 10
395.030735
 20
185.790350
 30
0.0
 10
395.030735
 20
184.978961
 30
0.0
 10
391.538235
 20
184.978961
 30
0.0
 10
391.538235
 20
185.790350
 30
0.0
 10
386.528791
 20
185.790350
 30
0.0
 10
386.528791
 20
184.978961
 30
0.0
 10
383.027485
 20
184.978961
 30
0.0
 10
383.027485
 20
185.790350
 30
0.0
 10
382.048513
 20
185.790350
 30
0.0
 10
382.048513
 20
186.769308
 30
0.0
 10
381.237124
 20
186.769308
 30
0.0
 10
381.237124
 20
190.270628
 30
0.0
 10
382.048513
 20
190.270628
 30
0.0
 10
382.048513
 20
195.280072
 30
0.0
 10
381.237124
 20
195.280072
 30
0.0
 10
381.237124
 20
198.772572
 30
0.0
 10
382.048513
 20
198.772572
 30
0.0
 10
382.048513
 20
199.760350
 30
0.0
 10
383.027485
 20
199.760350
 30
0.0
 10
383.027485
 20
200.571739
 30
0.0
 10
383.027485
 20
200.571739
 30
0.0
  0
LWPOLYLINE
  5
10a
100
AcDbEntity
  8
Layer_1
 62
7
100
AcDbPolyline
 90
6
 70
0
 10
379.508513
 20
183.250350
 30
0.0
 10
379.508513
 20
164.200339
 30
0.0
 10
398.558513
 20
164.200339
 30
0.0
 10
398.558513
 20
183.250350
 30
0.0
 10
379.508513
 20
183.250350
 30
0.0
 10
379.508513
 20
183.250350
 30
0.0
  0
LWPOLYLINE
  5
10b
100
AcDbEntity
  8
Layer_1
 62
7
100
AcDbPolyline
 90
38
 70
0
 10
383.027485
 20
181.521739
 30
0.0
 10
386.528791
 20
181.521739
 30
0.0
 10
386.528791
 20
180.710350
 30
0.0
 10
391.538235
 20
180.710350
 30
0.0
 10
391.538235
 20
181.521739
 30
0.0
 10
395.030735
 20
181.521739
 30
0.0
 10
395.030735
 20
180.710350
 30
0.0
 10
396.018513
 20
180.710350
 30
0.0
 10
396.018513
 20
179.722561
 30
0.0
 10
396.829902
 20
179.722561
 30
0.0
 10
396.829902
 20
176.230061
 30
0.0
 10
396.018513
 20
176.230061
 30
0.0
 10
396.018513
 20
171.220616
 30
0.0
 10
396.829902
 20
171.220616
 30
0.0
 10
396.829902
 20
167.719311
 30
0.0
 10
396.018513
 20
167.719311
 30
0.0
 10
396.018513
 20
166.740339
 30
0.0
 10
395.030735
 20
166.740339
 30
0.0
 10
395.030735
 20
165.928950
 30
0.0
 10
391.538235
 20
165.928950
 30
0.0
 10
391.538235
 20
166.740339
 30
0.0
 10
386.528791
 20
166.740339
 30
0.0
 10
386.528791
 20
165.928950
 30
0.0
 10
383.027485
 20
165.928950
 30
0.0
 10
383.027485
 20
166.740339
 30
0.0
 10
382.048513
 20
166.740339
 30
0.0
 10
382.048513
 20
167.719311
 30
0.0
 10
381.237124
 20
167.719311
 30
0.0
 10
381.237124
 20
171.220616
 30
0.0
 10
382.048513
 20
171.220616
 30
0.0
 10
382.048513
 20
176.230061
 30
0.0
 10
381.237124
 20
176.230061
 30
0.0
 10
381.237124
 20
179.722561
 30
0.0
 10
382.048513
 20
179.722561
 30
0.0
 10
382.048513
 20
180.710350
 30
0.0
 10
383.027485
 20
180.710350
 30
0.0
 10
383.027485
 20
181.521739
 30
0.0
 10
383.027485
 20
181.521739
 30
0.0
  0
LWPOLYLINE
  5
10c
100
AcDbEntity
  8
Layer_1
 62
7
100
AcDbPolyline
 90
6
 70
0
 10
398.558513
 20
226.112847
 30
0.0
 10
398.558513
 20
207.062847
 30
0.0
 10
417.608513
 20
207.062847
 30
0.0
 10
417.608513
 20
226.112847
 30
0.0
 10
398.558513
 20
226.112847
 30
0.0
 10
398.558513
 20
226.112847
 30
0.0
  0
LWPOLYLINE
  5
10d
100
AcDbEntity
  8
Layer_1
 62
7
100
AcDbPolyline
 90
38
 70
0
 10
402.077485
 20
224.384236
 30
0.0
 10
405.578791
 20
224.384236
 30
0.0
 10
405.578791
 20
223.572847
 30
0.0
 10
410.588235
 20
223.572847
 30
0.0
 10
410.588235
 20
224.384236
 30
0.0
 10
414.080735
 20
224.384236
 30
0.0
 10
414.080735
 20
223.572847
 30
0.0
 10
415.068513
 20
223.572847
 30
0.0
 10
415.068513
 20
222.585069
 30
0.0
 10
415.879902
 20
222.585069
 30
0.0
 10
415.879902
 20
219.092569
 30
0.0
 10
415.068513
 20
219.092569
 30
0.0
 10
415.068513
 20
214.083125
 30
0.0
 10
415.879902
 20
214.083125
 30
0.0
 10
415.879902
 20
210.581805
 30
0.0
 10
415.068513
 20
210.581805
 30
0.0
 10
415.068513
 20
209.602847
 30
0.0
 10
414.080735
 20
209.602847
 30
0.0
 10
414.080735
 20
208.791458
 30
0.0
 10
410.588235
 20
208.791458
 30
0.0
 10
410.588235
 20
209.602847
 30
0.0
 10
405.578791
 20
209.602847
 30
0.0
 10
405.578791
 20
208.791458
 30
0.0
 10
402.077485
 20
208.791458
 30
0.0
 10
402.077485
 20
209.602847
 30
0.0
 10
401.098513
 20
209.602847
 30
0.0
 10
401.098513
 20
210.581805
 30
0.0
 10
400.287124
 20
210.581805
 30
0.0
 10
400.287124
 20
214.083125
 30
0.0
 10
401.098513
 20
214.083125
 30
0.0
 10
401.098513
 20
219.092569
 30
0.0
 10
400.287124
 20
219.092569
 30
0.0
 10
400.287124
 20
222.585069
 30
0.0
 10
401.098513
 20
222.585069
 30
0.0
 10
401.098513
 20
223.572847
 30
0.0
 10
402.077485
 20
223.572847
 30
0.0
 10
402.077485
 20
224.384236
 30
0.0
 10
402.077485
 20
224.384236
 30
0.0
  0
LWPOLYLINE
  5
10e
100
AcDbEntity
  8
Layer_1
 62
7
100
AcDbPolyline
 90
6
 70
0
 10
398.558513
 20
207.062847
 30
0.0
 10
398.558513
 20
188.012847
 30
0.0
 10
417.608513
 20
188.012847
 30
0.0
 10
417.608513
 20
207.062847
 30
0.0
 10
398.558513
 20
207.062847
 30
0.0
 10
398.558513
 20
207.062847
 30
0.0
  0
LWPOLYLINE
  5
10f
100
AcDbEntity
  8
Layer_1
 62
7
100
AcDbPolyline
 90
38
 70
0
 10
402.077485
 20
205.334236
 30
0.0
 10
405.578791
 20
205.334236
 30
0.0
 10
405.578791
 20
204.522847
 30
0.0
 10
410.588235
 20
204.522847
 30
0.0
 10
410.588235
 20
205.334236
 30
0.0
 10
414.080735
 20
205.334236
 30
0.0
 10
414.080735
 20
204.522847
 30
0.0
 10
415.068513
 20
204.522847
 30
0.0
 10
415.068513
 20
203.535069
 30
0.0
 10
415.879902
 20
203.535069
 30
0.0
 10
415.879902
 20
200.042569
 30
0.0
 10
415.068513
 20
200.042569
 30
0.0
 10
415.068513
 20
195.033125
 30
0.0
 10
415.879902
 20
195.033125
 30
0.0
 10
415.879902
 20
191.531805
 30
0.0
 10
415.068513
 20
191.531805
 30
0.0
 10
415.068513
 20
190.552847
 30
0.0
 10
414.080735
 20
190.552847
 30
0.0
 10
414.080735
 20
189.741458
 30
0.0
 10
410.588235
 20
189.741458
 30
0.0
 10
410.588235
 20
190.552847
 30
0.0
 10
405.578791
 20
190.552847
 30
0.0
 10
405.578791
 20
189.741458
 30
0.0
 10
402.077485
 20
189.741458
 30
0.0
 10
402.077485
 20
190.552847
 30
0.0
 10
401.098513
 20
190.552847
 30
0.0
 10
401.098513
 20
191.531805
 30
0.0
 10
400.287124
 20
191.531805
 30
0.0
 10
400.287124
 20
195.033125
 30
0.0
 10
401.098513
 20
195.033125
 30
0.0
 10
401.098513
 20
200.042569
 30
0.0
 10
400.287124
 20
200.042569
 30
0.0
 10
400.287124
 20
203.535069
 30
0.0
 10
401.098513
 20
203.535069
 30
0.0
 10
401.098513
 20
204.522847
 30
0.0
 10
402.077485
 20
204.522847
 30
0.0
 10
402.077485
 20
205.334236
 30
0.0
 10
402.077485
 20
205.334236
 30
0.0
  0
LWPOLYLINE
  5
110
100
AcDbEntity
  8
Layer_1
 62
7
100
AcDbPolyline
 90
6
 70
0
 10
398.558513
 20
188.012847
 30
0.0
 10
398.558513
 20
168.962839
 30
0.0
 10
417.608513
 20
168.962839
 30
0.0
 10
417.608513
 20
188.012847
 30
0.0
 10
398.558513
 20
188.012847
 30
0.0
 10
398.558513
 20
188.012847
 30
0.0
  0
LWPOLYLINE
  5
111
100
AcDbEntity
  8
Layer_1
 62
7
100
AcDbPolyline
 90
38
 70
0
 10
402.077485
 20
186.284236
 30
0.0
 10
405.578791
 20
186.284236
 30
0.0
 10
405.578791
 20
185.472847
 30
0.0
 10
410.588235
 20
185.472847
 30
0.0
 10
410.588235
 20
186.284236
 30
0.0
 10
414.080735
 20
186.284236
 30
0.0
 10
414.080735
 20
185.472847
 30
0.0
 10
415.068513
 20
185.472847
 30
0.0
 10
415.068513
 20
184.485069
 30
0.0
 10
415.879902
 20
184.485069
 30
0.0
 10
415.879902
 20
180.992569
 30
0.0
 10
415.068513
 20
180.992569
 30
0.0
 10
415.068513
 20
175.983116
 30
0.0
 10
415.879902
 20
175.983116
 30
0.0
 10
415.879902
 20
172.481811
 30
0.0
 10
415.068513
 20
172.481811
 30
0.0
 10
415.068513
 20
171.502839
 30
0.0
 10
414.080735
 20
171.502839
 30
0.0
 10
414.080735
 20
170.691450
 30
0.0
 10
410.588235
 20
170.691450
 30
0.0
 10
410.588235
 20
171.502839
 30
0.0
 10
405.578791
 20
171.502839
 30
0.0
 10
405.578791
 20
170.691450
 30
0.0
 10
402.077485
 20
170.691450
 30
0.0
 10
402.077485
 20
171.502839
 30
0.0
 10
401.098513
 20
171.502839
 30
0.0
 10
401.098513
 20
172.481811
 30
0.0
 10
400.287124
 20
172.481811
 30
0.0
 10
400.287124
 20
175.983116
 30
0.0
 10
401.098513
 20
175.983116
 30
0.0
 10
401.098513
 20
180.992569
 30
0.0
 10
400.287124
 20
180.992569
 30
0.0
 10
400.287124
 20
184.485069
 30
0.0
 10
401.098513
 20
184.485069
 30
0.0
 10
401.098513
 20
185.472847
 30
0.0
 10
402.077485
 20
185.472847
 30
0.0
 10
402.077485
 20
186.284236
 30
0.0
 10
402.077485
 20
186.284236
 30
0.0
  0
LWPOLYLINE
  5
112
100
AcDbEntity
  8
Layer_1
 62
7
100
AcDbPolyline
 90
6
 70
0
 10
417.608513
 20
223.731600
 30
0.0
 10
417.608513
 20
204.681600
 30
0.0
 10
436.658513
 20
204.681600
 30
0.0
 10
436.658513
 20
223.731600
 30
0.0
 10
417.608513
 20
223.731600
 30
0.0
 10
417.608513
 20
223.731600
 30
0.0
  0
LWPOLYLINE
  5
113
100
AcDbEntity
  8
Layer_1
 62
7
100
AcDbPolyline
 90
38
 70
0
 10
421.127485
 20
222.002989
 30
0.0
 10
424.628791
 20
222.002989
 30
0.0
 10
424.628791
 20
221.191600
 30
0.0
 10
429.638235
 20
221.191600
 30
0.0
 10
429.638235
 20
222.002989
 30
0.0
 10
433.130735
 20
222.002989
 30
0.0
 10
433.130735
 20
221.191600
 30
0.0
 10
434.118513
 20
221.191600
 30
0.0
 10
434.118513
 20
220.203822
 30
0.0
 10
434.929902
 20
220.203822
 30
0.0
 10
434.929902
 20
216.711322
 30
0.0
 10
434.118513
 20
216.711322
 30
0.0
 10
434.118513
 20
211.701878
 30
0.0
 10
434.929902
 20
211.701878
 30
0.0
 10
434.929902
 20
208.200558
 30
0.0
 10
434.118513
 20
208.200558
 30
0.0
 10
434.118513
 20
207.221600
 30
0.0
 10
433.130735
 20
207.221600
 30
0.0
 10
433.130735
 20
206.410211
 30
0.0
 10
429.638235
 20
206.410211
 30
0.0
 10
429.638235
 20
207.221600
 30
0.0
 10
424.628791
 20
207.221600
 30
0.0
 10
424.628791
 20
206.410211
 30
0.0
 10
421.127485
 20
206.410211
 30
0.0
 10
421.127485
 20
207.221600
 30
0.0
 10
420.148513
 20
207.221600
 30
0.0
 10
420.148513
 20
208.200558
 30
0.0
 10
419.337124
 20
208.200558
 30
0.0
 10
419.337124
 20
211.701878
 30
0.0
 10
420.148513
 20
211.701878
 30
0.0
 10
420.148513
 20
216.711322
 30
0.0
 10
419.337124
 20
216.711322
 30
0.0
 10
419.337124
 20
220.203822
 30
0.0
 10
420.148513
 20
220.203822
 30
0.0
 10
420.148513
 20
221.191600
 30
0.0
 10
421.127485
 20
221.191600
 30
0.0
 10
421.127485
 20
222.002989
 30
0.0
 10
421.127485
 20
222.002989
 30
0.0
  0
LWPOLYLINE
  5
114
100
AcDbEntity
  8
Layer_1
 62
7
100
AcDbPolyline
 90
6
 70
0
 10
417.608513
 20
204.681600
 30
0.0
 10
417.608513
 20
185.631600
 30
0.0
 10
436.658513
 20
185.631600
 30
0.0
 10
436.658513
 20
204.681600
 30
0.0
 10
417.608513
 20
204.681600
 30
0.0
 10
417.608513
 20
204.681600
 30
0.0
  0
LWPOLYLINE
  5
115
100
AcDbEntity
  8
Layer_1
 62
7
100
AcDbPolyline
 90
38
 70
0
 10
421.127485
 20
202.952989
 30
0.0
 10
424.628791
 20
202.952989
 30
0.0
 10
424.628791
 20
202.141600
 30
0.0
 10
429.638235
 20
202.141600
 30
0.0
 10
429.638235
 20
202.952989
 30
0.0
 10
433.130735
 20
202.952989
 30
0.0
 10
433.130735
 20
202.141600
 30
0.0
 10
434.118513
 20
202.141600
 30
0.0
 10
434.118513
 20
201.153822
 30
0.0
 10
434.929902
 20
201.153822
 30
0.0
 10
434.929902
 20
197.661322
 30
0.0
 10
434.118513
 20
197.661322
 30
0.0
 10
434.118513
 20
192.651878
 30
0.0
 10
434.929902
 20
192.651878
 30
0.0
 10
434.929902
 20
189.150558
 30
0.0
 10
434.118513
 20
189.150558
 30
0.0
 10
434.118513
 20
188.171600
 30
0.0
 10
433.130735
 20
188.171600
 30
0.0
 10
433.130735
 20
187.360211
 30
0.0
 10
429.638235
 20
187.360211
 30
0.0
 10
429.638235
 20
188.171600
 30
0.0
 10
424.628791
 20
188.171600
 30
0.0
 10
424.628791
 20
187.360211
 30
0.0
 10
421.127485
 20
187.360211
 30
0.0
 10
421.127485
 20
188.171600
 30
0.0
 10
420.148513
 20
188.171600
 30
0.0
 10
420.148513
 20
189.150558
 30
0.0
 10
419.337124
 20
189.150558
 30
0.0
 10
419.337124
 20
192.651878
 30
0.0
 10
420.148513
 20
192.651878
 30
0.0
 10
420.148513
 20
197.661322
 30
0.0
 10
419.337124
 20
197.661322
 30
0.0
 10
419.337124
 20
201.153822
 30
0.0
 10
420.148513
 20
201.153822
 30
0.0
 10
420.148513
 20
202.141600
 30
0.0
 10
421.127485
 20
202.141600
 30
0.0
 10
421.127485
 20
202.952989
 30
0.0
 10
421.127485
 20
202.952989
 30
0.0
  0
LWPOLYLINE
  5
116
100
AcDbEntity
  8
Layer_1
 62
7
100
AcDbPolyline
 90
6
 70
0
 10
417.608513
 20
185.631600
 30
0.0
 10
417.608513
 20
166.581589
 30
0.0
 10
436.658513
 20
166.581589
 30
0.0
 10
436.658513
 20
185.631600
 30
0.0
 10
417.608513
 20
185.631600
 30
0.0
 10
417.608513
 20
185.631600
 30
0.0
  0
LWPOLYLINE
  5
117
100
AcDbEntity
  8
Layer_1
 62
7
100
AcDbPolyline
 90
38
 70
0
 10
421.127485
 20
183.902989
 30
0.0
 10
424.628791
 20
183.902989
 30
0.0
 10
424.628791
 20
183.091600
 30
0.0
 10
429.638235
 20
183.091600
 30
0.0
 10
429.638235
 20
183.902989
 30
0.0
 10
433.130735
 20
183.902989
 30
0.0
 10
433.130735
 20
183.091600
 30
0.0
 10
434.118513
 20
183.091600
 30
0.0
 10
434.118513
 20
182.103822
 30
0.0
 10
434.929902
 20
182.103822
 30
0.0
 10
434.929902
 20
178.611311
 30
0.0
 10
434.118513
 20
178.611311
 30
0.0
 10
434.118513
 20
173.601866
 30
0.0
 10
434.929902
 20
173.601866
 30
0.0
 10
434.929902
 20
170.100561
 30
0.0
 10
434.118513
 20
170.100561
 30
0.0
 10
434.118513
 20
169.121589
 30
0.0
 10
433.130735
 20
169.121589
 30
0.0
 10
433.130735
 20
168.310200
 30
0.0
 10
429.638235
 20
168.310200
 30
0.0
 10
429.638235
 20
169.121589
 30
0.0
 10
424.628791
 20
169.121589
 30
0.0
 10
424.628791
 20
168.310200
 30
0.0
 10
421.127485
 20
168.310200
 30
0.0
 10
421.127485
 20
169.121589
 30
0.0
 10
420.148513
 20
169.121589
 30
0.0
 10
420.148513
 20
170.100561
 30
0.0
 10
419.337124
 20
170.100561
 30
0.0
 10
419.337124
 20
173.601866
 30
0.0
 10
420.148513
 20
173.601866
 30
0.0
 10
420.148513
 20
178.611311
 30
0.0
 10
419.337124
 20
178.611311
 30
0.0
 10
419.337124
 20
182.103822
 30
0.0
 10
420.148513
 20
182.103822
 30
0.0
 10
420.148513
 20
183.091600
 30
0.0
 10
421.127485
 20
183.091600
 30
0.0
 10
421.127485
 20
183.902989
 30
0.0
 10
421.127485
 20
183.902989
 30
0.0
  0
LWPOLYLINE
  5
118
100
AcDbEntity
  8
Layer_1
 62
7
100
AcDbPolyline
 90
6
 70
0
 10
436.658513
 20
218.969100
 30
0.0
 10
436.658513
 20
199.919100
 30
0.0
 10
455.708513
 20
199.919100
 30
0.0
 10
455.708513
 20
218.969100
 30
0.0
 10
436.658513
 20
218.969100
 30
0.0
 10
436.658513
 20
218.969100
 30
0.0
  0
LWPOLYLINE
  5
119
100
AcDbEntity
  8
Layer_1
 62
7
100
AcDbPolyline
 90
38
 70
0
 10
440.177485
 20
217.240489
 30
0.0
 10
443.678791
 20
217.240489
 30
0.0
 10
443.678791
 20
216.429100
 30
0.0
 10
448.688235
 20
216.429100
 30
0.0
 10
448.688235
 20
217.240489
 30
0.0
 10
452.180735
 20
217.240489
 30
0.0
 10
452.180735
 20
216.429100
 30
0.0
 10
453.168513
 20
216.429100
 30
0.0
 10
453.168513
 20
215.441322
 30
0.0
 10
453.979902
 20
215.441322
 30
0.0
 10
453.979902
 20
211.948822
 30
0.0
 10
453.168513
 20
211.948822
 30
0.0
 10
453.168513
 20
206.939378
 30
0.0
 10
453.979902
 20
206.939378
 30
0.0
 10
453.979902
 20
203.438058
 30
0.0
 10
453.168513
 20
203.438058
 30
0.0
 10
453.168513
 20
202.459100
 30
0.0
 10
452.180735
 20
202.459100
 30
0.0
 10
452.180735
 20
201.647711
 30
0.0
 10
448.688235
 20
201.647711
 30
0.0
 10
448.688235
 20
202.459100
 30
0.0
 10
443.678791
 20
202.459100
 30
0.0
 10
443.678791
 20
201.647711
 30
0.0
 10
440.177485
 20
201.647711
 30
0.0
 10
440.177485
 20
202.459100
 30
0.0
 10
439.198513
 20
202.459100
 30
0.0
 10
439.198513
 20
203.438058
 30
0.0
 10
438.387124
 20
203.438058
 30
0.0
 10
438.387124
 20
206.939378
 30
0.0
 10
439.198513
 20
206.939378
 30
0.0
 10
439.198513
 20
211.948822
 30
0.0
 10
438.387124
 20
211.948822
 30
0.0
 10
438.387124
 20
215.441322
 30
0.0
 10
439.198513
 20
215.441322
 30
0.0
 10
439.198513
 20
216.429100
 30
0.0
 10
440.177485
 20
216.429100
 30
0.0
 10
440.177485
 20
217.240489
 30
0.0
 10
440.177485
 20
217.240489
 30
0.0
  0
LWPOLYLINE
  5
11a
100
AcDbEntity
  8
Layer_1
 62
7
100
AcDbPolyline
 90
6
 70
0
 10
436.658513
 20
199.919100
 30
0.0
 10
436.658513
 20
180.869100
 30
0.0
 10
455.708513
 20
180.869100
 30
0.0
 10
455.708513
 20
199.919100
 30
0.0
 10
436.658513
 20
199.919100
 30
0.0
 10
436.658513
 20
199.919100
 30
0.0
  0
LWPOLYLINE
  5
11b
100
AcDbEntity
  8
Layer_1
 62
7
100
AcDbPolyline
 90
38
 70
0
 10
440.177485
 20
198.190489
 30
0.0
 10
443.678791
 20
198.190489
 30
0.0
 10
443.678791
 20
197.379100
 30
0.0
 10
448.688235
 20
197.379100
 30
0.0
 10
448.688235
 20
198.190489
 30
0.0
 10
452.180735
 20
198.190489
 30
0.0
 10
452.180735
 20
197.379100
 30
0.0
 10
453.168513
 20
197.379100
 30
0.0
 10
453.168513
 20
196.391322
 30
0.0
 10
453.979902
 20
196.391322
 30
0.0
 10
453.979902
 20
192.898822
 30
0.0
 10
453.168513
 20
192.898822
 30
0.0
 10
453.168513
 20
187.889378
 30
0.0
 10
453.979902
 20
187.889378
 30
0.0
 10
453.979902
 20
184.388058
 30
0.0
 10
453.168513
 20
184.388058
 30
0.0
 10
453.168513
 20
183.409100
 30
0.0
 10
452.180735
 20
183.409100
 30
0.0
 10
452.180735
 20
182.597711
 30
0.0
 10
448.688235
 20
182.597711
 30
0.0
 10
448.688235
 20
183.409100
 30
0.0
 10
443.678791
 20
183.409100
 30
0.0
 10
443.678791
 20
182.597711
 30
0.0
 10
440.177485
 20
182.597711
 30
0.0
 10
440.177485
 20
183.409100
 30
0.0
 10
439.198513
 20
183.409100
 30
0.0
 10
439.198513
 20
184.388058
 30
0.0
 10
438.387124
 20
184.388058
 30
0.0
 10
438.387124
 20
187.889378
 30
0.0
 10
439.198513
 20
187.889378
 30
0.0
 10
439.198513
 20
192.898822
 30
0.0
 10
438.387124
 20
192.898822
 30
0.0
 10
438.387124
 20
196.391322
 30
0.0
 10
439.198513
 20
196.391322
 30
0.0
 10
439.198513
 20
197.379100
 30
0.0
 10
440.177485
 20
197.379100
 30
0.0
 10
440.177485
 20
198.190489
 30
0.0
 10
440.177485
 20
198.190489
 30
0.0
  0
LWPOLYLINE
  5
11c
100
AcDbEntity
  8
Layer_1
 62
7
100
AcDbPolyline
 90
6
 70
0
 10
436.658513
 20
180.869100
 30
0.0
 10
436.658513
 20
161.819089
 30
0.0
 10
455.708513
 20
161.819089
 30
0.0
 10
455.708513
 20
180.869100
 30
0.0
 10
436.658513
 20
180.869100
 30
0.0
 10
436.658513
 20
180.869100
 30
0.0
  0
LWPOLYLINE
  5
11d
100
AcDbEntity
  8
Layer_1
 62
7
100
AcDbPolyline
 90
38
 70
0
 10
440.177485
 20
179.140478
 30
0.0
 10
443.678791
 20
179.140478
 30
0.0
 10
443.678791
 20
178.329089
 30
0.0
 10
448.688235
 20
178.329089
 30
0.0
 10
448.688235
 20
179.140478
 30
0.0
 10
452.180735
 20
179.140478
 30
0.0
 10
452.180735
 20
178.329089
 30
0.0
 10
453.168513
 20
178.329089
 30
0.0
 10
453.168513
 20
177.341311
 30
0.0
 10
453.979902
 20
177.341311
 30
0.0
 10
453.979902
 20
173.848811
 30
0.0
 10
453.168513
 20
173.848811
 30
0.0
 10
453.168513
 20
168.839366
 30
0.0
 10
453.979902
 20
168.839366
 30
0.0
 10
453.979902
 20
165.338061
 30
0.0
 10
453.168513
 20
165.338061
 30
0.0
 10
453.168513
 20
164.359089
 30
0.0
 10
452.180735
 20
164.359089
 30
0.0
 10
452.180735
 20
163.547700
 30
0.0
 10
448.688235
 20
163.547700
 30
0.0
 10
448.688235
 20
164.359089
 30
0.0
 10
443.678791
 20
164.359089
 30
0.0
 10
443.678791
 20
163.547700
 30
0.0
 10
440.177485
 20
163.547700
 30
0.0
 10
440.177485
 20
164.359089
 30
0.0
 10
439.198513
 20
164.359089
 30
0.0
 10
439.198513
 20
165.338061
 30
0.0
 10
438.387124
 20
165.338061
 30
0.0
 10
438.387124
 20
168.839366
 30
0.0
 10
439.198513
 20
168.839366
 30
0.0
 10
439.198513
 20
173.848811
 30
0.0
 10
438.387124
 20
173.848811
 30
0.0
 10
438.387124
 20
177.341311
 30
0.0
 10
439.198513
 20
177.341311
 30
0.0
 10
439.198513
 20
178.329089
 30
0.0
 10
440.177485
 20
178.329089
 30
0.0
 10
440.177485
 20
179.140478
 30
0.0
 10
440.177485
 20
179.140478
 30
0.0
  0
LWPOLYLINE
  5
11e
100
AcDbEntity
  8
Layer_1
 62
7
100
AcDbPolyline
 90
6
 70
0
 10
455.708513
 20
218.969100
 30
0.0
 10
455.708513
 20
199.919100
 30
0.0
 10
474.758513
 20
199.919100
 30
0.0
 10
474.758513
 20
218.969100
 30
0.0
 10
455.708513
 20
218.969100
 30
0.0
 10
455.708513
 20
218.969100
 30
0.0
  0
LWPOLYLINE
  5
11f
100
AcDbEntity
  8
Layer_1
 62
7
100
AcDbPolyline
 90
38
 70
0
 10
459.227485
 20
217.240489
 30
0.0
 10
462.728791
 20
217.240489
 30
0.0
 10
462.728791
 20
216.429100
 30
0.0
 10
467.738235
 20
216.429100
 30
0.0
 10
467.738235
 20
217.240489
 30
0.0
 10
471.230735
 20
217.240489
 30
0.0
 10
471.230735
 20
216.429100
 30
0.0
 10
472.218513
 20
216.429100
 30
0.0
 10
472.218513
 20
215.441322
 30
0.0
 10
473.029902
 20
215.441322
 30
0.0
 10
473.029902
 20
211.948822
 30
0.0
 10
472.218513
 20
211.948822
 30
0.0
 10
472.218513
 20
206.939378
 30
0.0
 10
473.029902
 20
206.939378
 30
0.0
 10
473.029902
 20
203.438058
 30
0.0
 10
472.218513
 20
203.438058
 30
0.0
 10
472.218513
 20
202.459100
 30
0.0
 10
471.230735
 20
202.459100
 30
0.0
 10
471.230735
 20
201.647711
 30
0.0
 10
467.738235
 20
201.647711
 30
0.0
 10
467.738235
 20
202.459100
 30
0.0
 10
462.728791
 20
202.459100
 30
0.0
 10
462.728791
 20
201.647711
 30
0.0
 10
459.227485
 20
201.647711
 30
0.0
 10
459.227485
 20
202.459100
 30
0.0
 10
458.248513
 20
202.459100
 30
0.0
 10
458.248513
 20
203.438058
 30
0.0
 10
457.437124
 20
203.438058
 30
0.0
 10
457.437124
 20
206.939378
 30
0.0
 10
458.248513
 20
206.939378
 30
0.0
 10
458.248513
 20
211.948822
 30
0.0
 10
457.437124
 20
211.948822
 30
0.0
 10
457.437124
 20
215.441322
 30
0.0
 10
458.248513
 20
215.441322
 30
0.0
 10
458.248513
 20
216.429100
 30
0.0
 10
459.227485
 20
216.429100
 30
0.0
 10
459.227485
 20
217.240489
 30
0.0
 10
459.227485
 20
217.240489
 30
0.0
  0
LWPOLYLINE
  5
120
100
AcDbEntity
  8
Layer_1
 62
7
100
AcDbPolyline
 90
6
 70
0
 10
455.708513
 20
199.919100
 30
0.0
 10
455.708513
 20
180.869100
 30
0.0
 10
474.758513
 20
180.869100
 30
0.0
 10
474.758513
 20
199.919100
 30
0.0
 10
455.708513
 20
199.919100
 30
0.0
 10
455.708513
 20
199.919100
 30
0.0
  0
LWPOLYLINE
  5
121
100
AcDbEntity
  8
Layer_1
 62
7
100
AcDbPolyline
 90
38
 70
0
 10
459.227485
 20
198.190489
 30
0.0
 10
462.728791
 20
198.190489
 30
0.0
 10
462.728791
 20
197.379100
 30
0.0
 10
467.738235
 20
197.379100
 30
0.0
 10
467.738235
 20
198.190489
 30
0.0
 10
471.230735
 20
198.190489
 30
0.0
 10
471.230735
 20
197.379100
 30
0.0
 10
472.218513
 20
197.379100
 30
0.0
 10
472.218513
 20
196.391322
 30
0.0
 10
473.029902
 20
196.391322
 30
0.0
 10
473.029902
 20
192.898822
 30
0.0
 10
472.218513
 20
192.898822
 30
0.0
 10
472.218513
 20
187.889378
 30
0.0
 10
473.029902
 20
187.889378
 30
0.0
 10
473.029902
 20
184.388058
 30
0.0
 10
472.218513
 20
184.388058
 30
0.0
 10
472.218513
 20
183.409100
 30
0.0
 10
471.230735
 20
183.409100
 30
0.0
 10
471.230735
 20
182.597711
 30
0.0
 10
467.738235
 20
182.597711
 30
0.0
 10
467.738235
 20
183.409100
 30
0.0
 10
462.728791
 20
183.409100
 30
0.0
 10
462.728791
 20
182.597711
 30
0.0
 10
459.227485
 20
182.597711
 30
0.0
 10
459.227485
 20
183.409100
 30
0.0
 10
458.248513
 20
183.409100
 30
0.0
 10
458.248513
 20
184.388058
 30
0.0
 10
457.437124
 20
184.388058
 30
0.0
 10
457.437124
 20
187.889378
 30
0.0
 10
458.248513
 20
187.889378
 30
0.0
 10
458.248513
 20
192.898822
 30
0.0
 10
457.437124
 20
192.898822
 30
0.0
 10
457.437124
 20
196.391322
 30
0.0
 10
458.248513
 20
196.391322
 30
0.0
 10
458.248513
 20
197.379100
 30
0.0
 10
459.227485
 20
197.379100
 30
0.0
 10
459.227485
 20
198.190489
 30
0.0
 10
459.227485
 20
198.190489
 30
0.0
  0
LWPOLYLINE
  5
122
100
AcDbEntity
  8
Layer_1
 62
7
100
AcDbPolyline
 90
6
 70
0
 10
455.708513
 20
180.869100
 30
0.0
 10
455.708513
 20
161.819089
 30
0.0
 10
474.758513
 20
161.819089
 30
0.0
 10
474.758513
 20
180.869100
 30
0.0
 10
455.708513
 20
180.869100
 30
0.0
 10
455.708513
 20
180.869100
 30
0.0
  0
LWPOLYLINE
  5
123
100
AcDbEntity
  8
Layer_1
 62
7
100
AcDbPolyline
 90
38
 70
0
 10
459.227485
 20
179.140478
 30
0.0
 10
462.728791
 20
179.140478
 30
0.0
 10
462.728791
 20
178.329089
 30
0.0
 10
467.738235
 20
178.329089
 30
0.0
 10
467.738235
 20
179.140478
 30
0.0
 10
471.230735
 20
179.140478
 30
0.0
 10
471.230735
 20
178.329089
 30
0.0
 10
472.218513
 20
178.329089
 30
0.0
 10
472.218513
 20
177.341311
 30
0.0
 10
473.029902
 20
177.341311
 30
0.0
 10
473.029902
 20
173.848811
 30
0.0
 10
472.218513
 20
173.848811
 30
0.0
 10
472.218513
 20
168.839366
 30
0.0
 10
473.029902
 20
168.839366
 30
0.0
 10
473.029902
 20
165.338061
 30
0.0
 10
472.218513
 20
165.338061
 30
0.0
 10
472.218513
 20
164.359089
 30
0.0
 10
471.230735
 20
164.359089
 30
0.0
 10
471.230735
 20
163.547700
 30
0.0
 10
467.738235
 20
163.547700
 30
0.0
 10
467.738235
 20
164.359089
 30
0.0
 10
462.728791
 20
164.359089
 30
0.0
 10
462.728791
 20
163.547700
 30
0.0
 10
459.227485
 20
163.547700
 30
0.0
 10
459.227485
 20
164.359089
 30
0.0
 10
458.248513
 20
164.359089
 30
0.0
 10
458.248513
 20
165.338061
 30
0.0
 10
457.437124
 20
165.338061
 30
0.0
 10
457.437124
 20
168.839366
 30
0.0
 10
458.248513
 20
168.839366
 30
0.0
 10
458.248513
 20
173.848811
 30
0.0
 10
457.437124
 20
173.848811
 30
0.0
 10
457.437124
 20
177.341311
 30
0.0
 10
458.248513
 20
177.341311
 30
0.0
 10
458.248513
 20
178.329089
 30
0.0
 10
459.227485
 20
178.329089
 30
0.0
 10
459.227485
 20
179.140478
 30
0.0
 10
459.227485
 20
179.140478
 30
0.0
  0
LWPOLYLINE
  5
124
100
AcDbEntity
  8
Layer_1
 62
7
100
AcDbPolyline
 90
6
 70
0
 10
474.758513
 20
218.969100
 30
0.0
 10
474.758513
 20
199.919100
 30
0.0
 10
493.808513
 20
199.919100
 30
0.0
 10
493.808513
 20
218.969100
 30
0.0
 10
474.758513
 20
218.969100
 30
0.0
 10
474.758513
 20
218.969100
 30
0.0
  0
LWPOLYLINE
  5
125
100
AcDbEntity
  8
Layer_1
 62
7
100
AcDbPolyline
 90
38
 70
0
 10
478.277485
 20
217.240489
 30
0.0
 10
481.778791
 20
217.240489
 30
0.0
 10
481.778791
 20
216.429100
 30
0.0
 10
486.788235
 20
216.429100
 30
0.0
 10
486.788235
 20
217.240489
 30
0.0
 10
490.280735
 20
217.240489
 30
0.0
 10
490.280735
 20
216.429100
 30
0.0
 10
491.268513
 20
216.429100
 30
0.0
 10
491.268513
 20
215.441322
 30
0.0
 10
492.079902
 20
215.441322
 30
0.0
 10
492.079902
 20
211.948822
 30
0.0
 10
491.268513
 20
211.948822
 30
0.0
 10
491.268513
 20
206.939378
 30
0.0
 10
492.079902
 20
206.939378
 30
0.0
 10
492.079902
 20
203.438058
 30
0.0
 10
491.268513
 20
203.438058
 30
0.0
 10
491.268513
 20
202.459100
 30
0.0
 10
490.280735
 20
202.459100
 30
0.0
 10
490.280735
 20
201.647711
 30
0.0
 10
486.788235
 20
201.647711
 30
0.0
 10
486.788235
 20
202.459100
 30
0.0
 10
481.778791
 20
202.459100
 30
0.0
 10
481.778791
 20
201.647711
 30
0.0
 10
478.277485
 20
201.647711
 30
0.0
 10
478.277485
 20
202.459100
 30
0.0
 10
477.298513
 20
202.459100
 30
0.0
 10
477.298513
 20
203.438058
 30
0.0
 10
476.487124
 20
203.438058
 30
0.0
 10
476.487124
 20
206.939378
 30
0.0
 10
477.298513
 20
206.939378
 30
0.0
 10
477.298513
 20
211.948822
 30
0.0
 10
476.487124
 20
211.948822
 30
0.0
 10
476.487124
 20
215.441322
 30
0.0
 10
477.298513
 20
215.441322
 30
0.0
 10
477.298513
 20
216.429100
 30
0.0
 10
478.277485
 20
216.429100
 30
0.0
 10
478.277485
 20
217.240489
 30
0.0
 10
478.277485
 20
217.240489
 30
0.0
  0
LWPOLYLINE
  5
126
100
AcDbEntity
  8
Layer_1
 62
7
100
AcDbPolyline
 90
8
 70
0
 10
360.458513
 20
218.969103
 30
0.0
 10
341.408513
 20
218.969103
 30
0.0
 10
341.408513
 20
199.919103
 30
0.0
 10
341.408513
 20
190.394106
 30
0.0
 10
360.458513
 20
190.394106
 30
0.0
 10
360.458513
 20
199.919106
 30
0.0
 10
360.458513
 20
218.969106
 30
0.0
 10
360.458513
 20
218.969103
 30
0.0
  0
LWPOLYLINE
  5
127
100
AcDbEntity
  8
Layer_1
 62
7
100
AcDbPolyline
 90
38
 70
0
 10
358.729902
 20
210.687644
 30
0.0
 10
358.729902
 20
207.186325
 30
0.0
 10
357.918513
 20
207.186325
 30
0.0
 10
357.918513
 20
202.176881
 30
0.0
 10
358.729902
 20
202.176881
 30
0.0
 10
358.729902
 20
198.684381
 30
0.0
 10
357.918513
 20
198.684381
 30
0.0
 10
357.918513
 20
197.696603
 30
0.0
 10
356.930735
 20
197.696603
 30
0.0
 10
356.930735
 20
196.885214
 30
0.0
 10
353.438235
 20
196.885214
 30
0.0
 10
353.438235
 20
197.696603
 30
0.0
 10
348.428791
 20
197.696603
 30
0.0
 10
348.428791
 20
196.885214
 30
0.0
 10
344.927485
 20
196.885214
 30
0.0
 10
344.927485
 20
197.696603
 30
0.0
 10
343.948513
 20
197.696603
 30
0.0
 10
343.948513
 20
198.684381
 30
0.0
 10
343.137124
 20
198.684381
 30
0.0
 10
343.137124
 20
202.176881
 30
0.0
 10
343.948513
 20
202.176881
 30
0.0
 10
343.948513
 20
207.186325
 30
0.0
 10
343.137124
 20
207.186325
 30
0.0
 10
343.137124
 20
210.687644
 30
0.0
 10
343.948513
 20
210.687644
 30
0.0
 10
343.948513
 20
211.666603
 30
0.0
 10
344.927485
 20
211.666603
 30
0.0
 10
344.927485
 20
212.477992
 30
0.0
 10
348.428791
 20
212.477992
 30
0.0
 10
348.428791
 20
211.666603
 30
0.0
 10
353.438235
 20
211.666603
 30
0.0
 10
353.438235
 20
212.477992
 30
0.0
 10
356.930735
 20
212.477992
 30
0.0
 10
356.930735
 20
211.666603
 30
0.0
 10
357.918513
 20
211.666603
 30
0.0
 10
357.918513
 20
210.687644
 30
0.0
 10
358.729902
 20
210.687644
 30
0.0
 10
358.729902
 20
210.687644
 30
0.0
  0
LWPOLYLINE
  5
128
100
AcDbEntity
  8
Layer_1
 62
7
100
AcDbPolyline
 90
5
 70
0
 10
493.808598
 20
220.697880
 30
0.0
 10
436.658581
 20
220.697880
 30
0.0
 10
436.658581
 20
218.969118
 30
0.0
 10
493.808598
 20
218.969118
 30
0.0
 10
493.808598
 20
220.697880
 30
0.0
  0
LWPOLYLINE
  5
129
100
AcDbEntity
  8
Layer_1
 62
7
100
AcDbPolyline
 90
5
 70
0
 10
341.408598
 20
160.090311
 30
0.0
 10
341.408598
 20
220.697875
 30
0.0
 10
339.679835
 20
220.697875
 30
0.0
 10
339.679835
 20
160.090311
 30
0.0
 10
341.408598
 20
160.090311
 30
0.0
  0
LWPOLYLINE
  5
12a
100
AcDbEntity
  8
Layer_1
 62
7
100
AcDbPolyline
 90
5
 70
0
 10
495.537322
 20
141.040331
 30
0.0
 10
495.537322
 20
220.697863
 30
0.0
 10
493.808559
 20
220.697863
 30
0.0
 10
493.808559
 20
141.040331
 30
0.0
 10
495.537322
 20
141.040331
 30
0.0
  0
LWPOLYLINE
  5
12b
100
AcDbEntity
  8
Layer_1
 62
7
100
AcDbPolyline
 90
6
 70
0
 10
398.558513
 20
168.962839
 30
0.0
 10
398.558513
 20
164.200339
 30
0.0
 10
417.608513
 20
164.200339
 30
0.0
 10
417.608513
 20
168.962839
 30
0.0
 10
398.558513
 20
168.962839
 30
0.0
 10
398.558513
 20
168.962839
 30
0.0
  0
LWPOLYLINE
  5
12c
100
AcDbEntity
  8
Layer_1
 62
7
100
AcDbPolyline
 90
6
 70
0
 10
417.608513
 20
166.581589
 30
0.0
 10
417.608513
 20
164.200339
 30
0.0
 10
436.658513
 20
164.200339
 30
0.0
 10
436.658513
 20
166.581589
 30
0.0
 10
417.608513
 20
166.581589
 30
0.0
 10
417.608513
 20
166.581589
 30
0.0
  0
LWPOLYLINE
  5
12d
100
AcDbEntity
  8
Layer_1
 62
7
100
AcDbPolyline
 90
8
 70
0
 10
493.808513
 20
171.344089
 30
0.0
 10
474.758513
 20
171.344089
 30
0.0
 10
474.758513
 20
152.294089
 30
0.0
 10
474.758513
 20
142.769089
 30
0.0
 10
493.808513
 20
142.769089
 30
0.0
 10
493.808513
 20
152.294089
 30
0.0
 10
493.808513
 20
171.344089
 30
0.0
 10
493.808513
 20
171.344089
 30
0.0
  0
LWPOLYLINE
  5
12e
100
AcDbEntity
  8
Layer_1
 62
7
100
AcDbPolyline
 90
38
 70
0
 10
492.079902
 20
163.062644
 30
0.0
 10
492.079902
 20
159.561311
 30
0.0
 10
491.268513
 20
159.561311
 30
0.0
 10
491.268513
 20
154.551866
 30
0.0
 10
492.079902
 20
154.551866
 30
0.0
 10
492.079902
 20
151.059366
 30
0.0
 10
491.268513
 20
151.059366
 30
0.0
 10
491.268513
 20
150.071589
 30
0.0
 10
490.280735
 20
150.071589
 30
0.0
 10
490.280735
 20
149.260200
 30
0.0
 10
486.788235
 20
149.260200
 30
0.0
 10
486.788235
 20
150.071589
 30
0.0
 10
481.778791
 20
150.071589
 30
0.0
 10
481.778791
 20
149.260200
 30
0.0
 10
478.277485
 20
149.260200
 30
0.0
 10
478.277485
 20
150.071589
 30
0.0
 10
477.298513
 20
150.071589
 30
0.0
 10
477.298513
 20
151.059366
 30
0.0
 10
476.487124
 20
151.059366
 30
0.0
 10
476.487124
 20
154.551866
 30
0.0
 10
477.298513
 20
154.551866
 30
0.0
 10
477.298513
 20
159.561311
 30
0.0
 10
476.487124
 20
159.561311
 30
0.0
 10
476.487124
 20
163.062644
 30
0.0
 10
477.298513
 20
163.062644
 30
0.0
 10
477.298513
 20
164.041589
 30
0.0
 10
478.277485
 20
164.041589
 30
0.0
 10
478.277485
 20
164.852978
 30
0.0
 10
481.778791
 20
164.852978
 30
0.0
 10
481.778791
 20
164.041589
 30
0.0
 10
486.788235
 20
164.041589
 30
0.0
 10
486.788235
 20
164.852978
 30
0.0
 10
490.280735
 20
164.852978
 30
0.0
 10
490.280735
 20
164.041589
 30
0.0
 10
491.268513
 20
164.041589
 30
0.0
 10
491.268513
 20
163.062644
 30
0.0
 10
492.079902
 20
163.062644
 30
0.0
 10
492.079902
 20
163.062644
 30
0.0
  0
LWPOLYLINE
  5
12f
100
AcDbEntity
  8
Layer_1
 62
7
100
AcDbPolyline
 90
8
 70
0
 10
493.808513
 20
199.919100
 30
0.0
 10
474.758513
 20
199.919100
 30
0.0
 10
474.758513
 20
180.869100
 30
0.0
 10
474.758513
 20
171.344089
 30
0.0
 10
493.808513
 20
171.344089
 30
0.0
 10
493.808513
 20
180.869100
 30
0.0
 10
493.808513
 20
199.919100
 30
0.0
 10
493.808513
 20
199.919100
 30
0.0
  0
LWPOLYLINE
  5
130
100
AcDbEntity
  8
Layer_1
 62
7
100
AcDbPolyline
 90
38
 70
0
 10
492.079902
 20
191.637642
 30
0.0
 10
492.079902
 20
188.136322
 30
0.0
 10
491.268513
 20
188.136322
 30
0.0
 10
491.268513
 20
183.126878
 30
0.0
 10
492.079902
 20
183.126878
 30
0.0
 10
492.079902
 20
179.634366
 30
0.0
 10
491.268513
 20
179.634366
 30
0.0
 10
491.268513
 20
178.646589
 30
0.0
 10
490.280735
 20
178.646589
 30
0.0
 10
490.280735
 20
177.835200
 30
0.0
 10
486.788235
 20
177.835200
 30
0.0
 10
486.788235
 20
178.646589
 30
0.0
 10
481.778791
 20
178.646589
 30
0.0
 10
481.778791
 20
177.835200
 30
0.0
 10
478.277485
 20
177.835200
 30
0.0
 10
478.277485
 20
178.646589
 30
0.0
 10
477.298513
 20
178.646589
 30
0.0
 10
477.298513
 20
179.634366
 30
0.0
 10
476.487124
 20
179.634366
 30
0.0
 10
476.487124
 20
183.126878
 30
0.0
 10
477.298513
 20
183.126878
 30
0.0
 10
477.298513
 20
188.136322
 30
0.0
 10
476.487124
 20
188.136322
 30
0.0
 10
476.487124
 20
191.637642
 30
0.0
 10
477.298513
 20
191.637642
 30
0.0
 10
477.298513
 20
192.616600
 30
0.0
 10
478.277485
 20
192.616600
 30
0.0
 10
478.277485
 20
193.427989
 30
0.0
 10
481.778791
 20
193.427989
 30
0.0
 10
481.778791
 20
192.616600
 30
0.0
 10
486.788235
 20
192.616600
 30
0.0
 10
486.788235
 20
193.427989
 30
0.0
 10
490.280735
 20
193.427989
 30
0.0
 10
490.280735
 20
192.616600
 30
0.0
 10
491.268513
 20
192.616600
 30
0.0
 10
491.268513
 20
191.637642
 30
0.0
 10
492.079902
 20
191.637642
 30
0.0
 10
492.079902
 20
191.637642
 30
0.0
  0
LWPOLYLINE
  5
131
100
AcDbEntity
  8
Layer_1
 62
7
100
AcDbPolyline
 90
5
 70
0
 10
493.808598
 20
142.769114
 30
0.0
 10
436.658502
 20
142.769114
 30
0.0
 10
436.658502
 20
141.040352
 30
0.0
 10
493.808598
 20
141.040352
 30
0.0
 10
493.808598
 20
142.769114
 30
0.0
  0
LWPOLYLINE
  5
132
100
AcDbEntity
  8
Layer_1
 62
7
100
AcDbPolyline
 90
5
 70
0
 10
408.083513
 20
136.277794
 30
0.0
 10
408.083513
 20
141.040285
 30
0.0
 10
406.354751
 20
141.040285
 30
0.0
 10
406.354751
 20
136.277794
 30
0.0
 10
408.083513
 20
136.277794
 30
0.0
  0
LWPOLYLINE
  5
133
100
AcDbEntity
  8
Layer_1
 62
7
100
AcDbPolyline
 90
5
 70
0
 10
379.508598
 20
220.697880
 30
0.0
 10
379.508598
 20
223.079130
 30
0.0
 10
377.779835
 20
223.079130
 30
0.0
 10
377.779835
 20
220.697880
 30
0.0
 10
379.508598
 20
220.697880
 30
0.0
  0
LWPOLYLINE
  5
134
100
AcDbEntity
  8
Layer_1
 62
7
100
AcDbPolyline
 90
5
 70
0
 10
398.558598
 20
223.079139
 30
0.0
 10
398.558598
 20
227.841642
 30
0.0
 10
396.829835
 20
227.841642
 30
0.0
 10
396.829835
 20
223.079139
 30
0.0
 10
398.558598
 20
223.079139
 30
0.0
  0
LWPOLYLINE
  5
135
100
AcDbEntity
  8
Layer_1
 62
7
100
AcDbPolyline
 90
5
 70
0
 10
419.337322
 20
225.460392
 30
0.0
 10
419.337322
 20
227.841641
 30
0.0
 10
417.608559
 20
227.841641
 30
0.0
 10
417.608559
 20
225.460392
 30
0.0
 10
419.337322
 20
225.460392
 30
0.0
  0
LWPOLYLINE
  5
136
100
AcDbEntity
  8
Layer_1
 62
7
100
AcDbPolyline
 90
5
 70
0
 10
438.387322
 20
220.697880
 30
0.0
 10
438.387322
 20
225.460380
 30
0.0
 10
436.658559
 20
225.460380
 30
0.0
 10
436.658559
 20
220.697880
 30
0.0
 10
438.387322
 20
220.697880
 30
0.0
  0
LWPOLYLINE
  5
137
100
AcDbEntity
  8
Layer_1
 62
7
100
AcDbPolyline
 90
5
 70
0
 10
379.508598
 20
220.697880
 30
0.0
 10
341.408615
 20
220.697880
 30
0.0
 10
341.408615
 20
218.969118
 30
0.0
 10
379.508598
 20
218.969118
 30
0.0
 10
379.508598
 20
220.697880
 30
0.0
  0
LWPOLYLINE
  5
138
100
AcDbEntity
  8
Layer_1
 62
7
100
AcDbPolyline
 90
5
 70
0
 10
398.558598
 20
223.079139
 30
0.0
 10
379.508587
 20
223.079139
 30
0.0
 10
379.508587
 20
221.350377
 30
0.0
 10
398.558598
 20
221.350377
 30
0.0
 10
398.558598
 20
223.079139
 30
0.0
  0
LWPOLYLINE
  5
139
100
AcDbEntity
  8
Layer_1
 62
7
100
AcDbPolyline
 90
5
 70
0
 10
417.608598
 20
227.841642
 30
0.0
 10
398.558600
 20
227.841642
 30
0.0
 10
398.558600
 20
226.112879
 30
0.0
 10
417.608598
 20
226.112879
 30
0.0
 10
417.608598
 20
227.841642
 30
0.0
  0
LWPOLYLINE
  5
13a
100
AcDbEntity
  8
Layer_1
 62
7
100
AcDbPolyline
 90
5
 70
0
 10
436.658598
 20
225.460392
 30
0.0
 10
417.608613
 20
225.460392
 30
0.0
 10
417.608613
 20
223.731629
 30
0.0
 10
436.658598
 20
223.731629
 30
0.0
 10
436.658598
 20
225.460392
 30
0.0
  0
LWPOLYLINE
  5
13b
100
AcDbEntity
  8
Layer_1
 62
7
100
AcDbPolyline
 90
6
 70
0
 10
379.508513
 20
164.200339
 30
0.0
 10
379.508513
 20
161.819089
 30
0.0
 10
436.658513
 20
161.819089
 30
0.0
 10
436.658513
 20
164.200339
 30
0.0
 10
379.508513
 20
164.200339
 30
0.0
 10
379.508513
 20
164.200339
 30
0.0
  0
LWPOLYLINE
  5
13c
100
AcDbEntity
  8
Layer_1
 62
7
100
AcDbPolyline
 90
10
 70
0
 10
474.758513
 20
161.819089
 30
0.0
 10
455.708513
 20
161.819089
 30
0.0
 10
436.658513
 20
161.819089
 30
0.0
 10
436.658513
 20
160.125755
 30
0.0
 10
436.658513
 20
144.462422
 30
0.0
 10
436.658513
 20
142.769089
 30
0.0
 10
455.708513
 20
142.769089
 30
0.0
 10
474.758513
 20
142.769089
 30
0.0
 10
474.758513
 20
161.819089
 30
0.0
 10
474.758513
 20
161.819089
 30
0.0
  0
LWPOLYLINE
  5
13d
100
AcDbEntity
  8
Layer_1
 62
7
100
AcDbPolyline
 90
6
 70
0
 10
469.299291
 20
158.485339
 30
0.0
 10
469.264013
 20
144.515339
 30
0.0
 10
465.965541
 20
144.524088
 30
0.0
 10
465.992070
 20
158.494088
 30
0.0
 10
469.299376
 20
158.485339
 30
0.0
 10
469.299291
 20
158.485339
 30
0.0
  0
LWPOLYLINE
  5
13e
100
AcDbEntity
  8
Layer_1
 62
7
100
AcDbPolyline
 90
38
 70
0
 10
463.504902
 20
158.300144
 30
0.0
 10
463.504902
 20
154.798811
 30
0.0
 10
462.693513
 20
154.798811
 30
0.0
 10
462.693513
 20
149.789366
 30
0.0
 10
463.504902
 20
149.789366
 30
0.0
 10
463.504902
 20
146.296866
 30
0.0
 10
462.693513
 20
146.296866
 30
0.0
 10
462.693513
 20
145.309089
 30
0.0
 10
461.705735
 20
145.309089
 30
0.0
 10
461.705735
 20
144.497700
 30
0.0
 10
458.213235
 20
144.497700
 30
0.0
 10
458.213235
 20
145.309089
 30
0.0
 10
453.203791
 20
145.309089
 30
0.0
 10
453.203791
 20
144.497700
 30
0.0
 10
449.702485
 20
144.497700
 30
0.0
 10
449.702485
 20
145.309089
 30
0.0
 10
448.723513
 20
145.309089
 30
0.0
 10
448.723513
 20
146.296866
 30
0.0
 10
447.912124
 20
146.296866
 30
0.0
 10
447.912124
 20
149.789366
 30
0.0
 10
448.723513
 20
149.789366
 30
0.0
 10
448.723513
 20
154.798811
 30
0.0
 10
447.912124
 20
154.798811
 30
0.0
 10
447.912124
 20
158.300144
 30
0.0
 10
448.723513
 20
158.300144
 30
0.0
 10
448.723513
 20
159.279089
 30
0.0
 10
449.702485
 20
159.279089
 30
0.0
 10
449.702485
 20
160.090478
 30
0.0
 10
453.203791
 20
160.090478
 30
0.0
 10
453.203791
 20
159.279089
 30
0.0
 10
458.213235
 20
159.279089
 30
0.0
 10
458.213235
 20
160.090478
 30
0.0
 10
461.705735
 20
160.090478
 30
0.0
 10
461.705735
 20
159.279089
 30
0.0
 10
462.693513
 20
159.279089
 30
0.0
 10
462.693513
 20
158.300144
 30
0.0
 10
463.504902
 20
158.300144
 30
0.0
 10
463.504902
 20
158.300144
 30
0.0
  0
LWPOLYLINE
  5
13f
100
AcDbEntity
  8
Layer_1
 62
7
100
AcDbPolyline
 90
6
 70
0
 10
445.416235
 20
158.538255
 30
0.0
 10
445.389707
 20
144.568255
 30
0.0
 10
442.091234
 20
144.577004
 30
0.0
 10
442.117763
 20
158.547004
 30
0.0
 10
445.416235
 20
158.538255
 30
0.0
 10
445.416235
 20
158.538255
 30
0.0
  0
LWPOLYLINE
  5
140
100
AcDbEntity
  8
Layer_1
 62
7
100
AcDbPolyline
 90
8
 70
0
 10
408.083513
 20
157.056589
 30
0.0
 10
408.083513
 20
138.006589
 30
0.0
 10
427.133513
 20
138.006589
 30
0.0
 10
436.658513
 20
138.006589
 30
0.0
 10
436.658513
 20
157.056589
 30
0.0
 10
427.133513
 20
157.056589
 30
0.0
 10
408.083513
 20
157.056589
 30
0.0
 10
408.083513
 20
157.056589
 30
0.0
  0
LWPOLYLINE
  5
141
100
AcDbEntity
  8
Layer_1
 62
7
100
AcDbPolyline
 90
38
 70
0
 10
416.364985
 20
155.327978
 30
0.0
 10
419.866291
 20
155.327978
 30
0.0
 10
419.866291
 20
154.516589
 30
0.0
 10
424.875735
 20
154.516589
 30
0.0
 10
424.875735
 20
155.327978
 30
0.0
 10
428.368235
 20
155.327978
 30
0.0
 10
428.368235
 20
154.516589
 30
0.0
 10
429.356013
 20
154.516589
 30
0.0
 10
429.356013
 20
153.528811
 30
0.0
 10
430.167402
 20
153.528811
 30
0.0
 10
430.167402
 20
150.036311
 30
0.0
 10
429.356013
 20
150.036311
 30
0.0
 10
429.356013
 20
145.026866
 30
0.0
 10
430.167402
 20
145.026866
 30
0.0
 10
430.167402
 20
141.525547
 30
0.0
 10
429.356013
 20
141.525547
 30
0.0
 10
429.356013
 20
140.546589
 30
0.0
 10
428.368235
 20
140.546589
 30
0.0
 10
428.368235
 20
139.735200
 30
0.0
 10
424.875735
 20
139.735200
 30
0.0
 10
424.875735
 20
140.546589
 30
0.0
 10
419.866291
 20
140.546589
 30
0.0
 10
419.866291
 20
139.735200
 30
0.0
 10
416.364985
 20
139.735200
 30
0.0
 10
416.364985
 20
140.546589
 30
0.0
 10
415.386013
 20
140.546589
 30
0.0
 10
415.386013
 20
141.525547
 30
0.0
 10
414.574624
 20
141.525547
 30
0.0
 10
414.574624
 20
145.026866
 30
0.0
 10
415.386013
 20
145.026866
 30
0.0
 10
415.386013
 20
150.036311
 30
0.0
 10
414.574624
 20
150.036311
 30
0.0
 10
414.574624
 20
153.528811
 30
0.0
 10
415.386013
 20
153.528811
 30
0.0
 10
415.386013
 20
154.516589
 30
0.0
 10
416.364985
 20
154.516589
 30
0.0
 10
416.364985
 20
155.327978
 30
0.0
 10
416.364985
 20
155.327978
 30
0.0
  0
LWPOLYLINE
  5
142
100
AcDbEntity
  8
Layer_1
 62
7
100
AcDbPolyline
 90
6
 70
0
 10
408.083513
 20
161.819089
 30
0.0
 10
408.083513
 20
157.056589
 30
0.0
 10
436.658513
 20
157.056589
 30
0.0
 10
436.658513
 20
161.819089
 30
0.0
 10
408.083513
 20
161.819089
 30
0.0
 10
408.083513
 20
161.819089
 30
0.0
  0
LWPOLYLINE
  5
143
100
AcDbEntity
  8
Layer_1
 62
7
100
AcDbPolyline
 90
5
 70
0
 10
436.658513
 20
138.006560
 30
0.0
 10
408.083513
 20
138.006560
 30
0.0
 10
408.083513
 20
136.277798
 30
0.0
 10
436.658513
 20
136.277798
 30
0.0
 10
436.658513
 20
138.006560
 30
0.0
  0
LWPOLYLINE
  5
144
100
AcDbEntity
  8
Layer_1
 62
7
100
AcDbPolyline
 90
5
 70
0
 10
438.387265
 20
136.277865
 30
0.0
 10
438.387265
 20
141.040356
 30
0.0
 10
436.658503
 20
141.040356
 30
0.0
 10
436.658503
 20
136.277865
 30
0.0
 10
438.387265
 20
136.277865
 30
0.0
  0
LWPOLYLINE
  5
145
100
AcDbEntity
  8
Layer_1
 62
7
100
AcDbPolyline
 90
8
 70
0
 10
360.458513
 20
190.394103
 30
0.0
 10
341.408513
 20
190.394103
 30
0.0
 10
341.408513
 20
171.344089
 30
0.0
 10
341.408513
 20
161.819089
 30
0.0
 10
360.458513
 20
161.819089
 30
0.0
 10
360.458513
 20
171.344089
 30
0.0
 10
360.458513
 20
190.394103
 30
0.0
 10
360.458513
 20
190.394103
 30
0.0
  0
LWPOLYLINE
  5
146
100
AcDbEntity
  8
Layer_1
 62
7
100
AcDbPolyline
 90
38
 70
0
 10
358.729902
 20
182.112644
 30
0.0
 10
358.729902
 20
178.611311
 30
0.0
 10
357.918513
 20
178.611311
 30
0.0
 10
357.918513
 20
173.601866
 30
0.0
 10
358.729902
 20
173.601866
 30
0.0
 10
358.729902
 20
170.109366
 30
0.0
 10
357.918513
 20
170.109366
 30
0.0
 10
357.918513
 20
169.121589
 30
0.0
 10
356.930735
 20
169.121589
 30
0.0
 10
356.930735
 20
168.310200
 30
0.0
 10
353.438235
 20
168.310200
 30
0.0
 10
353.438235
 20
169.121589
 30
0.0
 10
348.428791
 20
169.121589
 30
0.0
 10
348.428791
 20
168.310200
 30
0.0
 10
344.927485
 20
168.310200
 30
0.0
 10
344.927485
 20
169.121589
 30
0.0
 10
343.948513
 20
169.121589
 30
0.0
 10
343.948513
 20
170.109366
 30
0.0
 10
343.137124
 20
170.109366
 30
0.0
 10
343.137124
 20
173.601866
 30
0.0
 10
343.948513
 20
173.601866
 30
0.0
 10
343.948513
 20
178.611311
 30
0.0
 10
343.137124
 20
178.611311
 30
0.0
 10
343.137124
 20
182.112644
 30
0.0
 10
343.948513
 20
182.112644
 30
0.0
 10
343.948513
 20
183.091603
 30
0.0
 10
344.927485
 20
183.091603
 30
0.0
 10
344.927485
 20
183.902992
 30
0.0
 10
348.428791
 20
183.902992
 30
0.0
 10
348.428791
 20
183.091603
 30
0.0
 10
353.438235
 20
183.091603
 30
0.0
 10
353.438235
 20
183.902992
 30
0.0
 10
356.930735
 20
183.902992
 30
0.0
 10
356.930735
 20
183.091603
 30
0.0
 10
357.918513
 20
183.091603
 30
0.0
 10
357.918513
 20
182.112644
 30
0.0
 10
358.729902
 20
182.112644
 30
0.0
 10
358.729902
 20
182.112644
 30
0.0
  0
LWPOLYLINE
  5
147
100
AcDbEntity
  8
Layer_1
 62
7
100
AcDbPolyline
 90
5
 70
0
 10
339.677757
 20
160.088683
 30
0.0
 10
339.677757
 20
154.038544
 30
0.0
 10
352.651174
 20
160.088683
 30
0.0
 10
339.677757
 20
160.088683
 30
0.0
 10
339.677757
 20
160.088683
 30
0.0
  0
LWPOLYLINE
  5
148
100
AcDbEntity
  8
Layer_1
 62
7
100
AcDbPolyline
 90
5
 70
0
 10
368.254761
 20
149.198306
 30
0.0
 10
368.254761
 20
160.090320
 30
0.0
 10
363.174761
 20
160.090320
 30
0.0
 10
368.254761
 20
149.198306
 30
0.0
 10
368.254761
 20
149.198306
 30
0.0
  0
LWPOLYLINE
  5
149
100
AcDbEntity
  8
Layer_1
 62
7
100
AcDbPolyline
 90
10
 70
0
 10
408.083513
 20
161.819089
 30
0.0
 10
389.033513
 20
161.819089
 30
0.0
 10
369.983513
 20
161.819089
 30
0.0
 10
369.983513
 20
160.125755
 30
0.0
 10
369.983513
 20
144.462422
 30
0.0
 10
369.983513
 20
142.769089
 30
0.0
 10
389.033513
 20
142.769089
 30
0.0
 10
408.083513
 20
142.769089
 30
0.0
 10
408.083513
 20
161.819089
 30
0.0
 10
408.083513
 20
161.819089
 30
0.0
  0
LWPOLYLINE
  5
14a
100
AcDbEntity
  8
Layer_1
 62
7
100
AcDbPolyline
 90
6
 70
0
 10
402.624291
 20
158.485339
 30
0.0
 10
402.589013
 20
144.515339
 30
0.0
 10
399.290541
 20
144.524088
 30
0.0
 10
399.317070
 20
158.494088
 30
0.0
 10
402.624376
 20
158.485339
 30
0.0
 10
402.624291
 20
158.485339
 30
0.0
  0
LWPOLYLINE
  5
14b
100
AcDbEntity
  8
Layer_1
 62
7
100
AcDbPolyline
 90
38
 70
0
 10
396.829902
 20
158.300144
 30
0.0
 10
396.829902
 20
154.798811
 30
0.0
 10
396.018513
 20
154.798811
 30
0.0
 10
396.018513
 20
149.789366
 30
0.0
 10
396.829902
 20
149.789366
 30
0.0
 10
396.829902
 20
146.296866
 30
0.0
 10
396.018513
 20
146.296866
 30
0.0
 10
396.018513
 20
145.309089
 30
0.0
 10
395.030735
 20
145.309089
 30
0.0
 10
395.030735
 20
144.497700
 30
0.0
 10
391.538235
 20
144.497700
 30
0.0
 10
391.538235
 20
145.309089
 30
0.0
 10
386.528791
 20
145.309089
 30
0.0
 10
386.528791
 20
144.497700
 30
0.0
 10
383.027485
 20
144.497700
 30
0.0
 10
383.027485
 20
145.309089
 30
0.0
 10
382.048513
 20
145.309089
 30
0.0
 10
382.048513
 20
146.296866
 30
0.0
 10
381.237124
 20
146.296866
 30
0.0
 10
381.237124
 20
149.789366
 30
0.0
 10
382.048513
 20
149.789366
 30
0.0
 10
382.048513
 20
154.798811
 30
0.0
 10
381.237124
 20
154.798811
 30
0.0
 10
381.237124
 20
158.300144
 30
0.0
 10
382.048513
 20
158.300144
 30
0.0
 10
382.048513
 20
159.279089
 30
0.0
 10
383.027485
 20
159.279089
 30
0.0
 10
383.027485
 20
160.090478
 30
0.0
 10
386.528791
 20
160.090478
 30
0.0
 10
386.528791
 20
159.279089
 30
0.0
 10
391.538235
 20
159.279089
 30
0.0
 10
391.538235
 20
160.090478
 30
0.0
 10
395.030735
 20
160.090478
 30
0.0
 10
395.030735
 20
159.279089
 30
0.0
 10
396.018513
 20
159.279089
 30
0.0
 10
396.018513
 20
158.300144
 30
0.0
 10
396.829902
 20
158.300144
 30
0.0
 10
396.829902
 20
158.300144
 30
0.0
  0
LWPOLYLINE
  5
14c
100
AcDbEntity
  8
Layer_1
 62
7
100
AcDbPolyline
 90
6
 70
0
 10
378.741235
 20
158.538255
 30
0.0
 10
378.714707
 20
144.568255
 30
0.0
 10
375.416234
 20
144.577004
 30
0.0
 10
375.442763
 20
158.547004
 30
0.0
 10
378.741235
 20
158.538255
 30
0.0
 10
378.741235
 20
158.538255
 30
0.0
  0
LWPOLYLINE
  5
14d
100
AcDbEntity
  8
Layer_1
 62
7
100
AcDbPolyline
 90
10
 70
0
 10
343.193794
 20
153.768203
 30
0.0
 10
351.244635
 20
136.503047
 30
0.0
 10
359.295560
 20
119.237868
 30
0.0
 10
360.830228
 20
119.953499
 30
0.0
 10
375.026034
 20
126.573115
 30
0.0
 10
376.560702
 20
127.288745
 30
0.0
 10
368.509833
 20
144.553916
 30
0.0
 10
360.458993
 20
161.819089
 30
0.0
 10
343.193794
 20
153.768200
 30
0.0
 10
343.193794
 20
153.768203
 30
0.0
  0
LWPOLYLINE
  5
14e
100
AcDbEntity
  8
Layer_1
 62
7
100
AcDbPolyline
 90
6
 70
0
 10
348.522347
 20
150.229365
 30
0.0
 10
361.198359
 20
156.101371
 30
0.0
 10
362.584465
 20
153.108241
 30
0.0
 10
349.912123
 20
147.228310
 30
0.0
 10
348.522347
 20
150.229416
 30
0.0
 10
348.522347
 20
150.229365
 30
0.0
  0
LWPOLYLINE
  5
14f
100
AcDbEntity
  8
Layer_1
 62
7
100
AcDbPolyline
 90
38
 70
0
 10
351.138971
 20
145.056130
 30
0.0
 10
354.312277
 20
146.535849
 30
0.0
 10
354.655206
 20
145.800491
 30
0.0
 10
359.195315
 20
147.917581
 30
0.0
 10
358.852443
 20
148.652968
 30
0.0
 10
362.017678
 20
150.128936
 30
0.0
 10
362.360606
 20
149.393570
 30
0.0
 10
363.255815
 20
149.811021
 30
0.0
 10
363.673278
 20
148.915801
 30
0.0
 10
364.408636
 20
149.258701
 30
0.0
 10
365.884630
 20
146.093410
 30
0.0
 10
365.149272
 20
145.750510
 30
0.0
 10
367.266362
 20
141.210401
 30
0.0
 10
368.001692
 20
141.553329
 30
0.0
 10
369.481440
 20
138.380079
 30
0.0
 10
368.746081
 20
138.037151
 30
0.0
 10
369.159791
 20
137.149900
 30
0.0
 10
368.264554
 20
136.732465
 30
0.0
 10
368.607482
 20
135.997079
 30
0.0
 10
365.442191
 20
134.521085
 30
0.0
 10
365.099291
 20
135.256471
 30
0.0
 10
360.559182
 20
133.139381
 30
0.0
 10
360.902082
 20
132.404023
 30
0.0
 10
357.728775
 20
130.924276
 30
0.0
 10
357.385875
 20
131.659634
 30
0.0
 10
356.498681
 20
131.245924
 30
0.0
 10
356.084943
 20
132.133175
 30
0.0
 10
355.349585
 20
131.790275
 30
0.0
 10
353.869866
 20
134.963525
 30
0.0
 10
354.605224
 20
135.306453
 30
0.0
 10
352.488162
 20
139.846534
 30
0.0
 10
351.752776
 20
139.503634
 30
0.0
 10
350.276782
 20
142.668897
 30
0.0
 10
351.012168
 20
143.011825
 30
0.0
 10
350.594705
 20
143.907034
 30
0.0
 10
351.481871
 20
144.320744
 30
0.0
 10
351.138971
 20
145.056130
 30
0.0
 10
351.138971
 20
145.056130
 30
0.0
  0
LWPOLYLINE
  5
150
100
AcDbEntity
  8
Layer_1
 62
7
100
AcDbPolyline
 90
6
 70
0
 10
358.567793
 20
128.561596
 30
0.0
 10
371.240136
 20
134.441527
 30
0.0
 10
372.626242
 20
131.448391
 30
0.0
 10
359.953871
 20
125.568460
 30
0.0
 10
358.567793
 20
128.561568
 30
0.0
 10
358.567793
 20
128.561596
 30
0.0
  0
LWPOLYLINE
  5
151
100
AcDbEntity
  8
Layer_1
 62
7
100
AcDbPolyline
 90
10
 70
0
 10
325.928624
 20
145.717320
 30
0.0
 10
333.979465
 20
128.452178
 30
0.0
 10
342.030390
 20
111.186971
 30
0.0
 10
343.565058
 20
111.902631
 30
0.0
 10
357.760864
 20
118.522237
 30
0.0
 10
359.295560
 20
119.237868
 30
0.0
 10
351.244635
 20
136.503047
 30
0.0
 10
343.193794
 20
153.768203
 30
0.0
 10
325.928624
 20
145.717320
 30
0.0
 10
325.928624
 20
145.717320
 30
0.0
  0
LWPOLYLINE
  5
152
100
AcDbEntity
  8
Layer_1
 62
7
100
AcDbPolyline
 90
6
 70
0
 10
331.257205
 20
142.178479
 30
0.0
 10
343.933188
 20
148.050480
 30
0.0
 10
345.319295
 20
145.057372
 30
0.0
 10
332.646952
 20
139.177441
 30
0.0
 10
331.257177
 20
142.178536
 30
0.0
 10
331.257205
 20
142.178479
 30
0.0
  0
LWPOLYLINE
  5
153
100
AcDbEntity
  8
Layer_1
 62
7
100
AcDbPolyline
 90
38
 70
0
 10
333.873801
 20
137.005261
 30
0.0
 10
337.047107
 20
138.484981
 30
0.0
 10
337.390035
 20
137.749623
 30
0.0
 10
341.930116
 20
139.866713
 30
0.0
 10
341.587216
 20
140.602071
 30
0.0
 10
344.752508
 20
142.078065
 30
0.0
 10
345.095408
 20
141.342678
 30
0.0
 10
345.990645
 20
141.760141
 30
0.0
 10
346.408080
 20
140.864904
 30
0.0
 10
347.143466
 20
141.207833
 30
0.0
 10
348.619432
 20
138.042541
 30
0.0
 10
347.884045
 20
137.699641
 30
0.0
 10
350.001135
 20
133.159532
 30
0.0
 10
350.736494
 20
133.502460
 30
0.0
 10
352.216213
 20
130.329182
 30
0.0
 10
351.480855
 20
129.986282
 30
0.0
 10
351.894593
 20
129.099032
 30
0.0
 10
350.999384
 20
128.681569
 30
0.0
 10
351.342284
 20
127.946210
 30
0.0
 10
348.177020
 20
126.470216
 30
0.0
 10
347.834092
 20
127.205575
 30
0.0
 10
343.293983
 20
125.088513
 30
0.0
 10
343.636911
 20
124.353118
 30
0.0
 10
340.463605
 20
122.873427
 30
0.0
 10
340.120677
 20
123.608757
 30
0.0
 10
339.233483
 20
123.195047
 30
0.0
 10
338.819745
 20
124.082297
 30
0.0
 10
338.084415
 20
123.739397
 30
0.0
 10
336.604667
 20
126.912656
 30
0.0
 10
337.340054
 20
127.255556
 30
0.0
 10
335.222992
 20
131.795665
 30
0.0
 10
334.487606
 20
131.452765
 30
0.0
 10
333.011640
 20
134.618028
 30
0.0
 10
333.746970
 20
134.960928
 30
0.0
 10
333.329507
 20
135.856165
 30
0.0
 10
334.216701
 20
136.269875
 30
0.0
 10
333.873801
 20
137.005261
 30
0.0
 10
333.873801
 20
137.005261
 30
0.0
  0
LWPOLYLINE
  5
154
100
AcDbEntity
  8
Layer_1
 62
7
100
AcDbPolyline
 90
6
 70
0
 10
341.302623
 20
120.510719
 30
0.0
 10
353.974994
 20
126.390658
 30
0.0
 10
355.361043
 20
123.397542
 30
0.0
 10
342.688758
 20
117.517611
 30
0.0
 10
341.302651
 20
120.510719
 30
0.0
 10
341.302623
 20
120.510719
 30
0.0
  0
LWPOLYLINE
  5
155
100
AcDbEntity
  8
Layer_1
 62
7
100
AcDbPolyline
 90
10
 70
0
 10
376.560702
 20
127.288745
 30
0.0
 10
359.295560
 20
119.237868
 30
0.0
 10
342.030390
 20
111.186971
 30
0.0
 10
342.746021
 20
109.652303
 30
0.0
 10
349.365627
 20
95.456526
 30
0.0
 10
350.081258
 20
93.921829
 30
0.0
 10
367.346429
 20
101.972726
 30
0.0
 10
384.611627
 20
110.023595
 30
0.0
 10
376.560702
 20
127.288745
 30
0.0
 10
376.560702
 20
127.288745
 30
0.0
  0
LWPOLYLINE
  5
156
100
AcDbEntity
  8
Layer_1
 62
7
100
AcDbPolyline
 90
6
 70
0
 10
373.021917
 20
121.960184
 30
0.0
 10
378.893889
 20
109.284145
 30
0.0
 10
375.900753
 20
107.898067
 30
0.0
 10
370.020795
 20
120.570381
 30
0.0
 10
373.021946
 20
121.960184
 30
0.0
 10
373.021917
 20
121.960184
 30
0.0
  0
LWPOLYLINE
  5
157
100
AcDbEntity
  8
Layer_1
 62
7
100
AcDbPolyline
 90
38
 70
0
 10
367.848615
 20
119.343532
 30
0.0
 10
369.328362
 20
116.170226
 30
0.0
 10
368.593004
 20
115.827326
 30
0.0
 10
370.710094
 20
111.287245
 30
0.0
 10
371.445424
 20
111.630145
 30
0.0
 10
372.921418
 20
108.464853
 30
0.0
 10
372.186060
 20
108.121953
 30
0.0
 10
372.603523
 20
107.226716
 30
0.0
 10
371.708286
 20
106.809281
 30
0.0
 10
372.051214
 20
106.073895
 30
0.0
 10
368.885923
 20
104.597901
 30
0.0
 10
368.542994
 20
105.333287
 30
0.0
 10
364.002914
 20
103.216197
 30
0.0
 10
364.345814
 20
102.480811
 30
0.0
 10
361.172535
 20
101.001120
 30
0.0
 10
360.829635
 20
101.736450
 30
0.0
 10
359.942385
 20
101.322740
 30
0.0
 10
359.524922
 20
102.217977
 30
0.0
 10
358.789564
 20
101.875077
 30
0.0
 10
357.313598
 20
105.040341
 30
0.0
 10
358.048928
 20
105.383269
 30
0.0
 10
355.931866
 20
109.923350
 30
0.0
 10
355.196480
 20
109.580450
 30
0.0
 10
353.716760
 20
112.753728
 30
0.0
 10
354.452119
 20
113.096628
 30
0.0
 10
354.038409
 20
113.983878
 30
0.0
 10
354.925659
 20
114.397588
 30
0.0
 10
354.582759
 20
115.133003
 30
0.0
 10
357.756009
 20
116.612694
 30
0.0
 10
358.098909
 20
115.877307
 30
0.0
 10
362.639018
 20
117.994369
 30
0.0
 10
362.296118
 20
118.729755
 30
0.0
 10
365.461382
 20
120.205749
 30
0.0
 10
365.804338
 20
119.470391
 30
0.0
 10
366.699519
 20
119.887854
 30
0.0
 10
367.113228
 20
119.000604
 30
0.0
 10
367.848587
 20
119.343532
 30
0.0
 10
367.848615
 20
119.343532
 30
0.0
  0
LWPOLYLINE
  5
158
100
AcDbEntity
  8
Layer_1
 62
7
100
AcDbPolyline
 90
6
 70
0
 10
351.354024
 20
111.914710
 30
0.0
 10
357.233983
 20
99.242396
 30
0.0
 10
354.240875
 20
97.856318
 30
0.0
 10
348.360973
 20
110.528632
 30
0.0
 10
351.354081
 20
111.914710
 30
0.0
 10
351.354024
 20
111.914710
 30
0.0
  0
LWPOLYLINE
  5
159
100
AcDbEntity
  8
Layer_1
 62
7
100
AcDbPolyline
 90
5
 70
0
 10
384.611600
 20
110.023595
 30
0.0
 10
350.081273
 20
93.921839
 30
0.0
 10
350.811880
 20
92.355049
 30
0.0
 10
385.342206
 20
108.456804
 30
0.0
 10
384.611600
 20
110.023595
 30
0.0
  0
LWPOLYLINE
  5
15a
100
AcDbEntity
  8
Layer_1
 62
7
100
AcDbPolyline
 90
10
 70
0
 10
308.663454
 20
137.666452
 30
0.0
 10
316.714323
 20
120.401245
 30
0.0
 10
324.765163
 20
103.136103
 30
0.0
 10
326.299859
 20
103.851734
 30
0.0
 10
340.495665
 20
110.471369
 30
0.0
 10
342.030333
 20
111.187000
 30
0.0
 10
333.979493
 20
128.452150
 30
0.0
 10
325.928596
 20
145.717320
 30
0.0
 10
308.663426
 20
137.666452
 30
0.0
 10
308.663454
 20
137.666452
 30
0.0
  0
LWPOLYLINE
  5
15b
100
AcDbEntity
  8
Layer_1
 62
7
100
AcDbPolyline
 90
6
 70
0
 10
313.992007
 20
134.127611
 30
0.0
 10
326.668046
 20
139.999611
 30
0.0
 10
328.054096
 20
137.006503
 30
0.0
 10
315.381754
 20
131.126573
 30
0.0
 10
313.991979
 20
134.127639
 30
0.0
 10
313.992007
 20
134.127611
 30
0.0
  0
LWPOLYLINE
  5
15c
100
AcDbEntity
  8
Layer_1
 62
7
100
AcDbPolyline
 90
38
 70
0
 10
316.608659
 20
128.954365
 30
0.0
 10
319.781993
 20
130.434112
 30
0.0
 10
320.124865
 20
129.698754
 30
0.0
 10
324.664974
 20
131.815816
 30
0.0
 10
324.322046
 20
132.551174
 30
0.0
 10
327.487309
 20
134.027196
 30
0.0
 10
327.830209
 20
133.291810
 30
0.0
 10
328.725446
 20
133.709245
 30
0.0
 10
329.142909
 20
132.814036
 30
0.0
 10
329.878268
 20
133.156936
 30
0.0
 10
331.354262
 20
129.991701
 30
0.0
 10
330.618903
 20
129.648772
 30
0.0
 10
332.735993
 20
125.108663
 30
0.0
 10
333.471380
 20
125.451563
 30
0.0
 10
334.951071
 20
122.278305
 30
0.0
 10
334.215685
 20
121.935405
 30
0.0
 10
334.629422
 20
121.048155
 30
0.0
 10
333.734185
 20
120.630691
 30
0.0
 10
334.077113
 20
119.895333
 30
0.0
 10
330.911822
 20
118.419339
 30
0.0
 10
330.568922
 20
119.154697
 30
0.0
 10
326.028813
 20
117.037607
 30
0.0
 10
326.371713
 20
116.302249
 30
0.0
 10
323.198406
 20
114.822502
 30
0.0
 10
322.855478
 20
115.557860
 30
0.0
 10
321.968313
 20
115.144179
 30
0.0
 10
321.554575
 20
116.031429
 30
0.0
 10
320.819217
 20
115.688501
 30
0.0
 10
319.339497
 20
118.861779
 30
0.0
 10
320.074855
 20
119.204679
 30
0.0
 10
317.957765
 20
123.744788
 30
0.0
 10
317.222407
 20
123.401860
 30
0.0
 10
315.746413
 20
126.567188
 30
0.0
 10
316.481771
 20
126.910060
 30
0.0
 10
316.064337
 20
127.805297
 30
0.0
 10
316.951530
 20
128.219035
 30
0.0
 10
316.608630
 20
128.954365
 30
0.0
 10
316.608659
 20
128.954365
 30
0.0
  0
LWPOLYLINE
  5
15d
100
AcDbEntity
  8
Layer_1
 62
7
100
AcDbPolyline
 90
6
 70
0
 10
324.037481
 20
112.459850
 30
0.0
 10
336.709795
 20
118.339781
 30
0.0
 10
338.095873
 20
115.346645
 30
0.0
 10
325.423503
 20
109.466686
 30
0.0
 10
324.037453
 20
112.459822
 30
0.0
 10
324.037481
 20
112.459850
 30
0.0
  0
LWPOLYLINE
  5
15e
100
AcDbEntity
  8
Layer_1
 62
7
100
AcDbPolyline
 90
5
 70
0
 10
325.495773
 20
101.569315
 30
0.0
 10
307.932822
 20
139.233184
 30
0.0
 10
306.366031
 20
138.502578
 30
0.0
 10
323.928982
 20
100.838708
 30
0.0
 10
325.495773
 20
101.569315
 30
0.0
  0
LWPOLYLINE
  5
15f
100
AcDbEntity
  8
Layer_1
 62
7
100
AcDbPolyline
 90
5
 70
0
 10
350.811875
 20
92.355058
 30
0.0
 10
342.030387
 20
111.187021
 30
0.0
 10
340.463596
 20
110.456415
 30
0.0
 10
349.245084
 20
91.624451
 30
0.0
 10
350.811875
 20
92.355058
 30
0.0
  0
LWPOLYLINE
  5
160
100
AcDbEntity
  8
Layer_1
 62
7
100
AcDbPolyline
 90
5
 70
0
 10
340.463616
 20
110.456402
 30
0.0
 10
324.765138
 20
103.136081
 30
0.0
 10
325.495744
 20
101.569290
 30
0.0
 10
341.194223
 20
108.889611
 30
0.0
 10
340.463616
 20
110.456402
 30
0.0
  0
LWPOLYLINE
  5
161
100
AcDbEntity
  8
Layer_1
 62
7
100
AcDbPolyline
 90
6
 70
0
 10
356.355341
 20
161.817297
 30
0.0
 10
307.936591
 20
139.230699
 30
0.0
 10
308.659785
 20
137.669658
 30
0.0
 10
360.456368
 20
161.817297
 30
0.0
 10
356.355341
 20
161.817297
 30
0.0
 10
356.355341
 20
161.817297
 30
0.0
  0
LWPOLYLINE
  5
162
100
AcDbEntity
  8
Layer_1
 62
7
100
AcDbPolyline
 90
10
 70
0
 10
360.456368
 20
161.817297
 30
0.0
 10
385.344869
 20
108.459655
 30
0.0
 10
386.905896
 20
109.191669
 30
0.0
 10
371.251368
 20
142.767297
 30
0.0
 10
369.981368
 20
142.767297
 30
0.0
 10
369.981368
 20
144.460630
 30
0.0
 10
369.981368
 20
145.492505
 30
0.0
 10
362.370202
 20
161.817297
 30
0.0
 10
360.456368
 20
161.817297
 30
0.0
 10
360.456368
 20
161.817297
 30
0.0
  0
LWPOLYLINE
  5
163
100
AcDbEntity
  8
Layer_1
 62
7
100
AcDbPolyline
 90
6
 70
0
 10
371.251368
 20
142.767294
 30
0.0
 10
372.053952
 20
141.038683
 30
0.0
 10
408.081368
 20
141.038683
 30
0.0
 10
408.081368
 20
142.767294
 30
0.0
 10
371.251368
 20
142.767294
 30
0.0
 10
371.251368
 20
142.767294
 30
0.0
  0
LWPOLYLINE
  5
164
100
AcDbEntity
  8
Layer_1
 62
7
100
AcDbPolyline
 90
6
 70
0
 10
368.252757
 20
160.088683
 30
0.0
 10
368.252757
 20
149.196669
 30
0.0
 10
369.981368
 20
145.492502
 30
0.0
 10
369.981368
 20
160.088683
 30
0.0
 10
368.252757
 20
160.088683
 30
0.0
 10
368.252757
 20
160.088683
 30
0.0
  0
LWPOLYLINE
  5
165
100
AcDbEntity
  8
Layer_1
 62
7
100
AcDbPolyline
 90
6
 70
0
 10
362.370202
 20
161.817294
 30
0.0
 10
363.172757
 20
160.088683
 30
0.0
 10
369.981368
 20
160.088683
 30
0.0
 10
369.981368
 20
161.817294
 30
0.0
 10
362.370202
 20
161.817294
 30
0.0
 10
362.370202
 20
161.817294
 30
0.0
  0
LWPOLYLINE
  5
166
100
AcDbEntity
  8
Layer_1
 62
7
100
AcDbPolyline
 90
6
 70
0
 10
341.406368
 20
161.817294
 30
0.0
 10
341.406368
 20
160.088683
 30
0.0
 10
352.651174
 20
160.088683
 30
0.0
 10
356.355341
 20
161.817294
 30
0.0
 10
341.406368
 20
161.817294
 30
0.0
 10
341.406368
 20
161.817294
 30
0.0
  0
LWPOLYLINE
  5
167
100
AcDbEntity
  8
Layer_1
 62
7
100
AcDbPolyline
 90
6
 70
0
 10
242.758348
 20
182.059722
 30
0.0
 10
242.758348
 20
163.009708
 30
0.0
 10
223.708348
 20
163.009708
 30
0.0
 10
223.708348
 20
182.059722
 30
0.0
 10
242.758348
 20
182.059722
 30
0.0
 10
242.758348
 20
182.059722
 30
0.0
  0
LWPOLYLINE
  5
168
100
AcDbEntity
  8
Layer_1
 62
7
100
AcDbPolyline
 90
38
 70
0
 10
239.239375
 20
180.331097
 30
0.0
 10
235.738070
 20
180.331097
 30
0.0
 10
235.738070
 20
179.519708
 30
0.0
 10
230.728625
 20
179.519708
 30
0.0
 10
230.728625
 20
180.331097
 30
0.0
 10
227.236125
 20
180.331097
 30
0.0
 10
227.236125
 20
179.519708
 30
0.0
 10
226.248348
 20
179.519708
 30
0.0
 10
226.248348
 20
178.531930
 30
0.0
 10
225.436959
 20
178.531930
 30
0.0
 10
225.436959
 20
175.039430
 30
0.0
 10
226.248348
 20
175.039430
 30
0.0
 10
226.248348
 20
170.029986
 30
0.0
 10
225.436959
 20
170.029986
 30
0.0
 10
225.436959
 20
166.528680
 30
0.0
 10
226.248348
 20
166.528680
 30
0.0
 10
226.248348
 20
165.549708
 30
0.0
 10
227.236125
 20
165.549708
 30
0.0
 10
227.236125
 20
164.738319
 30
0.0
 10
230.728625
 20
164.738319
 30
0.0
 10
230.728625
 20
165.549708
 30
0.0
 10
235.738070
 20
165.549708
 30
0.0
 10
235.738070
 20
164.738319
 30
0.0
 10
239.239375
 20
164.738319
 30
0.0
 10
239.239375
 20
165.549708
 30
0.0
 10
240.218348
 20
165.549708
 30
0.0
 10
240.218348
 20
166.528680
 30
0.0
 10
241.029737
 20
166.528680
 30
0.0
 10
241.029737
 20
170.029986
 30
0.0
 10
240.218348
 20
170.029986
 30
0.0
 10
240.218348
 20
175.039430
 30
0.0
 10
241.029737
 20
175.039430
 30
0.0
 10
241.029737
 20
178.531930
 30
0.0
 10
240.218348
 20
178.531930
 30
0.0
 10
240.218348
 20
179.519708
 30
0.0
 10
239.239375
 20
179.519708
 30
0.0
 10
239.239375
 20
180.331097
 30
0.0
 10
239.239375
 20
180.331097
 30
0.0
  0
LWPOLYLINE
  5
169
100
AcDbEntity
  8
Layer_1
 62
7
100
AcDbPolyline
 90
6
 70
0
 10
242.758348
 20
220.159722
 30
0.0
 10
242.758348
 20
201.109722
 30
0.0
 10
223.708348
 20
201.109722
 30
0.0
 10
223.708348
 20
220.159722
 30
0.0
 10
242.758348
 20
220.159722
 30
0.0
 10
242.758348
 20
220.159722
 30
0.0
  0
LWPOLYLINE
  5
16a
100
AcDbEntity
  8
Layer_1
 62
7
100
AcDbPolyline
 90
38
 70
0
 10
239.239375
 20
218.431111
 30
0.0
 10
235.738070
 20
218.431111
 30
0.0
 10
235.738070
 20
217.619722
 30
0.0
 10
230.728625
 20
217.619722
 30
0.0
 10
230.728625
 20
218.431111
 30
0.0
 10
227.236125
 20
218.431111
 30
0.0
 10
227.236125
 20
217.619722
 30
0.0
 10
226.248348
 20
217.619722
 30
0.0
 10
226.248348
 20
216.631944
 30
0.0
 10
225.436959
 20
216.631944
 30
0.0
 10
225.436959
 20
213.139444
 30
0.0
 10
226.248348
 20
213.139444
 30
0.0
 10
226.248348
 20
208.130000
 30
0.0
 10
225.436959
 20
208.130000
 30
0.0
 10
225.436959
 20
204.628680
 30
0.0
 10
226.248348
 20
204.628680
 30
0.0
 10
226.248348
 20
203.649722
 30
0.0
 10
227.236125
 20
203.649722
 30
0.0
 10
227.236125
 20
202.838333
 30
0.0
 10
230.728625
 20
202.838333
 30
0.0
 10
230.728625
 20
203.649722
 30
0.0
 10
235.738070
 20
203.649722
 30
0.0
 10
235.738070
 20
202.838333
 30
0.0
 10
239.239375
 20
202.838333
 30
0.0
 10
239.239375
 20
203.649722
 30
0.0
 10
240.218348
 20
203.649722
 30
0.0
 10
240.218348
 20
204.628680
 30
0.0
 10
241.029737
 20
204.628680
 30
0.0
 10
241.029737
 20
208.130000
 30
0.0
 10
240.218348
 20
208.130000
 30
0.0
 10
240.218348
 20
213.139444
 30
0.0
 10
241.029737
 20
213.139444
 30
0.0
 10
241.029737
 20
216.631944
 30
0.0
 10
240.218348
 20
216.631944
 30
0.0
 10
240.218348
 20
217.619722
 30
0.0
 10
239.239375
 20
217.619722
 30
0.0
 10
239.239375
 20
218.431111
 30
0.0
 10
239.239375
 20
218.431111
 30
0.0
  0
LWPOLYLINE
  5
16b
100
AcDbEntity
  8
Layer_1
 62
7
100
AcDbPolyline
 90
6
 70
0
 10
242.758348
 20
201.109722
 30
0.0
 10
242.758348
 20
182.059725
 30
0.0
 10
223.708348
 20
182.059725
 30
0.0
 10
223.708348
 20
201.109725
 30
0.0
 10
242.758348
 20
201.109725
 30
0.0
 10
242.758348
 20
201.109722
 30
0.0
  0
LWPOLYLINE
  5
16c
100
AcDbEntity
  8
Layer_1
 62
7
100
AcDbPolyline
 90
38
 70
0
 10
239.239375
 20
199.381111
 30
0.0
 10
235.738070
 20
199.381111
 30
0.0
 10
235.738070
 20
198.569722
 30
0.0
 10
230.728625
 20
198.569722
 30
0.0
 10
230.728625
 20
199.381111
 30
0.0
 10
227.236125
 20
199.381111
 30
0.0
 10
227.236125
 20
198.569722
 30
0.0
 10
226.248348
 20
198.569722
 30
0.0
 10
226.248348
 20
197.581944
 30
0.0
 10
225.436959
 20
197.581944
 30
0.0
 10
225.436959
 20
194.089444
 30
0.0
 10
226.248348
 20
194.089444
 30
0.0
 10
226.248348
 20
189.080003
 30
0.0
 10
225.436959
 20
189.080003
 30
0.0
 10
225.436959
 20
185.578683
 30
0.0
 10
226.248348
 20
185.578683
 30
0.0
 10
226.248348
 20
184.599725
 30
0.0
 10
227.236125
 20
184.599725
 30
0.0
 10
227.236125
 20
183.788336
 30
0.0
 10
230.728625
 20
183.788336
 30
0.0
 10
230.728625
 20
184.599725
 30
0.0
 10
235.738070
 20
184.599725
 30
0.0
 10
235.738070
 20
183.788336
 30
0.0
 10
239.239375
 20
183.788336
 30
0.0
 10
239.239375
 20
184.599725
 30
0.0
 10
240.218348
 20
184.599725
 30
0.0
 10
240.218348
 20
185.578683
 30
0.0
 10
241.029737
 20
185.578683
 30
0.0
 10
241.029737
 20
189.080003
 30
0.0
 10
240.218348
 20
189.080003
 30
0.0
 10
240.218348
 20
194.089447
 30
0.0
 10
241.029737
 20
194.089447
 30
0.0
 10
241.029737
 20
197.581947
 30
0.0
 10
240.218348
 20
197.581947
 30
0.0
 10
240.218348
 20
198.569725
 30
0.0
 10
239.239375
 20
198.569725
 30
0.0
 10
239.239375
 20
199.381114
 30
0.0
 10
239.239375
 20
199.381111
 30
0.0
  0
LWPOLYLINE
  5
16d
100
AcDbEntity
  8
Layer_1
 62
7
100
AcDbPolyline
 90
6
 70
0
 10
223.708348
 20
222.540969
 30
0.0
 10
223.708348
 20
203.490969
 30
0.0
 10
204.658348
 20
203.490969
 30
0.0
 10
204.658348
 20
222.540969
 30
0.0
 10
223.708348
 20
222.540969
 30
0.0
 10
223.708348
 20
222.540969
 30
0.0
  0
LWPOLYLINE
  5
16e
100
AcDbEntity
  8
Layer_1
 62
7
100
AcDbPolyline
 90
38
 70
0
 10
220.189375
 20
220.812358
 30
0.0
 10
216.688070
 20
220.812358
 30
0.0
 10
216.688070
 20
220.000969
 30
0.0
 10
211.678625
 20
220.000969
 30
0.0
 10
211.678625
 20
220.812358
 30
0.0
 10
208.186125
 20
220.812358
 30
0.0
 10
208.186125
 20
220.000969
 30
0.0
 10
207.198348
 20
220.000969
 30
0.0
 10
207.198348
 20
219.013192
 30
0.0
 10
206.386959
 20
219.013192
 30
0.0
 10
206.386959
 20
215.520692
 30
0.0
 10
207.198348
 20
215.520692
 30
0.0
 10
207.198348
 20
210.511247
 30
0.0
 10
206.386959
 20
210.511247
 30
0.0
 10
206.386959
 20
207.009928
 30
0.0
 10
207.198348
 20
207.009928
 30
0.0
 10
207.198348
 20
206.030969
 30
0.0
 10
208.186125
 20
206.030969
 30
0.0
 10
208.186125
 20
205.219580
 30
0.0
 10
211.678625
 20
205.219580
 30
0.0
 10
211.678625
 20
206.030969
 30
0.0
 10
216.688070
 20
206.030969
 30
0.0
 10
216.688070
 20
205.219580
 30
0.0
 10
220.189375
 20
205.219580
 30
0.0
 10
220.189375
 20
206.030969
 30
0.0
 10
221.168348
 20
206.030969
 30
0.0
 10
221.168348
 20
207.009928
 30
0.0
 10
221.979737
 20
207.009928
 30
0.0
 10
221.979737
 20
210.511247
 30
0.0
 10
221.168348
 20
210.511247
 30
0.0
 10
221.168348
 20
215.520692
 30
0.0
 10
221.979737
 20
215.520692
 30
0.0
 10
221.979737
 20
219.013192
 30
0.0
 10
221.168348
 20
219.013192
 30
0.0
 10
221.168348
 20
220.000969
 30
0.0
 10
220.189375
 20
220.000969
 30
0.0
 10
220.189375
 20
220.812358
 30
0.0
 10
220.189375
 20
220.812358
 30
0.0
  0
LWPOLYLINE
  5
16f
100
AcDbEntity
  8
Layer_1
 62
7
100
AcDbPolyline
 90
6
 70
0
 10
223.708348
 20
203.490969
 30
0.0
 10
223.708348
 20
184.440969
 30
0.0
 10
204.658348
 20
184.440969
 30
0.0
 10
204.658348
 20
203.490969
 30
0.0
 10
223.708348
 20
203.490969
 30
0.0
 10
223.708348
 20
203.490969
 30
0.0
  0
LWPOLYLINE
  5
170
100
AcDbEntity
  8
Layer_1
 62
7
100
AcDbPolyline
 90
38
 70
0
 10
220.189375
 20
201.762358
 30
0.0
 10
216.688070
 20
201.762358
 30
0.0
 10
216.688070
 20
200.950969
 30
0.0
 10
211.678625
 20
200.950969
 30
0.0
 10
211.678625
 20
201.762358
 30
0.0
 10
208.186125
 20
201.762358
 30
0.0
 10
208.186125
 20
200.950969
 30
0.0
 10
207.198348
 20
200.950969
 30
0.0
 10
207.198348
 20
199.963192
 30
0.0
 10
206.386959
 20
199.963192
 30
0.0
 10
206.386959
 20
196.470692
 30
0.0
 10
207.198348
 20
196.470692
 30
0.0
 10
207.198348
 20
191.461247
 30
0.0
 10
206.386959
 20
191.461247
 30
0.0
 10
206.386959
 20
187.959928
 30
0.0
 10
207.198348
 20
187.959928
 30
0.0
 10
207.198348
 20
186.980969
 30
0.0
 10
208.186125
 20
186.980969
 30
0.0
 10
208.186125
 20
186.169580
 30
0.0
 10
211.678625
 20
186.169580
 30
0.0
 10
211.678625
 20
186.980969
 30
0.0
 10
216.688070
 20
186.980969
 30
0.0
 10
216.688070
 20
186.169580
 30
0.0
 10
220.189375
 20
186.169580
 30
0.0
 10
220.189375
 20
186.980969
 30
0.0
 10
221.168348
 20
186.980969
 30
0.0
 10
221.168348
 20
187.959928
 30
0.0
 10
221.979737
 20
187.959928
 30
0.0
 10
221.979737
 20
191.461247
 30
0.0
 10
221.168348
 20
191.461247
 30
0.0
 10
221.168348
 20
196.470692
 30
0.0
 10
221.979737
 20
196.470692
 30
0.0
 10
221.979737
 20
199.963192
 30
0.0
 10
221.168348
 20
199.963192
 30
0.0
 10
221.168348
 20
200.950969
 30
0.0
 10
220.189375
 20
200.950969
 30
0.0
 10
220.189375
 20
201.762358
 30
0.0
 10
220.189375
 20
201.762358
 30
0.0
  0
LWPOLYLINE
  5
171
100
AcDbEntity
  8
Layer_1
 62
7
100
AcDbPolyline
 90
6
 70
0
 10
223.708348
 20
184.440969
 30
0.0
 10
223.708348
 20
165.390958
 30
0.0
 10
204.658348
 20
165.390958
 30
0.0
 10
204.658348
 20
184.440969
 30
0.0
 10
223.708348
 20
184.440969
 30
0.0
 10
223.708348
 20
184.440969
 30
0.0
  0
LWPOLYLINE
  5
172
100
AcDbEntity
  8
Layer_1
 62
7
100
AcDbPolyline
 90
38
 70
0
 10
220.189375
 20
182.712358
 30
0.0
 10
216.688070
 20
182.712358
 30
0.0
 10
216.688070
 20
181.900969
 30
0.0
 10
211.678625
 20
181.900969
 30
0.0
 10
211.678625
 20
182.712358
 30
0.0
 10
208.186125
 20
182.712358
 30
0.0
 10
208.186125
 20
181.900969
 30
0.0
 10
207.198348
 20
181.900969
 30
0.0
 10
207.198348
 20
180.913180
 30
0.0
 10
206.386959
 20
180.913180
 30
0.0
 10
206.386959
 20
177.420680
 30
0.0
 10
207.198348
 20
177.420680
 30
0.0
 10
207.198348
 20
172.411236
 30
0.0
 10
206.386959
 20
172.411236
 30
0.0
 10
206.386959
 20
168.909930
 30
0.0
 10
207.198348
 20
168.909930
 30
0.0
 10
207.198348
 20
167.930958
 30
0.0
 10
208.186125
 20
167.930958
 30
0.0
 10
208.186125
 20
167.119569
 30
0.0
 10
211.678625
 20
167.119569
 30
0.0
 10
211.678625
 20
167.930958
 30
0.0
 10
216.688070
 20
167.930958
 30
0.0
 10
216.688070
 20
167.119569
 30
0.0
 10
220.189375
 20
167.119569
 30
0.0
 10
220.189375
 20
167.930958
 30
0.0
 10
221.168348
 20
167.930958
 30
0.0
 10
221.168348
 20
168.909930
 30
0.0
 10
221.979737
 20
168.909930
 30
0.0
 10
221.979737
 20
172.411236
 30
0.0
 10
221.168348
 20
172.411236
 30
0.0
 10
221.168348
 20
177.420680
 30
0.0
 10
221.979737
 20
177.420680
 30
0.0
 10
221.979737
 20
180.913180
 30
0.0
 10
221.168348
 20
180.913180
 30
0.0
 10
221.168348
 20
181.900969
 30
0.0
 10
220.189375
 20
181.900969
 30
0.0
 10
220.189375
 20
182.712358
 30
0.0
 10
220.189375
 20
182.712358
 30
0.0
  0
LWPOLYLINE
  5
173
100
AcDbEntity
  8
Layer_1
 62
7
100
AcDbPolyline
 90
6
 70
0
 10
204.658348
 20
227.303467
 30
0.0
 10
204.658348
 20
208.253467
 30
0.0
 10
185.608348
 20
208.253467
 30
0.0
 10
185.608348
 20
227.303467
 30
0.0
 10
204.658348
 20
227.303467
 30
0.0
 10
204.658348
 20
227.303467
 30
0.0
  0
LWPOLYLINE
  5
174
100
AcDbEntity
  8
Layer_1
 62
7
100
AcDbPolyline
 90
38
 70
0
 10
201.139375
 20
225.574855
 30
0.0
 10
197.638070
 20
225.574855
 30
0.0
 10
197.638070
 20
224.763467
 30
0.0
 10
192.628625
 20
224.763467
 30
0.0
 10
192.628625
 20
225.574855
 30
0.0
 10
189.136125
 20
225.574855
 30
0.0
 10
189.136125
 20
224.763467
 30
0.0
 10
188.148348
 20
224.763467
 30
0.0
 10
188.148348
 20
223.775689
 30
0.0
 10
187.336959
 20
223.775689
 30
0.0
 10
187.336959
 20
220.283189
 30
0.0
 10
188.148348
 20
220.283189
 30
0.0
 10
188.148348
 20
215.273744
 30
0.0
 10
187.336959
 20
215.273744
 30
0.0
 10
187.336959
 20
211.772425
 30
0.0
 10
188.148348
 20
211.772425
 30
0.0
 10
188.148348
 20
210.793467
 30
0.0
 10
189.136125
 20
210.793467
 30
0.0
 10
189.136125
 20
209.982078
 30
0.0
 10
192.628625
 20
209.982078
 30
0.0
 10
192.628625
 20
210.793467
 30
0.0
 10
197.638070
 20
210.793467
 30
0.0
 10
197.638070
 20
209.982078
 30
0.0
 10
201.139375
 20
209.982078
 30
0.0
 10
201.139375
 20
210.793467
 30
0.0
 10
202.118348
 20
210.793467
 30
0.0
 10
202.118348
 20
211.772425
 30
0.0
 10
202.929737
 20
211.772425
 30
0.0
 10
202.929737
 20
215.273744
 30
0.0
 10
202.118348
 20
215.273744
 30
0.0
 10
202.118348
 20
220.283189
 30
0.0
 10
202.929737
 20
220.283189
 30
0.0
 10
202.929737
 20
223.775689
 30
0.0
 10
202.118348
 20
223.775689
 30
0.0
 10
202.118348
 20
224.763467
 30
0.0
 10
201.139375
 20
224.763467
 30
0.0
 10
201.139375
 20
225.574855
 30
0.0
 10
201.139375
 20
225.574855
 30
0.0
  0
LWPOLYLINE
  5
175
100
AcDbEntity
  8
Layer_1
 62
7
100
AcDbPolyline
 90
6
 70
0
 10
204.658348
 20
208.253467
 30
0.0
 10
204.658348
 20
189.203467
 30
0.0
 10
185.608348
 20
189.203467
 30
0.0
 10
185.608348
 20
208.253467
 30
0.0
 10
204.658348
 20
208.253467
 30
0.0
 10
204.658348
 20
208.253467
 30
0.0
  0
LWPOLYLINE
  5
176
100
AcDbEntity
  8
Layer_1
 62
7
100
AcDbPolyline
 90
38
 70
0
 10
201.139375
 20
206.524855
 30
0.0
 10
197.638070
 20
206.524855
 30
0.0
 10
197.638070
 20
205.713467
 30
0.0
 10
192.628625
 20
205.713467
 30
0.0
 10
192.628625
 20
206.524855
 30
0.0
 10
189.136125
 20
206.524855
 30
0.0
 10
189.136125
 20
205.713467
 30
0.0
 10
188.148348
 20
205.713467
 30
0.0
 10
188.148348
 20
204.725689
 30
0.0
 10
187.336959
 20
204.725689
 30
0.0
 10
187.336959
 20
201.233189
 30
0.0
 10
188.148348
 20
201.233189
 30
0.0
 10
188.148348
 20
196.223744
 30
0.0
 10
187.336959
 20
196.223744
 30
0.0
 10
187.336959
 20
192.722425
 30
0.0
 10
188.148348
 20
192.722425
 30
0.0
 10
188.148348
 20
191.743467
 30
0.0
 10
189.136125
 20
191.743467
 30
0.0
 10
189.136125
 20
190.932078
 30
0.0
 10
192.628625
 20
190.932078
 30
0.0
 10
192.628625
 20
191.743467
 30
0.0
 10
197.638070
 20
191.743467
 30
0.0
 10
197.638070
 20
190.932078
 30
0.0
 10
201.139375
 20
190.932078
 30
0.0
 10
201.139375
 20
191.743467
 30
0.0
 10
202.118348
 20
191.743467
 30
0.0
 10
202.118348
 20
192.722425
 30
0.0
 10
202.929737
 20
192.722425
 30
0.0
 10
202.929737
 20
196.223744
 30
0.0
 10
202.118348
 20
196.223744
 30
0.0
 10
202.118348
 20
201.233189
 30
0.0
 10
202.929737
 20
201.233189
 30
0.0
 10
202.929737
 20
204.725689
 30
0.0
 10
202.118348
 20
204.725689
 30
0.0
 10
202.118348
 20
205.713467
 30
0.0
 10
201.139375
 20
205.713467
 30
0.0
 10
201.139375
 20
206.524855
 30
0.0
 10
201.139375
 20
206.524855
 30
0.0
  0
LWPOLYLINE
  5
177
100
AcDbEntity
  8
Layer_1
 62
7
100
AcDbPolyline
 90
6
 70
0
 10
204.658348
 20
189.203467
 30
0.0
 10
204.658348
 20
170.153458
 30
0.0
 10
185.608348
 20
170.153458
 30
0.0
 10
185.608348
 20
189.203467
 30
0.0
 10
204.658348
 20
189.203467
 30
0.0
 10
204.658348
 20
189.203467
 30
0.0
  0
LWPOLYLINE
  5
178
100
AcDbEntity
  8
Layer_1
 62
7
100
AcDbPolyline
 90
38
 70
0
 10
201.139375
 20
187.474855
 30
0.0
 10
197.638070
 20
187.474855
 30
0.0
 10
197.638070
 20
186.663467
 30
0.0
 10
192.628625
 20
186.663467
 30
0.0
 10
192.628625
 20
187.474855
 30
0.0
 10
189.136125
 20
187.474855
 30
0.0
 10
189.136125
 20
186.663467
 30
0.0
 10
188.148348
 20
186.663467
 30
0.0
 10
188.148348
 20
185.675689
 30
0.0
 10
187.336959
 20
185.675689
 30
0.0
 10
187.336959
 20
182.183189
 30
0.0
 10
188.148348
 20
182.183189
 30
0.0
 10
188.148348
 20
177.173736
 30
0.0
 10
187.336959
 20
177.173736
 30
0.0
 10
187.336959
 20
173.672430
 30
0.0
 10
188.148348
 20
173.672430
 30
0.0
 10
188.148348
 20
172.693458
 30
0.0
 10
189.136125
 20
172.693458
 30
0.0
 10
189.136125
 20
171.882069
 30
0.0
 10
192.628625
 20
171.882069
 30
0.0
 10
192.628625
 20
172.693458
 30
0.0
 10
197.638070
 20
172.693458
 30
0.0
 10
197.638070
 20
171.882069
 30
0.0
 10
201.139375
 20
171.882069
 30
0.0
 10
201.139375
 20
172.693458
 30
0.0
 10
202.118348
 20
172.693458
 30
0.0
 10
202.118348
 20
173.672430
 30
0.0
 10
202.929737
 20
173.672430
 30
0.0
 10
202.929737
 20
177.173736
 30
0.0
 10
202.118348
 20
177.173736
 30
0.0
 10
202.118348
 20
182.183189
 30
0.0
 10
202.929737
 20
182.183189
 30
0.0
 10
202.929737
 20
185.675689
 30
0.0
 10
202.118348
 20
185.675689
 30
0.0
 10
202.118348
 20
186.663467
 30
0.0
 10
201.139375
 20
186.663467
 30
0.0
 10
201.139375
 20
187.474855
 30
0.0
 10
201.139375
 20
187.474855
 30
0.0
  0
LWPOLYLINE
  5
179
100
AcDbEntity
  8
Layer_1
 62
7
100
AcDbPolyline
 90
6
 70
0
 10
185.608348
 20
224.922219
 30
0.0
 10
185.608348
 20
205.872219
 30
0.0
 10
166.558348
 20
205.872219
 30
0.0
 10
166.558348
 20
224.922219
 30
0.0
 10
185.608348
 20
224.922219
 30
0.0
 10
185.608348
 20
224.922219
 30
0.0
  0
LWPOLYLINE
  5
17a
100
AcDbEntity
  8
Layer_1
 62
7
100
AcDbPolyline
 90
38
 70
0
 10
182.089375
 20
223.193608
 30
0.0
 10
178.588070
 20
223.193608
 30
0.0
 10
178.588070
 20
222.382219
 30
0.0
 10
173.578625
 20
222.382219
 30
0.0
 10
173.578625
 20
223.193608
 30
0.0
 10
170.086125
 20
223.193608
 30
0.0
 10
170.086125
 20
222.382219
 30
0.0
 10
169.098348
 20
222.382219
 30
0.0
 10
169.098348
 20
221.394442
 30
0.0
 10
168.286959
 20
221.394442
 30
0.0
 10
168.286959
 20
217.901942
 30
0.0
 10
169.098348
 20
217.901942
 30
0.0
 10
169.098348
 20
212.892497
 30
0.0
 10
168.286959
 20
212.892497
 30
0.0
 10
168.286959
 20
209.391178
 30
0.0
 10
169.098348
 20
209.391178
 30
0.0
 10
169.098348
 20
208.412219
 30
0.0
 10
170.086125
 20
208.412219
 30
0.0
 10
170.086125
 20
207.600830
 30
0.0
 10
173.578625
 20
207.600830
 30
0.0
 10
173.578625
 20
208.412219
 30
0.0
 10
178.588070
 20
208.412219
 30
0.0
 10
178.588070
 20
207.600830
 30
0.0
 10
182.089375
 20
207.600830
 30
0.0
 10
182.089375
 20
208.412219
 30
0.0
 10
183.068348
 20
208.412219
 30
0.0
 10
183.068348
 20
209.391178
 30
0.0
 10
183.879737
 20
209.391178
 30
0.0
 10
183.879737
 20
212.892497
 30
0.0
 10
183.068348
 20
212.892497
 30
0.0
 10
183.068348
 20
217.901942
 30
0.0
 10
183.879737
 20
217.901942
 30
0.0
 10
183.879737
 20
221.394442
 30
0.0
 10
183.068348
 20
221.394442
 30
0.0
 10
183.068348
 20
222.382219
 30
0.0
 10
182.089375
 20
222.382219
 30
0.0
 10
182.089375
 20
223.193608
 30
0.0
 10
182.089375
 20
223.193608
 30
0.0
  0
LWPOLYLINE
  5
17b
100
AcDbEntity
  8
Layer_1
 62
7
100
AcDbPolyline
 90
6
 70
0
 10
185.608348
 20
205.872219
 30
0.0
 10
185.608348
 20
186.822219
 30
0.0
 10
166.558348
 20
186.822219
 30
0.0
 10
166.558348
 20
205.872219
 30
0.0
 10
185.608348
 20
205.872219
 30
0.0
 10
185.608348
 20
205.872219
 30
0.0
  0
LWPOLYLINE
  5
17c
100
AcDbEntity
  8
Layer_1
 62
7
100
AcDbPolyline
 90
38
 70
0
 10
182.089375
 20
204.143608
 30
0.0
 10
178.588070
 20
204.143608
 30
0.0
 10
178.588070
 20
203.332219
 30
0.0
 10
173.578625
 20
203.332219
 30
0.0
 10
173.578625
 20
204.143608
 30
0.0
 10
170.086125
 20
204.143608
 30
0.0
 10
170.086125
 20
203.332219
 30
0.0
 10
169.098348
 20
203.332219
 30
0.0
 10
169.098348
 20
202.344442
 30
0.0
 10
168.286959
 20
202.344442
 30
0.0
 10
168.286959
 20
198.851942
 30
0.0
 10
169.098348
 20
198.851942
 30
0.0
 10
169.098348
 20
193.842497
 30
0.0
 10
168.286959
 20
193.842497
 30
0.0
 10
168.286959
 20
190.341178
 30
0.0
 10
169.098348
 20
190.341178
 30
0.0
 10
169.098348
 20
189.362219
 30
0.0
 10
170.086125
 20
189.362219
 30
0.0
 10
170.086125
 20
188.550830
 30
0.0
 10
173.578625
 20
188.550830
 30
0.0
 10
173.578625
 20
189.362219
 30
0.0
 10
178.588070
 20
189.362219
 30
0.0
 10
178.588070
 20
188.550830
 30
0.0
 10
182.089375
 20
188.550830
 30
0.0
 10
182.089375
 20
189.362219
 30
0.0
 10
183.068348
 20
189.362219
 30
0.0
 10
183.068348
 20
190.341178
 30
0.0
 10
183.879737
 20
190.341178
 30
0.0
 10
183.879737
 20
193.842497
 30
0.0
 10
183.068348
 20
193.842497
 30
0.0
 10
183.068348
 20
198.851942
 30
0.0
 10
183.879737
 20
198.851942
 30
0.0
 10
183.879737
 20
202.344442
 30
0.0
 10
183.068348
 20
202.344442
 30
0.0
 10
183.068348
 20
203.332219
 30
0.0
 10
182.089375
 20
203.332219
 30
0.0
 10
182.089375
 20
204.143608
 30
0.0
 10
182.089375
 20
204.143608
 30
0.0
  0
LWPOLYLINE
  5
17d
100
AcDbEntity
  8
Layer_1
 62
7
100
AcDbPolyline
 90
6
 70
0
 10
185.608348
 20
186.822219
 30
0.0
 10
185.608348
 20
167.772208
 30
0.0
 10
166.558348
 20
167.772208
 30
0.0
 10
166.558348
 20
186.822219
 30
0.0
 10
185.608348
 20
186.822219
 30
0.0
 10
185.608348
 20
186.822219
 30
0.0
  0
LWPOLYLINE
  5
17e
100
AcDbEntity
  8
Layer_1
 62
7
100
AcDbPolyline
 90
38
 70
0
 10
182.089375
 20
185.093608
 30
0.0
 10
178.588070
 20
185.093608
 30
0.0
 10
178.588070
 20
184.282219
 30
0.0
 10
173.578625
 20
184.282219
 30
0.0
 10
173.578625
 20
185.093608
 30
0.0
 10
170.086125
 20
185.093608
 30
0.0
 10
170.086125
 20
184.282219
 30
0.0
 10
169.098348
 20
184.282219
 30
0.0
 10
169.098348
 20
183.294442
 30
0.0
 10
168.286959
 20
183.294442
 30
0.0
 10
168.286959
 20
179.801930
 30
0.0
 10
169.098348
 20
179.801930
 30
0.0
 10
169.098348
 20
174.792486
 30
0.0
 10
168.286959
 20
174.792486
 30
0.0
 10
168.286959
 20
171.291180
 30
0.0
 10
169.098348
 20
171.291180
 30
0.0
 10
169.098348
 20
170.312208
 30
0.0
 10
170.086125
 20
170.312208
 30
0.0
 10
170.086125
 20
169.500819
 30
0.0
 10
173.578625
 20
169.500819
 30
0.0
 10
173.578625
 20
170.312208
 30
0.0
 10
178.588070
 20
170.312208
 30
0.0
 10
178.588070
 20
169.500819
 30
0.0
 10
182.089375
 20
169.500819
 30
0.0
 10
182.089375
 20
170.312208
 30
0.0
 10
183.068348
 20
170.312208
 30
0.0
 10
183.068348
 20
171.291180
 30
0.0
 10
183.879737
 20
171.291180
 30
0.0
 10
183.879737
 20
174.792486
 30
0.0
 10
183.068348
 20
174.792486
 30
0.0
 10
183.068348
 20
179.801930
 30
0.0
 10
183.879737
 20
179.801930
 30
0.0
 10
183.879737
 20
183.294442
 30
0.0
 10
183.068348
 20
183.294442
 30
0.0
 10
183.068348
 20
184.282219
 30
0.0
 10
182.089375
 20
184.282219
 30
0.0
 10
182.089375
 20
185.093608
 30
0.0
 10
182.089375
 20
185.093608
 30
0.0
  0
LWPOLYLINE
  5
17f
100
AcDbEntity
  8
Layer_1
 62
7
100
AcDbPolyline
 90
6
 70
0
 10
166.558348
 20
220.159719
 30
0.0
 10
166.558348
 20
201.109719
 30
0.0
 10
147.508348
 20
201.109719
 30
0.0
 10
147.508348
 20
220.159719
 30
0.0
 10
166.558348
 20
220.159719
 30
0.0
 10
166.558348
 20
220.159719
 30
0.0
  0
LWPOLYLINE
  5
180
100
AcDbEntity
  8
Layer_1
 62
7
100
AcDbPolyline
 90
38
 70
0
 10
163.039375
 20
218.431108
 30
0.0
 10
159.538070
 20
218.431108
 30
0.0
 10
159.538070
 20
217.619719
 30
0.0
 10
154.528625
 20
217.619719
 30
0.0
 10
154.528625
 20
218.431108
 30
0.0
 10
151.036125
 20
218.431108
 30
0.0
 10
151.036125
 20
217.619719
 30
0.0
 10
150.048348
 20
217.619719
 30
0.0
 10
150.048348
 20
216.631942
 30
0.0
 10
149.236959
 20
216.631942
 30
0.0
 10
149.236959
 20
213.139442
 30
0.0
 10
150.048348
 20
213.139442
 30
0.0
 10
150.048348
 20
208.129997
 30
0.0
 10
149.236959
 20
208.129997
 30
0.0
 10
149.236959
 20
204.628678
 30
0.0
 10
150.048348
 20
204.628678
 30
0.0
 10
150.048348
 20
203.649719
 30
0.0
 10
151.036125
 20
203.649719
 30
0.0
 10
151.036125
 20
202.838330
 30
0.0
 10
154.528625
 20
202.838330
 30
0.0
 10
154.528625
 20
203.649719
 30
0.0
 10
159.538070
 20
203.649719
 30
0.0
 10
159.538070
 20
202.838330
 30
0.0
 10
163.039375
 20
202.838330
 30
0.0
 10
163.039375
 20
203.649719
 30
0.0
 10
164.018348
 20
203.649719
 30
0.0
 10
164.018348
 20
204.628678
 30
0.0
 10
164.829737
 20
204.628678
 30
0.0
 10
164.829737
 20
208.129997
 30
0.0
 10
164.018348
 20
208.129997
 30
0.0
 10
164.018348
 20
213.139442
 30
0.0
 10
164.829737
 20
213.139442
 30
0.0
 10
164.829737
 20
216.631942
 30
0.0
 10
164.018348
 20
216.631942
 30
0.0
 10
164.018348
 20
217.619719
 30
0.0
 10
163.039375
 20
217.619719
 30
0.0
 10
163.039375
 20
218.431108
 30
0.0
 10
163.039375
 20
218.431108
 30
0.0
  0
LWPOLYLINE
  5
181
100
AcDbEntity
  8
Layer_1
 62
7
100
AcDbPolyline
 90
6
 70
0
 10
166.558348
 20
201.109719
 30
0.0
 10
166.558348
 20
182.059719
 30
0.0
 10
147.508348
 20
182.059719
 30
0.0
 10
147.508348
 20
201.109719
 30
0.0
 10
166.558348
 20
201.109719
 30
0.0
 10
166.558348
 20
201.109719
 30
0.0
  0
LWPOLYLINE
  5
182
100
AcDbEntity
  8
Layer_1
 62
7
100
AcDbPolyline
 90
38
 70
0
 10
163.039375
 20
199.381108
 30
0.0
 10
159.538070
 20
199.381108
 30
0.0
 10
159.538070
 20
198.569719
 30
0.0
 10
154.528625
 20
198.569719
 30
0.0
 10
154.528625
 20
199.381108
 30
0.0
 10
151.036125
 20
199.381108
 30
0.0
 10
151.036125
 20
198.569719
 30
0.0
 10
150.048348
 20
198.569719
 30
0.0
 10
150.048348
 20
197.581942
 30
0.0
 10
149.236959
 20
197.581942
 30
0.0
 10
149.236959
 20
194.089442
 30
0.0
 10
150.048348
 20
194.089442
 30
0.0
 10
150.048348
 20
189.079997
 30
0.0
 10
149.236959
 20
189.079997
 30
0.0
 10
149.236959
 20
185.578678
 30
0.0
 10
150.048348
 20
185.578678
 30
0.0
 10
150.048348
 20
184.599719
 30
0.0
 10
151.036125
 20
184.599719
 30
0.0
 10
151.036125
 20
183.788330
 30
0.0
 10
154.528625
 20
183.788330
 30
0.0
 10
154.528625
 20
184.599719
 30
0.0
 10
159.538070
 20
184.599719
 30
0.0
 10
159.538070
 20
183.788330
 30
0.0
 10
163.039375
 20
183.788330
 30
0.0
 10
163.039375
 20
184.599719
 30
0.0
 10
164.018348
 20
184.599719
 30
0.0
 10
164.018348
 20
185.578678
 30
0.0
 10
164.829737
 20
185.578678
 30
0.0
 10
164.829737
 20
189.079997
 30
0.0
 10
164.018348
 20
189.079997
 30
0.0
 10
164.018348
 20
194.089442
 30
0.0
 10
164.829737
 20
194.089442
 30
0.0
 10
164.829737
 20
197.581942
 30
0.0
 10
164.018348
 20
197.581942
 30
0.0
 10
164.018348
 20
198.569719
 30
0.0
 10
163.039375
 20
198.569719
 30
0.0
 10
163.039375
 20
199.381108
 30
0.0
 10
163.039375
 20
199.381108
 30
0.0
  0
LWPOLYLINE
  5
183
100
AcDbEntity
  8
Layer_1
 62
7
100
AcDbPolyline
 90
6
 70
0
 10
166.558348
 20
182.059719
 30
0.0
 10
166.558348
 20
163.009708
 30
0.0
 10
147.508348
 20
163.009708
 30
0.0
 10
147.508348
 20
182.059719
 30
0.0
 10
166.558348
 20
182.059719
 30
0.0
 10
166.558348
 20
182.059719
 30
0.0
  0
LWPOLYLINE
  5
184
100
AcDbEntity
  8
Layer_1
 62
7
100
AcDbPolyline
 90
38
 70
0
 10
163.039375
 20
180.331097
 30
0.0
 10
159.538070
 20
180.331097
 30
0.0
 10
159.538070
 20
179.519708
 30
0.0
 10
154.528625
 20
179.519708
 30
0.0
 10
154.528625
 20
180.331097
 30
0.0
 10
151.036125
 20
180.331097
 30
0.0
 10
151.036125
 20
179.519708
 30
0.0
 10
150.048348
 20
179.519708
 30
0.0
 10
150.048348
 20
178.531930
 30
0.0
 10
149.236959
 20
178.531930
 30
0.0
 10
149.236959
 20
175.039430
 30
0.0
 10
150.048348
 20
175.039430
 30
0.0
 10
150.048348
 20
170.029986
 30
0.0
 10
149.236959
 20
170.029986
 30
0.0
 10
149.236959
 20
166.528680
 30
0.0
 10
150.048348
 20
166.528680
 30
0.0
 10
150.048348
 20
165.549708
 30
0.0
 10
151.036125
 20
165.549708
 30
0.0
 10
151.036125
 20
164.738319
 30
0.0
 10
154.528625
 20
164.738319
 30
0.0
 10
154.528625
 20
165.549708
 30
0.0
 10
159.538070
 20
165.549708
 30
0.0
 10
159.538070
 20
164.738319
 30
0.0
 10
163.039375
 20
164.738319
 30
0.0
 10
163.039375
 20
165.549708
 30
0.0
 10
164.018348
 20
165.549708
 30
0.0
 10
164.018348
 20
166.528680
 30
0.0
 10
164.829737
 20
166.528680
 30
0.0
 10
164.829737
 20
170.029986
 30
0.0
 10
164.018348
 20
170.029986
 30
0.0
 10
164.018348
 20
175.039430
 30
0.0
 10
164.829737
 20
175.039430
 30
0.0
 10
164.829737
 20
178.531930
 30
0.0
 10
164.018348
 20
178.531930
 30
0.0
 10
164.018348
 20
179.519708
 30
0.0
 10
163.039375
 20
179.519708
 30
0.0
 10
163.039375
 20
180.331097
 30
0.0
 10
163.039375
 20
180.331097
 30
0.0
  0
LWPOLYLINE
  5
185
100
AcDbEntity
  8
Layer_1
 62
7
100
AcDbPolyline
 90
6
 70
0
 10
147.508348
 20
220.159719
 30
0.0
 10
147.508348
 20
201.109719
 30
0.0
 10
128.458348
 20
201.109719
 30
0.0
 10
128.458348
 20
220.159719
 30
0.0
 10
147.508348
 20
220.159719
 30
0.0
 10
147.508348
 20
220.159719
 30
0.0
  0
LWPOLYLINE
  5
186
100
AcDbEntity
  8
Layer_1
 62
7
100
AcDbPolyline
 90
38
 70
0
 10
143.989375
 20
218.431108
 30
0.0
 10
140.488070
 20
218.431108
 30
0.0
 10
140.488070
 20
217.619719
 30
0.0
 10
135.478625
 20
217.619719
 30
0.0
 10
135.478625
 20
218.431108
 30
0.0
 10
131.986125
 20
218.431108
 30
0.0
 10
131.986125
 20
217.619719
 30
0.0
 10
130.998348
 20
217.619719
 30
0.0
 10
130.998348
 20
216.631942
 30
0.0
 10
130.186959
 20
216.631942
 30
0.0
 10
130.186959
 20
213.139442
 30
0.0
 10
130.998348
 20
213.139442
 30
0.0
 10
130.998348
 20
208.129997
 30
0.0
 10
130.186959
 20
208.129997
 30
0.0
 10
130.186959
 20
204.628678
 30
0.0
 10
130.998348
 20
204.628678
 30
0.0
 10
130.998348
 20
203.649719
 30
0.0
 10
131.986125
 20
203.649719
 30
0.0
 10
131.986125
 20
202.838330
 30
0.0
 10
135.478625
 20
202.838330
 30
0.0
 10
135.478625
 20
203.649719
 30
0.0
 10
140.488070
 20
203.649719
 30
0.0
 10
140.488070
 20
202.838330
 30
0.0
 10
143.989375
 20
202.838330
 30
0.0
 10
143.989375
 20
203.649719
 30
0.0
 10
144.968348
 20
203.649719
 30
0.0
 10
144.968348
 20
204.628678
 30
0.0
 10
145.779737
 20
204.628678
 30
0.0
 10
145.779737
 20
208.129997
 30
0.0
 10
144.968348
 20
208.129997
 30
0.0
 10
144.968348
 20
213.139442
 30
0.0
 10
145.779737
 20
213.139442
 30
0.0
 10
145.779737
 20
216.631942
 30
0.0
 10
144.968348
 20
216.631942
 30
0.0
 10
144.968348
 20
217.619719
 30
0.0
 10
143.989375
 20
217.619719
 30
0.0
 10
143.989375
 20
218.431108
 30
0.0
 10
143.989375
 20
218.431108
 30
0.0
  0
LWPOLYLINE
  5
187
100
AcDbEntity
  8
Layer_1
 62
7
100
AcDbPolyline
 90
6
 70
0
 10
147.508348
 20
201.109719
 30
0.0
 10
147.508348
 20
182.059719
 30
0.0
 10
128.458348
 20
182.059719
 30
0.0
 10
128.458348
 20
201.109719
 30
0.0
 10
147.508348
 20
201.109719
 30
0.0
 10
147.508348
 20
201.109719
 30
0.0
  0
LWPOLYLINE
  5
188
100
AcDbEntity
  8
Layer_1
 62
7
100
AcDbPolyline
 90
38
 70
0
 10
143.989375
 20
199.381108
 30
0.0
 10
140.488070
 20
199.381108
 30
0.0
 10
140.488070
 20
198.569719
 30
0.0
 10
135.478625
 20
198.569719
 30
0.0
 10
135.478625
 20
199.381108
 30
0.0
 10
131.986125
 20
199.381108
 30
0.0
 10
131.986125
 20
198.569719
 30
0.0
 10
130.998348
 20
198.569719
 30
0.0
 10
130.998348
 20
197.581942
 30
0.0
 10
130.186959
 20
197.581942
 30
0.0
 10
130.186959
 20
194.089442
 30
0.0
 10
130.998348
 20
194.089442
 30
0.0
 10
130.998348
 20
189.079997
 30
0.0
 10
130.186959
 20
189.079997
 30
0.0
 10
130.186959
 20
185.578678
 30
0.0
 10
130.998348
 20
185.578678
 30
0.0
 10
130.998348
 20
184.599719
 30
0.0
 10
131.986125
 20
184.599719
 30
0.0
 10
131.986125
 20
183.788330
 30
0.0
 10
135.478625
 20
183.788330
 30
0.0
 10
135.478625
 20
184.599719
 30
0.0
 10
140.488070
 20
184.599719
 30
0.0
 10
140.488070
 20
183.788330
 30
0.0
 10
143.989375
 20
183.788330
 30
0.0
 10
143.989375
 20
184.599719
 30
0.0
 10
144.968348
 20
184.599719
 30
0.0
 10
144.968348
 20
185.578678
 30
0.0
 10
145.779737
 20
185.578678
 30
0.0
 10
145.779737
 20
189.079997
 30
0.0
 10
144.968348
 20
189.079997
 30
0.0
 10
144.968348
 20
194.089442
 30
0.0
 10
145.779737
 20
194.089442
 30
0.0
 10
145.779737
 20
197.581942
 30
0.0
 10
144.968348
 20
197.581942
 30
0.0
 10
144.968348
 20
198.569719
 30
0.0
 10
143.989375
 20
198.569719
 30
0.0
 10
143.989375
 20
199.381108
 30
0.0
 10
143.989375
 20
199.381108
 30
0.0
  0
LWPOLYLINE
  5
189
100
AcDbEntity
  8
Layer_1
 62
7
100
AcDbPolyline
 90
6
 70
0
 10
147.508348
 20
182.059719
 30
0.0
 10
147.508348
 20
163.009708
 30
0.0
 10
128.458348
 20
163.009708
 30
0.0
 10
128.458348
 20
182.059719
 30
0.0
 10
147.508348
 20
182.059719
 30
0.0
 10
147.508348
 20
182.059719
 30
0.0
  0
LWPOLYLINE
  5
18a
100
AcDbEntity
  8
Layer_1
 62
7
100
AcDbPolyline
 90
38
 70
0
 10
143.989375
 20
180.331097
 30
0.0
 10
140.488070
 20
180.331097
 30
0.0
 10
140.488070
 20
179.519708
 30
0.0
 10
135.478625
 20
179.519708
 30
0.0
 10
135.478625
 20
180.331097
 30
0.0
 10
131.986125
 20
180.331097
 30
0.0
 10
131.986125
 20
179.519708
 30
0.0
 10
130.998348
 20
179.519708
 30
0.0
 10
130.998348
 20
178.531930
 30
0.0
 10
130.186959
 20
178.531930
 30
0.0
 10
130.186959
 20
175.039430
 30
0.0
 10
130.998348
 20
175.039430
 30
0.0
 10
130.998348
 20
170.029986
 30
0.0
 10
130.186959
 20
170.029986
 30
0.0
 10
130.186959
 20
166.528680
 30
0.0
 10
130.998348
 20
166.528680
 30
0.0
 10
130.998348
 20
165.549708
 30
0.0
 10
131.986125
 20
165.549708
 30
0.0
 10
131.986125
 20
164.738319
 30
0.0
 10
135.478625
 20
164.738319
 30
0.0
 10
135.478625
 20
165.549708
 30
0.0
 10
140.488070
 20
165.549708
 30
0.0
 10
140.488070
 20
164.738319
 30
0.0
 10
143.989375
 20
164.738319
 30
0.0
 10
143.989375
 20
165.549708
 30
0.0
 10
144.968348
 20
165.549708
 30
0.0
 10
144.968348
 20
166.528680
 30
0.0
 10
145.779737
 20
166.528680
 30
0.0
 10
145.779737
 20
170.029986
 30
0.0
 10
144.968348
 20
170.029986
 30
0.0
 10
144.968348
 20
175.039430
 30
0.0
 10
145.779737
 20
175.039430
 30
0.0
 10
145.779737
 20
178.531930
 30
0.0
 10
144.968348
 20
178.531930
 30
0.0
 10
144.968348
 20
179.519708
 30
0.0
 10
143.989375
 20
179.519708
 30
0.0
 10
143.989375
 20
180.331097
 30
0.0
 10
143.989375
 20
180.331097
 30
0.0
  0
LWPOLYLINE
  5
18b
100
AcDbEntity
  8
Layer_1
 62
7
100
AcDbPolyline
 90
6
 70
0
 10
128.458348
 20
220.159719
 30
0.0
 10
128.458348
 20
201.109719
 30
0.0
 10
109.408342
 20
201.109719
 30
0.0
 10
109.408342
 20
220.159719
 30
0.0
 10
128.458348
 20
220.159719
 30
0.0
 10
128.458348
 20
220.159719
 30
0.0
  0
LWPOLYLINE
  5
18c
100
AcDbEntity
  8
Layer_1
 62
7
100
AcDbPolyline
 90
38
 70
0
 10
124.939375
 20
218.431108
 30
0.0
 10
121.438070
 20
218.431108
 30
0.0
 10
121.438070
 20
217.619719
 30
0.0
 10
116.428625
 20
217.619719
 30
0.0
 10
116.428625
 20
218.431108
 30
0.0
 10
112.936120
 20
218.431108
 30
0.0
 10
112.936120
 20
217.619719
 30
0.0
 10
111.948342
 20
217.619719
 30
0.0
 10
111.948342
 20
216.631942
 30
0.0
 10
111.136953
 20
216.631942
 30
0.0
 10
111.136953
 20
213.139442
 30
0.0
 10
111.948342
 20
213.139442
 30
0.0
 10
111.948342
 20
208.129997
 30
0.0
 10
111.136953
 20
208.129997
 30
0.0
 10
111.136953
 20
204.628678
 30
0.0
 10
111.948342
 20
204.628678
 30
0.0
 10
111.948342
 20
203.649719
 30
0.0
 10
112.936120
 20
203.649719
 30
0.0
 10
112.936120
 20
202.838330
 30
0.0
 10
116.428625
 20
202.838330
 30
0.0
 10
116.428625
 20
203.649719
 30
0.0
 10
121.438070
 20
203.649719
 30
0.0
 10
121.438070
 20
202.838330
 30
0.0
 10
124.939375
 20
202.838330
 30
0.0
 10
124.939375
 20
203.649719
 30
0.0
 10
125.918348
 20
203.649719
 30
0.0
 10
125.918348
 20
204.628678
 30
0.0
 10
126.729737
 20
204.628678
 30
0.0
 10
126.729737
 20
208.129997
 30
0.0
 10
125.918348
 20
208.129997
 30
0.0
 10
125.918348
 20
213.139442
 30
0.0
 10
126.729737
 20
213.139442
 30
0.0
 10
126.729737
 20
216.631942
 30
0.0
 10
125.918348
 20
216.631942
 30
0.0
 10
125.918348
 20
217.619719
 30
0.0
 10
124.939375
 20
217.619719
 30
0.0
 10
124.939375
 20
218.431108
 30
0.0
 10
124.939375
 20
218.431108
 30
0.0
  0
LWPOLYLINE
  5
18d
100
AcDbEntity
  8
Layer_1
 62
7
100
AcDbPolyline
 90
8
 70
0
 10
242.758348
 20
220.159722
 30
0.0
 10
261.808348
 20
220.159722
 30
0.0
 10
261.808348
 20
201.109722
 30
0.0
 10
261.808348
 20
191.584725
 30
0.0
 10
242.758348
 20
191.584725
 30
0.0
 10
242.758348
 20
201.109725
 30
0.0
 10
242.758348
 20
220.159725
 30
0.0
 10
242.758348
 20
220.159722
 30
0.0
  0
LWPOLYLINE
  5
18e
100
AcDbEntity
  8
Layer_1
 62
7
100
AcDbPolyline
 90
38
 70
0
 10
244.486959
 20
211.878264
 30
0.0
 10
244.486959
 20
208.376944
 30
0.0
 10
245.298348
 20
208.376944
 30
0.0
 10
245.298348
 20
203.367500
 30
0.0
 10
244.486959
 20
203.367500
 30
0.0
 10
244.486959
 20
199.875000
 30
0.0
 10
245.298348
 20
199.875000
 30
0.0
 10
245.298348
 20
198.887222
 30
0.0
 10
246.286125
 20
198.887222
 30
0.0
 10
246.286125
 20
198.075833
 30
0.0
 10
249.778625
 20
198.075833
 30
0.0
 10
249.778625
 20
198.887222
 30
0.0
 10
254.788070
 20
198.887222
 30
0.0
 10
254.788070
 20
198.075833
 30
0.0
 10
258.289375
 20
198.075833
 30
0.0
 10
258.289375
 20
198.887222
 30
0.0
 10
259.268348
 20
198.887222
 30
0.0
 10
259.268348
 20
199.875000
 30
0.0
 10
260.079737
 20
199.875000
 30
0.0
 10
260.079737
 20
203.367500
 30
0.0
 10
259.268348
 20
203.367500
 30
0.0
 10
259.268348
 20
208.376944
 30
0.0
 10
260.079737
 20
208.376944
 30
0.0
 10
260.079737
 20
211.878264
 30
0.0
 10
259.268348
 20
211.878264
 30
0.0
 10
259.268348
 20
212.857222
 30
0.0
 10
258.289375
 20
212.857222
 30
0.0
 10
258.289375
 20
213.668611
 30
0.0
 10
254.788070
 20
213.668611
 30
0.0
 10
254.788070
 20
212.857222
 30
0.0
 10
249.778625
 20
212.857222
 30
0.0
 10
249.778625
 20
213.668611
 30
0.0
 10
246.286125
 20
213.668611
 30
0.0
 10
246.286125
 20
212.857222
 30
0.0
 10
245.298348
 20
212.857222
 30
0.0
 10
245.298348
 20
211.878264
 30
0.0
 10
244.486959
 20
211.878264
 30
0.0
 10
244.486959
 20
211.878264
 30
0.0
  0
LWPOLYLINE
  5
18f
100
AcDbEntity
  8
Layer_1
 62
7
100
AcDbPolyline
 90
5
 70
0
 10
109.408283
 20
221.888497
 30
0.0
 10
166.558300
 20
221.888497
 30
0.0
 10
166.558300
 20
220.159735
 30
0.0
 10
109.408283
 20
220.159735
 30
0.0
 10
109.408283
 20
221.888497
 30
0.0
  0
LWPOLYLINE
  5
190
100
AcDbEntity
  8
Layer_1
 62
7
100
AcDbPolyline
 90
5
 70
0
 10
261.808274
 20
161.280928
 30
0.0
 10
261.808274
 20
221.888491
 30
0.0
 10
263.537037
 20
221.888491
 30
0.0
 10
263.537037
 20
161.280928
 30
0.0
 10
261.808274
 20
161.280928
 30
0.0
  0
LWPOLYLINE
  5
191
100
AcDbEntity
  8
Layer_1
 62
7
100
AcDbPolyline
 90
5
 70
0
 10
107.679536
 20
142.230956
 30
0.0
 10
107.679536
 20
221.888488
 30
0.0
 10
109.408299
 20
221.888488
 30
0.0
 10
109.408299
 20
142.230956
 30
0.0
 10
107.679536
 20
142.230956
 30
0.0
  0
LWPOLYLINE
  5
192
100
AcDbEntity
  8
Layer_1
 62
7
100
AcDbPolyline
 90
6
 70
0
 10
204.658348
 20
170.153458
 30
0.0
 10
204.658348
 20
165.390958
 30
0.0
 10
185.608348
 20
165.390958
 30
0.0
 10
185.608348
 20
170.153458
 30
0.0
 10
204.658348
 20
170.153458
 30
0.0
 10
204.658348
 20
170.153458
 30
0.0
  0
LWPOLYLINE
  5
193
100
AcDbEntity
  8
Layer_1
 62
7
100
AcDbPolyline
 90
6
 70
0
 10
185.608348
 20
167.772208
 30
0.0
 10
185.608348
 20
165.390958
 30
0.0
 10
166.558348
 20
165.390958
 30
0.0
 10
166.558348
 20
167.772208
 30
0.0
 10
185.608348
 20
167.772208
 30
0.0
 10
185.608348
 20
167.772208
 30
0.0
  0
LWPOLYLINE
  5
194
100
AcDbEntity
  8
Layer_1
 62
7
100
AcDbPolyline
 90
8
 70
0
 10
109.408342
 20
172.534708
 30
0.0
 10
128.458348
 20
172.534708
 30
0.0
 10
128.458348
 20
153.484708
 30
0.0
 10
128.458348
 20
143.959708
 30
0.0
 10
109.408342
 20
143.959708
 30
0.0
 10
109.408342
 20
153.484708
 30
0.0
 10
109.408342
 20
172.534708
 30
0.0
 10
109.408342
 20
172.534708
 30
0.0
  0
LWPOLYLINE
  5
195
100
AcDbEntity
  8
Layer_1
 62
7
100
AcDbPolyline
 90
38
 70
0
 10
111.136953
 20
164.253264
 30
0.0
 10
111.136953
 20
160.751930
 30
0.0
 10
111.948342
 20
160.751930
 30
0.0
 10
111.948342
 20
155.742486
 30
0.0
 10
111.136953
 20
155.742486
 30
0.0
 10
111.136953
 20
152.249986
 30
0.0
 10
111.948342
 20
152.249986
 30
0.0
 10
111.948342
 20
151.262208
 30
0.0
 10
112.936120
 20
151.262208
 30
0.0
 10
112.936120
 20
150.450819
 30
0.0
 10
116.428625
 20
150.450819
 30
0.0
 10
116.428625
 20
151.262208
 30
0.0
 10
121.438070
 20
151.262208
 30
0.0
 10
121.438070
 20
150.450819
 30
0.0
 10
124.939375
 20
150.450819
 30
0.0
 10
124.939375
 20
151.262208
 30
0.0
 10
125.918348
 20
151.262208
 30
0.0
 10
125.918348
 20
152.249986
 30
0.0
 10
126.729737
 20
152.249986
 30
0.0
 10
126.729737
 20
155.742486
 30
0.0
 10
125.918348
 20
155.742486
 30
0.0
 10
125.918348
 20
160.751930
 30
0.0
 10
126.729737
 20
160.751930
 30
0.0
 10
126.729737
 20
164.253264
 30
0.0
 10
125.918348
 20
164.253264
 30
0.0
 10
125.918348
 20
165.232208
 30
0.0
 10
124.939375
 20
165.232208
 30
0.0
 10
124.939375
 20
166.043597
 30
0.0
 10
121.438070
 20
166.043597
 30
0.0
 10
121.438070
 20
165.232208
 30
0.0
 10
116.428625
 20
165.232208
 30
0.0
 10
116.428625
 20
166.043597
 30
0.0
 10
112.936120
 20
166.043597
 30
0.0
 10
112.936120
 20
165.232208
 30
0.0
 10
111.948342
 20
165.232208
 30
0.0
 10
111.948342
 20
164.253264
 30
0.0
 10
111.136953
 20
164.253264
 30
0.0
 10
111.136953
 20
164.253264
 30
0.0
  0
LWPOLYLINE
  5
196
100
AcDbEntity
  8
Layer_1
 62
7
100
AcDbPolyline
 90
8
 70
0
 10
109.408342
 20
201.109719
 30
0.0
 10
128.458348
 20
201.109719
 30
0.0
 10
128.458348
 20
182.059719
 30
0.0
 10
128.458348
 20
172.534708
 30
0.0
 10
109.408342
 20
172.534708
 30
0.0
 10
109.408342
 20
182.059719
 30
0.0
 10
109.408342
 20
201.109719
 30
0.0
 10
109.408342
 20
201.109719
 30
0.0
  0
LWPOLYLINE
  5
197
100
AcDbEntity
  8
Layer_1
 62
7
100
AcDbPolyline
 90
38
 70
0
 10
111.136953
 20
192.828261
 30
0.0
 10
111.136953
 20
189.326942
 30
0.0
 10
111.948342
 20
189.326942
 30
0.0
 10
111.948342
 20
184.317497
 30
0.0
 10
111.136953
 20
184.317497
 30
0.0
 10
111.136953
 20
180.824986
 30
0.0
 10
111.948342
 20
180.824986
 30
0.0
 10
111.948342
 20
179.837208
 30
0.0
 10
112.936120
 20
179.837208
 30
0.0
 10
112.936120
 20
179.025819
 30
0.0
 10
116.428625
 20
179.025819
 30
0.0
 10
116.428625
 20
179.837208
 30
0.0
 10
121.438070
 20
179.837208
 30
0.0
 10
121.438070
 20
179.025819
 30
0.0
 10
124.939375
 20
179.025819
 30
0.0
 10
124.939375
 20
179.837208
 30
0.0
 10
125.918348
 20
179.837208
 30
0.0
 10
125.918348
 20
180.824986
 30
0.0
 10
126.729737
 20
180.824986
 30
0.0
 10
126.729737
 20
184.317497
 30
0.0
 10
125.918348
 20
184.317497
 30
0.0
 10
125.918348
 20
189.326942
 30
0.0
 10
126.729737
 20
189.326942
 30
0.0
 10
126.729737
 20
192.828261
 30
0.0
 10
125.918348
 20
192.828261
 30
0.0
 10
125.918348
 20
193.807219
 30
0.0
 10
124.939375
 20
193.807219
 30
0.0
 10
124.939375
 20
194.618608
 30
0.0
 10
121.438070
 20
194.618608
 30
0.0
 10
121.438070
 20
193.807219
 30
0.0
 10
116.428625
 20
193.807219
 30
0.0
 10
116.428625
 20
194.618608
 30
0.0
 10
112.936120
 20
194.618608
 30
0.0
 10
112.936120
 20
193.807219
 30
0.0
 10
111.948342
 20
193.807219
 30
0.0
 10
111.948342
 20
192.828261
 30
0.0
 10
111.136953
 20
192.828261
 30
0.0
 10
111.136953
 20
192.828261
 30
0.0
  0
LWPOLYLINE
  5
198
100
AcDbEntity
  8
Layer_1
 62
7
100
AcDbPolyline
 90
5
 70
0
 10
109.408283
 20
143.959739
 30
0.0
 10
166.558379
 20
143.959739
 30
0.0
 10
166.558379
 20
142.230977
 30
0.0
 10
109.408283
 20
142.230977
 30
0.0
 10
109.408283
 20
143.959739
 30
0.0
  0
LWPOLYLINE
  5
199
100
AcDbEntity
  8
Layer_1
 62
7
100
AcDbPolyline
 90
5
 70
0
 10
195.133345
 20
137.468419
 30
0.0
 10
195.133345
 20
142.230910
 30
0.0
 10
196.862107
 20
142.230910
 30
0.0
 10
196.862107
 20
137.468419
 30
0.0
 10
195.133345
 20
137.468419
 30
0.0
  0
LWPOLYLINE
  5
19a
100
AcDbEntity
  8
Layer_1
 62
7
100
AcDbPolyline
 90
5
 70
0
 10
223.708274
 20
221.888497
 30
0.0
 10
223.708274
 20
224.269747
 30
0.0
 10
225.437037
 20
224.269747
 30
0.0
 10
225.437037
 20
221.888497
 30
0.0
 10
223.708274
 20
221.888497
 30
0.0
  0
LWPOLYLINE
  5
19b
100
AcDbEntity
  8
Layer_1
 62
7
100
AcDbPolyline
 90
5
 70
0
 10
204.658274
 20
224.269755
 30
0.0
 10
204.658274
 20
229.032259
 30
0.0
 10
206.387037
 20
229.032259
 30
0.0
 10
206.387037
 20
224.269755
 30
0.0
 10
204.658274
 20
224.269755
 30
0.0
  0
LWPOLYLINE
  5
19c
100
AcDbEntity
  8
Layer_1
 62
7
100
AcDbPolyline
 90
5
 70
0
 10
183.879528
 20
226.651008
 30
0.0
 10
183.879528
 20
229.032257
 30
0.0
 10
185.608290
 20
229.032257
 30
0.0
 10
185.608290
 20
226.651008
 30
0.0
 10
183.879528
 20
226.651008
 30
0.0
  0
LWPOLYLINE
  5
19d
100
AcDbEntity
  8
Layer_1
 62
7
100
AcDbPolyline
 90
5
 70
0
 10
164.829528
 20
221.888497
 30
0.0
 10
164.829528
 20
226.650997
 30
0.0
 10
166.558290
 20
226.650997
 30
0.0
 10
166.558290
 20
221.888497
 30
0.0
 10
164.829528
 20
221.888497
 30
0.0
  0
LWPOLYLINE
  5
19e
100
AcDbEntity
  8
Layer_1
 62
7
100
AcDbPolyline
 90
5
 70
0
 10
223.708274
 20
221.888497
 30
0.0
 10
261.808257
 20
221.888497
 30
0.0
 10
261.808257
 20
220.159735
 30
0.0
 10
223.708274
 20
220.159735
 30
0.0
 10
223.708274
 20
221.888497
 30
0.0
  0
LWPOLYLINE
  5
19f
100
AcDbEntity
  8
Layer_1
 62
7
100
AcDbPolyline
 90
5
 70
0
 10
204.658274
 20
224.269755
 30
0.0
 10
223.708285
 20
224.269755
 30
0.0
 10
223.708285
 20
222.540993
 30
0.0
 10
204.658274
 20
222.540993
 30
0.0
 10
204.658274
 20
224.269755
 30
0.0
  0
LWPOLYLINE
  5
1a0
100
AcDbEntity
  8
Layer_1
 62
7
100
AcDbPolyline
 90
5
 70
0
 10
185.608274
 20
229.032258
 30
0.0
 10
204.658272
 20
229.032258
 30
0.0
 10
204.658272
 20
227.303496
 30
0.0
 10
185.608274
 20
227.303496
 30
0.0
 10
185.608274
 20
229.032258
 30
0.0
  0
LWPOLYLINE
  5
1a1
100
AcDbEntity
  8
Layer_1
 62
7
100
AcDbPolyline
 90
5
 70
0
 10
166.558274
 20
226.651008
 30
0.0
 10
185.608259
 20
226.651008
 30
0.0
 10
185.608259
 20
224.922246
 30
0.0
 10
166.558274
 20
224.922246
 30
0.0
 10
166.558274
 20
226.651008
 30
0.0
  0
LWPOLYLINE
  5
1a2
100
AcDbEntity
  8
Layer_1
 62
7
100
AcDbPolyline
 90
6
 70
0
 10
223.708348
 20
165.390958
 30
0.0
 10
223.708348
 20
163.009708
 30
0.0
 10
166.558348
 20
163.009708
 30
0.0
 10
166.558348
 20
165.390958
 30
0.0
 10
223.708348
 20
165.390958
 30
0.0
 10
223.708348
 20
165.390958
 30
0.0
  0
LWPOLYLINE
  5
1a3
100
AcDbEntity
  8
Layer_1
 62
7
100
AcDbPolyline
 90
10
 70
0
 10
128.458348
 20
163.009708
 30
0.0
 10
147.508348
 20
163.009708
 30
0.0
 10
166.558348
 20
163.009708
 30
0.0
 10
166.558348
 20
161.316375
 30
0.0
 10
166.558348
 20
145.653041
 30
0.0
 10
166.558348
 20
143.959708
 30
0.0
 10
147.508348
 20
143.959708
 30
0.0
 10
128.458348
 20
143.959708
 30
0.0
 10
128.458348
 20
163.009708
 30
0.0
 10
128.458348
 20
163.009708
 30
0.0
  0
LWPOLYLINE
  5
1a4
100
AcDbEntity
  8
Layer_1
 62
7
100
AcDbPolyline
 90
6
 70
0
 10
133.917570
 20
159.675958
 30
0.0
 10
133.952847
 20
145.705958
 30
0.0
 10
137.251320
 20
145.714707
 30
0.0
 10
137.224791
 20
159.684707
 30
0.0
 10
133.917485
 20
159.675958
 30
0.0
 10
133.917570
 20
159.675958
 30
0.0
  0
LWPOLYLINE
  5
1a5
100
AcDbEntity
  8
Layer_1
 62
7
100
AcDbPolyline
 90
38
 70
0
 10
139.711959
 20
159.490764
 30
0.0
 10
139.711959
 20
155.989430
 30
0.0
 10
140.523348
 20
155.989430
 30
0.0
 10
140.523348
 20
150.979986
 30
0.0
 10
139.711959
 20
150.979986
 30
0.0
 10
139.711959
 20
147.487486
 30
0.0
 10
140.523348
 20
147.487486
 30
0.0
 10
140.523348
 20
146.499708
 30
0.0
 10
141.511125
 20
146.499708
 30
0.0
 10
141.511125
 20
145.688319
 30
0.0
 10
145.003625
 20
145.688319
 30
0.0
 10
145.003625
 20
146.499708
 30
0.0
 10
150.013070
 20
146.499708
 30
0.0
 10
150.013070
 20
145.688319
 30
0.0
 10
153.514375
 20
145.688319
 30
0.0
 10
153.514375
 20
146.499708
 30
0.0
 10
154.493348
 20
146.499708
 30
0.0
 10
154.493348
 20
147.487486
 30
0.0
 10
155.304737
 20
147.487486
 30
0.0
 10
155.304737
 20
150.979986
 30
0.0
 10
154.493348
 20
150.979986
 30
0.0
 10
154.493348
 20
155.989430
 30
0.0
 10
155.304737
 20
155.989430
 30
0.0
 10
155.304737
 20
159.490764
 30
0.0
 10
154.493348
 20
159.490764
 30
0.0
 10
154.493348
 20
160.469708
 30
0.0
 10
153.514375
 20
160.469708
 30
0.0
 10
153.514375
 20
161.281097
 30
0.0
 10
150.013070
 20
161.281097
 30
0.0
 10
150.013070
 20
160.469708
 30
0.0
 10
145.003625
 20
160.469708
 30
0.0
 10
145.003625
 20
161.281097
 30
0.0
 10
141.511125
 20
161.281097
 30
0.0
 10
141.511125
 20
160.469708
 30
0.0
 10
140.523348
 20
160.469708
 30
0.0
 10
140.523348
 20
159.490764
 30
0.0
 10
139.711959
 20
159.490764
 30
0.0
 10
139.711959
 20
159.490764
 30
0.0
  0
LWPOLYLINE
  5
1a6
100
AcDbEntity
  8
Layer_1
 62
7
100
AcDbPolyline
 90
6
 70
0
 10
157.800625
 20
159.728875
 30
0.0
 10
157.827154
 20
145.758875
 30
0.0
 10
161.125626
 20
145.767624
 30
0.0
 10
161.099097
 20
159.737624
 30
0.0
 10
157.800625
 20
159.728875
 30
0.0
 10
157.800625
 20
159.728875
 30
0.0
  0
LWPOLYLINE
  5
1a7
100
AcDbEntity
  8
Layer_1
 62
7
100
AcDbPolyline
 90
8
 70
0
 10
195.133348
 20
158.247208
 30
0.0
 10
195.133348
 20
139.197208
 30
0.0
 10
176.083348
 20
139.197208
 30
0.0
 10
166.558348
 20
139.197208
 30
0.0
 10
166.558348
 20
158.247208
 30
0.0
 10
176.083348
 20
158.247208
 30
0.0
 10
195.133348
 20
158.247208
 30
0.0
 10
195.133348
 20
158.247208
 30
0.0
  0
LWPOLYLINE
  5
1a8
100
AcDbEntity
  8
Layer_1
 62
7
100
AcDbPolyline
 90
38
 70
0
 10
186.851875
 20
156.518597
 30
0.0
 10
183.350570
 20
156.518597
 30
0.0
 10
183.350570
 20
155.707208
 30
0.0
 10
178.341125
 20
155.707208
 30
0.0
 10
178.341125
 20
156.518597
 30
0.0
 10
174.848625
 20
156.518597
 30
0.0
 10
174.848625
 20
155.707208
 30
0.0
 10
173.860848
 20
155.707208
 30
0.0
 10
173.860848
 20
154.719430
 30
0.0
 10
173.049459
 20
154.719430
 30
0.0
 10
173.049459
 20
151.226930
 30
0.0
 10
173.860848
 20
151.226930
 30
0.0
 10
173.860848
 20
146.217486
 30
0.0
 10
173.049459
 20
146.217486
 30
0.0
 10
173.049459
 20
142.716166
 30
0.0
 10
173.860848
 20
142.716166
 30
0.0
 10
173.860848
 20
141.737208
 30
0.0
 10
174.848625
 20
141.737208
 30
0.0
 10
174.848625
 20
140.925819
 30
0.0
 10
178.341125
 20
140.925819
 30
0.0
 10
178.341125
 20
141.737208
 30
0.0
 10
183.350570
 20
141.737208
 30
0.0
 10
183.350570
 20
140.925819
 30
0.0
 10
186.851875
 20
140.925819
 30
0.0
 10
186.851875
 20
141.737208
 30
0.0
 10
187.830848
 20
141.737208
 30
0.0
 10
187.830848
 20
142.716166
 30
0.0
 10
188.642237
 20
142.716166
 30
0.0
 10
188.642237
 20
146.217486
 30
0.0
 10
187.830848
 20
146.217486
 30
0.0
 10
187.830848
 20
151.226930
 30
0.0
 10
188.642237
 20
151.226930
 30
0.0
 10
188.642237
 20
154.719430
 30
0.0
 10
187.830848
 20
154.719430
 30
0.0
 10
187.830848
 20
155.707208
 30
0.0
 10
186.851875
 20
155.707208
 30
0.0
 10
186.851875
 20
156.518597
 30
0.0
 10
186.851875
 20
156.518597
 30
0.0
  0
LWPOLYLINE
  5
1a9
100
AcDbEntity
  8
Layer_1
 62
7
100
AcDbPolyline
 90
6
 70
0
 10
195.133348
 20
163.009708
 30
0.0
 10
195.133348
 20
158.247208
 30
0.0
 10
166.558348
 20
158.247208
 30
0.0
 10
166.558348
 20
163.009708
 30
0.0
 10
195.133348
 20
163.009708
 30
0.0
 10
195.133348
 20
163.009708
 30
0.0
  0
LWPOLYLINE
  5
1aa
100
AcDbEntity
  8
Layer_1
 62
7
100
AcDbPolyline
 90
5
 70
0
 10
166.558345
 20
139.197185
 30
0.0
 10
195.133345
 20
139.197185
 30
0.0
 10
195.133345
 20
137.468423
 30
0.0
 10
166.558345
 20
137.468423
 30
0.0
 10
166.558345
 20
139.197185
 30
0.0
  0
LWPOLYLINE
  5
1ab
100
AcDbEntity
  8
Layer_1
 62
7
100
AcDbPolyline
 90
5
 70
0
 10
164.829595
 20
137.468490
 30
0.0
 10
164.829595
 20
142.230981
 30
0.0
 10
166.558358
 20
142.230981
 30
0.0
 10
166.558358
 20
137.468490
 30
0.0
 10
164.829595
 20
137.468490
 30
0.0
  0
LWPOLYLINE
  5
1ac
100
AcDbEntity
  8
Layer_1
 62
7
100
AcDbPolyline
 90
8
 70
0
 10
242.758348
 20
191.584722
 30
0.0
 10
261.808348
 20
191.584722
 30
0.0
 10
261.808348
 20
172.534708
 30
0.0
 10
261.808348
 20
163.009708
 30
0.0
 10
242.758348
 20
163.009708
 30
0.0
 10
242.758348
 20
172.534708
 30
0.0
 10
242.758348
 20
191.584722
 30
0.0
 10
242.758348
 20
191.584722
 30
0.0
  0
LWPOLYLINE
  5
1ad
100
AcDbEntity
  8
Layer_1
 62
7
100
AcDbPolyline
 90
38
 70
0
 10
244.486959
 20
183.303264
 30
0.0
 10
244.486959
 20
179.801930
 30
0.0
 10
245.298348
 20
179.801930
 30
0.0
 10
245.298348
 20
174.792486
 30
0.0
 10
244.486959
 20
174.792486
 30
0.0
 10
244.486959
 20
171.299986
 30
0.0
 10
245.298348
 20
171.299986
 30
0.0
 10
245.298348
 20
170.312208
 30
0.0
 10
246.286125
 20
170.312208
 30
0.0
 10
246.286125
 20
169.500819
 30
0.0
 10
249.778625
 20
169.500819
 30
0.0
 10
249.778625
 20
170.312208
 30
0.0
 10
254.788070
 20
170.312208
 30
0.0
 10
254.788070
 20
169.500819
 30
0.0
 10
258.289375
 20
169.500819
 30
0.0
 10
258.289375
 20
170.312208
 30
0.0
 10
259.268348
 20
170.312208
 30
0.0
 10
259.268348
 20
171.299986
 30
0.0
 10
260.079737
 20
171.299986
 30
0.0
 10
260.079737
 20
174.792486
 30
0.0
 10
259.268348
 20
174.792486
 30
0.0
 10
259.268348
 20
179.801930
 30
0.0
 10
260.079737
 20
179.801930
 30
0.0
 10
260.079737
 20
183.303264
 30
0.0
 10
259.268348
 20
183.303264
 30
0.0
 10
259.268348
 20
184.282222
 30
0.0
 10
258.289375
 20
184.282222
 30
0.0
 10
258.289375
 20
185.093611
 30
0.0
 10
254.788070
 20
185.093611
 30
0.0
 10
254.788070
 20
184.282222
 30
0.0
 10
249.778625
 20
184.282222
 30
0.0
 10
249.778625
 20
185.093611
 30
0.0
 10
246.286125
 20
185.093611
 30
0.0
 10
246.286125
 20
184.282222
 30
0.0
 10
245.298348
 20
184.282222
 30
0.0
 10
245.298348
 20
183.303264
 30
0.0
 10
244.486959
 20
183.303264
 30
0.0
 10
244.486959
 20
183.303264
 30
0.0
  0
LWPOLYLINE
  5
1ae
100
AcDbEntity
  8
Layer_1
 62
7
100
AcDbPolyline
 90
5
 70
0
 10
263.539104
 20
161.279302
 30
0.0
 10
263.539104
 20
155.229163
 30
0.0
 10
250.565687
 20
161.279302
 30
0.0
 10
263.539104
 20
161.279302
 30
0.0
 10
263.539104
 20
161.279302
 30
0.0
  0
LWPOLYLINE
  5
1af
100
AcDbEntity
  8
Layer_1
 62
7
100
AcDbPolyline
 90
5
 70
0
 10
234.962100
 20
150.388925
 30
0.0
 10
234.962100
 20
161.280939
 30
0.0
 10
240.042100
 20
161.280939
 30
0.0
 10
234.962100
 20
150.388925
 30
0.0
 10
234.962100
 20
150.388925
 30
0.0
  0
LWPOLYLINE
  5
1b0
100
AcDbEntity
  8
Layer_1
 62
7
100
AcDbPolyline
 90
10
 70
0
 10
195.133348
 20
163.009708
 30
0.0
 10
214.183348
 20
163.009708
 30
0.0
 10
233.233348
 20
163.009708
 30
0.0
 10
233.233348
 20
161.316375
 30
0.0
 10
233.233348
 20
145.653041
 30
0.0
 10
233.233348
 20
143.959708
 30
0.0
 10
214.183348
 20
143.959708
 30
0.0
 10
195.133348
 20
143.959708
 30
0.0
 10
195.133348
 20
163.009708
 30
0.0
 10
195.133348
 20
163.009708
 30
0.0
  0
LWPOLYLINE
  5
1b1
100
AcDbEntity
  8
Layer_1
 62
7
100
AcDbPolyline
 90
6
 70
0
 10
200.592570
 20
159.675958
 30
0.0
 10
200.627847
 20
145.705958
 30
0.0
 10
203.926320
 20
145.714707
 30
0.0
 10
203.899791
 20
159.684707
 30
0.0
 10
200.592485
 20
159.675958
 30
0.0
 10
200.592570
 20
159.675958
 30
0.0
  0
LWPOLYLINE
  5
1b2
100
AcDbEntity
  8
Layer_1
 62
7
100
AcDbPolyline
 90
38
 70
0
 10
206.386959
 20
159.490764
 30
0.0
 10
206.386959
 20
155.989430
 30
0.0
 10
207.198348
 20
155.989430
 30
0.0
 10
207.198348
 20
150.979986
 30
0.0
 10
206.386959
 20
150.979986
 30
0.0
 10
206.386959
 20
147.487486
 30
0.0
 10
207.198348
 20
147.487486
 30
0.0
 10
207.198348
 20
146.499708
 30
0.0
 10
208.186125
 20
146.499708
 30
0.0
 10
208.186125
 20
145.688319
 30
0.0
 10
211.678625
 20
145.688319
 30
0.0
 10
211.678625
 20
146.499708
 30
0.0
 10
216.688070
 20
146.499708
 30
0.0
 10
216.688070
 20
145.688319
 30
0.0
 10
220.189375
 20
145.688319
 30
0.0
 10
220.189375
 20
146.499708
 30
0.0
 10
221.168348
 20
146.499708
 30
0.0
 10
221.168348
 20
147.487486
 30
0.0
 10
221.979737
 20
147.487486
 30
0.0
 10
221.979737
 20
150.979986
 30
0.0
 10
221.168348
 20
150.979986
 30
0.0
 10
221.168348
 20
155.989430
 30
0.0
 10
221.979737
 20
155.989430
 30
0.0
 10
221.979737
 20
159.490764
 30
0.0
 10
221.168348
 20
159.490764
 30
0.0
 10
221.168348
 20
160.469708
 30
0.0
 10
220.189375
 20
160.469708
 30
0.0
 10
220.189375
 20
161.281097
 30
0.0
 10
216.688070
 20
161.281097
 30
0.0
 10
216.688070
 20
160.469708
 30
0.0
 10
211.678625
 20
160.469708
 30
0.0
 10
211.678625
 20
161.281097
 30
0.0
 10
208.186125
 20
161.281097
 30
0.0
 10
208.186125
 20
160.469708
 30
0.0
 10
207.198348
 20
160.469708
 30
0.0
 10
207.198348
 20
159.490764
 30
0.0
 10
206.386959
 20
159.490764
 30
0.0
 10
206.386959
 20
159.490764
 30
0.0
  0
LWPOLYLINE
  5
1b3
100
AcDbEntity
  8
Layer_1
 62
7
100
AcDbPolyline
 90
6
 70
0
 10
224.475625
 20
159.728875
 30
0.0
 10
224.502154
 20
145.758875
 30
0.0
 10
227.800626
 20
145.767624
 30
0.0
 10
227.774097
 20
159.737624
 30
0.0
 10
224.475625
 20
159.728875
 30
0.0
 10
224.475625
 20
159.728875
 30
0.0
  0
LWPOLYLINE
  5
1b4
100
AcDbEntity
  8
Layer_1
 62
7
100
AcDbPolyline
 90
10
 70
0
 10
260.023066
 20
154.958822
 30
0.0
 10
251.972226
 20
137.693666
 30
0.0
 10
243.921301
 20
120.428488
 30
0.0
 10
242.386633
 20
121.144119
 30
0.0
 10
228.190827
 20
127.763734
 30
0.0
 10
226.656159
 20
128.479365
 30
0.0
 10
234.707027
 20
145.744535
 30
0.0
 10
242.757868
 20
163.009708
 30
0.0
 10
260.023066
 20
154.958820
 30
0.0
 10
260.023066
 20
154.958822
 30
0.0
  0
LWPOLYLINE
  5
1b5
100
AcDbEntity
  8
Layer_1
 62
7
100
AcDbPolyline
 90
6
 70
0
 10
254.694513
 20
151.419984
 30
0.0
 10
242.018502
 20
157.291990
 30
0.0
 10
240.632396
 20
154.298860
 30
0.0
 10
253.304738
 20
148.418929
 30
0.0
 10
254.694513
 20
151.420035
 30
0.0
 10
254.694513
 20
151.419984
 30
0.0
  0
LWPOLYLINE
  5
1b6
100
AcDbEntity
  8
Layer_1
 62
7
100
AcDbPolyline
 90
38
 70
0
 10
252.077890
 20
146.246749
 30
0.0
 10
248.904583
 20
147.726469
 30
0.0
 10
248.561655
 20
146.991111
 30
0.0
 10
244.021546
 20
149.108201
 30
0.0
 10
244.364418
 20
149.843587
 30
0.0
 10
241.199183
 20
151.319556
 30
0.0
 10
240.856255
 20
150.584189
 30
0.0
 10
239.961046
 20
151.001641
 30
0.0
 10
239.543583
 20
150.106421
 30
0.0
 10
238.808224
 20
150.449321
 30
0.0
 10
237.332230
 20
147.284029
 30
0.0
 10
238.067589
 20
146.941129
 30
0.0
 10
235.950499
 20
142.401020
 30
0.0
 10
235.215169
 20
142.743948
 30
0.0
 10
233.735421
 20
139.570698
 30
0.0
 10
234.470779
 20
139.227770
 30
0.0
 10
234.057070
 20
138.340520
 30
0.0
 10
234.952307
 20
137.923085
 30
0.0
 10
234.609379
 20
137.187698
 30
0.0
 10
237.774670
 20
135.711704
 30
0.0
 10
238.117570
 20
136.447091
 30
0.0
 10
242.657679
 20
134.330001
 30
0.0
 10
242.314779
 20
133.594643
 30
0.0
 10
245.488086
 20
132.114895
 30
0.0
 10
245.830986
 20
132.850253
 30
0.0
 10
246.718179
 20
132.436544
 30
0.0
 10
247.131917
 20
133.323794
 30
0.0
 10
247.867275
 20
132.980894
 30
0.0
 10
249.346995
 20
136.154144
 30
0.0
 10
248.611637
 20
136.497072
 30
0.0
 10
250.728698
 20
141.037153
 30
0.0
 10
251.464085
 20
140.694253
 30
0.0
 10
252.940079
 20
143.859516
 30
0.0
 10
252.204692
 20
144.202445
 30
0.0
 10
252.622155
 20
145.097653
 30
0.0
 10
251.734990
 20
145.511363
 30
0.0
 10
252.077890
 20
146.246749
 30
0.0
 10
252.077890
 20
146.246749
 30
0.0
  0
LWPOLYLINE
  5
1b7
100
AcDbEntity
  8
Layer_1
 62
7
100
AcDbPolyline
 90
6
 70
0
 10
244.649067
 20
129.752215
 30
0.0
 10
231.976725
 20
135.632146
 30
0.0
 10
230.590619
 20
132.639010
 30
0.0
 10
243.262989
 20
126.759079
 30
0.0
 10
244.649067
 20
129.752187
 30
0.0
 10
244.649067
 20
129.752215
 30
0.0
  0
LWPOLYLINE
  5
1b8
100
AcDbEntity
  8
Layer_1
 62
7
100
AcDbPolyline
 90
10
 70
0
 10
277.288239
 20
146.907940
 30
0.0
 10
269.237399
 20
129.642798
 30
0.0
 10
261.186471
 20
112.377591
 30
0.0
 10
259.651803
 20
113.093250
 30
0.0
 10
245.455997
 20
119.712857
 30
0.0
 10
243.921301
 20
120.428488
 30
0.0
 10
251.972226
 20
137.693666
 30
0.0
 10
260.023066
 20
154.958822
 30
0.0
 10
277.288239
 20
146.907940
 30
0.0
 10
277.288239
 20
146.907940
 30
0.0
  0
LWPOLYLINE
  5
1b9
100
AcDbEntity
  8
Layer_1
 62
7
100
AcDbPolyline
 90
6
 70
0
 10
271.959658
 20
143.369099
 30
0.0
 10
259.283672
 20
149.241099
 30
0.0
 10
257.897566
 20
146.247991
 30
0.0
 10
270.569911
 20
140.368061
 30
0.0
 10
271.959686
 20
143.369155
 30
0.0
 10
271.959658
 20
143.369099
 30
0.0
  0
LWPOLYLINE
  5
1ba
100
AcDbEntity
  8
Layer_1
 62
7
100
AcDbPolyline
 90
38
 70
0
 10
269.343063
 20
138.195881
 30
0.0
 10
266.169753
 20
139.675600
 30
0.0
 10
265.826825
 20
138.940242
 30
0.0
 10
261.286745
 20
141.057332
 30
0.0
 10
261.629645
 20
141.792690
 30
0.0
 10
258.464353
 20
143.268684
 30
0.0
 10
258.121453
 20
142.533298
 30
0.0
 10
257.226216
 20
142.950761
 30
0.0
 10
256.808781
 20
142.055524
 30
0.0
 10
256.073395
 20
142.398452
 30
0.0
 10
254.597429
 20
139.233160
 30
0.0
 10
255.332815
 20
138.890260
 30
0.0
 10
253.215725
 20
134.350151
 30
0.0
 10
252.480367
 20
134.693080
 30
0.0
 10
251.000648
 20
131.519801
 30
0.0
 10
251.736006
 20
131.176901
 30
0.0
 10
251.322268
 20
130.289651
 30
0.0
 10
252.217477
 20
129.872188
 30
0.0
 10
251.874577
 20
129.136830
 30
0.0
 10
255.039840
 20
127.660836
 30
0.0
 10
255.382769
 20
128.396194
 30
0.0
 10
259.922877
 20
126.279132
 30
0.0
 10
259.579949
 20
125.543737
 30
0.0
 10
262.753256
 20
124.064046
 30
0.0
 10
263.096184
 20
124.799376
 30
0.0
 10
263.983378
 20
124.385667
 30
0.0
 10
264.397116
 20
125.272917
 30
0.0
 10
265.132446
 20
124.930017
 30
0.0
 10
266.612193
 20
128.103275
 30
0.0
 10
265.876807
 20
128.446175
 30
0.0
 10
267.993869
 20
132.986284
 30
0.0
 10
268.729258
 20
132.643384
 30
0.0
 10
270.205224
 20
135.808648
 30
0.0
 10
269.469894
 20
136.151548
 30
0.0
 10
269.887357
 20
137.046785
 30
0.0
 10
269.000163
 20
137.460494
 30
0.0
 10
269.343063
 20
138.195881
 30
0.0
 10
269.343063
 20
138.195881
 30
0.0
  0
LWPOLYLINE
  5
1bb
100
AcDbEntity
  8
Layer_1
 62
7
100
AcDbPolyline
 90
6
 70
0
 10
261.914237
 20
121.701338
 30
0.0
 10
249.241867
 20
127.581277
 30
0.0
 10
247.855817
 20
124.588161
 30
0.0
 10
260.528103
 20
118.708230
 30
0.0
 10
261.914209
 20
121.701338
 30
0.0
 10
261.914237
 20
121.701338
 30
0.0
  0
LWPOLYLINE
  5
1bc
100
AcDbEntity
  8
Layer_1
 62
7
100
AcDbPolyline
 90
10
 70
0
 10
226.656159
 20
128.479365
 30
0.0
 10
243.921301
 20
120.428488
 30
0.0
 10
261.186471
 20
112.377591
 30
0.0
 10
260.470840
 20
110.842923
 30
0.0
 10
253.851233
 20
96.647145
 30
0.0
 10
253.135602
 20
95.112449
 30
0.0
 10
235.870432
 20
103.163346
 30
0.0
 10
218.605234
 20
111.214214
 30
0.0
 10
226.656159
 20
128.479365
 30
0.0
 10
226.656159
 20
128.479365
 30
0.0
  0
LWPOLYLINE
  5
1bd
100
AcDbEntity
  8
Layer_1
 62
7
100
AcDbPolyline
 90
6
 70
0
 10
230.194943
 20
123.150803
 30
0.0
 10
224.322971
 20
110.474764
 30
0.0
 10
227.316107
 20
109.088686
 30
0.0
 10
233.196066
 20
121.761000
 30
0.0
 10
230.194915
 20
123.150803
 30
0.0
 10
230.194943
 20
123.150803
 30
0.0
  0
LWPOLYLINE
  5
1be
100
AcDbEntity
  8
Layer_1
 62
7
100
AcDbPolyline
 90
38
 70
0
 10
235.368246
 20
120.534152
 30
0.0
 10
233.888498
 20
117.360845
 30
0.0
 10
234.623857
 20
117.017945
 30
0.0
 10
232.506767
 20
112.477864
 30
0.0
 10
231.771437
 20
112.820764
 30
0.0
 10
230.295443
 20
109.655473
 30
0.0
 10
231.030801
 20
109.312573
 30
0.0
 10
230.613338
 20
108.417336
 30
0.0
 10
231.508575
 20
107.999901
 30
0.0
 10
231.165647
 20
107.264514
 30
0.0
 10
234.330938
 20
105.788520
 30
0.0
 10
234.673866
 20
106.523907
 30
0.0
 10
239.213947
 20
104.406817
 30
0.0
 10
238.871047
 20
103.671430
 30
0.0
 10
242.044325
 20
102.191739
 30
0.0
 10
242.387225
 20
102.927069
 30
0.0
 10
243.274476
 20
102.513360
 30
0.0
 10
243.691939
 20
103.408597
 30
0.0
 10
244.427297
 20
103.065697
 30
0.0
 10
245.903263
 20
106.230960
 30
0.0
 10
245.167933
 20
106.573888
 30
0.0
 10
247.284995
 20
111.113969
 30
0.0
 10
248.020381
 20
110.771069
 30
0.0
 10
249.500100
 20
113.944347
 30
0.0
 10
248.764742
 20
114.287247
 30
0.0
 10
249.178452
 20
115.174498
 30
0.0
 10
248.291201
 20
115.588207
 30
0.0
 10
248.634101
 20
116.323622
 30
0.0
 10
245.460851
 20
117.803313
 30
0.0
 10
245.117951
 20
117.067927
 30
0.0
 10
240.577842
 20
119.184988
 30
0.0
 10
240.920742
 20
119.920375
 30
0.0
 10
237.755479
 20
121.396369
 30
0.0
 10
237.412523
 20
120.661011
 30
0.0
 10
236.517342
 20
121.078474
 30
0.0
 10
236.103632
 20
120.191223
 30
0.0
 10
235.368274
 20
120.534152
 30
0.0
 10
235.368246
 20
120.534152
 30
0.0
  0
LWPOLYLINE
  5
1bf
100
AcDbEntity
  8
Layer_1
 62
7
100
AcDbPolyline
 90
6
 70
0
 10
251.862837
 20
113.105329
 30
0.0
 10
245.982878
 20
100.433015
 30
0.0
 10
248.975985
 20
99.046937
 30
0.0
 10
254.855888
 20
111.719251
 30
0.0
 10
251.862780
 20
113.105329
 30
0.0
 10
251.862837
 20
113.105329
 30
0.0
  0
LWPOLYLINE
  5
1c0
100
AcDbEntity
  8
Layer_1
 62
7
100
AcDbPolyline
 90
5
 70
0
 10
218.605250
 20
111.214227
 30
0.0
 10
253.135577
 20
95.112471
 30
0.0
 10
252.404970
 20
93.545680
 30
0.0
 10
217.874643
 20
109.647436
 30
0.0
 10
218.605250
 20
111.214227
 30
0.0
  0
LWPOLYLINE
  5
1c1
100
AcDbEntity
  8
Layer_1
 62
7
100
AcDbPolyline
 90
10
 70
0
 10
294.553387
 20
138.857071
 30
0.0
 10
286.502518
 20
121.591864
 30
0.0
 10
278.451700
 20
104.326722
 30
0.0
 10
276.917004
 20
105.042353
 30
0.0
 10
262.721195
 20
111.661988
 30
0.0
 10
261.186527
 20
112.377619
 30
0.0
 10
269.237371
 20
129.642769
 30
0.0
 10
277.288268
 20
146.907940
 30
0.0
 10
294.553415
 20
138.857071
 30
0.0
 10
294.553387
 20
138.857071
 30
0.0
  0
LWPOLYLINE
  5
1c2
100
AcDbEntity
  8
Layer_1
 62
7
100
AcDbPolyline
 90
6
 70
0
 10
289.224834
 20
135.318230
 30
0.0
 10
276.548817
 20
141.190230
 30
0.0
 10
275.162767
 20
138.197123
 30
0.0
 10
287.835087
 20
132.317192
 30
0.0
 10
289.224862
 20
135.318258
 30
0.0
 10
289.224834
 20
135.318230
 30
0.0
  0
LWPOLYLINE
  5
1c3
100
AcDbEntity
  8
Layer_1
 62
7
100
AcDbPolyline
 90
38
 70
0
 10
286.608182
 20
130.144984
 30
0.0
 10
283.434847
 20
131.624731
 30
0.0
 10
283.091976
 20
130.889373
 30
0.0
 10
278.551889
 20
133.006435
 30
0.0
 10
278.894818
 20
133.741793
 30
0.0
 10
275.729554
 20
135.217815
 30
0.0
 10
275.386654
 20
134.482429
 30
0.0
 10
274.491417
 20
134.899864
 30
0.0
 10
274.073954
 20
134.004655
 30
0.0
 10
273.338596
 20
134.347555
 30
0.0
 10
271.862602
 20
131.182320
 30
0.0
 10
272.597960
 20
130.839392
 30
0.0
 10
270.480870
 20
126.299283
 30
0.0
 10
269.745484
 20
126.642183
 30
0.0
 10
268.265790
 20
123.468924
 30
0.0
 10
269.001179
 20
123.126024
 30
0.0
 10
268.587438
 20
122.238774
 30
0.0
 10
269.482678
 20
121.821311
 30
0.0
 10
269.139750
 20
121.085953
 30
0.0
 10
272.305042
 20
119.609959
 30
0.0
 10
272.647942
 20
120.345317
 30
0.0
 10
277.188050
 20
118.228227
 30
0.0
 10
276.845150
 20
117.492869
 30
0.0
 10
280.018446
 20
116.013121
 30
0.0
 10
280.361374
 20
116.748479
 30
0.0
 10
281.248540
 20
116.334798
 30
0.0
 10
281.662277
 20
117.222048
 30
0.0
 10
282.397624
 20
116.879120
 30
0.0
 10
283.877344
 20
120.052398
 30
0.0
 10
283.141985
 20
120.395298
 30
0.0
 10
285.259075
 20
124.935407
 30
0.0
 10
285.994434
 20
124.592479
 30
0.0
 10
287.470428
 20
127.757807
 30
0.0
 10
286.735069
 20
128.100679
 30
0.0
 10
287.152504
 20
128.995916
 30
0.0
 10
286.265311
 20
129.409654
 30
0.0
 10
286.608211
 20
130.144984
 30
0.0
 10
286.608182
 20
130.144984
 30
0.0
  0
LWPOLYLINE
  5
1c4
100
AcDbEntity
  8
Layer_1
 62
7
100
AcDbPolyline
 90
6
 70
0
 10
279.179382
 20
113.650469
 30
0.0
 10
266.507065
 20
119.530400
 30
0.0
 10
265.120987
 20
116.537264
 30
0.0
 10
277.793361
 20
110.657305
 30
0.0
 10
279.179410
 20
113.650441
 30
0.0
 10
279.179382
 20
113.650469
 30
0.0
  0
LWPOLYLINE
  5
1c5
100
AcDbEntity
  8
Layer_1
 62
7
100
AcDbPolyline
 90
5
 70
0
 10
277.721106
 20
102.759942
 30
0.0
 10
295.284057
 20
140.423812
 30
0.0
 10
296.850848
 20
139.693205
 30
0.0
 10
279.287897
 20
102.029335
 30
0.0
 10
277.721106
 20
102.759942
 30
0.0
  0
LWPOLYLINE
  5
1c6
100
AcDbEntity
  8
Layer_1
 62
7
100
AcDbPolyline
 90
5
 70
0
 10
252.404986
 20
93.545687
 30
0.0
 10
261.186475
 20
112.377651
 30
0.0
 10
262.753265
 20
111.647044
 30
0.0
 10
253.971777
 20
92.815081
 30
0.0
 10
252.404986
 20
93.545687
 30
0.0
  0
LWPOLYLINE
  5
1c7
100
AcDbEntity
  8
Layer_1
 62
7
100
AcDbPolyline
 90
5
 70
0
 10
262.753249
 20
111.647032
 30
0.0
 10
278.451727
 20
104.326712
 30
0.0
 10
277.721121
 20
102.759921
 30
0.0
 10
262.022642
 20
110.080242
 30
0.0
 10
262.753249
 20
111.647032
 30
0.0
  0
LWPOLYLINE
  5
1c8
100
AcDbEntity
  8
Layer_1
 62
7
100
AcDbPolyline
 90
6
 70
0
 10
246.861520
 20
163.007916
 30
0.0
 10
295.280250
 20
140.421319
 30
0.0
 10
294.557056
 20
138.860277
 30
0.0
 10
242.760493
 20
163.007916
 30
0.0
 10
246.861520
 20
163.007916
 30
0.0
 10
246.861520
 20
163.007916
 30
0.0
  0
LWPOLYLINE
  5
1c9
100
AcDbEntity
  8
Layer_1
 62
7
100
AcDbPolyline
 90
10
 70
0
 10
242.760493
 20
163.007916
 30
0.0
 10
217.871992
 20
109.650274
 30
0.0
 10
216.310965
 20
110.382288
 30
0.0
 10
231.965493
 20
143.957916
 30
0.0
 10
233.235493
 20
143.957916
 30
0.0
 10
233.235493
 20
145.651249
 30
0.0
 10
233.235493
 20
146.683124
 30
0.0
 10
240.846659
 20
163.007916
 30
0.0
 10
242.760493
 20
163.007916
 30
0.0
 10
242.760493
 20
163.007916
 30
0.0
  0
LWPOLYLINE
  5
1ca
100
AcDbEntity
  8
Layer_1
 62
7
100
AcDbPolyline
 90
6
 70
0
 10
231.965493
 20
143.957913
 30
0.0
 10
231.162909
 20
142.229302
 30
0.0
 10
195.135493
 20
142.229302
 30
0.0
 10
195.135493
 20
143.957913
 30
0.0
 10
231.965493
 20
143.957913
 30
0.0
 10
231.965493
 20
143.957913
 30
0.0
  0
LWPOLYLINE
  5
1cb
100
AcDbEntity
  8
Layer_1
 62
7
100
AcDbPolyline
 90
6
 70
0
 10
234.964104
 20
161.279302
 30
0.0
 10
234.964104
 20
150.387288
 30
0.0
 10
233.235493
 20
146.683121
 30
0.0
 10
233.235493
 20
161.279302
 30
0.0
 10
234.964104
 20
161.279302
 30
0.0
 10
234.964104
 20
161.279302
 30
0.0
  0
LWPOLYLINE
  5
1cc
100
AcDbEntity
  8
Layer_1
 62
7
100
AcDbPolyline
 90
6
 70
0
 10
240.846659
 20
163.007913
 30
0.0
 10
240.044104
 20
161.279302
 30
0.0
 10
233.235493
 20
161.279302
 30
0.0
 10
233.235493
 20
163.007913
 30
0.0
 10
240.846659
 20
163.007913
 30
0.0
 10
240.846659
 20
163.007913
 30
0.0
  0
LWPOLYLINE
  5
1cd
100
AcDbEntity
  8
Layer_1
 62
7
100
AcDbPolyline
 90
6
 70
0
 10
261.810493
 20
163.007913
 30
0.0
 10
261.810493
 20
161.279302
 30
0.0
 10
250.565687
 20
161.279302
 30
0.0
 10
246.861520
 20
163.007913
 30
0.0
 10
261.810493
 20
163.007913
 30
0.0
 10
261.810493
 20
163.007913
 30
0.0
  0
ENDSEC
  0
SECTION
  2
OBJECTS
  0
DICTIONARY
  5
C
330
0
100
AcDbDictionary
  3
ACAD_GROUP
350
D
  3
ACAD_MLINESTYLE
350
17
  0
DICTIONARY
  5
D
330
C
100
AcDbDictionary
  0
DICTIONARY
  5
1A
330
C
100
AcDbDictionary
  0
DICTIONARY
  5
17
330
C
100
AcDbDictionary
  3
STANDARD
350
18
  0
DICTIONARY
  5
19
330
C
100
AcDbDictionary
  0
ENDSEC
  0
EOF
