  0
SECTION
  2
HEADER
  9
$ACADVER
  1
AC1014
  9
$HANDSEED
  5
FFFF
  9
$MEASUREMENT
 70
     1
  0
ENDSEC
  0
SECTION
  2
TABLES
  0
TABLE
  2
VPORT
  5
8
330
0
100
AcDbSymbolTable
 70
     4
  0
VPORT
  5
2E
330
8
100
AcDbSymbolTableRecord
100
AcDbViewportTableRecord
  2
*ACTIVE
 70
     0
 10
0.0
 20
0.0
 11
1.0
 21
1.0
 12
210.0
 22
148.5
 13
0.0
 23
0.0
 14
10.0
 24
10.0
 15
10.0
 25
10.0
 16
0.0
 26
0.0
 36
1.0
 17
0.0
 27
0.0
 37
0.0
 40
341.0
 41
1.24
 42
50.0
 43
0.0
 44
0.0
 50
0.0
 51
0.0
 71
     0
 72
   100
 73
     1
 74
     3
 75
     0
 76
     0
 77
     0
 78
     0
  0
ENDTAB
  0
TABLE
  2
LTYPE
  5
5
330
0
100
AcDbSymbolTable
 70
     1
  0
LTYPE
  5
14
330
5
100
AcDbSymbolTableRecord
100
AcDbLinetypeTableRecord
  2
BYBLOCK
 70
     0
  3

 72
    65
 73
     0
 40
0.0
  0
LTYPE
  5
15
330
5
100
AcDbSymbolTableRecord
100
AcDbLinetypeTableRecord
  2
BYLAYER
 70
     0
  3

 72
    65
 73
     0
 40
0.0
  0
LTYPE
  5
16
330
5
100
AcDbSymbolTableRecord
100
AcDbLinetypeTableRecord
  2
CONTINUOUS
 70
     0
  3
Solid line
 72
    65
 73
     0
 40
0.0
  0
ENDTAB
  0
TABLE
  2
LAYER
  5
2
100
AcDbSymbolTable
 70
2
  0
LAYER
  5
50
100
AcDbSymbolTableRecord
100
AcDbLayerTableRecord
  2
0
 70
0
  6
CONTINUOUS
  0
LAYER
  5
51
100
AcDbSymbolTableRecord
100
AcDbLayerTableRecord
  2
Layer_1
 70
0
  6
CONTINUOUS
  0
ENDTAB
  0
TABLE
  2
STYLE
  5
3
330
0
100
AcDbSymbolTable
 70
     1
  0
STYLE
  5
11
330
3
100
AcDbSymbolTableRecord
100
AcDbTextStyleTableRecord
  2
STANDARD
 70
     0
 40
0.0
 41
1.0
 50
0.0
 71
     0
 42
2.5
  3
txt
  4

  0
ENDTAB
  0
TABLE
  2
VIEW
  5
6
330
0
100
AcDbSymbolTable
 70
     0
  0
ENDTAB
  0
TABLE
  2
UCS
  5
7
330
0
100
AcDbSymbolTable
 70
     0
  0
ENDTAB
  0
TABLE
  2
APPID
  5
9
330
0
100
AcDbSymbolTable
 70
     2
  0
APPID
  5
12
330
9
100
AcDbSymbolTableRecord
100
AcDbRegAppTableRecord
  2
ACAD
 70
     0
  0
ENDTAB
  0
TABLE
  2
DIMSTYLE
  5
A
330
0
100
AcDbSymbolTable
 70
     1
  0
DIMSTYLE
105
27
330
A
100
AcDbSymbolTableRecord
100
AcDbDimStyleTableRecord
  2
ISO-25
 70
     0
  3

  4

  5

  6

  7

 40
1.0
 41
2.5
 42
0.625
 43
3.75
 44
1.25
 45
0.0
 46
0.0
 47
0.0
 48
0.0
140
2.5
141
2.5
142
0.0
143
0.03937007874016
144
1.0
145
0.0
146
1.0
147
0.625
 71
     0
 72
     0
 73
     0
 74
     0
 75
     0
 76
     0
 77
     1
 78
     8
170
     0
171
     3
172
     1
173
     0
174
     0
175
     0
176
     0
177
     0
178
     0
270
     2
271
     2
272
     2
273
     2
274
     3
340
11
275
     0
280
     0
281
     0
282
     0
283
     0
284
     8
285
     0
286
     0
287
     3
288
     0
  0
ENDTAB
  0
TABLE
  2
BLOCK_RECORD
  5
1
330
0
100
AcDbSymbolTable
 70
     1
  0
BLOCK_RECORD
  5
1F
330
1
100
AcDbSymbolTableRecord
100
AcDbBlockTableRecord
  2
*MODEL_SPACE
  0
BLOCK_RECORD
  5
1B
330
1
100
AcDbSymbolTableRecord
100
AcDbBlockTableRecord
  2
*PAPER_SPACE
  0
ENDTAB
  0
ENDSEC
  0
SECTION
  2
BLOCKS
  0
BLOCK
  5
20
330
1F
100
AcDbEntity
  8
0
100
AcDbBlockBegin
  2
*MODEL_SPACE
 70
     0
 10
0.0
 20
0.0
 30
0.0
  3
*MODEL_SPACE
  1

  0
ENDBLK
  5
21
330
1F
100
AcDbEntity
  8
0
100
AcDbBlockEnd
  0
BLOCK
  5
1C
330
1B
100
AcDbEntity
 67
     1
  8
0
100
AcDbBlockBegin
  2
*PAPER_SPACE
  1

  0
ENDBLK
  5
1D
330
1B
100
AcDbEntity
 67
     1
  8
0
100
AcDbBlockEnd
  0
ENDSEC
  0
SECTION
  2
ENTITIES
  0
LWPOLYLINE
  5
100
100
AcDbEntity
  8
Layer_1
 62
7
100
AcDbPolyline
 90
6
 70
0
 10
339.039172
 20
216.883044
 30
0.0
 10
339.039172
 20
197.833044
 30
0.0
 10
358.089172
 20
197.833044
 30
0.0
 10
358.089172
 20
216.883044
 30
0.0
 10
339.039172
 20
216.883044
 30
0.0
 10
339.039172
 20
216.883044
 30
0.0
  0
LWPOLYLINE
  5
101
100
AcDbEntity
  8
Layer_1
 62
7
100
AcDbPolyline
 90
38
 70
0
 10
342.558144
 20
215.154433
 30
0.0
 10
346.059450
 20
215.154433
 30
0.0
 10
346.059450
 20
214.343044
 30
0.0
 10
351.068894
 20
214.343044
 30
0.0
 10
351.068894
 20
215.154433
 30
0.0
 10
354.561394
 20
215.154433
 30
0.0
 10
354.561394
 20
214.343044
 30
0.0
 10
355.549172
 20
214.343044
 30
0.0
 10
355.549172
 20
213.355267
 30
0.0
 10
356.360561
 20
213.355267
 30
0.0
 10
356.360561
 20
209.862767
 30
0.0
 10
355.549172
 20
209.862767
 30
0.0
 10
355.549172
 20
204.853322
 30
0.0
 10
356.360561
 20
204.853322
 30
0.0
 10
356.360561
 20
201.352003
 30
0.0
 10
355.549172
 20
201.352003
 30
0.0
 10
355.549172
 20
200.373044
 30
0.0
 10
354.561394
 20
200.373044
 30
0.0
 10
354.561394
 20
199.561655
 30
0.0
 10
351.068894
 20
199.561655
 30
0.0
 10
351.068894
 20
200.373044
 30
0.0
 10
346.059450
 20
200.373044
 30
0.0
 10
346.059450
 20
199.561655
 30
0.0
 10
342.558144
 20
199.561655
 30
0.0
 10
342.558144
 20
200.373044
 30
0.0
 10
341.579172
 20
200.373044
 30
0.0
 10
341.579172
 20
201.352003
 30
0.0
 10
340.767783
 20
201.352003
 30
0.0
 10
340.767783
 20
204.853322
 30
0.0
 10
341.579172
 20
204.853322
 30
0.0
 10
341.579172
 20
209.862767
 30
0.0
 10
340.767783
 20
209.862767
 30
0.0
 10
340.767783
 20
213.355267
 30
0.0
 10
341.579172
 20
213.355267
 30
0.0
 10
341.579172
 20
214.343044
 30
0.0
 10
342.558144
 20
214.343044
 30
0.0
 10
342.558144
 20
215.154433
 30
0.0
 10
342.558144
 20
215.154433
 30
0.0
  0
LWPOLYLINE
  5
102
100
AcDbEntity
  8
Layer_1
 62
7
100
AcDbPolyline
 90
6
 70
0
 10
339.039172
 20
197.833044
 30
0.0
 10
339.039172
 20
178.783044
 30
0.0
 10
358.089172
 20
178.783044
 30
0.0
 10
358.089172
 20
197.833044
 30
0.0
 10
339.039172
 20
197.833044
 30
0.0
 10
339.039172
 20
197.833044
 30
0.0
  0
LWPOLYLINE
  5
103
100
AcDbEntity
  8
Layer_1
 62
7
100
AcDbPolyline
 90
38
 70
0
 10
342.558144
 20
196.104433
 30
0.0
 10
346.059450
 20
196.104433
 30
0.0
 10
346.059450
 20
195.293044
 30
0.0
 10
351.068894
 20
195.293044
 30
0.0
 10
351.068894
 20
196.104433
 30
0.0
 10
354.561394
 20
196.104433
 30
0.0
 10
354.561394
 20
195.293044
 30
0.0
 10
355.549172
 20
195.293044
 30
0.0
 10
355.549172
 20
194.305267
 30
0.0
 10
356.360561
 20
194.305267
 30
0.0
 10
356.360561
 20
190.812767
 30
0.0
 10
355.549172
 20
190.812767
 30
0.0
 10
355.549172
 20
185.803322
 30
0.0
 10
356.360561
 20
185.803322
 30
0.0
 10
356.360561
 20
182.302003
 30
0.0
 10
355.549172
 20
182.302003
 30
0.0
 10
355.549172
 20
181.323044
 30
0.0
 10
354.561394
 20
181.323044
 30
0.0
 10
354.561394
 20
180.511655
 30
0.0
 10
351.068894
 20
180.511655
 30
0.0
 10
351.068894
 20
181.323044
 30
0.0
 10
346.059450
 20
181.323044
 30
0.0
 10
346.059450
 20
180.511655
 30
0.0
 10
342.558144
 20
180.511655
 30
0.0
 10
342.558144
 20
181.323044
 30
0.0
 10
341.579172
 20
181.323044
 30
0.0
 10
341.579172
 20
182.302003
 30
0.0
 10
340.767783
 20
182.302003
 30
0.0
 10
340.767783
 20
185.803322
 30
0.0
 10
341.579172
 20
185.803322
 30
0.0
 10
341.579172
 20
190.812767
 30
0.0
 10
340.767783
 20
190.812767
 30
0.0
 10
340.767783
 20
194.305267
 30
0.0
 10
341.579172
 20
194.305267
 30
0.0
 10
341.579172
 20
195.293044
 30
0.0
 10
342.558144
 20
195.293044
 30
0.0
 10
342.558144
 20
196.104433
 30
0.0
 10
342.558144
 20
196.104433
 30
0.0
  0
LWPOLYLINE
  5
104
100
AcDbEntity
  8
Layer_1
 62
7
100
AcDbPolyline
 90
6
 70
0
 10
339.039172
 20
178.783044
 30
0.0
 10
339.039172
 20
159.733044
 30
0.0
 10
358.089172
 20
159.733044
 30
0.0
 10
358.089172
 20
178.783044
 30
0.0
 10
339.039172
 20
178.783044
 30
0.0
 10
339.039172
 20
178.783044
 30
0.0
  0
LWPOLYLINE
  5
105
100
AcDbEntity
  8
Layer_1
 62
7
100
AcDbPolyline
 90
38
 70
0
 10
342.558144
 20
177.054433
 30
0.0
 10
346.059450
 20
177.054433
 30
0.0
 10
346.059450
 20
176.243044
 30
0.0
 10
351.068894
 20
176.243044
 30
0.0
 10
351.068894
 20
177.054433
 30
0.0
 10
354.561394
 20
177.054433
 30
0.0
 10
354.561394
 20
176.243044
 30
0.0
 10
355.549172
 20
176.243044
 30
0.0
 10
355.549172
 20
175.255267
 30
0.0
 10
356.360561
 20
175.255267
 30
0.0
 10
356.360561
 20
171.762767
 30
0.0
 10
355.549172
 20
171.762767
 30
0.0
 10
355.549172
 20
166.753322
 30
0.0
 10
356.360561
 20
166.753322
 30
0.0
 10
356.360561
 20
163.252003
 30
0.0
 10
355.549172
 20
163.252003
 30
0.0
 10
355.549172
 20
162.273044
 30
0.0
 10
354.561394
 20
162.273044
 30
0.0
 10
354.561394
 20
161.461655
 30
0.0
 10
351.068894
 20
161.461655
 30
0.0
 10
351.068894
 20
162.273044
 30
0.0
 10
346.059450
 20
162.273044
 30
0.0
 10
346.059450
 20
161.461655
 30
0.0
 10
342.558144
 20
161.461655
 30
0.0
 10
342.558144
 20
162.273044
 30
0.0
 10
341.579172
 20
162.273044
 30
0.0
 10
341.579172
 20
163.252003
 30
0.0
 10
340.767783
 20
163.252003
 30
0.0
 10
340.767783
 20
166.753322
 30
0.0
 10
341.579172
 20
166.753322
 30
0.0
 10
341.579172
 20
171.762767
 30
0.0
 10
340.767783
 20
171.762767
 30
0.0
 10
340.767783
 20
175.255267
 30
0.0
 10
341.579172
 20
175.255267
 30
0.0
 10
341.579172
 20
176.243044
 30
0.0
 10
342.558144
 20
176.243044
 30
0.0
 10
342.558144
 20
177.054433
 30
0.0
 10
342.558144
 20
177.054433
 30
0.0
  0
LWPOLYLINE
  5
106
100
AcDbEntity
  8
Layer_1
 62
7
100
AcDbPolyline
 90
6
 70
0
 10
358.089172
 20
219.264292
 30
0.0
 10
358.089172
 20
200.214292
 30
0.0
 10
377.139172
 20
200.214292
 30
0.0
 10
377.139172
 20
219.264292
 30
0.0
 10
358.089172
 20
219.264292
 30
0.0
 10
358.089172
 20
219.264292
 30
0.0
  0
LWPOLYLINE
  5
107
100
AcDbEntity
  8
Layer_1
 62
7
100
AcDbPolyline
 90
38
 70
0
 10
361.608144
 20
217.535680
 30
0.0
 10
365.109450
 20
217.535680
 30
0.0
 10
365.109450
 20
216.724292
 30
0.0
 10
370.118894
 20
216.724292
 30
0.0
 10
370.118894
 20
217.535680
 30
0.0
 10
373.611394
 20
217.535680
 30
0.0
 10
373.611394
 20
216.724292
 30
0.0
 10
374.599172
 20
216.724292
 30
0.0
 10
374.599172
 20
215.736514
 30
0.0
 10
375.410561
 20
215.736514
 30
0.0
 10
375.410561
 20
212.244014
 30
0.0
 10
374.599172
 20
212.244014
 30
0.0
 10
374.599172
 20
207.234569
 30
0.0
 10
375.410561
 20
207.234569
 30
0.0
 10
375.410561
 20
203.733250
 30
0.0
 10
374.599172
 20
203.733250
 30
0.0
 10
374.599172
 20
202.754292
 30
0.0
 10
373.611394
 20
202.754292
 30
0.0
 10
373.611394
 20
201.942903
 30
0.0
 10
370.118894
 20
201.942903
 30
0.0
 10
370.118894
 20
202.754292
 30
0.0
 10
365.109450
 20
202.754292
 30
0.0
 10
365.109450
 20
201.942903
 30
0.0
 10
361.608144
 20
201.942903
 30
0.0
 10
361.608144
 20
202.754292
 30
0.0
 10
360.629172
 20
202.754292
 30
0.0
 10
360.629172
 20
203.733250
 30
0.0
 10
359.817783
 20
203.733250
 30
0.0
 10
359.817783
 20
207.234569
 30
0.0
 10
360.629172
 20
207.234569
 30
0.0
 10
360.629172
 20
212.244014
 30
0.0
 10
359.817783
 20
212.244014
 30
0.0
 10
359.817783
 20
215.736514
 30
0.0
 10
360.629172
 20
215.736514
 30
0.0
 10
360.629172
 20
216.724292
 30
0.0
 10
361.608144
 20
216.724292
 30
0.0
 10
361.608144
 20
217.535680
 30
0.0
 10
361.608144
 20
217.535680
 30
0.0
  0
LWPOLYLINE
  5
108
100
AcDbEntity
  8
Layer_1
 62
7
100
AcDbPolyline
 90
6
 70
0
 10
358.089172
 20
200.214292
 30
0.0
 10
358.089172
 20
181.164292
 30
0.0
 10
377.139172
 20
181.164292
 30
0.0
 10
377.139172
 20
200.214292
 30
0.0
 10
358.089172
 20
200.214292
 30
0.0
 10
358.089172
 20
200.214292
 30
0.0
  0
LWPOLYLINE
  5
109
100
AcDbEntity
  8
Layer_1
 62
7
100
AcDbPolyline
 90
38
 70
0
 10
361.608144
 20
198.485680
 30
0.0
 10
365.109450
 20
198.485680
 30
0.0
 10
365.109450
 20
197.674292
 30
0.0
 10
370.118894
 20
197.674292
 30
0.0
 10
370.118894
 20
198.485680
 30
0.0
 10
373.611394
 20
198.485680
 30
0.0
 10
373.611394
 20
197.674292
 30
0.0
 10
374.599172
 20
197.674292
 30
0.0
 10
374.599172
 20
196.686514
 30
0.0
 10
375.410561
 20
196.686514
 30
0.0
 10
375.410561
 20
193.194014
 30
0.0
 10
374.599172
 20
193.194014
 30
0.0
 10
374.599172
 20
188.184569
 30
0.0
 10
375.410561
 20
188.184569
 30
0.0
 10
375.410561
 20
184.683250
 30
0.0
 10
374.599172
 20
184.683250
 30
0.0
 10
374.599172
 20
183.704292
 30
0.0
 10
373.611394
 20
183.704292
 30
0.0
 10
373.611394
 20
182.892903
 30
0.0
 10
370.118894
 20
182.892903
 30
0.0
 10
370.118894
 20
183.704292
 30
0.0
 10
365.109450
 20
183.704292
 30
0.0
 10
365.109450
 20
182.892903
 30
0.0
 10
361.608144
 20
182.892903
 30
0.0
 10
361.608144
 20
183.704292
 30
0.0
 10
360.629172
 20
183.704292
 30
0.0
 10
360.629172
 20
184.683250
 30
0.0
 10
359.817783
 20
184.683250
 30
0.0
 10
359.817783
 20
188.184569
 30
0.0
 10
360.629172
 20
188.184569
 30
0.0
 10
360.629172
 20
193.194014
 30
0.0
 10
359.817783
 20
193.194014
 30
0.0
 10
359.817783
 20
196.686514
 30
0.0
 10
360.629172
 20
196.686514
 30
0.0
 10
360.629172
 20
197.674292
 30
0.0
 10
361.608144
 20
197.674292
 30
0.0
 10
361.608144
 20
198.485680
 30
0.0
 10
361.608144
 20
198.485680
 30
0.0
  0
LWPOLYLINE
  5
10a
100
AcDbEntity
  8
Layer_1
 62
7
100
AcDbPolyline
 90
6
 70
0
 10
358.089172
 20
181.164292
 30
0.0
 10
358.089172
 20
162.114292
 30
0.0
 10
377.139172
 20
162.114292
 30
0.0
 10
377.139172
 20
181.164292
 30
0.0
 10
358.089172
 20
181.164292
 30
0.0
 10
358.089172
 20
181.164292
 30
0.0
  0
LWPOLYLINE
  5
10b
100
AcDbEntity
  8
Layer_1
 62
7
100
AcDbPolyline
 90
38
 70
0
 10
361.608144
 20
179.435680
 30
0.0
 10
365.109450
 20
179.435680
 30
0.0
 10
365.109450
 20
178.624292
 30
0.0
 10
370.118894
 20
178.624292
 30
0.0
 10
370.118894
 20
179.435680
 30
0.0
 10
373.611394
 20
179.435680
 30
0.0
 10
373.611394
 20
178.624292
 30
0.0
 10
374.599172
 20
178.624292
 30
0.0
 10
374.599172
 20
177.636514
 30
0.0
 10
375.410561
 20
177.636514
 30
0.0
 10
375.410561
 20
174.144014
 30
0.0
 10
374.599172
 20
174.144014
 30
0.0
 10
374.599172
 20
169.134569
 30
0.0
 10
375.410561
 20
169.134569
 30
0.0
 10
375.410561
 20
165.633250
 30
0.0
 10
374.599172
 20
165.633250
 30
0.0
 10
374.599172
 20
164.654292
 30
0.0
 10
373.611394
 20
164.654292
 30
0.0
 10
373.611394
 20
163.842903
 30
0.0
 10
370.118894
 20
163.842903
 30
0.0
 10
370.118894
 20
164.654292
 30
0.0
 10
365.109450
 20
164.654292
 30
0.0
 10
365.109450
 20
163.842903
 30
0.0
 10
361.608144
 20
163.842903
 30
0.0
 10
361.608144
 20
164.654292
 30
0.0
 10
360.629172
 20
164.654292
 30
0.0
 10
360.629172
 20
165.633250
 30
0.0
 10
359.817783
 20
165.633250
 30
0.0
 10
359.817783
 20
169.134569
 30
0.0
 10
360.629172
 20
169.134569
 30
0.0
 10
360.629172
 20
174.144014
 30
0.0
 10
359.817783
 20
174.144014
 30
0.0
 10
359.817783
 20
177.636514
 30
0.0
 10
360.629172
 20
177.636514
 30
0.0
 10
360.629172
 20
178.624292
 30
0.0
 10
361.608144
 20
178.624292
 30
0.0
 10
361.608144
 20
179.435680
 30
0.0
 10
361.608144
 20
179.435680
 30
0.0
  0
LWPOLYLINE
  5
10c
100
AcDbEntity
  8
Layer_1
 62
7
100
AcDbPolyline
 90
6
 70
0
 10
377.139172
 20
224.026789
 30
0.0
 10
377.139172
 20
204.976789
 30
0.0
 10
396.189172
 20
204.976789
 30
0.0
 10
396.189172
 20
224.026789
 30
0.0
 10
377.139172
 20
224.026789
 30
0.0
 10
377.139172
 20
224.026789
 30
0.0
  0
LWPOLYLINE
  5
10d
100
AcDbEntity
  8
Layer_1
 62
7
100
AcDbPolyline
 90
38
 70
0
 10
380.658144
 20
222.298178
 30
0.0
 10
384.159450
 20
222.298178
 30
0.0
 10
384.159450
 20
221.486789
 30
0.0
 10
389.168894
 20
221.486789
 30
0.0
 10
389.168894
 20
222.298178
 30
0.0
 10
392.661394
 20
222.298178
 30
0.0
 10
392.661394
 20
221.486789
 30
0.0
 10
393.649172
 20
221.486789
 30
0.0
 10
393.649172
 20
220.499011
 30
0.0
 10
394.460561
 20
220.499011
 30
0.0
 10
394.460561
 20
217.006511
 30
0.0
 10
393.649172
 20
217.006511
 30
0.0
 10
393.649172
 20
211.997066
 30
0.0
 10
394.460561
 20
211.997066
 30
0.0
 10
394.460561
 20
208.495747
 30
0.0
 10
393.649172
 20
208.495747
 30
0.0
 10
393.649172
 20
207.516789
 30
0.0
 10
392.661394
 20
207.516789
 30
0.0
 10
392.661394
 20
206.705400
 30
0.0
 10
389.168894
 20
206.705400
 30
0.0
 10
389.168894
 20
207.516789
 30
0.0
 10
384.159450
 20
207.516789
 30
0.0
 10
384.159450
 20
206.705400
 30
0.0
 10
380.658144
 20
206.705400
 30
0.0
 10
380.658144
 20
207.516789
 30
0.0
 10
379.679172
 20
207.516789
 30
0.0
 10
379.679172
 20
208.495747
 30
0.0
 10
378.867783
 20
208.495747
 30
0.0
 10
378.867783
 20
211.997066
 30
0.0
 10
379.679172
 20
211.997066
 30
0.0
 10
379.679172
 20
217.006511
 30
0.0
 10
378.867783
 20
217.006511
 30
0.0
 10
378.867783
 20
220.499011
 30
0.0
 10
379.679172
 20
220.499011
 30
0.0
 10
379.679172
 20
221.486789
 30
0.0
 10
380.658144
 20
221.486789
 30
0.0
 10
380.658144
 20
222.298178
 30
0.0
 10
380.658144
 20
222.298178
 30
0.0
  0
LWPOLYLINE
  5
10e
100
AcDbEntity
  8
Layer_1
 62
7
100
AcDbPolyline
 90
6
 70
0
 10
377.139172
 20
204.976789
 30
0.0
 10
377.139172
 20
185.926789
 30
0.0
 10
396.189172
 20
185.926789
 30
0.0
 10
396.189172
 20
204.976789
 30
0.0
 10
377.139172
 20
204.976789
 30
0.0
 10
377.139172
 20
204.976789
 30
0.0
  0
LWPOLYLINE
  5
10f
100
AcDbEntity
  8
Layer_1
 62
7
100
AcDbPolyline
 90
38
 70
0
 10
380.658144
 20
203.248178
 30
0.0
 10
384.159450
 20
203.248178
 30
0.0
 10
384.159450
 20
202.436789
 30
0.0
 10
389.168894
 20
202.436789
 30
0.0
 10
389.168894
 20
203.248178
 30
0.0
 10
392.661394
 20
203.248178
 30
0.0
 10
392.661394
 20
202.436789
 30
0.0
 10
393.649172
 20
202.436789
 30
0.0
 10
393.649172
 20
201.449011
 30
0.0
 10
394.460561
 20
201.449011
 30
0.0
 10
394.460561
 20
197.956511
 30
0.0
 10
393.649172
 20
197.956511
 30
0.0
 10
393.649172
 20
192.947066
 30
0.0
 10
394.460561
 20
192.947066
 30
0.0
 10
394.460561
 20
189.445747
 30
0.0
 10
393.649172
 20
189.445747
 30
0.0
 10
393.649172
 20
188.466789
 30
0.0
 10
392.661394
 20
188.466789
 30
0.0
 10
392.661394
 20
187.655400
 30
0.0
 10
389.168894
 20
187.655400
 30
0.0
 10
389.168894
 20
188.466789
 30
0.0
 10
384.159450
 20
188.466789
 30
0.0
 10
384.159450
 20
187.655400
 30
0.0
 10
380.658144
 20
187.655400
 30
0.0
 10
380.658144
 20
188.466789
 30
0.0
 10
379.679172
 20
188.466789
 30
0.0
 10
379.679172
 20
189.445747
 30
0.0
 10
378.867783
 20
189.445747
 30
0.0
 10
378.867783
 20
192.947066
 30
0.0
 10
379.679172
 20
192.947066
 30
0.0
 10
379.679172
 20
197.956511
 30
0.0
 10
378.867783
 20
197.956511
 30
0.0
 10
378.867783
 20
201.449011
 30
0.0
 10
379.679172
 20
201.449011
 30
0.0
 10
379.679172
 20
202.436789
 30
0.0
 10
380.658144
 20
202.436789
 30
0.0
 10
380.658144
 20
203.248178
 30
0.0
 10
380.658144
 20
203.248178
 30
0.0
  0
LWPOLYLINE
  5
110
100
AcDbEntity
  8
Layer_1
 62
7
100
AcDbPolyline
 90
6
 70
0
 10
377.139172
 20
185.926789
 30
0.0
 10
377.139172
 20
166.876789
 30
0.0
 10
396.189172
 20
166.876789
 30
0.0
 10
396.189172
 20
185.926789
 30
0.0
 10
377.139172
 20
185.926789
 30
0.0
 10
377.139172
 20
185.926789
 30
0.0
  0
LWPOLYLINE
  5
111
100
AcDbEntity
  8
Layer_1
 62
7
100
AcDbPolyline
 90
38
 70
0
 10
380.658144
 20
184.198178
 30
0.0
 10
384.159450
 20
184.198178
 30
0.0
 10
384.159450
 20
183.386789
 30
0.0
 10
389.168894
 20
183.386789
 30
0.0
 10
389.168894
 20
184.198178
 30
0.0
 10
392.661394
 20
184.198178
 30
0.0
 10
392.661394
 20
183.386789
 30
0.0
 10
393.649172
 20
183.386789
 30
0.0
 10
393.649172
 20
182.399011
 30
0.0
 10
394.460561
 20
182.399011
 30
0.0
 10
394.460561
 20
178.906511
 30
0.0
 10
393.649172
 20
178.906511
 30
0.0
 10
393.649172
 20
173.897066
 30
0.0
 10
394.460561
 20
173.897066
 30
0.0
 10
394.460561
 20
170.395747
 30
0.0
 10
393.649172
 20
170.395747
 30
0.0
 10
393.649172
 20
169.416789
 30
0.0
 10
392.661394
 20
169.416789
 30
0.0
 10
392.661394
 20
168.605400
 30
0.0
 10
389.168894
 20
168.605400
 30
0.0
 10
389.168894
 20
169.416789
 30
0.0
 10
384.159450
 20
169.416789
 30
0.0
 10
384.159450
 20
168.605400
 30
0.0
 10
380.658144
 20
168.605400
 30
0.0
 10
380.658144
 20
169.416789
 30
0.0
 10
379.679172
 20
169.416789
 30
0.0
 10
379.679172
 20
170.395747
 30
0.0
 10
378.867783
 20
170.395747
 30
0.0
 10
378.867783
 20
173.897066
 30
0.0
 10
379.679172
 20
173.897066
 30
0.0
 10
379.679172
 20
178.906511
 30
0.0
 10
378.867783
 20
178.906511
 30
0.0
 10
378.867783
 20
182.399011
 30
0.0
 10
379.679172
 20
182.399011
 30
0.0
 10
379.679172
 20
183.386789
 30
0.0
 10
380.658144
 20
183.386789
 30
0.0
 10
380.658144
 20
184.198178
 30
0.0
 10
380.658144
 20
184.198178
 30
0.0
  0
LWPOLYLINE
  5
112
100
AcDbEntity
  8
Layer_1
 62
7
100
AcDbPolyline
 90
6
 70
0
 10
396.189172
 20
221.645542
 30
0.0
 10
396.189172
 20
202.595542
 30
0.0
 10
415.239172
 20
202.595542
 30
0.0
 10
415.239172
 20
221.645542
 30
0.0
 10
396.189172
 20
221.645542
 30
0.0
 10
396.189172
 20
221.645542
 30
0.0
  0
LWPOLYLINE
  5
113
100
AcDbEntity
  8
Layer_1
 62
7
100
AcDbPolyline
 90
38
 70
0
 10
399.708144
 20
219.916930
 30
0.0
 10
403.209450
 20
219.916930
 30
0.0
 10
403.209450
 20
219.105542
 30
0.0
 10
408.218894
 20
219.105542
 30
0.0
 10
408.218894
 20
219.916930
 30
0.0
 10
411.711394
 20
219.916930
 30
0.0
 10
411.711394
 20
219.105542
 30
0.0
 10
412.699172
 20
219.105542
 30
0.0
 10
412.699172
 20
218.117764
 30
0.0
 10
413.510561
 20
218.117764
 30
0.0
 10
413.510561
 20
214.625264
 30
0.0
 10
412.699172
 20
214.625264
 30
0.0
 10
412.699172
 20
209.615819
 30
0.0
 10
413.510561
 20
209.615819
 30
0.0
 10
413.510561
 20
206.114500
 30
0.0
 10
412.699172
 20
206.114500
 30
0.0
 10
412.699172
 20
205.135542
 30
0.0
 10
411.711394
 20
205.135542
 30
0.0
 10
411.711394
 20
204.324153
 30
0.0
 10
408.218894
 20
204.324153
 30
0.0
 10
408.218894
 20
205.135542
 30
0.0
 10
403.209450
 20
205.135542
 30
0.0
 10
403.209450
 20
204.324153
 30
0.0
 10
399.708144
 20
204.324153
 30
0.0
 10
399.708144
 20
205.135542
 30
0.0
 10
398.729172
 20
205.135542
 30
0.0
 10
398.729172
 20
206.114500
 30
0.0
 10
397.917783
 20
206.114500
 30
0.0
 10
397.917783
 20
209.615819
 30
0.0
 10
398.729172
 20
209.615819
 30
0.0
 10
398.729172
 20
214.625264
 30
0.0
 10
397.917783
 20
214.625264
 30
0.0
 10
397.917783
 20
218.117764
 30
0.0
 10
398.729172
 20
218.117764
 30
0.0
 10
398.729172
 20
219.105542
 30
0.0
 10
399.708144
 20
219.105542
 30
0.0
 10
399.708144
 20
219.916930
 30
0.0
 10
399.708144
 20
219.916930
 30
0.0
  0
LWPOLYLINE
  5
114
100
AcDbEntity
  8
Layer_1
 62
7
100
AcDbPolyline
 90
6
 70
0
 10
396.189172
 20
202.595542
 30
0.0
 10
396.189172
 20
183.545542
 30
0.0
 10
415.239172
 20
183.545542
 30
0.0
 10
415.239172
 20
202.595542
 30
0.0
 10
396.189172
 20
202.595542
 30
0.0
 10
396.189172
 20
202.595542
 30
0.0
  0
LWPOLYLINE
  5
115
100
AcDbEntity
  8
Layer_1
 62
7
100
AcDbPolyline
 90
38
 70
0
 10
399.708144
 20
200.866930
 30
0.0
 10
403.209450
 20
200.866930
 30
0.0
 10
403.209450
 20
200.055542
 30
0.0
 10
408.218894
 20
200.055542
 30
0.0
 10
408.218894
 20
200.866930
 30
0.0
 10
411.711394
 20
200.866930
 30
0.0
 10
411.711394
 20
200.055542
 30
0.0
 10
412.699172
 20
200.055542
 30
0.0
 10
412.699172
 20
199.067764
 30
0.0
 10
413.510561
 20
199.067764
 30
0.0
 10
413.510561
 20
195.575264
 30
0.0
 10
412.699172
 20
195.575264
 30
0.0
 10
412.699172
 20
190.565819
 30
0.0
 10
413.510561
 20
190.565819
 30
0.0
 10
413.510561
 20
187.064500
 30
0.0
 10
412.699172
 20
187.064500
 30
0.0
 10
412.699172
 20
186.085542
 30
0.0
 10
411.711394
 20
186.085542
 30
0.0
 10
411.711394
 20
185.274153
 30
0.0
 10
408.218894
 20
185.274153
 30
0.0
 10
408.218894
 20
186.085542
 30
0.0
 10
403.209450
 20
186.085542
 30
0.0
 10
403.209450
 20
185.274153
 30
0.0
 10
399.708144
 20
185.274153
 30
0.0
 10
399.708144
 20
186.085542
 30
0.0
 10
398.729172
 20
186.085542
 30
0.0
 10
398.729172
 20
187.064500
 30
0.0
 10
397.917783
 20
187.064500
 30
0.0
 10
397.917783
 20
190.565819
 30
0.0
 10
398.729172
 20
190.565819
 30
0.0
 10
398.729172
 20
195.575264
 30
0.0
 10
397.917783
 20
195.575264
 30
0.0
 10
397.917783
 20
199.067764
 30
0.0
 10
398.729172
 20
199.067764
 30
0.0
 10
398.729172
 20
200.055542
 30
0.0
 10
399.708144
 20
200.055542
 30
0.0
 10
399.708144
 20
200.866930
 30
0.0
 10
399.708144
 20
200.866930
 30
0.0
  0
LWPOLYLINE
  5
116
100
AcDbEntity
  8
Layer_1
 62
7
100
AcDbPolyline
 90
6
 70
0
 10
396.189172
 20
183.545542
 30
0.0
 10
396.189172
 20
164.495542
 30
0.0
 10
415.239172
 20
164.495542
 30
0.0
 10
415.239172
 20
183.545542
 30
0.0
 10
396.189172
 20
183.545542
 30
0.0
 10
396.189172
 20
183.545542
 30
0.0
  0
LWPOLYLINE
  5
117
100
AcDbEntity
  8
Layer_1
 62
7
100
AcDbPolyline
 90
38
 70
0
 10
399.708144
 20
181.816930
 30
0.0
 10
403.209450
 20
181.816930
 30
0.0
 10
403.209450
 20
181.005542
 30
0.0
 10
408.218894
 20
181.005542
 30
0.0
 10
408.218894
 20
181.816930
 30
0.0
 10
411.711394
 20
181.816930
 30
0.0
 10
411.711394
 20
181.005542
 30
0.0
 10
412.699172
 20
181.005542
 30
0.0
 10
412.699172
 20
180.017764
 30
0.0
 10
413.510561
 20
180.017764
 30
0.0
 10
413.510561
 20
176.525264
 30
0.0
 10
412.699172
 20
176.525264
 30
0.0
 10
412.699172
 20
171.515819
 30
0.0
 10
413.510561
 20
171.515819
 30
0.0
 10
413.510561
 20
168.014500
 30
0.0
 10
412.699172
 20
168.014500
 30
0.0
 10
412.699172
 20
167.035542
 30
0.0
 10
411.711394
 20
167.035542
 30
0.0
 10
411.711394
 20
166.224153
 30
0.0
 10
408.218894
 20
166.224153
 30
0.0
 10
408.218894
 20
167.035542
 30
0.0
 10
403.209450
 20
167.035542
 30
0.0
 10
403.209450
 20
166.224153
 30
0.0
 10
399.708144
 20
166.224153
 30
0.0
 10
399.708144
 20
167.035542
 30
0.0
 10
398.729172
 20
167.035542
 30
0.0
 10
398.729172
 20
168.014500
 30
0.0
 10
397.917783
 20
168.014500
 30
0.0
 10
397.917783
 20
171.515819
 30
0.0
 10
398.729172
 20
171.515819
 30
0.0
 10
398.729172
 20
176.525264
 30
0.0
 10
397.917783
 20
176.525264
 30
0.0
 10
397.917783
 20
180.017764
 30
0.0
 10
398.729172
 20
180.017764
 30
0.0
 10
398.729172
 20
181.005542
 30
0.0
 10
399.708144
 20
181.005542
 30
0.0
 10
399.708144
 20
181.816930
 30
0.0
 10
399.708144
 20
181.816930
 30
0.0
  0
LWPOLYLINE
  5
118
100
AcDbEntity
  8
Layer_1
 62
7
100
AcDbPolyline
 90
6
 70
0
 10
415.239172
 20
216.883042
 30
0.0
 10
415.239172
 20
197.833042
 30
0.0
 10
434.289172
 20
197.833042
 30
0.0
 10
434.289172
 20
216.883042
 30
0.0
 10
415.239172
 20
216.883042
 30
0.0
 10
415.239172
 20
216.883042
 30
0.0
  0
LWPOLYLINE
  5
119
100
AcDbEntity
  8
Layer_1
 62
7
100
AcDbPolyline
 90
38
 70
0
 10
418.758144
 20
215.154430
 30
0.0
 10
422.259450
 20
215.154430
 30
0.0
 10
422.259450
 20
214.343042
 30
0.0
 10
427.268894
 20
214.343042
 30
0.0
 10
427.268894
 20
215.154430
 30
0.0
 10
430.761394
 20
215.154430
 30
0.0
 10
430.761394
 20
214.343042
 30
0.0
 10
431.749172
 20
214.343042
 30
0.0
 10
431.749172
 20
213.355264
 30
0.0
 10
432.560561
 20
213.355264
 30
0.0
 10
432.560561
 20
209.862764
 30
0.0
 10
431.749172
 20
209.862764
 30
0.0
 10
431.749172
 20
204.853319
 30
0.0
 10
432.560561
 20
204.853319
 30
0.0
 10
432.560561
 20
201.352000
 30
0.0
 10
431.749172
 20
201.352000
 30
0.0
 10
431.749172
 20
200.373042
 30
0.0
 10
430.761394
 20
200.373042
 30
0.0
 10
430.761394
 20
199.561653
 30
0.0
 10
427.268894
 20
199.561653
 30
0.0
 10
427.268894
 20
200.373042
 30
0.0
 10
422.259450
 20
200.373042
 30
0.0
 10
422.259450
 20
199.561653
 30
0.0
 10
418.758144
 20
199.561653
 30
0.0
 10
418.758144
 20
200.373042
 30
0.0
 10
417.779172
 20
200.373042
 30
0.0
 10
417.779172
 20
201.352000
 30
0.0
 10
416.967783
 20
201.352000
 30
0.0
 10
416.967783
 20
204.853319
 30
0.0
 10
417.779172
 20
204.853319
 30
0.0
 10
417.779172
 20
209.862764
 30
0.0
 10
416.967783
 20
209.862764
 30
0.0
 10
416.967783
 20
213.355264
 30
0.0
 10
417.779172
 20
213.355264
 30
0.0
 10
417.779172
 20
214.343042
 30
0.0
 10
418.758144
 20
214.343042
 30
0.0
 10
418.758144
 20
215.154430
 30
0.0
 10
418.758144
 20
215.154430
 30
0.0
  0
LWPOLYLINE
  5
11a
100
AcDbEntity
  8
Layer_1
 62
7
100
AcDbPolyline
 90
6
 70
0
 10
415.239172
 20
197.833042
 30
0.0
 10
415.239172
 20
178.783042
 30
0.0
 10
434.289172
 20
178.783042
 30
0.0
 10
434.289172
 20
197.833042
 30
0.0
 10
415.239172
 20
197.833042
 30
0.0
 10
415.239172
 20
197.833042
 30
0.0
  0
LWPOLYLINE
  5
11b
100
AcDbEntity
  8
Layer_1
 62
7
100
AcDbPolyline
 90
38
 70
0
 10
418.758144
 20
196.104430
 30
0.0
 10
422.259450
 20
196.104430
 30
0.0
 10
422.259450
 20
195.293042
 30
0.0
 10
427.268894
 20
195.293042
 30
0.0
 10
427.268894
 20
196.104430
 30
0.0
 10
430.761394
 20
196.104430
 30
0.0
 10
430.761394
 20
195.293042
 30
0.0
 10
431.749172
 20
195.293042
 30
0.0
 10
431.749172
 20
194.305264
 30
0.0
 10
432.560561
 20
194.305264
 30
0.0
 10
432.560561
 20
190.812764
 30
0.0
 10
431.749172
 20
190.812764
 30
0.0
 10
431.749172
 20
185.803319
 30
0.0
 10
432.560561
 20
185.803319
 30
0.0
 10
432.560561
 20
182.302000
 30
0.0
 10
431.749172
 20
182.302000
 30
0.0
 10
431.749172
 20
181.323042
 30
0.0
 10
430.761394
 20
181.323042
 30
0.0
 10
430.761394
 20
180.511653
 30
0.0
 10
427.268894
 20
180.511653
 30
0.0
 10
427.268894
 20
181.323042
 30
0.0
 10
422.259450
 20
181.323042
 30
0.0
 10
422.259450
 20
180.511653
 30
0.0
 10
418.758144
 20
180.511653
 30
0.0
 10
418.758144
 20
181.323042
 30
0.0
 10
417.779172
 20
181.323042
 30
0.0
 10
417.779172
 20
182.302000
 30
0.0
 10
416.967783
 20
182.302000
 30
0.0
 10
416.967783
 20
185.803319
 30
0.0
 10
417.779172
 20
185.803319
 30
0.0
 10
417.779172
 20
190.812764
 30
0.0
 10
416.967783
 20
190.812764
 30
0.0
 10
416.967783
 20
194.305264
 30
0.0
 10
417.779172
 20
194.305264
 30
0.0
 10
417.779172
 20
195.293042
 30
0.0
 10
418.758144
 20
195.293042
 30
0.0
 10
418.758144
 20
196.104430
 30
0.0
 10
418.758144
 20
196.104430
 30
0.0
  0
LWPOLYLINE
  5
11c
100
AcDbEntity
  8
Layer_1
 62
7
100
AcDbPolyline
 90
6
 70
0
 10
415.239172
 20
178.783042
 30
0.0
 10
415.239172
 20
159.733042
 30
0.0
 10
434.289172
 20
159.733042
 30
0.0
 10
434.289172
 20
178.783042
 30
0.0
 10
415.239172
 20
178.783042
 30
0.0
 10
415.239172
 20
178.783042
 30
0.0
  0
LWPOLYLINE
  5
11d
100
AcDbEntity
  8
Layer_1
 62
7
100
AcDbPolyline
 90
38
 70
0
 10
418.758144
 20
177.054430
 30
0.0
 10
422.259450
 20
177.054430
 30
0.0
 10
422.259450
 20
176.243042
 30
0.0
 10
427.268894
 20
176.243042
 30
0.0
 10
427.268894
 20
177.054430
 30
0.0
 10
430.761394
 20
177.054430
 30
0.0
 10
430.761394
 20
176.243042
 30
0.0
 10
431.749172
 20
176.243042
 30
0.0
 10
431.749172
 20
175.255264
 30
0.0
 10
432.560561
 20
175.255264
 30
0.0
 10
432.560561
 20
171.762764
 30
0.0
 10
431.749172
 20
171.762764
 30
0.0
 10
431.749172
 20
166.753319
 30
0.0
 10
432.560561
 20
166.753319
 30
0.0
 10
432.560561
 20
163.252000
 30
0.0
 10
431.749172
 20
163.252000
 30
0.0
 10
431.749172
 20
162.273042
 30
0.0
 10
430.761394
 20
162.273042
 30
0.0
 10
430.761394
 20
161.461653
 30
0.0
 10
427.268894
 20
161.461653
 30
0.0
 10
427.268894
 20
162.273042
 30
0.0
 10
422.259450
 20
162.273042
 30
0.0
 10
422.259450
 20
161.461653
 30
0.0
 10
418.758144
 20
161.461653
 30
0.0
 10
418.758144
 20
162.273042
 30
0.0
 10
417.779172
 20
162.273042
 30
0.0
 10
417.779172
 20
163.252000
 30
0.0
 10
416.967783
 20
163.252000
 30
0.0
 10
416.967783
 20
166.753319
 30
0.0
 10
417.779172
 20
166.753319
 30
0.0
 10
417.779172
 20
171.762764
 30
0.0
 10
416.967783
 20
171.762764
 30
0.0
 10
416.967783
 20
175.255264
 30
0.0
 10
417.779172
 20
175.255264
 30
0.0
 10
417.779172
 20
176.243042
 30
0.0
 10
418.758144
 20
176.243042
 30
0.0
 10
418.758144
 20
177.054430
 30
0.0
 10
418.758144
 20
177.054430
 30
0.0
  0
LWPOLYLINE
  5
11e
100
AcDbEntity
  8
Layer_1
 62
7
100
AcDbPolyline
 90
6
 70
0
 10
434.289172
 20
216.883042
 30
0.0
 10
434.289172
 20
197.833042
 30
0.0
 10
453.339172
 20
197.833042
 30
0.0
 10
453.339172
 20
216.883042
 30
0.0
 10
434.289172
 20
216.883042
 30
0.0
 10
434.289172
 20
216.883042
 30
0.0
  0
LWPOLYLINE
  5
11f
100
AcDbEntity
  8
Layer_1
 62
7
100
AcDbPolyline
 90
38
 70
0
 10
437.808144
 20
215.154430
 30
0.0
 10
441.309450
 20
215.154430
 30
0.0
 10
441.309450
 20
214.343042
 30
0.0
 10
446.318894
 20
214.343042
 30
0.0
 10
446.318894
 20
215.154430
 30
0.0
 10
449.811394
 20
215.154430
 30
0.0
 10
449.811394
 20
214.343042
 30
0.0
 10
450.799172
 20
214.343042
 30
0.0
 10
450.799172
 20
213.355264
 30
0.0
 10
451.610561
 20
213.355264
 30
0.0
 10
451.610561
 20
209.862764
 30
0.0
 10
450.799172
 20
209.862764
 30
0.0
 10
450.799172
 20
204.853319
 30
0.0
 10
451.610561
 20
204.853319
 30
0.0
 10
451.610561
 20
201.352000
 30
0.0
 10
450.799172
 20
201.352000
 30
0.0
 10
450.799172
 20
200.373042
 30
0.0
 10
449.811394
 20
200.373042
 30
0.0
 10
449.811394
 20
199.561653
 30
0.0
 10
446.318894
 20
199.561653
 30
0.0
 10
446.318894
 20
200.373042
 30
0.0
 10
441.309450
 20
200.373042
 30
0.0
 10
441.309450
 20
199.561653
 30
0.0
 10
437.808144
 20
199.561653
 30
0.0
 10
437.808144
 20
200.373042
 30
0.0
 10
436.829172
 20
200.373042
 30
0.0
 10
436.829172
 20
201.352000
 30
0.0
 10
436.017783
 20
201.352000
 30
0.0
 10
436.017783
 20
204.853319
 30
0.0
 10
436.829172
 20
204.853319
 30
0.0
 10
436.829172
 20
209.862764
 30
0.0
 10
436.017783
 20
209.862764
 30
0.0
 10
436.017783
 20
213.355264
 30
0.0
 10
436.829172
 20
213.355264
 30
0.0
 10
436.829172
 20
214.343042
 30
0.0
 10
437.808144
 20
214.343042
 30
0.0
 10
437.808144
 20
215.154430
 30
0.0
 10
437.808144
 20
215.154430
 30
0.0
  0
LWPOLYLINE
  5
120
100
AcDbEntity
  8
Layer_1
 62
7
100
AcDbPolyline
 90
6
 70
0
 10
434.289172
 20
197.833042
 30
0.0
 10
434.289172
 20
178.783042
 30
0.0
 10
453.339172
 20
178.783042
 30
0.0
 10
453.339172
 20
197.833042
 30
0.0
 10
434.289172
 20
197.833042
 30
0.0
 10
434.289172
 20
197.833042
 30
0.0
  0
LWPOLYLINE
  5
121
100
AcDbEntity
  8
Layer_1
 62
7
100
AcDbPolyline
 90
38
 70
0
 10
437.808144
 20
196.104430
 30
0.0
 10
441.309450
 20
196.104430
 30
0.0
 10
441.309450
 20
195.293042
 30
0.0
 10
446.318894
 20
195.293042
 30
0.0
 10
446.318894
 20
196.104430
 30
0.0
 10
449.811394
 20
196.104430
 30
0.0
 10
449.811394
 20
195.293042
 30
0.0
 10
450.799172
 20
195.293042
 30
0.0
 10
450.799172
 20
194.305264
 30
0.0
 10
451.610561
 20
194.305264
 30
0.0
 10
451.610561
 20
190.812764
 30
0.0
 10
450.799172
 20
190.812764
 30
0.0
 10
450.799172
 20
185.803319
 30
0.0
 10
451.610561
 20
185.803319
 30
0.0
 10
451.610561
 20
182.302000
 30
0.0
 10
450.799172
 20
182.302000
 30
0.0
 10
450.799172
 20
181.323042
 30
0.0
 10
449.811394
 20
181.323042
 30
0.0
 10
449.811394
 20
180.511653
 30
0.0
 10
446.318894
 20
180.511653
 30
0.0
 10
446.318894
 20
181.323042
 30
0.0
 10
441.309450
 20
181.323042
 30
0.0
 10
441.309450
 20
180.511653
 30
0.0
 10
437.808144
 20
180.511653
 30
0.0
 10
437.808144
 20
181.323042
 30
0.0
 10
436.829172
 20
181.323042
 30
0.0
 10
436.829172
 20
182.302000
 30
0.0
 10
436.017783
 20
182.302000
 30
0.0
 10
436.017783
 20
185.803319
 30
0.0
 10
436.829172
 20
185.803319
 30
0.0
 10
436.829172
 20
190.812764
 30
0.0
 10
436.017783
 20
190.812764
 30
0.0
 10
436.017783
 20
194.305264
 30
0.0
 10
436.829172
 20
194.305264
 30
0.0
 10
436.829172
 20
195.293042
 30
0.0
 10
437.808144
 20
195.293042
 30
0.0
 10
437.808144
 20
196.104430
 30
0.0
 10
437.808144
 20
196.104430
 30
0.0
  0
LWPOLYLINE
  5
122
100
AcDbEntity
  8
Layer_1
 62
7
100
AcDbPolyline
 90
6
 70
0
 10
434.289172
 20
178.783042
 30
0.0
 10
434.289172
 20
159.733042
 30
0.0
 10
453.339172
 20
159.733042
 30
0.0
 10
453.339172
 20
178.783042
 30
0.0
 10
434.289172
 20
178.783042
 30
0.0
 10
434.289172
 20
178.783042
 30
0.0
  0
LWPOLYLINE
  5
123
100
AcDbEntity
  8
Layer_1
 62
7
100
AcDbPolyline
 90
38
 70
0
 10
437.808144
 20
177.054430
 30
0.0
 10
441.309450
 20
177.054430
 30
0.0
 10
441.309450
 20
176.243042
 30
0.0
 10
446.318894
 20
176.243042
 30
0.0
 10
446.318894
 20
177.054430
 30
0.0
 10
449.811394
 20
177.054430
 30
0.0
 10
449.811394
 20
176.243042
 30
0.0
 10
450.799172
 20
176.243042
 30
0.0
 10
450.799172
 20
175.255264
 30
0.0
 10
451.610561
 20
175.255264
 30
0.0
 10
451.610561
 20
171.762764
 30
0.0
 10
450.799172
 20
171.762764
 30
0.0
 10
450.799172
 20
166.753319
 30
0.0
 10
451.610561
 20
166.753319
 30
0.0
 10
451.610561
 20
163.252000
 30
0.0
 10
450.799172
 20
163.252000
 30
0.0
 10
450.799172
 20
162.273042
 30
0.0
 10
449.811394
 20
162.273042
 30
0.0
 10
449.811394
 20
161.461653
 30
0.0
 10
446.318894
 20
161.461653
 30
0.0
 10
446.318894
 20
162.273042
 30
0.0
 10
441.309450
 20
162.273042
 30
0.0
 10
441.309450
 20
161.461653
 30
0.0
 10
437.808144
 20
161.461653
 30
0.0
 10
437.808144
 20
162.273042
 30
0.0
 10
436.829172
 20
162.273042
 30
0.0
 10
436.829172
 20
163.252000
 30
0.0
 10
436.017783
 20
163.252000
 30
0.0
 10
436.017783
 20
166.753319
 30
0.0
 10
436.829172
 20
166.753319
 30
0.0
 10
436.829172
 20
171.762764
 30
0.0
 10
436.017783
 20
171.762764
 30
0.0
 10
436.017783
 20
175.255264
 30
0.0
 10
436.829172
 20
175.255264
 30
0.0
 10
436.829172
 20
176.243042
 30
0.0
 10
437.808144
 20
176.243042
 30
0.0
 10
437.808144
 20
177.054430
 30
0.0
 10
437.808144
 20
177.054430
 30
0.0
  0
LWPOLYLINE
  5
124
100
AcDbEntity
  8
Layer_1
 62
7
100
AcDbPolyline
 90
6
 70
0
 10
453.339172
 20
216.883042
 30
0.0
 10
453.339172
 20
197.833042
 30
0.0
 10
472.389172
 20
197.833042
 30
0.0
 10
472.389172
 20
216.883042
 30
0.0
 10
453.339172
 20
216.883042
 30
0.0
 10
453.339172
 20
216.883042
 30
0.0
  0
LWPOLYLINE
  5
125
100
AcDbEntity
  8
Layer_1
 62
7
100
AcDbPolyline
 90
38
 70
0
 10
456.858144
 20
215.154430
 30
0.0
 10
460.359450
 20
215.154430
 30
0.0
 10
460.359450
 20
214.343042
 30
0.0
 10
465.368894
 20
214.343042
 30
0.0
 10
465.368894
 20
215.154430
 30
0.0
 10
468.861394
 20
215.154430
 30
0.0
 10
468.861394
 20
214.343042
 30
0.0
 10
469.849172
 20
214.343042
 30
0.0
 10
469.849172
 20
213.355264
 30
0.0
 10
470.660561
 20
213.355264
 30
0.0
 10
470.660561
 20
209.862764
 30
0.0
 10
469.849172
 20
209.862764
 30
0.0
 10
469.849172
 20
204.853319
 30
0.0
 10
470.660561
 20
204.853319
 30
0.0
 10
470.660561
 20
201.352000
 30
0.0
 10
469.849172
 20
201.352000
 30
0.0
 10
469.849172
 20
200.373042
 30
0.0
 10
468.861394
 20
200.373042
 30
0.0
 10
468.861394
 20
199.561653
 30
0.0
 10
465.368894
 20
199.561653
 30
0.0
 10
465.368894
 20
200.373042
 30
0.0
 10
460.359450
 20
200.373042
 30
0.0
 10
460.359450
 20
199.561653
 30
0.0
 10
456.858144
 20
199.561653
 30
0.0
 10
456.858144
 20
200.373042
 30
0.0
 10
455.879172
 20
200.373042
 30
0.0
 10
455.879172
 20
201.352000
 30
0.0
 10
455.067783
 20
201.352000
 30
0.0
 10
455.067783
 20
204.853319
 30
0.0
 10
455.879172
 20
204.853319
 30
0.0
 10
455.879172
 20
209.862764
 30
0.0
 10
455.067783
 20
209.862764
 30
0.0
 10
455.067783
 20
213.355264
 30
0.0
 10
455.879172
 20
213.355264
 30
0.0
 10
455.879172
 20
214.343042
 30
0.0
 10
456.858144
 20
214.343042
 30
0.0
 10
456.858144
 20
215.154430
 30
0.0
 10
456.858144
 20
215.154430
 30
0.0
  0
LWPOLYLINE
  5
126
100
AcDbEntity
  8
Layer_1
 62
7
100
AcDbPolyline
 90
10
 70
0
 10
339.039172
 20
159.733044
 30
0.0
 10
339.039172
 20
140.683044
 30
0.0
 10
339.039172
 20
121.633042
 30
0.0
 10
340.732505
 20
121.633042
 30
0.0
 10
356.395838
 20
121.633042
 30
0.0
 10
358.089172
 20
121.633042
 30
0.0
 10
358.089172
 20
140.683044
 30
0.0
 10
358.089172
 20
159.733044
 30
0.0
 10
339.039172
 20
159.733044
 30
0.0
 10
339.039172
 20
159.733044
 30
0.0
  0
LWPOLYLINE
  5
127
100
AcDbEntity
  8
Layer_1
 62
7
100
AcDbPolyline
 90
6
 70
0
 10
342.372922
 20
154.273808
 30
0.0
 10
356.342922
 20
154.238530
 30
0.0
 10
356.334173
 20
150.940058
 30
0.0
 10
342.364173
 20
150.966502
 30
0.0
 10
342.372922
 20
154.273794
 30
0.0
 10
342.372922
 20
154.273808
 30
0.0
  0
LWPOLYLINE
  5
128
100
AcDbEntity
  8
Layer_1
 62
7
100
AcDbPolyline
 90
38
 70
0
 10
342.558116
 20
148.479433
 30
0.0
 10
346.059450
 20
148.479433
 30
0.0
 10
346.059450
 20
147.668044
 30
0.0
 10
351.068894
 20
147.668044
 30
0.0
 10
351.068894
 20
148.479433
 30
0.0
 10
354.561394
 20
148.479433
 30
0.0
 10
354.561394
 20
147.668044
 30
0.0
 10
355.549172
 20
147.668044
 30
0.0
 10
355.549172
 20
146.680267
 30
0.0
 10
356.360561
 20
146.680267
 30
0.0
 10
356.360561
 20
143.187767
 30
0.0
 10
355.549172
 20
143.187767
 30
0.0
 10
355.549172
 20
138.178322
 30
0.0
 10
356.360561
 20
138.178322
 30
0.0
 10
356.360561
 20
134.677003
 30
0.0
 10
355.549172
 20
134.677003
 30
0.0
 10
355.549172
 20
133.698044
 30
0.0
 10
354.561394
 20
133.698044
 30
0.0
 10
354.561394
 20
132.886655
 30
0.0
 10
351.068894
 20
132.886655
 30
0.0
 10
351.068894
 20
133.698044
 30
0.0
 10
346.059450
 20
133.698044
 30
0.0
 10
346.059450
 20
132.886655
 30
0.0
 10
342.558116
 20
132.886655
 30
0.0
 10
342.558116
 20
133.698044
 30
0.0
 10
341.579172
 20
133.698044
 30
0.0
 10
341.579172
 20
134.677003
 30
0.0
 10
340.767783
 20
134.677003
 30
0.0
 10
340.767783
 20
138.178322
 30
0.0
 10
341.579172
 20
138.178322
 30
0.0
 10
341.579172
 20
143.187767
 30
0.0
 10
340.767783
 20
143.187767
 30
0.0
 10
340.767783
 20
146.680267
 30
0.0
 10
341.579172
 20
146.680267
 30
0.0
 10
341.579172
 20
147.668044
 30
0.0
 10
342.558116
 20
147.668044
 30
0.0
 10
342.558116
 20
148.479433
 30
0.0
 10
342.558116
 20
148.479433
 30
0.0
  0
LWPOLYLINE
  5
129
100
AcDbEntity
  8
Layer_1
 62
7
100
AcDbPolyline
 90
6
 70
0
 10
342.320005
 20
130.390750
 30
0.0
 10
356.290005
 20
130.364306
 30
0.0
 10
356.281256
 20
127.065833
 30
0.0
 10
342.311256
 20
127.092278
 30
0.0
 10
342.320005
 20
130.390750
 30
0.0
 10
342.320005
 20
130.390750
 30
0.0
  0
LWPOLYLINE
  5
12a
100
AcDbEntity
  8
Layer_1
 62
7
100
AcDbPolyline
 90
10
 70
0
 10
319.989172
 20
159.733044
 30
0.0
 10
319.989172
 20
140.683044
 30
0.0
 10
319.989172
 20
121.633044
 30
0.0
 10
321.682505
 20
121.633044
 30
0.0
 10
337.345838
 20
121.633044
 30
0.0
 10
339.039172
 20
121.633044
 30
0.0
 10
339.039172
 20
140.683044
 30
0.0
 10
339.039172
 20
159.733044
 30
0.0
 10
319.989172
 20
159.733044
 30
0.0
 10
319.989172
 20
159.733044
 30
0.0
  0
LWPOLYLINE
  5
12b
100
AcDbEntity
  8
Layer_1
 62
7
100
AcDbPolyline
 90
6
 70
0
 10
323.322922
 20
154.273808
 30
0.0
 10
337.292922
 20
154.238530
 30
0.0
 10
337.284173
 20
150.940058
 30
0.0
 10
323.314173
 20
150.966502
 30
0.0
 10
323.322922
 20
154.273794
 30
0.0
 10
323.322922
 20
154.273808
 30
0.0
  0
LWPOLYLINE
  5
12c
100
AcDbEntity
  8
Layer_1
 62
7
100
AcDbPolyline
 90
38
 70
0
 10
323.508116
 20
148.479433
 30
0.0
 10
327.009450
 20
148.479433
 30
0.0
 10
327.009450
 20
147.668044
 30
0.0
 10
332.018894
 20
147.668044
 30
0.0
 10
332.018894
 20
148.479433
 30
0.0
 10
335.511394
 20
148.479433
 30
0.0
 10
335.511394
 20
147.668044
 30
0.0
 10
336.499172
 20
147.668044
 30
0.0
 10
336.499172
 20
146.680267
 30
0.0
 10
337.310561
 20
146.680267
 30
0.0
 10
337.310561
 20
143.187767
 30
0.0
 10
336.499172
 20
143.187767
 30
0.0
 10
336.499172
 20
138.178322
 30
0.0
 10
337.310561
 20
138.178322
 30
0.0
 10
337.310561
 20
134.677003
 30
0.0
 10
336.499172
 20
134.677003
 30
0.0
 10
336.499172
 20
133.698044
 30
0.0
 10
335.511394
 20
133.698044
 30
0.0
 10
335.511394
 20
132.886655
 30
0.0
 10
332.018894
 20
132.886655
 30
0.0
 10
332.018894
 20
133.698044
 30
0.0
 10
327.009450
 20
133.698044
 30
0.0
 10
327.009450
 20
132.886655
 30
0.0
 10
323.508116
 20
132.886655
 30
0.0
 10
323.508116
 20
133.698044
 30
0.0
 10
322.529172
 20
133.698044
 30
0.0
 10
322.529172
 20
134.677003
 30
0.0
 10
321.717783
 20
134.677003
 30
0.0
 10
321.717783
 20
138.178322
 30
0.0
 10
322.529172
 20
138.178322
 30
0.0
 10
322.529172
 20
143.187767
 30
0.0
 10
321.717783
 20
143.187767
 30
0.0
 10
321.717783
 20
146.680267
 30
0.0
 10
322.529172
 20
146.680267
 30
0.0
 10
322.529172
 20
147.668044
 30
0.0
 10
323.508116
 20
147.668044
 30
0.0
 10
323.508116
 20
148.479433
 30
0.0
 10
323.508116
 20
148.479433
 30
0.0
  0
LWPOLYLINE
  5
12d
100
AcDbEntity
  8
Layer_1
 62
7
100
AcDbPolyline
 90
6
 70
0
 10
323.270005
 20
130.390753
 30
0.0
 10
337.240005
 20
130.364308
 30
0.0
 10
337.231256
 20
127.065836
 30
0.0
 10
323.261256
 20
127.092280
 30
0.0
 10
323.270005
 20
130.390753
 30
0.0
 10
323.270005
 20
130.390753
 30
0.0
  0
LWPOLYLINE
  5
12e
100
AcDbEntity
  8
Layer_1
 62
7
100
AcDbPolyline
 90
10
 70
0
 10
453.339172
 20
159.733042
 30
0.0
 10
434.289172
 20
159.733042
 30
0.0
 10
415.239172
 20
159.733042
 30
0.0
 10
415.239172
 20
158.039708
 30
0.0
 10
415.239172
 20
142.376375
 30
0.0
 10
415.239172
 20
140.683042
 30
0.0
 10
434.289172
 20
140.683042
 30
0.0
 10
453.339172
 20
140.683042
 30
0.0
 10
453.339172
 20
159.733042
 30
0.0
 10
453.339172
 20
159.733042
 30
0.0
  0
LWPOLYLINE
  5
12f
100
AcDbEntity
  8
Layer_1
 62
7
100
AcDbPolyline
 90
6
 70
0
 10
447.879950
 20
156.399292
 30
0.0
 10
447.844672
 20
142.429292
 30
0.0
 10
444.546200
 20
142.438097
 30
0.0
 10
444.572729
 20
156.408097
 30
0.0
 10
447.880034
 20
156.399292
 30
0.0
 10
447.879950
 20
156.399292
 30
0.0
  0
LWPOLYLINE
  5
130
100
AcDbEntity
  8
Layer_1
 62
7
100
AcDbPolyline
 90
38
 70
0
 10
442.085561
 20
156.214083
 30
0.0
 10
442.085561
 20
152.712764
 30
0.0
 10
441.274172
 20
152.712764
 30
0.0
 10
441.274172
 20
147.703319
 30
0.0
 10
442.085561
 20
147.703319
 30
0.0
 10
442.085561
 20
144.210819
 30
0.0
 10
441.274172
 20
144.210819
 30
0.0
 10
441.274172
 20
143.223042
 30
0.0
 10
440.286394
 20
143.223042
 30
0.0
 10
440.286394
 20
142.411653
 30
0.0
 10
436.793894
 20
142.411653
 30
0.0
 10
436.793894
 20
143.223042
 30
0.0
 10
431.784450
 20
143.223042
 30
0.0
 10
431.784450
 20
142.411653
 30
0.0
 10
428.283144
 20
142.411653
 30
0.0
 10
428.283144
 20
143.223042
 30
0.0
 10
427.304172
 20
143.223042
 30
0.0
 10
427.304172
 20
144.210819
 30
0.0
 10
426.492783
 20
144.210819
 30
0.0
 10
426.492783
 20
147.703319
 30
0.0
 10
427.304172
 20
147.703319
 30
0.0
 10
427.304172
 20
152.712764
 30
0.0
 10
426.492783
 20
152.712764
 30
0.0
 10
426.492783
 20
156.214083
 30
0.0
 10
427.304172
 20
156.214083
 30
0.0
 10
427.304172
 20
157.193042
 30
0.0
 10
428.283144
 20
157.193042
 30
0.0
 10
428.283144
 20
158.004430
 30
0.0
 10
431.784450
 20
158.004430
 30
0.0
 10
431.784450
 20
157.193042
 30
0.0
 10
436.793894
 20
157.193042
 30
0.0
 10
436.793894
 20
158.004430
 30
0.0
 10
440.286394
 20
158.004430
 30
0.0
 10
440.286394
 20
157.193042
 30
0.0
 10
441.274172
 20
157.193042
 30
0.0
 10
441.274172
 20
156.214083
 30
0.0
 10
442.085561
 20
156.214083
 30
0.0
 10
442.085561
 20
156.214083
 30
0.0
  0
LWPOLYLINE
  5
131
100
AcDbEntity
  8
Layer_1
 62
7
100
AcDbPolyline
 90
6
 70
0
 10
423.996894
 20
156.452208
 30
0.0
 10
423.970365
 20
142.482208
 30
0.0
 10
420.671893
 20
142.491014
 30
0.0
 10
420.698422
 20
156.461014
 30
0.0
 10
423.996894
 20
156.452208
 30
0.0
 10
423.996894
 20
156.452208
 30
0.0
  0
LWPOLYLINE
  5
132
100
AcDbEntity
  8
Layer_1
 62
7
100
AcDbPolyline
 90
8
 70
0
 10
358.089172
 20
162.114292
 30
0.0
 10
358.089172
 20
143.064292
 30
0.0
 10
377.139172
 20
143.064292
 30
0.0
 10
386.664172
 20
143.064292
 30
0.0
 10
386.664172
 20
162.114292
 30
0.0
 10
377.139172
 20
162.114292
 30
0.0
 10
358.089172
 20
162.114292
 30
0.0
 10
358.089172
 20
162.114292
 30
0.0
  0
LWPOLYLINE
  5
133
100
AcDbEntity
  8
Layer_1
 62
7
100
AcDbPolyline
 90
38
 70
0
 10
366.370644
 20
160.385680
 30
0.0
 10
369.871950
 20
160.385680
 30
0.0
 10
369.871950
 20
159.574292
 30
0.0
 10
374.881394
 20
159.574292
 30
0.0
 10
374.881394
 20
160.385680
 30
0.0
 10
378.373894
 20
160.385680
 30
0.0
 10
378.373894
 20
159.574292
 30
0.0
 10
379.361672
 20
159.574292
 30
0.0
 10
379.361672
 20
158.586514
 30
0.0
 10
380.173061
 20
158.586514
 30
0.0
 10
380.173061
 20
155.094014
 30
0.0
 10
379.361672
 20
155.094014
 30
0.0
 10
379.361672
 20
150.084569
 30
0.0
 10
380.173061
 20
150.084569
 30
0.0
 10
380.173061
 20
146.583250
 30
0.0
 10
379.361672
 20
146.583250
 30
0.0
 10
379.361672
 20
145.604292
 30
0.0
 10
378.373894
 20
145.604292
 30
0.0
 10
378.373894
 20
144.792903
 30
0.0
 10
374.881394
 20
144.792903
 30
0.0
 10
374.881394
 20
145.604292
 30
0.0
 10
369.871950
 20
145.604292
 30
0.0
 10
369.871950
 20
144.792903
 30
0.0
 10
366.370644
 20
144.792903
 30
0.0
 10
366.370644
 20
145.604292
 30
0.0
 10
365.391672
 20
145.604292
 30
0.0
 10
365.391672
 20
146.583250
 30
0.0
 10
364.580283
 20
146.583250
 30
0.0
 10
364.580283
 20
150.084569
 30
0.0
 10
365.391672
 20
150.084569
 30
0.0
 10
365.391672
 20
155.094014
 30
0.0
 10
364.580283
 20
155.094014
 30
0.0
 10
364.580283
 20
158.586514
 30
0.0
 10
365.391672
 20
158.586514
 30
0.0
 10
365.391672
 20
159.574292
 30
0.0
 10
366.370644
 20
159.574292
 30
0.0
 10
366.370644
 20
160.385680
 30
0.0
 10
366.370644
 20
160.385680
 30
0.0
  0
LWPOLYLINE
  5
134
100
AcDbEntity
  8
Layer_1
 62
7
100
AcDbPolyline
 90
8
 70
0
 10
386.664172
 20
159.733044
 30
0.0
 10
386.664172
 20
140.683044
 30
0.0
 10
405.714172
 20
140.683044
 30
0.0
 10
415.239172
 20
140.683044
 30
0.0
 10
415.239172
 20
159.733044
 30
0.0
 10
405.714172
 20
159.733044
 30
0.0
 10
386.664172
 20
159.733044
 30
0.0
 10
386.664172
 20
159.733044
 30
0.0
  0
LWPOLYLINE
  5
135
100
AcDbEntity
  8
Layer_1
 62
7
100
AcDbPolyline
 90
38
 70
0
 10
394.945644
 20
158.004433
 30
0.0
 10
398.446950
 20
158.004433
 30
0.0
 10
398.446950
 20
157.193044
 30
0.0
 10
403.456394
 20
157.193044
 30
0.0
 10
403.456394
 20
158.004433
 30
0.0
 10
406.948894
 20
158.004433
 30
0.0
 10
406.948894
 20
157.193044
 30
0.0
 10
407.936672
 20
157.193044
 30
0.0
 10
407.936672
 20
156.205267
 30
0.0
 10
408.748061
 20
156.205267
 30
0.0
 10
408.748061
 20
152.712767
 30
0.0
 10
407.936672
 20
152.712767
 30
0.0
 10
407.936672
 20
147.703322
 30
0.0
 10
408.748061
 20
147.703322
 30
0.0
 10
408.748061
 20
144.202003
 30
0.0
 10
407.936672
 20
144.202003
 30
0.0
 10
407.936672
 20
143.223044
 30
0.0
 10
406.948894
 20
143.223044
 30
0.0
 10
406.948894
 20
142.411655
 30
0.0
 10
403.456394
 20
142.411655
 30
0.0
 10
403.456394
 20
143.223044
 30
0.0
 10
398.446950
 20
143.223044
 30
0.0
 10
398.446950
 20
142.411655
 30
0.0
 10
394.945644
 20
142.411655
 30
0.0
 10
394.945644
 20
143.223044
 30
0.0
 10
393.966672
 20
143.223044
 30
0.0
 10
393.966672
 20
144.202003
 30
0.0
 10
393.155283
 20
144.202003
 30
0.0
 10
393.155283
 20
147.703322
 30
0.0
 10
393.966672
 20
147.703322
 30
0.0
 10
393.966672
 20
152.712767
 30
0.0
 10
393.155283
 20
152.712767
 30
0.0
 10
393.155283
 20
156.205267
 30
0.0
 10
393.966672
 20
156.205267
 30
0.0
 10
393.966672
 20
157.193044
 30
0.0
 10
394.945644
 20
157.193044
 30
0.0
 10
394.945644
 20
158.004433
 30
0.0
 10
394.945644
 20
158.004433
 30
0.0
  0
LWPOLYLINE
  5
136
100
AcDbEntity
  8
Layer_1
 62
7
100
AcDbPolyline
 90
8
 70
0
 10
339.039172
 20
188.308044
 30
0.0
 10
319.989172
 20
188.308044
 30
0.0
 10
319.989172
 20
169.258044
 30
0.0
 10
319.989172
 20
159.733044
 30
0.0
 10
339.039172
 20
159.733044
 30
0.0
 10
339.039172
 20
169.258044
 30
0.0
 10
339.039172
 20
188.308044
 30
0.0
 10
339.039172
 20
188.308044
 30
0.0
  0
LWPOLYLINE
  5
137
100
AcDbEntity
  8
Layer_1
 62
7
100
AcDbPolyline
 90
38
 70
0
 10
337.310561
 20
180.026586
 30
0.0
 10
337.310561
 20
176.525267
 30
0.0
 10
336.499172
 20
176.525267
 30
0.0
 10
336.499172
 20
171.515822
 30
0.0
 10
337.310561
 20
171.515822
 30
0.0
 10
337.310561
 20
168.023322
 30
0.0
 10
336.499172
 20
168.023322
 30
0.0
 10
336.499172
 20
167.035544
 30
0.0
 10
335.511394
 20
167.035544
 30
0.0
 10
335.511394
 20
166.224155
 30
0.0
 10
332.018894
 20
166.224155
 30
0.0
 10
332.018894
 20
167.035544
 30
0.0
 10
327.009450
 20
167.035544
 30
0.0
 10
327.009450
 20
166.224155
 30
0.0
 10
323.508144
 20
166.224155
 30
0.0
 10
323.508144
 20
167.035544
 30
0.0
 10
322.529172
 20
167.035544
 30
0.0
 10
322.529172
 20
168.023322
 30
0.0
 10
321.717783
 20
168.023322
 30
0.0
 10
321.717783
 20
171.515822
 30
0.0
 10
322.529172
 20
171.515822
 30
0.0
 10
322.529172
 20
176.525267
 30
0.0
 10
321.717783
 20
176.525267
 30
0.0
 10
321.717783
 20
180.026586
 30
0.0
 10
322.529172
 20
180.026586
 30
0.0
 10
322.529172
 20
181.005544
 30
0.0
 10
323.508144
 20
181.005544
 30
0.0
 10
323.508144
 20
181.816933
 30
0.0
 10
327.009450
 20
181.816933
 30
0.0
 10
327.009450
 20
181.005544
 30
0.0
 10
332.018894
 20
181.005544
 30
0.0
 10
332.018894
 20
181.816933
 30
0.0
 10
335.511394
 20
181.816933
 30
0.0
 10
335.511394
 20
181.005544
 30
0.0
 10
336.499172
 20
181.005544
 30
0.0
 10
336.499172
 20
180.026586
 30
0.0
 10
337.310561
 20
180.026586
 30
0.0
 10
337.310561
 20
180.026586
 30
0.0
  0
LWPOLYLINE
  5
138
100
AcDbEntity
  8
Layer_1
 62
7
100
AcDbPolyline
 90
8
 70
0
 10
339.039172
 20
216.883044
 30
0.0
 10
319.989172
 20
216.883044
 30
0.0
 10
319.989172
 20
197.833044
 30
0.0
 10
319.989172
 20
188.308044
 30
0.0
 10
339.039172
 20
188.308044
 30
0.0
 10
339.039172
 20
197.833044
 30
0.0
 10
339.039172
 20
216.883044
 30
0.0
 10
339.039172
 20
216.883044
 30
0.0
  0
LWPOLYLINE
  5
139
100
AcDbEntity
  8
Layer_1
 62
7
100
AcDbPolyline
 90
38
 70
0
 10
337.310561
 20
208.601586
 30
0.0
 10
337.310561
 20
205.100267
 30
0.0
 10
336.499172
 20
205.100267
 30
0.0
 10
336.499172
 20
200.090822
 30
0.0
 10
337.310561
 20
200.090822
 30
0.0
 10
337.310561
 20
196.598322
 30
0.0
 10
336.499172
 20
196.598322
 30
0.0
 10
336.499172
 20
195.610544
 30
0.0
 10
335.511394
 20
195.610544
 30
0.0
 10
335.511394
 20
194.799155
 30
0.0
 10
332.018894
 20
194.799155
 30
0.0
 10
332.018894
 20
195.610544
 30
0.0
 10
327.009450
 20
195.610544
 30
0.0
 10
327.009450
 20
194.799155
 30
0.0
 10
323.508144
 20
194.799155
 30
0.0
 10
323.508144
 20
195.610544
 30
0.0
 10
322.529172
 20
195.610544
 30
0.0
 10
322.529172
 20
196.598322
 30
0.0
 10
321.717783
 20
196.598322
 30
0.0
 10
321.717783
 20
200.090822
 30
0.0
 10
322.529172
 20
200.090822
 30
0.0
 10
322.529172
 20
205.100267
 30
0.0
 10
321.717783
 20
205.100267
 30
0.0
 10
321.717783
 20
208.601586
 30
0.0
 10
322.529172
 20
208.601586
 30
0.0
 10
322.529172
 20
209.580544
 30
0.0
 10
323.508144
 20
209.580544
 30
0.0
 10
323.508144
 20
210.391933
 30
0.0
 10
327.009450
 20
210.391933
 30
0.0
 10
327.009450
 20
209.580544
 30
0.0
 10
332.018894
 20
209.580544
 30
0.0
 10
332.018894
 20
210.391933
 30
0.0
 10
335.511394
 20
210.391933
 30
0.0
 10
335.511394
 20
209.580544
 30
0.0
 10
336.499172
 20
209.580544
 30
0.0
 10
336.499172
 20
208.601586
 30
0.0
 10
337.310561
 20
208.601586
 30
0.0
 10
337.310561
 20
208.601586
 30
0.0
  0
LWPOLYLINE
  5
13a
100
AcDbEntity
  8
Layer_1
 62
7
100
AcDbPolyline
 90
10
 70
0
 10
358.089172
 20
121.633044
 30
0.0
 10
339.039172
 20
121.633044
 30
0.0
 10
319.989172
 20
121.633044
 30
0.0
 10
319.989172
 20
119.939711
 30
0.0
 10
319.989172
 20
104.276378
 30
0.0
 10
319.989172
 20
102.583044
 30
0.0
 10
339.039172
 20
102.583044
 30
0.0
 10
358.089172
 20
102.583044
 30
0.0
 10
358.089172
 20
121.633044
 30
0.0
 10
358.089172
 20
121.633044
 30
0.0
  0
LWPOLYLINE
  5
13b
100
AcDbEntity
  8
Layer_1
 62
7
100
AcDbPolyline
 90
6
 70
0
 10
352.629950
 20
118.299294
 30
0.0
 10
352.594672
 20
104.329294
 30
0.0
 10
349.296200
 20
104.338100
 30
0.0
 10
349.322729
 20
118.308100
 30
0.0
 10
352.630034
 20
118.299294
 30
0.0
 10
352.629950
 20
118.299294
 30
0.0
  0
LWPOLYLINE
  5
13c
100
AcDbEntity
  8
Layer_1
 62
7
100
AcDbPolyline
 90
38
 70
0
 10
346.835561
 20
118.114086
 30
0.0
 10
346.835561
 20
114.612767
 30
0.0
 10
346.024172
 20
114.612767
 30
0.0
 10
346.024172
 20
109.603322
 30
0.0
 10
346.835561
 20
109.603322
 30
0.0
 10
346.835561
 20
106.110822
 30
0.0
 10
346.024172
 20
106.110822
 30
0.0
 10
346.024172
 20
105.123044
 30
0.0
 10
345.036394
 20
105.123044
 30
0.0
 10
345.036394
 20
104.311655
 30
0.0
 10
341.543894
 20
104.311655
 30
0.0
 10
341.543894
 20
105.123044
 30
0.0
 10
336.534450
 20
105.123044
 30
0.0
 10
336.534450
 20
104.311655
 30
0.0
 10
333.033144
 20
104.311655
 30
0.0
 10
333.033144
 20
105.123044
 30
0.0
 10
332.054172
 20
105.123044
 30
0.0
 10
332.054172
 20
106.110822
 30
0.0
 10
331.242783
 20
106.110822
 30
0.0
 10
331.242783
 20
109.603322
 30
0.0
 10
332.054172
 20
109.603322
 30
0.0
 10
332.054172
 20
114.612767
 30
0.0
 10
331.242783
 20
114.612767
 30
0.0
 10
331.242783
 20
118.114086
 30
0.0
 10
332.054172
 20
118.114086
 30
0.0
 10
332.054172
 20
119.093044
 30
0.0
 10
333.033144
 20
119.093044
 30
0.0
 10
333.033144
 20
119.904433
 30
0.0
 10
336.534450
 20
119.904433
 30
0.0
 10
336.534450
 20
119.093044
 30
0.0
 10
341.543894
 20
119.093044
 30
0.0
 10
341.543894
 20
119.904433
 30
0.0
 10
345.036394
 20
119.904433
 30
0.0
 10
345.036394
 20
119.093044
 30
0.0
 10
346.024172
 20
119.093044
 30
0.0
 10
346.024172
 20
118.114086
 30
0.0
 10
346.835561
 20
118.114086
 30
0.0
 10
346.835561
 20
118.114086
 30
0.0
  0
LWPOLYLINE
  5
13d
100
AcDbEntity
  8
Layer_1
 62
7
100
AcDbPolyline
 90
6
 70
0
 10
328.746866
 20
118.352211
 30
0.0
 10
328.720337
 20
104.382211
 30
0.0
 10
325.421865
 20
104.391016
 30
0.0
 10
325.448394
 20
118.361016
 30
0.0
 10
328.746866
 20
118.352211
 30
0.0
 10
328.746866
 20
118.352211
 30
0.0
  0
LWPOLYLINE
  5
13e
100
AcDbEntity
  8
Layer_1
 62
7
100
AcDbPolyline
 90
5
 70
0
 10
358.089172
 20
102.583039
 30
0.0
 10
319.989172
 20
102.583039
 30
0.0
 10
319.989172
 20
100.854276
 30
0.0
 10
358.089172
 20
100.854276
 30
0.0
 10
358.089172
 20
102.583039
 30
0.0
  0
LWPOLYLINE
  5
13f
100
AcDbEntity
  8
Layer_1
 62
7
100
AcDbPolyline
 90
5
 70
0
 10
386.664172
 20
143.064289
 30
0.0
 10
358.089211
 20
143.064289
 30
0.0
 10
358.089211
 20
141.335526
 30
0.0
 10
386.664172
 20
141.335526
 30
0.0
 10
386.664172
 20
143.064289
 30
0.0
  0
LWPOLYLINE
  5
140
100
AcDbEntity
  8
Layer_1
 62
7
100
AcDbPolyline
 90
5
 70
0
 10
472.389228
 20
218.611805
 30
0.0
 10
415.239211
 20
218.611805
 30
0.0
 10
415.239211
 20
216.883043
 30
0.0
 10
472.389228
 20
216.883043
 30
0.0
 10
472.389228
 20
218.611805
 30
0.0
  0
LWPOLYLINE
  5
141
100
AcDbEntity
  8
Layer_1
 62
7
100
AcDbPolyline
 90
5
 70
0
 10
359.817980
 20
100.854275
 30
0.0
 10
359.817980
 20
141.335531
 30
0.0
 10
358.089218
 20
141.335531
 30
0.0
 10
358.089218
 20
100.854275
 30
0.0
 10
359.817980
 20
100.854275
 30
0.0
  0
LWPOLYLINE
  5
142
100
AcDbEntity
  8
Layer_1
 62
7
100
AcDbPolyline
 90
5
 70
0
 10
319.989172
 20
100.854275
 30
0.0
 10
319.989172
 20
218.611808
 30
0.0
 10
318.260409
 20
218.611808
 30
0.0
 10
318.260409
 20
100.854275
 30
0.0
 10
319.989172
 20
100.854275
 30
0.0
  0
LWPOLYLINE
  5
143
100
AcDbEntity
  8
Layer_1
 62
7
100
AcDbPolyline
 90
5
 70
0
 10
474.117980
 20
138.954275
 30
0.0
 10
474.117980
 20
218.611808
 30
0.0
 10
472.389218
 20
218.611808
 30
0.0
 10
472.389218
 20
138.954275
 30
0.0
 10
474.117980
 20
138.954275
 30
0.0
  0
LWPOLYLINE
  5
144
100
AcDbEntity
  8
Layer_1
 62
7
100
AcDbPolyline
 90
6
 70
0
 10
377.139172
 20
166.876789
 30
0.0
 10
377.139172
 20
162.114292
 30
0.0
 10
396.189172
 20
162.114292
 30
0.0
 10
396.189172
 20
166.876789
 30
0.0
 10
377.139172
 20
166.876789
 30
0.0
 10
377.139172
 20
166.876789
 30
0.0
  0
LWPOLYLINE
  5
145
100
AcDbEntity
  8
Layer_1
 62
7
100
AcDbPolyline
 90
6
 70
0
 10
396.189172
 20
164.495542
 30
0.0
 10
396.189172
 20
162.114294
 30
0.0
 10
415.239172
 20
162.114294
 30
0.0
 10
415.239172
 20
164.495542
 30
0.0
 10
396.189172
 20
164.495542
 30
0.0
 10
396.189172
 20
164.495542
 30
0.0
  0
LWPOLYLINE
  5
146
100
AcDbEntity
  8
Layer_1
 62
7
100
AcDbPolyline
 90
8
 70
0
 10
472.389172
 20
169.258042
 30
0.0
 10
453.339172
 20
169.258042
 30
0.0
 10
453.339172
 20
150.208042
 30
0.0
 10
453.339172
 20
140.683042
 30
0.0
 10
472.389172
 20
140.683042
 30
0.0
 10
472.389172
 20
150.208042
 30
0.0
 10
472.389172
 20
169.258042
 30
0.0
 10
472.389172
 20
169.258042
 30
0.0
  0
LWPOLYLINE
  5
147
100
AcDbEntity
  8
Layer_1
 62
7
100
AcDbPolyline
 90
38
 70
0
 10
470.660561
 20
160.976583
 30
0.0
 10
470.660561
 20
157.475264
 30
0.0
 10
469.849172
 20
157.475264
 30
0.0
 10
469.849172
 20
152.465819
 30
0.0
 10
470.660561
 20
152.465819
 30
0.0
 10
470.660561
 20
148.973319
 30
0.0
 10
469.849172
 20
148.973319
 30
0.0
 10
469.849172
 20
147.985542
 30
0.0
 10
468.861394
 20
147.985542
 30
0.0
 10
468.861394
 20
147.174153
 30
0.0
 10
465.368894
 20
147.174153
 30
0.0
 10
465.368894
 20
147.985542
 30
0.0
 10
460.359450
 20
147.985542
 30
0.0
 10
460.359450
 20
147.174153
 30
0.0
 10
456.858144
 20
147.174153
 30
0.0
 10
456.858144
 20
147.985542
 30
0.0
 10
455.879172
 20
147.985542
 30
0.0
 10
455.879172
 20
148.973319
 30
0.0
 10
455.067783
 20
148.973319
 30
0.0
 10
455.067783
 20
152.465819
 30
0.0
 10
455.879172
 20
152.465819
 30
0.0
 10
455.879172
 20
157.475264
 30
0.0
 10
455.067783
 20
157.475264
 30
0.0
 10
455.067783
 20
160.976583
 30
0.0
 10
455.879172
 20
160.976583
 30
0.0
 10
455.879172
 20
161.955542
 30
0.0
 10
456.858144
 20
161.955542
 30
0.0
 10
456.858144
 20
162.766930
 30
0.0
 10
460.359450
 20
162.766930
 30
0.0
 10
460.359450
 20
161.955542
 30
0.0
 10
465.368894
 20
161.955542
 30
0.0
 10
465.368894
 20
162.766930
 30
0.0
 10
468.861394
 20
162.766930
 30
0.0
 10
468.861394
 20
161.955542
 30
0.0
 10
469.849172
 20
161.955542
 30
0.0
 10
469.849172
 20
160.976583
 30
0.0
 10
470.660561
 20
160.976583
 30
0.0
 10
470.660561
 20
160.976583
 30
0.0
  0
LWPOLYLINE
  5
148
100
AcDbEntity
  8
Layer_1
 62
7
100
AcDbPolyline
 90
8
 70
0
 10
472.389172
 20
197.833042
 30
0.0
 10
453.339172
 20
197.833042
 30
0.0
 10
453.339172
 20
178.783042
 30
0.0
 10
453.339172
 20
169.258042
 30
0.0
 10
472.389172
 20
169.258042
 30
0.0
 10
472.389172
 20
178.783042
 30
0.0
 10
472.389172
 20
197.833042
 30
0.0
 10
472.389172
 20
197.833042
 30
0.0
  0
LWPOLYLINE
  5
149
100
AcDbEntity
  8
Layer_1
 62
7
100
AcDbPolyline
 90
38
 70
0
 10
470.660561
 20
189.551583
 30
0.0
 10
470.660561
 20
186.050264
 30
0.0
 10
469.849172
 20
186.050264
 30
0.0
 10
469.849172
 20
181.040819
 30
0.0
 10
470.660561
 20
181.040819
 30
0.0
 10
470.660561
 20
177.548319
 30
0.0
 10
469.849172
 20
177.548319
 30
0.0
 10
469.849172
 20
176.560542
 30
0.0
 10
468.861394
 20
176.560542
 30
0.0
 10
468.861394
 20
175.749153
 30
0.0
 10
465.368894
 20
175.749153
 30
0.0
 10
465.368894
 20
176.560542
 30
0.0
 10
460.359450
 20
176.560542
 30
0.0
 10
460.359450
 20
175.749153
 30
0.0
 10
456.858144
 20
175.749153
 30
0.0
 10
456.858144
 20
176.560542
 30
0.0
 10
455.879172
 20
176.560542
 30
0.0
 10
455.879172
 20
177.548319
 30
0.0
 10
455.067783
 20
177.548319
 30
0.0
 10
455.067783
 20
181.040819
 30
0.0
 10
455.879172
 20
181.040819
 30
0.0
 10
455.879172
 20
186.050264
 30
0.0
 10
455.067783
 20
186.050264
 30
0.0
 10
455.067783
 20
189.551583
 30
0.0
 10
455.879172
 20
189.551583
 30
0.0
 10
455.879172
 20
190.530542
 30
0.0
 10
456.858144
 20
190.530542
 30
0.0
 10
456.858144
 20
191.341930
 30
0.0
 10
460.359450
 20
191.341930
 30
0.0
 10
460.359450
 20
190.530542
 30
0.0
 10
465.368894
 20
190.530542
 30
0.0
 10
465.368894
 20
191.341930
 30
0.0
 10
468.861394
 20
191.341930
 30
0.0
 10
468.861394
 20
190.530542
 30
0.0
 10
469.849172
 20
190.530542
 30
0.0
 10
469.849172
 20
189.551583
 30
0.0
 10
470.660561
 20
189.551583
 30
0.0
 10
470.660561
 20
189.551583
 30
0.0
  0
LWPOLYLINE
  5
14a
100
AcDbEntity
  8
Layer_1
 62
7
100
AcDbPolyline
 90
5
 70
0
 10
472.389228
 20
140.683039
 30
0.0
 10
386.664211
 20
140.683039
 30
0.0
 10
386.664211
 20
138.954276
 30
0.0
 10
472.389228
 20
138.954276
 30
0.0
 10
472.389228
 20
140.683039
 30
0.0
  0
LWPOLYLINE
  5
14b
100
AcDbEntity
  8
Layer_1
 62
7
100
AcDbPolyline
 90
5
 70
0
 10
386.664228
 20
138.954275
 30
0.0
 10
386.664228
 20
141.335524
 30
0.0
 10
384.935466
 20
141.335524
 30
0.0
 10
384.935466
 20
138.954275
 30
0.0
 10
386.664228
 20
138.954275
 30
0.0
  0
LWPOLYLINE
  5
14c
100
AcDbEntity
  8
Layer_1
 62
7
100
AcDbPolyline
 90
5
 70
0
 10
358.089172
 20
218.611805
 30
0.0
 10
358.089172
 20
220.993055
 30
0.0
 10
356.360409
 20
220.993055
 30
0.0
 10
356.360409
 20
218.611805
 30
0.0
 10
358.089172
 20
218.611805
 30
0.0
  0
LWPOLYLINE
  5
14d
100
AcDbEntity
  8
Layer_1
 62
7
100
AcDbPolyline
 90
5
 70
0
 10
377.139172
 20
220.993055
 30
0.0
 10
377.139172
 20
225.755558
 30
0.0
 10
375.410409
 20
225.755558
 30
0.0
 10
375.410409
 20
220.993055
 30
0.0
 10
377.139172
 20
220.993055
 30
0.0
  0
LWPOLYLINE
  5
14e
100
AcDbEntity
  8
Layer_1
 62
7
100
AcDbPolyline
 90
5
 70
0
 10
397.917924
 20
223.374305
 30
0.0
 10
397.917924
 20
225.755554
 30
0.0
 10
396.189162
 20
225.755554
 30
0.0
 10
396.189162
 20
223.374305
 30
0.0
 10
397.917924
 20
223.374305
 30
0.0
  0
LWPOLYLINE
  5
14f
100
AcDbEntity
  8
Layer_1
 62
7
100
AcDbPolyline
 90
5
 70
0
 10
416.967924
 20
218.611805
 30
0.0
 10
416.967924
 20
223.374305
 30
0.0
 10
415.239162
 20
223.374305
 30
0.0
 10
415.239162
 20
218.611805
 30
0.0
 10
416.967924
 20
218.611805
 30
0.0
  0
LWPOLYLINE
  5
150
100
AcDbEntity
  8
Layer_1
 62
7
100
AcDbPolyline
 90
5
 70
0
 10
358.089172
 20
218.611805
 30
0.0
 10
319.989189
 20
218.611805
 30
0.0
 10
319.989189
 20
216.883043
 30
0.0
 10
358.089172
 20
216.883043
 30
0.0
 10
358.089172
 20
218.611805
 30
0.0
  0
LWPOLYLINE
  5
151
100
AcDbEntity
  8
Layer_1
 62
7
100
AcDbPolyline
 90
5
 70
0
 10
377.139172
 20
220.993055
 30
0.0
 10
358.089161
 20
220.993055
 30
0.0
 10
358.089161
 20
219.264293
 30
0.0
 10
377.139172
 20
219.264293
 30
0.0
 10
377.139172
 20
220.993055
 30
0.0
  0
LWPOLYLINE
  5
152
100
AcDbEntity
  8
Layer_1
 62
7
100
AcDbPolyline
 90
5
 70
0
 10
396.189172
 20
225.755555
 30
0.0
 10
377.139174
 20
225.755555
 30
0.0
 10
377.139174
 20
224.026793
 30
0.0
 10
396.189172
 20
224.026793
 30
0.0
 10
396.189172
 20
225.755555
 30
0.0
  0
LWPOLYLINE
  5
153
100
AcDbEntity
  8
Layer_1
 62
7
100
AcDbPolyline
 90
5
 70
0
 10
415.239172
 20
223.374305
 30
0.0
 10
396.189187
 20
223.374305
 30
0.0
 10
396.189187
 20
221.645543
 30
0.0
 10
415.239172
 20
221.645543
 30
0.0
 10
415.239172
 20
223.374305
 30
0.0
  0
LWPOLYLINE
  5
154
100
AcDbEntity
  8
Layer_1
 62
7
100
AcDbPolyline
 90
6
 70
0
 10
264.177687
 20
216.883047
 30
0.0
 10
264.177687
 20
197.833047
 30
0.0
 10
245.127687
 20
197.833047
 30
0.0
 10
245.127687
 20
216.883047
 30
0.0
 10
264.177687
 20
216.883047
 30
0.0
 10
264.177687
 20
216.883047
 30
0.0
  0
LWPOLYLINE
  5
155
100
AcDbEntity
  8
Layer_1
 62
7
100
AcDbPolyline
 90
38
 70
0
 10
260.658714
 20
215.154436
 30
0.0
 10
257.157409
 20
215.154436
 30
0.0
 10
257.157409
 20
214.343047
 30
0.0
 10
252.147965
 20
214.343047
 30
0.0
 10
252.147965
 20
215.154436
 30
0.0
 10
248.655465
 20
215.154436
 30
0.0
 10
248.655465
 20
214.343047
 30
0.0
 10
247.667687
 20
214.343047
 30
0.0
 10
247.667687
 20
213.355269
 30
0.0
 10
246.856298
 20
213.355269
 30
0.0
 10
246.856298
 20
209.862769
 30
0.0
 10
247.667687
 20
209.862769
 30
0.0
 10
247.667687
 20
204.853325
 30
0.0
 10
246.856298
 20
204.853325
 30
0.0
 10
246.856298
 20
201.352006
 30
0.0
 10
247.667687
 20
201.352006
 30
0.0
 10
247.667687
 20
200.373047
 30
0.0
 10
248.655465
 20
200.373047
 30
0.0
 10
248.655465
 20
199.561658
 30
0.0
 10
252.147965
 20
199.561658
 30
0.0
 10
252.147965
 20
200.373047
 30
0.0
 10
257.157409
 20
200.373047
 30
0.0
 10
257.157409
 20
199.561658
 30
0.0
 10
260.658714
 20
199.561658
 30
0.0
 10
260.658714
 20
200.373047
 30
0.0
 10
261.637687
 20
200.373047
 30
0.0
 10
261.637687
 20
201.352006
 30
0.0
 10
262.449076
 20
201.352006
 30
0.0
 10
262.449076
 20
204.853325
 30
0.0
 10
261.637687
 20
204.853325
 30
0.0
 10
261.637687
 20
209.862769
 30
0.0
 10
262.449076
 20
209.862769
 30
0.0
 10
262.449076
 20
213.355269
 30
0.0
 10
261.637687
 20
213.355269
 30
0.0
 10
261.637687
 20
214.343047
 30
0.0
 10
260.658714
 20
214.343047
 30
0.0
 10
260.658714
 20
215.154436
 30
0.0
 10
260.658714
 20
215.154436
 30
0.0
  0
LWPOLYLINE
  5
156
100
AcDbEntity
  8
Layer_1
 62
7
100
AcDbPolyline
 90
6
 70
0
 10
264.177687
 20
197.833047
 30
0.0
 10
264.177687
 20
178.783047
 30
0.0
 10
245.127687
 20
178.783047
 30
0.0
 10
245.127687
 20
197.833047
 30
0.0
 10
264.177687
 20
197.833047
 30
0.0
 10
264.177687
 20
197.833047
 30
0.0
  0
LWPOLYLINE
  5
157
100
AcDbEntity
  8
Layer_1
 62
7
100
AcDbPolyline
 90
38
 70
0
 10
260.658714
 20
196.104436
 30
0.0
 10
257.157409
 20
196.104436
 30
0.0
 10
257.157409
 20
195.293047
 30
0.0
 10
252.147965
 20
195.293047
 30
0.0
 10
252.147965
 20
196.104436
 30
0.0
 10
248.655465
 20
196.104436
 30
0.0
 10
248.655465
 20
195.293047
 30
0.0
 10
247.667687
 20
195.293047
 30
0.0
 10
247.667687
 20
194.305269
 30
0.0
 10
246.856298
 20
194.305269
 30
0.0
 10
246.856298
 20
190.812769
 30
0.0
 10
247.667687
 20
190.812769
 30
0.0
 10
247.667687
 20
185.803325
 30
0.0
 10
246.856298
 20
185.803325
 30
0.0
 10
246.856298
 20
182.302006
 30
0.0
 10
247.667687
 20
182.302006
 30
0.0
 10
247.667687
 20
181.323047
 30
0.0
 10
248.655465
 20
181.323047
 30
0.0
 10
248.655465
 20
180.511658
 30
0.0
 10
252.147965
 20
180.511658
 30
0.0
 10
252.147965
 20
181.323047
 30
0.0
 10
257.157409
 20
181.323047
 30
0.0
 10
257.157409
 20
180.511658
 30
0.0
 10
260.658714
 20
180.511658
 30
0.0
 10
260.658714
 20
181.323047
 30
0.0
 10
261.637687
 20
181.323047
 30
0.0
 10
261.637687
 20
182.302006
 30
0.0
 10
262.449076
 20
182.302006
 30
0.0
 10
262.449076
 20
185.803325
 30
0.0
 10
261.637687
 20
185.803325
 30
0.0
 10
261.637687
 20
190.812769
 30
0.0
 10
262.449076
 20
190.812769
 30
0.0
 10
262.449076
 20
194.305269
 30
0.0
 10
261.637687
 20
194.305269
 30
0.0
 10
261.637687
 20
195.293047
 30
0.0
 10
260.658714
 20
195.293047
 30
0.0
 10
260.658714
 20
196.104436
 30
0.0
 10
260.658714
 20
196.104436
 30
0.0
  0
LWPOLYLINE
  5
158
100
AcDbEntity
  8
Layer_1
 62
7
100
AcDbPolyline
 90
6
 70
0
 10
264.177687
 20
178.783047
 30
0.0
 10
264.177687
 20
159.733047
 30
0.0
 10
245.127687
 20
159.733047
 30
0.0
 10
245.127687
 20
178.783047
 30
0.0
 10
264.177687
 20
178.783047
 30
0.0
 10
264.177687
 20
178.783047
 30
0.0
  0
LWPOLYLINE
  5
159
100
AcDbEntity
  8
Layer_1
 62
7
100
AcDbPolyline
 90
38
 70
0
 10
260.658714
 20
177.054436
 30
0.0
 10
257.157409
 20
177.054436
 30
0.0
 10
257.157409
 20
176.243047
 30
0.0
 10
252.147965
 20
176.243047
 30
0.0
 10
252.147965
 20
177.054436
 30
0.0
 10
248.655465
 20
177.054436
 30
0.0
 10
248.655465
 20
176.243047
 30
0.0
 10
247.667687
 20
176.243047
 30
0.0
 10
247.667687
 20
175.255269
 30
0.0
 10
246.856298
 20
175.255269
 30
0.0
 10
246.856298
 20
171.762769
 30
0.0
 10
247.667687
 20
171.762769
 30
0.0
 10
247.667687
 20
166.753325
 30
0.0
 10
246.856298
 20
166.753325
 30
0.0
 10
246.856298
 20
163.252006
 30
0.0
 10
247.667687
 20
163.252006
 30
0.0
 10
247.667687
 20
162.273047
 30
0.0
 10
248.655465
 20
162.273047
 30
0.0
 10
248.655465
 20
161.461658
 30
0.0
 10
252.147965
 20
161.461658
 30
0.0
 10
252.147965
 20
162.273047
 30
0.0
 10
257.157409
 20
162.273047
 30
0.0
 10
257.157409
 20
161.461658
 30
0.0
 10
260.658714
 20
161.461658
 30
0.0
 10
260.658714
 20
162.273047
 30
0.0
 10
261.637687
 20
162.273047
 30
0.0
 10
261.637687
 20
163.252006
 30
0.0
 10
262.449076
 20
163.252006
 30
0.0
 10
262.449076
 20
166.753325
 30
0.0
 10
261.637687
 20
166.753325
 30
0.0
 10
261.637687
 20
171.762769
 30
0.0
 10
262.449076
 20
171.762769
 30
0.0
 10
262.449076
 20
175.255269
 30
0.0
 10
261.637687
 20
175.255269
 30
0.0
 10
261.637687
 20
176.243047
 30
0.0
 10
260.658714
 20
176.243047
 30
0.0
 10
260.658714
 20
177.054436
 30
0.0
 10
260.658714
 20
177.054436
 30
0.0
  0
LWPOLYLINE
  5
15a
100
AcDbEntity
  8
Layer_1
 62
7
100
AcDbPolyline
 90
6
 70
0
 10
245.127687
 20
219.264294
 30
0.0
 10
245.127687
 20
200.214294
 30
0.0
 10
226.077687
 20
200.214294
 30
0.0
 10
226.077687
 20
219.264294
 30
0.0
 10
245.127687
 20
219.264294
 30
0.0
 10
245.127687
 20
219.264294
 30
0.0
  0
LWPOLYLINE
  5
15b
100
AcDbEntity
  8
Layer_1
 62
7
100
AcDbPolyline
 90
38
 70
0
 10
241.608714
 20
217.535683
 30
0.0
 10
238.107409
 20
217.535683
 30
0.0
 10
238.107409
 20
216.724294
 30
0.0
 10
233.097965
 20
216.724294
 30
0.0
 10
233.097965
 20
217.535683
 30
0.0
 10
229.605465
 20
217.535683
 30
0.0
 10
229.605465
 20
216.724294
 30
0.0
 10
228.617687
 20
216.724294
 30
0.0
 10
228.617687
 20
215.736517
 30
0.0
 10
227.806298
 20
215.736517
 30
0.0
 10
227.806298
 20
212.244017
 30
0.0
 10
228.617687
 20
212.244017
 30
0.0
 10
228.617687
 20
207.234572
 30
0.0
 10
227.806298
 20
207.234572
 30
0.0
 10
227.806298
 20
203.733253
 30
0.0
 10
228.617687
 20
203.733253
 30
0.0
 10
228.617687
 20
202.754294
 30
0.0
 10
229.605465
 20
202.754294
 30
0.0
 10
229.605465
 20
201.942905
 30
0.0
 10
233.097965
 20
201.942905
 30
0.0
 10
233.097965
 20
202.754294
 30
0.0
 10
238.107409
 20
202.754294
 30
0.0
 10
238.107409
 20
201.942905
 30
0.0
 10
241.608714
 20
201.942905
 30
0.0
 10
241.608714
 20
202.754294
 30
0.0
 10
242.587687
 20
202.754294
 30
0.0
 10
242.587687
 20
203.733253
 30
0.0
 10
243.399076
 20
203.733253
 30
0.0
 10
243.399076
 20
207.234572
 30
0.0
 10
242.587687
 20
207.234572
 30
0.0
 10
242.587687
 20
212.244017
 30
0.0
 10
243.399076
 20
212.244017
 30
0.0
 10
243.399076
 20
215.736517
 30
0.0
 10
242.587687
 20
215.736517
 30
0.0
 10
242.587687
 20
216.724294
 30
0.0
 10
241.608714
 20
216.724294
 30
0.0
 10
241.608714
 20
217.535683
 30
0.0
 10
241.608714
 20
217.535683
 30
0.0
  0
LWPOLYLINE
  5
15c
100
AcDbEntity
  8
Layer_1
 62
7
100
AcDbPolyline
 90
6
 70
0
 10
245.127687
 20
200.214294
 30
0.0
 10
245.127687
 20
181.164294
 30
0.0
 10
226.077687
 20
181.164294
 30
0.0
 10
226.077687
 20
200.214294
 30
0.0
 10
245.127687
 20
200.214294
 30
0.0
 10
245.127687
 20
200.214294
 30
0.0
  0
LWPOLYLINE
  5
15d
100
AcDbEntity
  8
Layer_1
 62
7
100
AcDbPolyline
 90
38
 70
0
 10
241.608714
 20
198.485683
 30
0.0
 10
238.107409
 20
198.485683
 30
0.0
 10
238.107409
 20
197.674294
 30
0.0
 10
233.097965
 20
197.674294
 30
0.0
 10
233.097965
 20
198.485683
 30
0.0
 10
229.605465
 20
198.485683
 30
0.0
 10
229.605465
 20
197.674294
 30
0.0
 10
228.617687
 20
197.674294
 30
0.0
 10
228.617687
 20
196.686517
 30
0.0
 10
227.806298
 20
196.686517
 30
0.0
 10
227.806298
 20
193.194017
 30
0.0
 10
228.617687
 20
193.194017
 30
0.0
 10
228.617687
 20
188.184572
 30
0.0
 10
227.806298
 20
188.184572
 30
0.0
 10
227.806298
 20
184.683253
 30
0.0
 10
228.617687
 20
184.683253
 30
0.0
 10
228.617687
 20
183.704294
 30
0.0
 10
229.605465
 20
183.704294
 30
0.0
 10
229.605465
 20
182.892905
 30
0.0
 10
233.097965
 20
182.892905
 30
0.0
 10
233.097965
 20
183.704294
 30
0.0
 10
238.107409
 20
183.704294
 30
0.0
 10
238.107409
 20
182.892905
 30
0.0
 10
241.608714
 20
182.892905
 30
0.0
 10
241.608714
 20
183.704294
 30
0.0
 10
242.587687
 20
183.704294
 30
0.0
 10
242.587687
 20
184.683253
 30
0.0
 10
243.399076
 20
184.683253
 30
0.0
 10
243.399076
 20
188.184572
 30
0.0
 10
242.587687
 20
188.184572
 30
0.0
 10
242.587687
 20
193.194017
 30
0.0
 10
243.399076
 20
193.194017
 30
0.0
 10
243.399076
 20
196.686517
 30
0.0
 10
242.587687
 20
196.686517
 30
0.0
 10
242.587687
 20
197.674294
 30
0.0
 10
241.608714
 20
197.674294
 30
0.0
 10
241.608714
 20
198.485683
 30
0.0
 10
241.608714
 20
198.485683
 30
0.0
  0
LWPOLYLINE
  5
15e
100
AcDbEntity
  8
Layer_1
 62
7
100
AcDbPolyline
 90
6
 70
0
 10
245.127687
 20
181.164294
 30
0.0
 10
245.127687
 20
162.114294
 30
0.0
 10
226.077687
 20
162.114294
 30
0.0
 10
226.077687
 20
181.164294
 30
0.0
 10
245.127687
 20
181.164294
 30
0.0
 10
245.127687
 20
181.164294
 30
0.0
  0
LWPOLYLINE
  5
15f
100
AcDbEntity
  8
Layer_1
 62
7
100
AcDbPolyline
 90
38
 70
0
 10
241.608714
 20
179.435683
 30
0.0
 10
238.107409
 20
179.435683
 30
0.0
 10
238.107409
 20
178.624294
 30
0.0
 10
233.097965
 20
178.624294
 30
0.0
 10
233.097965
 20
179.435683
 30
0.0
 10
229.605465
 20
179.435683
 30
0.0
 10
229.605465
 20
178.624294
 30
0.0
 10
228.617687
 20
178.624294
 30
0.0
 10
228.617687
 20
177.636517
 30
0.0
 10
227.806298
 20
177.636517
 30
0.0
 10
227.806298
 20
174.144017
 30
0.0
 10
228.617687
 20
174.144017
 30
0.0
 10
228.617687
 20
169.134572
 30
0.0
 10
227.806298
 20
169.134572
 30
0.0
 10
227.806298
 20
165.633253
 30
0.0
 10
228.617687
 20
165.633253
 30
0.0
 10
228.617687
 20
164.654294
 30
0.0
 10
229.605465
 20
164.654294
 30
0.0
 10
229.605465
 20
163.842905
 30
0.0
 10
233.097965
 20
163.842905
 30
0.0
 10
233.097965
 20
164.654294
 30
0.0
 10
238.107409
 20
164.654294
 30
0.0
 10
238.107409
 20
163.842905
 30
0.0
 10
241.608714
 20
163.842905
 30
0.0
 10
241.608714
 20
164.654294
 30
0.0
 10
242.587687
 20
164.654294
 30
0.0
 10
242.587687
 20
165.633253
 30
0.0
 10
243.399076
 20
165.633253
 30
0.0
 10
243.399076
 20
169.134572
 30
0.0
 10
242.587687
 20
169.134572
 30
0.0
 10
242.587687
 20
174.144017
 30
0.0
 10
243.399076
 20
174.144017
 30
0.0
 10
243.399076
 20
177.636517
 30
0.0
 10
242.587687
 20
177.636517
 30
0.0
 10
242.587687
 20
178.624294
 30
0.0
 10
241.608714
 20
178.624294
 30
0.0
 10
241.608714
 20
179.435683
 30
0.0
 10
241.608714
 20
179.435683
 30
0.0
  0
LWPOLYLINE
  5
160
100
AcDbEntity
  8
Layer_1
 62
7
100
AcDbPolyline
 90
6
 70
0
 10
226.077687
 20
224.026792
 30
0.0
 10
226.077687
 20
204.976792
 30
0.0
 10
207.027687
 20
204.976792
 30
0.0
 10
207.027687
 20
224.026792
 30
0.0
 10
226.077687
 20
224.026792
 30
0.0
 10
226.077687
 20
224.026792
 30
0.0
  0
LWPOLYLINE
  5
161
100
AcDbEntity
  8
Layer_1
 62
7
100
AcDbPolyline
 90
38
 70
0
 10
222.558714
 20
222.298180
 30
0.0
 10
219.057409
 20
222.298180
 30
0.0
 10
219.057409
 20
221.486792
 30
0.0
 10
214.047965
 20
221.486792
 30
0.0
 10
214.047965
 20
222.298180
 30
0.0
 10
210.555465
 20
222.298180
 30
0.0
 10
210.555465
 20
221.486792
 30
0.0
 10
209.567687
 20
221.486792
 30
0.0
 10
209.567687
 20
220.499014
 30
0.0
 10
208.756298
 20
220.499014
 30
0.0
 10
208.756298
 20
217.006514
 30
0.0
 10
209.567687
 20
217.006514
 30
0.0
 10
209.567687
 20
211.997069
 30
0.0
 10
208.756298
 20
211.997069
 30
0.0
 10
208.756298
 20
208.495750
 30
0.0
 10
209.567687
 20
208.495750
 30
0.0
 10
209.567687
 20
207.516792
 30
0.0
 10
210.555465
 20
207.516792
 30
0.0
 10
210.555465
 20
206.705403
 30
0.0
 10
214.047965
 20
206.705403
 30
0.0
 10
214.047965
 20
207.516792
 30
0.0
 10
219.057409
 20
207.516792
 30
0.0
 10
219.057409
 20
206.705403
 30
0.0
 10
222.558714
 20
206.705403
 30
0.0
 10
222.558714
 20
207.516792
 30
0.0
 10
223.537687
 20
207.516792
 30
0.0
 10
223.537687
 20
208.495750
 30
0.0
 10
224.349076
 20
208.495750
 30
0.0
 10
224.349076
 20
211.997069
 30
0.0
 10
223.537687
 20
211.997069
 30
0.0
 10
223.537687
 20
217.006514
 30
0.0
 10
224.349076
 20
217.006514
 30
0.0
 10
224.349076
 20
220.499014
 30
0.0
 10
223.537687
 20
220.499014
 30
0.0
 10
223.537687
 20
221.486792
 30
0.0
 10
222.558714
 20
221.486792
 30
0.0
 10
222.558714
 20
222.298180
 30
0.0
 10
222.558714
 20
222.298180
 30
0.0
  0
LWPOLYLINE
  5
162
100
AcDbEntity
  8
Layer_1
 62
7
100
AcDbPolyline
 90
6
 70
0
 10
226.077687
 20
204.976792
 30
0.0
 10
226.077687
 20
185.926792
 30
0.0
 10
207.027687
 20
185.926792
 30
0.0
 10
207.027687
 20
204.976792
 30
0.0
 10
226.077687
 20
204.976792
 30
0.0
 10
226.077687
 20
204.976792
 30
0.0
  0
LWPOLYLINE
  5
163
100
AcDbEntity
  8
Layer_1
 62
7
100
AcDbPolyline
 90
38
 70
0
 10
222.558714
 20
203.248180
 30
0.0
 10
219.057409
 20
203.248180
 30
0.0
 10
219.057409
 20
202.436792
 30
0.0
 10
214.047965
 20
202.436792
 30
0.0
 10
214.047965
 20
203.248180
 30
0.0
 10
210.555465
 20
203.248180
 30
0.0
 10
210.555465
 20
202.436792
 30
0.0
 10
209.567687
 20
202.436792
 30
0.0
 10
209.567687
 20
201.449014
 30
0.0
 10
208.756298
 20
201.449014
 30
0.0
 10
208.756298
 20
197.956514
 30
0.0
 10
209.567687
 20
197.956514
 30
0.0
 10
209.567687
 20
192.947069
 30
0.0
 10
208.756298
 20
192.947069
 30
0.0
 10
208.756298
 20
189.445750
 30
0.0
 10
209.567687
 20
189.445750
 30
0.0
 10
209.567687
 20
188.466792
 30
0.0
 10
210.555465
 20
188.466792
 30
0.0
 10
210.555465
 20
187.655403
 30
0.0
 10
214.047965
 20
187.655403
 30
0.0
 10
214.047965
 20
188.466792
 30
0.0
 10
219.057409
 20
188.466792
 30
0.0
 10
219.057409
 20
187.655403
 30
0.0
 10
222.558714
 20
187.655403
 30
0.0
 10
222.558714
 20
188.466792
 30
0.0
 10
223.537687
 20
188.466792
 30
0.0
 10
223.537687
 20
189.445750
 30
0.0
 10
224.349076
 20
189.445750
 30
0.0
 10
224.349076
 20
192.947069
 30
0.0
 10
223.537687
 20
192.947069
 30
0.0
 10
223.537687
 20
197.956514
 30
0.0
 10
224.349076
 20
197.956514
 30
0.0
 10
224.349076
 20
201.449014
 30
0.0
 10
223.537687
 20
201.449014
 30
0.0
 10
223.537687
 20
202.436792
 30
0.0
 10
222.558714
 20
202.436792
 30
0.0
 10
222.558714
 20
203.248180
 30
0.0
 10
222.558714
 20
203.248180
 30
0.0
  0
LWPOLYLINE
  5
164
100
AcDbEntity
  8
Layer_1
 62
7
100
AcDbPolyline
 90
6
 70
0
 10
226.077687
 20
185.926792
 30
0.0
 10
226.077687
 20
166.876792
 30
0.0
 10
207.027687
 20
166.876792
 30
0.0
 10
207.027687
 20
185.926792
 30
0.0
 10
226.077687
 20
185.926792
 30
0.0
 10
226.077687
 20
185.926792
 30
0.0
  0
LWPOLYLINE
  5
165
100
AcDbEntity
  8
Layer_1
 62
7
100
AcDbPolyline
 90
38
 70
0
 10
222.558714
 20
184.198180
 30
0.0
 10
219.057409
 20
184.198180
 30
0.0
 10
219.057409
 20
183.386792
 30
0.0
 10
214.047965
 20
183.386792
 30
0.0
 10
214.047965
 20
184.198180
 30
0.0
 10
210.555465
 20
184.198180
 30
0.0
 10
210.555465
 20
183.386792
 30
0.0
 10
209.567687
 20
183.386792
 30
0.0
 10
209.567687
 20
182.399014
 30
0.0
 10
208.756298
 20
182.399014
 30
0.0
 10
208.756298
 20
178.906514
 30
0.0
 10
209.567687
 20
178.906514
 30
0.0
 10
209.567687
 20
173.897069
 30
0.0
 10
208.756298
 20
173.897069
 30
0.0
 10
208.756298
 20
170.395750
 30
0.0
 10
209.567687
 20
170.395750
 30
0.0
 10
209.567687
 20
169.416792
 30
0.0
 10
210.555465
 20
169.416792
 30
0.0
 10
210.555465
 20
168.605403
 30
0.0
 10
214.047965
 20
168.605403
 30
0.0
 10
214.047965
 20
169.416792
 30
0.0
 10
219.057409
 20
169.416792
 30
0.0
 10
219.057409
 20
168.605403
 30
0.0
 10
222.558714
 20
168.605403
 30
0.0
 10
222.558714
 20
169.416792
 30
0.0
 10
223.537687
 20
169.416792
 30
0.0
 10
223.537687
 20
170.395750
 30
0.0
 10
224.349076
 20
170.395750
 30
0.0
 10
224.349076
 20
173.897069
 30
0.0
 10
223.537687
 20
173.897069
 30
0.0
 10
223.537687
 20
178.906514
 30
0.0
 10
224.349076
 20
178.906514
 30
0.0
 10
224.349076
 20
182.399014
 30
0.0
 10
223.537687
 20
182.399014
 30
0.0
 10
223.537687
 20
183.386792
 30
0.0
 10
222.558714
 20
183.386792
 30
0.0
 10
222.558714
 20
184.198180
 30
0.0
 10
222.558714
 20
184.198180
 30
0.0
  0
LWPOLYLINE
  5
166
100
AcDbEntity
  8
Layer_1
 62
7
100
AcDbPolyline
 90
6
 70
0
 10
207.027687
 20
221.645544
 30
0.0
 10
207.027687
 20
202.595544
 30
0.0
 10
187.977687
 20
202.595544
 30
0.0
 10
187.977687
 20
221.645544
 30
0.0
 10
207.027687
 20
221.645544
 30
0.0
 10
207.027687
 20
221.645544
 30
0.0
  0
LWPOLYLINE
  5
167
100
AcDbEntity
  8
Layer_1
 62
7
100
AcDbPolyline
 90
38
 70
0
 10
203.508714
 20
219.916933
 30
0.0
 10
200.007409
 20
219.916933
 30
0.0
 10
200.007409
 20
219.105544
 30
0.0
 10
194.997965
 20
219.105544
 30
0.0
 10
194.997965
 20
219.916933
 30
0.0
 10
191.505465
 20
219.916933
 30
0.0
 10
191.505465
 20
219.105544
 30
0.0
 10
190.517687
 20
219.105544
 30
0.0
 10
190.517687
 20
218.117767
 30
0.0
 10
189.706298
 20
218.117767
 30
0.0
 10
189.706298
 20
214.625267
 30
0.0
 10
190.517687
 20
214.625267
 30
0.0
 10
190.517687
 20
209.615822
 30
0.0
 10
189.706298
 20
209.615822
 30
0.0
 10
189.706298
 20
206.114503
 30
0.0
 10
190.517687
 20
206.114503
 30
0.0
 10
190.517687
 20
205.135544
 30
0.0
 10
191.505465
 20
205.135544
 30
0.0
 10
191.505465
 20
204.324155
 30
0.0
 10
194.997965
 20
204.324155
 30
0.0
 10
194.997965
 20
205.135544
 30
0.0
 10
200.007409
 20
205.135544
 30
0.0
 10
200.007409
 20
204.324155
 30
0.0
 10
203.508714
 20
204.324155
 30
0.0
 10
203.508714
 20
205.135544
 30
0.0
 10
204.487687
 20
205.135544
 30
0.0
 10
204.487687
 20
206.114503
 30
0.0
 10
205.299076
 20
206.114503
 30
0.0
 10
205.299076
 20
209.615822
 30
0.0
 10
204.487687
 20
209.615822
 30
0.0
 10
204.487687
 20
214.625267
 30
0.0
 10
205.299076
 20
214.625267
 30
0.0
 10
205.299076
 20
218.117767
 30
0.0
 10
204.487687
 20
218.117767
 30
0.0
 10
204.487687
 20
219.105544
 30
0.0
 10
203.508714
 20
219.105544
 30
0.0
 10
203.508714
 20
219.916933
 30
0.0
 10
203.508714
 20
219.916933
 30
0.0
  0
LWPOLYLINE
  5
168
100
AcDbEntity
  8
Layer_1
 62
7
100
AcDbPolyline
 90
6
 70
0
 10
207.027687
 20
202.595544
 30
0.0
 10
207.027687
 20
183.545544
 30
0.0
 10
187.977687
 20
183.545544
 30
0.0
 10
187.977687
 20
202.595544
 30
0.0
 10
207.027687
 20
202.595544
 30
0.0
 10
207.027687
 20
202.595544
 30
0.0
  0
LWPOLYLINE
  5
169
100
AcDbEntity
  8
Layer_1
 62
7
100
AcDbPolyline
 90
38
 70
0
 10
203.508714
 20
200.866933
 30
0.0
 10
200.007409
 20
200.866933
 30
0.0
 10
200.007409
 20
200.055544
 30
0.0
 10
194.997965
 20
200.055544
 30
0.0
 10
194.997965
 20
200.866933
 30
0.0
 10
191.505465
 20
200.866933
 30
0.0
 10
191.505465
 20
200.055544
 30
0.0
 10
190.517687
 20
200.055544
 30
0.0
 10
190.517687
 20
199.067767
 30
0.0
 10
189.706298
 20
199.067767
 30
0.0
 10
189.706298
 20
195.575267
 30
0.0
 10
190.517687
 20
195.575267
 30
0.0
 10
190.517687
 20
190.565822
 30
0.0
 10
189.706298
 20
190.565822
 30
0.0
 10
189.706298
 20
187.064503
 30
0.0
 10
190.517687
 20
187.064503
 30
0.0
 10
190.517687
 20
186.085544
 30
0.0
 10
191.505465
 20
186.085544
 30
0.0
 10
191.505465
 20
185.274155
 30
0.0
 10
194.997965
 20
185.274155
 30
0.0
 10
194.997965
 20
186.085544
 30
0.0
 10
200.007409
 20
186.085544
 30
0.0
 10
200.007409
 20
185.274155
 30
0.0
 10
203.508714
 20
185.274155
 30
0.0
 10
203.508714
 20
186.085544
 30
0.0
 10
204.487687
 20
186.085544
 30
0.0
 10
204.487687
 20
187.064503
 30
0.0
 10
205.299076
 20
187.064503
 30
0.0
 10
205.299076
 20
190.565822
 30
0.0
 10
204.487687
 20
190.565822
 30
0.0
 10
204.487687
 20
195.575267
 30
0.0
 10
205.299076
 20
195.575267
 30
0.0
 10
205.299076
 20
199.067767
 30
0.0
 10
204.487687
 20
199.067767
 30
0.0
 10
204.487687
 20
200.055544
 30
0.0
 10
203.508714
 20
200.055544
 30
0.0
 10
203.508714
 20
200.866933
 30
0.0
 10
203.508714
 20
200.866933
 30
0.0
  0
LWPOLYLINE
  5
16a
100
AcDbEntity
  8
Layer_1
 62
7
100
AcDbPolyline
 90
6
 70
0
 10
207.027687
 20
183.545544
 30
0.0
 10
207.027687
 20
164.495544
 30
0.0
 10
187.977687
 20
164.495544
 30
0.0
 10
187.977687
 20
183.545544
 30
0.0
 10
207.027687
 20
183.545544
 30
0.0
 10
207.027687
 20
183.545544
 30
0.0
  0
LWPOLYLINE
  5
16b
100
AcDbEntity
  8
Layer_1
 62
7
100
AcDbPolyline
 90
38
 70
0
 10
203.508714
 20
181.816933
 30
0.0
 10
200.007409
 20
181.816933
 30
0.0
 10
200.007409
 20
181.005544
 30
0.0
 10
194.997965
 20
181.005544
 30
0.0
 10
194.997965
 20
181.816933
 30
0.0
 10
191.505465
 20
181.816933
 30
0.0
 10
191.505465
 20
181.005544
 30
0.0
 10
190.517687
 20
181.005544
 30
0.0
 10
190.517687
 20
180.017767
 30
0.0
 10
189.706298
 20
180.017767
 30
0.0
 10
189.706298
 20
176.525267
 30
0.0
 10
190.517687
 20
176.525267
 30
0.0
 10
190.517687
 20
171.515822
 30
0.0
 10
189.706298
 20
171.515822
 30
0.0
 10
189.706298
 20
168.014503
 30
0.0
 10
190.517687
 20
168.014503
 30
0.0
 10
190.517687
 20
167.035544
 30
0.0
 10
191.505465
 20
167.035544
 30
0.0
 10
191.505465
 20
166.224155
 30
0.0
 10
194.997965
 20
166.224155
 30
0.0
 10
194.997965
 20
167.035544
 30
0.0
 10
200.007409
 20
167.035544
 30
0.0
 10
200.007409
 20
166.224155
 30
0.0
 10
203.508714
 20
166.224155
 30
0.0
 10
203.508714
 20
167.035544
 30
0.0
 10
204.487687
 20
167.035544
 30
0.0
 10
204.487687
 20
168.014503
 30
0.0
 10
205.299076
 20
168.014503
 30
0.0
 10
205.299076
 20
171.515822
 30
0.0
 10
204.487687
 20
171.515822
 30
0.0
 10
204.487687
 20
176.525267
 30
0.0
 10
205.299076
 20
176.525267
 30
0.0
 10
205.299076
 20
180.017767
 30
0.0
 10
204.487687
 20
180.017767
 30
0.0
 10
204.487687
 20
181.005544
 30
0.0
 10
203.508714
 20
181.005544
 30
0.0
 10
203.508714
 20
181.816933
 30
0.0
 10
203.508714
 20
181.816933
 30
0.0
  0
LWPOLYLINE
  5
16c
100
AcDbEntity
  8
Layer_1
 62
7
100
AcDbPolyline
 90
6
 70
0
 10
187.977687
 20
216.883044
 30
0.0
 10
187.977687
 20
197.833044
 30
0.0
 10
168.927687
 20
197.833044
 30
0.0
 10
168.927687
 20
216.883044
 30
0.0
 10
187.977687
 20
216.883044
 30
0.0
 10
187.977687
 20
216.883044
 30
0.0
  0
LWPOLYLINE
  5
16d
100
AcDbEntity
  8
Layer_1
 62
7
100
AcDbPolyline
 90
38
 70
0
 10
184.458714
 20
215.154433
 30
0.0
 10
180.957409
 20
215.154433
 30
0.0
 10
180.957409
 20
214.343044
 30
0.0
 10
175.947965
 20
214.343044
 30
0.0
 10
175.947965
 20
215.154433
 30
0.0
 10
172.455465
 20
215.154433
 30
0.0
 10
172.455465
 20
214.343044
 30
0.0
 10
171.467687
 20
214.343044
 30
0.0
 10
171.467687
 20
213.355267
 30
0.0
 10
170.656298
 20
213.355267
 30
0.0
 10
170.656298
 20
209.862767
 30
0.0
 10
171.467687
 20
209.862767
 30
0.0
 10
171.467687
 20
204.853322
 30
0.0
 10
170.656298
 20
204.853322
 30
0.0
 10
170.656298
 20
201.352003
 30
0.0
 10
171.467687
 20
201.352003
 30
0.0
 10
171.467687
 20
200.373044
 30
0.0
 10
172.455465
 20
200.373044
 30
0.0
 10
172.455465
 20
199.561655
 30
0.0
 10
175.947965
 20
199.561655
 30
0.0
 10
175.947965
 20
200.373044
 30
0.0
 10
180.957409
 20
200.373044
 30
0.0
 10
180.957409
 20
199.561655
 30
0.0
 10
184.458714
 20
199.561655
 30
0.0
 10
184.458714
 20
200.373044
 30
0.0
 10
185.437687
 20
200.373044
 30
0.0
 10
185.437687
 20
201.352003
 30
0.0
 10
186.249076
 20
201.352003
 30
0.0
 10
186.249076
 20
204.853322
 30
0.0
 10
185.437687
 20
204.853322
 30
0.0
 10
185.437687
 20
209.862767
 30
0.0
 10
186.249076
 20
209.862767
 30
0.0
 10
186.249076
 20
213.355267
 30
0.0
 10
185.437687
 20
213.355267
 30
0.0
 10
185.437687
 20
214.343044
 30
0.0
 10
184.458714
 20
214.343044
 30
0.0
 10
184.458714
 20
215.154433
 30
0.0
 10
184.458714
 20
215.154433
 30
0.0
  0
LWPOLYLINE
  5
16e
100
AcDbEntity
  8
Layer_1
 62
7
100
AcDbPolyline
 90
6
 70
0
 10
187.977687
 20
197.833044
 30
0.0
 10
187.977687
 20
178.783044
 30
0.0
 10
168.927687
 20
178.783044
 30
0.0
 10
168.927687
 20
197.833044
 30
0.0
 10
187.977687
 20
197.833044
 30
0.0
 10
187.977687
 20
197.833044
 30
0.0
  0
LWPOLYLINE
  5
16f
100
AcDbEntity
  8
Layer_1
 62
7
100
AcDbPolyline
 90
38
 70
0
 10
184.458714
 20
196.104433
 30
0.0
 10
180.957409
 20
196.104433
 30
0.0
 10
180.957409
 20
195.293044
 30
0.0
 10
175.947965
 20
195.293044
 30
0.0
 10
175.947965
 20
196.104433
 30
0.0
 10
172.455465
 20
196.104433
 30
0.0
 10
172.455465
 20
195.293044
 30
0.0
 10
171.467687
 20
195.293044
 30
0.0
 10
171.467687
 20
194.305267
 30
0.0
 10
170.656298
 20
194.305267
 30
0.0
 10
170.656298
 20
190.812767
 30
0.0
 10
171.467687
 20
190.812767
 30
0.0
 10
171.467687
 20
185.803322
 30
0.0
 10
170.656298
 20
185.803322
 30
0.0
 10
170.656298
 20
182.302003
 30
0.0
 10
171.467687
 20
182.302003
 30
0.0
 10
171.467687
 20
181.323044
 30
0.0
 10
172.455465
 20
181.323044
 30
0.0
 10
172.455465
 20
180.511655
 30
0.0
 10
175.947965
 20
180.511655
 30
0.0
 10
175.947965
 20
181.323044
 30
0.0
 10
180.957409
 20
181.323044
 30
0.0
 10
180.957409
 20
180.511655
 30
0.0
 10
184.458714
 20
180.511655
 30
0.0
 10
184.458714
 20
181.323044
 30
0.0
 10
185.437687
 20
181.323044
 30
0.0
 10
185.437687
 20
182.302003
 30
0.0
 10
186.249076
 20
182.302003
 30
0.0
 10
186.249076
 20
185.803322
 30
0.0
 10
185.437687
 20
185.803322
 30
0.0
 10
185.437687
 20
190.812767
 30
0.0
 10
186.249076
 20
190.812767
 30
0.0
 10
186.249076
 20
194.305267
 30
0.0
 10
185.437687
 20
194.305267
 30
0.0
 10
185.437687
 20
195.293044
 30
0.0
 10
184.458714
 20
195.293044
 30
0.0
 10
184.458714
 20
196.104433
 30
0.0
 10
184.458714
 20
196.104433
 30
0.0
  0
LWPOLYLINE
  5
170
100
AcDbEntity
  8
Layer_1
 62
7
100
AcDbPolyline
 90
6
 70
0
 10
187.977687
 20
178.783044
 30
0.0
 10
187.977687
 20
159.733044
 30
0.0
 10
168.927687
 20
159.733044
 30
0.0
 10
168.927687
 20
178.783044
 30
0.0
 10
187.977687
 20
178.783044
 30
0.0
 10
187.977687
 20
178.783044
 30
0.0
  0
LWPOLYLINE
  5
171
100
AcDbEntity
  8
Layer_1
 62
7
100
AcDbPolyline
 90
38
 70
0
 10
184.458714
 20
177.054433
 30
0.0
 10
180.957409
 20
177.054433
 30
0.0
 10
180.957409
 20
176.243044
 30
0.0
 10
175.947965
 20
176.243044
 30
0.0
 10
175.947965
 20
177.054433
 30
0.0
 10
172.455465
 20
177.054433
 30
0.0
 10
172.455465
 20
176.243044
 30
0.0
 10
171.467687
 20
176.243044
 30
0.0
 10
171.467687
 20
175.255267
 30
0.0
 10
170.656298
 20
175.255267
 30
0.0
 10
170.656298
 20
171.762767
 30
0.0
 10
171.467687
 20
171.762767
 30
0.0
 10
171.467687
 20
166.753322
 30
0.0
 10
170.656298
 20
166.753322
 30
0.0
 10
170.656298
 20
163.252003
 30
0.0
 10
171.467687
 20
163.252003
 30
0.0
 10
171.467687
 20
162.273044
 30
0.0
 10
172.455465
 20
162.273044
 30
0.0
 10
172.455465
 20
161.461655
 30
0.0
 10
175.947965
 20
161.461655
 30
0.0
 10
175.947965
 20
162.273044
 30
0.0
 10
180.957409
 20
162.273044
 30
0.0
 10
180.957409
 20
161.461655
 30
0.0
 10
184.458714
 20
161.461655
 30
0.0
 10
184.458714
 20
162.273044
 30
0.0
 10
185.437687
 20
162.273044
 30
0.0
 10
185.437687
 20
163.252003
 30
0.0
 10
186.249076
 20
163.252003
 30
0.0
 10
186.249076
 20
166.753322
 30
0.0
 10
185.437687
 20
166.753322
 30
0.0
 10
185.437687
 20
171.762767
 30
0.0
 10
186.249076
 20
171.762767
 30
0.0
 10
186.249076
 20
175.255267
 30
0.0
 10
185.437687
 20
175.255267
 30
0.0
 10
185.437687
 20
176.243044
 30
0.0
 10
184.458714
 20
176.243044
 30
0.0
 10
184.458714
 20
177.054433
 30
0.0
 10
184.458714
 20
177.054433
 30
0.0
  0
LWPOLYLINE
  5
172
100
AcDbEntity
  8
Layer_1
 62
7
100
AcDbPolyline
 90
6
 70
0
 10
168.927687
 20
216.883044
 30
0.0
 10
168.927687
 20
197.833044
 30
0.0
 10
149.877687
 20
197.833044
 30
0.0
 10
149.877687
 20
216.883044
 30
0.0
 10
168.927687
 20
216.883044
 30
0.0
 10
168.927687
 20
216.883044
 30
0.0
  0
LWPOLYLINE
  5
173
100
AcDbEntity
  8
Layer_1
 62
7
100
AcDbPolyline
 90
38
 70
0
 10
165.408714
 20
215.154433
 30
0.0
 10
161.907409
 20
215.154433
 30
0.0
 10
161.907409
 20
214.343044
 30
0.0
 10
156.897965
 20
214.343044
 30
0.0
 10
156.897965
 20
215.154433
 30
0.0
 10
153.405465
 20
215.154433
 30
0.0
 10
153.405465
 20
214.343044
 30
0.0
 10
152.417687
 20
214.343044
 30
0.0
 10
152.417687
 20
213.355267
 30
0.0
 10
151.606298
 20
213.355267
 30
0.0
 10
151.606298
 20
209.862767
 30
0.0
 10
152.417687
 20
209.862767
 30
0.0
 10
152.417687
 20
204.853322
 30
0.0
 10
151.606298
 20
204.853322
 30
0.0
 10
151.606298
 20
201.352003
 30
0.0
 10
152.417687
 20
201.352003
 30
0.0
 10
152.417687
 20
200.373044
 30
0.0
 10
153.405465
 20
200.373044
 30
0.0
 10
153.405465
 20
199.561655
 30
0.0
 10
156.897965
 20
199.561655
 30
0.0
 10
156.897965
 20
200.373044
 30
0.0
 10
161.907409
 20
200.373044
 30
0.0
 10
161.907409
 20
199.561655
 30
0.0
 10
165.408714
 20
199.561655
 30
0.0
 10
165.408714
 20
200.373044
 30
0.0
 10
166.387687
 20
200.373044
 30
0.0
 10
166.387687
 20
201.352003
 30
0.0
 10
167.199076
 20
201.352003
 30
0.0
 10
167.199076
 20
204.853322
 30
0.0
 10
166.387687
 20
204.853322
 30
0.0
 10
166.387687
 20
209.862767
 30
0.0
 10
167.199076
 20
209.862767
 30
0.0
 10
167.199076
 20
213.355267
 30
0.0
 10
166.387687
 20
213.355267
 30
0.0
 10
166.387687
 20
214.343044
 30
0.0
 10
165.408714
 20
214.343044
 30
0.0
 10
165.408714
 20
215.154433
 30
0.0
 10
165.408714
 20
215.154433
 30
0.0
  0
LWPOLYLINE
  5
174
100
AcDbEntity
  8
Layer_1
 62
7
100
AcDbPolyline
 90
6
 70
0
 10
168.927687
 20
197.833044
 30
0.0
 10
168.927687
 20
178.783044
 30
0.0
 10
149.877687
 20
178.783044
 30
0.0
 10
149.877687
 20
197.833044
 30
0.0
 10
168.927687
 20
197.833044
 30
0.0
 10
168.927687
 20
197.833044
 30
0.0
  0
LWPOLYLINE
  5
175
100
AcDbEntity
  8
Layer_1
 62
7
100
AcDbPolyline
 90
38
 70
0
 10
165.408714
 20
196.104433
 30
0.0
 10
161.907409
 20
196.104433
 30
0.0
 10
161.907409
 20
195.293044
 30
0.0
 10
156.897965
 20
195.293044
 30
0.0
 10
156.897965
 20
196.104433
 30
0.0
 10
153.405465
 20
196.104433
 30
0.0
 10
153.405465
 20
195.293044
 30
0.0
 10
152.417687
 20
195.293044
 30
0.0
 10
152.417687
 20
194.305267
 30
0.0
 10
151.606298
 20
194.305267
 30
0.0
 10
151.606298
 20
190.812767
 30
0.0
 10
152.417687
 20
190.812767
 30
0.0
 10
152.417687
 20
185.803322
 30
0.0
 10
151.606298
 20
185.803322
 30
0.0
 10
151.606298
 20
182.302003
 30
0.0
 10
152.417687
 20
182.302003
 30
0.0
 10
152.417687
 20
181.323044
 30
0.0
 10
153.405465
 20
181.323044
 30
0.0
 10
153.405465
 20
180.511655
 30
0.0
 10
156.897965
 20
180.511655
 30
0.0
 10
156.897965
 20
181.323044
 30
0.0
 10
161.907409
 20
181.323044
 30
0.0
 10
161.907409
 20
180.511655
 30
0.0
 10
165.408714
 20
180.511655
 30
0.0
 10
165.408714
 20
181.323044
 30
0.0
 10
166.387687
 20
181.323044
 30
0.0
 10
166.387687
 20
182.302003
 30
0.0
 10
167.199076
 20
182.302003
 30
0.0
 10
167.199076
 20
185.803322
 30
0.0
 10
166.387687
 20
185.803322
 30
0.0
 10
166.387687
 20
190.812767
 30
0.0
 10
167.199076
 20
190.812767
 30
0.0
 10
167.199076
 20
194.305267
 30
0.0
 10
166.387687
 20
194.305267
 30
0.0
 10
166.387687
 20
195.293044
 30
0.0
 10
165.408714
 20
195.293044
 30
0.0
 10
165.408714
 20
196.104433
 30
0.0
 10
165.408714
 20
196.104433
 30
0.0
  0
LWPOLYLINE
  5
176
100
AcDbEntity
  8
Layer_1
 62
7
100
AcDbPolyline
 90
6
 70
0
 10
168.927687
 20
178.783044
 30
0.0
 10
168.927687
 20
159.733044
 30
0.0
 10
149.877687
 20
159.733044
 30
0.0
 10
149.877687
 20
178.783044
 30
0.0
 10
168.927687
 20
178.783044
 30
0.0
 10
168.927687
 20
178.783044
 30
0.0
  0
LWPOLYLINE
  5
177
100
AcDbEntity
  8
Layer_1
 62
7
100
AcDbPolyline
 90
38
 70
0
 10
165.408714
 20
177.054433
 30
0.0
 10
161.907409
 20
177.054433
 30
0.0
 10
161.907409
 20
176.243044
 30
0.0
 10
156.897965
 20
176.243044
 30
0.0
 10
156.897965
 20
177.054433
 30
0.0
 10
153.405465
 20
177.054433
 30
0.0
 10
153.405465
 20
176.243044
 30
0.0
 10
152.417687
 20
176.243044
 30
0.0
 10
152.417687
 20
175.255267
 30
0.0
 10
151.606298
 20
175.255267
 30
0.0
 10
151.606298
 20
171.762767
 30
0.0
 10
152.417687
 20
171.762767
 30
0.0
 10
152.417687
 20
166.753322
 30
0.0
 10
151.606298
 20
166.753322
 30
0.0
 10
151.606298
 20
163.252003
 30
0.0
 10
152.417687
 20
163.252003
 30
0.0
 10
152.417687
 20
162.273044
 30
0.0
 10
153.405465
 20
162.273044
 30
0.0
 10
153.405465
 20
161.461655
 30
0.0
 10
156.897965
 20
161.461655
 30
0.0
 10
156.897965
 20
162.273044
 30
0.0
 10
161.907409
 20
162.273044
 30
0.0
 10
161.907409
 20
161.461655
 30
0.0
 10
165.408714
 20
161.461655
 30
0.0
 10
165.408714
 20
162.273044
 30
0.0
 10
166.387687
 20
162.273044
 30
0.0
 10
166.387687
 20
163.252003
 30
0.0
 10
167.199076
 20
163.252003
 30
0.0
 10
167.199076
 20
166.753322
 30
0.0
 10
166.387687
 20
166.753322
 30
0.0
 10
166.387687
 20
171.762767
 30
0.0
 10
167.199076
 20
171.762767
 30
0.0
 10
167.199076
 20
175.255267
 30
0.0
 10
166.387687
 20
175.255267
 30
0.0
 10
166.387687
 20
176.243044
 30
0.0
 10
165.408714
 20
176.243044
 30
0.0
 10
165.408714
 20
177.054433
 30
0.0
 10
165.408714
 20
177.054433
 30
0.0
  0
LWPOLYLINE
  5
178
100
AcDbEntity
  8
Layer_1
 62
7
100
AcDbPolyline
 90
6
 70
0
 10
149.877687
 20
216.883044
 30
0.0
 10
149.877687
 20
197.833044
 30
0.0
 10
130.827687
 20
197.833044
 30
0.0
 10
130.827687
 20
216.883044
 30
0.0
 10
149.877687
 20
216.883044
 30
0.0
 10
149.877687
 20
216.883044
 30
0.0
  0
LWPOLYLINE
  5
179
100
AcDbEntity
  8
Layer_1
 62
7
100
AcDbPolyline
 90
38
 70
0
 10
146.358714
 20
215.154433
 30
0.0
 10
142.857409
 20
215.154433
 30
0.0
 10
142.857409
 20
214.343044
 30
0.0
 10
137.847965
 20
214.343044
 30
0.0
 10
137.847965
 20
215.154433
 30
0.0
 10
134.355465
 20
215.154433
 30
0.0
 10
134.355465
 20
214.343044
 30
0.0
 10
133.367687
 20
214.343044
 30
0.0
 10
133.367687
 20
213.355267
 30
0.0
 10
132.556298
 20
213.355267
 30
0.0
 10
132.556298
 20
209.862767
 30
0.0
 10
133.367687
 20
209.862767
 30
0.0
 10
133.367687
 20
204.853322
 30
0.0
 10
132.556298
 20
204.853322
 30
0.0
 10
132.556298
 20
201.352003
 30
0.0
 10
133.367687
 20
201.352003
 30
0.0
 10
133.367687
 20
200.373044
 30
0.0
 10
134.355465
 20
200.373044
 30
0.0
 10
134.355465
 20
199.561655
 30
0.0
 10
137.847965
 20
199.561655
 30
0.0
 10
137.847965
 20
200.373044
 30
0.0
 10
142.857409
 20
200.373044
 30
0.0
 10
142.857409
 20
199.561655
 30
0.0
 10
146.358714
 20
199.561655
 30
0.0
 10
146.358714
 20
200.373044
 30
0.0
 10
147.337687
 20
200.373044
 30
0.0
 10
147.337687
 20
201.352003
 30
0.0
 10
148.149076
 20
201.352003
 30
0.0
 10
148.149076
 20
204.853322
 30
0.0
 10
147.337687
 20
204.853322
 30
0.0
 10
147.337687
 20
209.862767
 30
0.0
 10
148.149076
 20
209.862767
 30
0.0
 10
148.149076
 20
213.355267
 30
0.0
 10
147.337687
 20
213.355267
 30
0.0
 10
147.337687
 20
214.343044
 30
0.0
 10
146.358714
 20
214.343044
 30
0.0
 10
146.358714
 20
215.154433
 30
0.0
 10
146.358714
 20
215.154433
 30
0.0
  0
LWPOLYLINE
  5
17a
100
AcDbEntity
  8
Layer_1
 62
7
100
AcDbPolyline
 90
10
 70
0
 10
264.177687
 20
159.733047
 30
0.0
 10
264.177687
 20
140.683047
 30
0.0
 10
264.177687
 20
121.633044
 30
0.0
 10
262.484354
 20
121.633044
 30
0.0
 10
246.821020
 20
121.633044
 30
0.0
 10
245.127687
 20
121.633044
 30
0.0
 10
245.127687
 20
140.683047
 30
0.0
 10
245.127687
 20
159.733047
 30
0.0
 10
264.177687
 20
159.733047
 30
0.0
 10
264.177687
 20
159.733047
 30
0.0
  0
LWPOLYLINE
  5
17b
100
AcDbEntity
  8
Layer_1
 62
7
100
AcDbPolyline
 90
6
 70
0
 10
260.843937
 20
154.273811
 30
0.0
 10
246.873937
 20
154.238533
 30
0.0
 10
246.882686
 20
150.940061
 30
0.0
 10
260.852686
 20
150.966505
 30
0.0
 10
260.843937
 20
154.273797
 30
0.0
 10
260.843937
 20
154.273811
 30
0.0
  0
LWPOLYLINE
  5
17c
100
AcDbEntity
  8
Layer_1
 62
7
100
AcDbPolyline
 90
38
 70
0
 10
260.658743
 20
148.479436
 30
0.0
 10
257.157409
 20
148.479436
 30
0.0
 10
257.157409
 20
147.668047
 30
0.0
 10
252.147965
 20
147.668047
 30
0.0
 10
252.147965
 20
148.479436
 30
0.0
 10
248.655465
 20
148.479436
 30
0.0
 10
248.655465
 20
147.668047
 30
0.0
 10
247.667687
 20
147.668047
 30
0.0
 10
247.667687
 20
146.680269
 30
0.0
 10
246.856298
 20
146.680269
 30
0.0
 10
246.856298
 20
143.187769
 30
0.0
 10
247.667687
 20
143.187769
 30
0.0
 10
247.667687
 20
138.178325
 30
0.0
 10
246.856298
 20
138.178325
 30
0.0
 10
246.856298
 20
134.677006
 30
0.0
 10
247.667687
 20
134.677006
 30
0.0
 10
247.667687
 20
133.698047
 30
0.0
 10
248.655465
 20
133.698047
 30
0.0
 10
248.655465
 20
132.886658
 30
0.0
 10
252.147965
 20
132.886658
 30
0.0
 10
252.147965
 20
133.698047
 30
0.0
 10
257.157409
 20
133.698047
 30
0.0
 10
257.157409
 20
132.886658
 30
0.0
 10
260.658743
 20
132.886658
 30
0.0
 10
260.658743
 20
133.698047
 30
0.0
 10
261.637687
 20
133.698047
 30
0.0
 10
261.637687
 20
134.677006
 30
0.0
 10
262.449076
 20
134.677006
 30
0.0
 10
262.449076
 20
138.178325
 30
0.0
 10
261.637687
 20
138.178325
 30
0.0
 10
261.637687
 20
143.187769
 30
0.0
 10
262.449076
 20
143.187769
 30
0.0
 10
262.449076
 20
146.680269
 30
0.0
 10
261.637687
 20
146.680269
 30
0.0
 10
261.637687
 20
147.668047
 30
0.0
 10
260.658743
 20
147.668047
 30
0.0
 10
260.658743
 20
148.479436
 30
0.0
 10
260.658743
 20
148.479436
 30
0.0
  0
LWPOLYLINE
  5
17d
100
AcDbEntity
  8
Layer_1
 62
7
100
AcDbPolyline
 90
6
 70
0
 10
260.896854
 20
130.390753
 30
0.0
 10
246.926854
 20
130.364308
 30
0.0
 10
246.935602
 20
127.065836
 30
0.0
 10
260.905602
 20
127.092280
 30
0.0
 10
260.896854
 20
130.390753
 30
0.0
 10
260.896854
 20
130.390753
 30
0.0
  0
LWPOLYLINE
  5
17e
100
AcDbEntity
  8
Layer_1
 62
7
100
AcDbPolyline
 90
10
 70
0
 10
283.227695
 20
159.733047
 30
0.0
 10
283.227695
 20
140.683047
 30
0.0
 10
283.227695
 20
121.633047
 30
0.0
 10
281.534354
 20
121.633047
 30
0.0
 10
265.871020
 20
121.633047
 30
0.0
 10
264.177687
 20
121.633047
 30
0.0
 10
264.177687
 20
140.683047
 30
0.0
 10
264.177687
 20
159.733047
 30
0.0
 10
283.227695
 20
159.733047
 30
0.0
 10
283.227695
 20
159.733047
 30
0.0
  0
LWPOLYLINE
  5
17f
100
AcDbEntity
  8
Layer_1
 62
7
100
AcDbPolyline
 90
6
 70
0
 10
279.893937
 20
154.273811
 30
0.0
 10
265.923937
 20
154.238533
 30
0.0
 10
265.932686
 20
150.940061
 30
0.0
 10
279.902686
 20
150.966505
 30
0.0
 10
279.893937
 20
154.273797
 30
0.0
 10
279.893937
 20
154.273811
 30
0.0
  0
LWPOLYLINE
  5
180
100
AcDbEntity
  8
Layer_1
 62
7
100
AcDbPolyline
 90
38
 70
0
 10
279.708743
 20
148.479436
 30
0.0
 10
276.207409
 20
148.479436
 30
0.0
 10
276.207409
 20
147.668047
 30
0.0
 10
271.197965
 20
147.668047
 30
0.0
 10
271.197965
 20
148.479436
 30
0.0
 10
267.705465
 20
148.479436
 30
0.0
 10
267.705465
 20
147.668047
 30
0.0
 10
266.717687
 20
147.668047
 30
0.0
 10
266.717687
 20
146.680269
 30
0.0
 10
265.906298
 20
146.680269
 30
0.0
 10
265.906298
 20
143.187769
 30
0.0
 10
266.717687
 20
143.187769
 30
0.0
 10
266.717687
 20
138.178325
 30
0.0
 10
265.906298
 20
138.178325
 30
0.0
 10
265.906298
 20
134.677006
 30
0.0
 10
266.717687
 20
134.677006
 30
0.0
 10
266.717687
 20
133.698047
 30
0.0
 10
267.705465
 20
133.698047
 30
0.0
 10
267.705465
 20
132.886658
 30
0.0
 10
271.197965
 20
132.886658
 30
0.0
 10
271.197965
 20
133.698047
 30
0.0
 10
276.207409
 20
133.698047
 30
0.0
 10
276.207409
 20
132.886658
 30
0.0
 10
279.708743
 20
132.886658
 30
0.0
 10
279.708743
 20
133.698047
 30
0.0
 10
280.687687
 20
133.698047
 30
0.0
 10
280.687687
 20
134.677006
 30
0.0
 10
281.499076
 20
134.677006
 30
0.0
 10
281.499076
 20
138.178325
 30
0.0
 10
280.687687
 20
138.178325
 30
0.0
 10
280.687687
 20
143.187769
 30
0.0
 10
281.499076
 20
143.187769
 30
0.0
 10
281.499076
 20
146.680269
 30
0.0
 10
280.687687
 20
146.680269
 30
0.0
 10
280.687687
 20
147.668047
 30
0.0
 10
279.708743
 20
147.668047
 30
0.0
 10
279.708743
 20
148.479436
 30
0.0
 10
279.708743
 20
148.479436
 30
0.0
  0
LWPOLYLINE
  5
181
100
AcDbEntity
  8
Layer_1
 62
7
100
AcDbPolyline
 90
6
 70
0
 10
279.946854
 20
130.390756
 30
0.0
 10
265.976854
 20
130.364311
 30
0.0
 10
265.985602
 20
127.065839
 30
0.0
 10
279.955602
 20
127.092283
 30
0.0
 10
279.946854
 20
130.390756
 30
0.0
 10
279.946854
 20
130.390756
 30
0.0
  0
LWPOLYLINE
  5
182
100
AcDbEntity
  8
Layer_1
 62
7
100
AcDbPolyline
 90
10
 70
0
 10
149.877687
 20
159.733044
 30
0.0
 10
168.927687
 20
159.733044
 30
0.0
 10
187.977687
 20
159.733044
 30
0.0
 10
187.977687
 20
158.039711
 30
0.0
 10
187.977687
 20
142.376378
 30
0.0
 10
187.977687
 20
140.683044
 30
0.0
 10
168.927687
 20
140.683044
 30
0.0
 10
149.877687
 20
140.683044
 30
0.0
 10
149.877687
 20
159.733044
 30
0.0
 10
149.877687
 20
159.733044
 30
0.0
  0
LWPOLYLINE
  5
183
100
AcDbEntity
  8
Layer_1
 62
7
100
AcDbPolyline
 90
6
 70
0
 10
155.336909
 20
156.399294
 30
0.0
 10
155.372187
 20
142.429294
 30
0.0
 10
158.670659
 20
142.438100
 30
0.0
 10
158.644130
 20
156.408100
 30
0.0
 10
155.336824
 20
156.399294
 30
0.0
 10
155.336909
 20
156.399294
 30
0.0
  0
LWPOLYLINE
  5
184
100
AcDbEntity
  8
Layer_1
 62
7
100
AcDbPolyline
 90
38
 70
0
 10
161.131298
 20
156.214086
 30
0.0
 10
161.131298
 20
152.712767
 30
0.0
 10
161.942687
 20
152.712767
 30
0.0
 10
161.942687
 20
147.703322
 30
0.0
 10
161.131298
 20
147.703322
 30
0.0
 10
161.131298
 20
144.210822
 30
0.0
 10
161.942687
 20
144.210822
 30
0.0
 10
161.942687
 20
143.223044
 30
0.0
 10
162.930465
 20
143.223044
 30
0.0
 10
162.930465
 20
142.411655
 30
0.0
 10
166.422965
 20
142.411655
 30
0.0
 10
166.422965
 20
143.223044
 30
0.0
 10
171.432409
 20
143.223044
 30
0.0
 10
171.432409
 20
142.411655
 30
0.0
 10
174.933714
 20
142.411655
 30
0.0
 10
174.933714
 20
143.223044
 30
0.0
 10
175.912687
 20
143.223044
 30
0.0
 10
175.912687
 20
144.210822
 30
0.0
 10
176.724076
 20
144.210822
 30
0.0
 10
176.724076
 20
147.703322
 30
0.0
 10
175.912687
 20
147.703322
 30
0.0
 10
175.912687
 20
152.712767
 30
0.0
 10
176.724076
 20
152.712767
 30
0.0
 10
176.724076
 20
156.214086
 30
0.0
 10
175.912687
 20
156.214086
 30
0.0
 10
175.912687
 20
157.193044
 30
0.0
 10
174.933714
 20
157.193044
 30
0.0
 10
174.933714
 20
158.004433
 30
0.0
 10
171.432409
 20
158.004433
 30
0.0
 10
171.432409
 20
157.193044
 30
0.0
 10
166.422965
 20
157.193044
 30
0.0
 10
166.422965
 20
158.004433
 30
0.0
 10
162.930465
 20
158.004433
 30
0.0
 10
162.930465
 20
157.193044
 30
0.0
 10
161.942687
 20
157.193044
 30
0.0
 10
161.942687
 20
156.214086
 30
0.0
 10
161.131298
 20
156.214086
 30
0.0
 10
161.131298
 20
156.214086
 30
0.0
  0
LWPOLYLINE
  5
185
100
AcDbEntity
  8
Layer_1
 62
7
100
AcDbPolyline
 90
6
 70
0
 10
179.219964
 20
156.452211
 30
0.0
 10
179.246493
 20
142.482211
 30
0.0
 10
182.544966
 20
142.491016
 30
0.0
 10
182.518437
 20
156.461016
 30
0.0
 10
179.219964
 20
156.452211
 30
0.0
 10
179.219964
 20
156.452211
 30
0.0
  0
LWPOLYLINE
  5
186
100
AcDbEntity
  8
Layer_1
 62
7
100
AcDbPolyline
 90
8
 70
0
 10
245.127687
 20
162.114294
 30
0.0
 10
245.127687
 20
143.064294
 30
0.0
 10
226.077687
 20
143.064294
 30
0.0
 10
216.552687
 20
143.064294
 30
0.0
 10
216.552687
 20
162.114294
 30
0.0
 10
226.077687
 20
162.114294
 30
0.0
 10
245.127687
 20
162.114294
 30
0.0
 10
245.127687
 20
162.114294
 30
0.0
  0
LWPOLYLINE
  5
187
100
AcDbEntity
  8
Layer_1
 62
7
100
AcDbPolyline
 90
38
 70
0
 10
236.846214
 20
160.385683
 30
0.0
 10
233.344909
 20
160.385683
 30
0.0
 10
233.344909
 20
159.574294
 30
0.0
 10
228.335465
 20
159.574294
 30
0.0
 10
228.335465
 20
160.385683
 30
0.0
 10
224.842965
 20
160.385683
 30
0.0
 10
224.842965
 20
159.574294
 30
0.0
 10
223.855187
 20
159.574294
 30
0.0
 10
223.855187
 20
158.586517
 30
0.0
 10
223.043798
 20
158.586517
 30
0.0
 10
223.043798
 20
155.094017
 30
0.0
 10
223.855187
 20
155.094017
 30
0.0
 10
223.855187
 20
150.084572
 30
0.0
 10
223.043798
 20
150.084572
 30
0.0
 10
223.043798
 20
146.583253
 30
0.0
 10
223.855187
 20
146.583253
 30
0.0
 10
223.855187
 20
145.604294
 30
0.0
 10
224.842965
 20
145.604294
 30
0.0
 10
224.842965
 20
144.792905
 30
0.0
 10
228.335465
 20
144.792905
 30
0.0
 10
228.335465
 20
145.604294
 30
0.0
 10
233.344909
 20
145.604294
 30
0.0
 10
233.344909
 20
144.792905
 30
0.0
 10
236.846214
 20
144.792905
 30
0.0
 10
236.846214
 20
145.604294
 30
0.0
 10
237.825187
 20
145.604294
 30
0.0
 10
237.825187
 20
146.583253
 30
0.0
 10
238.636576
 20
146.583253
 30
0.0
 10
238.636576
 20
150.084572
 30
0.0
 10
237.825187
 20
150.084572
 30
0.0
 10
237.825187
 20
155.094017
 30
0.0
 10
238.636576
 20
155.094017
 30
0.0
 10
238.636576
 20
158.586517
 30
0.0
 10
237.825187
 20
158.586517
 30
0.0
 10
237.825187
 20
159.574294
 30
0.0
 10
236.846214
 20
159.574294
 30
0.0
 10
236.846214
 20
160.385683
 30
0.0
 10
236.846214
 20
160.385683
 30
0.0
  0
LWPOLYLINE
  5
188
100
AcDbEntity
  8
Layer_1
 62
7
100
AcDbPolyline
 90
8
 70
0
 10
264.177687
 20
188.308047
 30
0.0
 10
283.227695
 20
188.308047
 30
0.0
 10
283.227695
 20
169.258047
 30
0.0
 10
283.227695
 20
159.733047
 30
0.0
 10
264.177687
 20
159.733047
 30
0.0
 10
264.177687
 20
169.258047
 30
0.0
 10
264.177687
 20
188.308047
 30
0.0
 10
264.177687
 20
188.308047
 30
0.0
  0
LWPOLYLINE
  5
189
100
AcDbEntity
  8
Layer_1
 62
7
100
AcDbPolyline
 90
38
 70
0
 10
265.906298
 20
180.026589
 30
0.0
 10
265.906298
 20
176.525269
 30
0.0
 10
266.717687
 20
176.525269
 30
0.0
 10
266.717687
 20
171.515825
 30
0.0
 10
265.906298
 20
171.515825
 30
0.0
 10
265.906298
 20
168.023325
 30
0.0
 10
266.717687
 20
168.023325
 30
0.0
 10
266.717687
 20
167.035547
 30
0.0
 10
267.705465
 20
167.035547
 30
0.0
 10
267.705465
 20
166.224158
 30
0.0
 10
271.197965
 20
166.224158
 30
0.0
 10
271.197965
 20
167.035547
 30
0.0
 10
276.207409
 20
167.035547
 30
0.0
 10
276.207409
 20
166.224158
 30
0.0
 10
279.708714
 20
166.224158
 30
0.0
 10
279.708714
 20
167.035547
 30
0.0
 10
280.687687
 20
167.035547
 30
0.0
 10
280.687687
 20
168.023325
 30
0.0
 10
281.499076
 20
168.023325
 30
0.0
 10
281.499076
 20
171.515825
 30
0.0
 10
280.687687
 20
171.515825
 30
0.0
 10
280.687687
 20
176.525269
 30
0.0
 10
281.499076
 20
176.525269
 30
0.0
 10
281.499076
 20
180.026589
 30
0.0
 10
280.687687
 20
180.026589
 30
0.0
 10
280.687687
 20
181.005547
 30
0.0
 10
279.708714
 20
181.005547
 30
0.0
 10
279.708714
 20
181.816936
 30
0.0
 10
276.207409
 20
181.816936
 30
0.0
 10
276.207409
 20
181.005547
 30
0.0
 10
271.197965
 20
181.005547
 30
0.0
 10
271.197965
 20
181.816936
 30
0.0
 10
267.705465
 20
181.816936
 30
0.0
 10
267.705465
 20
181.005547
 30
0.0
 10
266.717687
 20
181.005547
 30
0.0
 10
266.717687
 20
180.026589
 30
0.0
 10
265.906298
 20
180.026589
 30
0.0
 10
265.906298
 20
180.026589
 30
0.0
  0
LWPOLYLINE
  5
18a
100
AcDbEntity
  8
Layer_1
 62
7
100
AcDbPolyline
 90
8
 70
0
 10
264.177687
 20
216.883047
 30
0.0
 10
283.227695
 20
216.883047
 30
0.0
 10
283.227695
 20
197.833047
 30
0.0
 10
283.227695
 20
188.308047
 30
0.0
 10
264.177687
 20
188.308047
 30
0.0
 10
264.177687
 20
197.833047
 30
0.0
 10
264.177687
 20
216.883047
 30
0.0
 10
264.177687
 20
216.883047
 30
0.0
  0
LWPOLYLINE
  5
18b
100
AcDbEntity
  8
Layer_1
 62
7
100
AcDbPolyline
 90
38
 70
0
 10
265.906298
 20
208.601589
 30
0.0
 10
265.906298
 20
205.100269
 30
0.0
 10
266.717687
 20
205.100269
 30
0.0
 10
266.717687
 20
200.090825
 30
0.0
 10
265.906298
 20
200.090825
 30
0.0
 10
265.906298
 20
196.598325
 30
0.0
 10
266.717687
 20
196.598325
 30
0.0
 10
266.717687
 20
195.610547
 30
0.0
 10
267.705465
 20
195.610547
 30
0.0
 10
267.705465
 20
194.799158
 30
0.0
 10
271.197965
 20
194.799158
 30
0.0
 10
271.197965
 20
195.610547
 30
0.0
 10
276.207409
 20
195.610547
 30
0.0
 10
276.207409
 20
194.799158
 30
0.0
 10
279.708714
 20
194.799158
 30
0.0
 10
279.708714
 20
195.610547
 30
0.0
 10
280.687687
 20
195.610547
 30
0.0
 10
280.687687
 20
196.598325
 30
0.0
 10
281.499076
 20
196.598325
 30
0.0
 10
281.499076
 20
200.090825
 30
0.0
 10
280.687687
 20
200.090825
 30
0.0
 10
280.687687
 20
205.100269
 30
0.0
 10
281.499076
 20
205.100269
 30
0.0
 10
281.499076
 20
208.601589
 30
0.0
 10
280.687687
 20
208.601589
 30
0.0
 10
280.687687
 20
209.580547
 30
0.0
 10
279.708714
 20
209.580547
 30
0.0
 10
279.708714
 20
210.391936
 30
0.0
 10
276.207409
 20
210.391936
 30
0.0
 10
276.207409
 20
209.580547
 30
0.0
 10
271.197965
 20
209.580547
 30
0.0
 10
271.197965
 20
210.391936
 30
0.0
 10
267.705465
 20
210.391936
 30
0.0
 10
267.705465
 20
209.580547
 30
0.0
 10
266.717687
 20
209.580547
 30
0.0
 10
266.717687
 20
208.601589
 30
0.0
 10
265.906298
 20
208.601589
 30
0.0
 10
265.906298
 20
208.601589
 30
0.0
  0
LWPOLYLINE
  5
18c
100
AcDbEntity
  8
Layer_1
 62
7
100
AcDbPolyline
 90
10
 70
0
 10
245.127687
 20
121.633047
 30
0.0
 10
264.177687
 20
121.633047
 30
0.0
 10
283.227695
 20
121.633047
 30
0.0
 10
283.227695
 20
119.939714
 30
0.0
 10
283.227695
 20
104.276381
 30
0.0
 10
283.227695
 20
102.583047
 30
0.0
 10
264.177687
 20
102.583047
 30
0.0
 10
245.127687
 20
102.583047
 30
0.0
 10
245.127687
 20
121.633047
 30
0.0
 10
245.127687
 20
121.633047
 30
0.0
  0
LWPOLYLINE
  5
18d
100
AcDbEntity
  8
Layer_1
 62
7
100
AcDbPolyline
 90
6
 70
0
 10
250.586909
 20
118.299297
 30
0.0
 10
250.622187
 20
104.329297
 30
0.0
 10
253.920659
 20
104.338103
 30
0.0
 10
253.894130
 20
118.308103
 30
0.0
 10
250.586824
 20
118.299297
 30
0.0
 10
250.586909
 20
118.299297
 30
0.0
  0
LWPOLYLINE
  5
18e
100
AcDbEntity
  8
Layer_1
 62
7
100
AcDbPolyline
 90
38
 70
0
 10
256.381298
 20
118.114089
 30
0.0
 10
256.381298
 20
114.612769
 30
0.0
 10
257.192687
 20
114.612769
 30
0.0
 10
257.192687
 20
109.603325
 30
0.0
 10
256.381298
 20
109.603325
 30
0.0
 10
256.381298
 20
106.110825
 30
0.0
 10
257.192687
 20
106.110825
 30
0.0
 10
257.192687
 20
105.123047
 30
0.0
 10
258.180465
 20
105.123047
 30
0.0
 10
258.180465
 20
104.311658
 30
0.0
 10
261.672965
 20
104.311658
 30
0.0
 10
261.672965
 20
105.123047
 30
0.0
 10
266.682409
 20
105.123047
 30
0.0
 10
266.682409
 20
104.311658
 30
0.0
 10
270.183714
 20
104.311658
 30
0.0
 10
270.183714
 20
105.123047
 30
0.0
 10
271.162687
 20
105.123047
 30
0.0
 10
271.162687
 20
106.110825
 30
0.0
 10
271.974076
 20
106.110825
 30
0.0
 10
271.974076
 20
109.603325
 30
0.0
 10
271.162687
 20
109.603325
 30
0.0
 10
271.162687
 20
114.612769
 30
0.0
 10
271.974076
 20
114.612769
 30
0.0
 10
271.974076
 20
118.114089
 30
0.0
 10
271.162687
 20
118.114089
 30
0.0
 10
271.162687
 20
119.093047
 30
0.0
 10
270.183714
 20
119.093047
 30
0.0
 10
270.183714
 20
119.904436
 30
0.0
 10
266.682409
 20
119.904436
 30
0.0
 10
266.682409
 20
119.093047
 30
0.0
 10
261.672965
 20
119.093047
 30
0.0
 10
261.672965
 20
119.904436
 30
0.0
 10
258.180465
 20
119.904436
 30
0.0
 10
258.180465
 20
119.093047
 30
0.0
 10
257.192687
 20
119.093047
 30
0.0
 10
257.192687
 20
118.114089
 30
0.0
 10
256.381298
 20
118.114089
 30
0.0
 10
256.381298
 20
118.114089
 30
0.0
  0
LWPOLYLINE
  5
18f
100
AcDbEntity
  8
Layer_1
 62
7
100
AcDbPolyline
 90
6
 70
0
 10
274.469993
 20
118.352214
 30
0.0
 10
274.496522
 20
104.382214
 30
0.0
 10
277.794994
 20
104.391019
 30
0.0
 10
277.768465
 20
118.361019
 30
0.0
 10
274.469993
 20
118.352214
 30
0.0
 10
274.469993
 20
118.352214
 30
0.0
  0
LWPOLYLINE
  5
190
100
AcDbEntity
  8
Layer_1
 62
7
100
AcDbPolyline
 90
5
 70
0
 10
245.127673
 20
102.583039
 30
0.0
 10
283.227673
 20
102.583039
 30
0.0
 10
283.227673
 20
100.854276
 30
0.0
 10
245.127673
 20
100.854276
 30
0.0
 10
245.127673
 20
102.583039
 30
0.0
  0
LWPOLYLINE
  5
191
100
AcDbEntity
  8
Layer_1
 62
7
100
AcDbPolyline
 90
5
 70
0
 10
130.827639
 20
218.611814
 30
0.0
 10
187.977656
 20
218.611814
 30
0.0
 10
187.977656
 20
216.883051
 30
0.0
 10
130.827639
 20
216.883051
 30
0.0
 10
130.827639
 20
218.611814
 30
0.0
  0
LWPOLYLINE
  5
192
100
AcDbEntity
  8
Layer_1
 62
7
100
AcDbPolyline
 90
5
 70
0
 10
243.398889
 20
100.854275
 30
0.0
 10
243.398889
 20
141.335531
 30
0.0
 10
245.127652
 20
141.335531
 30
0.0
 10
245.127652
 20
100.854275
 30
0.0
 10
243.398889
 20
100.854275
 30
0.0
  0
LWPOLYLINE
  5
193
100
AcDbEntity
  8
Layer_1
 62
7
100
AcDbPolyline
 90
5
 70
0
 10
283.227667
 20
100.854275
 30
0.0
 10
283.227667
 20
218.611808
 30
0.0
 10
284.956429
 20
218.611808
 30
0.0
 10
284.956429
 20
100.854275
 30
0.0
 10
283.227667
 20
100.854275
 30
0.0
  0
LWPOLYLINE
  5
194
100
AcDbEntity
  8
Layer_1
 62
7
100
AcDbPolyline
 90
5
 70
0
 10
129.098889
 20
138.954275
 30
0.0
 10
129.098889
 20
218.611808
 30
0.0
 10
130.827652
 20
218.611808
 30
0.0
 10
130.827652
 20
138.954275
 30
0.0
 10
129.098889
 20
138.954275
 30
0.0
  0
LWPOLYLINE
  5
195
100
AcDbEntity
  8
Layer_1
 62
7
100
AcDbPolyline
 90
6
 70
0
 10
226.077687
 20
166.876792
 30
0.0
 10
226.077687
 20
162.114294
 30
0.0
 10
207.027687
 20
162.114294
 30
0.0
 10
207.027687
 20
166.876792
 30
0.0
 10
226.077687
 20
166.876792
 30
0.0
 10
226.077687
 20
166.876792
 30
0.0
  0
LWPOLYLINE
  5
196
100
AcDbEntity
  8
Layer_1
 62
7
100
AcDbPolyline
 90
6
 70
0
 10
207.027687
 20
164.495544
 30
0.0
 10
207.027687
 20
162.114297
 30
0.0
 10
187.977687
 20
162.114297
 30
0.0
 10
187.977687
 20
164.495544
 30
0.0
 10
207.027687
 20
164.495544
 30
0.0
 10
207.027687
 20
164.495544
 30
0.0
  0
LWPOLYLINE
  5
197
100
AcDbEntity
  8
Layer_1
 62
7
100
AcDbPolyline
 90
8
 70
0
 10
130.827687
 20
169.258044
 30
0.0
 10
149.877687
 20
169.258044
 30
0.0
 10
149.877687
 20
150.208044
 30
0.0
 10
149.877687
 20
140.683044
 30
0.0
 10
130.827687
 20
140.683044
 30
0.0
 10
130.827687
 20
150.208044
 30
0.0
 10
130.827687
 20
169.258044
 30
0.0
 10
130.827687
 20
169.258044
 30
0.0
  0
LWPOLYLINE
  5
198
100
AcDbEntity
  8
Layer_1
 62
7
100
AcDbPolyline
 90
38
 70
0
 10
132.556298
 20
160.976586
 30
0.0
 10
132.556298
 20
157.475267
 30
0.0
 10
133.367687
 20
157.475267
 30
0.0
 10
133.367687
 20
152.465822
 30
0.0
 10
132.556298
 20
152.465822
 30
0.0
 10
132.556298
 20
148.973322
 30
0.0
 10
133.367687
 20
148.973322
 30
0.0
 10
133.367687
 20
147.985544
 30
0.0
 10
134.355465
 20
147.985544
 30
0.0
 10
134.355465
 20
147.174155
 30
0.0
 10
137.847965
 20
147.174155
 30
0.0
 10
137.847965
 20
147.985544
 30
0.0
 10
142.857409
 20
147.985544
 30
0.0
 10
142.857409
 20
147.174155
 30
0.0
 10
146.358714
 20
147.174155
 30
0.0
 10
146.358714
 20
147.985544
 30
0.0
 10
147.337687
 20
147.985544
 30
0.0
 10
147.337687
 20
148.973322
 30
0.0
 10
148.149076
 20
148.973322
 30
0.0
 10
148.149076
 20
152.465822
 30
0.0
 10
147.337687
 20
152.465822
 30
0.0
 10
147.337687
 20
157.475267
 30
0.0
 10
148.149076
 20
157.475267
 30
0.0
 10
148.149076
 20
160.976586
 30
0.0
 10
147.337687
 20
160.976586
 30
0.0
 10
147.337687
 20
161.955544
 30
0.0
 10
146.358714
 20
161.955544
 30
0.0
 10
146.358714
 20
162.766933
 30
0.0
 10
142.857409
 20
162.766933
 30
0.0
 10
142.857409
 20
161.955544
 30
0.0
 10
137.847965
 20
161.955544
 30
0.0
 10
137.847965
 20
162.766933
 30
0.0
 10
134.355465
 20
162.766933
 30
0.0
 10
134.355465
 20
161.955544
 30
0.0
 10
133.367687
 20
161.955544
 30
0.0
 10
133.367687
 20
160.976586
 30
0.0
 10
132.556298
 20
160.976586
 30
0.0
 10
132.556298
 20
160.976586
 30
0.0
  0
LWPOLYLINE
  5
199
100
AcDbEntity
  8
Layer_1
 62
7
100
AcDbPolyline
 90
8
 70
0
 10
130.827687
 20
197.833044
 30
0.0
 10
149.877687
 20
197.833044
 30
0.0
 10
149.877687
 20
178.783044
 30
0.0
 10
149.877687
 20
169.258044
 30
0.0
 10
130.827687
 20
169.258044
 30
0.0
 10
130.827687
 20
178.783044
 30
0.0
 10
130.827687
 20
197.833044
 30
0.0
 10
130.827687
 20
197.833044
 30
0.0
  0
LWPOLYLINE
  5
19a
100
AcDbEntity
  8
Layer_1
 62
7
100
AcDbPolyline
 90
38
 70
0
 10
132.556298
 20
189.551586
 30
0.0
 10
132.556298
 20
186.050267
 30
0.0
 10
133.367687
 20
186.050267
 30
0.0
 10
133.367687
 20
181.040822
 30
0.0
 10
132.556298
 20
181.040822
 30
0.0
 10
132.556298
 20
177.548322
 30
0.0
 10
133.367687
 20
177.548322
 30
0.0
 10
133.367687
 20
176.560544
 30
0.0
 10
134.355465
 20
176.560544
 30
0.0
 10
134.355465
 20
175.749155
 30
0.0
 10
137.847965
 20
175.749155
 30
0.0
 10
137.847965
 20
176.560544
 30
0.0
 10
142.857409
 20
176.560544
 30
0.0
 10
142.857409
 20
175.749155
 30
0.0
 10
146.358714
 20
175.749155
 30
0.0
 10
146.358714
 20
176.560544
 30
0.0
 10
147.337687
 20
176.560544
 30
0.0
 10
147.337687
 20
177.548322
 30
0.0
 10
148.149076
 20
177.548322
 30
0.0
 10
148.149076
 20
181.040822
 30
0.0
 10
147.337687
 20
181.040822
 30
0.0
 10
147.337687
 20
186.050267
 30
0.0
 10
148.149076
 20
186.050267
 30
0.0
 10
148.149076
 20
189.551586
 30
0.0
 10
147.337687
 20
189.551586
 30
0.0
 10
147.337687
 20
190.530544
 30
0.0
 10
146.358714
 20
190.530544
 30
0.0
 10
146.358714
 20
191.341933
 30
0.0
 10
142.857409
 20
191.341933
 30
0.0
 10
142.857409
 20
190.530544
 30
0.0
 10
137.847965
 20
190.530544
 30
0.0
 10
137.847965
 20
191.341933
 30
0.0
 10
134.355465
 20
191.341933
 30
0.0
 10
134.355465
 20
190.530544
 30
0.0
 10
133.367687
 20
190.530544
 30
0.0
 10
133.367687
 20
189.551586
 30
0.0
 10
132.556298
 20
189.551586
 30
0.0
 10
132.556298
 20
189.551586
 30
0.0
  0
LWPOLYLINE
  5
19b
100
AcDbEntity
  8
Layer_1
 62
7
100
AcDbPolyline
 90
5
 70
0
 10
245.127673
 20
218.611814
 30
0.0
 10
245.127673
 20
220.993064
 30
0.0
 10
246.856435
 20
220.993064
 30
0.0
 10
246.856435
 20
218.611814
 30
0.0
 10
245.127673
 20
218.611814
 30
0.0
  0
LWPOLYLINE
  5
19c
100
AcDbEntity
  8
Layer_1
 62
7
100
AcDbPolyline
 90
5
 70
0
 10
226.077673
 20
220.993064
 30
0.0
 10
226.077673
 20
225.755567
 30
0.0
 10
227.806435
 20
225.755567
 30
0.0
 10
227.806435
 20
220.993064
 30
0.0
 10
226.077673
 20
220.993064
 30
0.0
  0
LWPOLYLINE
  5
19d
100
AcDbEntity
  8
Layer_1
 62
7
100
AcDbPolyline
 90
5
 70
0
 10
205.298923
 20
223.374314
 30
0.0
 10
205.298923
 20
225.755562
 30
0.0
 10
207.027686
 20
225.755562
 30
0.0
 10
207.027686
 20
223.374314
 30
0.0
 10
205.298923
 20
223.374314
 30
0.0
  0
LWPOLYLINE
  5
19e
100
AcDbEntity
  8
Layer_1
 62
7
100
AcDbPolyline
 90
5
 70
0
 10
186.248923
 20
218.611814
 30
0.0
 10
186.248923
 20
223.374314
 30
0.0
 10
187.977686
 20
223.374314
 30
0.0
 10
187.977686
 20
218.611814
 30
0.0
 10
186.248923
 20
218.611814
 30
0.0
  0
LWPOLYLINE
  5
19f
100
AcDbEntity
  8
Layer_1
 62
7
100
AcDbPolyline
 90
5
 70
0
 10
245.127673
 20
218.611814
 30
0.0
 10
283.227656
 20
218.611814
 30
0.0
 10
283.227656
 20
216.883051
 30
0.0
 10
245.127673
 20
216.883051
 30
0.0
 10
245.127673
 20
218.611814
 30
0.0
  0
LWPOLYLINE
  5
1a0
100
AcDbEntity
  8
Layer_1
 62
7
100
AcDbPolyline
 90
5
 70
0
 10
226.077673
 20
220.993064
 30
0.0
 10
245.127683
 20
220.993064
 30
0.0
 10
245.127683
 20
219.264301
 30
0.0
 10
226.077673
 20
219.264301
 30
0.0
 10
226.077673
 20
220.993064
 30
0.0
  0
LWPOLYLINE
  5
1a1
100
AcDbEntity
  8
Layer_1
 62
7
100
AcDbPolyline
 90
5
 70
0
 10
207.027673
 20
225.755555
 30
0.0
 10
226.077670
 20
225.755555
 30
0.0
 10
226.077670
 20
224.026793
 30
0.0
 10
207.027673
 20
224.026793
 30
0.0
 10
207.027673
 20
225.755555
 30
0.0
  0
LWPOLYLINE
  5
1a2
100
AcDbEntity
  8
Layer_1
 62
7
100
AcDbPolyline
 90
5
 70
0
 10
187.977673
 20
223.374314
 30
0.0
 10
207.027658
 20
223.374314
 30
0.0
 10
207.027658
 20
221.645551
 30
0.0
 10
187.977673
 20
221.645551
 30
0.0
 10
187.977673
 20
223.374314
 30
0.0
  0
LWPOLYLINE
  5
1a3
100
AcDbEntity
  8
Layer_1
 62
7
100
AcDbPolyline
 90
6
 70
0
 10
386.664172
 20
162.114292
 30
0.0
 10
386.664172
 20
159.733044
 30
0.0
 10
415.239172
 20
159.733044
 30
0.0
 10
415.239172
 20
162.114292
 30
0.0
 10
386.664172
 20
162.114292
 30
0.0
 10
386.664172
 20
162.114292
 30
0.0
  0
LWPOLYLINE
  5
1a4
100
AcDbEntity
  8
Layer_1
 62
7
100
AcDbPolyline
 90
8
 70
0
 10
216.552687
 20
159.733047
 30
0.0
 10
216.552687
 20
140.683047
 30
0.0
 10
197.502687
 20
140.683047
 30
0.0
 10
187.977687
 20
140.683047
 30
0.0
 10
187.977687
 20
159.733047
 30
0.0
 10
197.502687
 20
159.733047
 30
0.0
 10
216.552687
 20
159.733047
 30
0.0
 10
216.552687
 20
159.733047
 30
0.0
  0
LWPOLYLINE
  5
1a5
100
AcDbEntity
  8
Layer_1
 62
7
100
AcDbPolyline
 90
38
 70
0
 10
208.271214
 20
158.004436
 30
0.0
 10
204.769909
 20
158.004436
 30
0.0
 10
204.769909
 20
157.193047
 30
0.0
 10
199.760465
 20
157.193047
 30
0.0
 10
199.760465
 20
158.004436
 30
0.0
 10
196.267965
 20
158.004436
 30
0.0
 10
196.267965
 20
157.193047
 30
0.0
 10
195.280187
 20
157.193047
 30
0.0
 10
195.280187
 20
156.205269
 30
0.0
 10
194.468798
 20
156.205269
 30
0.0
 10
194.468798
 20
152.712769
 30
0.0
 10
195.280187
 20
152.712769
 30
0.0
 10
195.280187
 20
147.703325
 30
0.0
 10
194.468798
 20
147.703325
 30
0.0
 10
194.468798
 20
144.202006
 30
0.0
 10
195.280187
 20
144.202006
 30
0.0
 10
195.280187
 20
143.223047
 30
0.0
 10
196.267965
 20
143.223047
 30
0.0
 10
196.267965
 20
142.411658
 30
0.0
 10
199.760465
 20
142.411658
 30
0.0
 10
199.760465
 20
143.223047
 30
0.0
 10
204.769909
 20
143.223047
 30
0.0
 10
204.769909
 20
142.411658
 30
0.0
 10
208.271214
 20
142.411658
 30
0.0
 10
208.271214
 20
143.223047
 30
0.0
 10
209.250187
 20
143.223047
 30
0.0
 10
209.250187
 20
144.202006
 30
0.0
 10
210.061576
 20
144.202006
 30
0.0
 10
210.061576
 20
147.703325
 30
0.0
 10
209.250187
 20
147.703325
 30
0.0
 10
209.250187
 20
152.712769
 30
0.0
 10
210.061576
 20
152.712769
 30
0.0
 10
210.061576
 20
156.205269
 30
0.0
 10
209.250187
 20
156.205269
 30
0.0
 10
209.250187
 20
157.193047
 30
0.0
 10
208.271214
 20
157.193047
 30
0.0
 10
208.271214
 20
158.004436
 30
0.0
 10
208.271214
 20
158.004436
 30
0.0
  0
LWPOLYLINE
  5
1a6
100
AcDbEntity
  8
Layer_1
 62
7
100
AcDbPolyline
 90
5
 70
0
 10
216.552673
 20
143.064289
 30
0.0
 10
245.127633
 20
143.064289
 30
0.0
 10
245.127633
 20
141.335526
 30
0.0
 10
216.552673
 20
141.335526
 30
0.0
 10
216.552673
 20
143.064289
 30
0.0
  0
LWPOLYLINE
  5
1a7
100
AcDbEntity
  8
Layer_1
 62
7
100
AcDbPolyline
 90
5
 70
0
 10
130.827622
 20
140.683039
 30
0.0
 10
216.552639
 20
140.683039
 30
0.0
 10
216.552639
 20
138.954276
 30
0.0
 10
130.827622
 20
138.954276
 30
0.0
 10
130.827622
 20
140.683039
 30
0.0
  0
LWPOLYLINE
  5
1a8
100
AcDbEntity
  8
Layer_1
 62
7
100
AcDbPolyline
 90
5
 70
0
 10
216.552639
 20
138.954275
 30
0.0
 10
216.552639
 20
141.335524
 30
0.0
 10
218.281401
 20
141.335524
 30
0.0
 10
218.281401
 20
138.954275
 30
0.0
 10
216.552639
 20
138.954275
 30
0.0
  0
LWPOLYLINE
  5
1a9
100
AcDbEntity
  8
Layer_1
 62
7
100
AcDbPolyline
 90
6
 70
0
 10
216.552687
 20
162.114294
 30
0.0
 10
216.552687
 20
159.733047
 30
0.0
 10
187.977687
 20
159.733047
 30
0.0
 10
187.977687
 20
162.114294
 30
0.0
 10
216.552687
 20
162.114294
 30
0.0
 10
216.552687
 20
162.114294
 30
0.0
  0
ENDSEC
  0
SECTION
  2
OBJECTS
  0
DICTIONARY
  5
C
330
0
100
AcDbDictionary
  3
ACAD_GROUP
350
D
  3
ACAD_MLINESTYLE
350
17
  0
DICTIONARY
  5
D
330
C
100
AcDbDictionary
  0
DICTIONARY
  5
1A
330
C
100
AcDbDictionary
  0
DICTIONARY
  5
17
330
C
100
AcDbDictionary
  3
STANDARD
350
18
  0
DICTIONARY
  5
19
330
C
100
AcDbDictionary
  0
ENDSEC
  0
EOF
