<?xml version="1.0" encoding="UTF-8" standalone="no"?>
<!-- Created with Inkscape (http://www.inkscape.org/) -->

<svg
   xmlns:dc="http://purl.org/dc/elements/1.1/"
   xmlns:cc="http://creativecommons.org/ns#"
   xmlns:rdf="http://www.w3.org/1999/02/22-rdf-syntax-ns#"
   xmlns:svg="http://www.w3.org/2000/svg"
   xmlns="http://www.w3.org/2000/svg"
   xmlns:sodipodi="http://sodipodi.sourceforge.net/DTD/sodipodi-0.dtd"
   xmlns:inkscape="http://www.inkscape.org/namespaces/inkscape"
   width="2104.7244"
   height="1052.36"
   id="svg2"
   version="1.1"
   inkscape:version="0.48.3.1 r9886"
   sodipodi:docname="cherry_mx_layout_3.svg">
  <defs
     id="defs4">
    <symbol
       id="*Paper_Space0" />
    <symbol
       id="*Paper_Space" />
    <symbol
       id="*Model_Space" />
    <pattern
       id="Hatch"
       x="0"
       y="0"
       patternUnits="userSpaceOnUse"
       width="8"
       height="8">
      <path
         id="path3033"
         d="M8 4 l-4,4"
         stroke-width="0.25"
         stroke="#000000"
         linecap="square" />
      <path
         id="path3035"
         d="M6 2 l-4,4"
         stroke-width="0.25"
         stroke="#000000"
         linecap="square" />
      <path
         id="path3037"
         d="M4 0 l-4,4"
         stroke-width="0.25"
         stroke="#000000"
         linecap="square" />
    </pattern>
    <marker
       orient="auto"
       id="DistanceX"
       style="overflow:visible"
       refX="0"
       refY="0">
      <path
         id="path3030"
         d="M 3,-3 -3,3 M 0,-5 0,5"
         style="stroke:#000000;stroke-width:0.5"
         inkscape:connector-curvature="0" />
    </marker>
  </defs>
  <sodipodi:namedview
     id="base"
     pagecolor="#ffffff"
     bordercolor="#666666"
     borderopacity="1.0"
     inkscape:pageopacity="0.0"
     inkscape:pageshadow="2"
     inkscape:zoom="1"
     inkscape:cx="921.48094"
     inkscape:cy="645.15099"
     inkscape:document-units="px"
     inkscape:current-layer="layer1"
     showgrid="false"
     units="mm"
     inkscape:window-width="1920"
     inkscape:window-height="1176"
     inkscape:window-x="0"
     inkscape:window-y="24"
     inkscape:window-maximized="1"
     inkscape:snap-bbox="true"
     inkscape:bbox-paths="true"
     inkscape:bbox-nodes="true"
     inkscape:snap-bbox-edge-midpoints="true"
     inkscape:snap-bbox-midpoints="true"
     inkscape:object-paths="true"
     inkscape:snap-intersection-paths="true"
     inkscape:object-nodes="true"
     inkscape:snap-smooth-nodes="true"
     inkscape:snap-midpoints="true"
     inkscape:snap-object-midpoints="true"
     inkscape:snap-center="true"
     inkscape:snap-page="true"
     inkscape:snap-global="true"
     objecttolerance="20"
     guidetolerance="20"
     inkscape:snap-grids="false"
     gridtolerance="10">
    <inkscape:grid
       type="xygrid"
       id="grid5555"
       empspacing="5"
       visible="true"
       enabled="true"
       snapvisiblegridlinesonly="true"
       units="mm"
       spacingx="0.015mm"
       spacingy="0.015mm"
       dotted="false" />
  </sodipodi:namedview>
  <metadata
     id="metadata7">
    <rdf:RDF>
      <cc:Work
         rdf:about="">
        <dc:format>image/svg+xml</dc:format>
        <dc:type
           rdf:resource="http://purl.org/dc/dcmitype/StillImage" />
        <dc:title></dc:title>
      </cc:Work>
    </rdf:RDF>
  </metadata>
  <g
     inkscape:label="Layer 1"
     inkscape:groupmode="layer"
     id="layer1"
     transform="translate(0,-0.00205801)">
    <g
       inkscape:label="BROWN"
       id="g4724"
       transform="translate(1112.0664,-210.64844)"
       style="stroke:#00d9e5;stroke-opacity:1" />
    <g
       inkscape:label="GRAY"
       id="g4726"
       transform="translate(1112.0664,-210.64844)"
       style="stroke:#00d9e5;stroke-opacity:1" />
    <g
       inkscape:label="DARKGRAY"
       id="g4728"
       transform="translate(1112.0664,-210.64844)"
       style="stroke:#00d9e5;stroke-opacity:1" />
    <g
       inkscape:label="LIGHTBLUE"
       id="g4730"
       transform="translate(1112.0664,-210.64844)"
       style="stroke:#00d9e5;stroke-opacity:1" />
    <g
       inkscape:label="LIGHTGREEN"
       id="g4732"
       transform="translate(1112.0664,-210.64844)"
       style="stroke:#00d9e5;stroke-opacity:1" />
    <g
       inkscape:label="LIGHTCYAN"
       id="g4734"
       transform="translate(1112.0664,-210.64844)"
       style="stroke:#00d9e5;stroke-opacity:1" />
    <g
       inkscape:label="LIGHTRED"
       id="g4736"
       transform="translate(1112.0664,-210.64844)"
       style="stroke:#00d9e5;stroke-opacity:1" />
    <g
       inkscape:label="LIGHTMAGENTA"
       id="g4738"
       transform="translate(1112.0664,-210.64844)"
       style="stroke:#00d9e5;stroke-opacity:1" />
    <g
       inkscape:label="YELLOW"
       id="g4740"
       transform="translate(1112.0664,-210.64844)"
       style="stroke:#00d9e5;stroke-opacity:1" />
    <g
       inkscape:label="WHITE"
       id="g4742"
       transform="translate(1112.0664,-210.64844)"
       style="stroke:#00d9e5;stroke-opacity:1" />
    <g
       inkscape:label="DARKDARKGRAY"
       id="g4744"
       transform="translate(1112.0664,-210.64844)"
       style="stroke:#00d9e5;stroke-opacity:1" />
    <g
       inkscape:label="DARKBLUE"
       id="g4746"
       transform="translate(1112.0664,-210.64844)"
       style="stroke:#00d9e5;stroke-opacity:1" />
    <g
       inkscape:label="DARKGREEN"
       id="g4748"
       transform="translate(1112.0664,-210.64844)"
       style="stroke:#00d9e5;stroke-opacity:1" />
    <g
       inkscape:label="DARKCYAN"
       id="g4750"
       transform="translate(1112.0664,-210.64844)"
       style="stroke:#00d9e5;stroke-opacity:1" />
    <g
       inkscape:label="DARKRED"
       id="g4752"
       transform="translate(1112.0664,-210.64844)"
       style="stroke:#00d9e5;stroke-opacity:1" />
    <g
       inkscape:label="DARKMAGENTA"
       id="g4754"
       transform="translate(1112.0664,-210.64844)"
       style="stroke:#00d9e5;stroke-opacity:1" />
    <g
       inkscape:label="DARKBROWN"
       id="g4756"
       transform="translate(1112.0664,-210.64844)"
       style="stroke:#00d9e5;stroke-opacity:1" />
    <g
       inkscape:label="LIGHTYELLOW"
       id="g4758"
       transform="translate(1112.0664,-210.64844)"
       style="stroke:#00d9e5;stroke-opacity:1" />
    <g
       inkscape:label="BLACK"
       id="g4760"
       transform="translate(1112.0664,-210.64844)"
       style="stroke:#00d9e5;stroke-opacity:1" />
    <g
       inkscape:label="BLUE"
       id="g4762"
       transform="translate(1112.0664,-210.64844)"
       style="stroke:#00d9e5;stroke-opacity:1" />
    <g
       inkscape:label="GREEN"
       id="g4764"
       transform="translate(1112.0664,-210.64844)"
       style="stroke:#00d9e5;stroke-opacity:1" />
    <g
       inkscape:label="CYAN"
       id="g4766"
       transform="translate(1112.0664,-210.64844)"
       style="stroke:#00d9e5;stroke-opacity:1" />
    <g
       inkscape:label="RED"
       id="g4768"
       transform="translate(1112.0664,-210.64844)"
       style="stroke:#00d9e5;stroke-opacity:1" />
    <g
       inkscape:label="MAGENTA"
       id="g4770"
       transform="translate(1112.0664,-210.64844)"
       style="stroke:#00d9e5;stroke-opacity:1" />
    <path
       style="color:#000000;fill:#404040;fill-opacity:1;fill-rule:nonzero;stroke:none;stroke-width:0;marker:none;visibility:visible;display:inline;overflow:visible;enable-background:accumulate"
       d="m 449.65625,311.43956 0,67.5 0,67.5 0,67.5 0,67.5 67.5,0 67.5,0 67.5,0 33.75,0 67.5,0 33.75,0 67.5,0 0,67.5 0,67.5 67.5,0 67.5,0 0,-6 0,-55.5 0,-6 0,-67.5 0,-67.5 0,-33.75 0,-67.5 0,-33.75 0,-67.5 -67.5,0 -67.5,0 -67.5,0 -67.5,0 -67.5,0 -67.5,0 -67.5,0 -67.5,0 z m 674.99995,0 0,67.5 0,33.75 0,67.5 0,33.75 0,67.5 0,67.5 0,6 0,55.5 0,6 67.5,0 67.5,0 0,-67.5 0,-67.5 67.5,0 33.75,0 67.5,0 33.75,0 67.5,0 67.5,0 67.5,0 0,-67.5 0,-67.5 0,-67.5 0,-67.5 -67.5,0 -67.5,0 -67.5,0 -67.5,0 -67.5,0 -67.5,0 -67.5,0 -67.5,0 z m -662.49995,6.125 12.375,0 0,2.875 17.75,0 0,-2.875 12.40625,0 0,2.875 3.46875,0 0,3.5 2.875,0 0,12.375 -2.875,0 0,17.75 2.875,0 0,12.40625 -2.875,0 0,3.46875 -3.46875,0 0,2.875 -12.40625,0 0,-2.875 -17.75,0 0,2.875 -12.375,0 0,-2.875 -3.5,0 0,-3.46875 -2.875,0 0,-12.40625 2.875,0 0,-17.75 -2.875,0 0,-12.375 2.875,0 0,-3.5 3.5,0 0,-2.875 z m 67.5,0 12.375,0 0,2.875 17.75,0 0,-2.875 12.40625,0 0,2.875 3.46875,0 0,3.5 2.875,0 0,12.375 -2.875,0 0,17.75 2.875,0 0,12.40625 -2.875,0 0,3.46875 -3.46875,0 0,2.875 -12.40625,0 0,-2.875 -17.75,0 0,2.875 -12.375,0 0,-2.875 -3.5,0 0,-3.46875 -2.875,0 0,-12.40625 2.875,0 0,-17.75 -2.875,0 0,-12.375 2.875,0 0,-3.5 3.5,0 0,-2.875 z m 67.5,0 12.375,0 0,2.875 17.75,0 0,-2.875 12.40625,0 0,2.875 3.46875,0 0,3.5 2.875,0 0,12.375 -2.875,0 0,17.75 2.875,0 0,12.40625 -2.875,0 0,3.46875 -3.46875,0 0,2.875 -12.40625,0 0,-2.875 -17.75,0 0,2.875 -12.375,0 0,-2.875 -3.5,0 0,-3.46875 -2.875,0 0,-12.40625 2.875,0 0,-17.75 -2.875,0 0,-12.375 2.875,0 0,-3.5 3.5,0 0,-2.875 z m 67.5,0 12.375,0 0,2.875 17.75,0 0,-2.875 12.40625,0 0,2.875 3.46875,0 0,3.5 2.875,0 0,12.375 -2.875,0 0,17.75 2.875,0 0,12.40625 -2.875,0 0,3.46875 -3.46875,0 0,2.875 -12.40625,0 0,-2.875 -17.75,0 0,2.875 -12.375,0 0,-2.875 -3.5,0 0,-3.46875 -2.875,0 0,-12.40625 2.875,0 0,-17.75 -2.875,0 0,-12.375 2.875,0 0,-3.5 3.5,0 0,-2.875 z m 67.5,0 12.375,0 0,2.875 17.75,0 0,-2.875 12.40625,0 0,2.875 3.46875,0 0,3.5 2.875,0 0,12.375 -2.875,0 0,17.75 2.875,0 0,12.40625 -2.875,0 0,3.46875 -3.46875,0 0,2.875 -12.40625,0 0,-2.875 -17.75,0 0,2.875 -12.375,0 0,-2.875 -3.5,0 0,-3.46875 -2.875,0 0,-12.40625 2.875,0 0,-17.75 -2.875,0 0,-12.375 2.875,0 0,-3.5 3.5,0 0,-2.875 z m 67.5,0 12.375,0 0,2.875 17.75,0 0,-2.875 12.40625,0 0,2.875 3.46875,0 0,3.5 2.875,0 0,12.375 -2.875,0 0,17.75 2.875,0 0,12.40625 -2.875,0 0,3.46875 -3.46875,0 0,2.875 -12.40625,0 0,-2.875 -17.75,0 0,2.875 -12.375,0 0,-2.875 -3.5,0 0,-3.46875 -2.875,0 0,-12.40625 2.875,0 0,-17.75 -2.875,0 0,-12.375 2.875,0 0,-3.5 3.5,0 0,-2.875 z m 67.5,0 12.375,0 0,2.875 17.75,0 0,-2.875 12.40625,0 0,2.875 3.46875,0 0,3.5 2.875,0 0,12.375 -2.875,0 0,17.75 2.875,0 0,12.40625 -2.875,0 0,3.46875 -3.46875,0 0,2.875 -12.40625,0 0,-2.875 -17.75,0 0,2.875 -12.375,0 0,-2.875 -3.5,0 0,-3.46875 -2.875,0 0,-12.40625 2.875,0 0,-17.75 -2.875,0 0,-12.375 2.875,0 0,-3.5 3.5,0 0,-2.875 z m 337.46875,0 12.4062,0 0,2.875 17.75,0 0,-2.875 12.375,0 0,2.875 3.5,0 0,3.5 2.875,0 0,12.375 -2.875,0 0,17.75 2.875,0 0,12.40625 -2.875,0 0,3.46875 -3.5,0 0,2.875 -12.375,0 0,-2.875 -17.75,0 0,2.875 -12.4062,0 0,-2.875 -3.4688,0 0,-3.46875 -2.875,0 0,-12.40625 2.875,0 0,-17.75 -2.875,0 0,-12.375 2.875,0 0,-3.5 3.4688,0 0,-2.875 z m 67.5,0 12.4062,0 0,2.875 17.75,0 0,-2.875 12.375,0 0,2.875 3.5,0 0,3.5 2.875,0 0,12.375 -2.875,0 0,17.75 2.875,0 0,12.40625 -2.875,0 0,3.46875 -3.5,0 0,2.875 -12.375,0 0,-2.875 -17.75,0 0,2.875 -12.4062,0 0,-2.875 -3.4688,0 0,-3.46875 -2.875,0 0,-12.40625 2.875,0 0,-17.75 -2.875,0 0,-12.375 2.875,0 0,-3.5 3.4688,0 0,-2.875 z m 67.5,0 12.4062,0 0,2.875 17.75,0 0,-2.875 12.375,0 0,2.875 3.5,0 0,3.5 2.875,0 0,12.375 -2.875,0 0,17.75 2.875,0 0,12.40625 -2.875,0 0,3.46875 -3.5,0 0,2.875 -12.375,0 0,-2.875 -17.75,0 0,2.875 -12.4062,0 0,-2.875 -3.4688,0 0,-3.46875 -2.875,0 0,-12.40625 2.875,0 0,-17.75 -2.875,0 0,-12.375 2.875,0 0,-3.5 3.4688,0 0,-2.875 z m 67.5,0 12.4062,0 0,2.875 17.75,0 0,-2.875 12.375,0 0,2.875 3.5,0 0,3.5 2.875,0 0,12.375 -2.875,0 0,17.75 2.875,0 0,12.40625 -2.875,0 0,3.46875 -3.5,0 0,2.875 -12.375,0 0,-2.875 -17.75,0 0,2.875 -12.4062,0 0,-2.875 -3.4688,0 0,-3.46875 -2.875,0 0,-12.40625 2.875,0 0,-17.75 -2.875,0 0,-12.375 2.875,0 0,-3.5 3.4688,0 0,-2.875 z m 67.5,0 12.4062,0 0,2.875 17.75,0 0,-2.875 12.375,0 0,2.875 3.5,0 0,3.5 2.875,0 0,12.375 -2.875,0 0,17.75 2.875,0 0,12.40625 -2.875,0 0,3.46875 -3.5,0 0,2.875 -12.375,0 0,-2.875 -17.75,0 0,2.875 -12.4062,0 0,-2.875 -3.4688,0 0,-3.46875 -2.875,0 0,-12.40625 2.875,0 0,-17.75 -2.875,0 0,-12.375 2.875,0 0,-3.5 3.4688,0 0,-2.875 z m 67.5,0 12.4062,0 0,2.875 17.75,0 0,-2.875 12.375,0 0,2.875 3.5,0 0,3.5 2.875,0 0,12.375 -2.875,0 0,17.75 2.875,0 0,12.40625 -2.875,0 0,3.46875 -3.5,0 0,2.875 -12.375,0 0,-2.875 -17.75,0 0,2.875 -12.4062,0 0,-2.875 -3.4688,0 0,-3.46875 -2.875,0 0,-12.40625 2.875,0 0,-17.75 -2.875,0 0,-12.375 2.875,0 0,-3.5 3.4688,0 0,-2.875 z m 67.5,0 12.4062,0 0,2.875 17.75,0 0,-2.875 12.375,0 0,2.875 3.5,0 0,3.5 2.875,0 0,12.375 -2.875,0 0,17.75 2.875,0 0,12.40625 -2.875,0 0,3.46875 -3.5,0 0,2.875 -12.375,0 0,-2.875 -17.75,0 0,2.875 -12.4062,0 0,-2.875 -3.4688,0 0,-3.46875 -2.875,0 0,-12.40625 2.875,0 0,-17.75 -2.875,0 0,-12.375 2.875,0 0,-3.5 3.4688,0 0,-2.875 z m -674.96875,16.875 12.375,0 0,2.875 17.75,0 0,-2.875 12.40625,0 0,2.875 3.46875,0 0,3.46875 2.875,0 0,12.40625 -2.875,0 0,17.75 2.875,0 0,12.375 -2.875,0 0,3.5 -3.46875,0 0,2.875 -12.40625,0 0,-2.875 -17.75,0 0,2.875 -12.375,0 0,-2.875 -3.5,0 0,-3.5 -2.875,0 0,-12.375 2.875,0 0,-17.75 -2.875,0 0,-12.40625 2.875,0 0,-3.46875 3.5,0 0,-2.875 z m 202.46875,0 12.4062,0 0,2.875 17.75,0 0,-2.875 12.375,0 0,2.875 3.5,0 0,3.46875 2.875,0 0,12.40625 -2.875,0 0,17.75 2.875,0 0,12.375 -2.875,0 0,3.5 -3.5,0 0,2.875 -12.375,0 0,-2.875 -17.75,0 0,2.875 -12.4062,0 0,-2.875 -3.4688,0 0,-3.5 -2.875,0 0,-12.375 2.875,0 0,-17.75 -2.875,0 0,-12.40625 2.875,0 0,-3.46875 3.4688,0 0,-2.875 z m -607.46875,50.625 12.375,0 0,2.875 17.75,0 0,-2.875 12.40625,0 0,2.875 3.46875,0 0,3.5 2.875,0 0,12.375 -2.875,0 0,17.75 2.875,0 0,12.40625 -2.875,0 0,3.46875 -3.46875,0 0,2.875 -12.40625,0 0,-2.875 -17.75,0 0,2.875 -12.375,0 0,-2.875 -3.5,0 0,-3.46875 -2.875,0 0,-12.40625 2.875,0 0,-17.75 -2.875,0 0,-12.375 2.875,0 0,-3.5 3.5,0 0,-2.875 z m 67.5,0 12.375,0 0,2.875 17.75,0 0,-2.875 12.40625,0 0,2.875 3.46875,0 0,3.5 2.875,0 0,12.375 -2.875,0 0,17.75 2.875,0 0,12.40625 -2.875,0 0,3.46875 -3.46875,0 0,2.875 -12.40625,0 0,-2.875 -17.75,0 0,2.875 -12.375,0 0,-2.875 -3.5,0 0,-3.46875 -2.875,0 0,-12.40625 2.875,0 0,-17.75 -2.875,0 0,-12.375 2.875,0 0,-3.5 3.5,0 0,-2.875 z m 67.5,0 12.375,0 0,2.875 17.75,0 0,-2.875 12.40625,0 0,2.875 3.46875,0 0,3.5 2.875,0 0,12.375 -2.875,0 0,17.75 2.875,0 0,12.40625 -2.875,0 0,3.46875 -3.46875,0 0,2.875 -12.40625,0 0,-2.875 -17.75,0 0,2.875 -12.375,0 0,-2.875 -3.5,0 0,-3.46875 -2.875,0 0,-12.40625 2.875,0 0,-17.75 -2.875,0 0,-12.375 2.875,0 0,-3.5 3.5,0 0,-2.875 z m 67.5,0 12.375,0 0,2.875 17.75,0 0,-2.875 12.40625,0 0,2.875 3.46875,0 0,3.5 2.875,0 0,12.375 -2.875,0 0,17.75 2.875,0 0,12.40625 -2.875,0 0,3.46875 -3.46875,0 0,2.875 -12.40625,0 0,-2.875 -17.75,0 0,2.875 -12.375,0 0,-2.875 -3.5,0 0,-3.46875 -2.875,0 0,-12.40625 2.875,0 0,-17.75 -2.875,0 0,-12.375 2.875,0 0,-3.5 3.5,0 0,-2.875 z m 67.5,0 12.375,0 0,2.875 17.75,0 0,-2.875 12.40625,0 0,2.875 3.46875,0 0,3.5 2.875,0 0,12.375 -2.875,0 0,17.75 2.875,0 0,12.40625 -2.875,0 0,3.46875 -3.46875,0 0,2.875 -12.40625,0 0,-2.875 -17.75,0 0,2.875 -12.375,0 0,-2.875 -3.5,0 0,-3.46875 -2.875,0 0,-12.40625 2.875,0 0,-17.75 -2.875,0 0,-12.375 2.875,0 0,-3.5 3.5,0 0,-2.875 z m 67.5,0 12.375,0 0,2.875 17.75,0 0,-2.875 12.40625,0 0,2.875 3.46875,0 0,3.5 2.875,0 0,12.375 -2.875,0 0,17.75 2.875,0 0,12.40625 -2.875,0 0,3.46875 -3.46875,0 0,2.875 -12.40625,0 0,-2.875 -17.75,0 0,2.875 -12.375,0 0,-2.875 -3.5,0 0,-3.46875 -2.875,0 0,-12.40625 2.875,0 0,-17.75 -2.875,0 0,-12.375 2.875,0 0,-3.5 3.5,0 0,-2.875 z m 337.46875,0 12.4062,0 0,2.875 17.75,0 0,-2.875 12.375,0 0,2.875 3.5,0 0,3.5 2.875,0 0,12.375 -2.875,0 0,17.75 2.875,0 0,12.40625 -2.875,0 0,3.46875 -3.5,0 0,2.875 -12.375,0 0,-2.875 -17.75,0 0,2.875 -12.4062,0 0,-2.875 -3.4688,0 0,-3.46875 -2.875,0 0,-12.40625 2.875,0 0,-17.75 -2.875,0 0,-12.375 2.875,0 0,-3.5 3.4688,0 0,-2.875 z m 67.5,0 12.4062,0 0,2.875 17.75,0 0,-2.875 12.375,0 0,2.875 3.5,0 0,3.5 2.875,0 0,12.375 -2.875,0 0,17.75 2.875,0 0,12.40625 -2.875,0 0,3.46875 -3.5,0 0,2.875 -12.375,0 0,-2.875 -17.75,0 0,2.875 -12.4062,0 0,-2.875 -3.4688,0 0,-3.46875 -2.875,0 0,-12.40625 2.875,0 0,-17.75 -2.875,0 0,-12.375 2.875,0 0,-3.5 3.4688,0 0,-2.875 z m 67.5,0 12.4062,0 0,2.875 17.75,0 0,-2.875 12.375,0 0,2.875 3.5,0 0,3.5 2.875,0 0,12.375 -2.875,0 0,17.75 2.875,0 0,12.40625 -2.875,0 0,3.46875 -3.5,0 0,2.875 -12.375,0 0,-2.875 -17.75,0 0,2.875 -12.4062,0 0,-2.875 -3.4688,0 0,-3.46875 -2.875,0 0,-12.40625 2.875,0 0,-17.75 -2.875,0 0,-12.375 2.875,0 0,-3.5 3.4688,0 0,-2.875 z m 67.5,0 12.4062,0 0,2.875 17.75,0 0,-2.875 12.375,0 0,2.875 3.5,0 0,3.5 2.875,0 0,12.375 -2.875,0 0,17.75 2.875,0 0,12.40625 -2.875,0 0,3.46875 -3.5,0 0,2.875 -12.375,0 0,-2.875 -17.75,0 0,2.875 -12.4062,0 0,-2.875 -3.4688,0 0,-3.46875 -2.875,0 0,-12.40625 2.875,0 0,-17.75 -2.875,0 0,-12.375 2.875,0 0,-3.5 3.4688,0 0,-2.875 z m 67.5,0 12.4062,0 0,2.875 17.75,0 0,-2.875 12.375,0 0,2.875 3.5,0 0,3.5 2.875,0 0,12.375 -2.875,0 0,17.75 2.875,0 0,12.40625 -2.875,0 0,3.46875 -3.5,0 0,2.875 -12.375,0 0,-2.875 -17.75,0 0,2.875 -12.4062,0 0,-2.875 -3.4688,0 0,-3.46875 -2.875,0 0,-12.40625 2.875,0 0,-17.75 -2.875,0 0,-12.375 2.875,0 0,-3.5 3.4688,0 0,-2.875 z m 67.5,0 12.4062,0 0,2.875 17.75,0 0,-2.875 12.375,0 0,2.875 3.5,0 0,3.5 2.875,0 0,12.375 -2.875,0 0,17.75 2.875,0 0,12.40625 -2.875,0 0,3.46875 -3.5,0 0,2.875 -12.375,0 0,-2.875 -17.75,0 0,2.875 -12.4062,0 0,-2.875 -3.4688,0 0,-3.46875 -2.875,0 0,-12.40625 2.875,0 0,-17.75 -2.875,0 0,-12.375 2.875,0 0,-3.5 3.4688,0 0,-2.875 z m -1036.78125,13.21875 0.0312,11.71875 -49.5,0.0937 -0.0312,-11.6875 49.5,-0.125 z m 1103.62505,0 49.5,0.125 -0.031,11.6875 -49.5,-0.0937 0.031,-11.71875 z m -1146.81255,20.53125 12.375,0 0,2.875 17.75,0 0,-2.875 12.40625,0 0,2.875 3.46875,0 0,3.5 2.875,0 0,12.375 -2.875,0 0,17.75 2.875,0 0,12.40625 -2.875,0 0,3.46875 -3.46875,0 0,2.875 -12.40625,0 0,-2.875 -17.75,0 0,2.875 -12.375,0 0,-2.875 -3.5,0 0,-3.46875 -2.875,0 0,-12.40625 2.875,0 0,-17.75 -2.875,0 0,-12.375 2.875,0 0,-3.5 3.5,0 0,-2.875 z m 1147.46875,0 12.4062,0 0,2.875 17.75,0 0,-2.875 12.375,0 0,2.875 3.5,0 0,3.5 2.875,0 0,12.375 -2.875,0 0,17.75 2.875,0 0,12.40625 -2.875,0 0,3.46875 -3.5,0 0,2.875 -12.375,0 0,-2.875 -17.75,0 0,2.875 -12.4062,0 0,-2.875 -3.4688,0 0,-3.46875 -2.875,0 0,-12.40625 2.875,0 0,-17.75 -2.875,0 0,-12.375 2.875,0 0,-3.5 3.4688,0 0,-2.875 z m -674.96875,16.875 12.375,0 0,2.875 17.75,0 0,-2.875 12.40625,0 0,2.875 3.46875,0 0,3.46875 2.875,0 0,12.40625 -2.875,0 0,17.75 2.875,0 0,12.375 -2.875,0 0,3.5 -3.46875,0 0,2.875 -12.40625,0 0,-2.875 -17.75,0 0,2.875 -12.375,0 0,-2.875 -3.5,0 0,-3.5 -2.875,0 0,-12.375 2.875,0 0,-17.75 -2.875,0 0,-12.40625 2.875,0 0,-3.46875 3.5,0 0,-2.875 z m 202.46875,0 12.4062,0 0,2.875 17.75,0 0,-2.875 12.375,0 0,2.875 3.5,0 0,3.46875 2.875,0 0,12.40625 -2.875,0 0,17.75 2.875,0 0,12.375 -2.875,0 0,3.5 -3.5,0 0,2.875 -12.375,0 0,-2.875 -17.75,0 0,2.875 -12.4062,0 0,-2.875 -3.4688,0 0,-3.5 -2.875,0 0,-12.375 2.875,0 0,-17.75 -2.875,0 0,-12.40625 2.875,0 0,-3.46875 3.4688,0 0,-2.875 z m -607.46875,16.875 12.375,0 0,2.875 17.75,0 0,-2.875 12.40625,0 0,2.875 3.46875,0 0,3.5 2.875,0 0,12.375 -2.875,0 0,17.75 2.875,0 0,12.40625 -2.875,0 0,3.46875 -3.46875,0 0,2.875 -12.40625,0 0,-2.875 -17.75,0 0,2.875 -12.375,0 0,-2.875 -3.5,0 0,-3.46875 -2.875,0 0,-12.40625 2.875,0 0,-17.75 -2.875,0 0,-12.375 2.875,0 0,-3.5 3.5,0 0,-2.875 z m 67.5,0 12.375,0 0,2.875 17.75,0 0,-2.875 12.40625,0 0,2.875 3.46875,0 0,3.5 2.875,0 0,12.375 -2.875,0 0,17.75 2.875,0 0,12.40625 -2.875,0 0,3.46875 -3.46875,0 0,2.875 -12.40625,0 0,-2.875 -17.75,0 0,2.875 -12.375,0 0,-2.875 -3.5,0 0,-3.46875 -2.875,0 0,-12.40625 2.875,0 0,-17.75 -2.875,0 0,-12.375 2.875,0 0,-3.5 3.5,0 0,-2.875 z m 67.5,0 12.375,0 0,2.875 17.75,0 0,-2.875 12.40625,0 0,2.875 3.46875,0 0,3.5 2.875,0 0,12.375 -2.875,0 0,17.75 2.875,0 0,12.40625 -2.875,0 0,3.46875 -3.46875,0 0,2.875 -12.40625,0 0,-2.875 -17.75,0 0,2.875 -12.375,0 0,-2.875 -3.5,0 0,-3.46875 -2.875,0 0,-12.40625 2.875,0 0,-17.75 -2.875,0 0,-12.375 2.875,0 0,-3.5 3.5,0 0,-2.875 z m 67.5,0 12.375,0 0,2.875 17.75,0 0,-2.875 12.40625,0 0,2.875 3.46875,0 0,3.5 2.875,0 0,12.375 -2.875,0 0,17.75 2.875,0 0,12.40625 -2.875,0 0,3.46875 -3.46875,0 0,2.875 -12.40625,0 0,-2.875 -17.75,0 0,2.875 -12.375,0 0,-2.875 -3.5,0 0,-3.46875 -2.875,0 0,-12.40625 2.875,0 0,-17.75 -2.875,0 0,-12.375 2.875,0 0,-3.5 3.5,0 0,-2.875 z m 67.5,0 12.375,0 0,2.875 17.75,0 0,-2.875 12.40625,0 0,2.875 3.46875,0 0,3.5 2.875,0 0,12.375 -2.875,0 0,17.75 2.875,0 0,12.40625 -2.875,0 0,3.46875 -3.46875,0 0,2.875 -12.40625,0 0,-2.875 -17.75,0 0,2.875 -12.375,0 0,-2.875 -3.5,0 0,-3.46875 -2.875,0 0,-12.40625 2.875,0 0,-17.75 -2.875,0 0,-12.375 2.875,0 0,-3.5 3.5,0 0,-2.875 z m 67.5,0 12.375,0 0,2.875 17.75,0 0,-2.875 12.40625,0 0,2.875 3.46875,0 0,3.5 2.875,0 0,12.375 -2.875,0 0,17.75 2.875,0 0,12.40625 -2.875,0 0,3.46875 -3.46875,0 0,2.875 -12.40625,0 0,-2.875 -17.75,0 0,2.875 -12.375,0 0,-2.875 -3.5,0 0,-3.46875 -2.875,0 0,-12.40625 2.875,0 0,-17.75 -2.875,0 0,-12.375 2.875,0 0,-3.5 3.5,0 0,-2.875 z m 337.46875,0 12.4062,0 0,2.875 17.75,0 0,-2.875 12.375,0 0,2.875 3.5,0 0,3.5 2.875,0 0,12.375 -2.875,0 0,17.75 2.875,0 0,12.40625 -2.875,0 0,3.46875 -3.5,0 0,2.875 -12.375,0 0,-2.875 -17.75,0 0,2.875 -12.4062,0 0,-2.875 -3.4688,0 0,-3.46875 -2.875,0 0,-12.40625 2.875,0 0,-17.75 -2.875,0 0,-12.375 2.875,0 0,-3.5 3.4688,0 0,-2.875 z m 67.5,0 12.4062,0 0,2.875 17.75,0 0,-2.875 12.375,0 0,2.875 3.5,0 0,3.5 2.875,0 0,12.375 -2.875,0 0,17.75 2.875,0 0,12.40625 -2.875,0 0,3.46875 -3.5,0 0,2.875 -12.375,0 0,-2.875 -17.75,0 0,2.875 -12.4062,0 0,-2.875 -3.4688,0 0,-3.46875 -2.875,0 0,-12.40625 2.875,0 0,-17.75 -2.875,0 0,-12.375 2.875,0 0,-3.5 3.4688,0 0,-2.875 z m 67.5,0 12.4062,0 0,2.875 17.75,0 0,-2.875 12.375,0 0,2.875 3.5,0 0,3.5 2.875,0 0,12.375 -2.875,0 0,17.75 2.875,0 0,12.40625 -2.875,0 0,3.46875 -3.5,0 0,2.875 -12.375,0 0,-2.875 -17.75,0 0,2.875 -12.4062,0 0,-2.875 -3.4688,0 0,-3.46875 -2.875,0 0,-12.40625 2.875,0 0,-17.75 -2.875,0 0,-12.375 2.875,0 0,-3.5 3.4688,0 0,-2.875 z m 67.5,0 12.4062,0 0,2.875 17.75,0 0,-2.875 12.375,0 0,2.875 3.5,0 0,3.5 2.875,0 0,12.375 -2.875,0 0,17.75 2.875,0 0,12.40625 -2.875,0 0,3.46875 -3.5,0 0,2.875 -12.375,0 0,-2.875 -17.75,0 0,2.875 -12.4062,0 0,-2.875 -3.4688,0 0,-3.46875 -2.875,0 0,-12.40625 2.875,0 0,-17.75 -2.875,0 0,-12.375 2.875,0 0,-3.5 3.4688,0 0,-2.875 z m 67.5,0 12.4062,0 0,2.875 17.75,0 0,-2.875 12.375,0 0,2.875 3.5,0 0,3.5 2.875,0 0,12.375 -2.875,0 0,17.75 2.875,0 0,12.40625 -2.875,0 0,3.46875 -3.5,0 0,2.875 -12.375,0 0,-2.875 -17.75,0 0,2.875 -12.4062,0 0,-2.875 -3.4688,0 0,-3.46875 -2.875,0 0,-12.40625 2.875,0 0,-17.75 -2.875,0 0,-12.375 2.875,0 0,-3.5 3.4688,0 0,-2.875 z m 67.5,0 12.4062,0 0,2.875 17.75,0 0,-2.875 12.375,0 0,2.875 3.5,0 0,3.5 2.875,0 0,12.375 -2.875,0 0,17.75 2.875,0 0,12.40625 -2.875,0 0,3.46875 -3.5,0 0,2.875 -12.375,0 0,-2.875 -17.75,0 0,2.875 -12.4062,0 0,-2.875 -3.4688,0 0,-3.46875 -2.875,0 0,-12.40625 2.875,0 0,-17.75 -2.875,0 0,-12.375 2.875,0 0,-3.5 3.4688,0 0,-2.875 z m -1036.59375,30.34375 0.0312,11.6875 -49.5,0.0937 -0.0312,-11.6875 49.5,-0.0937 z m 1103.24995,0 49.5,0.0937 -0.031,11.6875 -49.5,-0.0937 0.031,-11.6875 z m -1112.87495,37.15625 12.375,0 0,2.875 17.75,0 0,-2.875 12.40625,0 0,2.875 3.46875,0 0,3.46875 2.875,0 0,12.40625 -2.875,0 0,17.75 2.875,0 0,12.375 -2.875,0 0,3.5 -3.46875,0 0,2.875 -12.40625,0 0,-2.875 -17.75,0 0,2.875 -12.375,0 0,-2.875 -3.5,0 0,-3.5 -2.875,0 0,-12.375 2.875,0 0,-17.75 -2.875,0 0,-12.40625 2.875,0 0,-3.46875 3.5,0 0,-2.875 z m 101.25,0 12.375,0 0,2.875 17.75,0 0,-2.875 12.40625,0 0,2.875 3.46875,0 0,3.5 2.875,0 0,12.375 -2.875,0 0,17.75 2.875,0 0,12.40625 -2.875,0 0,3.46875 -3.46875,0 0,2.875 -12.40625,0 0,-2.875 -17.75,0 0,2.875 -12.375,0 0,-2.875 -3.5,0 0,-3.46875 -2.875,0 0,-12.40625 2.875,0 0,-17.75 -2.875,0 0,-12.375 2.875,0 0,-3.5 3.5,0 0,-2.875 z m 84.375,0 12.375,0 0,2.875 17.75,0 0,-2.875 12.40625,0 0,2.875 3.46875,0 0,3.5 2.875,0 0,12.375 -2.875,0 0,17.75 2.875,0 0,12.40625 -2.875,0 0,3.46875 -3.46875,0 0,2.875 -12.40625,0 0,-2.875 -17.75,0 0,2.875 -12.375,0 0,-2.875 -3.5,0 0,-3.46875 -2.875,0 0,-12.40625 2.875,0 0,-17.75 -2.875,0 0,-12.375 2.875,0 0,-3.5 3.5,0 0,-2.875 z m 101.25,0 12.375,0 0,2.875 17.75,0 0,-2.875 12.40625,0 0,2.875 3.46875,0 0,3.5 2.875,0 0,12.375 -2.875,0 0,17.75 2.875,0 0,12.40625 -2.875,0 0,3.46875 -3.46875,0 0,2.875 -12.40625,0 0,-2.875 -17.75,0 0,2.875 -12.375,0 0,-2.875 -3.5,0 0,-3.46875 -2.875,0 0,-12.40625 2.875,0 0,-17.75 -2.875,0 0,-12.375 2.875,0 0,-3.5 3.5,0 0,-2.875 z m 506.21875,0 12.4062,0 0,2.875 17.75,0 0,-2.875 12.375,0 0,2.875 3.5,0 0,3.5 2.875,0 0,12.375 -2.875,0 0,17.75 2.875,0 0,12.40625 -2.875,0 0,3.46875 -3.5,0 0,2.875 -12.375,0 0,-2.875 -17.75,0 0,2.875 -12.4062,0 0,-2.875 -3.4688,0 0,-3.46875 -2.875,0 0,-12.40625 2.875,0 0,-17.75 -2.875,0 0,-12.375 2.875,0 0,-3.5 3.4688,0 0,-2.875 z m 101.25,0 12.4062,0 0,2.875 17.75,0 0,-2.875 12.375,0 0,2.875 3.5,0 0,3.5 2.875,0 0,12.375 -2.875,0 0,17.75 2.875,0 0,12.40625 -2.875,0 0,3.46875 -3.5,0 0,2.875 -12.375,0 0,-2.875 -17.75,0 0,2.875 -12.4062,0 0,-2.875 -3.4688,0 0,-3.46875 -2.875,0 0,-12.40625 2.875,0 0,-17.75 -2.875,0 0,-12.375 2.875,0 0,-3.5 3.4688,0 0,-2.875 z m 84.375,0 12.4062,0 0,2.875 17.75,0 0,-2.875 12.375,0 0,2.875 3.5,0 0,3.5 2.875,0 0,12.375 -2.875,0 0,17.75 2.875,0 0,12.40625 -2.875,0 0,3.46875 -3.5,0 0,2.875 -12.375,0 0,-2.875 -17.75,0 0,2.875 -12.4062,0 0,-2.875 -3.4688,0 0,-3.46875 -2.875,0 0,-12.40625 2.875,0 0,-17.75 -2.875,0 0,-12.375 2.875,0 0,-3.5 3.4688,0 0,-2.875 z m 101.25,0 12.4062,0 0,2.875 17.75,0 0,-2.875 12.375,0 0,2.875 3.5,0 0,3.46875 2.875,0 0,12.40625 -2.875,0 0,17.75 2.875,0 0,12.375 -2.875,0 0,3.5 -3.5,0 0,2.875 -12.375,0 0,-2.875 -17.75,0 0,2.875 -12.4062,0 0,-2.875 -3.4688,0 0,-3.5 -2.875,0 0,-12.375 2.875,0 0,-17.75 -2.875,0 0,-12.40625 2.875,0 0,-3.46875 3.4688,0 0,-2.875 z m -1010.5625,5.46875 0.0937,49.5 -11.6875,0.0312 -0.0937,-49.5 11.6875,-0.0312 z m 983.6875,0 11.6875,0.0312 -0.094,49.5 -11.6876,-0.0312 0.094,-49.5 z m -1068.28125,0.1875 0.0937,49.5 -11.6875,0.0312 -0.125,-49.5 11.71875,-0.0312 z m 1152.87505,0 11.7187,0.0312 -0.125,49.5 -11.6875,-0.0312 0.094,-49.5 z m -723.25005,7.5625 0.0312,11.71875 -49.5,0.0937 -0.0312,-11.6875 49.5,-0.125 z m 67.5,0 0.0312,11.71875 -49.5,0.0937 -0.0312,-11.6875 49.5,-0.125 z m 158.62505,0 49.5,0.125 -0.031,11.6875 -49.5,-0.0937 0.031,-11.71875 z m 67.5,0 49.5,0.125 -0.031,11.6875 -49.5,-0.0937 0.031,-11.71875 z m -336.81255,20.53125 12.375,0 0,2.875 17.75,0 0,-2.875 12.40625,0 0,2.875 3.46875,0 0,3.5 2.875,0 0,12.375 -2.875,0 0,17.75 2.875,0 0,12.40625 -2.875,0 0,3.46875 -3.46875,0 0,2.875 -12.40625,0 0,-2.875 -17.75,0 0,2.875 -12.375,0 0,-2.875 -3.5,0 0,-3.46875 -2.875,0 0,-12.40625 2.875,0 0,-17.75 -2.875,0 0,-12.375 2.875,0 0,-3.5 3.5,0 0,-2.875 z m 67.5,0 12.375,0 0,2.875 17.75,0 0,-2.875 12.40625,0 0,2.875 3.46875,0 0,3.5 2.875,0 0,12.375 -2.875,0 0,17.75 2.875,0 0,12.40625 -2.875,0 0,3.46875 -3.46875,0 0,2.875 -12.40625,0 0,-2.875 -17.75,0 0,2.875 -12.375,0 0,-2.875 -3.5,0 0,-3.46875 -2.875,0 0,-12.40625 2.875,0 0,-17.75 -2.875,0 0,-12.375 2.875,0 0,-3.5 3.5,0 0,-2.875 z m 202.46875,0 12.4062,0 0,2.875 17.75,0 0,-2.875 12.375,0 0,2.875 3.5,0 0,3.5 2.875,0 0,12.375 -2.875,0 0,17.75 2.875,0 0,12.40625 -2.875,0 0,3.46875 -3.5,0 0,2.875 -12.375,0 0,-2.875 -17.75,0 0,2.875 -12.4062,0 0,-2.875 -3.4688,0 0,-3.46875 -2.875,0 0,-12.40625 2.875,0 0,-17.75 -2.875,0 0,-12.375 2.875,0 0,-3.5 3.4688,0 0,-2.875 z m 67.5,0 12.4062,0 0,2.875 17.75,0 0,-2.875 12.375,0 0,2.875 3.5,0 0,3.5 2.875,0 0,12.375 -2.875,0 0,17.75 2.875,0 0,12.40625 -2.875,0 0,3.46875 -3.5,0 0,2.875 -12.375,0 0,-2.875 -17.75,0 0,2.875 -12.4062,0 0,-2.875 -3.4688,0 0,-3.46875 -2.875,0 0,-12.40625 2.875,0 0,-17.75 -2.875,0 0,-12.375 2.875,0 0,-3.5 3.4688,0 0,-2.875 z m -294.09375,64.09375 0.0312,11.6875 -49.5,0.0937 -0.0312,-11.6875 49.5,-0.0937 z m 67.5,0 0.0312,11.6875 -49.5,0.0937 -0.0312,-11.6875 49.5,-0.0937 z m 158.24995,0 49.5,0.0937 -0.031,11.6875 -49.5,-0.0937 0.031,-11.6875 z m 67.5,0 49.5,0.0937 -0.031,11.6875 -49.5,-0.0937 0.031,-11.6875 z m -302.87495,37.15625 12.375,0 0,2.875 17.75,0 0,-2.875 12.40625,0 0,2.875 3.46875,0 0,3.46875 2.875,0 0,12.40625 -2.875,0 0,17.75 2.875,0 0,12.375 -2.875,0 0,3.5 -3.46875,0 0,2.875 -12.40625,0 0,-2.875 -17.75,0 0,2.875 -12.375,0 0,-2.875 -3.5,0 0,-3.5 -2.875,0 0,-12.375 2.875,0 0,-17.75 -2.875,0 0,-12.40625 2.875,0 0,-3.46875 3.5,0 0,-2.875 z m 269.96875,0 12.4062,0 0,2.875 17.75,0 0,-2.875 12.375,0 0,2.875 3.5,0 0,3.46875 2.875,0 0,12.40625 -2.875,0 0,17.75 2.875,0 0,12.375 -2.875,0 0,3.5 -3.5,0 0,2.875 -12.375,0 0,-2.875 -17.75,0 0,2.875 -12.4062,0 0,-2.875 -3.4688,0 0,-3.5 -2.875,0 0,-12.375 2.875,0 0,-17.75 -2.875,0 0,-12.40625 2.875,0 0,-3.46875 3.4688,0 0,-2.875 z m -200.5625,5.46875 0.0937,49.5 -11.6875,0.0312 -0.0937,-49.5 11.6875,-0.0312 z m 173.6875,0 11.6875,0.0312 -0.094,49.5 -11.6876,-0.0312 0.094,-49.5 z m -258.28125,0.1875 0.0937,49.5 -11.6875,0.0312 -0.125,-49.5 11.71875,-0.0312 z m 342.87505,0 11.7187,0.0312 -0.125,49.5 -11.6875,-0.0312 0.094,-49.5 z"
       id="rect5621-2-2-5-0-57-9-4-2-8-9-8-6"
       inkscape:connector-curvature="0" />
  </g>
</svg>
