<?xml version="1.0" encoding="UTF-8" standalone="no"?>
<!-- Created with Inkscape (http://www.inkscape.org/) -->

<svg
   xmlns:dc="http://purl.org/dc/elements/1.1/"
   xmlns:cc="http://creativecommons.org/ns#"
   xmlns:rdf="http://www.w3.org/1999/02/22-rdf-syntax-ns#"
   xmlns:svg="http://www.w3.org/2000/svg"
   xmlns="http://www.w3.org/2000/svg"
   version="1.1"
   width="2104.7244"
   height="1052.36"
   id="svg2">
  <defs
     id="defs4">
    <symbol
       id="*Paper_Space0" />
    <symbol
       id="*Paper_Space" />
    <symbol
       id="*Model_Space" />
    <pattern
       height="8"
       width="8"
       patternUnits="userSpaceOnUse"
       y="0"
       x="0"
       id="Hatch">
      <path
         linecap="square"
         stroke="#000000"
         stroke-width="0.25"
         d="M8 4 l-4,4"
         id="path3033" />
      <path
         linecap="square"
         stroke="#000000"
         stroke-width="0.25"
         d="M6 2 l-4,4"
         id="path3035" />
      <path
         linecap="square"
         stroke="#000000"
         stroke-width="0.25"
         d="M4 0 l-4,4"
         id="path3037" />
    </pattern>
    <marker
       refX="0"
       refY="0"
       orient="auto"
       id="DistanceX"
       style="overflow:visible">
      <path
         d="M 3,-3 -3,3 M 0,-5 0,5"
         id="path3030"
         style="stroke:#000000;stroke-width:0.5" />
    </marker>
  </defs>
  <metadata
     id="metadata7">
    <rdf:RDF>
      <cc:Work
         rdf:about="">
        <dc:format>image/svg+xml</dc:format>
        <dc:type
           rdf:resource="http://purl.org/dc/dcmitype/StillImage" />
        <dc:title></dc:title>
      </cc:Work>
    </rdf:RDF>
  </metadata>
  <g
     transform="translate(0,-0.00205801)"
     id="layer1">
    <path
       d="m 1277.2152,411.48728 0,67.50005 67.5,0 0,-67.50005 -67.5,0 z m 12.4688,6.12505 12.4062,0 0,2.875 17.75,0 0,-2.875 12.375,0 0,2.875 3.5,0 0,3.5 2.875,0 0,12.375 -2.875,0 0,17.75 2.875,0 0,12.4062 -2.875,0 0,3.4688 -3.5,0 0,2.875 -12.375,0 0,-2.875 -17.75,0 0,2.875 -12.4062,0 0,-2.875 -3.4688,0 0,-3.4688 -2.875,0 0,-12.4062 2.875,0 0,-17.75 -2.875,0 0,-12.375 2.875,0 0,-3.5 3.4688,0 0,-2.875 z"
       id="rect5621-2-2-5-0-57-9-4-2-8-9-5-32-6-6"
       style="color:#000000;fill:#414141;fill-opacity:1;fill-rule:nonzero;stroke:none;stroke-width:0;marker:none;visibility:visible;display:inline;overflow:visible;enable-background:accumulate" />
    <path
       d="m 1277.2152,276.48728 0,67.5 67.5,0 0,-67.5 -67.5,0 z m 12.4688,6.125 12.4062,0 0,2.875 17.75,0 0,-2.875 12.375,0 0,2.875 3.5,0 0,3.5 2.875,0 0,12.375 -2.875,0 0,17.75 2.875,0 0,12.40625 -2.875,0 0,3.46875 -3.5,0 0,2.875 -12.375,0 0,-2.875 -17.75,0 0,2.875 -12.4062,0 0,-2.875 -3.4688,0 0,-3.46875 -2.875,0 0,-12.40625 2.875,0 0,-17.75 -2.875,0 0,-12.375 2.875,0 0,-3.5 3.4688,0 0,-2.875 z"
       id="rect5621-2-2-5-0-57-9-4-2-8-9-79-04-4-3"
       style="color:#000000;fill:#414141;fill-opacity:1;fill-rule:nonzero;stroke:none;stroke-width:0;marker:none;visibility:visible;display:inline;overflow:visible;enable-background:accumulate" />
    <path
       d="m 1277.2152,343.98728 0,67.49999 67.5,0 0,-67.5 -67.5,0 z m 12.4688,6.125 12.4062,0 0,2.875 17.75,0 0,-2.875 12.375,0 0,2.875 3.5,0 0,3.5 2.875,0 0,12.375 -2.875,0 0,17.74999 2.875,0 0,12.40625 -2.875,0 0,3.46875 -3.5,0 0,2.875 -12.375,0 0,-2.875 -17.75,0 0,2.875 -12.4062,0 0,-2.875 -3.4688,0 0,-3.46875 -2.875,0 0,-12.40625 2.875,0 0,-17.75 -2.875,0 0,-12.375 2.875,0 0,-3.5 3.4688,0 0,-2.875 z"
       id="rect5621-2-2-5-0-57-9-4-2-8-9-4-8-0-4"
       style="color:#000000;fill:#414141;fill-opacity:1;fill-rule:nonzero;stroke:none;stroke-width:0;marker:none;visibility:visible;display:inline;overflow:visible;enable-background:accumulate" />
    <path
       d="m 1344.7152,268.04979 0,67.5 67.5,0 0,-67.5 -67.5,0 z m 12.4688,6.125 12.4062,0 0,2.875 17.75,0 0,-2.875 12.375,0 0,2.875 3.5,0 0,3.5 2.875,0 0,12.375 -2.875,0 0,17.75 2.875,0 0,12.40625 -2.875,0 0,3.46875 -3.5,0 0,2.875 -12.375,0 0,-2.875 -17.75,0 0,2.875 -12.4062,0 0,-2.875 -3.4688,0 0,-3.46875 -2.875,0 0,-12.40625 2.875,0 0,-17.75 -2.875,0 0,-12.375 2.875,0 0,-3.5 3.4688,0 0,-2.875 z"
       id="rect5621-2-2-5-0-57-9-4-2-8-9-79-7-9-4-9"
       style="color:#000000;fill:#414141;fill-opacity:1;fill-rule:nonzero;stroke:none;stroke-width:0;marker:none;visibility:visible;display:inline;overflow:visible;enable-background:accumulate" />
    <path
       d="m 1344.7152,335.54979 0,67.5 67.5,0 0,-67.5 -67.5,0 z m 12.4688,6.125 12.4062,0 0,2.875 17.75,0 0,-2.875 12.375,0 0,2.875 3.5,0 0,3.5 2.875,0 0,12.375 -2.875,0 0,17.75 2.875,0 0,12.40625 -2.875,0 0,3.46875 -3.5,0 0,2.875 -12.375,0 0,-2.875 -17.75,0 0,2.875 -12.4062,0 0,-2.875 -3.4688,0 0,-3.46875 -2.875,0 0,-12.40625 2.875,0 0,-17.75 -2.875,0 0,-12.375 2.875,0 0,-3.5 3.4688,0 0,-2.875 z"
       id="rect5621-2-2-5-0-57-9-4-2-8-9-4-2-0-5-2"
       style="color:#000000;fill:#414141;fill-opacity:1;fill-rule:nonzero;stroke:none;stroke-width:0;marker:none;visibility:visible;display:inline;overflow:visible;enable-background:accumulate" />
    <path
       d="m 1344.7152,403.04979 0,67.50004 67.5,0 0,-67.50004 -67.5,0 z m 12.4688,6.125 12.4062,0 0,2.875 17.75,0 0,-2.875 12.375,0 0,2.875 3.5,0 0,3.50004 2.875,0 0,12.375 -2.875,0 0,17.75 2.875,0 0,12.4062 -2.875,0 0,3.4688 -3.5,0 0,2.875 -12.375,0 0,-2.875 -17.75,0 0,2.875 -12.4062,0 0,-2.875 -3.4688,0 0,-3.4688 -2.875,0 0,-12.4062 2.875,0 0,-17.75 -2.875,0 0,-12.375 2.875,0 0,-3.50004 3.4688,0 0,-2.875 z"
       id="rect5621-2-2-5-0-57-9-4-2-8-9-5-2-9-2-9"
       style="color:#000000;fill:#414141;fill-opacity:1;fill-rule:nonzero;stroke:none;stroke-width:0;marker:none;visibility:visible;display:inline;overflow:visible;enable-background:accumulate" />
    <path
       d="m 1412.2152,251.1748 0,67.5 67.5,0 0,-67.5 -67.5,0 z m 12.4688,6.125 12.4062,0 0,2.875 17.75,0 0,-2.875 12.375,0 0,2.875 3.5,0 0,3.5 2.875,0 0,12.375 -2.875,0 0,17.75 2.875,0 0,12.40625 -2.875,0 0,3.46875 -3.5,0 0,2.875 -12.375,0 0,-2.875 -17.75,0 0,2.875 -12.4062,0 0,-2.875 -3.4688,0 0,-3.46875 -2.875,0 0,-12.40625 2.875,0 0,-17.75 -2.875,0 0,-12.375 2.875,0 0,-3.5 3.4688,0 0,-2.875 z"
       id="rect5621-2-2-5-0-57-9-4-2-8-9-79-74-2-69-5"
       style="color:#000000;fill:#414141;fill-opacity:1;fill-rule:nonzero;stroke:none;stroke-width:0;marker:none;visibility:visible;display:inline;overflow:visible;enable-background:accumulate" />
    <path
       d="m 1412.2152,318.6748 0,67.5 67.5,0 0,-67.5 -67.5,0 z m 12.4688,6.125 12.4062,0 0,2.875 17.75,0 0,-2.875 12.375,0 0,2.875 3.5,0 0,3.5 2.875,0 0,12.375 -2.875,0 0,17.75 2.875,0 0,12.40625 -2.875,0 0,3.46875 -3.5,0 0,2.875 -12.375,0 0,-2.875 -17.75,0 0,2.875 -12.4062,0 0,-2.875 -3.4688,0 0,-3.46875 -2.875,0 0,-12.40625 2.875,0 0,-17.75 -2.875,0 0,-12.375 2.875,0 0,-3.5 3.4688,0 0,-2.875 z"
       id="rect5621-2-2-5-0-57-9-4-2-8-9-4-9-6-9-3"
       style="color:#000000;fill:#414141;fill-opacity:1;fill-rule:nonzero;stroke:none;stroke-width:0;marker:none;visibility:visible;display:inline;overflow:visible;enable-background:accumulate" />
    <path
       d="m 1412.2152,386.1748 0,67.50003 67.5,0 0,-67.50003 -67.5,0 z m 12.4688,6.125 12.4062,0 0,2.875 17.75,0 0,-2.875 12.375,0 0,2.875 3.5,0 0,3.5 2.875,0 0,12.375 -2.875,0 0,17.75003 2.875,0 0,12.4062 -2.875,0 0,3.4688 -3.5,0 0,2.875 -12.375,0 0,-2.875 -17.75,0 0,2.875 -12.4062,0 0,-2.875 -3.4688,0 0,-3.4688 -2.875,0 0,-12.4062 2.875,0 0,-17.75003 -2.875,0 0,-12.375 2.875,0 0,-3.5 3.4688,0 0,-2.875 z"
       id="rect5621-2-2-5-0-57-9-4-2-8-9-5-3-0-53-6"
       style="color:#000000;fill:#414141;fill-opacity:1;fill-rule:nonzero;stroke:none;stroke-width:0;marker:none;visibility:visible;display:inline;overflow:visible;enable-background:accumulate" />
    <path
       d="m 1479.7152,259.61229 0,67.5 67.5,0 0,-67.5 -67.5,0 z m 12.4688,6.125 12.4062,0 0,2.875 17.75,0 0,-2.875 12.375,0 0,2.875 3.5,0 0,3.5 2.875,0 0,12.375 -2.875,0 0,17.75 2.875,0 0,12.40625 -2.875,0 0,3.46875 -3.5,0 0,2.875 -12.375,0 0,-2.875 -17.75,0 0,2.875 -12.4062,0 0,-2.875 -3.4688,0 0,-3.46875 -2.875,0 0,-12.40625 2.875,0 0,-17.75 -2.875,0 0,-12.375 2.875,0 0,-3.5 3.4688,0 0,-2.875 z"
       id="rect5621-2-2-5-0-57-9-4-2-8-9-79-2-4-3-4"
       style="color:#000000;fill:#414141;fill-opacity:1;fill-rule:nonzero;stroke:none;stroke-width:0;marker:none;visibility:visible;display:inline;overflow:visible;enable-background:accumulate" />
    <path
       d="m 1479.7152,327.11229 0,67.5 67.5,0 0,-67.5 -67.5,0 z m 12.4688,6.125 12.4062,0 0,2.875 17.75,0 0,-2.875 12.375,0 0,2.875 3.5,0 0,3.5 2.875,0 0,12.375 -2.875,0 0,17.75 2.875,0 0,12.40625 -2.875,0 0,3.46875 -3.5,0 0,2.875 -12.375,0 0,-2.875 -17.75,0 0,2.875 -12.4062,0 0,-2.875 -3.4688,0 0,-3.46875 -2.875,0 0,-12.40625 2.875,0 0,-17.75 -2.875,0 0,-12.375 2.875,0 0,-3.5 3.4688,0 0,-2.875 z"
       id="rect5621-2-2-5-0-57-9-4-2-8-9-4-0-2-39-3"
       style="color:#000000;fill:#414141;fill-opacity:1;fill-rule:nonzero;stroke:none;stroke-width:0;marker:none;visibility:visible;display:inline;overflow:visible;enable-background:accumulate" />
    <path
       d="m 1479.7152,394.61229 0,67.50004 67.5,0 0,-67.50004 -67.5,0 z m 12.4688,6.125 12.4062,0 0,2.875 17.75,0 0,-2.875 12.375,0 0,2.875 3.5,0 0,3.5 2.875,0 0,12.37504 -2.875,0 0,17.75 2.875,0 0,12.4062 -2.875,0 0,3.4688 -3.5,0 0,2.875 -12.375,0 0,-2.875 -17.75,0 0,2.875 -12.4062,0 0,-2.875 -3.4688,0 0,-3.4688 -2.875,0 0,-12.4062 2.875,0 0,-17.75 -2.875,0 0,-12.37504 2.875,0 0,-3.5 3.4688,0 0,-2.875 z"
       id="rect5621-2-2-5-0-57-9-4-2-8-9-5-5-3-4-8"
       style="color:#000000;fill:#414141;fill-opacity:1;fill-rule:nonzero;stroke:none;stroke-width:0;marker:none;visibility:visible;display:inline;overflow:visible;enable-background:accumulate" />
    <path
       d="m 1547.2152,276.48729 0,67.5 67.5,0 0,-67.5 -67.5,0 z m 12.4688,6.125 12.4062,0 0,2.875 17.75,0 0,-2.875 12.375,0 0,2.875 3.5,0 0,3.5 2.875,0 0,12.375 -2.875,0 0,17.75 2.875,0 0,12.40625 -2.875,0 0,3.46875 -3.5,0 0,2.875 -12.375,0 0,-2.875 -17.75,0 0,2.875 -12.4062,0 0,-2.875 -3.4688,0 0,-3.46875 -2.875,0 0,-12.40625 2.875,0 0,-17.75 -2.875,0 0,-12.375 2.875,0 0,-3.5 3.4688,0 0,-2.875 z"
       id="rect5621-2-2-5-0-57-9-4-2-8-9-79-7-7-55-2-2"
       style="color:#000000;fill:#414141;fill-opacity:1;fill-rule:nonzero;stroke:none;stroke-width:0;marker:none;visibility:visible;display:inline;overflow:visible;enable-background:accumulate" />
    <path
       d="m 1547.2152,343.98729 0,67.5 67.5,0 0,-67.5 -67.5,0 z m 12.4688,6.125 12.4062,0 0,2.875 17.75,0 0,-2.875 12.375,0 0,2.875 3.5,0 0,3.5 2.875,0 0,12.375 -2.875,0 0,17.75 2.875,0 0,12.40625 -2.875,0 0,3.46875 -3.5,0 0,2.875 -12.375,0 0,-2.875 -17.75,0 0,2.875 -12.4062,0 0,-2.875 -3.4688,0 0,-3.46875 -2.875,0 0,-12.40625 2.875,0 0,-17.75 -2.875,0 0,-12.375 2.875,0 0,-3.5 3.4688,0 0,-2.875 z"
       id="rect5621-2-2-5-0-57-9-4-2-8-9-4-2-1-4-8-9"
       style="color:#000000;fill:#414141;fill-opacity:1;fill-rule:nonzero;stroke:none;stroke-width:0;marker:none;visibility:visible;display:inline;overflow:visible;enable-background:accumulate" />
    <path
       d="m 1547.2152,411.48729 0,67.50004 67.5,0 0,-67.50004 -67.5,0 z m 12.4688,6.12504 12.4062,0 0,2.875 17.75,0 0,-2.875 12.375,0 0,2.875 3.5,0 0,3.5 2.875,0 0,12.375 -2.875,0 0,17.75 2.875,0 0,12.4062 -2.875,0 0,3.4688 -3.5,0 0,2.875 -12.375,0 0,-2.875 -17.75,0 0,2.875 -12.4062,0 0,-2.875 -3.4688,0 0,-3.4688 -2.875,0 0,-12.4062 2.875,0 0,-17.75 -2.875,0 0,-12.375 2.875,0 0,-3.5 3.4688,0 0,-2.875 z"
       id="rect5621-2-2-5-0-57-9-4-2-8-9-5-2-6-5-6-2"
       style="color:#000000;fill:#414141;fill-opacity:1;fill-rule:nonzero;stroke:none;stroke-width:0;marker:none;visibility:visible;display:inline;overflow:visible;enable-background:accumulate" />
    <path
       d="m 1614.7152,276.48729 0,67.5 67.5,0 0,-67.5 -67.5,0 z m 12.4688,6.125 12.4062,0 0,2.875 17.75,0 0,-2.875 12.375,0 0,2.875 3.5,0 0,3.5 2.875,0 0,12.375 -2.875,0 0,17.75 2.875,0 0,12.40625 -2.875,0 0,3.46875 -3.5,0 0,2.875 -12.375,0 0,-2.875 -17.75,0 0,2.875 -12.4062,0 0,-2.875 -3.4688,0 0,-3.46875 -2.875,0 0,-12.40625 2.875,0 0,-17.75 -2.875,0 0,-12.375 2.875,0 0,-3.5 3.4688,0 0,-2.875 z"
       id="rect5621-2-2-5-0-57-9-4-2-8-9-79-74-4-9-5-2"
       style="color:#000000;fill:#414141;fill-opacity:1;fill-rule:nonzero;stroke:none;stroke-width:0;marker:none;visibility:visible;display:inline;overflow:visible;enable-background:accumulate" />
    <path
       d="m 1614.7152,343.98729 0,67.5 67.5,0 0,-67.5 -67.5,0 z m 12.4688,6.125 12.4062,0 0,2.875 17.75,0 0,-2.875 12.375,0 0,2.875 3.5,0 0,3.5 2.875,0 0,12.375 -2.875,0 0,17.75 2.875,0 0,12.40625 -2.875,0 0,3.46875 -3.5,0 0,2.875 -12.375,0 0,-2.875 -17.75,0 0,2.875 -12.4062,0 0,-2.875 -3.4688,0 0,-3.46875 -2.875,0 0,-12.40625 2.875,0 0,-17.75 -2.875,0 0,-12.375 2.875,0 0,-3.5 3.4688,0 0,-2.875 z"
       id="rect5621-2-2-5-0-57-9-4-2-8-9-4-9-7-6-9-2"
       style="color:#000000;fill:#414141;fill-opacity:1;fill-rule:nonzero;stroke:none;stroke-width:0;marker:none;visibility:visible;display:inline;overflow:visible;enable-background:accumulate" />
    <path
       d="m 1614.7152,411.48729 0,67.50004 67.5,0 0,-67.50004 -67.5,0 z m 12.4688,6.12504 12.4062,0 0,2.875 17.75,0 0,-2.875 12.375,0 0,2.875 3.5,0 0,3.5 2.875,0 0,12.375 -2.875,0 0,17.75 2.875,0 0,12.4062 -2.875,0 0,3.4688 -3.5,0 0,2.875 -12.375,0 0,-2.875 -17.75,0 0,2.875 -12.4062,0 0,-2.875 -3.4688,0 0,-3.4688 -2.875,0 0,-12.4062 2.875,0 0,-17.75 -2.875,0 0,-12.375 2.875,0 0,-3.5 3.4688,0 0,-2.875 z"
       id="rect5621-2-2-5-0-57-9-4-2-8-9-5-3-3-4-3-5"
       style="color:#000000;fill:#414141;fill-opacity:1;fill-rule:nonzero;stroke:none;stroke-width:0;marker:none;visibility:visible;display:inline;overflow:visible;enable-background:accumulate" />
    <path
       d="m 1682.2152,276.48729 0,67.5 67.5,0 0,-67.5 -67.5,0 z m 12.4688,6.125 12.4062,0 0,2.875 17.75,0 0,-2.875 12.375,0 0,2.875 3.5,0 0,3.5 2.875,0 0,12.375 -2.875,0 0,17.75 2.875,0 0,12.40625 -2.875,0 0,3.46875 -3.5,0 0,2.875 -12.375,0 0,-2.875 -17.75,0 0,2.875 -12.4062,0 0,-2.875 -3.4688,0 0,-3.46875 -2.875,0 0,-12.40625 2.875,0 0,-17.75 -2.875,0 0,-12.375 2.875,0 0,-3.5 3.4688,0 0,-2.875 z"
       id="rect5621-2-2-5-0-57-9-4-2-8-9-1-7-4-3"
       style="color:#000000;fill:#414141;fill-opacity:1;fill-rule:nonzero;stroke:none;stroke-width:0;marker:none;visibility:visible;display:inline;overflow:visible;enable-background:accumulate" />
    <path
       d="m 1277.2152,276.48728 -67.5,0 0,67.5 0,33.74999 67.5,0 0,-33.75 0,-67.5 z m -6.125,29.34375 0,12.40625 -2.875,0 0,17.75 2.875,0 0,12.375 -2.875,0 0,3.5 -3.5,0 0,2.875 -12.375,0 0,-2.875 -17.75,0 0,2.875 -12.4062,0 0,-2.875 -3.4688,0 0,-3.5 -2.875,0 0,-12.375 2.875,0 0,-17.75 -2.875,0 0,-12.40625 2.875,0 0,-3.46875 3.4688,0 0,-2.875 12.4062,0 0,2.875 17.75,0 0,-2.875 12.375,0 0,2.875 3.5,0 0,3.46875 2.875,0 z"
       id="rect7292-1-2-0-2-9-5-6"
       style="color:#000000;fill:#414141;fill-opacity:1;fill-rule:nonzero;stroke:none;stroke-width:0;marker:none;visibility:visible;display:inline;overflow:visible;enable-background:accumulate" />
    <rect
       width="202.50006"
       height="6.125536"
       x="-1749.7155"
       y="270.36169"
       transform="scale(-1,1)"
       id="rect3218-6-2-74-1"
       style="color:#000000;fill:#414141;fill-opacity:1;fill-rule:nonzero;stroke:none;stroke-width:0;marker:none;visibility:visible;display:inline;overflow:visible;enable-background:accumulate" />
    <rect
       width="214.75121"
       height="6.125536"
       x="-485.11292"
       y="-1209.7155"
       transform="matrix(0,-1,-1,0,0,0)"
       id="rect3218-5-7-1-1-4"
       style="color:#000000;fill:#414141;fill-opacity:1;fill-rule:nonzero;stroke:none;stroke-width:0;marker:none;visibility:visible;display:inline;overflow:visible;enable-background:accumulate" />
    <rect
       width="282.2511"
       height="6.125536"
       x="-552.61285"
       y="-1755.8409"
       transform="matrix(0,-1,-1,0,0,0)"
       id="rect3218-5-2-4-2-1"
       style="color:#000000;fill:#414141;fill-opacity:1;fill-rule:nonzero;stroke:none;stroke-width:0;marker:none;visibility:visible;display:inline;overflow:visible;enable-background:accumulate" />
    <path
       d="m 1412.2152,453.67483 0,16.875 67.5,0 0,-16.875 -67.5,0 z"
       id="rect5621-2-2-5-0-57-9-4-2-8-9-5-2-9-9-3-7-74-5-5"
       style="color:#000000;fill:#414141;fill-opacity:1;fill-rule:nonzero;stroke:none;stroke-width:0;marker:none;visibility:visible;display:inline;overflow:visible;enable-background:accumulate" />
    <path
       d="m 1479.7152,462.11233 0,8.4375 67.5,0 0,-8.4375 -67.5,0 z"
       id="rect5621-2-2-5-0-57-9-4-2-8-9-5-2-9-9-3-7-7-4-1-1"
       style="color:#000000;fill:#414141;fill-opacity:1;fill-rule:nonzero;stroke:none;stroke-width:0;marker:none;visibility:visible;display:inline;overflow:visible;enable-background:accumulate" />
    <path
       d="m 1749.7152,445.23733 -67.5,0 0,67.5 0,33.75 67.5,0 0,-33.75 0,-67.5 z m -6.125,29.3437 0,12.4063 -2.875,0 0,17.75 2.875,0 0,12.375 -2.875,0 0,3.5 -3.5,0 0,2.875 -12.375,0 0,-2.875 -17.75,0 0,2.875 -12.4062,0 0,-2.875 -3.4688,0 0,-3.5 -2.875,0 0,-12.375 2.875,0 0,-17.75 -2.875,0 0,-12.4063 2.875,0 0,-3.4687 3.4688,0 0,-2.875 12.4062,0 0,2.875 17.75,0 0,-2.875 12.375,0 0,2.875 3.5,0 0,3.4687 2.875,0 z"
       id="rect7292-1-2-0-0-1-0-4"
       style="color:#000000;fill:#414141;fill-opacity:1;fill-rule:nonzero;stroke:none;stroke-width:0;marker:none;visibility:visible;display:inline;overflow:visible;enable-background:accumulate" />
    <path
       d="m 1749.7152,343.98729 -67.5,0 0,67.5 0,33.75004 67.5,0 0,-33.75004 0,-67.5 z m -6.125,29.34375 0,12.40625 -2.875,0 0,17.75 2.875,0 0,12.37504 -2.875,0 0,3.5 -3.5,0 0,2.875 -12.375,0 0,-2.875 -17.75,0 0,2.875 -12.4062,0 0,-2.875 -3.4688,0 0,-3.5 -2.875,0 0,-12.37504 2.875,0 0,-17.75 -2.875,0 0,-12.40625 2.875,0 0,-3.46875 3.4688,0 0,-2.875 12.4062,0 0,2.875 17.75,0 0,-2.875 12.375,0 0,2.875 3.5,0 0,3.46875 2.875,0 z"
       id="rect7292-1-2-0-2-9-7-8-5"
       style="color:#000000;fill:#414141;fill-opacity:1;fill-rule:nonzero;stroke:none;stroke-width:0;marker:none;visibility:visible;display:inline;overflow:visible;enable-background:accumulate" />
    <rect
       width="202.50034"
       height="6.125536"
       x="-1749.7155"
       y="546.48724"
       transform="scale(-1,1)"
       id="rect3218-7-5-0-6-1"
       style="color:#000000;fill:#414141;fill-opacity:1;fill-rule:nonzero;stroke:none;stroke-width:0;marker:none;visibility:visible;display:inline;overflow:visible;enable-background:accumulate" />
    <rect
       width="16.874968"
       height="6.125536"
       x="-569.48798"
       y="-1445.9652"
       transform="matrix(0,-1,-1,0,0,0)"
       id="rect3218-5-8-8-3-8"
       style="color:#000000;fill:#414141;fill-opacity:1;fill-rule:nonzero;stroke:none;stroke-width:0;marker:none;visibility:visible;display:inline;overflow:visible;enable-background:accumulate" />
    <rect
       width="8.4375"
       height="6.125536"
       x="-270.36169"
       y="-1344.7155"
       transform="matrix(0,-1,-1,0,0,0)"
       id="rect3218-5-8-8-0-9-8"
       style="color:#000000;fill:#414141;fill-opacity:1;fill-rule:nonzero;stroke:none;stroke-width:0;marker:none;visibility:visible;display:inline;overflow:visible;enable-background:accumulate" />
    <rect
       width="16.875011"
       height="6.125536"
       x="-261.92416"
       y="-1412.2155"
       transform="matrix(0,-1,-1,0,0,0)"
       id="rect3218-5-8-8-4-0-3"
       style="color:#000000;fill:#414141;fill-opacity:1;fill-rule:nonzero;stroke:none;stroke-width:0;marker:none;visibility:visible;display:inline;overflow:visible;enable-background:accumulate" />
    <rect
       width="8.4374962"
       height="6.125536"
       x="-253.48665"
       y="-1485.8409"
       transform="matrix(0,-1,-1,0,0,0)"
       id="rect3218-5-8-8-2-68-4"
       style="color:#000000;fill:#414141;fill-opacity:1;fill-rule:nonzero;stroke:none;stroke-width:0;marker:none;visibility:visible;display:inline;overflow:visible;enable-background:accumulate" />
    <rect
       width="16.875"
       height="6.125536"
       x="-270.36169"
       y="-1553.3409"
       transform="matrix(0,-1,-1,0,0,0)"
       id="rect3218-5-8-8-6-8-4"
       style="color:#000000;fill:#414141;fill-opacity:1;fill-rule:nonzero;stroke:none;stroke-width:0;marker:none;visibility:visible;display:inline;overflow:visible;enable-background:accumulate" />
    <rect
       width="134.99994"
       height="6.125536"
       x="-1344.7155"
       y="270.36169"
       transform="scale(-1,1)"
       id="rect3218-6-2-9-3-8"
       style="color:#000000;fill:#414141;fill-opacity:1;fill-rule:nonzero;stroke:none;stroke-width:0;marker:none;visibility:visible;display:inline;overflow:visible;enable-background:accumulate" />
    <rect
       width="67.500038"
       height="6.125536"
       x="-1412.2155"
       y="261.92416"
       transform="scale(-1,1)"
       id="rect3218-6-2-0-9-6"
       style="color:#000000;fill:#414141;fill-opacity:1;fill-rule:nonzero;stroke:none;stroke-width:0;marker:none;visibility:visible;display:inline;overflow:visible;enable-background:accumulate" />
    <rect
       width="67.499992"
       height="6.125536"
       x="-1479.7155"
       y="245.04915"
       transform="scale(-1,1)"
       id="rect3218-6-2-6-47-8"
       style="color:#000000;fill:#414141;fill-opacity:1;fill-rule:nonzero;stroke:none;stroke-width:0;marker:none;visibility:visible;display:inline;overflow:visible;enable-background:accumulate" />
    <rect
       width="67.499947"
       height="6.125536"
       x="-1547.2155"
       y="253.48665"
       transform="scale(-1,1)"
       id="rect3218-6-2-7-7-9"
       style="color:#000000;fill:#414141;fill-opacity:1;fill-rule:nonzero;stroke:none;stroke-width:0;marker:none;visibility:visible;display:inline;overflow:visible;enable-background:accumulate" />
    <path
       d="m 1344.7152,470.54983 0,8.4375 202.5,0 0,-8.4375 -202.5,0 z"
       id="rect5621-2-2-5-0-57-9-4-2-8-9-5-2-9-9-3-7-7-4-0-06-1"
       style="color:#000000;fill:#414141;fill-opacity:1;fill-rule:nonzero;stroke:none;stroke-width:0;marker:none;visibility:visible;display:inline;overflow:visible;enable-background:accumulate" />
    <path
       d="m 1682.2152,478.98733 -67.5,0 -67.5,0 0,6 0,55.5 0,6 67.5,0 67.5,0 0,-67.5 z m -19.3437,11.8125 -0.125,49.5 -11.6875,-0.031 0.094,-49.5 11.7188,0.031 z m -20.5313,0.6562 0,12.4063 -2.875,0 0,17.75 2.875,0 0,12.375 -2.875,0 0,3.5 -3.5,0 0,2.875 -12.375,0 0,-2.875 -17.75,0 0,2.875 -12.4062,0 0,-2.875 -3.4688,0 0,-3.5 -2.875,0 0,-12.375 2.875,0 0,-17.75 -2.875,0 0,-12.4063 2.875,0 0,-3.4687 3.4688,0 0,-2.875 12.4062,0 0,2.875 17.75,0 0,-2.875 12.375,0 0,2.875 3.5,0 0,3.4687 2.875,0 z m -64.0937,-0.8437 -0.094,49.5 -11.6875,-0.031 0.094,-49.5 11.6875,0.031 z"
       id="rect5621-2-2-5-0-57-9-4-2-8-9-8-1-6-7-3-1"
       style="color:#000000;fill:#414141;fill-opacity:1;fill-rule:nonzero;stroke:none;stroke-width:0;marker:none;visibility:visible;display:inline;overflow:visible;enable-background:accumulate" />
    <path
       d="m 1445.9652,495.86233 0,67.5 67.5,0 33.75,0 0,-67.5 -33.75,0 -67.5,0 z m 29.3438,6.125 12.4062,0 0,2.875 17.75,0 0,-2.875 12.375,0 0,2.875 3.5,0 0,3.5 2.875,0 0,12.375 -2.875,0 0,17.75 2.875,0 0,12.40625 -2.875,0 0,3.46875 -3.5,0 0,2.875 -12.375,0 0,-2.875 -17.75,0 0,2.875 -12.4062,0 0,-2.875 -3.4688,0 0,-3.46875 -2.875,0 0,-12.40625 2.875,0 0,-17.75 -2.875,0 0,-12.375 2.875,0 0,-3.5 3.4688,0 0,-2.875 z"
       id="rect7292-1-2-6-8-7-5"
       style="color:#000000;fill:#414141;fill-opacity:1;fill-rule:nonzero;stroke:none;stroke-width:0;marker:none;visibility:visible;display:inline;overflow:visible;enable-background:accumulate" />
    <path
       d="m 1445.9652,478.98733 0,16.875 101.25,0 0,-16.875 -101.25,0 z"
       id="rect5621-2-2-5-0-57-9-4-2-8-9-5-2-9-9-3-7-74-5-1-5"
       style="color:#000000;fill:#414141;fill-opacity:1;fill-rule:nonzero;stroke:none;stroke-width:0;marker:none;visibility:visible;display:inline;overflow:visible;enable-background:accumulate" />
    <rect
       width="101.25"
       height="6.125536"
       x="-1547.2152"
       y="563.36243"
       transform="scale(-1,1)"
       id="rect3218-7-5-0-6-3-4"
       style="color:#000000;fill:#414141;fill-opacity:1;fill-rule:nonzero;stroke:none;stroke-width:0;marker:none;visibility:visible;display:inline;overflow:visible;enable-background:accumulate" />
    <rect
       width="16.874968"
       height="6.125536"
       x="-569.48773"
       y="-1553.3407"
       transform="matrix(0,-1,-1,0,0,0)"
       id="rect3218-5-8-8-3-3-5"
       style="color:#000000;fill:#414141;fill-opacity:1;fill-rule:nonzero;stroke:none;stroke-width:0;marker:none;visibility:visible;display:inline;overflow:visible;enable-background:accumulate" />
    <path
       d="m 1277.2152,377.73728 -67.5,0 0,67.50005 0,33.75 67.5,0 0,-33.75 0,-67.50005 z m -6.125,29.34375 0,12.4063 -2.875,0 0,17.75 2.875,0 0,12.375 -2.875,0 0,3.5 -3.5,0 0,2.875 -12.375,0 0,-2.875 -17.75,0 0,2.875 -12.4062,0 0,-2.875 -3.4688,0 0,-3.5 -2.875,0 0,-12.375 2.875,0 0,-17.75 -2.875,0 0,-12.4063 2.875,0 0,-3.46875 3.4688,0 0,-2.875 12.4062,0 0,2.875 17.75,0 0,-2.875 12.375,0 0,2.875 3.5,0 0,3.46875 2.875,0 z"
       id="rect7292-1-2-0-0-4-0"
       style="color:#000000;fill:#414141;fill-opacity:1;fill-rule:nonzero;stroke:none;stroke-width:0;marker:none;visibility:visible;display:inline;overflow:visible;enable-background:accumulate" />
    <path
       d="m 1203.5826,485.11869 0,21.4375 45.9688,-21.4375 -45.9688,0 z"
       id="path9348-5"
       style="color:#000000;fill:#414141;fill-opacity:1;fill-rule:nonzero;stroke:none;stroke-width:0;marker:none;visibility:visible;display:inline;overflow:visible;enable-background:accumulate" />
    <path
       d="m 1304.8397,523.70664 0,-38.59375 -18,0 18,38.59375 z"
       id="path9377-7"
       style="color:#000000;fill:#414141;fill-opacity:1;fill-rule:nonzero;stroke:none;stroke-width:0;marker:none;visibility:visible;display:inline;overflow:visible;enable-background:accumulate" />
    <path
       d="m 1445.9652,478.98733 -67.5,0 -67.5,0 0,6 0,55.5 0,6 67.5,0 67.5,0 0,-67.5 z m -19.3437,11.8125 -0.125,49.5 -11.6875,-0.031 0.094,-49.5 11.7188,0.031 z m -20.5313,0.6562 0,12.4063 -2.875,0 0,17.75 2.875,0 0,12.375 -2.875,0 0,3.5 -3.5,0 0,2.875 -12.375,0 0,-2.875 -17.75,0 0,2.875 -12.4062,0 0,-2.875 -3.4688,0 0,-3.5 -2.875,0 0,-12.375 2.875,0 0,-17.75 -2.875,0 0,-12.4063 2.875,0 0,-3.4687 3.4688,0 0,-2.875 12.4062,0 0,2.875 17.75,0 0,-2.875 12.375,0 0,2.875 3.5,0 0,3.4687 2.875,0 z m -64.0937,-0.8437 -0.094,49.5 -11.6875,-0.031 0.094,-49.5 11.6875,0.031 z"
       id="rect5621-2-2-5-0-57-9-4-2-8-9-8-1-6-7-3-8-4"
       style="color:#000000;fill:#414141;fill-opacity:1;fill-rule:nonzero;stroke:none;stroke-width:0;marker:none;visibility:visible;display:inline;overflow:visible;enable-background:accumulate" />
    <path
       d="m 1216.041,507.51409 28.5266,61.17575 28.5269,61.17583 5.4378,-2.5357 50.3001,-23.45533 5.4378,-2.5357 -28.5267,-61.1758 -28.5266,-61.17581 -61.1759,28.52677 z m 18.8807,12.53919 44.915,-20.80632 4.9114,10.60558 -44.902,20.8344 -4.9244,-10.63384 z m 9.2715,18.33036 11.244,-5.2431 1.2151,2.6056 16.087,-7.5015 -1.2149,-2.6057 11.2154,-5.22981 1.2151,2.60563 3.172,-1.47916 1.4792,3.17204 2.6056,-1.215 5.2299,11.2156 -2.6056,1.215 7.5015,16.087 2.6055,-1.2151 5.2432,11.2438 -2.6056,1.2151 1.4659,3.1438 -3.1721,1.4791 1.2151,2.6057 -11.2156,5.2299 -1.215,-2.6057 -16.087,7.5015 1.215,2.6056 -11.244,5.2432 -1.215,-2.6056 -3.1436,1.4659 -1.466,-3.1438 -2.6056,1.215 -5.2431,-11.2438 2.6056,-1.2151 -7.5014,-16.0869 -2.6057,1.215 -5.2299,-11.2155 2.6057,-1.2151 -1.4792,-3.172 3.1435,-1.4659 -1.215,-2.6057 z m 26.3226,58.4452 44.902,-20.8344 4.9114,10.6056 -44.9021,20.8344 -4.9113,-10.6055 z"
       id="rect5621-2-2-5-0-57-9-4-2-8-9-8-5-3-8-9-7"
       style="color:#000000;fill:#414141;fill-opacity:1;fill-rule:nonzero;stroke:none;stroke-width:0;marker:none;visibility:visible;display:inline;overflow:visible;enable-background:accumulate" />
    <path
       d="m 1154.8652,536.04084 28.5266,61.1757 28.5269,61.17593 5.4378,-2.5358 50.3001,-23.4553 5.4379,-2.5357 -28.5269,-61.17583 -28.5266,-61.17575 -61.1758,28.52675 z m 18.8808,12.5392 44.9149,-20.8063 4.9114,10.6055 -44.902,20.8344 -4.9244,-10.6338 z m 9.2714,18.3303 11.244,-5.2431 1.2151,2.6056 16.0869,-7.5015 -1.215,-2.6056 11.2156,-5.2299 1.215,2.6057 3.1721,-1.4792 1.4791,3.1721 2.6057,-1.2151 5.2298,11.2156 -2.6057,1.215 7.5015,16.087 2.6056,-1.2151 5.2431,11.2439 -2.6056,1.215 1.466,3.1438 -3.172,1.4792 1.215,2.6056 -11.2155,5.2299 -1.2151,-2.6056 -16.087,7.5014 1.2151,2.60573 -11.244,5.243 -1.2151,-2.6055 -3.1436,1.4659 -1.466,-3.1438 -2.6055,1.215 -5.2432,-11.24383 2.6057,-1.215 -7.5014,-16.087 -2.6057,1.215 -5.2298,-11.2155 2.6055,-1.215 -1.4792,-3.1721 3.1436,-1.4659 -1.215,-2.6057 z m 26.3226,58.44523 44.9021,-20.83443 4.9112,10.60553 -44.9018,20.8344 -4.9114,-10.6055 z"
       id="rect5621-2-2-5-0-57-9-4-2-8-9-8-8-9-6-1-4"
       style="color:#000000;fill:#414141;fill-opacity:1;fill-rule:nonzero;stroke:none;stroke-width:0;marker:none;visibility:visible;display:inline;overflow:visible;enable-background:accumulate" />
    <path
       d="m 1334.2702,601.33894 -61.1757,28.52673 -61.1758,28.5268 2.5357,5.4378 23.4553,50.3 2.5357,5.4379 61.1758,-28.5268 61.1759,-28.5267 -28.5269,-61.17573 z m -12.539,18.88073 20.8062,44.9151 -10.6056,4.9113 -20.8345,-44.9019 10.634,-4.9245 z m -18.3306,9.2716 5.2432,11.244 -2.6056,1.215 7.5015,16.0869 2.6055,-1.215 5.2299,11.2156 -2.6056,1.215 1.4792,3.1721 -3.1721,1.4791 1.2151,2.6057 -11.2156,5.2299 -1.2151,-2.6057 -16.0869,7.5015 1.215,2.6057 -11.2439,5.243 -1.215,-2.6055 -3.1438,1.4659 -1.4792,-3.1721 -2.6056,1.215 -5.2298,-11.2155 2.6055,-1.2151 -7.5014,-16.0869 -2.6057,1.215 -5.2431,-11.2439 2.6056,-1.215 -1.4659,-3.1438 3.1438,-1.4659 -1.215,-2.6058 11.2438,-5.243 1.215,2.6057 16.087,-7.5014 -1.215,-2.6057 11.2155,-5.2299 1.2152,2.6056 3.1719,-1.4792 1.4659,3.1438 2.6056,-1.2151 z m -58.4454,26.3226 20.8345,44.9019 -10.6055,4.9113 -20.8343,-44.9019 10.6055,-4.9113 z"
       id="rect5621-2-2-5-0-57-9-4-2-8-9-8-1-36-4-9-1-8"
       style="color:#000000;fill:#414141;fill-opacity:1;fill-rule:nonzero;stroke:none;stroke-width:0;marker:none;visibility:visible;display:inline;overflow:visible;enable-background:accumulate" />
    <rect
       width="135"
       height="6.125536"
       x="-955.12274"
       y="1176.3851"
       transform="matrix(-0.90630779,0.42261826,0.42261826,0.90630779,0,0)"
       id="rect3218-0-1-4-6"
       style="color:#000000;fill:#414141;fill-opacity:1;fill-rule:nonzero;stroke:none;stroke-width:0;marker:none;visibility:visible;display:inline;overflow:visible;enable-background:accumulate" />
    <rect
       width="214.76485"
       height="6.125536"
       x="-1182.5106"
       y="-820.12274"
       transform="matrix(-0.42261826,-0.90630779,-0.90630779,0.42261826,0,0)"
       id="rect3218-5-7-1-1-3-14-9"
       style="color:#000000;fill:#414141;fill-opacity:1;fill-rule:nonzero;stroke:none;stroke-width:0;marker:none;visibility:visible;display:inline;overflow:visible;enable-background:accumulate" />
    <path
       d="m 1277.2076,478.99368 88.1876,189.06251 5.5312,-2.59375 -55.4688,-118.96876 -4.5,0 0,-6 0,-3.65625 -26.9687,-57.84375 -6.7813,0 z"
       id="rect3218-5-7-1-1-3-6-3"
       style="color:#000000;fill:#414141;fill-opacity:1;fill-rule:nonzero;stroke:none;stroke-width:0;marker:none;visibility:visible;display:inline;overflow:visible;enable-background:accumulate" />
    <path
       d="m 1315.4576,546.49369 2.8438,6.125 127.6562,0 0,-6.125 -130.5,0 z"
       id="rect3218-7-5-09-8"
       style="color:#000000;fill:#414141;fill-opacity:1;fill-rule:nonzero;stroke:none;stroke-width:0;marker:none;visibility:visible;display:inline;overflow:visible;enable-background:accumulate" />
    <path
       d="m 1304.8326,485.11869 0,38.59375 6.125,13.125 0,-51.71875 -6.125,0 z"
       id="path9449-6"
       style="color:#000000;fill:#414141;fill-opacity:1;fill-rule:nonzero;stroke:none;stroke-width:0;marker:none;visibility:visible;display:inline;overflow:visible;enable-background:accumulate" />
    <path
       d="m 1283.9889,478.99369 2.8437,6.125 24.125,0 0,-6.125 -26.9687,0 z"
       id="rect3218-7-5-0-6-3-3-3"
       style="color:#000000;fill:#414141;fill-opacity:1;fill-rule:nonzero;stroke:none;stroke-width:0;marker:none;visibility:visible;display:inline;overflow:visible;enable-background:accumulate" />
    <path
       d="m 1209.7076,478.99369 0,6.125 39.8438,0 13.125,-6.125 -52.9688,0 z"
       id="path9498-9"
       style="color:#000000;fill:#414141;fill-opacity:1;fill-rule:nonzero;stroke:none;stroke-width:0;marker:none;visibility:visible;display:inline;overflow:visible;enable-background:accumulate" />
    <path
       d="m 860.16737,407.26855 0,67.50005 -67.5,0 0,-67.50005 67.5,0 z m -12.4688,6.12505 -12.4062,0 0,2.875 -17.75,0 0,-2.875 -12.375,0 0,2.875 -3.5,0 0,3.5 -2.875,0 0,12.375 2.875,0 0,17.75 -2.875,0 0,12.4062 2.875,0 0,3.4688 3.5,0 0,2.875 12.375,0 0,-2.875 17.75,0 0,2.875 12.4062,0 0,-2.875 3.4688,0 0,-3.4688 2.875,0 0,-12.4062 -2.875,0 0,-17.75 2.875,0 0,-12.375 -2.875,0 0,-3.5 -3.4688,0 0,-2.875 z"
       id="rect5621-2-2-5-0-57-9-4-2-8-9-5-32-6-6-5"
       style="color:#000000;fill:#414141;fill-opacity:1;fill-rule:nonzero;stroke:none;stroke-width:0;marker:none;visibility:visible;display:inline;overflow:visible;enable-background:accumulate" />
    <path
       d="m 860.16737,272.26855 0,67.5 -67.5,0 0,-67.5 67.5,0 z m -12.4688,6.125 -12.4062,0 0,2.875 -17.75,0 0,-2.875 -12.375,0 0,2.875 -3.5,0 0,3.5 -2.875,0 0,12.375 2.875,0 0,17.75 -2.875,0 0,12.40625 2.875,0 0,3.46875 3.5,0 0,2.875 12.375,0 0,-2.875 17.75,0 0,2.875 12.4062,0 0,-2.875 3.4688,0 0,-3.46875 2.875,0 0,-12.40625 -2.875,0 0,-17.75 2.875,0 0,-12.375 -2.875,0 0,-3.5 -3.4688,0 0,-2.875 z"
       id="rect5621-2-2-5-0-57-9-4-2-8-9-79-04-4-3-1"
       style="color:#000000;fill:#414141;fill-opacity:1;fill-rule:nonzero;stroke:none;stroke-width:0;marker:none;visibility:visible;display:inline;overflow:visible;enable-background:accumulate" />
    <path
       d="m 860.16737,339.76855 0,67.49999 -67.5,0 0,-67.5 67.5,0 z m -12.4688,6.125 -12.4062,0 0,2.875 -17.75,0 0,-2.875 -12.375,0 0,2.875 -3.5,0 0,3.5 -2.875,0 0,12.375 2.875,0 0,17.74999 -2.875,0 0,12.40625 2.875,0 0,3.46875 3.5,0 0,2.875 12.375,0 0,-2.875 17.75,0 0,2.875 12.4062,0 0,-2.875 3.4688,0 0,-3.46875 2.875,0 0,-12.40625 -2.875,0 0,-17.75 2.875,0 0,-12.375 -2.875,0 0,-3.5 -3.4688,0 0,-2.875 z"
       id="rect5621-2-2-5-0-57-9-4-2-8-9-4-8-0-4-9"
       style="color:#000000;fill:#414141;fill-opacity:1;fill-rule:nonzero;stroke:none;stroke-width:0;marker:none;visibility:visible;display:inline;overflow:visible;enable-background:accumulate" />
    <path
       d="m 792.66737,263.83106 0,67.5 -67.5,0 0,-67.5 67.5,0 z m -12.4688,6.125 -12.4062,0 0,2.875 -17.75,0 0,-2.875 -12.375,0 0,2.875 -3.5,0 0,3.5 -2.875,0 0,12.375 2.875,0 0,17.75 -2.875,0 0,12.40625 2.875,0 0,3.46875 3.5,0 0,2.875 12.375,0 0,-2.875 17.75,0 0,2.875 12.4062,0 0,-2.875 3.4688,0 0,-3.46875 2.875,0 0,-12.40625 -2.875,0 0,-17.75 2.875,0 0,-12.375 -2.875,0 0,-3.5 -3.4688,0 0,-2.875 z"
       id="rect5621-2-2-5-0-57-9-4-2-8-9-79-7-9-4-9-3"
       style="color:#000000;fill:#414141;fill-opacity:1;fill-rule:nonzero;stroke:none;stroke-width:0;marker:none;visibility:visible;display:inline;overflow:visible;enable-background:accumulate" />
    <path
       d="m 792.66737,331.33106 0,67.5 -67.5,0 0,-67.5 67.5,0 z m -12.4688,6.125 -12.4062,0 0,2.875 -17.75,0 0,-2.875 -12.375,0 0,2.875 -3.5,0 0,3.5 -2.875,0 0,12.375 2.875,0 0,17.75 -2.875,0 0,12.40625 2.875,0 0,3.46875 3.5,0 0,2.875 12.375,0 0,-2.875 17.75,0 0,2.875 12.4062,0 0,-2.875 3.4688,0 0,-3.46875 2.875,0 0,-12.40625 -2.875,0 0,-17.75 2.875,0 0,-12.375 -2.875,0 0,-3.5 -3.4688,0 0,-2.875 z"
       id="rect5621-2-2-5-0-57-9-4-2-8-9-4-2-0-5-2-1"
       style="color:#000000;fill:#414141;fill-opacity:1;fill-rule:nonzero;stroke:none;stroke-width:0;marker:none;visibility:visible;display:inline;overflow:visible;enable-background:accumulate" />
    <path
       d="m 792.66737,398.83106 0,67.50004 -67.5,0 0,-67.50004 67.5,0 z m -12.4688,6.125 -12.4062,0 0,2.875 -17.75,0 0,-2.875 -12.375,0 0,2.875 -3.5,0 0,3.50004 -2.875,0 0,12.375 2.875,0 0,17.75 -2.875,0 0,12.4062 2.875,0 0,3.4688 3.5,0 0,2.875 12.375,0 0,-2.875 17.75,0 0,2.875 12.4062,0 0,-2.875 3.4688,0 0,-3.4688 2.875,0 0,-12.4062 -2.875,0 0,-17.75 2.875,0 0,-12.375 -2.875,0 0,-3.50004 -3.4688,0 0,-2.875 z"
       id="rect5621-2-2-5-0-57-9-4-2-8-9-5-2-9-2-9-7"
       style="color:#000000;fill:#414141;fill-opacity:1;fill-rule:nonzero;stroke:none;stroke-width:0;marker:none;visibility:visible;display:inline;overflow:visible;enable-background:accumulate" />
    <path
       d="m 725.16737,246.95607 0,67.5 -67.5,0 0,-67.5 67.5,0 z m -12.4688,6.125 -12.4062,0 0,2.875 -17.75,0 0,-2.875 -12.375,0 0,2.875 -3.5,0 0,3.5 -2.875,0 0,12.375 2.875,0 0,17.75 -2.875,0 0,12.40625 2.875,0 0,3.46875 3.5,0 0,2.875 12.375,0 0,-2.875 17.75,0 0,2.875 12.4062,0 0,-2.875 3.4688,0 0,-3.46875 2.875,0 0,-12.40625 -2.875,0 0,-17.75 2.875,0 0,-12.375 -2.875,0 0,-3.5 -3.4688,0 0,-2.875 z"
       id="rect5621-2-2-5-0-57-9-4-2-8-9-79-74-2-69-5-8"
       style="color:#000000;fill:#414141;fill-opacity:1;fill-rule:nonzero;stroke:none;stroke-width:0;marker:none;visibility:visible;display:inline;overflow:visible;enable-background:accumulate" />
    <path
       d="m 725.16737,314.45607 0,67.5 -67.5,0 0,-67.5 67.5,0 z m -12.4688,6.125 -12.4062,0 0,2.875 -17.75,0 0,-2.875 -12.375,0 0,2.875 -3.5,0 0,3.5 -2.875,0 0,12.375 2.875,0 0,17.75 -2.875,0 0,12.40625 2.875,0 0,3.46875 3.5,0 0,2.875 12.375,0 0,-2.875 17.75,0 0,2.875 12.4062,0 0,-2.875 3.4688,0 0,-3.46875 2.875,0 0,-12.40625 -2.875,0 0,-17.75 2.875,0 0,-12.375 -2.875,0 0,-3.5 -3.4688,0 0,-2.875 z"
       id="rect5621-2-2-5-0-57-9-4-2-8-9-4-9-6-9-3-7"
       style="color:#000000;fill:#414141;fill-opacity:1;fill-rule:nonzero;stroke:none;stroke-width:0;marker:none;visibility:visible;display:inline;overflow:visible;enable-background:accumulate" />
    <path
       d="m 725.16737,381.95607 0,67.50003 -67.5,0 0,-67.50003 67.5,0 z m -12.4688,6.125 -12.4062,0 0,2.875 -17.75,0 0,-2.875 -12.375,0 0,2.875 -3.5,0 0,3.5 -2.875,0 0,12.375 2.875,0 0,17.75003 -2.875,0 0,12.4062 2.875,0 0,3.4688 3.5,0 0,2.875 12.375,0 0,-2.875 17.75,0 0,2.875 12.4062,0 0,-2.875 3.4688,0 0,-3.4688 2.875,0 0,-12.4062 -2.875,0 0,-17.75003 2.875,0 0,-12.375 -2.875,0 0,-3.5 -3.4688,0 0,-2.875 z"
       id="rect5621-2-2-5-0-57-9-4-2-8-9-5-3-0-53-6-5"
       style="color:#000000;fill:#414141;fill-opacity:1;fill-rule:nonzero;stroke:none;stroke-width:0;marker:none;visibility:visible;display:inline;overflow:visible;enable-background:accumulate" />
    <path
       d="m 657.66737,255.39356 0,67.5 -67.5,0 0,-67.5 67.5,0 z m -12.4688,6.125 -12.4062,0 0,2.875 -17.75,0 0,-2.875 -12.375,0 0,2.875 -3.5,0 0,3.5 -2.875,0 0,12.375 2.875,0 0,17.75 -2.875,0 0,12.40625 2.875,0 0,3.46875 3.5,0 0,2.875 12.375,0 0,-2.875 17.75,0 0,2.875 12.4062,0 0,-2.875 3.4688,0 0,-3.46875 2.875,0 0,-12.40625 -2.875,0 0,-17.75 2.875,0 0,-12.375 -2.875,0 0,-3.5 -3.4688,0 0,-2.875 z"
       id="rect5621-2-2-5-0-57-9-4-2-8-9-79-2-4-3-4-9"
       style="color:#000000;fill:#414141;fill-opacity:1;fill-rule:nonzero;stroke:none;stroke-width:0;marker:none;visibility:visible;display:inline;overflow:visible;enable-background:accumulate" />
    <path
       d="m 657.66737,322.89356 0,67.5 -67.5,0 0,-67.5 67.5,0 z m -12.4688,6.125 -12.4062,0 0,2.875 -17.75,0 0,-2.875 -12.375,0 0,2.875 -3.5,0 0,3.5 -2.875,0 0,12.375 2.875,0 0,17.75 -2.875,0 0,12.40625 2.875,0 0,3.46875 3.5,0 0,2.875 12.375,0 0,-2.875 17.75,0 0,2.875 12.4062,0 0,-2.875 3.4688,0 0,-3.46875 2.875,0 0,-12.40625 -2.875,0 0,-17.75 2.875,0 0,-12.375 -2.875,0 0,-3.5 -3.4688,0 0,-2.875 z"
       id="rect5621-2-2-5-0-57-9-4-2-8-9-4-0-2-39-3-4"
       style="color:#000000;fill:#414141;fill-opacity:1;fill-rule:nonzero;stroke:none;stroke-width:0;marker:none;visibility:visible;display:inline;overflow:visible;enable-background:accumulate" />
    <path
       d="m 657.66737,390.39356 0,67.50004 -67.5,0 0,-67.50004 67.5,0 z m -12.4688,6.125 -12.4062,0 0,2.875 -17.75,0 0,-2.875 -12.375,0 0,2.875 -3.5,0 0,3.5 -2.875,0 0,12.37504 2.875,0 0,17.75 -2.875,0 0,12.4062 2.875,0 0,3.4688 3.5,0 0,2.875 12.375,0 0,-2.875 17.75,0 0,2.875 12.4062,0 0,-2.875 3.4688,0 0,-3.4688 2.875,0 0,-12.4062 -2.875,0 0,-17.75 2.875,0 0,-12.37504 -2.875,0 0,-3.5 -3.4688,0 0,-2.875 z"
       id="rect5621-2-2-5-0-57-9-4-2-8-9-5-5-3-4-8-0"
       style="color:#000000;fill:#414141;fill-opacity:1;fill-rule:nonzero;stroke:none;stroke-width:0;marker:none;visibility:visible;display:inline;overflow:visible;enable-background:accumulate" />
    <path
       d="m 590.16737,272.26856 0,67.5 -67.5,0 0,-67.5 67.5,0 z m -12.4688,6.125 -12.4062,0 0,2.875 -17.75,0 0,-2.875 -12.375,0 0,2.875 -3.5,0 0,3.5 -2.875,0 0,12.375 2.875,0 0,17.75 -2.875,0 0,12.40625 2.875,0 0,3.46875 3.5,0 0,2.875 12.375,0 0,-2.875 17.75,0 0,2.875 12.4062,0 0,-2.875 3.4688,0 0,-3.46875 2.875,0 0,-12.40625 -2.875,0 0,-17.75 2.875,0 0,-12.375 -2.875,0 0,-3.5 -3.4688,0 0,-2.875 z"
       id="rect5621-2-2-5-0-57-9-4-2-8-9-79-7-7-55-2-2-0"
       style="color:#000000;fill:#414141;fill-opacity:1;fill-rule:nonzero;stroke:none;stroke-width:0;marker:none;visibility:visible;display:inline;overflow:visible;enable-background:accumulate" />
    <path
       d="m 590.16737,339.76856 0,67.5 -67.5,0 0,-67.5 67.5,0 z m -12.4688,6.125 -12.4062,0 0,2.875 -17.75,0 0,-2.875 -12.375,0 0,2.875 -3.5,0 0,3.5 -2.875,0 0,12.375 2.875,0 0,17.75 -2.875,0 0,12.40625 2.875,0 0,3.46875 3.5,0 0,2.875 12.375,0 0,-2.875 17.75,0 0,2.875 12.4062,0 0,-2.875 3.4688,0 0,-3.46875 2.875,0 0,-12.40625 -2.875,0 0,-17.75 2.875,0 0,-12.375 -2.875,0 0,-3.5 -3.4688,0 0,-2.875 z"
       id="rect5621-2-2-5-0-57-9-4-2-8-9-4-2-1-4-8-9-1"
       style="color:#000000;fill:#414141;fill-opacity:1;fill-rule:nonzero;stroke:none;stroke-width:0;marker:none;visibility:visible;display:inline;overflow:visible;enable-background:accumulate" />
    <path
       d="m 590.16737,407.26856 0,67.50004 -67.5,0 0,-67.50004 67.5,0 z m -12.4688,6.12504 -12.4062,0 0,2.875 -17.75,0 0,-2.875 -12.375,0 0,2.875 -3.5,0 0,3.5 -2.875,0 0,12.375 2.875,0 0,17.75 -2.875,0 0,12.4062 2.875,0 0,3.4688 3.5,0 0,2.875 12.375,0 0,-2.875 17.75,0 0,2.875 12.4062,0 0,-2.875 3.4688,0 0,-3.4688 2.875,0 0,-12.4062 -2.875,0 0,-17.75 2.875,0 0,-12.375 -2.875,0 0,-3.5 -3.4688,0 0,-2.875 z"
       id="rect5621-2-2-5-0-57-9-4-2-8-9-5-2-6-5-6-2-6"
       style="color:#000000;fill:#414141;fill-opacity:1;fill-rule:nonzero;stroke:none;stroke-width:0;marker:none;visibility:visible;display:inline;overflow:visible;enable-background:accumulate" />
    <path
       d="m 522.66737,272.26856 0,67.5 -67.5,0 0,-67.5 67.5,0 z m -12.4688,6.125 -12.4062,0 0,2.875 -17.75,0 0,-2.875 -12.375,0 0,2.875 -3.5,0 0,3.5 -2.875,0 0,12.375 2.875,0 0,17.75 -2.875,0 0,12.40625 2.875,0 0,3.46875 3.5,0 0,2.875 12.375,0 0,-2.875 17.75,0 0,2.875 12.4062,0 0,-2.875 3.4688,0 0,-3.46875 2.875,0 0,-12.40625 -2.875,0 0,-17.75 2.875,0 0,-12.375 -2.875,0 0,-3.5 -3.4688,0 0,-2.875 z"
       id="rect5621-2-2-5-0-57-9-4-2-8-9-79-74-4-9-5-2-1"
       style="color:#000000;fill:#414141;fill-opacity:1;fill-rule:nonzero;stroke:none;stroke-width:0;marker:none;visibility:visible;display:inline;overflow:visible;enable-background:accumulate" />
    <path
       d="m 522.66737,339.76856 0,67.5 -67.5,0 0,-67.5 67.5,0 z m -12.4688,6.125 -12.4062,0 0,2.875 -17.75,0 0,-2.875 -12.375,0 0,2.875 -3.5,0 0,3.5 -2.875,0 0,12.375 2.875,0 0,17.75 -2.875,0 0,12.40625 2.875,0 0,3.46875 3.5,0 0,2.875 12.375,0 0,-2.875 17.75,0 0,2.875 12.4062,0 0,-2.875 3.4688,0 0,-3.46875 2.875,0 0,-12.40625 -2.875,0 0,-17.75 2.875,0 0,-12.375 -2.875,0 0,-3.5 -3.4688,0 0,-2.875 z"
       id="rect5621-2-2-5-0-57-9-4-2-8-9-4-9-7-6-9-2-3"
       style="color:#000000;fill:#414141;fill-opacity:1;fill-rule:nonzero;stroke:none;stroke-width:0;marker:none;visibility:visible;display:inline;overflow:visible;enable-background:accumulate" />
    <path
       d="m 522.66737,407.26856 0,67.50004 -67.5,0 0,-67.50004 67.5,0 z m -12.4688,6.12504 -12.4062,0 0,2.875 -17.75,0 0,-2.875 -12.375,0 0,2.875 -3.5,0 0,3.5 -2.875,0 0,12.375 2.875,0 0,17.75 -2.875,0 0,12.4062 2.875,0 0,3.4688 3.5,0 0,2.875 12.375,0 0,-2.875 17.75,0 0,2.875 12.4062,0 0,-2.875 3.4688,0 0,-3.4688 2.875,0 0,-12.4062 -2.875,0 0,-17.75 2.875,0 0,-12.375 -2.875,0 0,-3.5 -3.4688,0 0,-2.875 z"
       id="rect5621-2-2-5-0-57-9-4-2-8-9-5-3-3-4-3-5-0"
       style="color:#000000;fill:#414141;fill-opacity:1;fill-rule:nonzero;stroke:none;stroke-width:0;marker:none;visibility:visible;display:inline;overflow:visible;enable-background:accumulate" />
    <path
       d="m 455.16737,272.26856 0,67.5 -67.50002,0 0,-67.5 67.50002,0 z m -12.4688,6.125 -12.4062,0 0,2.875 -17.75,0 0,-2.875 -12.37502,0 0,2.875 -3.5,0 0,3.5 -2.875,0 0,12.375 2.875,0 0,17.75 -2.875,0 0,12.40625 2.875,0 0,3.46875 3.5,0 0,2.875 12.37502,0 0,-2.875 17.75,0 0,2.875 12.4062,0 0,-2.875 3.4688,0 0,-3.46875 2.875,0 0,-12.40625 -2.875,0 0,-17.75 2.875,0 0,-12.375 -2.875,0 0,-3.5 -3.4688,0 0,-2.875 z"
       id="rect5621-2-2-5-0-57-9-4-2-8-9-1-7-4-3-7"
       style="color:#000000;fill:#414141;fill-opacity:1;fill-rule:nonzero;stroke:none;stroke-width:0;marker:none;visibility:visible;display:inline;overflow:visible;enable-background:accumulate" />
    <path
       d="m 860.16737,272.26855 67.5,0 0,67.5 0,33.74999 -67.5,0 0,-33.75 0,-67.5 z m 6.125,29.34375 0,12.40625 2.875,0 0,17.75 -2.875,0 0,12.375 2.875,0 0,3.5 3.5,0 0,2.875 12.375,0 0,-2.875 17.75,0 0,2.875 12.4062,0 0,-2.875 3.4688,0 0,-3.5 2.875,0 0,-12.375 -2.875,0 0,-17.75 2.875,0 0,-12.40625 -2.875,0 0,-3.46875 -3.4688,0 0,-2.875 -12.4062,0 0,2.875 -17.75,0 0,-2.875 -12.375,0 0,2.875 -3.5,0 0,3.46875 -2.875,0 z"
       id="rect7292-1-2-0-2-9-5-6-6"
       style="color:#000000;fill:#414141;fill-opacity:1;fill-rule:nonzero;stroke:none;stroke-width:0;marker:none;visibility:visible;display:inline;overflow:visible;enable-background:accumulate" />
    <rect
       width="202.50006"
       height="6.125536"
       x="387.66714"
       y="266.14297"
       id="rect3218-6-2-74-1-6"
       style="color:#000000;fill:#414141;fill-opacity:1;fill-rule:nonzero;stroke:none;stroke-width:0;marker:none;visibility:visible;display:inline;overflow:visible;enable-background:accumulate" />
    <rect
       width="214.75121"
       height="6.125536"
       x="-480.8942"
       y="927.66711"
       transform="matrix(0,-1,1,0,0,0)"
       id="rect3218-5-7-1-1-4-1"
       style="color:#000000;fill:#414141;fill-opacity:1;fill-rule:nonzero;stroke:none;stroke-width:0;marker:none;visibility:visible;display:inline;overflow:visible;enable-background:accumulate" />
    <rect
       width="282.2511"
       height="6.125536"
       x="-548.3941"
       y="381.54166"
       transform="matrix(0,-1,1,0,0,0)"
       id="rect3218-5-2-4-2-1-8"
       style="color:#000000;fill:#414141;fill-opacity:1;fill-rule:nonzero;stroke:none;stroke-width:0;marker:none;visibility:visible;display:inline;overflow:visible;enable-background:accumulate" />
    <path
       d="m 725.16737,449.4561 0,16.875 -67.5,0 0,-16.875 67.5,0 z"
       id="rect5621-2-2-5-0-57-9-4-2-8-9-5-2-9-9-3-7-74-5-5-1"
       style="color:#000000;fill:#414141;fill-opacity:1;fill-rule:nonzero;stroke:none;stroke-width:0;marker:none;visibility:visible;display:inline;overflow:visible;enable-background:accumulate" />
    <path
       d="m 657.66737,457.8936 0,8.4375 -67.5,0 0,-8.4375 67.5,0 z"
       id="rect5621-2-2-5-0-57-9-4-2-8-9-5-2-9-9-3-7-7-4-1-1-2"
       style="color:#000000;fill:#414141;fill-opacity:1;fill-rule:nonzero;stroke:none;stroke-width:0;marker:none;visibility:visible;display:inline;overflow:visible;enable-background:accumulate" />
    <path
       d="m 387.66735,441.0186 67.50002,0 0,67.5 0,33.75 -67.50002,0 0,-33.75 0,-67.5 z m 6.125,29.3437 0,12.4063 2.875,0 0,17.75 -2.875,0 0,12.375 2.875,0 0,3.5 3.5,0 0,2.875 12.37502,0 0,-2.875 17.75,0 0,2.875 12.4062,0 0,-2.875 3.4688,0 0,-3.5 2.875,0 0,-12.375 -2.875,0 0,-17.75 2.875,0 0,-12.4063 -2.875,0 0,-3.4687 -3.4688,0 0,-2.875 -12.4062,0 0,2.875 -17.75,0 0,-2.875 -12.37502,0 0,2.875 -3.5,0 0,3.4687 -2.875,0 z"
       id="rect7292-1-2-0-0-1-0-4-6"
       style="color:#000000;fill:#414141;fill-opacity:1;fill-rule:nonzero;stroke:none;stroke-width:0;marker:none;visibility:visible;display:inline;overflow:visible;enable-background:accumulate" />
    <path
       d="m 387.66735,339.76856 67.50002,0 0,67.5 0,33.75004 -67.50002,0 0,-33.75004 0,-67.5 z m 6.125,29.34375 0,12.40625 2.875,0 0,17.75 -2.875,0 0,12.37504 2.875,0 0,3.5 3.5,0 0,2.875 12.37502,0 0,-2.875 17.75,0 0,2.875 12.4062,0 0,-2.875 3.4688,0 0,-3.5 2.875,0 0,-12.37504 -2.875,0 0,-17.75 2.875,0 0,-12.40625 -2.875,0 0,-3.46875 -3.4688,0 0,-2.875 -12.4062,0 0,2.875 -17.75,0 0,-2.875 -12.37502,0 0,2.875 -3.5,0 0,3.46875 -2.875,0 z"
       id="rect7292-1-2-0-2-9-7-8-5-1"
       style="color:#000000;fill:#414141;fill-opacity:1;fill-rule:nonzero;stroke:none;stroke-width:0;marker:none;visibility:visible;display:inline;overflow:visible;enable-background:accumulate" />
    <rect
       width="202.50034"
       height="6.125536"
       x="387.66714"
       y="542.26849"
       id="rect3218-7-5-0-6-1-1"
       style="color:#000000;fill:#414141;fill-opacity:1;fill-rule:nonzero;stroke:none;stroke-width:0;marker:none;visibility:visible;display:inline;overflow:visible;enable-background:accumulate" />
    <rect
       width="16.874968"
       height="6.125536"
       x="-565.26923"
       y="691.41736"
       transform="matrix(0,-1,1,0,0,0)"
       id="rect3218-5-8-8-3-8-4"
       style="color:#000000;fill:#414141;fill-opacity:1;fill-rule:nonzero;stroke:none;stroke-width:0;marker:none;visibility:visible;display:inline;overflow:visible;enable-background:accumulate" />
    <rect
       width="8.4375"
       height="6.125536"
       x="-266.14297"
       y="792.66711"
       transform="matrix(0,-1,1,0,0,0)"
       id="rect3218-5-8-8-0-9-8-0"
       style="color:#000000;fill:#414141;fill-opacity:1;fill-rule:nonzero;stroke:none;stroke-width:0;marker:none;visibility:visible;display:inline;overflow:visible;enable-background:accumulate" />
    <rect
       width="16.875011"
       height="6.125536"
       x="-257.70544"
       y="725.16711"
       transform="matrix(0,-1,1,0,0,0)"
       id="rect3218-5-8-8-4-0-3-2"
       style="color:#000000;fill:#414141;fill-opacity:1;fill-rule:nonzero;stroke:none;stroke-width:0;marker:none;visibility:visible;display:inline;overflow:visible;enable-background:accumulate" />
    <rect
       width="8.4374962"
       height="6.125536"
       x="-249.26793"
       y="651.54163"
       transform="matrix(0,-1,1,0,0,0)"
       id="rect3218-5-8-8-2-68-4-9"
       style="color:#000000;fill:#414141;fill-opacity:1;fill-rule:nonzero;stroke:none;stroke-width:0;marker:none;visibility:visible;display:inline;overflow:visible;enable-background:accumulate" />
    <rect
       width="16.875"
       height="6.125536"
       x="-266.14297"
       y="584.04163"
       transform="matrix(0,-1,1,0,0,0)"
       id="rect3218-5-8-8-6-8-4-4"
       style="color:#000000;fill:#414141;fill-opacity:1;fill-rule:nonzero;stroke:none;stroke-width:0;marker:none;visibility:visible;display:inline;overflow:visible;enable-background:accumulate" />
    <rect
       width="134.99994"
       height="6.125536"
       x="792.66711"
       y="266.14297"
       id="rect3218-6-2-9-3-8-1"
       style="color:#000000;fill:#414141;fill-opacity:1;fill-rule:nonzero;stroke:none;stroke-width:0;marker:none;visibility:visible;display:inline;overflow:visible;enable-background:accumulate" />
    <rect
       width="67.500038"
       height="6.125536"
       x="725.16711"
       y="257.70544"
       id="rect3218-6-2-0-9-6-5"
       style="color:#000000;fill:#414141;fill-opacity:1;fill-rule:nonzero;stroke:none;stroke-width:0;marker:none;visibility:visible;display:inline;overflow:visible;enable-background:accumulate" />
    <rect
       width="67.499992"
       height="6.125536"
       x="657.66711"
       y="240.83043"
       id="rect3218-6-2-6-47-8-5"
       style="color:#000000;fill:#414141;fill-opacity:1;fill-rule:nonzero;stroke:none;stroke-width:0;marker:none;visibility:visible;display:inline;overflow:visible;enable-background:accumulate" />
    <rect
       width="67.499947"
       height="6.125536"
       x="590.16711"
       y="249.26793"
       id="rect3218-6-2-7-7-9-0"
       style="color:#000000;fill:#414141;fill-opacity:1;fill-rule:nonzero;stroke:none;stroke-width:0;marker:none;visibility:visible;display:inline;overflow:visible;enable-background:accumulate" />
    <path
       d="m 792.66737,466.3311 0,8.4375 -202.5,0 0,-8.4375 202.5,0 z"
       id="rect5621-2-2-5-0-57-9-4-2-8-9-5-2-9-9-3-7-7-4-0-06-1-3"
       style="color:#000000;fill:#414141;fill-opacity:1;fill-rule:nonzero;stroke:none;stroke-width:0;marker:none;visibility:visible;display:inline;overflow:visible;enable-background:accumulate" />
    <path
       d="m 455.16737,474.7686 67.5,0 67.5,0 0,6 0,55.5 0,6 -67.5,0 -67.5,0 0,-67.5 z m 19.3437,11.8125 0.125,49.5 11.6875,-0.031 -0.094,-49.5 -11.7188,0.031 z m 20.5313,0.6562 0,12.4063 2.875,0 0,17.75 -2.875,0 0,12.375 2.875,0 0,3.5 3.5,0 0,2.875 12.375,0 0,-2.875 17.75,0 0,2.875 12.4062,0 0,-2.875 3.4688,0 0,-3.5 2.875,0 0,-12.375 -2.875,0 0,-17.75 2.875,0 0,-12.4063 -2.875,0 0,-3.4687 -3.4688,0 0,-2.875 -12.4062,0 0,2.875 -17.75,0 0,-2.875 -12.375,0 0,2.875 -3.5,0 0,3.4687 -2.875,0 z m 64.0937,-0.8437 0.094,49.5 11.6875,-0.031 -0.094,-49.5 -11.6875,0.031 z"
       id="rect5621-2-2-5-0-57-9-4-2-8-9-8-1-6-7-3-1-5"
       style="color:#000000;fill:#414141;fill-opacity:1;fill-rule:nonzero;stroke:none;stroke-width:0;marker:none;visibility:visible;display:inline;overflow:visible;enable-background:accumulate" />
    <path
       d="m 691.41737,491.6436 0,67.5 -67.5,0 -33.75,0 0,-67.5 33.75,0 67.5,0 z m -29.3438,6.125 -12.4062,0 0,2.875 -17.75,0 0,-2.875 -12.375,0 0,2.875 -3.5,0 0,3.5 -2.875,0 0,12.375 2.875,0 0,17.75 -2.875,0 0,12.40625 2.875,0 0,3.46875 3.5,0 0,2.875 12.375,0 0,-2.875 17.75,0 0,2.875 12.4062,0 0,-2.875 3.4688,0 0,-3.46875 2.875,0 0,-12.40625 -2.875,0 0,-17.75 2.875,0 0,-12.375 -2.875,0 0,-3.5 -3.4688,0 0,-2.875 z"
       id="rect7292-1-2-6-8-7-5-7"
       style="color:#000000;fill:#414141;fill-opacity:1;fill-rule:nonzero;stroke:none;stroke-width:0;marker:none;visibility:visible;display:inline;overflow:visible;enable-background:accumulate" />
    <path
       d="m 691.41737,474.7686 0,16.875 -101.25,0 0,-16.875 101.25,0 z"
       id="rect5621-2-2-5-0-57-9-4-2-8-9-5-2-9-9-3-7-74-5-1-5-3"
       style="color:#000000;fill:#414141;fill-opacity:1;fill-rule:nonzero;stroke:none;stroke-width:0;marker:none;visibility:visible;display:inline;overflow:visible;enable-background:accumulate" />
    <rect
       width="101.25"
       height="6.125536"
       x="590.16736"
       y="559.14368"
       id="rect3218-7-5-0-6-3-4-9"
       style="color:#000000;fill:#414141;fill-opacity:1;fill-rule:nonzero;stroke:none;stroke-width:0;marker:none;visibility:visible;display:inline;overflow:visible;enable-background:accumulate" />
    <rect
       width="16.874968"
       height="6.125536"
       x="-565.26898"
       y="584.04187"
       transform="matrix(0,-1,1,0,0,0)"
       id="rect3218-5-8-8-3-3-5-8"
       style="color:#000000;fill:#414141;fill-opacity:1;fill-rule:nonzero;stroke:none;stroke-width:0;marker:none;visibility:visible;display:inline;overflow:visible;enable-background:accumulate" />
    <path
       d="m 860.16737,373.51855 67.5,0 0,67.50005 0,33.75 -67.5,0 0,-33.75 0,-67.50005 z m 6.125,29.34375 0,12.4063 2.875,0 0,17.75 -2.875,0 0,12.375 2.875,0 0,3.5 3.5,0 0,2.875 12.375,0 0,-2.875 17.75,0 0,2.875 12.4062,0 0,-2.875 3.4688,0 0,-3.5 2.875,0 0,-12.375 -2.875,0 0,-17.75 2.875,0 0,-12.4063 -2.875,0 0,-3.46875 -3.4688,0 0,-2.875 -12.4062,0 0,2.875 -17.75,0 0,-2.875 -12.375,0 0,2.875 -3.5,0 0,3.46875 -2.875,0 z"
       id="rect7292-1-2-0-0-4-0-5"
       style="color:#000000;fill:#414141;fill-opacity:1;fill-rule:nonzero;stroke:none;stroke-width:0;marker:none;visibility:visible;display:inline;overflow:visible;enable-background:accumulate" />
    <path
       d="m 933.79997,480.89996 0,21.4375 -45.9688,-21.4375 45.9688,0 z"
       id="path9348-5-0"
       style="color:#000000;fill:#414141;fill-opacity:1;fill-rule:nonzero;stroke:none;stroke-width:0;marker:none;visibility:visible;display:inline;overflow:visible;enable-background:accumulate" />
    <path
       d="m 832.54287,519.48791 0,-38.59375 18,0 -18,38.59375 z"
       id="path9377-7-6"
       style="color:#000000;fill:#414141;fill-opacity:1;fill-rule:nonzero;stroke:none;stroke-width:0;marker:none;visibility:visible;display:inline;overflow:visible;enable-background:accumulate" />
    <path
       d="m 691.41737,474.7686 67.5,0 67.5,0 0,6 0,55.5 0,6 -67.5,0 -67.5,0 0,-67.5 z m 19.3437,11.8125 0.125,49.5 11.6875,-0.031 -0.094,-49.5 -11.7188,0.031 z m 20.5313,0.6562 0,12.4063 2.875,0 0,17.75 -2.875,0 0,12.375 2.875,0 0,3.5 3.5,0 0,2.875 12.375,0 0,-2.875 17.75,0 0,2.875 12.4062,0 0,-2.875 3.4688,0 0,-3.5 2.875,0 0,-12.375 -2.875,0 0,-17.75 2.875,0 0,-12.4063 -2.875,0 0,-3.4687 -3.4688,0 0,-2.875 -12.4062,0 0,2.875 -17.75,0 0,-2.875 -12.375,0 0,2.875 -3.5,0 0,3.4687 -2.875,0 z m 64.0937,-0.8437 0.094,49.5 11.6875,-0.031 -0.094,-49.5 -11.6875,0.031 z"
       id="rect5621-2-2-5-0-57-9-4-2-8-9-8-1-6-7-3-8-4-7"
       style="color:#000000;fill:#414141;fill-opacity:1;fill-rule:nonzero;stroke:none;stroke-width:0;marker:none;visibility:visible;display:inline;overflow:visible;enable-background:accumulate" />
    <path
       d="m 921.34157,503.29536 -28.5266,61.17575 -28.5269,61.17583 -5.4378,-2.5357 -50.3001,-23.45533 -5.4378,-2.5357 28.5267,-61.1758 28.5266,-61.17581 61.1759,28.52677 z m -18.8807,12.53919 -44.915,-20.80632 -4.9114,10.60558 44.902,20.8344 4.9244,-10.63384 z m -9.2715,18.33036 -11.244,-5.2431 -1.2151,2.6056 -16.087,-7.5015 1.2149,-2.6057 -11.2154,-5.22981 -1.2151,2.60563 -3.172,-1.47916 -1.4792,3.17204 -2.6056,-1.215 -5.2299,11.2156 2.6056,1.215 -7.5015,16.087 -2.6055,-1.2151 -5.2432,11.2438 2.6056,1.2151 -1.4659,3.1438 3.1721,1.4791 -1.2151,2.6057 11.2156,5.2299 1.215,-2.6057 16.087,7.5015 -1.215,2.6056 11.244,5.2432 1.215,-2.6056 3.1436,1.4659 1.466,-3.1438 2.6056,1.215 5.2431,-11.2438 -2.6056,-1.2151 7.5014,-16.0869 2.6057,1.215 5.2299,-11.2155 -2.6057,-1.2151 1.4792,-3.172 -3.1435,-1.4659 1.215,-2.6057 z m -26.3226,58.4452 -44.902,-20.8344 -4.9114,10.6056 44.9021,20.8344 4.9113,-10.6055 z"
       id="rect5621-2-2-5-0-57-9-4-2-8-9-8-5-3-8-9-7-5"
       style="color:#000000;fill:#414141;fill-opacity:1;fill-rule:nonzero;stroke:none;stroke-width:0;marker:none;visibility:visible;display:inline;overflow:visible;enable-background:accumulate" />
    <path
       d="m 982.51738,531.82211 -28.5266,61.1757 -28.52691,61.17593 -5.4378,-2.5358 -50.3001,-23.4553 -5.4379,-2.5357 28.5269,-61.17583 28.5266,-61.17575 61.17581,28.52675 z m -18.8808,12.5392 -44.91491,-20.8063 -4.9114,10.6055 44.90201,20.8344 4.9244,-10.6338 z m -9.2714,18.3303 -11.24401,-5.2431 -1.2151,2.6056 -16.0869,-7.5015 1.215,-2.6056 -11.2156,-5.2299 -1.215,2.6057 -3.1721,-1.4792 -1.4791,3.1721 -2.6057,-1.2151 -5.2298,11.2156 2.6057,1.215 -7.5015,16.087 -2.6056,-1.2151 -5.2431,11.2439 2.6056,1.215 -1.466,3.1438 3.172,1.4792 -1.215,2.6056 11.2155,5.2299 1.2151,-2.6056 16.087,7.5014 -1.2151,2.60573 11.244,5.243 1.2151,-2.6055 3.1436,1.4659 1.466,-3.1438 2.6055,1.215 5.2432,-11.24383 -2.6057,-1.215 7.5014,-16.087 2.60571,1.215 5.2298,-11.2155 -2.6055,-1.215 1.4792,-3.1721 -3.1436,-1.4659 1.215,-2.6057 z m -26.32261,58.44523 -44.9021,-20.83443 -4.9112,10.60553 44.9018,20.8344 4.9114,-10.6055 z"
       id="rect5621-2-2-5-0-57-9-4-2-8-9-8-8-9-6-1-4-6"
       style="color:#000000;fill:#414141;fill-opacity:1;fill-rule:nonzero;stroke:none;stroke-width:0;marker:none;visibility:visible;display:inline;overflow:visible;enable-background:accumulate" />
    <path
       d="m 803.11237,597.12021 61.1757,28.52673 61.1758,28.5268 -2.5357,5.4378 -23.4553,50.3 -2.5357,5.4379 -61.1758,-28.5268 -61.1759,-28.5267 28.5269,-61.17573 z m 12.539,18.88073 -20.8062,44.9151 10.6056,4.9113 20.8345,-44.9019 -10.634,-4.9245 z m 18.3306,9.2716 -5.2432,11.244 2.6056,1.215 -7.5015,16.0869 -2.6055,-1.215 -5.2299,11.2156 2.6056,1.215 -1.4792,3.1721 3.1721,1.4791 -1.2151,2.6057 11.2156,5.2299 1.2151,-2.6057 16.0869,7.5015 -1.215,2.6057 11.2439,5.243 1.215,-2.6055 3.1438,1.4659 1.4792,-3.1721 2.6056,1.215 5.2298,-11.2155 -2.6055,-1.2151 7.5014,-16.0869 2.6057,1.215 5.2431,-11.2439 -2.6056,-1.215 1.4659,-3.1438 -3.1438,-1.4659 1.215,-2.6058 -11.2438,-5.243 -1.215,2.6057 -16.087,-7.5014 1.215,-2.6057 -11.2155,-5.2299 -1.2152,2.6056 -3.1719,-1.4792 -1.4659,3.1438 -2.6056,-1.2151 z m 58.4454,26.3226 -20.8345,44.9019 10.6055,4.9113 20.8343,-44.9019 -10.6055,-4.9113 z"
       id="rect5621-2-2-5-0-57-9-4-2-8-9-8-1-36-4-9-1-8-6"
       style="color:#000000;fill:#414141;fill-opacity:1;fill-rule:nonzero;stroke:none;stroke-width:0;marker:none;visibility:visible;display:inline;overflow:visible;enable-background:accumulate" />
    <rect
       width="135"
       height="6.125536"
       x="980.22076"
       y="269.26471"
       transform="matrix(0.90630779,0.42261826,-0.42261826,0.90630779,0,0)"
       id="rect3218-0-1-4-6-1"
       style="color:#000000;fill:#414141;fill-opacity:1;fill-rule:nonzero;stroke:none;stroke-width:0;marker:none;visibility:visible;display:inline;overflow:visible;enable-background:accumulate" />
    <path
       d="m 860.17497,474.77495 -88.1876,189.06251 -5.5312,-2.59375 55.4688,-118.96876 4.5,0 0,-6 0,-3.65625 26.9687,-57.84375 6.7813,0 z"
       id="rect3218-5-7-1-1-3-6-3-0"
       style="color:#000000;fill:#414141;fill-opacity:1;fill-rule:nonzero;stroke:none;stroke-width:0;marker:none;visibility:visible;display:inline;overflow:visible;enable-background:accumulate" />
    <path
       d="m 821.92497,542.27496 -2.8438,6.125 -127.6562,0 0,-6.125 130.5,0 z"
       id="rect3218-7-5-09-8-9"
       style="color:#000000;fill:#414141;fill-opacity:1;fill-rule:nonzero;stroke:none;stroke-width:0;marker:none;visibility:visible;display:inline;overflow:visible;enable-background:accumulate" />
    <path
       d="m 832.54997,480.89996 0,38.59375 -6.125,13.125 0,-51.71875 6.125,0 z"
       id="path9449-6-3"
       style="color:#000000;fill:#414141;fill-opacity:1;fill-rule:nonzero;stroke:none;stroke-width:0;marker:none;visibility:visible;display:inline;overflow:visible;enable-background:accumulate" />
    <path
       d="m 853.39367,474.77496 -2.8437,6.125 -24.125,0 0,-6.125 26.9687,0 z"
       id="rect3218-7-5-0-6-3-3-3-4"
       style="color:#000000;fill:#414141;fill-opacity:1;fill-rule:nonzero;stroke:none;stroke-width:0;marker:none;visibility:visible;display:inline;overflow:visible;enable-background:accumulate" />
    <path
       d="m 927.67497,474.77496 0,6.125 -39.8438,0 -13.125,-6.125 52.9688,0 z"
       id="path9498-9-0"
       style="color:#000000;fill:#414141;fill-opacity:1;fill-rule:nonzero;stroke:none;stroke-width:0;marker:none;visibility:visible;display:inline;overflow:visible;enable-background:accumulate" />
    <path
       d="m 1262.6875,479.00206 -110.4063,51.5 2.5626,5.53125 122.3124,-57.03125 -14.4687,0 z"
       id="path5806"
       style="color:#000000;fill:#414141;fill-opacity:1;fill-rule:nonzero;stroke:none;stroke-width:0;marker:none;visibility:visible;display:inline;overflow:visible;enable-background:accumulate" />
    <rect
       width="214.76485"
       height="6.125536"
       x="-275.39026"
       y="1115.2207"
       transform="matrix(0.42261826,-0.90630779,0.90630779,0.42261826,0,0)"
       id="rect3218-5-7-1-1-3-14-9-5"
       style="color:#000000;fill:#414141;fill-opacity:1;fill-rule:nonzero;stroke:none;stroke-width:0;marker:none;visibility:visible;display:inline;overflow:visible;enable-background:accumulate" />
    <path
       d="m 874.69489,474.78324 110.40635,51.5 -2.5626,5.53125 -122.31245,-57.03125 14.4687,0 z"
       id="path5806-2"
       style="color:#000000;fill:#414141;fill-opacity:1;fill-rule:nonzero;stroke:none;stroke-width:0;marker:none;visibility:visible;display:inline;overflow:visible;enable-background:accumulate" />
  </g>
</svg>
