<?xml version="1.0" encoding="UTF-8" standalone="no"?>
<!-- Created with Inkscape (http://www.inkscape.org/) -->
<svg id="svg2" xmlns:rdf="http://www.w3.org/1999/02/22-rdf-syntax-ns#" xmlns="http://www.w3.org/2000/svg" height="1052.4" width="2104.7" version="1.1" xmlns:cc="http://creativecommons.org/ns#" xmlns:dc="http://purl.org/dc/elements/1.1/">
 <defs id="defs4"></defs>
 <metadata id="metadata7">
  <rdf:RDF>
   <cc:Work rdf:about="">
    <dc:format>image/svg+xml</dc:format>
    <dc:type rdf:resource="http://purl.org/dc/dcmitype/StillImage"/>
    <dc:title/>
   </cc:Work>
  </rdf:RDF>
 </metadata>
 <g id="layer1" fill-rule="nonzero" transform="translate(0,-0.00205801)" fill="#414141">
  <path id="rect5621-2-2-5-0-57-9-4-2-8-9-79-04" style="enable-background:accumulate;color:#000000;" d="m1201.3,283.88,0,67.5,67.5,0,0-67.5-67.5,0zm12.469,6.125,12.406,0,0,2.875,17.75,0,0-2.875,12.375,0,0,2.875,3.5,0,0,3.5,2.875,0,0,12.375-2.875,0,0,17.75,2.875,0,0,12.406-2.875,0,0,3.4688-3.5,0,0,2.875-12.375,0,0-2.875-17.75,0,0,2.875-12.406,0,0-2.875-3.4688,0,0-3.4688-2.875,0,0-12.406,2.875,0,0-17.75-2.875,0,0-12.375,2.875,0,0-3.5,3.4688,0,0-2.875z"/>
  <path id="rect5621-2-2-5-0-57-9-4-2-8-9-4-8" style="enable-background:accumulate;color:#000000;" d="m1201.3,351.38,0,67.5,67.5,0,0-67.5-67.5,0zm12.469,6.125,12.406,0,0,2.875,17.75,0,0-2.875,12.375,0,0,2.875,3.5,0,0,3.5,2.875,0,0,12.375-2.875,0,0,17.75,2.875,0,0,12.406-2.875,0,0,3.4688-3.5,0,0,2.875-12.375,0,0-2.875-17.75,0,0,2.875-12.406,0,0-2.875-3.4688,0,0-3.4688-2.875,0,0-12.406,2.875,0,0-17.75-2.875,0,0-12.375,2.875,0,0-3.5,3.4688,0,0-2.875z"/>
  <path id="rect5621-2-2-5-0-57-9-4-2-8-9-5-32" style="enable-background:accumulate;color:#000000;" d="m1201.3,418.88,0,67.5,67.5,0,0-67.5-67.5,0zm12.469,6.125,12.406,0,0,2.875,17.75,0,0-2.875,12.375,0,0,2.875,3.5,0,0,3.5,2.875,0,0,12.375-2.875,0,0,17.75,2.875,0,0,12.406-2.875,0,0,3.4688-3.5,0,0,2.875-12.375,0,0-2.875-17.75,0,0,2.875-12.406,0,0-2.875-3.4688,0,0-3.4688-2.875,0,0-12.406,2.875,0,0-17.75-2.875,0,0-12.375,2.875,0,0-3.5,3.4688,0,0-2.875z"/>
  <path id="rect5621-2-2-5-0-57-9-4-2-8-9-79-7-9" style="enable-background:accumulate;color:#000000;" d="m1268.8,275.44,0,67.5,67.5,0,0-67.5-67.5,0zm12.469,6.125,12.406,0,0,2.875,17.75,0,0-2.875,12.375,0,0,2.875,3.5,0,0,3.5,2.875,0,0,12.375-2.875,0,0,17.75,2.875,0,0,12.406-2.875,0,0,3.4688-3.5,0,0,2.875-12.375,0,0-2.875-17.75,0,0,2.875-12.406,0,0-2.875-3.4688,0,0-3.4688-2.875,0,0-12.406,2.875,0,0-17.75-2.875,0,0-12.375,2.875,0,0-3.5,3.4688,0,0-2.875z"/>
  <path id="rect5621-2-2-5-0-57-9-4-2-8-9-4-2-0" style="enable-background:accumulate;color:#000000;" d="m1268.8,342.94,0,67.5,67.5,0,0-67.5-67.5,0zm12.469,6.125,12.406,0,0,2.875,17.75,0,0-2.875,12.375,0,0,2.875,3.5,0,0,3.5,2.875,0,0,12.375-2.875,0,0,17.75,2.875,0,0,12.406-2.875,0,0,3.4688-3.5,0,0,2.875-12.375,0,0-2.875-17.75,0,0,2.875-12.406,0,0-2.875-3.4688,0,0-3.4688-2.875,0,0-12.406,2.875,0,0-17.75-2.875,0,0-12.375,2.875,0,0-3.5,3.4688,0,0-2.875z"/>
  <path id="rect5621-2-2-5-0-57-9-4-2-8-9-5-2-9" style="enable-background:accumulate;color:#000000;" d="m1268.8,410.44,0,67.5,67.5,0,0-67.5-67.5,0zm12.469,6.125,12.406,0,0,2.875,17.75,0,0-2.875,12.375,0,0,2.875,3.5,0,0,3.5,2.875,0,0,12.375-2.875,0,0,17.75,2.875,0,0,12.406-2.875,0,0,3.4688-3.5,0,0,2.875-12.375,0,0-2.875-17.75,0,0,2.875-12.406,0,0-2.875-3.4688,0,0-3.4688-2.875,0,0-12.406,2.875,0,0-17.75-2.875,0,0-12.375,2.875,0,0-3.5,3.4688,0,0-2.875z"/>
  <path id="rect5621-2-2-5-0-57-9-4-2-8-9-79-74-2" style="enable-background:accumulate;color:#000000;" d="m1336.3,258.57,0,67.5,67.5,0,0-67.5-67.5,0zm12.469,6.125,12.406,0,0,2.875,17.75,0,0-2.875,12.375,0,0,2.875,3.5,0,0,3.5,2.875,0,0,12.375-2.875,0,0,17.75,2.875,0,0,12.406-2.875,0,0,3.4688-3.5,0,0,2.875-12.375,0,0-2.875-17.75,0,0,2.875-12.406,0,0-2.875-3.4688,0,0-3.4688-2.875,0,0-12.406,2.875,0,0-17.75-2.875,0,0-12.375,2.875,0,0-3.5,3.4688,0,0-2.875z"/>
  <path id="rect5621-2-2-5-0-57-9-4-2-8-9-4-9-6" style="enable-background:accumulate;color:#000000;" d="m1336.3,326.07,0,67.5,67.5,0,0-67.5-67.5,0zm12.469,6.125,12.406,0,0,2.875,17.75,0,0-2.875,12.375,0,0,2.875,3.5,0,0,3.5,2.875,0,0,12.375-2.875,0,0,17.75,2.875,0,0,12.406-2.875,0,0,3.4688-3.5,0,0,2.875-12.375,0,0-2.875-17.75,0,0,2.875-12.406,0,0-2.875-3.4688,0,0-3.4688-2.875,0,0-12.406,2.875,0,0-17.75-2.875,0,0-12.375,2.875,0,0-3.5,3.4688,0,0-2.875z"/>
  <path id="rect5621-2-2-5-0-57-9-4-2-8-9-5-3-0" style="enable-background:accumulate;color:#000000;" d="m1336.3,393.57,0,67.5,67.5,0,0-67.5-67.5,0zm12.469,6.125,12.406,0,0,2.875,17.75,0,0-2.875,12.375,0,0,2.875,3.5,0,0,3.5,2.875,0,0,12.375-2.875,0,0,17.75,2.875,0,0,12.406-2.875,0,0,3.4688-3.5,0,0,2.875-12.375,0,0-2.875-17.75,0,0,2.875-12.406,0,0-2.875-3.4688,0,0-3.4688-2.875,0,0-12.406,2.875,0,0-17.75-2.875,0,0-12.375,2.875,0,0-3.5,3.4688,0,0-2.875z"/>
  <path id="rect5621-2-2-5-0-57-9-4-2-8-9-79-2-4" style="enable-background:accumulate;color:#000000;" d="m1403.8,267,0,67.5,67.5,0,0-67.5-67.5,0zm12.469,6.125,12.406,0,0,2.875,17.75,0,0-2.875,12.375,0,0,2.875,3.5,0,0,3.5,2.875,0,0,12.375-2.875,0,0,17.75,2.875,0,0,12.406-2.875,0,0,3.4688-3.5,0,0,2.875-12.375,0,0-2.875-17.75,0,0,2.875-12.406,0,0-2.875-3.4688,0,0-3.4688-2.875,0,0-12.406,2.875,0,0-17.75-2.875,0,0-12.375,2.875,0,0-3.5,3.4688,0,0-2.875z"/>
  <path id="rect5621-2-2-5-0-57-9-4-2-8-9-4-0-2" style="enable-background:accumulate;color:#000000;" d="m1403.8,334.5,0,67.5,67.5,0,0-67.5-67.5,0zm12.469,6.125,12.406,0,0,2.875,17.75,0,0-2.875,12.375,0,0,2.875,3.5,0,0,3.5,2.875,0,0,12.375-2.875,0,0,17.75,2.875,0,0,12.406-2.875,0,0,3.4688-3.5,0,0,2.875-12.375,0,0-2.875-17.75,0,0,2.875-12.406,0,0-2.875-3.4688,0,0-3.4688-2.875,0,0-12.406,2.875,0,0-17.75-2.875,0,0-12.375,2.875,0,0-3.5,3.4688,0,0-2.875z"/>
  <path id="rect5621-2-2-5-0-57-9-4-2-8-9-5-5-3" style="enable-background:accumulate;color:#000000;" d="m1403.8,402,0,67.5,67.5,0,0-67.5-67.5,0zm12.469,6.125,12.406,0,0,2.875,17.75,0,0-2.875,12.375,0,0,2.875,3.5,0,0,3.5,2.875,0,0,12.375-2.875,0,0,17.75,2.875,0,0,12.406-2.875,0,0,3.4688-3.5,0,0,2.875-12.375,0,0-2.875-17.75,0,0,2.875-12.406,0,0-2.875-3.4688,0,0-3.4688-2.875,0,0-12.406,2.875,0,0-17.75-2.875,0,0-12.375,2.875,0,0-3.5,3.4688,0,0-2.875z"/>
  <path id="rect5621-2-2-5-0-57-9-4-2-8-9-79-7-7-55" style="enable-background:accumulate;color:#000000;" d="m1471.3,283.88,0,67.5,67.5,0,0-67.5-67.5,0zm12.469,6.125,12.406,0,0,2.875,17.75,0,0-2.875,12.375,0,0,2.875,3.5,0,0,3.5,2.875,0,0,12.375-2.875,0,0,17.75,2.875,0,0,12.406-2.875,0,0,3.4688-3.5,0,0,2.875-12.375,0,0-2.875-17.75,0,0,2.875-12.406,0,0-2.875-3.4688,0,0-3.4688-2.875,0,0-12.406,2.875,0,0-17.75-2.875,0,0-12.375,2.875,0,0-3.5,3.4688,0,0-2.875z"/>
  <path id="rect5621-2-2-5-0-57-9-4-2-8-9-4-2-1-4" style="enable-background:accumulate;color:#000000;" d="m1471.3,351.38,0,67.5,67.5,0,0-67.5-67.5,0zm12.469,6.125,12.406,0,0,2.875,17.75,0,0-2.875,12.375,0,0,2.875,3.5,0,0,3.5,2.875,0,0,12.375-2.875,0,0,17.75,2.875,0,0,12.406-2.875,0,0,3.4688-3.5,0,0,2.875-12.375,0,0-2.875-17.75,0,0,2.875-12.406,0,0-2.875-3.4688,0,0-3.4688-2.875,0,0-12.406,2.875,0,0-17.75-2.875,0,0-12.375,2.875,0,0-3.5,3.4688,0,0-2.875z"/>
  <path id="rect5621-2-2-5-0-57-9-4-2-8-9-5-2-6-5" style="enable-background:accumulate;color:#000000;" d="m1471.3,418.88,0,67.5,67.5,0,0-67.5-67.5,0zm12.469,6.125,12.406,0,0,2.875,17.75,0,0-2.875,12.375,0,0,2.875,3.5,0,0,3.5,2.875,0,0,12.375-2.875,0,0,17.75,2.875,0,0,12.406-2.875,0,0,3.4688-3.5,0,0,2.875-12.375,0,0-2.875-17.75,0,0,2.875-12.406,0,0-2.875-3.4688,0,0-3.4688-2.875,0,0-12.406,2.875,0,0-17.75-2.875,0,0-12.375,2.875,0,0-3.5,3.4688,0,0-2.875z"/>
  <path id="rect5621-2-2-5-0-57-9-4-2-8-9-79-74-4-9" style="enable-background:accumulate;color:#000000;" d="m1538.8,283.88,0,67.5,67.5,0,0-67.5-67.5,0zm12.469,6.125,12.406,0,0,2.875,17.75,0,0-2.875,12.375,0,0,2.875,3.5,0,0,3.5,2.875,0,0,12.375-2.875,0,0,17.75,2.875,0,0,12.406-2.875,0,0,3.4688-3.5,0,0,2.875-12.375,0,0-2.875-17.75,0,0,2.875-12.406,0,0-2.875-3.4688,0,0-3.4688-2.875,0,0-12.406,2.875,0,0-17.75-2.875,0,0-12.375,2.875,0,0-3.5,3.4688,0,0-2.875z"/>
  <path id="rect5621-2-2-5-0-57-9-4-2-8-9-4-9-7-6" style="enable-background:accumulate;color:#000000;" d="m1538.8,351.38,0,67.5,67.5,0,0-67.5-67.5,0zm12.469,6.125,12.406,0,0,2.875,17.75,0,0-2.875,12.375,0,0,2.875,3.5,0,0,3.5,2.875,0,0,12.375-2.875,0,0,17.75,2.875,0,0,12.406-2.875,0,0,3.4688-3.5,0,0,2.875-12.375,0,0-2.875-17.75,0,0,2.875-12.406,0,0-2.875-3.4688,0,0-3.4688-2.875,0,0-12.406,2.875,0,0-17.75-2.875,0,0-12.375,2.875,0,0-3.5,3.4688,0,0-2.875z"/>
  <path id="rect5621-2-2-5-0-57-9-4-2-8-9-5-3-3-4" style="enable-background:accumulate;color:#000000;" d="m1538.8,418.88,0,67.5,67.5,0,0-67.5-67.5,0zm12.469,6.125,12.406,0,0,2.875,17.75,0,0-2.875,12.375,0,0,2.875,3.5,0,0,3.5,2.875,0,0,12.375-2.875,0,0,17.75,2.875,0,0,12.406-2.875,0,0,3.4688-3.5,0,0,2.875-12.375,0,0-2.875-17.75,0,0,2.875-12.406,0,0-2.875-3.4688,0,0-3.4688-2.875,0,0-12.406,2.875,0,0-17.75-2.875,0,0-12.375,2.875,0,0-3.5,3.4688,0,0-2.875z"/>
  <path id="rect5621-2-2-5-0-57-9-4-2-8-9-1-7" style="enable-background:accumulate;color:#000000;" d="m1606.3,283.88,0,67.5,67.5,0,0-67.5-67.5,0zm12.469,6.125,12.406,0,0,2.875,17.75,0,0-2.875,12.375,0,0,2.875,3.5,0,0,3.5,2.875,0,0,12.375-2.875,0,0,17.75,2.875,0,0,12.406-2.875,0,0,3.4688-3.5,0,0,2.875-12.375,0,0-2.875-17.75,0,0,2.875-12.406,0,0-2.875-3.4688,0,0-3.4688-2.875,0,0-12.406,2.875,0,0-17.75-2.875,0,0-12.375,2.875,0,0-3.5,3.4688,0,0-2.875z"/>
  <path id="rect5621-2-2-5-0-57-9-4-2-8-9-8-5-3" style="enable-background:accumulate;color:#000000;" d="m1201.3,486.38,0,67.5,0,67.5,6,0,55.5,0,6,0,0-67.5,0-67.5-67.5,0zm11.812,19.344,49.5,0.125-0.031,11.688-49.5-0.0937,0.031-11.719zm0.6562,20.531,12.406,0,0,2.875,17.75,0,0-2.875,12.375,0,0,2.875,3.5,0,0,3.5,2.875,0,0,12.375-2.875,0,0,17.75,2.875,0,0,12.406-2.875,0,0,3.4688-3.5,0,0,2.875-12.375,0,0-2.875-17.75,0,0,2.875-12.406,0,0-2.875-3.4687,0,0-3.4688-2.875,0,0-12.406,2.875,0,0-17.75-2.875,0,0-12.375,2.875,0,0-3.5,3.4687,0,0-2.875zm-0.8437,64.094,49.5,0.0937-0.031,11.688-49.5-0.0937,0.031-11.688z"/>
  <path id="rect5621-2-2-5-0-57-9-4-2-8-9-8-8-9" style="enable-background:accumulate;color:#000000;" d="m1133.8,486.38,0,67.5,0,67.5,6,0,55.5,0,6,0,0-67.5,0-67.5-67.5,0zm11.812,19.344,49.5,0.125-0.031,11.688-49.5-0.0937,0.031-11.719zm0.6562,20.531,12.406,0,0,2.875,17.75,0,0-2.875,12.375,0,0,2.875,3.5,0,0,3.5,2.875,0,0,12.375-2.875,0,0,17.75,2.875,0,0,12.406-2.875,0,0,3.4688-3.5,0,0,2.875-12.375,0,0-2.875-17.75,0,0,2.875-12.406,0,0-2.875-3.4687,0,0-3.4688-2.875,0,0-12.406,2.875,0,0-17.75-2.875,0,0-12.375,2.875,0,0-3.5,3.4687,0,0-2.875zm-0.8437,64.094,49.5,0.0937-0.031,11.688-49.5-0.0937,0.031-11.688z"/>
  <path id="rect5621-2-2-5-0-57-9-4-2-8-9-8-1-6" style="enable-background:accumulate;color:#000000;" d="m1606.3,486.38-67.5,0-67.5,0,0,6,0,55.5,0,6,67.5,0,67.5,0,0-67.5zm-19.344,11.812-0.125,49.5-11.688-0.0312,0.094-49.5,11.719,0.0312zm-20.531,0.65625,0,12.406-2.875,0,0,17.75,2.875,0,0,12.375-2.875,0,0,3.5-3.5,0,0,2.875-12.375,0,0-2.875-17.75,0,0,2.875-12.406,0,0-2.875-3.4688,0,0-3.5-2.875,0,0-12.375,2.875,0,0-17.75-2.875,0,0-12.406,2.875,0,0-3.4688,3.4688,0,0-2.875,12.406,0,0,2.875,17.75,0,0-2.875,12.375,0,0,2.875,3.5,0,0,3.4688,2.875,0zm-64.094-0.84375-0.094,49.5-11.688-0.0312,0.094-49.5,11.688,0.0312z"/>
  <path id="rect7292-1-2-3" style="enable-background:accumulate;color:#000000;" d="m1268.8,477.94,0,67.5,67.5,0,33.75,0,0-67.5-33.75,0-67.5,0zm29.344,6.125,12.406,0,0,2.875,17.75,0,0-2.875,12.375,0,0,2.875,3.5,0,0,3.5,2.875,0,0,12.375-2.875,0,0,17.75,2.875,0,0,12.406-2.875,0,0,3.4688-3.5,0,0,2.875-12.375,0,0-2.875-17.75,0,0,2.875-12.406,0,0-2.875-3.4688,0,0-3.4688-2.875,0,0-12.406,2.875,0,0-17.75-2.875,0,0-12.375,2.875,0,0-3.5,3.4688,0,0-2.875z"/>
  <path id="rect7292-1-2-6-8" style="enable-background:accumulate;color:#000000;" d="m1370.1,486.38,0,67.5,67.5,0,33.75,0,0-67.5-33.75,0-67.5,0zm29.344,6.125,12.406,0,0,2.875,17.75,0,0-2.875,12.375,0,0,2.875,3.5,0,0,3.5,2.875,0,0,12.375-2.875,0,0,17.75,2.875,0,0,12.406-2.875,0,0,3.4688-3.5,0,0,2.875-12.375,0,0-2.875-17.75,0,0,2.875-12.406,0,0-2.875-3.4688,0,0-3.4688-2.875,0,0-12.406,2.875,0,0-17.75-2.875,0,0-12.375,2.875,0,0-3.5,3.4688,0,0-2.875z"/>
  <path id="rect7292-1-2-0-0" style="enable-background:accumulate;color:#000000;" d="m1201.3,385.13-67.5,0,0,67.5,0,33.75,67.5,0,0-33.75,0-67.5zm-6.125,29.344,0,12.406-2.875,0,0,17.75,2.875,0,0,12.375-2.875,0,0,3.5-3.5,0,0,2.875-12.375,0,0-2.875-17.75,0,0,2.875-12.406,0,0-2.875-3.4688,0,0-3.5-2.875,0,0-12.375,2.875,0,0-17.75-2.875,0,0-12.406,2.875,0,0-3.4688,3.4688,0,0-2.875,12.406,0,0,2.875,17.75,0,0-2.875,12.375,0,0,2.875,3.5,0,0,3.4688,2.875,0z"/>
  <path id="rect7292-1-2-0-2-9" style="enable-background:accumulate;color:#000000;" d="m1201.3,283.88-67.5,0,0,67.5,0,33.75,67.5,0,0-33.75,0-67.5zm-6.125,29.344,0,12.406-2.875,0,0,17.75,2.875,0,0,12.375-2.875,0,0,3.5-3.5,0,0,2.875-12.375,0,0-2.875-17.75,0,0,2.875-12.406,0,0-2.875-3.4688,0,0-3.5-2.875,0,0-12.375,2.875,0,0-17.75-2.875,0,0-12.406,2.875,0,0-3.4688,3.4688,0,0-2.875,12.406,0,0,2.875,17.75,0,0-2.875,12.375,0,0,2.875,3.5,0,0,3.4688,2.875,0z"/>
  <path id="rect5621-2-2-5-0-57-9-4-2-8-9-8-1-36-4" style="enable-background:accumulate;color:#000000;" d="m1268.8,621.38-67.5,0-67.5,0,0,6,0,55.5,0,6,67.5,0,67.5,0,0-67.5zm-19.344,11.812-0.125,49.5-11.688-0.0312,0.094-49.5,11.719,0.0312zm-20.531,0.65625,0,12.406-2.875,0,0,17.75,2.875,0,0,12.375-2.875,0,0,3.5-3.5,0,0,2.875-12.375,0,0-2.875-17.75,0,0,2.875-12.406,0,0-2.875-3.4688,0,0-3.5-2.875,0,0-12.375,2.875,0,0-17.75-2.875,0,0-12.406,2.875,0,0-3.4688,3.4688,0,0-2.875,12.406,0,0,2.875,17.75,0,0-2.875,12.375,0,0,2.875,3.5,0,0,3.4688,2.875,0zm-64.094-0.84375-0.094,49.5-11.688-0.0312,0.094-49.5,11.688,0.0312z"/>
  <rect id="rect3218-0" style="enable-background:accumulate;color:#000000;" transform="scale(-1,1)" height="6.1255" width="135" y="688.88" x="-1268.8"/>
  <rect id="rect3218-7-5" style="enable-background:accumulate;color:#000000;" transform="scale(-1,1)" height="6.1255" width="101.25" y="545.44" x="-1370.1"/>
  <rect id="rect3218-6-2" style="enable-background:accumulate;color:#000000;" transform="scale(-1,1)" height="6.1255" width="202.5" y="277.75" x="-1673.8"/>
  <rect id="rect3218-5-8" style="enable-background:accumulate;color:#000000;" transform="matrix(0,-1,-1,0,0,0)" height="6.1255" width="143.44" y="-1274.9" x="-695"/>
  <rect id="rect3218-5-7-1" style="enable-background:accumulate;color:#000000;" transform="matrix(0,-1,-1,0,0,0)" height="6.1255" width="417.25" y="-1133.8" x="-695"/>
  <rect id="rect3218-5-2-4" style="enable-background:accumulate;color:#000000;" transform="matrix(0,-1,-1,0,0,0)" height="6.1255" width="282.25" y="-1679.9" x="-560"/>
  <path id="rect5621-2-2-5-0-57-9-4-2-8-9-5-2-9-9-3-7-74" style="enable-background:accumulate;color:#000000;" d="m1336.3,461.07,0,16.875,67.5,0,0-16.875-67.5,0z"/>
  <path id="rect5621-2-2-5-0-57-9-4-2-8-9-5-2-9-9-3-7-7-4" style="enable-background:accumulate;color:#000000;" d="m1403.8,469.5,0,8.4375,67.5,0,0-8.4375-67.5,0z"/>
  <path id="rect7292-1-2-0-0-1" style="enable-background:accumulate;color:#000000;" d="m1673.8,452.63-67.5,0,0,67.5,0,33.75,67.5,0,0-33.75,0-67.5zm-6.125,29.344,0,12.406-2.875,0,0,17.75,2.875,0,0,12.375-2.875,0,0,3.5-3.5,0,0,2.875-12.375,0,0-2.875-17.75,0,0,2.875-12.406,0,0-2.875-3.4688,0,0-3.5-2.875,0,0-12.375,2.875,0,0-17.75-2.875,0,0-12.406,2.875,0,0-3.4688,3.4688,0,0-2.875,12.406,0,0,2.875,17.75,0,0-2.875,12.375,0,0,2.875,3.5,0,0,3.4688,2.875,0z"/>
  <path id="rect7292-1-2-0-2-9-7" style="enable-background:accumulate;color:#000000;" d="m1673.8,351.38-67.5,0,0,67.5,0,33.75,67.5,0,0-33.75,0-67.5zm-6.125,29.344,0,12.406-2.875,0,0,17.75,2.875,0,0,12.375-2.875,0,0,3.5-3.5,0,0,2.875-12.375,0,0-2.875-17.75,0,0,2.875-12.406,0,0-2.875-3.4688,0,0-3.5-2.875,0,0-12.375,2.875,0,0-17.75-2.875,0,0-12.406,2.875,0,0-3.4688,3.4688,0,0-2.875,12.406,0,0,2.875,17.75,0,0-2.875,12.375,0,0,2.875,3.5,0,0,3.4688,2.875,0z"/>
  <rect id="rect3218-7-5-0" style="enable-background:accumulate;color:#000000;" transform="scale(-1,1)" height="6.1255" width="303.75" y="553.88" x="-1673.8"/>
  <rect id="rect3218-5-8-8" style="enable-background:accumulate;color:#000000;" transform="matrix(0,-1,-1,0,0,0)" height="6.1255" width="8.4375" y="-1370.1" x="-560"/>
  <rect id="rect3218-5-8-8-0" style="enable-background:accumulate;color:#000000;" transform="matrix(0,-1,-1,0,0,0)" height="6.1255" width="8.4375" y="-1268.8" x="-277.75"/>
  <rect id="rect3218-5-8-8-4" style="enable-background:accumulate;color:#000000;" transform="matrix(0,-1,-1,0,0,0)" height="6.1255" width="16.875" y="-1336.3" x="-269.32"/>
  <rect id="rect3218-5-8-8-2" style="enable-background:accumulate;color:#000000;" transform="matrix(0,-1,-1,0,0,0)" height="6.1255" width="8.4375" y="-1409.9" x="-260.88"/>
  <rect id="rect3218-5-8-8-6" style="enable-background:accumulate;color:#000000;" transform="matrix(0,-1,-1,0,0,0)" height="6.1255" width="16.875" y="-1477.4" x="-277.75"/>
  <rect id="rect3218-6-2-9" style="enable-background:accumulate;color:#000000;" transform="scale(-1,1)" height="6.1255" width="135" y="277.75" x="-1268.8"/>
  <rect id="rect3218-6-2-0" style="enable-background:accumulate;color:#000000;" transform="scale(-1,1)" height="6.1255" width="67.5" y="269.32" x="-1336.3"/>
  <rect id="rect3218-6-2-6" style="enable-background:accumulate;color:#000000;" transform="scale(-1,1)" height="6.1255" width="67.5" y="252.44" x="-1403.8"/>
  <rect id="rect3218-6-2-7" style="enable-background:accumulate;color:#000000;" transform="scale(-1,1)" height="6.1255" width="67.5" y="260.88" x="-1471.3"/>
  <path id="rect5621-2-2-5-0-57-9-4-2-8-9-79-04-3" style="enable-background:accumulate;color:#000000;" d="m936.06,283.88,0,67.5-67.5,0,0-67.5,67.5,0zm-12.469,6.125-12.406,0,0,2.875-17.75,0,0-2.875-12.375,0,0,2.875-3.5,0,0,3.5-2.875,0,0,12.375,2.875,0,0,17.75-2.875,0,0,12.406,2.875,0,0,3.4688,3.5,0,0,2.875,12.375,0,0-2.875,17.75,0,0,2.875,12.406,0,0-2.875,3.4688,0,0-3.4688,2.875,0,0-12.406-2.875,0,0-17.75,2.875,0,0-12.375-2.875,0,0-3.5-3.4688,0,0-2.875z"/>
  <path id="rect5621-2-2-5-0-57-9-4-2-8-9-4-8-2" style="enable-background:accumulate;color:#000000;" d="m936.06,351.38,0,67.5-67.5,0,0-67.5,67.5,0zm-12.469,6.125-12.406,0,0,2.875-17.75,0,0-2.875-12.375,0,0,2.875-3.5,0,0,3.5-2.875,0,0,12.375,2.875,0,0,17.75-2.875,0,0,12.406,2.875,0,0,3.4688,3.5,0,0,2.875,12.375,0,0-2.875,17.75,0,0,2.875,12.406,0,0-2.875,3.4688,0,0-3.4688,2.875,0,0-12.406-2.875,0,0-17.75,2.875,0,0-12.375-2.875,0,0-3.5-3.4688,0,0-2.875z"/>
  <path id="rect5621-2-2-5-0-57-9-4-2-8-9-5-32-7" style="enable-background:accumulate;color:#000000;" d="m936.06,418.88,0,67.5-67.5,0,0-67.5,67.5,0zm-12.469,6.125-12.406,0,0,2.875-17.75,0,0-2.875-12.375,0,0,2.875-3.5,0,0,3.5-2.875,0,0,12.375,2.875,0,0,17.75-2.875,0,0,12.406,2.875,0,0,3.4688,3.5,0,0,2.875,12.375,0,0-2.875,17.75,0,0,2.875,12.406,0,0-2.875,3.4688,0,0-3.4688,2.875,0,0-12.406-2.875,0,0-17.75,2.875,0,0-12.375-2.875,0,0-3.5-3.4688,0,0-2.875z"/>
  <path id="rect5621-2-2-5-0-57-9-4-2-8-9-79-7-9-9" style="enable-background:accumulate;color:#000000;" d="m868.56,275.44,0,67.5-67.5,0,0-67.5,67.5,0zm-12.469,6.125-12.406,0,0,2.875-17.75,0,0-2.875-12.375,0,0,2.875-3.5,0,0,3.5-2.875,0,0,12.375,2.875,0,0,17.75-2.875,0,0,12.406,2.875,0,0,3.4688,3.5,0,0,2.875,12.375,0,0-2.875,17.75,0,0,2.875,12.406,0,0-2.875,3.4688,0,0-3.4688,2.875,0,0-12.406-2.875,0,0-17.75,2.875,0,0-12.375-2.875,0,0-3.5-3.4688,0,0-2.875z"/>
  <path id="rect5621-2-2-5-0-57-9-4-2-8-9-4-2-0-3" style="enable-background:accumulate;color:#000000;" d="m868.56,342.94,0,67.5-67.5,0,0-67.5,67.5,0zm-12.469,6.125-12.406,0,0,2.875-17.75,0,0-2.875-12.375,0,0,2.875-3.5,0,0,3.5-2.875,0,0,12.375,2.875,0,0,17.75-2.875,0,0,12.406,2.875,0,0,3.4688,3.5,0,0,2.875,12.375,0,0-2.875,17.75,0,0,2.875,12.406,0,0-2.875,3.4688,0,0-3.4688,2.875,0,0-12.406-2.875,0,0-17.75,2.875,0,0-12.375-2.875,0,0-3.5-3.4688,0,0-2.875z"/>
  <path id="rect5621-2-2-5-0-57-9-4-2-8-9-5-2-9-5" style="enable-background:accumulate;color:#000000;" d="m868.56,410.44,0,67.5-67.5,0,0-67.5,67.5,0zm-12.469,6.125-12.406,0,0,2.875-17.75,0,0-2.875-12.375,0,0,2.875-3.5,0,0,3.5-2.875,0,0,12.375,2.875,0,0,17.75-2.875,0,0,12.406,2.875,0,0,3.4688,3.5,0,0,2.875,12.375,0,0-2.875,17.75,0,0,2.875,12.406,0,0-2.875,3.4688,0,0-3.4688,2.875,0,0-12.406-2.875,0,0-17.75,2.875,0,0-12.375-2.875,0,0-3.5-3.4688,0,0-2.875z"/>
  <path id="rect5621-2-2-5-0-57-9-4-2-8-9-79-74-2-6" style="enable-background:accumulate;color:#000000;" d="m801.06,258.57,0,67.5-67.5,0,0-67.5,67.5,0zm-12.469,6.125-12.406,0,0,2.875-17.75,0,0-2.875-12.375,0,0,2.875-3.5,0,0,3.5-2.875,0,0,12.375,2.875,0,0,17.75-2.875,0,0,12.406,2.875,0,0,3.4688,3.5,0,0,2.875,12.375,0,0-2.875,17.75,0,0,2.875,12.406,0,0-2.875,3.4688,0,0-3.4688,2.875,0,0-12.406-2.875,0,0-17.75,2.875,0,0-12.375-2.875,0,0-3.5-3.4688,0,0-2.875z"/>
  <path id="rect5621-2-2-5-0-57-9-4-2-8-9-4-9-6-1" style="enable-background:accumulate;color:#000000;" d="m801.06,326.07,0,67.5-67.5,0,0-67.5,67.5,0zm-12.469,6.125-12.406,0,0,2.875-17.75,0,0-2.875-12.375,0,0,2.875-3.5,0,0,3.5-2.875,0,0,12.375,2.875,0,0,17.75-2.875,0,0,12.406,2.875,0,0,3.4688,3.5,0,0,2.875,12.375,0,0-2.875,17.75,0,0,2.875,12.406,0,0-2.875,3.4688,0,0-3.4688,2.875,0,0-12.406-2.875,0,0-17.75,2.875,0,0-12.375-2.875,0,0-3.5-3.4688,0,0-2.875z"/>
  <path id="rect5621-2-2-5-0-57-9-4-2-8-9-5-3-0-5" style="enable-background:accumulate;color:#000000;" d="m801.06,393.57,0,67.5-67.5,0,0-67.5,67.5,0zm-12.469,6.125-12.406,0,0,2.875-17.75,0,0-2.875-12.375,0,0,2.875-3.5,0,0,3.5-2.875,0,0,12.375,2.875,0,0,17.75-2.875,0,0,12.406,2.875,0,0,3.4688,3.5,0,0,2.875,12.375,0,0-2.875,17.75,0,0,2.875,12.406,0,0-2.875,3.4688,0,0-3.4688,2.875,0,0-12.406-2.875,0,0-17.75,2.875,0,0-12.375-2.875,0,0-3.5-3.4688,0,0-2.875z"/>
  <path id="rect5621-2-2-5-0-57-9-4-2-8-9-79-2-4-8" style="enable-background:accumulate;color:#000000;" d="m733.56,267,0,67.5-67.5,0,0-67.5,67.5,0zm-12.469,6.125-12.406,0,0,2.875-17.75,0,0-2.875-12.375,0,0,2.875-3.5,0,0,3.5-2.875,0,0,12.375,2.875,0,0,17.75-2.875,0,0,12.406,2.875,0,0,3.4688,3.5,0,0,2.875,12.375,0,0-2.875,17.75,0,0,2.875,12.406,0,0-2.875,3.4688,0,0-3.4688,2.875,0,0-12.406-2.875,0,0-17.75,2.875,0,0-12.375-2.875,0,0-3.5-3.4688,0,0-2.875z"/>
  <path id="rect5621-2-2-5-0-57-9-4-2-8-9-4-0-2-3" style="enable-background:accumulate;color:#000000;" d="m733.56,334.5,0,67.5-67.5,0,0-67.5,67.5,0zm-12.469,6.125-12.406,0,0,2.875-17.75,0,0-2.875-12.375,0,0,2.875-3.5,0,0,3.5-2.875,0,0,12.375,2.875,0,0,17.75-2.875,0,0,12.406,2.875,0,0,3.4688,3.5,0,0,2.875,12.375,0,0-2.875,17.75,0,0,2.875,12.406,0,0-2.875,3.4688,0,0-3.4688,2.875,0,0-12.406-2.875,0,0-17.75,2.875,0,0-12.375-2.875,0,0-3.5-3.4688,0,0-2.875z"/>
  <path id="rect5621-2-2-5-0-57-9-4-2-8-9-5-5-3-7" style="enable-background:accumulate;color:#000000;" d="m733.56,402,0,67.5-67.5,0,0-67.5,67.5,0zm-12.469,6.125-12.406,0,0,2.875-17.75,0,0-2.875-12.375,0,0,2.875-3.5,0,0,3.5-2.875,0,0,12.375,2.875,0,0,17.75-2.875,0,0,12.406,2.875,0,0,3.4688,3.5,0,0,2.875,12.375,0,0-2.875,17.75,0,0,2.875,12.406,0,0-2.875,3.4688,0,0-3.4688,2.875,0,0-12.406-2.875,0,0-17.75,2.875,0,0-12.375-2.875,0,0-3.5-3.4688,0,0-2.875z"/>
  <path id="rect5621-2-2-5-0-57-9-4-2-8-9-79-7-7-55-5" style="enable-background:accumulate;color:#000000;" d="m666.06,283.88,0,67.5-67.5,0,0-67.5,67.5,0zm-12.469,6.125-12.406,0,0,2.875-17.75,0,0-2.875-12.375,0,0,2.875-3.5,0,0,3.5-2.875,0,0,12.375,2.875,0,0,17.75-2.875,0,0,12.406,2.875,0,0,3.4688,3.5,0,0,2.875,12.375,0,0-2.875,17.75,0,0,2.875,12.406,0,0-2.875,3.4688,0,0-3.4688,2.875,0,0-12.406-2.875,0,0-17.75,2.875,0,0-12.375-2.875,0,0-3.5-3.4688,0,0-2.875z"/>
  <path id="rect5621-2-2-5-0-57-9-4-2-8-9-4-2-1-4-0" style="enable-background:accumulate;color:#000000;" d="m666.06,351.38,0,67.5-67.5,0,0-67.5,67.5,0zm-12.469,6.125-12.406,0,0,2.875-17.75,0,0-2.875-12.375,0,0,2.875-3.5,0,0,3.5-2.875,0,0,12.375,2.875,0,0,17.75-2.875,0,0,12.406,2.875,0,0,3.4688,3.5,0,0,2.875,12.375,0,0-2.875,17.75,0,0,2.875,12.406,0,0-2.875,3.4688,0,0-3.4688,2.875,0,0-12.406-2.875,0,0-17.75,2.875,0,0-12.375-2.875,0,0-3.5-3.4688,0,0-2.875z"/>
  <path id="rect5621-2-2-5-0-57-9-4-2-8-9-5-2-6-5-9" style="enable-background:accumulate;color:#000000;" d="m666.06,418.88,0,67.5-67.5,0,0-67.5,67.5,0zm-12.469,6.125-12.406,0,0,2.875-17.75,0,0-2.875-12.375,0,0,2.875-3.5,0,0,3.5-2.875,0,0,12.375,2.875,0,0,17.75-2.875,0,0,12.406,2.875,0,0,3.4688,3.5,0,0,2.875,12.375,0,0-2.875,17.75,0,0,2.875,12.406,0,0-2.875,3.4688,0,0-3.4688,2.875,0,0-12.406-2.875,0,0-17.75,2.875,0,0-12.375-2.875,0,0-3.5-3.4688,0,0-2.875z"/>
  <path id="rect5621-2-2-5-0-57-9-4-2-8-9-79-74-4-9-0" style="enable-background:accumulate;color:#000000;" d="m598.56,283.88,0,67.5-67.5,0,0-67.5,67.5,0zm-12.469,6.125-12.406,0,0,2.875-17.75,0,0-2.875-12.375,0,0,2.875-3.5,0,0,3.5-2.875,0,0,12.375,2.875,0,0,17.75-2.875,0,0,12.406,2.875,0,0,3.4688,3.5,0,0,2.875,12.375,0,0-2.875,17.75,0,0,2.875,12.406,0,0-2.875,3.4688,0,0-3.4688,2.875,0,0-12.406-2.875,0,0-17.75,2.875,0,0-12.375-2.875,0,0-3.5-3.4688,0,0-2.875z"/>
  <path id="rect5621-2-2-5-0-57-9-4-2-8-9-4-9-7-6-8" style="enable-background:accumulate;color:#000000;" d="m598.56,351.38,0,67.5-67.5,0,0-67.5,67.5,0zm-12.469,6.125-12.406,0,0,2.875-17.75,0,0-2.875-12.375,0,0,2.875-3.5,0,0,3.5-2.875,0,0,12.375,2.875,0,0,17.75-2.875,0,0,12.406,2.875,0,0,3.4688,3.5,0,0,2.875,12.375,0,0-2.875,17.75,0,0,2.875,12.406,0,0-2.875,3.4688,0,0-3.4688,2.875,0,0-12.406-2.875,0,0-17.75,2.875,0,0-12.375-2.875,0,0-3.5-3.4688,0,0-2.875z"/>
  <path id="rect5621-2-2-5-0-57-9-4-2-8-9-5-3-3-4-2" style="enable-background:accumulate;color:#000000;" d="m598.56,418.88,0,67.5-67.5,0,0-67.5,67.5,0zm-12.469,6.125-12.406,0,0,2.875-17.75,0,0-2.875-12.375,0,0,2.875-3.5,0,0,3.5-2.875,0,0,12.375,2.875,0,0,17.75-2.875,0,0,12.406,2.875,0,0,3.4688,3.5,0,0,2.875,12.375,0,0-2.875,17.75,0,0,2.875,12.406,0,0-2.875,3.4688,0,0-3.4688,2.875,0,0-12.406-2.875,0,0-17.75,2.875,0,0-12.375-2.875,0,0-3.5-3.4688,0,0-2.875z"/>
  <path id="rect5621-2-2-5-0-57-9-4-2-8-9-1-7-1" style="enable-background:accumulate;color:#000000;" d="m531.06,283.88,0,67.5-67.5,0,0-67.5,67.5,0zm-12.469,6.125-12.406,0,0,2.875-17.75,0,0-2.875-12.375,0,0,2.875-3.5,0,0,3.5-2.875,0,0,12.375,2.875,0,0,17.75-2.875,0,0,12.406,2.875,0,0,3.4688,3.5,0,0,2.875,12.375,0,0-2.875,17.75,0,0,2.875,12.406,0,0-2.875,3.4688,0,0-3.4688,2.875,0,0-12.406-2.875,0,0-17.75,2.875,0,0-12.375-2.875,0,0-3.5-3.4688,0,0-2.875z"/>
  <path id="rect5621-2-2-5-0-57-9-4-2-8-9-8-5-3-1" style="enable-background:accumulate;color:#000000;" d="m936.06,486.38,0,67.5,0,67.5-6,0-55.5,0-6,0,0-67.5,0-67.5,67.5,0zm-11.812,19.344-49.5,0.125,0.031,11.688,49.5-0.0937-0.031-11.719zm-0.6562,20.531-12.406,0,0,2.875-17.75,0,0-2.875-12.375,0,0,2.875-3.5,0,0,3.5-2.875,0,0,12.375,2.875,0,0,17.75-2.875,0,0,12.406,2.875,0,0,3.4688,3.5,0,0,2.875,12.375,0,0-2.875,17.75,0,0,2.875,12.406,0,0-2.875,3.4687,0,0-3.4688,2.875,0,0-12.406-2.875,0,0-17.75,2.875,0,0-12.375-2.875,0,0-3.5-3.4687,0,0-2.875zm0.8437,64.094-49.5,0.0937,0.031,11.688,49.5-0.0937-0.031-11.688z"/>
  <path id="rect5621-2-2-5-0-57-9-4-2-8-9-8-8-9-3" style="enable-background:accumulate;color:#000000;" d="m1003.6,486.38,0,67.5,0,67.5-6,0-55.5,0-6,0,0-67.5,0-67.5,67.5,0zm-11.813,19.344-49.5,0.125,0.031,11.688,49.5-0.0937-0.031-11.719zm-0.6562,20.531-12.406,0,0,2.875-17.75,0,0-2.875-12.375,0,0,2.875-3.5,0,0,3.5-2.875,0,0,12.375,2.875,0,0,17.75-2.875,0,0,12.406,2.875,0,0,3.4688,3.5,0,0,2.875,12.375,0,0-2.875,17.75,0,0,2.875,12.406,0,0-2.875,3.4687,0,0-3.4688,2.875,0,0-12.406-2.875,0,0-17.75,2.875,0,0-12.375-2.875,0,0-3.5-3.4687,0,0-2.875zm0.8437,64.094-49.5,0.0937,0.031,11.688,49.5-0.0937-0.031-11.688z"/>
  <path id="rect5621-2-2-5-0-57-9-4-2-8-9-8-1-6-3" style="enable-background:accumulate;color:#000000;" d="m531.06,486.38,67.5,0,67.5,0,0,6,0,55.5,0,6-67.5,0-67.5,0,0-67.5zm19.344,11.812,0.125,49.5,11.688-0.0312-0.094-49.5-11.719,0.0312zm20.531,0.65625,0,12.406,2.875,0,0,17.75-2.875,0,0,12.375,2.875,0,0,3.5,3.5,0,0,2.875,12.375,0,0-2.875,17.75,0,0,2.875,12.406,0,0-2.875,3.4688,0,0-3.5,2.875,0,0-12.375-2.875,0,0-17.75,2.875,0,0-12.406-2.875,0,0-3.4688-3.4688,0,0-2.875-12.406,0,0,2.875-17.75,0,0-2.875-12.375,0,0,2.875-3.5,0,0,3.4688-2.875,0zm64.094-0.84375,0.094,49.5,11.688-0.0312-0.094-49.5-11.688,0.0312z"/>
  <path id="rect7292-1-2-3-9" style="enable-background:accumulate;color:#000000;" d="m868.56,477.94,0,67.5-67.5,0-33.75,0,0-67.5,33.75,0,67.5,0zm-29.344,6.125-12.406,0,0,2.875-17.75,0,0-2.875-12.375,0,0,2.875-3.5,0,0,3.5-2.875,0,0,12.375,2.875,0,0,17.75-2.875,0,0,12.406,2.875,0,0,3.4688,3.5,0,0,2.875,12.375,0,0-2.875,17.75,0,0,2.875,12.406,0,0-2.875,3.4688,0,0-3.4688,2.875,0,0-12.406-2.875,0,0-17.75,2.875,0,0-12.375-2.875,0,0-3.5-3.4688,0,0-2.875z"/>
  <path id="rect7292-1-2-0-0-3" style="enable-background:accumulate;color:#000000;" d="m936.06,385.13,67.5,0,0,67.5,0,33.75-67.5,0,0-33.75,0-67.5zm6.125,29.344,0,12.406,2.875,0,0,17.75-2.875,0,0,12.375,2.875,0,0,3.5,3.5,0,0,2.875,12.375,0,0-2.875,17.75,0,0,2.875,12.406,0,0-2.875,3.4688,0,0-3.5,2.875,0,0-12.375-2.875,0,0-17.75,2.875,0,0-12.406-2.875,0,0-3.4688-3.4688,0,0-2.875-12.406,0,0,2.875-17.75,0,0-2.875-12.375,0,0,2.875-3.5,0,0,3.4688-2.875,0z"/>
  <path id="rect7292-1-2-0-2-9-1" style="enable-background:accumulate;color:#000000;" d="m936.06,283.88,67.5,0,0,67.5,0,33.75-67.5,0,0-33.75,0-67.5zm6.125,29.344,0,12.406,2.875,0,0,17.75-2.875,0,0,12.375,2.875,0,0,3.5,3.5,0,0,2.875,12.375,0,0-2.875,17.75,0,0,2.875,12.406,0,0-2.875,3.4688,0,0-3.5,2.875,0,0-12.375-2.875,0,0-17.75,2.875,0,0-12.406-2.875,0,0-3.4688-3.4688,0,0-2.875-12.406,0,0,2.875-17.75,0,0-2.875-12.375,0,0,2.875-3.5,0,0,3.4688-2.875,0z"/>
  <path id="rect5621-2-2-5-0-57-9-4-2-8-9-8-1-36-4-4" style="enable-background:accumulate;color:#000000;" d="m868.56,621.38,67.5,0,67.5,0,0,6,0,55.5,0,6-67.5,0-67.5,0,0-67.5zm19.344,11.812,0.125,49.5,11.688-0.0312-0.094-49.5-11.719,0.0312zm20.531,0.65625,0,12.406,2.875,0,0,17.75-2.875,0,0,12.375,2.875,0,0,3.5,3.5,0,0,2.875,12.375,0,0-2.875,17.75,0,0,2.875,12.406,0,0-2.875,3.4688,0,0-3.5,2.875,0,0-12.375-2.875,0,0-17.75,2.875,0,0-12.406-2.875,0,0-3.4688-3.4688,0,0-2.875-12.406,0,0,2.875-17.75,0,0-2.875-12.375,0,0,2.875-3.5,0,0,3.4688-2.875,0zm64.094-0.84375,0.094,49.5,11.688-0.0312-0.094-49.5-11.688,0.0312z"/>
  <rect id="rect3218-0-0" style="enable-background:accumulate;color:#000000;" height="6.1255" width="135" y="688.88" x="868.56"/>
  <rect id="rect3218-6-2-07" style="enable-background:accumulate;color:#000000;" height="6.1255" width="202.5" y="277.75" x="463.56"/>
  <rect id="rect3218-5-8-9" style="enable-background:accumulate;color:#000000;" transform="matrix(0,-1,1,0,0,0)" height="6.1255" width="143.44" y="862.44" x="-695"/>
  <rect id="rect3218-5-7-1-4" style="enable-background:accumulate;color:#000000;" transform="matrix(0,-1,1,0,0,0)" height="6.1255" width="417.25" y="1003.6" x="-695"/>
  <rect id="rect3218-5-2-4-6" style="enable-background:accumulate;color:#000000;" transform="matrix(0,-1,1,0,0,0)" height="6.1255" width="282.25" y="457.44" x="-560"/>
  <path id="rect5621-2-2-5-0-57-9-4-2-8-9-5-2-9-9-3-7-74-8" style="enable-background:accumulate;color:#000000;" d="m801.06,461.07,0,16.875-67.5,0,0-16.875,67.5,0z"/>
  <path id="rect5621-2-2-5-0-57-9-4-2-8-9-5-2-9-9-3-7-7-4-7" style="enable-background:accumulate;color:#000000;" d="m733.56,469.5,0,8.4375-67.5,0,0-8.4375,67.5,0z"/>
  <path id="rect7292-1-2-0-0-1-4" style="enable-background:accumulate;color:#000000;" d="m463.56,452.63,67.5,0,0,67.5,0,33.75-67.5,0,0-33.75,0-67.5zm6.125,29.344,0,12.406,2.875,0,0,17.75-2.875,0,0,12.375,2.875,0,0,3.5,3.5,0,0,2.875,12.375,0,0-2.875,17.75,0,0,2.875,12.406,0,0-2.875,3.4688,0,0-3.5,2.875,0,0-12.375-2.875,0,0-17.75,2.875,0,0-12.406-2.875,0,0-3.4688-3.4688,0,0-2.875-12.406,0,0,2.875-17.75,0,0-2.875-12.375,0,0,2.875-3.5,0,0,3.4688-2.875,0z"/>
  <path id="rect7292-1-2-0-2-9-7-6" style="enable-background:accumulate;color:#000000;" d="m463.56,351.38,67.5,0,0,67.5,0,33.75-67.5,0,0-33.75,0-67.5zm6.125,29.344,0,12.406,2.875,0,0,17.75-2.875,0,0,12.375,2.875,0,0,3.5,3.5,0,0,2.875,12.375,0,0-2.875,17.75,0,0,2.875,12.406,0,0-2.875,3.4688,0,0-3.5,2.875,0,0-12.375-2.875,0,0-17.75,2.875,0,0-12.406-2.875,0,0-3.4688-3.4688,0,0-2.875-12.406,0,0,2.875-17.75,0,0-2.875-12.375,0,0,2.875-3.5,0,0,3.4688-2.875,0z"/>
  <rect id="rect3218-5-8-8-0-6" style="enable-background:accumulate;color:#000000;" transform="matrix(0,-1,1,0,0,0)" height="6.1255" width="8.4375" y="868.56" x="-277.75"/>
  <rect id="rect3218-5-8-8-4-4" style="enable-background:accumulate;color:#000000;" transform="matrix(0,-1,1,0,0,0)" height="6.1255" width="16.875" y="801.06" x="-269.32"/>
  <rect id="rect3218-5-8-8-2-6" style="enable-background:accumulate;color:#000000;" transform="matrix(0,-1,1,0,0,0)" height="6.1255" width="8.4375" y="727.44" x="-260.88"/>
  <rect id="rect3218-5-8-8-6-3" style="enable-background:accumulate;color:#000000;" transform="matrix(0,-1,1,0,0,0)" height="6.1255" width="16.875" y="659.94" x="-277.75"/>
  <rect id="rect3218-6-2-9-6" style="enable-background:accumulate;color:#000000;" height="6.1255" width="135" y="277.75" x="868.56"/>
  <rect id="rect3218-6-2-0-7" style="enable-background:accumulate;color:#000000;" height="6.1255" width="67.5" y="269.32" x="801.06"/>
  <rect id="rect3218-6-2-6-4" style="enable-background:accumulate;color:#000000;" height="6.1255" width="67.5" y="252.44" x="733.56"/>
  <rect id="rect3218-6-2-7-6" style="enable-background:accumulate;color:#000000;" height="6.1255" width="67.5" y="260.88" x="666.06"/>
  <path id="rect5621-2-2-5-0-57-9-4-2-8-9-5-2-9-9-3-7-7-4-0" style="enable-background:accumulate;color:#000000;" d="m1370.1,477.94,0,8.4375,101.25,0,0-8.4375-101.25,0z"/>
  <path id="rect7292-1-2-6-8-3" style="enable-background:accumulate;color:#000000;" d="m767.31,486.38,0,67.5-67.5,0-33.75,0,0-67.5,33.75,0,67.5,0zm-29.344,6.125-12.406,0,0,2.875-17.75,0,0-2.875-12.375,0,0,2.875-3.5,0,0,3.5-2.875,0,0,12.375,2.875,0,0,17.75-2.875,0,0,12.406,2.875,0,0,3.4688,3.5,0,0,2.875,12.375,0,0-2.875,17.75,0,0,2.875,12.406,0,0-2.875,3.4688,0,0-3.4688,2.875,0,0-12.406-2.875,0,0-17.75,2.875,0,0-12.375-2.875,0,0-3.5-3.4688,0,0-2.875z"/>
  <rect id="rect3218-7-5-2" style="enable-background:accumulate;color:#000000;" height="6.1255" width="101.25" y="545.44" x="767.31"/>
  <rect id="rect3218-7-5-0-2" style="enable-background:accumulate;color:#000000;" height="6.1255" width="303.75" y="553.88" x="463.56"/>
  <rect id="rect3218-5-8-8-48" style="enable-background:accumulate;color:#000000;" transform="matrix(0,-1,1,0,0,0)" height="6.1255" width="8.4375" y="767.31" x="-560"/>
  <path id="rect5621-2-2-5-0-57-9-4-2-8-9-5-2-9-9-3-7-7-4-0-0" style="enable-background:accumulate;color:#000000;" d="m767.31,477.94,0,8.4375-101.25,0,0-8.4375,101.25,0z"/>
 </g>
</svg>
