<?xml version="1.0" encoding="UTF-8" standalone="no"?>
<!-- Created with Inkscape (http://www.inkscape.org/) -->

<svg
   xmlns:dc="http://purl.org/dc/elements/1.1/"
   xmlns:cc="http://creativecommons.org/ns#"
   xmlns:rdf="http://www.w3.org/1999/02/22-rdf-syntax-ns#"
   xmlns:svg="http://www.w3.org/2000/svg"
   xmlns="http://www.w3.org/2000/svg"
   version="1.1"
   width="2104.7244"
   height="1052.36"
   id="svg2">
  <defs
     id="defs4">
    <symbol
       id="*Paper_Space0" />
    <symbol
       id="*Paper_Space" />
    <symbol
       id="*Model_Space" />
    <pattern
       height="8"
       width="8"
       patternUnits="userSpaceOnUse"
       y="0"
       x="0"
       id="Hatch">
      <path
         linecap="square"
         stroke="#000000"
         stroke-width="0.25"
         d="M8 4 l-4,4"
         id="path3033" />
      <path
         linecap="square"
         stroke="#000000"
         stroke-width="0.25"
         d="M6 2 l-4,4"
         id="path3035" />
      <path
         linecap="square"
         stroke="#000000"
         stroke-width="0.25"
         d="M4 0 l-4,4"
         id="path3037" />
    </pattern>
    <marker
       refX="0"
       refY="0"
       orient="auto"
       id="DistanceX"
       style="overflow:visible">
      <path
         d="M 3,-3 -3,3 M 0,-5 0,5"
         id="path3030"
         style="stroke:#000000;stroke-width:0.5" />
    </marker>
  </defs>
  <metadata
     id="metadata7">
    <rdf:RDF>
      <cc:Work
         rdf:about="">
        <dc:format>image/svg+xml</dc:format>
        <dc:type
           rdf:resource="http://purl.org/dc/dcmitype/StillImage" />
        <dc:title></dc:title>
      </cc:Work>
    </rdf:RDF>
  </metadata>
  <g
     transform="translate(0,-0.00205801)"
     id="layer1">
    <g
       transform="translate(1112.0664,-210.64844)"
       id="g4724"
       style="stroke:#00d9e5;stroke-opacity:1" />
    <g
       transform="translate(1112.0664,-210.64844)"
       id="g4726"
       style="stroke:#00d9e5;stroke-opacity:1" />
    <g
       transform="translate(1112.0664,-210.64844)"
       id="g4728"
       style="stroke:#00d9e5;stroke-opacity:1" />
    <g
       transform="translate(1112.0664,-210.64844)"
       id="g4730"
       style="stroke:#00d9e5;stroke-opacity:1" />
    <g
       transform="translate(1112.0664,-210.64844)"
       id="g4732"
       style="stroke:#00d9e5;stroke-opacity:1" />
    <g
       transform="translate(1112.0664,-210.64844)"
       id="g4734"
       style="stroke:#00d9e5;stroke-opacity:1" />
    <g
       transform="translate(1112.0664,-210.64844)"
       id="g4736"
       style="stroke:#00d9e5;stroke-opacity:1" />
    <g
       transform="translate(1112.0664,-210.64844)"
       id="g4738"
       style="stroke:#00d9e5;stroke-opacity:1" />
    <g
       transform="translate(1112.0664,-210.64844)"
       id="g4740"
       style="stroke:#00d9e5;stroke-opacity:1" />
    <g
       transform="translate(1112.0664,-210.64844)"
       id="g4742"
       style="stroke:#00d9e5;stroke-opacity:1" />
    <g
       transform="translate(1112.0664,-210.64844)"
       id="g4744"
       style="stroke:#00d9e5;stroke-opacity:1" />
    <g
       transform="translate(1112.0664,-210.64844)"
       id="g4746"
       style="stroke:#00d9e5;stroke-opacity:1" />
    <g
       transform="translate(1112.0664,-210.64844)"
       id="g4748"
       style="stroke:#00d9e5;stroke-opacity:1" />
    <g
       transform="translate(1112.0664,-210.64844)"
       id="g4750"
       style="stroke:#00d9e5;stroke-opacity:1" />
    <g
       transform="translate(1112.0664,-210.64844)"
       id="g4752"
       style="stroke:#00d9e5;stroke-opacity:1" />
    <g
       transform="translate(1112.0664,-210.64844)"
       id="g4754"
       style="stroke:#00d9e5;stroke-opacity:1" />
    <g
       transform="translate(1112.0664,-210.64844)"
       id="g4756"
       style="stroke:#00d9e5;stroke-opacity:1" />
    <g
       transform="translate(1112.0664,-210.64844)"
       id="g4758"
       style="stroke:#00d9e5;stroke-opacity:1" />
    <g
       transform="translate(1112.0664,-210.64844)"
       id="g4760"
       style="stroke:#00d9e5;stroke-opacity:1" />
    <g
       transform="translate(1112.0664,-210.64844)"
       id="g4762"
       style="stroke:#00d9e5;stroke-opacity:1" />
    <g
       transform="translate(1112.0664,-210.64844)"
       id="g4764"
       style="stroke:#00d9e5;stroke-opacity:1" />
    <g
       transform="translate(1112.0664,-210.64844)"
       id="g4766"
       style="stroke:#00d9e5;stroke-opacity:1" />
    <g
       transform="translate(1112.0664,-210.64844)"
       id="g4768"
       style="stroke:#00d9e5;stroke-opacity:1" />
    <g
       transform="translate(1112.0664,-210.64844)"
       id="g4770"
       style="stroke:#00d9e5;stroke-opacity:1" />
    <path
       d="m 1201.3199,283.87883 0,67.5 67.5,0 0,-67.5 -67.5,0 z m 12.4688,6.125 12.4062,0 0,2.875 17.75,0 0,-2.875 12.375,0 0,2.875 3.5,0 0,3.5 2.875,0 0,12.375 -2.875,0 0,17.75 2.875,0 0,12.40625 -2.875,0 0,3.46875 -3.5,0 0,2.875 -12.375,0 0,-2.875 -17.75,0 0,2.875 -12.4062,0 0,-2.875 -3.4688,0 0,-3.46875 -2.875,0 0,-12.40625 2.875,0 0,-17.75 -2.875,0 0,-12.375 2.875,0 0,-3.5 3.4688,0 0,-2.875 z"
       id="rect5621-2-2-5-0-57-9-4-2-8-9-79-04"
       style="color:#000000;fill:#414141;fill-opacity:1;fill-rule:nonzero;stroke:none;stroke-width:0;marker:none;visibility:visible;display:inline;overflow:visible;enable-background:accumulate" />
    <path
       d="m 1201.3199,351.37883 0,67.5 67.5,0 0,-67.5 -67.5,0 z m 12.4688,6.125 12.4062,0 0,2.875 17.75,0 0,-2.875 12.375,0 0,2.875 3.5,0 0,3.5 2.875,0 0,12.375 -2.875,0 0,17.75 2.875,0 0,12.40625 -2.875,0 0,3.46875 -3.5,0 0,2.875 -12.375,0 0,-2.875 -17.75,0 0,2.875 -12.4062,0 0,-2.875 -3.4688,0 0,-3.46875 -2.875,0 0,-12.40625 2.875,0 0,-17.75 -2.875,0 0,-12.375 2.875,0 0,-3.5 3.4688,0 0,-2.875 z"
       id="rect5621-2-2-5-0-57-9-4-2-8-9-4-8"
       style="color:#000000;fill:#414141;fill-opacity:1;fill-rule:nonzero;stroke:none;stroke-width:0;marker:none;visibility:visible;display:inline;overflow:visible;enable-background:accumulate" />
    <path
       d="m 1201.3199,418.87883 0,67.5 67.5,0 0,-67.5 -67.5,0 z m 12.4688,6.125 12.4062,0 0,2.875 17.75,0 0,-2.875 12.375,0 0,2.875 3.5,0 0,3.5 2.875,0 0,12.375 -2.875,0 0,17.75 2.875,0 0,12.40625 -2.875,0 0,3.46875 -3.5,0 0,2.875 -12.375,0 0,-2.875 -17.75,0 0,2.875 -12.4062,0 0,-2.875 -3.4688,0 0,-3.46875 -2.875,0 0,-12.40625 2.875,0 0,-17.75 -2.875,0 0,-12.375 2.875,0 0,-3.5 3.4688,0 0,-2.875 z"
       id="rect5621-2-2-5-0-57-9-4-2-8-9-5-32"
       style="color:#000000;fill:#414141;fill-opacity:1;fill-rule:nonzero;stroke:none;stroke-width:0;marker:none;visibility:visible;display:inline;overflow:visible;enable-background:accumulate" />
    <path
       d="m 1268.8199,275.44134 0,67.5 67.5,0 0,-67.5 -67.5,0 z m 12.4688,6.125 12.4062,0 0,2.875 17.75,0 0,-2.875 12.375,0 0,2.875 3.5,0 0,3.5 2.875,0 0,12.375 -2.875,0 0,17.75 2.875,0 0,12.40625 -2.875,0 0,3.46875 -3.5,0 0,2.875 -12.375,0 0,-2.875 -17.75,0 0,2.875 -12.4062,0 0,-2.875 -3.4688,0 0,-3.46875 -2.875,0 0,-12.40625 2.875,0 0,-17.75 -2.875,0 0,-12.375 2.875,0 0,-3.5 3.4688,0 0,-2.875 z"
       id="rect5621-2-2-5-0-57-9-4-2-8-9-79-7-9"
       style="color:#000000;fill:#414141;fill-opacity:1;fill-rule:nonzero;stroke:none;stroke-width:0;marker:none;visibility:visible;display:inline;overflow:visible;enable-background:accumulate" />
    <path
       d="m 1268.8199,342.94134 0,67.5 67.5,0 0,-67.5 -67.5,0 z m 12.4688,6.125 12.4062,0 0,2.875 17.75,0 0,-2.875 12.375,0 0,2.875 3.5,0 0,3.5 2.875,0 0,12.375 -2.875,0 0,17.75 2.875,0 0,12.40625 -2.875,0 0,3.46875 -3.5,0 0,2.875 -12.375,0 0,-2.875 -17.75,0 0,2.875 -12.4062,0 0,-2.875 -3.4688,0 0,-3.46875 -2.875,0 0,-12.40625 2.875,0 0,-17.75 -2.875,0 0,-12.375 2.875,0 0,-3.5 3.4688,0 0,-2.875 z"
       id="rect5621-2-2-5-0-57-9-4-2-8-9-4-2-0"
       style="color:#000000;fill:#414141;fill-opacity:1;fill-rule:nonzero;stroke:none;stroke-width:0;marker:none;visibility:visible;display:inline;overflow:visible;enable-background:accumulate" />
    <path
       d="m 1268.8199,410.44134 0,67.5 67.5,0 0,-67.5 -67.5,0 z m 12.4688,6.125 12.4062,0 0,2.875 17.75,0 0,-2.875 12.375,0 0,2.875 3.5,0 0,3.5 2.875,0 0,12.375 -2.875,0 0,17.75 2.875,0 0,12.40625 -2.875,0 0,3.46875 -3.5,0 0,2.875 -12.375,0 0,-2.875 -17.75,0 0,2.875 -12.4062,0 0,-2.875 -3.4688,0 0,-3.46875 -2.875,0 0,-12.40625 2.875,0 0,-17.75 -2.875,0 0,-12.375 2.875,0 0,-3.5 3.4688,0 0,-2.875 z"
       id="rect5621-2-2-5-0-57-9-4-2-8-9-5-2-9"
       style="color:#000000;fill:#414141;fill-opacity:1;fill-rule:nonzero;stroke:none;stroke-width:0;marker:none;visibility:visible;display:inline;overflow:visible;enable-background:accumulate" />
    <path
       d="m 1336.3199,258.56635 0,67.5 67.5,0 0,-67.5 -67.5,0 z m 12.4688,6.125 12.4062,0 0,2.875 17.75,0 0,-2.875 12.375,0 0,2.875 3.5,0 0,3.5 2.875,0 0,12.375 -2.875,0 0,17.75 2.875,0 0,12.40625 -2.875,0 0,3.46875 -3.5,0 0,2.875 -12.375,0 0,-2.875 -17.75,0 0,2.875 -12.4062,0 0,-2.875 -3.4688,0 0,-3.46875 -2.875,0 0,-12.40625 2.875,0 0,-17.75 -2.875,0 0,-12.375 2.875,0 0,-3.5 3.4688,0 0,-2.875 z"
       id="rect5621-2-2-5-0-57-9-4-2-8-9-79-74-2"
       style="color:#000000;fill:#414141;fill-opacity:1;fill-rule:nonzero;stroke:none;stroke-width:0;marker:none;visibility:visible;display:inline;overflow:visible;enable-background:accumulate" />
    <path
       d="m 1336.3199,326.06635 0,67.5 67.5,0 0,-67.5 -67.5,0 z m 12.4688,6.125 12.4062,0 0,2.875 17.75,0 0,-2.875 12.375,0 0,2.875 3.5,0 0,3.5 2.875,0 0,12.375 -2.875,0 0,17.75 2.875,0 0,12.40625 -2.875,0 0,3.46875 -3.5,0 0,2.875 -12.375,0 0,-2.875 -17.75,0 0,2.875 -12.4062,0 0,-2.875 -3.4688,0 0,-3.46875 -2.875,0 0,-12.40625 2.875,0 0,-17.75 -2.875,0 0,-12.375 2.875,0 0,-3.5 3.4688,0 0,-2.875 z"
       id="rect5621-2-2-5-0-57-9-4-2-8-9-4-9-6"
       style="color:#000000;fill:#414141;fill-opacity:1;fill-rule:nonzero;stroke:none;stroke-width:0;marker:none;visibility:visible;display:inline;overflow:visible;enable-background:accumulate" />
    <path
       d="m 1336.3199,393.56635 0,67.5 67.5,0 0,-67.5 -67.5,0 z m 12.4688,6.125 12.4062,0 0,2.875 17.75,0 0,-2.875 12.375,0 0,2.875 3.5,0 0,3.5 2.875,0 0,12.375 -2.875,0 0,17.75 2.875,0 0,12.40625 -2.875,0 0,3.46875 -3.5,0 0,2.875 -12.375,0 0,-2.875 -17.75,0 0,2.875 -12.4062,0 0,-2.875 -3.4688,0 0,-3.46875 -2.875,0 0,-12.40625 2.875,0 0,-17.75 -2.875,0 0,-12.375 2.875,0 0,-3.5 3.4688,0 0,-2.875 z"
       id="rect5621-2-2-5-0-57-9-4-2-8-9-5-3-0"
       style="color:#000000;fill:#414141;fill-opacity:1;fill-rule:nonzero;stroke:none;stroke-width:0;marker:none;visibility:visible;display:inline;overflow:visible;enable-background:accumulate" />
    <path
       d="m 1403.8199,267.00384 0,67.5 67.5,0 0,-67.5 -67.5,0 z m 12.4688,6.125 12.4062,0 0,2.875 17.75,0 0,-2.875 12.375,0 0,2.875 3.5,0 0,3.5 2.875,0 0,12.375 -2.875,0 0,17.75 2.875,0 0,12.40625 -2.875,0 0,3.46875 -3.5,0 0,2.875 -12.375,0 0,-2.875 -17.75,0 0,2.875 -12.4062,0 0,-2.875 -3.4688,0 0,-3.46875 -2.875,0 0,-12.40625 2.875,0 0,-17.75 -2.875,0 0,-12.375 2.875,0 0,-3.5 3.4688,0 0,-2.875 z"
       id="rect5621-2-2-5-0-57-9-4-2-8-9-79-2-4"
       style="color:#000000;fill:#414141;fill-opacity:1;fill-rule:nonzero;stroke:none;stroke-width:0;marker:none;visibility:visible;display:inline;overflow:visible;enable-background:accumulate" />
    <path
       d="m 1403.8199,334.50384 0,67.5 67.5,0 0,-67.5 -67.5,0 z m 12.4688,6.125 12.4062,0 0,2.875 17.75,0 0,-2.875 12.375,0 0,2.875 3.5,0 0,3.5 2.875,0 0,12.375 -2.875,0 0,17.75 2.875,0 0,12.40625 -2.875,0 0,3.46875 -3.5,0 0,2.875 -12.375,0 0,-2.875 -17.75,0 0,2.875 -12.4062,0 0,-2.875 -3.4688,0 0,-3.46875 -2.875,0 0,-12.40625 2.875,0 0,-17.75 -2.875,0 0,-12.375 2.875,0 0,-3.5 3.4688,0 0,-2.875 z"
       id="rect5621-2-2-5-0-57-9-4-2-8-9-4-0-2"
       style="color:#000000;fill:#414141;fill-opacity:1;fill-rule:nonzero;stroke:none;stroke-width:0;marker:none;visibility:visible;display:inline;overflow:visible;enable-background:accumulate" />
    <path
       d="m 1403.8199,402.00384 0,67.5 67.5,0 0,-67.5 -67.5,0 z m 12.4688,6.125 12.4062,0 0,2.875 17.75,0 0,-2.875 12.375,0 0,2.875 3.5,0 0,3.5 2.875,0 0,12.375 -2.875,0 0,17.75 2.875,0 0,12.40625 -2.875,0 0,3.46875 -3.5,0 0,2.875 -12.375,0 0,-2.875 -17.75,0 0,2.875 -12.4062,0 0,-2.875 -3.4688,0 0,-3.46875 -2.875,0 0,-12.40625 2.875,0 0,-17.75 -2.875,0 0,-12.375 2.875,0 0,-3.5 3.4688,0 0,-2.875 z"
       id="rect5621-2-2-5-0-57-9-4-2-8-9-5-5-3"
       style="color:#000000;fill:#414141;fill-opacity:1;fill-rule:nonzero;stroke:none;stroke-width:0;marker:none;visibility:visible;display:inline;overflow:visible;enable-background:accumulate" />
    <path
       d="m 1471.3199,283.87884 0,67.5 67.5,0 0,-67.5 -67.5,0 z m 12.4688,6.125 12.4062,0 0,2.875 17.75,0 0,-2.875 12.375,0 0,2.875 3.5,0 0,3.5 2.875,0 0,12.375 -2.875,0 0,17.75 2.875,0 0,12.40625 -2.875,0 0,3.46875 -3.5,0 0,2.875 -12.375,0 0,-2.875 -17.75,0 0,2.875 -12.4062,0 0,-2.875 -3.4688,0 0,-3.46875 -2.875,0 0,-12.40625 2.875,0 0,-17.75 -2.875,0 0,-12.375 2.875,0 0,-3.5 3.4688,0 0,-2.875 z"
       id="rect5621-2-2-5-0-57-9-4-2-8-9-79-7-7-55"
       style="color:#000000;fill:#414141;fill-opacity:1;fill-rule:nonzero;stroke:none;stroke-width:0;marker:none;visibility:visible;display:inline;overflow:visible;enable-background:accumulate" />
    <path
       d="m 1471.3199,351.37884 0,67.5 67.5,0 0,-67.5 -67.5,0 z m 12.4688,6.125 12.4062,0 0,2.875 17.75,0 0,-2.875 12.375,0 0,2.875 3.5,0 0,3.5 2.875,0 0,12.375 -2.875,0 0,17.75 2.875,0 0,12.40625 -2.875,0 0,3.46875 -3.5,0 0,2.875 -12.375,0 0,-2.875 -17.75,0 0,2.875 -12.4062,0 0,-2.875 -3.4688,0 0,-3.46875 -2.875,0 0,-12.40625 2.875,0 0,-17.75 -2.875,0 0,-12.375 2.875,0 0,-3.5 3.4688,0 0,-2.875 z"
       id="rect5621-2-2-5-0-57-9-4-2-8-9-4-2-1-4"
       style="color:#000000;fill:#414141;fill-opacity:1;fill-rule:nonzero;stroke:none;stroke-width:0;marker:none;visibility:visible;display:inline;overflow:visible;enable-background:accumulate" />
    <path
       d="m 1471.3199,418.87884 0,67.5 67.5,0 0,-67.5 -67.5,0 z m 12.4688,6.125 12.4062,0 0,2.875 17.75,0 0,-2.875 12.375,0 0,2.875 3.5,0 0,3.5 2.875,0 0,12.375 -2.875,0 0,17.75 2.875,0 0,12.40625 -2.875,0 0,3.46875 -3.5,0 0,2.875 -12.375,0 0,-2.875 -17.75,0 0,2.875 -12.4062,0 0,-2.875 -3.4688,0 0,-3.46875 -2.875,0 0,-12.40625 2.875,0 0,-17.75 -2.875,0 0,-12.375 2.875,0 0,-3.5 3.4688,0 0,-2.875 z"
       id="rect5621-2-2-5-0-57-9-4-2-8-9-5-2-6-5"
       style="color:#000000;fill:#414141;fill-opacity:1;fill-rule:nonzero;stroke:none;stroke-width:0;marker:none;visibility:visible;display:inline;overflow:visible;enable-background:accumulate" />
    <path
       d="m 1538.8199,283.87884 0,67.5 67.5,0 0,-67.5 -67.5,0 z m 12.4688,6.125 12.4062,0 0,2.875 17.75,0 0,-2.875 12.375,0 0,2.875 3.5,0 0,3.5 2.875,0 0,12.375 -2.875,0 0,17.75 2.875,0 0,12.40625 -2.875,0 0,3.46875 -3.5,0 0,2.875 -12.375,0 0,-2.875 -17.75,0 0,2.875 -12.4062,0 0,-2.875 -3.4688,0 0,-3.46875 -2.875,0 0,-12.40625 2.875,0 0,-17.75 -2.875,0 0,-12.375 2.875,0 0,-3.5 3.4688,0 0,-2.875 z"
       id="rect5621-2-2-5-0-57-9-4-2-8-9-79-74-4-9"
       style="color:#000000;fill:#414141;fill-opacity:1;fill-rule:nonzero;stroke:none;stroke-width:0;marker:none;visibility:visible;display:inline;overflow:visible;enable-background:accumulate" />
    <path
       d="m 1538.8199,351.37884 0,67.5 67.5,0 0,-67.5 -67.5,0 z m 12.4688,6.125 12.4062,0 0,2.875 17.75,0 0,-2.875 12.375,0 0,2.875 3.5,0 0,3.5 2.875,0 0,12.375 -2.875,0 0,17.75 2.875,0 0,12.40625 -2.875,0 0,3.46875 -3.5,0 0,2.875 -12.375,0 0,-2.875 -17.75,0 0,2.875 -12.4062,0 0,-2.875 -3.4688,0 0,-3.46875 -2.875,0 0,-12.40625 2.875,0 0,-17.75 -2.875,0 0,-12.375 2.875,0 0,-3.5 3.4688,0 0,-2.875 z"
       id="rect5621-2-2-5-0-57-9-4-2-8-9-4-9-7-6"
       style="color:#000000;fill:#414141;fill-opacity:1;fill-rule:nonzero;stroke:none;stroke-width:0;marker:none;visibility:visible;display:inline;overflow:visible;enable-background:accumulate" />
    <path
       d="m 1538.8199,418.87884 0,67.5 67.5,0 0,-67.5 -67.5,0 z m 12.4688,6.125 12.4062,0 0,2.875 17.75,0 0,-2.875 12.375,0 0,2.875 3.5,0 0,3.5 2.875,0 0,12.375 -2.875,0 0,17.75 2.875,0 0,12.40625 -2.875,0 0,3.46875 -3.5,0 0,2.875 -12.375,0 0,-2.875 -17.75,0 0,2.875 -12.4062,0 0,-2.875 -3.4688,0 0,-3.46875 -2.875,0 0,-12.40625 2.875,0 0,-17.75 -2.875,0 0,-12.375 2.875,0 0,-3.5 3.4688,0 0,-2.875 z"
       id="rect5621-2-2-5-0-57-9-4-2-8-9-5-3-3-4"
       style="color:#000000;fill:#414141;fill-opacity:1;fill-rule:nonzero;stroke:none;stroke-width:0;marker:none;visibility:visible;display:inline;overflow:visible;enable-background:accumulate" />
    <path
       d="m 1606.3199,283.87884 0,67.5 67.5,0 0,-67.5 -67.5,0 z m 12.4688,6.125 12.4062,0 0,2.875 17.75,0 0,-2.875 12.375,0 0,2.875 3.5,0 0,3.5 2.875,0 0,12.375 -2.875,0 0,17.75 2.875,0 0,12.40625 -2.875,0 0,3.46875 -3.5,0 0,2.875 -12.375,0 0,-2.875 -17.75,0 0,2.875 -12.4062,0 0,-2.875 -3.4688,0 0,-3.46875 -2.875,0 0,-12.40625 2.875,0 0,-17.75 -2.875,0 0,-12.375 2.875,0 0,-3.5 3.4688,0 0,-2.875 z"
       id="rect5621-2-2-5-0-57-9-4-2-8-9-1-7"
       style="color:#000000;fill:#414141;fill-opacity:1;fill-rule:nonzero;stroke:none;stroke-width:0;marker:none;visibility:visible;display:inline;overflow:visible;enable-background:accumulate" />
    <path
       d="m 1201.3199,486.37883 0,67.5 0,67.50001 6,0 55.5,0 6,0 0,-67.50001 0,-67.5 -67.5,0 z m 11.8125,19.34375 49.5,0.125 -0.031,11.6875 -49.5,-0.0937 0.031,-11.71875 z m 0.6562,20.53125 12.4063,0 0,2.875 17.75,0 0,-2.875 12.375,0 0,2.875 3.5,0 0,3.5 2.875,0 0,12.375 -2.875,0 0,17.75 2.875,0 0,12.40625 -2.875,0 0,3.46875 -3.5,0 0,2.875 -12.375,0 0,-2.875 -17.75,0 0,2.875 -12.4063,0 0,-2.875 -3.4687,0 0,-3.46875 -2.875,0 0,-12.40625 2.875,0 0,-17.75 -2.875,0 0,-12.375 2.875,0 0,-3.5 3.4687,0 0,-2.875 z m -0.8437,64.09376 49.5,0.0937 -0.031,11.6875 -49.5,-0.0937 0.031,-11.6875 z"
       id="rect5621-2-2-5-0-57-9-4-2-8-9-8-5-3"
       style="color:#000000;fill:#414141;fill-opacity:1;fill-rule:nonzero;stroke:none;stroke-width:0;marker:none;visibility:visible;display:inline;overflow:visible;enable-background:accumulate" />
    <path
       d="m 1133.8199,486.37883 0,67.5 0,67.5 6,0 55.5,0 6,0 0,-67.5 0,-67.5 -67.5,0 z m 11.8125,19.34375 49.5,0.125 -0.031,11.6875 -49.5,-0.0937 0.031,-11.71875 z m 0.6562,20.53125 12.4063,0 0,2.875 17.75,0 0,-2.875 12.375,0 0,2.875 3.5,0 0,3.5 2.875,0 0,12.375 -2.875,0 0,17.75 2.875,0 0,12.40625 -2.875,0 0,3.46875 -3.5,0 0,2.875 -12.375,0 0,-2.875 -17.75,0 0,2.875 -12.4063,0 0,-2.875 -3.4687,0 0,-3.46875 -2.875,0 0,-12.40625 2.875,0 0,-17.75 -2.875,0 0,-12.375 2.875,0 0,-3.5 3.4687,0 0,-2.875 z m -0.8437,64.09375 49.5,0.0937 -0.031,11.6875 -49.5,-0.0937 0.031,-11.6875 z"
       id="rect5621-2-2-5-0-57-9-4-2-8-9-8-8-9"
       style="color:#000000;fill:#414141;fill-opacity:1;fill-rule:nonzero;stroke:none;stroke-width:0;marker:none;visibility:visible;display:inline;overflow:visible;enable-background:accumulate" />
    <path
       d="m 1606.3199,486.37884 -67.5,0 -67.5,0 0,6 0,55.5 0,6 67.5,0 67.5,0 0,-67.5 z m -19.3437,11.8125 -0.125,49.5 -11.6875,-0.0312 0.094,-49.5 11.7188,0.0312 z m -20.5313,0.65625 0,12.40625 -2.875,0 0,17.75 2.875,0 0,12.375 -2.875,0 0,3.5 -3.5,0 0,2.875 -12.375,0 0,-2.875 -17.75,0 0,2.875 -12.4062,0 0,-2.875 -3.4688,0 0,-3.5 -2.875,0 0,-12.375 2.875,0 0,-17.75 -2.875,0 0,-12.40625 2.875,0 0,-3.46875 3.4688,0 0,-2.875 12.4062,0 0,2.875 17.75,0 0,-2.875 12.375,0 0,2.875 3.5,0 0,3.46875 2.875,0 z m -64.0937,-0.84375 -0.094,49.5 -11.6875,-0.0312 0.094,-49.5 11.6875,0.0312 z"
       id="rect5621-2-2-5-0-57-9-4-2-8-9-8-1-6"
       style="color:#000000;fill:#414141;fill-opacity:1;fill-rule:nonzero;stroke:none;stroke-width:0;marker:none;visibility:visible;display:inline;overflow:visible;enable-background:accumulate" />
    <path
       d="m 1268.8199,477.94134 0,67.5 67.5,0 33.75,0 0,-67.5 -33.75,0 -67.5,0 z m 29.3438,6.125 12.4062,0 0,2.875 17.75,0 0,-2.875 12.375,0 0,2.875 3.5,0 0,3.5 2.875,0 0,12.375 -2.875,0 0,17.75 2.875,0 0,12.40625 -2.875,0 0,3.46875 -3.5,0 0,2.875 -12.375,0 0,-2.875 -17.75,0 0,2.875 -12.4062,0 0,-2.875 -3.4688,0 0,-3.46875 -2.875,0 0,-12.40625 2.875,0 0,-17.75 -2.875,0 0,-12.375 2.875,0 0,-3.5 3.4688,0 0,-2.875 z"
       id="rect7292-1-2-3"
       style="color:#000000;fill:#414141;fill-opacity:1;fill-rule:nonzero;stroke:none;stroke-width:0;marker:none;visibility:visible;display:inline;overflow:visible;enable-background:accumulate" />
    <path
       d="m 1370.0699,486.37883 0,67.5 67.5,0 33.75,0 0,-67.5 -33.75,0 -67.5,0 z m 29.3438,6.125 12.4062,0 0,2.875 17.75,0 0,-2.875 12.375,0 0,2.875 3.5,0 0,3.5 2.875,0 0,12.375 -2.875,0 0,17.75 2.875,0 0,12.40625 -2.875,0 0,3.46875 -3.5,0 0,2.875 -12.375,0 0,-2.875 -17.75,0 0,2.875 -12.4062,0 0,-2.875 -3.4688,0 0,-3.46875 -2.875,0 0,-12.40625 2.875,0 0,-17.75 -2.875,0 0,-12.375 2.875,0 0,-3.5 3.4688,0 0,-2.875 z"
       id="rect7292-1-2-6-8"
       style="color:#000000;fill:#414141;fill-opacity:1;fill-rule:nonzero;stroke:none;stroke-width:0;marker:none;visibility:visible;display:inline;overflow:visible;enable-background:accumulate" />
    <path
       d="m 1201.3199,385.12883 -67.5,0 0,67.5 0,33.75 67.5,0 0,-33.75 0,-67.5 z m -6.125,29.34375 0,12.40625 -2.875,0 0,17.75 2.875,0 0,12.375 -2.875,0 0,3.5 -3.5,0 0,2.875 -12.375,0 0,-2.875 -17.75,0 0,2.875 -12.4062,0 0,-2.875 -3.4688,0 0,-3.5 -2.875,0 0,-12.375 2.875,0 0,-17.75 -2.875,0 0,-12.40625 2.875,0 0,-3.46875 3.4688,0 0,-2.875 12.4062,0 0,2.875 17.75,0 0,-2.875 12.375,0 0,2.875 3.5,0 0,3.46875 2.875,0 z"
       id="rect7292-1-2-0-0"
       style="color:#000000;fill:#414141;fill-opacity:1;fill-rule:nonzero;stroke:none;stroke-width:0;marker:none;visibility:visible;display:inline;overflow:visible;enable-background:accumulate" />
    <path
       d="m 1201.3199,283.87883 -67.5,0 0,67.5 0,33.75 67.5,0 0,-33.75 0,-67.5 z m -6.125,29.34375 0,12.40625 -2.875,0 0,17.75 2.875,0 0,12.375 -2.875,0 0,3.5 -3.5,0 0,2.875 -12.375,0 0,-2.875 -17.75,0 0,2.875 -12.4062,0 0,-2.875 -3.4688,0 0,-3.5 -2.875,0 0,-12.375 2.875,0 0,-17.75 -2.875,0 0,-12.40625 2.875,0 0,-3.46875 3.4688,0 0,-2.875 12.4062,0 0,2.875 17.75,0 0,-2.875 12.375,0 0,2.875 3.5,0 0,3.46875 2.875,0 z"
       id="rect7292-1-2-0-2-9"
       style="color:#000000;fill:#414141;fill-opacity:1;fill-rule:nonzero;stroke:none;stroke-width:0;marker:none;visibility:visible;display:inline;overflow:visible;enable-background:accumulate" />
    <path
       d="m 1268.8199,621.37883 -67.5,0 -67.5,0 0,6 0,55.5 0,6 67.5,0 67.5,0 0,-67.5 z m -19.3437,11.8125 -0.125,49.5 -11.6875,-0.0312 0.094,-49.5 11.7188,0.0312 z m -20.5313,0.65625 0,12.40625 -2.875,0 0,17.75 2.875,0 0,12.375 -2.875,0 0,3.5 -3.5,0 0,2.875 -12.375,0 0,-2.875 -17.75,0 0,2.875 -12.4062,0 0,-2.875 -3.4688,0 0,-3.5 -2.875,0 0,-12.375 2.875,0 0,-17.75 -2.875,0 0,-12.40625 2.875,0 0,-3.46875 3.4688,0 0,-2.875 12.4062,0 0,2.875 17.75,0 0,-2.875 12.375,0 0,2.875 3.5,0 0,3.46875 2.875,0 z m -64.0938,-0.84375 -0.094,49.5 -11.6875,-0.0312 0.094,-49.5 11.6875,0.0312 z"
       id="rect5621-2-2-5-0-57-9-4-2-8-9-8-1-36-4"
       style="color:#000000;fill:#414141;fill-opacity:1;fill-rule:nonzero;stroke:none;stroke-width:0;marker:none;visibility:visible;display:inline;overflow:visible;enable-background:accumulate" />
    <rect
       width="135"
       height="6.125536"
       x="-1268.8199"
       y="688.87885"
       transform="scale(-1,1)"
       id="rect3218-0"
       style="color:#000000;fill:#414141;fill-opacity:1;fill-rule:nonzero;stroke:none;stroke-width:0;marker:none;visibility:visible;display:inline;overflow:visible;enable-background:accumulate" />
    <rect
       width="101.24986"
       height="6.125536"
       x="-1370.0699"
       y="545.44135"
       transform="scale(-1,1)"
       id="rect3218-7-5"
       style="color:#000000;fill:#414141;fill-opacity:1;fill-rule:nonzero;stroke:none;stroke-width:0;marker:none;visibility:visible;display:inline;overflow:visible;enable-background:accumulate" />
    <rect
       width="202.50006"
       height="6.125536"
       x="-1673.8201"
       y="277.7533"
       transform="scale(-1,1)"
       id="rect3218-6-2"
       style="color:#000000;fill:#414141;fill-opacity:1;fill-rule:nonzero;stroke:none;stroke-width:0;marker:none;visibility:visible;display:inline;overflow:visible;enable-background:accumulate" />
    <rect
       width="143.43752"
       height="6.125536"
       x="-695.00439"
       y="-1274.9456"
       transform="matrix(0,-1,-1,0,0,0)"
       id="rect3218-5-8"
       style="color:#000000;fill:#414141;fill-opacity:1;fill-rule:nonzero;stroke:none;stroke-width:0;marker:none;visibility:visible;display:inline;overflow:visible;enable-background:accumulate" />
    <rect
       width="417.2511"
       height="6.125536"
       x="-695.00439"
       y="-1133.8199"
       transform="matrix(0,-1,-1,0,0,0)"
       id="rect3218-5-7-1"
       style="color:#000000;fill:#414141;fill-opacity:1;fill-rule:nonzero;stroke:none;stroke-width:0;marker:none;visibility:visible;display:inline;overflow:visible;enable-background:accumulate" />
    <rect
       width="282.2511"
       height="6.125536"
       x="-560.00439"
       y="-1679.9456"
       transform="matrix(0,-1,-1,0,0,0)"
       id="rect3218-5-2-4"
       style="color:#000000;fill:#414141;fill-opacity:1;fill-rule:nonzero;stroke:none;stroke-width:0;marker:none;visibility:visible;display:inline;overflow:visible;enable-background:accumulate" />
    <path
       d="m 1336.3199,461.06635 0,16.87499 67.5,0 0,-16.87499 -67.5,0 z"
       id="rect5621-2-2-5-0-57-9-4-2-8-9-5-2-9-9-3-7-74"
       style="color:#000000;fill:#414141;fill-opacity:1;fill-rule:nonzero;stroke:none;stroke-width:0;marker:none;visibility:visible;display:inline;overflow:visible;enable-background:accumulate" />
    <path
       d="m 1403.8199,469.50384 0,8.43749 67.5,0 0,-8.43749 -67.5,0 z"
       id="rect5621-2-2-5-0-57-9-4-2-8-9-5-2-9-9-3-7-7-4"
       style="color:#000000;fill:#414141;fill-opacity:1;fill-rule:nonzero;stroke:none;stroke-width:0;marker:none;visibility:visible;display:inline;overflow:visible;enable-background:accumulate" />
    <path
       d="m 1673.8199,452.62884 -67.5,0 0,67.5 0,33.75 67.5,0 0,-33.75 0,-67.5 z m -6.125,29.34375 0,12.40625 -2.875,0 0,17.75 2.875,0 0,12.375 -2.875,0 0,3.5 -3.5,0 0,2.875 -12.375,0 0,-2.875 -17.75,0 0,2.875 -12.4062,0 0,-2.875 -3.4688,0 0,-3.5 -2.875,0 0,-12.375 2.875,0 0,-17.75 -2.875,0 0,-12.40625 2.875,0 0,-3.46875 3.4688,0 0,-2.875 12.4062,0 0,2.875 17.75,0 0,-2.875 12.375,0 0,2.875 3.5,0 0,3.46875 2.875,0 z"
       id="rect7292-1-2-0-0-1"
       style="color:#000000;fill:#414141;fill-opacity:1;fill-rule:nonzero;stroke:none;stroke-width:0;marker:none;visibility:visible;display:inline;overflow:visible;enable-background:accumulate" />
    <path
       d="m 1673.8199,351.37884 -67.5,0 0,67.5 0,33.75 67.5,0 0,-33.75 0,-67.5 z m -6.125,29.34375 0,12.40625 -2.875,0 0,17.75 2.875,0 0,12.375 -2.875,0 0,3.5 -3.5,0 0,2.875 -12.375,0 0,-2.875 -17.75,0 0,2.875 -12.4062,0 0,-2.875 -3.4688,0 0,-3.5 -2.875,0 0,-12.375 2.875,0 0,-17.75 -2.875,0 0,-12.40625 2.875,0 0,-3.46875 3.4688,0 0,-2.875 12.4062,0 0,2.875 17.75,0 0,-2.875 12.375,0 0,2.875 3.5,0 0,3.46875 2.875,0 z"
       id="rect7292-1-2-0-2-9-7"
       style="color:#000000;fill:#414141;fill-opacity:1;fill-rule:nonzero;stroke:none;stroke-width:0;marker:none;visibility:visible;display:inline;overflow:visible;enable-background:accumulate" />
    <rect
       width="303.75006"
       height="6.125536"
       x="-1673.8201"
       y="553.87885"
       transform="scale(-1,1)"
       id="rect3218-7-5-0"
       style="color:#000000;fill:#414141;fill-opacity:1;fill-rule:nonzero;stroke:none;stroke-width:0;marker:none;visibility:visible;display:inline;overflow:visible;enable-background:accumulate" />
    <rect
       width="8.4374943"
       height="6.125536"
       x="-560.00439"
       y="-1370.0701"
       transform="matrix(0,-1,-1,0,0,0)"
       id="rect3218-5-8-8"
       style="color:#000000;fill:#414141;fill-opacity:1;fill-rule:nonzero;stroke:none;stroke-width:0;marker:none;visibility:visible;display:inline;overflow:visible;enable-background:accumulate" />
    <rect
       width="8.4375"
       height="6.125536"
       x="-277.7533"
       y="-1268.8199"
       transform="matrix(0,-1,-1,0,0,0)"
       id="rect3218-5-8-8-0"
       style="color:#000000;fill:#414141;fill-opacity:1;fill-rule:nonzero;stroke:none;stroke-width:0;marker:none;visibility:visible;display:inline;overflow:visible;enable-background:accumulate" />
    <rect
       width="16.875011"
       height="6.125536"
       x="-269.3158"
       y="-1336.3199"
       transform="matrix(0,-1,-1,0,0,0)"
       id="rect3218-5-8-8-4"
       style="color:#000000;fill:#414141;fill-opacity:1;fill-rule:nonzero;stroke:none;stroke-width:0;marker:none;visibility:visible;display:inline;overflow:visible;enable-background:accumulate" />
    <rect
       width="8.4374962"
       height="6.125536"
       x="-260.8783"
       y="-1409.9454"
       transform="matrix(0,-1,-1,0,0,0)"
       id="rect3218-5-8-8-2"
       style="color:#000000;fill:#414141;fill-opacity:1;fill-rule:nonzero;stroke:none;stroke-width:0;marker:none;visibility:visible;display:inline;overflow:visible;enable-background:accumulate" />
    <rect
       width="16.875"
       height="6.125536"
       x="-277.7533"
       y="-1477.4454"
       transform="matrix(0,-1,-1,0,0,0)"
       id="rect3218-5-8-8-6"
       style="color:#000000;fill:#414141;fill-opacity:1;fill-rule:nonzero;stroke:none;stroke-width:0;marker:none;visibility:visible;display:inline;overflow:visible;enable-background:accumulate" />
    <rect
       width="134.99994"
       height="6.125536"
       x="-1268.8199"
       y="277.7533"
       transform="scale(-1,1)"
       id="rect3218-6-2-9"
       style="color:#000000;fill:#414141;fill-opacity:1;fill-rule:nonzero;stroke:none;stroke-width:0;marker:none;visibility:visible;display:inline;overflow:visible;enable-background:accumulate" />
    <rect
       width="67.500038"
       height="6.125536"
       x="-1336.3199"
       y="269.3158"
       transform="scale(-1,1)"
       id="rect3218-6-2-0"
       style="color:#000000;fill:#414141;fill-opacity:1;fill-rule:nonzero;stroke:none;stroke-width:0;marker:none;visibility:visible;display:inline;overflow:visible;enable-background:accumulate" />
    <rect
       width="67.499992"
       height="6.125536"
       x="-1403.8199"
       y="252.4408"
       transform="scale(-1,1)"
       id="rect3218-6-2-6"
       style="color:#000000;fill:#414141;fill-opacity:1;fill-rule:nonzero;stroke:none;stroke-width:0;marker:none;visibility:visible;display:inline;overflow:visible;enable-background:accumulate" />
    <rect
       width="67.499947"
       height="6.125536"
       x="-1471.3199"
       y="260.8783"
       transform="scale(-1,1)"
       id="rect3218-6-2-7"
       style="color:#000000;fill:#414141;fill-opacity:1;fill-rule:nonzero;stroke:none;stroke-width:0;marker:none;visibility:visible;display:inline;overflow:visible;enable-background:accumulate" />
    <path
       d="m 936.06267,283.87882 0,67.5 -67.5,0 0,-67.5 67.5,0 z m -12.4688,6.125 -12.4062,0 0,2.875 -17.75,0 0,-2.875 -12.375,0 0,2.875 -3.5,0 0,3.5 -2.875,0 0,12.375 2.875,0 0,17.75 -2.875,0 0,12.40625 2.875,0 0,3.46875 3.5,0 0,2.875 12.375,0 0,-2.875 17.75,0 0,2.875 12.4062,0 0,-2.875 3.4688,0 0,-3.46875 2.875,0 0,-12.40625 -2.875,0 0,-17.75 2.875,0 0,-12.375 -2.875,0 0,-3.5 -3.4688,0 0,-2.875 z"
       id="rect5621-2-2-5-0-57-9-4-2-8-9-79-04-3"
       style="color:#000000;fill:#414141;fill-opacity:1;fill-rule:nonzero;stroke:none;stroke-width:0;marker:none;visibility:visible;display:inline;overflow:visible;enable-background:accumulate" />
    <path
       d="m 936.06267,351.37882 0,67.5 -67.5,0 0,-67.5 67.5,0 z m -12.4688,6.125 -12.4062,0 0,2.875 -17.75,0 0,-2.875 -12.375,0 0,2.875 -3.5,0 0,3.5 -2.875,0 0,12.375 2.875,0 0,17.75 -2.875,0 0,12.40625 2.875,0 0,3.46875 3.5,0 0,2.875 12.375,0 0,-2.875 17.75,0 0,2.875 12.4062,0 0,-2.875 3.4688,0 0,-3.46875 2.875,0 0,-12.40625 -2.875,0 0,-17.75 2.875,0 0,-12.375 -2.875,0 0,-3.5 -3.4688,0 0,-2.875 z"
       id="rect5621-2-2-5-0-57-9-4-2-8-9-4-8-2"
       style="color:#000000;fill:#414141;fill-opacity:1;fill-rule:nonzero;stroke:none;stroke-width:0;marker:none;visibility:visible;display:inline;overflow:visible;enable-background:accumulate" />
    <path
       d="m 936.06267,418.87882 0,67.5 -67.5,0 0,-67.5 67.5,0 z m -12.4688,6.125 -12.4062,0 0,2.875 -17.75,0 0,-2.875 -12.375,0 0,2.875 -3.5,0 0,3.5 -2.875,0 0,12.375 2.875,0 0,17.75 -2.875,0 0,12.40625 2.875,0 0,3.46875 3.5,0 0,2.875 12.375,0 0,-2.875 17.75,0 0,2.875 12.4062,0 0,-2.875 3.4688,0 0,-3.46875 2.875,0 0,-12.40625 -2.875,0 0,-17.75 2.875,0 0,-12.375 -2.875,0 0,-3.5 -3.4688,0 0,-2.875 z"
       id="rect5621-2-2-5-0-57-9-4-2-8-9-5-32-7"
       style="color:#000000;fill:#414141;fill-opacity:1;fill-rule:nonzero;stroke:none;stroke-width:0;marker:none;visibility:visible;display:inline;overflow:visible;enable-background:accumulate" />
    <path
       d="m 868.56267,275.44133 0,67.5 -67.5,0 0,-67.5 67.5,0 z m -12.4688,6.125 -12.4062,0 0,2.875 -17.75,0 0,-2.875 -12.375,0 0,2.875 -3.5,0 0,3.5 -2.875,0 0,12.375 2.875,0 0,17.75 -2.875,0 0,12.40625 2.875,0 0,3.46875 3.5,0 0,2.875 12.375,0 0,-2.875 17.75,0 0,2.875 12.4062,0 0,-2.875 3.4688,0 0,-3.46875 2.875,0 0,-12.40625 -2.875,0 0,-17.75 2.875,0 0,-12.375 -2.875,0 0,-3.5 -3.4688,0 0,-2.875 z"
       id="rect5621-2-2-5-0-57-9-4-2-8-9-79-7-9-9"
       style="color:#000000;fill:#414141;fill-opacity:1;fill-rule:nonzero;stroke:none;stroke-width:0;marker:none;visibility:visible;display:inline;overflow:visible;enable-background:accumulate" />
    <path
       d="m 868.56267,342.94133 0,67.5 -67.5,0 0,-67.5 67.5,0 z m -12.4688,6.125 -12.4062,0 0,2.875 -17.75,0 0,-2.875 -12.375,0 0,2.875 -3.5,0 0,3.5 -2.875,0 0,12.375 2.875,0 0,17.75 -2.875,0 0,12.40625 2.875,0 0,3.46875 3.5,0 0,2.875 12.375,0 0,-2.875 17.75,0 0,2.875 12.4062,0 0,-2.875 3.4688,0 0,-3.46875 2.875,0 0,-12.40625 -2.875,0 0,-17.75 2.875,0 0,-12.375 -2.875,0 0,-3.5 -3.4688,0 0,-2.875 z"
       id="rect5621-2-2-5-0-57-9-4-2-8-9-4-2-0-3"
       style="color:#000000;fill:#414141;fill-opacity:1;fill-rule:nonzero;stroke:none;stroke-width:0;marker:none;visibility:visible;display:inline;overflow:visible;enable-background:accumulate" />
    <path
       d="m 868.56267,410.44133 0,67.5 -67.5,0 0,-67.5 67.5,0 z m -12.4688,6.125 -12.4062,0 0,2.875 -17.75,0 0,-2.875 -12.375,0 0,2.875 -3.5,0 0,3.5 -2.875,0 0,12.375 2.875,0 0,17.75 -2.875,0 0,12.40625 2.875,0 0,3.46875 3.5,0 0,2.875 12.375,0 0,-2.875 17.75,0 0,2.875 12.4062,0 0,-2.875 3.4688,0 0,-3.46875 2.875,0 0,-12.40625 -2.875,0 0,-17.75 2.875,0 0,-12.375 -2.875,0 0,-3.5 -3.4688,0 0,-2.875 z"
       id="rect5621-2-2-5-0-57-9-4-2-8-9-5-2-9-5"
       style="color:#000000;fill:#414141;fill-opacity:1;fill-rule:nonzero;stroke:none;stroke-width:0;marker:none;visibility:visible;display:inline;overflow:visible;enable-background:accumulate" />
    <path
       d="m 801.06267,258.56634 0,67.5 -67.5,0 0,-67.5 67.5,0 z m -12.4688,6.125 -12.4062,0 0,2.875 -17.75,0 0,-2.875 -12.375,0 0,2.875 -3.5,0 0,3.5 -2.875,0 0,12.375 2.875,0 0,17.75 -2.875,0 0,12.40625 2.875,0 0,3.46875 3.5,0 0,2.875 12.375,0 0,-2.875 17.75,0 0,2.875 12.4062,0 0,-2.875 3.4688,0 0,-3.46875 2.875,0 0,-12.40625 -2.875,0 0,-17.75 2.875,0 0,-12.375 -2.875,0 0,-3.5 -3.4688,0 0,-2.875 z"
       id="rect5621-2-2-5-0-57-9-4-2-8-9-79-74-2-6"
       style="color:#000000;fill:#414141;fill-opacity:1;fill-rule:nonzero;stroke:none;stroke-width:0;marker:none;visibility:visible;display:inline;overflow:visible;enable-background:accumulate" />
    <path
       d="m 801.06267,326.06634 0,67.5 -67.5,0 0,-67.5 67.5,0 z m -12.4688,6.125 -12.4062,0 0,2.875 -17.75,0 0,-2.875 -12.375,0 0,2.875 -3.5,0 0,3.5 -2.875,0 0,12.375 2.875,0 0,17.75 -2.875,0 0,12.40625 2.875,0 0,3.46875 3.5,0 0,2.875 12.375,0 0,-2.875 17.75,0 0,2.875 12.4062,0 0,-2.875 3.4688,0 0,-3.46875 2.875,0 0,-12.40625 -2.875,0 0,-17.75 2.875,0 0,-12.375 -2.875,0 0,-3.5 -3.4688,0 0,-2.875 z"
       id="rect5621-2-2-5-0-57-9-4-2-8-9-4-9-6-1"
       style="color:#000000;fill:#414141;fill-opacity:1;fill-rule:nonzero;stroke:none;stroke-width:0;marker:none;visibility:visible;display:inline;overflow:visible;enable-background:accumulate" />
    <path
       d="m 801.06267,393.56634 0,67.5 -67.5,0 0,-67.5 67.5,0 z m -12.4688,6.125 -12.4062,0 0,2.875 -17.75,0 0,-2.875 -12.375,0 0,2.875 -3.5,0 0,3.5 -2.875,0 0,12.375 2.875,0 0,17.75 -2.875,0 0,12.40625 2.875,0 0,3.46875 3.5,0 0,2.875 12.375,0 0,-2.875 17.75,0 0,2.875 12.4062,0 0,-2.875 3.4688,0 0,-3.46875 2.875,0 0,-12.40625 -2.875,0 0,-17.75 2.875,0 0,-12.375 -2.875,0 0,-3.5 -3.4688,0 0,-2.875 z"
       id="rect5621-2-2-5-0-57-9-4-2-8-9-5-3-0-5"
       style="color:#000000;fill:#414141;fill-opacity:1;fill-rule:nonzero;stroke:none;stroke-width:0;marker:none;visibility:visible;display:inline;overflow:visible;enable-background:accumulate" />
    <path
       d="m 733.56267,267.00383 0,67.5 -67.5,0 0,-67.5 67.5,0 z m -12.4688,6.125 -12.4062,0 0,2.875 -17.75,0 0,-2.875 -12.375,0 0,2.875 -3.5,0 0,3.5 -2.875,0 0,12.375 2.875,0 0,17.75 -2.875,0 0,12.40625 2.875,0 0,3.46875 3.5,0 0,2.875 12.375,0 0,-2.875 17.75,0 0,2.875 12.4062,0 0,-2.875 3.4688,0 0,-3.46875 2.875,0 0,-12.40625 -2.875,0 0,-17.75 2.875,0 0,-12.375 -2.875,0 0,-3.5 -3.4688,0 0,-2.875 z"
       id="rect5621-2-2-5-0-57-9-4-2-8-9-79-2-4-8"
       style="color:#000000;fill:#414141;fill-opacity:1;fill-rule:nonzero;stroke:none;stroke-width:0;marker:none;visibility:visible;display:inline;overflow:visible;enable-background:accumulate" />
    <path
       d="m 733.56267,334.50383 0,67.5 -67.5,0 0,-67.5 67.5,0 z m -12.4688,6.125 -12.4062,0 0,2.875 -17.75,0 0,-2.875 -12.375,0 0,2.875 -3.5,0 0,3.5 -2.875,0 0,12.375 2.875,0 0,17.75 -2.875,0 0,12.40625 2.875,0 0,3.46875 3.5,0 0,2.875 12.375,0 0,-2.875 17.75,0 0,2.875 12.4062,0 0,-2.875 3.4688,0 0,-3.46875 2.875,0 0,-12.40625 -2.875,0 0,-17.75 2.875,0 0,-12.375 -2.875,0 0,-3.5 -3.4688,0 0,-2.875 z"
       id="rect5621-2-2-5-0-57-9-4-2-8-9-4-0-2-3"
       style="color:#000000;fill:#414141;fill-opacity:1;fill-rule:nonzero;stroke:none;stroke-width:0;marker:none;visibility:visible;display:inline;overflow:visible;enable-background:accumulate" />
    <path
       d="m 733.56267,402.00383 0,67.5 -67.5,0 0,-67.5 67.5,0 z m -12.4688,6.125 -12.4062,0 0,2.875 -17.75,0 0,-2.875 -12.375,0 0,2.875 -3.5,0 0,3.5 -2.875,0 0,12.375 2.875,0 0,17.75 -2.875,0 0,12.40625 2.875,0 0,3.46875 3.5,0 0,2.875 12.375,0 0,-2.875 17.75,0 0,2.875 12.4062,0 0,-2.875 3.4688,0 0,-3.46875 2.875,0 0,-12.40625 -2.875,0 0,-17.75 2.875,0 0,-12.375 -2.875,0 0,-3.5 -3.4688,0 0,-2.875 z"
       id="rect5621-2-2-5-0-57-9-4-2-8-9-5-5-3-7"
       style="color:#000000;fill:#414141;fill-opacity:1;fill-rule:nonzero;stroke:none;stroke-width:0;marker:none;visibility:visible;display:inline;overflow:visible;enable-background:accumulate" />
    <path
       d="m 666.06267,283.87883 0,67.5 -67.5,0 0,-67.5 67.5,0 z m -12.4688,6.125 -12.4062,0 0,2.875 -17.75,0 0,-2.875 -12.375,0 0,2.875 -3.5,0 0,3.5 -2.875,0 0,12.375 2.875,0 0,17.75 -2.875,0 0,12.40625 2.875,0 0,3.46875 3.5,0 0,2.875 12.375,0 0,-2.875 17.75,0 0,2.875 12.4062,0 0,-2.875 3.4688,0 0,-3.46875 2.875,0 0,-12.40625 -2.875,0 0,-17.75 2.875,0 0,-12.375 -2.875,0 0,-3.5 -3.4688,0 0,-2.875 z"
       id="rect5621-2-2-5-0-57-9-4-2-8-9-79-7-7-55-5"
       style="color:#000000;fill:#414141;fill-opacity:1;fill-rule:nonzero;stroke:none;stroke-width:0;marker:none;visibility:visible;display:inline;overflow:visible;enable-background:accumulate" />
    <path
       d="m 666.06267,351.37883 0,67.5 -67.5,0 0,-67.5 67.5,0 z m -12.4688,6.125 -12.4062,0 0,2.875 -17.75,0 0,-2.875 -12.375,0 0,2.875 -3.5,0 0,3.5 -2.875,0 0,12.375 2.875,0 0,17.75 -2.875,0 0,12.40625 2.875,0 0,3.46875 3.5,0 0,2.875 12.375,0 0,-2.875 17.75,0 0,2.875 12.4062,0 0,-2.875 3.4688,0 0,-3.46875 2.875,0 0,-12.40625 -2.875,0 0,-17.75 2.875,0 0,-12.375 -2.875,0 0,-3.5 -3.4688,0 0,-2.875 z"
       id="rect5621-2-2-5-0-57-9-4-2-8-9-4-2-1-4-0"
       style="color:#000000;fill:#414141;fill-opacity:1;fill-rule:nonzero;stroke:none;stroke-width:0;marker:none;visibility:visible;display:inline;overflow:visible;enable-background:accumulate" />
    <path
       d="m 666.06267,418.87883 0,67.5 -67.5,0 0,-67.5 67.5,0 z m -12.4688,6.125 -12.4062,0 0,2.875 -17.75,0 0,-2.875 -12.375,0 0,2.875 -3.5,0 0,3.5 -2.875,0 0,12.375 2.875,0 0,17.75 -2.875,0 0,12.40625 2.875,0 0,3.46875 3.5,0 0,2.875 12.375,0 0,-2.875 17.75,0 0,2.875 12.4062,0 0,-2.875 3.4688,0 0,-3.46875 2.875,0 0,-12.40625 -2.875,0 0,-17.75 2.875,0 0,-12.375 -2.875,0 0,-3.5 -3.4688,0 0,-2.875 z"
       id="rect5621-2-2-5-0-57-9-4-2-8-9-5-2-6-5-9"
       style="color:#000000;fill:#414141;fill-opacity:1;fill-rule:nonzero;stroke:none;stroke-width:0;marker:none;visibility:visible;display:inline;overflow:visible;enable-background:accumulate" />
    <path
       d="m 598.56267,283.87883 0,67.5 -67.5,0 0,-67.5 67.5,0 z m -12.4688,6.125 -12.4062,0 0,2.875 -17.75,0 0,-2.875 -12.375,0 0,2.875 -3.5,0 0,3.5 -2.875,0 0,12.375 2.875,0 0,17.75 -2.875,0 0,12.40625 2.875,0 0,3.46875 3.5,0 0,2.875 12.375,0 0,-2.875 17.75,0 0,2.875 12.4062,0 0,-2.875 3.4688,0 0,-3.46875 2.875,0 0,-12.40625 -2.875,0 0,-17.75 2.875,0 0,-12.375 -2.875,0 0,-3.5 -3.4688,0 0,-2.875 z"
       id="rect5621-2-2-5-0-57-9-4-2-8-9-79-74-4-9-0"
       style="color:#000000;fill:#414141;fill-opacity:1;fill-rule:nonzero;stroke:none;stroke-width:0;marker:none;visibility:visible;display:inline;overflow:visible;enable-background:accumulate" />
    <path
       d="m 598.56267,351.37883 0,67.5 -67.5,0 0,-67.5 67.5,0 z m -12.4688,6.125 -12.4062,0 0,2.875 -17.75,0 0,-2.875 -12.375,0 0,2.875 -3.5,0 0,3.5 -2.875,0 0,12.375 2.875,0 0,17.75 -2.875,0 0,12.40625 2.875,0 0,3.46875 3.5,0 0,2.875 12.375,0 0,-2.875 17.75,0 0,2.875 12.4062,0 0,-2.875 3.4688,0 0,-3.46875 2.875,0 0,-12.40625 -2.875,0 0,-17.75 2.875,0 0,-12.375 -2.875,0 0,-3.5 -3.4688,0 0,-2.875 z"
       id="rect5621-2-2-5-0-57-9-4-2-8-9-4-9-7-6-8"
       style="color:#000000;fill:#414141;fill-opacity:1;fill-rule:nonzero;stroke:none;stroke-width:0;marker:none;visibility:visible;display:inline;overflow:visible;enable-background:accumulate" />
    <path
       d="m 598.56267,418.87883 0,67.5 -67.5,0 0,-67.5 67.5,0 z m -12.4688,6.125 -12.4062,0 0,2.875 -17.75,0 0,-2.875 -12.375,0 0,2.875 -3.5,0 0,3.5 -2.875,0 0,12.375 2.875,0 0,17.75 -2.875,0 0,12.40625 2.875,0 0,3.46875 3.5,0 0,2.875 12.375,0 0,-2.875 17.75,0 0,2.875 12.4062,0 0,-2.875 3.4688,0 0,-3.46875 2.875,0 0,-12.40625 -2.875,0 0,-17.75 2.875,0 0,-12.375 -2.875,0 0,-3.5 -3.4688,0 0,-2.875 z"
       id="rect5621-2-2-5-0-57-9-4-2-8-9-5-3-3-4-2"
       style="color:#000000;fill:#414141;fill-opacity:1;fill-rule:nonzero;stroke:none;stroke-width:0;marker:none;visibility:visible;display:inline;overflow:visible;enable-background:accumulate" />
    <path
       d="m 531.06267,283.87883 0,67.5 -67.5,0 0,-67.5 67.5,0 z m -12.4688,6.125 -12.4062,0 0,2.875 -17.75,0 0,-2.875 -12.375,0 0,2.875 -3.5,0 0,3.5 -2.875,0 0,12.375 2.875,0 0,17.75 -2.875,0 0,12.40625 2.875,0 0,3.46875 3.5,0 0,2.875 12.375,0 0,-2.875 17.75,0 0,2.875 12.4062,0 0,-2.875 3.4688,0 0,-3.46875 2.875,0 0,-12.40625 -2.875,0 0,-17.75 2.875,0 0,-12.375 -2.875,0 0,-3.5 -3.4688,0 0,-2.875 z"
       id="rect5621-2-2-5-0-57-9-4-2-8-9-1-7-1"
       style="color:#000000;fill:#414141;fill-opacity:1;fill-rule:nonzero;stroke:none;stroke-width:0;marker:none;visibility:visible;display:inline;overflow:visible;enable-background:accumulate" />
    <path
       d="m 936.06267,486.37882 0,67.5 0,67.50001 -6,0 -55.5,0 -6,0 0,-67.50001 0,-67.5 67.5,0 z m -11.8125,19.34375 -49.5,0.125 0.031,11.6875 49.5,-0.0937 -0.031,-11.71875 z m -0.6562,20.53125 -12.4063,0 0,2.875 -17.75,0 0,-2.875 -12.375,0 0,2.875 -3.5,0 0,3.5 -2.875,0 0,12.375 2.875,0 0,17.75 -2.875,0 0,12.40625 2.875,0 0,3.46875 3.5,0 0,2.875 12.375,0 0,-2.875 17.75,0 0,2.875 12.4063,0 0,-2.875 3.4687,0 0,-3.46875 2.875,0 0,-12.40625 -2.875,0 0,-17.75 2.875,0 0,-12.375 -2.875,0 0,-3.5 -3.4687,0 0,-2.875 z m 0.8437,64.09376 -49.5,0.0937 0.031,11.6875 49.5,-0.0937 -0.031,-11.6875 z"
       id="rect5621-2-2-5-0-57-9-4-2-8-9-8-5-3-1"
       style="color:#000000;fill:#414141;fill-opacity:1;fill-rule:nonzero;stroke:none;stroke-width:0;marker:none;visibility:visible;display:inline;overflow:visible;enable-background:accumulate" />
    <path
       d="m 1003.5627,486.37882 0,67.5 0,67.5 -6.00003,0 -55.5,0 -6,0 0,-67.5 0,-67.5 67.50003,0 z m -11.81253,19.34375 -49.5,0.125 0.031,11.6875 49.5,-0.0937 -0.031,-11.71875 z m -0.6562,20.53125 -12.4063,0 0,2.875 -17.75,0 0,-2.875 -12.375,0 0,2.875 -3.5,0 0,3.5 -2.875,0 0,12.375 2.875,0 0,17.75 -2.875,0 0,12.40625 2.875,0 0,3.46875 3.5,0 0,2.875 12.375,0 0,-2.875 17.75,0 0,2.875 12.4063,0 0,-2.875 3.4687,0 0,-3.46875 2.875,0 0,-12.40625 -2.875,0 0,-17.75 2.875,0 0,-12.375 -2.875,0 0,-3.5 -3.4687,0 0,-2.875 z m 0.8437,64.09375 -49.5,0.0937 0.031,11.6875 49.5,-0.0937 -0.031,-11.6875 z"
       id="rect5621-2-2-5-0-57-9-4-2-8-9-8-8-9-3"
       style="color:#000000;fill:#414141;fill-opacity:1;fill-rule:nonzero;stroke:none;stroke-width:0;marker:none;visibility:visible;display:inline;overflow:visible;enable-background:accumulate" />
    <path
       d="m 531.06267,486.37883 67.5,0 67.5,0 0,6 0,55.5 0,6 -67.5,0 -67.5,0 0,-67.5 z m 19.3437,11.8125 0.125,49.5 11.6875,-0.0312 -0.094,-49.5 -11.7188,0.0312 z m 20.5313,0.65625 0,12.40625 2.875,0 0,17.75 -2.875,0 0,12.375 2.875,0 0,3.5 3.5,0 0,2.875 12.375,0 0,-2.875 17.75,0 0,2.875 12.4062,0 0,-2.875 3.4688,0 0,-3.5 2.875,0 0,-12.375 -2.875,0 0,-17.75 2.875,0 0,-12.40625 -2.875,0 0,-3.46875 -3.4688,0 0,-2.875 -12.4062,0 0,2.875 -17.75,0 0,-2.875 -12.375,0 0,2.875 -3.5,0 0,3.46875 -2.875,0 z m 64.0937,-0.84375 0.094,49.5 11.6875,-0.0312 -0.094,-49.5 -11.6875,0.0312 z"
       id="rect5621-2-2-5-0-57-9-4-2-8-9-8-1-6-3"
       style="color:#000000;fill:#414141;fill-opacity:1;fill-rule:nonzero;stroke:none;stroke-width:0;marker:none;visibility:visible;display:inline;overflow:visible;enable-background:accumulate" />
    <path
       d="m 868.56267,477.94133 0,67.5 -67.5,0 -33.75,0 0,-67.5 33.75,0 67.5,0 z m -29.3438,6.125 -12.4062,0 0,2.875 -17.75,0 0,-2.875 -12.375,0 0,2.875 -3.5,0 0,3.5 -2.875,0 0,12.375 2.875,0 0,17.75 -2.875,0 0,12.40625 2.875,0 0,3.46875 3.5,0 0,2.875 12.375,0 0,-2.875 17.75,0 0,2.875 12.4062,0 0,-2.875 3.4688,0 0,-3.46875 2.875,0 0,-12.40625 -2.875,0 0,-17.75 2.875,0 0,-12.375 -2.875,0 0,-3.5 -3.4688,0 0,-2.875 z"
       id="rect7292-1-2-3-9"
       style="color:#000000;fill:#414141;fill-opacity:1;fill-rule:nonzero;stroke:none;stroke-width:0;marker:none;visibility:visible;display:inline;overflow:visible;enable-background:accumulate" />
    <path
       d="m 936.06267,385.12882 67.50003,0 0,67.5 0,33.75 -67.50003,0 0,-33.75 0,-67.5 z m 6.125,29.34375 0,12.40625 2.875,0 0,17.75 -2.875,0 0,12.375 2.875,0 0,3.5 3.5,0 0,2.875 12.375,0 0,-2.875 17.75,0 0,2.875 12.4062,0 0,-2.875 3.4688,0 0,-3.5 2.875,0 0,-12.375 -2.875,0 0,-17.75 2.875,0 0,-12.40625 -2.875,0 0,-3.46875 -3.4688,0 0,-2.875 -12.4062,0 0,2.875 -17.75,0 0,-2.875 -12.375,0 0,2.875 -3.5,0 0,3.46875 -2.875,0 z"
       id="rect7292-1-2-0-0-3"
       style="color:#000000;fill:#414141;fill-opacity:1;fill-rule:nonzero;stroke:none;stroke-width:0;marker:none;visibility:visible;display:inline;overflow:visible;enable-background:accumulate" />
    <path
       d="m 936.06267,283.87882 67.50003,0 0,67.5 0,33.75 -67.50003,0 0,-33.75 0,-67.5 z m 6.125,29.34375 0,12.40625 2.875,0 0,17.75 -2.875,0 0,12.375 2.875,0 0,3.5 3.5,0 0,2.875 12.375,0 0,-2.875 17.75,0 0,2.875 12.4062,0 0,-2.875 3.4688,0 0,-3.5 2.875,0 0,-12.375 -2.875,0 0,-17.75 2.875,0 0,-12.40625 -2.875,0 0,-3.46875 -3.4688,0 0,-2.875 -12.4062,0 0,2.875 -17.75,0 0,-2.875 -12.375,0 0,2.875 -3.5,0 0,3.46875 -2.875,0 z"
       id="rect7292-1-2-0-2-9-1"
       style="color:#000000;fill:#414141;fill-opacity:1;fill-rule:nonzero;stroke:none;stroke-width:0;marker:none;visibility:visible;display:inline;overflow:visible;enable-background:accumulate" />
    <path
       d="m 868.56267,621.37882 67.5,0 67.50003,0 0,6 0,55.5 0,6 -67.50003,0 -67.5,0 0,-67.5 z m 19.3437,11.8125 0.125,49.5 11.6875,-0.0312 -0.094,-49.5 -11.7188,0.0312 z m 20.5313,0.65625 0,12.40625 2.875,0 0,17.75 -2.875,0 0,12.375 2.875,0 0,3.5 3.5,0 0,2.875 12.375,0 0,-2.875 17.75,0 0,2.875 12.4062,0 0,-2.875 3.4688,0 0,-3.5 2.875,0 0,-12.375 -2.875,0 0,-17.75 2.875,0 0,-12.40625 -2.875,0 0,-3.46875 -3.4688,0 0,-2.875 -12.4062,0 0,2.875 -17.75,0 0,-2.875 -12.375,0 0,2.875 -3.5,0 0,3.46875 -2.875,0 z m 64.0938,-0.84375 0.094,49.5 11.6875,-0.0312 -0.094,-49.5 -11.6875,0.0312 z"
       id="rect5621-2-2-5-0-57-9-4-2-8-9-8-1-36-4-4"
       style="color:#000000;fill:#414141;fill-opacity:1;fill-rule:nonzero;stroke:none;stroke-width:0;marker:none;visibility:visible;display:inline;overflow:visible;enable-background:accumulate" />
    <rect
       width="135"
       height="6.125536"
       x="868.56262"
       y="688.87885"
       id="rect3218-0-0"
       style="color:#000000;fill:#414141;fill-opacity:1;fill-rule:nonzero;stroke:none;stroke-width:0;marker:none;visibility:visible;display:inline;overflow:visible;enable-background:accumulate" />
    <rect
       width="202.50006"
       height="6.125536"
       x="463.5625"
       y="277.75327"
       id="rect3218-6-2-07"
       style="color:#000000;fill:#414141;fill-opacity:1;fill-rule:nonzero;stroke:none;stroke-width:0;marker:none;visibility:visible;display:inline;overflow:visible;enable-background:accumulate" />
    <rect
       width="143.43752"
       height="6.125536"
       x="-695.00439"
       y="862.43701"
       transform="matrix(0,-1,1,0,0,0)"
       id="rect3218-5-8-9"
       style="color:#000000;fill:#414141;fill-opacity:1;fill-rule:nonzero;stroke:none;stroke-width:0;marker:none;visibility:visible;display:inline;overflow:visible;enable-background:accumulate" />
    <rect
       width="417.2511"
       height="6.125536"
       x="-695.00439"
       y="1003.5626"
       transform="matrix(0,-1,1,0,0,0)"
       id="rect3218-5-7-1-4"
       style="color:#000000;fill:#414141;fill-opacity:1;fill-rule:nonzero;stroke:none;stroke-width:0;marker:none;visibility:visible;display:inline;overflow:visible;enable-background:accumulate" />
    <rect
       width="282.2511"
       height="6.125536"
       x="-560.00439"
       y="457.43701"
       transform="matrix(0,-1,1,0,0,0)"
       id="rect3218-5-2-4-6"
       style="color:#000000;fill:#414141;fill-opacity:1;fill-rule:nonzero;stroke:none;stroke-width:0;marker:none;visibility:visible;display:inline;overflow:visible;enable-background:accumulate" />
    <path
       d="m 801.06267,461.06634 0,16.87499 -67.5,0 0,-16.87499 67.5,0 z"
       id="rect5621-2-2-5-0-57-9-4-2-8-9-5-2-9-9-3-7-74-8"
       style="color:#000000;fill:#414141;fill-opacity:1;fill-rule:nonzero;stroke:none;stroke-width:0;marker:none;visibility:visible;display:inline;overflow:visible;enable-background:accumulate" />
    <path
       d="m 733.56267,469.50383 0,8.43749 -67.5,0 0,-8.43749 67.5,0 z"
       id="rect5621-2-2-5-0-57-9-4-2-8-9-5-2-9-9-3-7-7-4-7"
       style="color:#000000;fill:#414141;fill-opacity:1;fill-rule:nonzero;stroke:none;stroke-width:0;marker:none;visibility:visible;display:inline;overflow:visible;enable-background:accumulate" />
    <path
       d="m 463.56267,452.62883 67.5,0 0,67.5 0,33.75 -67.5,0 0,-33.75 0,-67.5 z m 6.125,29.34375 0,12.40625 2.875,0 0,17.75 -2.875,0 0,12.375 2.875,0 0,3.5 3.5,0 0,2.875 12.375,0 0,-2.875 17.75,0 0,2.875 12.4062,0 0,-2.875 3.4688,0 0,-3.5 2.875,0 0,-12.375 -2.875,0 0,-17.75 2.875,0 0,-12.40625 -2.875,0 0,-3.46875 -3.4688,0 0,-2.875 -12.4062,0 0,2.875 -17.75,0 0,-2.875 -12.375,0 0,2.875 -3.5,0 0,3.46875 -2.875,0 z"
       id="rect7292-1-2-0-0-1-4"
       style="color:#000000;fill:#414141;fill-opacity:1;fill-rule:nonzero;stroke:none;stroke-width:0;marker:none;visibility:visible;display:inline;overflow:visible;enable-background:accumulate" />
    <path
       d="m 463.56267,351.37883 67.5,0 0,67.5 0,33.75 -67.5,0 0,-33.75 0,-67.5 z m 6.125,29.34375 0,12.40625 2.875,0 0,17.75 -2.875,0 0,12.375 2.875,0 0,3.5 3.5,0 0,2.875 12.375,0 0,-2.875 17.75,0 0,2.875 12.4062,0 0,-2.875 3.4688,0 0,-3.5 2.875,0 0,-12.375 -2.875,0 0,-17.75 2.875,0 0,-12.40625 -2.875,0 0,-3.46875 -3.4688,0 0,-2.875 -12.4062,0 0,2.875 -17.75,0 0,-2.875 -12.375,0 0,2.875 -3.5,0 0,3.46875 -2.875,0 z"
       id="rect7292-1-2-0-2-9-7-6"
       style="color:#000000;fill:#414141;fill-opacity:1;fill-rule:nonzero;stroke:none;stroke-width:0;marker:none;visibility:visible;display:inline;overflow:visible;enable-background:accumulate" />
    <rect
       width="8.4375"
       height="6.125536"
       x="-277.75327"
       y="868.56262"
       transform="matrix(0,-1,1,0,0,0)"
       id="rect3218-5-8-8-0-6"
       style="color:#000000;fill:#414141;fill-opacity:1;fill-rule:nonzero;stroke:none;stroke-width:0;marker:none;visibility:visible;display:inline;overflow:visible;enable-background:accumulate" />
    <rect
       width="16.875011"
       height="6.125536"
       x="-269.31577"
       y="801.06262"
       transform="matrix(0,-1,1,0,0,0)"
       id="rect3218-5-8-8-4-4"
       style="color:#000000;fill:#414141;fill-opacity:1;fill-rule:nonzero;stroke:none;stroke-width:0;marker:none;visibility:visible;display:inline;overflow:visible;enable-background:accumulate" />
    <rect
       width="8.4374962"
       height="6.125536"
       x="-260.87827"
       y="727.43713"
       transform="matrix(0,-1,1,0,0,0)"
       id="rect3218-5-8-8-2-6"
       style="color:#000000;fill:#414141;fill-opacity:1;fill-rule:nonzero;stroke:none;stroke-width:0;marker:none;visibility:visible;display:inline;overflow:visible;enable-background:accumulate" />
    <rect
       width="16.875"
       height="6.125536"
       x="-277.75327"
       y="659.93713"
       transform="matrix(0,-1,1,0,0,0)"
       id="rect3218-5-8-8-6-3"
       style="color:#000000;fill:#414141;fill-opacity:1;fill-rule:nonzero;stroke:none;stroke-width:0;marker:none;visibility:visible;display:inline;overflow:visible;enable-background:accumulate" />
    <rect
       width="134.99994"
       height="6.125536"
       x="868.56262"
       y="277.75327"
       id="rect3218-6-2-9-6"
       style="color:#000000;fill:#414141;fill-opacity:1;fill-rule:nonzero;stroke:none;stroke-width:0;marker:none;visibility:visible;display:inline;overflow:visible;enable-background:accumulate" />
    <rect
       width="67.500038"
       height="6.125536"
       x="801.06262"
       y="269.31577"
       id="rect3218-6-2-0-7"
       style="color:#000000;fill:#414141;fill-opacity:1;fill-rule:nonzero;stroke:none;stroke-width:0;marker:none;visibility:visible;display:inline;overflow:visible;enable-background:accumulate" />
    <rect
       width="67.499992"
       height="6.125536"
       x="733.56262"
       y="252.4408"
       id="rect3218-6-2-6-4"
       style="color:#000000;fill:#414141;fill-opacity:1;fill-rule:nonzero;stroke:none;stroke-width:0;marker:none;visibility:visible;display:inline;overflow:visible;enable-background:accumulate" />
    <rect
       width="67.499947"
       height="6.125536"
       x="666.06262"
       y="260.87827"
       id="rect3218-6-2-7-6"
       style="color:#000000;fill:#414141;fill-opacity:1;fill-rule:nonzero;stroke:none;stroke-width:0;marker:none;visibility:visible;display:inline;overflow:visible;enable-background:accumulate" />
    <path
       d="m 1370.0699,477.94134 0,8.43749 101.25,0 0,-8.43749 -101.25,0 z"
       id="rect5621-2-2-5-0-57-9-4-2-8-9-5-2-9-9-3-7-7-4-0"
       style="color:#000000;fill:#414141;fill-opacity:1;fill-rule:nonzero;stroke:none;stroke-width:0;marker:none;visibility:visible;display:inline;overflow:visible;enable-background:accumulate" />
    <path
       d="m 767.31267,486.37882 0,67.5 -67.5,0 -33.75,0 0,-67.5 33.75,0 67.5,0 z m -29.3438,6.125 -12.4062,0 0,2.875 -17.75,0 0,-2.875 -12.375,0 0,2.875 -3.5,0 0,3.5 -2.875,0 0,12.375 2.875,0 0,17.75 -2.875,0 0,12.40625 2.875,0 0,3.46875 3.5,0 0,2.875 12.375,0 0,-2.875 17.75,0 0,2.875 12.4062,0 0,-2.875 3.4688,0 0,-3.46875 2.875,0 0,-12.40625 -2.875,0 0,-17.75 2.875,0 0,-12.375 -2.875,0 0,-3.5 -3.4688,0 0,-2.875 z"
       id="rect7292-1-2-6-8-3"
       style="color:#000000;fill:#414141;fill-opacity:1;fill-rule:nonzero;stroke:none;stroke-width:0;marker:none;visibility:visible;display:inline;overflow:visible;enable-background:accumulate" />
    <rect
       width="101.24986"
       height="6.125536"
       x="767.31262"
       y="545.44135"
       id="rect3218-7-5-2"
       style="color:#000000;fill:#414141;fill-opacity:1;fill-rule:nonzero;stroke:none;stroke-width:0;marker:none;visibility:visible;display:inline;overflow:visible;enable-background:accumulate" />
    <rect
       width="303.75006"
       height="6.125536"
       x="463.56244"
       y="553.87885"
       id="rect3218-7-5-0-2"
       style="color:#000000;fill:#414141;fill-opacity:1;fill-rule:nonzero;stroke:none;stroke-width:0;marker:none;visibility:visible;display:inline;overflow:visible;enable-background:accumulate" />
    <rect
       width="8.4374943"
       height="6.125536"
       x="-560.00439"
       y="767.3125"
       transform="matrix(0,-1,1,0,0,0)"
       id="rect3218-5-8-8-48"
       style="color:#000000;fill:#414141;fill-opacity:1;fill-rule:nonzero;stroke:none;stroke-width:0;marker:none;visibility:visible;display:inline;overflow:visible;enable-background:accumulate" />
    <path
       d="m 767.31267,477.94133 0,8.43749 -101.25,0 0,-8.43749 101.25,0 z"
       id="rect5621-2-2-5-0-57-9-4-2-8-9-5-2-9-9-3-7-7-4-0-0"
       style="color:#000000;fill:#414141;fill-opacity:1;fill-rule:nonzero;stroke:none;stroke-width:0;marker:none;visibility:visible;display:inline;overflow:visible;enable-background:accumulate" />
  </g>
</svg>
