<?xml version="1.0" encoding="UTF-8" standalone="no"?>
<!-- Created with Inkscape (http://www.inkscape.org/) -->

<svg
   xmlns:dc="http://purl.org/dc/elements/1.1/"
   xmlns:cc="http://creativecommons.org/ns#"
   xmlns:rdf="http://www.w3.org/1999/02/22-rdf-syntax-ns#"
   xmlns:svg="http://www.w3.org/2000/svg"
   xmlns="http://www.w3.org/2000/svg"
   xmlns:sodipodi="http://sodipodi.sourceforge.net/DTD/sodipodi-0.dtd"
   xmlns:inkscape="http://www.inkscape.org/namespaces/inkscape"
   width="2104.7244"
   height="1052.36"
   id="svg2"
   version="1.1"
   inkscape:version="0.48.3.1 r9886"
   sodipodi:docname="tryboard_2.svg"
   inkscape:export-filename="/home/yuriy/Creative/Necoboard_v._1.1.png"
   inkscape:export-xdpi="179.99875"
   inkscape:export-ydpi="179.99875">
  <defs
     id="defs4">
    <symbol
       id="*Paper_Space0" />
    <symbol
       id="*Paper_Space" />
    <symbol
       id="*Model_Space" />
    <pattern
       id="Hatch"
       x="0"
       y="0"
       patternUnits="userSpaceOnUse"
       width="8"
       height="8">
      <path
         id="path3033"
         d="M8 4 l-4,4"
         stroke-width="0.25"
         stroke="#000000"
         linecap="square" />
      <path
         id="path3035"
         d="M6 2 l-4,4"
         stroke-width="0.25"
         stroke="#000000"
         linecap="square" />
      <path
         id="path3037"
         d="M4 0 l-4,4"
         stroke-width="0.25"
         stroke="#000000"
         linecap="square" />
    </pattern>
    <marker
       orient="auto"
       id="DistanceX"
       style="overflow:visible"
       refX="0"
       refY="0">
      <path
         id="path3030"
         d="M 3,-3 -3,3 M 0,-5 0,5"
         style="stroke:#000000;stroke-width:0.5"
         inkscape:connector-curvature="0" />
    </marker>
  </defs>
  <sodipodi:namedview
     id="base"
     pagecolor="#ffffff"
     bordercolor="#666666"
     borderopacity="1.0"
     inkscape:pageopacity="0.0"
     inkscape:pageshadow="2"
     inkscape:zoom="2"
     inkscape:cx="501.26613"
     inkscape:cy="583.5483"
     inkscape:document-units="px"
     inkscape:current-layer="layer1"
     showgrid="true"
     units="mm"
     inkscape:window-width="1791"
     inkscape:window-height="1117"
     inkscape:window-x="0"
     inkscape:window-y="85"
     inkscape:window-maximized="0"
     inkscape:snap-bbox="true"
     inkscape:bbox-paths="true"
     inkscape:bbox-nodes="true"
     inkscape:snap-bbox-edge-midpoints="true"
     inkscape:snap-bbox-midpoints="true"
     inkscape:object-paths="true"
     inkscape:snap-intersection-paths="true"
     inkscape:object-nodes="true"
     inkscape:snap-smooth-nodes="true"
     inkscape:snap-midpoints="true"
     inkscape:snap-object-midpoints="true"
     inkscape:snap-center="true"
     inkscape:snap-page="true"
     inkscape:snap-global="true"
     objecttolerance="20"
     guidetolerance="20"
     inkscape:snap-grids="false"
     gridtolerance="10">
    <inkscape:grid
       type="xygrid"
       id="grid5555"
       empspacing="1"
       visible="true"
       enabled="true"
       snapvisiblegridlinesonly="true"
       units="mm"
       spacingx="1mm"
       spacingy="1mm"
       dotted="false" />
  </sodipodi:namedview>
  <metadata
     id="metadata7">
    <rdf:RDF>
      <cc:Work
         rdf:about="">
        <dc:format>image/svg+xml</dc:format>
        <dc:type
           rdf:resource="http://purl.org/dc/dcmitype/StillImage" />
        <dc:title></dc:title>
      </cc:Work>
    </rdf:RDF>
  </metadata>
  <g
     inkscape:label="Layer 1"
     inkscape:groupmode="layer"
     id="layer1"
     transform="translate(0,-0.00205801)">
    <path
       inkscape:connector-curvature="0"
       style="color:#000000;fill:#414141;fill-opacity:1;fill-rule:nonzero;stroke:none;stroke-width:0;marker:none;visibility:visible;display:inline;overflow:visible;enable-background:accumulate"
       d="m 473.7152,280.04979 0,67.5 67.5,0 0,-67.5 -67.5,0 z m 12.4688,6.125 12.4062,0 0,2.875 17.75,0 0,-2.875 12.375,0 0,2.875 3.5,0 0,3.5 2.875,0 0,12.375 -2.875,0 0,17.75 2.875,0 0,12.40625 -2.875,0 0,3.46875 -3.5,0 0,2.875 -12.375,0 0,-2.875 -17.75,0 0,2.875 -12.4062,0 0,-2.875 -3.4688,0 0,-3.46875 -2.875,0 0,-12.40625 2.875,0 0,-17.75 -2.875,0 0,-12.375 2.875,0 0,-3.5 3.4688,0 0,-2.875 z"
       id="rect5621-2-2-5-0-57-9-4-2-8-9-79-7-9-4-9" />
    <path
       inkscape:connector-curvature="0"
       style="color:#000000;fill:#414141;fill-opacity:1;fill-rule:nonzero;stroke:none;stroke-width:0;marker:none;visibility:visible;display:inline;overflow:visible;enable-background:accumulate"
       d="m 473.7152,347.54979 0,67.5 67.5,0 0,-67.5 -67.5,0 z m 12.4688,6.125 12.4062,0 0,2.875 17.75,0 0,-2.875 12.375,0 0,2.875 3.5,0 0,3.5 2.875,0 0,12.375 -2.875,0 0,17.75 2.875,0 0,12.40625 -2.875,0 0,3.46875 -3.5,0 0,2.875 -12.375,0 0,-2.875 -17.75,0 0,2.875 -12.4062,0 0,-2.875 -3.4688,0 0,-3.46875 -2.875,0 0,-12.40625 2.875,0 0,-17.75 -2.875,0 0,-12.375 2.875,0 0,-3.5 3.4688,0 0,-2.875 z"
       id="rect5621-2-2-5-0-57-9-4-2-8-9-4-2-0-5-2" />
    <path
       inkscape:connector-curvature="0"
       style="color:#000000;fill:#414141;fill-opacity:1;fill-rule:nonzero;stroke:none;stroke-width:0;marker:none;visibility:visible;display:inline;overflow:visible;enable-background:accumulate"
       d="m 473.7152,415.04979 0,67.50004 67.5,0 0,-67.50004 -67.5,0 z m 12.4688,6.125 12.4062,0 0,2.875 17.75,0 0,-2.875 12.375,0 0,2.875 3.5,0 0,3.50004 2.875,0 0,12.375 -2.875,0 0,17.75 2.875,0 0,12.4062 -2.875,0 0,3.4688 -3.5,0 0,2.875 -12.375,0 0,-2.875 -17.75,0 0,2.875 -12.4062,0 0,-2.875 -3.4688,0 0,-3.4688 -2.875,0 0,-12.4062 2.875,0 0,-17.75 -2.875,0 0,-12.375 2.875,0 0,-3.50004 3.4688,0 0,-2.875 z"
       id="rect5621-2-2-5-0-57-9-4-2-8-9-5-2-9-2-9" />
    <path
       inkscape:connector-curvature="0"
       style="color:#000000;fill:#414141;fill-opacity:1;fill-rule:nonzero;stroke:none;stroke-width:0;marker:none;visibility:visible;display:inline;overflow:visible;enable-background:accumulate"
       d="m 541.2152,263.1748 0,67.5 67.5,0 0,-67.5 -67.5,0 z m 12.4688,6.125 12.4062,0 0,2.875 17.75,0 0,-2.875 12.375,0 0,2.875 3.5,0 0,3.5 2.875,0 0,12.375 -2.875,0 0,17.75 2.875,0 0,12.40625 -2.875,0 0,3.46875 -3.5,0 0,2.875 -12.375,0 0,-2.875 -17.75,0 0,2.875 -12.4062,0 0,-2.875 -3.4688,0 0,-3.46875 -2.875,0 0,-12.40625 2.875,0 0,-17.75 -2.875,0 0,-12.375 2.875,0 0,-3.5 3.4688,0 0,-2.875 z"
       id="rect5621-2-2-5-0-57-9-4-2-8-9-79-74-2-69-5" />
    <path
       inkscape:connector-curvature="0"
       style="color:#000000;fill:#414141;fill-opacity:1;fill-rule:nonzero;stroke:none;stroke-width:0;marker:none;visibility:visible;display:inline;overflow:visible;enable-background:accumulate"
       d="m 541.2152,330.6748 0,67.5 67.5,0 0,-67.5 -67.5,0 z m 12.4688,6.125 12.4062,0 0,2.875 17.75,0 0,-2.875 12.375,0 0,2.875 3.5,0 0,3.5 2.875,0 0,12.375 -2.875,0 0,17.75 2.875,0 0,12.40625 -2.875,0 0,3.46875 -3.5,0 0,2.875 -12.375,0 0,-2.875 -17.75,0 0,2.875 -12.4062,0 0,-2.875 -3.4688,0 0,-3.46875 -2.875,0 0,-12.40625 2.875,0 0,-17.75 -2.875,0 0,-12.375 2.875,0 0,-3.5 3.4688,0 0,-2.875 z"
       id="rect5621-2-2-5-0-57-9-4-2-8-9-4-9-6-9-3" />
    <path
       inkscape:connector-curvature="0"
       style="color:#000000;fill:#414141;fill-opacity:1;fill-rule:nonzero;stroke:none;stroke-width:0;marker:none;visibility:visible;display:inline;overflow:visible;enable-background:accumulate"
       d="m 541.2152,398.1748 0,67.50003 67.5,0 0,-67.50003 -67.5,0 z m 12.4688,6.125 12.4062,0 0,2.875 17.75,0 0,-2.875 12.375,0 0,2.875 3.5,0 0,3.5 2.875,0 0,12.375 -2.875,0 0,17.75003 2.875,0 0,12.4062 -2.875,0 0,3.4688 -3.5,0 0,2.875 -12.375,0 0,-2.875 -17.75,0 0,2.875 -12.4062,0 0,-2.875 -3.4688,0 0,-3.4688 -2.875,0 0,-12.4062 2.875,0 0,-17.75003 -2.875,0 0,-12.375 2.875,0 0,-3.5 3.4688,0 0,-2.875 z"
       id="rect5621-2-2-5-0-57-9-4-2-8-9-5-3-0-53-6" />
    <path
       inkscape:connector-curvature="0"
       style="color:#000000;fill:#414141;fill-opacity:1;fill-rule:nonzero;stroke:none;stroke-width:0;marker:none;visibility:visible;display:inline;overflow:visible;enable-background:accumulate"
       d="m 608.7152,271.61229 0,67.5 67.5,0 0,-67.5 -67.5,0 z m 12.4688,6.125 12.4062,0 0,2.875 17.75,0 0,-2.875 12.375,0 0,2.875 3.5,0 0,3.5 2.875,0 0,12.375 -2.875,0 0,17.75 2.875,0 0,12.40625 -2.875,0 0,3.46875 -3.5,0 0,2.875 -12.375,0 0,-2.875 -17.75,0 0,2.875 -12.4062,0 0,-2.875 -3.4688,0 0,-3.46875 -2.875,0 0,-12.40625 2.875,0 0,-17.75 -2.875,0 0,-12.375 2.875,0 0,-3.5 3.4688,0 0,-2.875 z"
       id="rect5621-2-2-5-0-57-9-4-2-8-9-79-2-4-3-4" />
    <path
       inkscape:connector-curvature="0"
       style="color:#000000;fill:#414141;fill-opacity:1;fill-rule:nonzero;stroke:none;stroke-width:0;marker:none;visibility:visible;display:inline;overflow:visible;enable-background:accumulate"
       d="m 608.7152,339.11229 0,67.5 67.5,0 0,-67.5 -67.5,0 z m 12.4688,6.125 12.4062,0 0,2.875 17.75,0 0,-2.875 12.375,0 0,2.875 3.5,0 0,3.5 2.875,0 0,12.375 -2.875,0 0,17.75 2.875,0 0,12.40625 -2.875,0 0,3.46875 -3.5,0 0,2.875 -12.375,0 0,-2.875 -17.75,0 0,2.875 -12.4062,0 0,-2.875 -3.4688,0 0,-3.46875 -2.875,0 0,-12.40625 2.875,0 0,-17.75 -2.875,0 0,-12.375 2.875,0 0,-3.5 3.4688,0 0,-2.875 z"
       id="rect5621-2-2-5-0-57-9-4-2-8-9-4-0-2-39-3" />
    <path
       inkscape:connector-curvature="0"
       style="color:#000000;fill:#414141;fill-opacity:1;fill-rule:nonzero;stroke:none;stroke-width:0;marker:none;visibility:visible;display:inline;overflow:visible;enable-background:accumulate"
       d="m 608.7152,406.61229 0,67.50004 67.5,0 0,-67.50004 -67.5,0 z m 12.4688,6.125 12.4062,0 0,2.875 17.75,0 0,-2.875 12.375,0 0,2.875 3.5,0 0,3.5 2.875,0 0,12.37504 -2.875,0 0,17.75 2.875,0 0,12.4062 -2.875,0 0,3.4688 -3.5,0 0,2.875 -12.375,0 0,-2.875 -17.75,0 0,2.875 -12.4062,0 0,-2.875 -3.4688,0 0,-3.4688 -2.875,0 0,-12.4062 2.875,0 0,-17.75 -2.875,0 0,-12.37504 2.875,0 0,-3.5 3.4688,0 0,-2.875 z"
       id="rect5621-2-2-5-0-57-9-4-2-8-9-5-5-3-4-8" />
    <path
       inkscape:connector-curvature="0"
       style="color:#000000;fill:#414141;fill-opacity:1;fill-rule:nonzero;stroke:none;stroke-width:0;marker:none;visibility:visible;display:inline;overflow:visible;enable-background:accumulate"
       d="m 676.2152,288.48729 0,67.5 67.5,0 0,-67.5 -67.5,0 z m 12.4688,6.125 12.4062,0 0,2.875 17.75,0 0,-2.875 12.375,0 0,2.875 3.5,0 0,3.5 2.875,0 0,12.375 -2.875,0 0,17.75 2.875,0 0,12.40625 -2.875,0 0,3.46875 -3.5,0 0,2.875 -12.375,0 0,-2.875 -17.75,0 0,2.875 -12.4062,0 0,-2.875 -3.4688,0 0,-3.46875 -2.875,0 0,-12.40625 2.875,0 0,-17.75 -2.875,0 0,-12.375 2.875,0 0,-3.5 3.4688,0 0,-2.875 z"
       id="rect5621-2-2-5-0-57-9-4-2-8-9-79-7-7-55-2-2" />
    <path
       inkscape:connector-curvature="0"
       style="color:#000000;fill:#414141;fill-opacity:1;fill-rule:nonzero;stroke:none;stroke-width:0;marker:none;visibility:visible;display:inline;overflow:visible;enable-background:accumulate"
       d="m 676.2152,355.98729 0,67.5 67.5,0 0,-67.5 -67.5,0 z m 12.4688,6.125 12.4062,0 0,2.875 17.75,0 0,-2.875 12.375,0 0,2.875 3.5,0 0,3.5 2.875,0 0,12.375 -2.875,0 0,17.75 2.875,0 0,12.40625 -2.875,0 0,3.46875 -3.5,0 0,2.875 -12.375,0 0,-2.875 -17.75,0 0,2.875 -12.4062,0 0,-2.875 -3.4688,0 0,-3.46875 -2.875,0 0,-12.40625 2.875,0 0,-17.75 -2.875,0 0,-12.375 2.875,0 0,-3.5 3.4688,0 0,-2.875 z"
       id="rect5621-2-2-5-0-57-9-4-2-8-9-4-2-1-4-8-9" />
    <path
       inkscape:connector-curvature="0"
       style="color:#000000;fill:#414141;fill-opacity:1;fill-rule:nonzero;stroke:none;stroke-width:0;marker:none;visibility:visible;display:inline;overflow:visible;enable-background:accumulate"
       d="m 676.2152,423.48729 0,67.50004 67.5,0 0,-67.50004 -67.5,0 z m 12.4688,6.12504 12.4062,0 0,2.875 17.75,0 0,-2.875 12.375,0 0,2.875 3.5,0 0,3.5 2.875,0 0,12.375 -2.875,0 0,17.75 2.875,0 0,12.4062 -2.875,0 0,3.4688 -3.5,0 0,2.875 -12.375,0 0,-2.875 -17.75,0 0,2.875 -12.4062,0 0,-2.875 -3.4688,0 0,-3.4688 -2.875,0 0,-12.4062 2.875,0 0,-17.75 -2.875,0 0,-12.375 2.875,0 0,-3.5 3.4688,0 0,-2.875 z"
       id="rect5621-2-2-5-0-57-9-4-2-8-9-5-2-6-5-6-2" />
    <path
       inkscape:connector-curvature="0"
       style="color:#000000;fill:#414141;fill-opacity:1;fill-rule:nonzero;stroke:none;stroke-width:0;marker:none;visibility:visible;display:inline;overflow:visible;enable-background:accumulate"
       d="m 743.7152,288.48729 0,67.5 67.5,0 0,-67.5 -67.5,0 z m 12.4688,6.125 12.4062,0 0,2.875 17.75,0 0,-2.875 12.375,0 0,2.875 3.5,0 0,3.5 2.875,0 0,12.375 -2.875,0 0,17.75 2.875,0 0,12.40625 -2.875,0 0,3.46875 -3.5,0 0,2.875 -12.375,0 0,-2.875 -17.75,0 0,2.875 -12.4062,0 0,-2.875 -3.4688,0 0,-3.46875 -2.875,0 0,-12.40625 2.875,0 0,-17.75 -2.875,0 0,-12.375 2.875,0 0,-3.5 3.4688,0 0,-2.875 z"
       id="rect5621-2-2-5-0-57-9-4-2-8-9-79-74-4-9-5-2" />
    <path
       inkscape:connector-curvature="0"
       style="color:#000000;fill:#414141;fill-opacity:1;fill-rule:nonzero;stroke:none;stroke-width:0;marker:none;visibility:visible;display:inline;overflow:visible;enable-background:accumulate"
       d="m 743.7152,355.98729 0,67.5 67.5,0 0,-67.5 -67.5,0 z m 12.4688,6.125 12.4062,0 0,2.875 17.75,0 0,-2.875 12.375,0 0,2.875 3.5,0 0,3.5 2.875,0 0,12.375 -2.875,0 0,17.75 2.875,0 0,12.40625 -2.875,0 0,3.46875 -3.5,0 0,2.875 -12.375,0 0,-2.875 -17.75,0 0,2.875 -12.4062,0 0,-2.875 -3.4688,0 0,-3.46875 -2.875,0 0,-12.40625 2.875,0 0,-17.75 -2.875,0 0,-12.375 2.875,0 0,-3.5 3.4688,0 0,-2.875 z"
       id="rect5621-2-2-5-0-57-9-4-2-8-9-4-9-7-6-9-2" />
    <path
       inkscape:connector-curvature="0"
       style="color:#000000;fill:#414141;fill-opacity:1;fill-rule:nonzero;stroke:none;stroke-width:0;marker:none;visibility:visible;display:inline;overflow:visible;enable-background:accumulate"
       d="m 743.7152,423.48729 0,67.50004 67.5,0 0,-67.50004 -67.5,0 z m 12.4688,6.12504 12.4062,0 0,2.875 17.75,0 0,-2.875 12.375,0 0,2.875 3.5,0 0,3.5 2.875,0 0,12.375 -2.875,0 0,17.75 2.875,0 0,12.4062 -2.875,0 0,3.4688 -3.5,0 0,2.875 -12.375,0 0,-2.875 -17.75,0 0,2.875 -12.4062,0 0,-2.875 -3.4688,0 0,-3.4688 -2.875,0 0,-12.4062 2.875,0 0,-17.75 -2.875,0 0,-12.375 2.875,0 0,-3.5 3.4688,0 0,-2.875 z"
       id="rect5621-2-2-5-0-57-9-4-2-8-9-5-3-3-4-3-5" />
    <path
       inkscape:connector-curvature="0"
       style="color:#000000;fill:#414141;fill-opacity:1;fill-rule:nonzero;stroke:none;stroke-width:0;marker:none;visibility:visible;display:inline;overflow:visible;enable-background:accumulate"
       d="m 811.2152,288.48729 0,67.5 67.5,0 0,-67.5 -67.5,0 z m 12.4688,6.125 12.4062,0 0,2.875 17.75,0 0,-2.875 12.375,0 0,2.875 3.5,0 0,3.5 2.875,0 0,12.375 -2.875,0 0,17.75 2.875,0 0,12.40625 -2.875,0 0,3.46875 -3.5,0 0,2.875 -12.375,0 0,-2.875 -17.75,0 0,2.875 -12.4062,0 0,-2.875 -3.4688,0 0,-3.46875 -2.875,0 0,-12.40625 2.875,0 0,-17.75 -2.875,0 0,-12.375 2.875,0 0,-3.5 3.4688,0 0,-2.875 z"
       id="rect5621-2-2-5-0-57-9-4-2-8-9-1-7-4-3" />
    <path
       style="color:#000000;fill:#414141;fill-opacity:1;fill-rule:nonzero;stroke:none;stroke-width:0;marker:none;visibility:visible;display:inline;overflow:visible;enable-background:accumulate"
       d="m 574.9652,490.98733 -67.5,0 -67.5,0 0,6 0,55.5 0,6 67.5,0 67.5,0 0,-67.5 z m -19.3437,11.8125 -0.125,49.5 -11.6875,-0.031 0.094,-49.5 11.7188,0.031 z m -20.5313,0.6562 0,12.4063 -2.875,0 0,17.75 2.875,0 0,12.375 -2.875,0 0,3.5 -3.5,0 0,2.875 -12.375,0 0,-2.875 -17.75,0 0,2.875 -12.4062,0 0,-2.875 -3.4688,0 0,-3.5 -2.875,0 0,-12.375 2.875,0 0,-17.75 -2.875,0 0,-12.4063 2.875,0 0,-3.4687 3.4688,0 0,-2.875 12.4062,0 0,2.875 17.75,0 0,-2.875 12.375,0 0,2.875 3.5,0 0,3.4687 2.875,0 z m -64.0937,-0.8437 -0.094,49.5 -11.6875,-0.031 0.094,-49.5 11.6875,0.031 z"
       id="rect5621-2-2-5-0-57-9-4-2-8-9-8-1-6-7-3-8-4"
       inkscape:connector-curvature="0" />
    <path
       inkscape:connector-curvature="0"
       style="color:#000000;fill:#414141;fill-opacity:1;fill-rule:nonzero;stroke:none;stroke-width:0;marker:none;visibility:visible;display:inline;overflow:visible;enable-background:accumulate"
       d="m 406.2152,288.48729 0,67.5 67.5,0 0,-67.5 -67.5,0 z m 12.4688,6.125 12.4062,0 0,2.875 17.75,0 0,-2.875 12.375,0 0,2.875 3.5,0 0,3.5 2.875,0 0,12.375 -2.875,0 0,17.75 2.875,0 0,12.40625 -2.875,0 0,3.46875 -3.5,0 0,2.875 -12.375,0 0,-2.875 -17.75,0 0,2.875 -12.4062,0 0,-2.875 -3.4688,0 0,-3.46875 -2.875,0 0,-12.40625 2.875,0 0,-17.75 -2.875,0 0,-12.375 2.875,0 0,-3.5 3.4688,0 0,-2.875 z"
       id="rect5621-2-2-5-0-57-9-4-2-8-9-79-7-9-4-9-9" />
    <path
       inkscape:connector-curvature="0"
       style="color:#000000;fill:#414141;fill-opacity:1;fill-rule:nonzero;stroke:none;stroke-width:0;marker:none;visibility:visible;display:inline;overflow:visible;enable-background:accumulate"
       d="m 406.2152,355.98729 0,67.5 67.5,0 0,-67.5 -67.5,0 z m 12.4688,6.125 12.4062,0 0,2.875 17.75,0 0,-2.875 12.375,0 0,2.875 3.5,0 0,3.5 2.875,0 0,12.375 -2.875,0 0,17.75 2.875,0 0,12.40625 -2.875,0 0,3.46875 -3.5,0 0,2.875 -12.375,0 0,-2.875 -17.75,0 0,2.875 -12.4062,0 0,-2.875 -3.4688,0 0,-3.46875 -2.875,0 0,-12.40625 2.875,0 0,-17.75 -2.875,0 0,-12.375 2.875,0 0,-3.5 3.4688,0 0,-2.875 z"
       id="rect5621-2-2-5-0-57-9-4-2-8-9-4-2-0-5-2-0" />
    <path
       inkscape:connector-curvature="0"
       style="color:#000000;fill:#414141;fill-opacity:1;fill-rule:nonzero;stroke:none;stroke-width:0;marker:none;visibility:visible;display:inline;overflow:visible;enable-background:accumulate"
       d="m 406.2152,423.48729 0,67.50004 67.5,0 0,-67.50004 -67.5,0 z m 12.4688,6.125 12.4062,0 0,2.875 17.75,0 0,-2.875 12.375,0 0,2.875 3.5,0 0,3.50004 2.875,0 0,12.375 -2.875,0 0,17.75 2.875,0 0,12.4062 -2.875,0 0,3.4688 -3.5,0 0,2.875 -12.375,0 0,-2.875 -17.75,0 0,2.875 -12.4062,0 0,-2.875 -3.4688,0 0,-3.4688 -2.875,0 0,-12.4062 2.875,0 0,-17.75 -2.875,0 0,-12.375 2.875,0 0,-3.50004 3.4688,0 0,-2.875 z"
       id="rect5621-2-2-5-0-57-9-4-2-8-9-5-2-9-2-9-6" />
    <path
       style="color:#000000;fill:#414141;fill-opacity:1;fill-rule:nonzero;stroke:none;stroke-width:0;marker:none;visibility:visible;display:inline;overflow:visible;enable-background:accumulate"
       d="m 878.7152,457.23733 -67.5,0 0,67.5 0,33.75 67.5,0 0,-33.75 0,-67.5 z m -6.125,29.3437 0,12.4063 -2.875,0 0,17.75 2.875,0 0,12.375 -2.875,0 0,3.5 -3.5,0 0,2.875 -12.375,0 0,-2.875 -17.75,0 0,2.875 -12.4062,0 0,-2.875 -3.4688,0 0,-3.5 -2.875,0 0,-12.375 2.875,0 0,-17.75 -2.875,0 0,-12.4063 2.875,0 0,-3.4687 3.4688,0 0,-2.875 12.4062,0 0,2.875 17.75,0 0,-2.875 12.375,0 0,2.875 3.5,0 0,3.4687 2.875,0 z"
       id="rect7292-1-2-0-0-1-0-4"
       inkscape:connector-curvature="0" />
    <path
       inkscape:connector-curvature="0"
       style="color:#000000;fill:#414141;fill-opacity:1;fill-rule:nonzero;stroke:none;stroke-width:0;marker:none;visibility:visible;display:inline;overflow:visible;enable-background:accumulate"
       d="m 473.7152,482.54983 0,8.4375 202.5,0 0,-8.4375 -202.5,0 z"
       id="rect5621-2-2-5-0-57-9-4-2-8-9-5-2-9-9-3-7-7-4-0-06-1" />
    <path
       style="color:#000000;fill:#414141;fill-opacity:1;fill-rule:nonzero;stroke:none;stroke-width:0;marker:none;visibility:visible;display:inline;overflow:visible;enable-background:accumulate"
       d="m 574.9652,507.86233 0,67.5 67.5,0 33.75,0 0,-67.5 -33.75,0 -67.5,0 z m 29.3438,6.125 12.4062,0 0,2.875 17.75,0 0,-2.875 12.375,0 0,2.875 3.5,0 0,3.5 2.875,0 0,12.375 -2.875,0 0,17.75 2.875,0 0,12.40625 -2.875,0 0,3.46875 -3.5,0 0,2.875 -12.375,0 0,-2.875 -17.75,0 0,2.875 -12.4062,0 0,-2.875 -3.4688,0 0,-3.46875 -2.875,0 0,-12.40625 2.875,0 0,-17.75 -2.875,0 0,-12.375 2.875,0 0,-3.5 3.4688,0 0,-2.875 z"
       id="rect7292-1-2-6-8-7-5"
       inkscape:connector-curvature="0" />
    <path
       inkscape:connector-curvature="0"
       style="color:#000000;fill:#414141;fill-opacity:1;fill-rule:nonzero;stroke:none;stroke-width:0;marker:none;visibility:visible;display:inline;overflow:visible;enable-background:accumulate"
       d="m 574.9652,490.98733 0,16.875 101.25,0 0,-16.875 -101.25,0 z"
       id="rect5621-2-2-5-0-57-9-4-2-8-9-5-2-9-9-3-7-74-5-1-5" />
    <path
       style="color:#000000;fill:#414141;fill-opacity:1;fill-rule:nonzero;stroke:none;stroke-width:0;marker:none;visibility:visible;display:inline;overflow:visible;enable-background:accumulate"
       d="m 345.041,519.51409 28.5266,61.17575 28.5269,61.17583 5.4378,-2.5357 50.3001,-23.45533 5.4378,-2.5357 -28.5267,-61.1758 -28.5266,-61.17581 -61.1759,28.52677 z m 18.8807,12.53919 44.915,-20.80632 4.9114,10.60558 -44.902,20.8344 -4.9244,-10.63384 z m 9.2715,18.33036 11.244,-5.2431 1.2151,2.6056 16.087,-7.5015 -1.2149,-2.6057 11.2154,-5.22981 1.2151,2.60563 3.172,-1.47916 1.4792,3.17204 2.6056,-1.215 5.2299,11.2156 -2.6056,1.215 7.5015,16.087 2.6055,-1.2151 5.2432,11.2438 -2.6056,1.2151 1.4659,3.1438 -3.1721,1.4791 1.2151,2.6057 -11.2156,5.2299 -1.215,-2.6057 -16.087,7.5015 1.215,2.6056 -11.244,5.2432 -1.215,-2.6056 -3.1436,1.4659 -1.466,-3.1438 -2.6056,1.215 -5.2431,-11.2438 2.6056,-1.2151 -7.5014,-16.0869 -2.6057,1.215 -5.2299,-11.2155 2.6057,-1.2151 -1.4792,-3.172 3.1435,-1.4659 -1.215,-2.6057 z m 26.3226,58.4452 44.902,-20.8344 4.9114,10.6056 -44.9021,20.8344 -4.9113,-10.6055 z"
       id="rect5621-2-2-5-0-57-9-4-2-8-9-8-5-3-8-9-7"
       inkscape:connector-curvature="0" />
    <path
       style="color:#000000;fill:#414141;fill-opacity:1;fill-rule:nonzero;stroke:none;stroke-width:0;marker:none;visibility:visible;display:inline;overflow:visible;enable-background:accumulate"
       d="m 283.8652,548.04084 28.5266,61.1757 28.5269,61.17593 5.4378,-2.5358 50.3001,-23.4553 5.4379,-2.5357 -28.5269,-61.17583 -28.5266,-61.17575 -61.1758,28.52675 z m 18.8808,12.5392 44.9149,-20.8063 4.9114,10.6055 -44.902,20.8344 -4.9244,-10.6338 z m 9.2714,18.3303 11.244,-5.2431 1.2151,2.6056 16.0869,-7.5015 -1.215,-2.6056 11.2156,-5.2299 1.215,2.6057 3.1721,-1.4792 1.4791,3.1721 2.6057,-1.2151 5.2298,11.2156 -2.6057,1.215 7.5015,16.087 2.6056,-1.2151 5.2431,11.2439 -2.6056,1.215 1.466,3.1438 -3.172,1.4792 1.215,2.6056 -11.2155,5.2299 -1.2151,-2.6056 -16.087,7.5014 1.2151,2.60573 -11.244,5.243 -1.2151,-2.6055 -3.1436,1.4659 -1.466,-3.1438 -2.6055,1.215 -5.2432,-11.24383 2.6057,-1.215 -7.5014,-16.087 -2.6057,1.215 -5.2298,-11.2155 2.6055,-1.215 -1.4792,-3.1721 3.1436,-1.4659 -1.215,-2.6057 z m 26.3226,58.44523 44.9021,-20.83443 4.9112,10.60553 -44.9018,20.8344 -4.9114,-10.6055 z"
       id="rect5621-2-2-5-0-57-9-4-2-8-9-8-8-9-6-1-4"
       inkscape:connector-curvature="0" />
    <path
       style="color:#000000;fill:#414141;fill-opacity:1;fill-rule:nonzero;stroke:none;stroke-width:0;marker:none;visibility:visible;display:inline;overflow:visible;enable-background:accumulate"
       d="m 463.2702,613.33894 -61.1757,28.52673 -61.1758,28.5268 2.5357,5.4378 23.4553,50.3 2.5357,5.4379 61.1758,-28.5268 61.1759,-28.5267 -28.5269,-61.17573 z m -12.539,18.88073 20.8062,44.9151 -10.6056,4.9113 -20.8345,-44.9019 10.634,-4.9245 z m -18.3306,9.2716 5.2432,11.244 -2.6056,1.215 7.5015,16.0869 2.6055,-1.215 5.2299,11.2156 -2.6056,1.215 1.4792,3.1721 -3.1721,1.4791 1.2151,2.6057 -11.2156,5.2299 -1.2151,-2.6057 -16.0869,7.5015 1.215,2.6057 -11.2439,5.243 -1.215,-2.6055 -3.1438,1.4659 -1.4792,-3.1721 -2.6056,1.215 -5.2298,-11.2155 2.6055,-1.2151 -7.5014,-16.0869 -2.6057,1.215 -5.2431,-11.2439 2.6056,-1.215 -1.4659,-3.1438 3.1438,-1.4659 -1.215,-2.6058 11.2438,-5.243 1.215,2.6057 16.087,-7.5014 -1.215,-2.6057 11.2155,-5.2299 1.2152,2.6056 3.1719,-1.4792 1.4659,3.1438 2.6056,-1.2151 z m -58.4454,26.3226 20.8345,44.9019 -10.6055,4.9113 -20.8343,-44.9019 10.6055,-4.9113 z"
       id="rect5621-2-2-5-0-57-9-4-2-8-9-8-1-36-4-9-1-8"
       inkscape:connector-curvature="0" />
    <path
       style="color:#000000;fill:#414141;fill-opacity:1;fill-rule:nonzero;stroke:none;stroke-width:0;marker:none;visibility:visible;display:inline;overflow:visible;enable-background:accumulate"
       d="m 811.2152,490.98733 -67.5,0 -67.5,0 0,6 0,55.5 0,6 67.5,0 67.5,0 0,-67.5 z m -19.3437,11.8125 -0.125,49.5 -11.6875,-0.031 0.094,-49.5 11.7188,0.031 z m -20.5313,0.6562 0,12.4063 -2.875,0 0,17.75 2.875,0 0,12.375 -2.875,0 0,3.5 -3.5,0 0,2.875 -12.375,0 0,-2.875 -17.75,0 0,2.875 -12.4062,0 0,-2.875 -3.4688,0 0,-3.5 -2.875,0 0,-12.375 2.875,0 0,-17.75 -2.875,0 0,-12.4063 2.875,0 0,-3.4687 3.4688,0 0,-2.875 12.4062,0 0,2.875 17.75,0 0,-2.875 12.375,0 0,2.875 3.5,0 0,3.4687 2.875,0 z m -64.0937,-0.8437 -0.094,49.5 -11.6875,-0.031 0.094,-49.5 11.6875,0.031 z"
       id="rect5621-2-2-5-0-57-9-4-2-8-9-8-1-6-7-3-8-4-2"
       inkscape:connector-curvature="0" />
    <path
       inkscape:connector-curvature="0"
       style="color:#000000;fill:#414141;fill-opacity:1;fill-rule:nonzero;stroke:none;stroke-width:0;marker:none;visibility:visible;display:inline;overflow:visible;enable-background:accumulate"
       d="m 391.7089,491.00959 -110.4063,51.5 2.5626,5.53125 122.3124,-57.03125 -14.4687,0 z"
       id="path5806" />
    <path
       style="color:#000000;fill:#414141;fill-opacity:1;fill-rule:nonzero;stroke:none;stroke-width:0;marker:none;visibility:visible;display:inline;overflow:visible;enable-background:accumulate"
       d="m 406.2152,389.73733 -67.5,0 0,67.5 0,33.75 67.5,0 0,-33.75 0,-67.5 z m -6.125,29.3437 0,12.4063 -2.875,0 0,17.75 2.875,0 0,12.375 -2.875,0 0,3.5 -3.5,0 0,2.875 -12.375,0 0,-2.875 -17.75,0 0,2.875 -12.4062,0 0,-2.875 -3.4688,0 0,-3.5 -2.875,0 0,-12.375 2.875,0 0,-17.75 -2.875,0 0,-12.4063 2.875,0 0,-3.4687 3.4688,0 0,-2.875 12.4062,0 0,2.875 17.75,0 0,-2.875 12.375,0 0,2.875 3.5,0 0,3.4687 2.875,0 z"
       id="rect7292-1-2-0-0-1-0-4-4"
       inkscape:connector-curvature="0" />
    <path
       style="color:#000000;fill:#414141;fill-opacity:1;fill-rule:nonzero;stroke:none;stroke-width:0;marker:none;visibility:visible;display:inline;overflow:visible;enable-background:accumulate"
       d="m 406.2152,288.48729 -67.5,0 0,67.5 0,33.75 67.5,0 0,-33.75 0,-67.5 z m -6.125,29.3437 0,12.4063 -2.875,0 0,17.75 2.875,0 0,12.375 -2.875,0 0,3.5 -3.5,0 0,2.875 -12.375,0 0,-2.875 -17.75,0 0,2.875 -12.4062,0 0,-2.875 -3.4688,0 0,-3.5 -2.875,0 0,-12.375 2.875,0 0,-17.75 -2.875,0 0,-12.4063 2.875,0 0,-3.4687 3.4688,0 0,-2.875 12.4062,0 0,2.875 17.75,0 0,-2.875 12.375,0 0,2.875 3.5,0 0,3.4687 2.875,0 z"
       id="rect7292-1-2-0-0-1-0-4-9-6"
       inkscape:connector-curvature="0" />
    <path
       style="color:#000000;fill:#414141;fill-opacity:1;fill-rule:nonzero;stroke:none;stroke-width:0;marker:none;visibility:visible;display:inline;overflow:visible;enable-background:accumulate"
       d="m 878.7152,355.98733 -67.5,0 0,67.5 0,33.75 67.5,0 0,-33.75 0,-67.5 z m -6.125,29.3437 0,12.4063 -2.875,0 0,17.75 2.875,0 0,12.375 -2.875,0 0,3.5 -3.5,0 0,2.875 -12.375,0 0,-2.875 -17.75,0 0,2.875 -12.4062,0 0,-2.875 -3.4688,0 0,-3.5 -2.875,0 0,-12.375 2.875,0 0,-17.75 -2.875,0 0,-12.4063 2.875,0 0,-3.4687 3.4688,0 0,-2.875 12.4062,0 0,2.875 17.75,0 0,-2.875 12.375,0 0,2.875 3.5,0 0,3.4687 2.875,0 z"
       id="rect7292-1-2-0-0-1-0-4-5"
       inkscape:connector-curvature="0" />
  </g>
</svg>
