<?xml version="1.0" encoding="UTF-8" standalone="no"?>
<!-- Created with Inkscape (http://www.inkscape.org/) -->

<svg
   xmlns:dc="http://purl.org/dc/elements/1.1/"
   xmlns:cc="http://creativecommons.org/ns#"
   xmlns:rdf="http://www.w3.org/1999/02/22-rdf-syntax-ns#"
   xmlns:svg="http://www.w3.org/2000/svg"
   xmlns="http://www.w3.org/2000/svg"
   xmlns:sodipodi="http://sodipodi.sourceforge.net/DTD/sodipodi-0.dtd"
   xmlns:inkscape="http://www.inkscape.org/namespaces/inkscape"
   width="2104.7244"
   height="1052.36"
   id="svg2"
   version="1.1"
   inkscape:version="0.48.3.1 r9886"
   sodipodi:docname="tryboard.svg"
   inkscape:export-filename="/home/yuriy/Creative/Necoboard_v._1.1.png"
   inkscape:export-xdpi="179.99875"
   inkscape:export-ydpi="179.99875">
  <defs
     id="defs4">
    <symbol
       id="*Paper_Space0" />
    <symbol
       id="*Paper_Space" />
    <symbol
       id="*Model_Space" />
    <pattern
       id="Hatch"
       x="0"
       y="0"
       patternUnits="userSpaceOnUse"
       width="8"
       height="8">
      <path
         id="path3033"
         d="M8 4 l-4,4"
         stroke-width="0.25"
         stroke="#000000"
         linecap="square" />
      <path
         id="path3035"
         d="M6 2 l-4,4"
         stroke-width="0.25"
         stroke="#000000"
         linecap="square" />
      <path
         id="path3037"
         d="M4 0 l-4,4"
         stroke-width="0.25"
         stroke="#000000"
         linecap="square" />
    </pattern>
    <marker
       orient="auto"
       id="DistanceX"
       style="overflow:visible"
       refX="0"
       refY="0">
      <path
         id="path3030"
         d="M 3,-3 -3,3 M 0,-5 0,5"
         style="stroke:#000000;stroke-width:0.5"
         inkscape:connector-curvature="0" />
    </marker>
  </defs>
  <sodipodi:namedview
     id="base"
     pagecolor="#ffffff"
     bordercolor="#666666"
     borderopacity="1.0"
     inkscape:pageopacity="0.0"
     inkscape:pageshadow="2"
     inkscape:zoom="0.45254834"
     inkscape:cx="1448.6661"
     inkscape:cy="174.67046"
     inkscape:document-units="px"
     inkscape:current-layer="layer1"
     showgrid="true"
     units="mm"
     inkscape:window-width="1791"
     inkscape:window-height="1117"
     inkscape:window-x="85"
     inkscape:window-y="24"
     inkscape:window-maximized="0"
     inkscape:snap-bbox="true"
     inkscape:bbox-paths="true"
     inkscape:bbox-nodes="true"
     inkscape:snap-bbox-edge-midpoints="true"
     inkscape:snap-bbox-midpoints="true"
     inkscape:object-paths="true"
     inkscape:snap-intersection-paths="true"
     inkscape:object-nodes="true"
     inkscape:snap-smooth-nodes="true"
     inkscape:snap-midpoints="true"
     inkscape:snap-object-midpoints="true"
     inkscape:snap-center="true"
     inkscape:snap-page="true"
     inkscape:snap-global="true"
     objecttolerance="20"
     guidetolerance="20"
     inkscape:snap-grids="false"
     gridtolerance="10">
    <inkscape:grid
       type="xygrid"
       id="grid5555"
       empspacing="1"
       visible="true"
       enabled="true"
       snapvisiblegridlinesonly="true"
       units="mm"
       spacingx="1mm"
       spacingy="1mm"
       dotted="false" />
  </sodipodi:namedview>
  <metadata
     id="metadata7">
    <rdf:RDF>
      <cc:Work
         rdf:about="">
        <dc:format>image/svg+xml</dc:format>
        <dc:type
           rdf:resource="http://purl.org/dc/dcmitype/StillImage" />
        <dc:title></dc:title>
      </cc:Work>
    </rdf:RDF>
  </metadata>
  <g
     inkscape:label="Layer 1"
     inkscape:groupmode="layer"
     id="layer1"
     transform="translate(0,-0.00205801)">
    <path
       style="color:#000000;fill:#414141;fill-opacity:1;fill-rule:nonzero;stroke:none;stroke-width:0;marker:none;visibility:visible;display:inline;overflow:visible;enable-background:accumulate"
       d="m 1445.9652,478.98733 -67.5,0 -67.5,0 0,6 0,55.5 0,6 67.5,0 67.5,0 0,-67.5 z m -19.3437,11.8125 -0.125,49.5 -11.6875,-0.031 0.094,-49.5 11.7188,0.031 z m -20.5313,0.6562 0,12.4063 -2.875,0 0,17.75 2.875,0 0,12.375 -2.875,0 0,3.5 -3.5,0 0,2.875 -12.375,0 0,-2.875 -17.75,0 0,2.875 -12.4062,0 0,-2.875 -3.4688,0 0,-3.5 -2.875,0 0,-12.375 2.875,0 0,-17.75 -2.875,0 0,-12.4063 2.875,0 0,-3.4687 3.4688,0 0,-2.875 12.4062,0 0,2.875 17.75,0 0,-2.875 12.375,0 0,2.875 3.5,0 0,3.4687 2.875,0 z m -64.0937,-0.8437 -0.094,49.5 -11.6875,-0.031 0.094,-49.5 11.6875,0.031 z"
       id="rect5621-2-2-5-0-57-9-4-2-8-9-8-1-6-7-3-8-4"
       inkscape:connector-curvature="0" />
  </g>
</svg>
